<?xml version="1.0" encoding="utf-8"?>
<!-- Generator: Adobe Illustrator 16.0.0, SVG Export Plug-In . SVG Version: 6.00 Build 0)  -->
<!DOCTYPE svg PUBLIC "-//W3C//DTD SVG 1.1//EN" "http://www.w3.org/Graphics/SVG/1.1/DTD/svg11.dtd">
<svg version="1.1" id="Layer_1" xmlns="http://www.w3.org/2000/svg" xmlns:xlink="http://www.w3.org/1999/xlink" x="0px" y="0px"
	 width="422.415px" height="437.932px" viewBox="269.354 4.333 422.415 437.932"
	 enable-background="new 269.354 4.333 422.415 437.932" xml:space="preserve">
<g transform="scale(1 -1)">
	<g transform="translate(0 -75)">
		<g>
			<path marker-start="none" marker-end="none" d="M283.214-366.896c-2.831,0.161-5.639,0.228-8.464,0.263
				c-0.442,0-0.807,0.365-0.807,0.807c0,0.442,0.364,0.807,0.807,0.807c3.297-0.018,6.672,0.077,9.963,0.299
				c1.648,0.113,3.303,0.263,4.946,0.364c1.463,0.09,2.987,0.042,4.456,0.065c2.951,0.054,5.908,0.155,8.853,0.245
				c4.88,0.161,9.778,0.4,14.67,0.663c-4.181,0.119-8.356,0.251-12.526,0.406c-7.455,0.269-14.981,0.478-22.412,0.962
				c-0.968,0.048-1.75,0.794-1.87,1.726c-1.003-0.035-2.132-0.012-3.094,0.114c-0.597,0.083-1.32,0.023-1.833,0.376
				c-0.556,0.376-1.093,1.559-1.261,2.21c-0.681,2.635-0.047,4.665,1.058,6.756c0.567,7.467,0.908,14.934,1.356,22.395
				c-0.09,0.514-0.179,1.027-0.263,1.547c-0.334,1.936-0.752,3.996-0.956,5.967c-0.107-1.702-0.221-3.404-0.34-5.113
				c-0.442-6.266-0.974-12.562-1.655-18.804c-0.287-2.604-0.609-5.196-0.89-7.801c-0.024-0.239-0.25-0.412-0.483-0.389
				c-0.239,0.024-0.413,0.245-0.395,0.484c0.58,5.346,1.195,10.668,1.685,16.026c0.854,9.378,1.368,18.857,1.708,28.283
				c-0.12,1.732-0.227,3.453-0.341,5.167c-0.484,7.287-0.86,14.581-1.153,21.881c-0.173,4.259-0.394,8.529-0.49,12.788
				c-0.298,12.682-0.747,25.339-0.806,38.032c-0.006,0.891-0.012,1.787-0.018,2.683c-0.251,4.318-0.508,8.638-0.735,12.962
				c-0.406,7.586-0.734,15.184-1.093,22.782c-0.395,8.309-0.98,16.618-0.992,24.927c-0.012,5.818,0.149,11.636,0.382,17.448
				c-0.299,12.568-0.532,25.142-0.675,37.709c-0.083,6.69-0.089,13.398-0.149,20.088c-0.024,2.437,0.036,4.898-0.024,7.335
				c-0.048,1.852,0,3.656,0.036,5.507c0.012,0.609-0.03,1.23-0.012,1.84c0.018,0.603-0.018,1.225-0.006,1.833
				c0.006,0.341-0.012,0.598,0,0.878l0.012,0.155c0.036,0.269,0.131,0.525,0.394,0.884l0.185,0.125
				c0.765,0.562,2.043,0.191,2.181-0.776l0.047-0.532l0.024,0.185l0.006-0.956l0.083-6.386c0.012-1.29,0.018-2.592,0.018-3.864
				c0.107,0.43,0.227,0.878,0.352,1.326c0.317,1.135,0.657,2.27,1.021,3.375c1.063,4.6,3.1,8.9,5.836,12.938
				c-0.412,0.34-0.818,0.681-1.225,1.039c-0.173,0.131-0.197,0.395-0.06,0.562c0.131,0.173,0.395,0.197,0.567,0.06
				c0.293-0.257,0.585-0.514,0.89-0.759c0.209,0.8,0.454,1.595,0.729,2.377c2.879,8.208,7.878,13.763,14.784,18.29
				c2.921,4.534,5.979,8.984,9.043,13.422c1.488,2.145,2.993,4.283,4.516,6.415c-0.848,0.06-1.75-0.023-2.73-0.292
				c-0.298-0.072-0.597,0.114-0.669,0.406c-0.072,0.299,0.114,0.597,0.406,0.669c0.848,0.221,1.917,0.484,2.795,0.388
				c0.347-0.042,0.645-0.078,0.95-0.119c2.383,3.309,4.791,6.588,7.222,9.856c-0.418,0.334-0.752,0.609-0.771,0.645
				c-0.221,0.197-0.245,0.538-0.054,0.759c0.197,0.227,0.538,0.25,0.765,0.054c0.018-0.054,0.316-0.293,0.705-0.592
				c2.162,2.903,4.331,5.789,6.511,8.673c-0.036,0.018-0.072,0.042-0.102,0.066c-0.299,0.185-0.394,0.585-0.203,0.89
				c0.185,0.298,0.585,0.394,0.89,0.203c0.066-0.048,0.125-0.09,0.191-0.125c2.043,2.694,4.086,5.388,6.129,8.094
				c0.311,0.418,0.633,0.836,0.962,1.26c-0.072,0.072-0.144,0.144-0.215,0.221c-0.209,0.209-0.209,0.579,0,0.789h0.794
				c0.03-0.042,0.072-0.083,0.114-0.125c1.427,1.822,2.909,3.62,4.372,5.4c1.858,2.27,3.68,4.569,5.543,6.828
				c1.171,1.416,2.335,2.849,3.5,4.271c-0.609,0.777-1.165,1.571-1.571,2.336c-0.233,0.364-0.119,0.854,0.245,1.087
				c0.37,0.227,0.86,0.113,1.087-0.251c0.371-0.645,0.807-1.278,1.272-1.905c2.33,2.855,4.647,5.716,6.959,8.583
				c-0.066,0.06-0.131,0.114-0.197,0.173c-0.287,0.227-0.334,0.651-0.107,0.932c0.221,0.281,0.651,0.329,0.932,0.108
				c0.065-0.06,0.137-0.12,0.209-0.179c3.064,3.805,6.117,7.622,9.163,11.439c4.42,5.537,8.87,11.236,12.998,16.994
				c0.8,1.093,2.354,1.32,3.446,0.52c0.496-0.371,0.812-0.884,0.938-1.446c1.655,1.452,3.458,2.694,5.352,3.584
				c2.091,0.98,4.349,1.714,6.612,2.139c2.777,0.52,5.269,0.621,8.082,0.573l3.757-0.358l0.007,0.167
				c0.854,3.673,4.569,3.763,7.693,3.5c0.579-0.036,1.016-0.544,0.979-1.123c-0.036-0.58-0.544-1.016-1.117-0.979
				c-1.643,0.143-4.241,0.316-5.167-1.213c-0.167-0.281-0.173-0.597-0.149-0.92c3.519,0.478,7.049,0.89,10.597,1.267
				c2.02,0.215,4.032,0.472,6.052,0.669c2.066,0.191,4.133,0.46,6.194,0.639c1.057,0.095,2.21,0.197,3.261,0.358
				c0.574,0.054,1.1-0.365,1.153-0.932c0.06-0.573-0.358-1.099-0.932-1.159c-1.751-0.221-3.501-0.418-5.215-0.609
				c2.036,0.179,4.121,0.329,6.194,0.49c0.221,0.012,0.441,0.03,0.663,0.048c0.006,0.018,0.006,0.042,0.012,0.066
				c0.132,0.902,0.974,1.535,1.876,1.404c1.959-0.376,3.99-0.49,5.955-0.783c0.077-0.018,0.155-0.024,0.239-0.03
				c5.829,0.723,11.647,1.344,17.543,1.422c3.22,0.042,6.439,0.143,9.665,0.107c4.229-0.054,8.452-0.107,12.682-0.173
				c4.276-0.066,8.554-0.149,12.818-0.358c3.566-0.179,7.127-0.316,10.692-0.508c3.608-0.203,7.222-0.412,10.836-0.562
				c4.533-0.185,9.079-0.567,13.607-0.675c4.479-0.107,8.954-0.365,13.439-0.442c3.806-0.066,7.634-0.108,11.439-0.186
				c2.019-0.048,4.044-0.054,6.051-0.048c19.348,0.466,38.671,1.021,58.061,1.518c10.441,0.508,20.954,1.177,31.438,1.947
				c1.876,0.131,3.745,0.269,5.615,0.418c2.204,0.173,4.427,0.323,6.624,0.532c1.577,0.143,3.148,0.275,4.726,0.424
				c3.477,0.328,8.267,1.111,10.775-1.941c0.442-0.544,0.992-1.398,1.171-2.079c0.233-0.896,0.46-1.625,0.55-2.562
				c0.048-0.478-0.03-0.943-0.203-1.356c0.311,0.072,0.639,0.054,0.943-0.072c-0.042,0.341-0.083,0.675-0.102,0.992
				c-0.071,0.562,0.245,1.093,0.741,1.302c0.023,1.792,0.048,3.578,0.077,5.364c0,0.364,0.299,0.663,0.657,0.663
				c0.364,0,0.663-0.299,0.663-0.663c-0.012-1.899,0.012-3.793,0.024-5.687c0.161-0.186,0.269-0.406,0.298-0.663
				c0.042-0.514,0.155-1.034,0.21-1.547c0.035-0.382,0.047-0.794,0.065-1.183c0.621-0.371,1.23-0.789,1.863-1.308
				c0.562-0.466,1.351-1.23,1.732-1.852c0.585-0.986,1.093-1.81,1.41-2.939c0.453-1.655,0.472-3.303,0.483-4.958
				c0.663-0.382,1.123-1.093,1.146-1.912c0.078-1.069,0.036-2.323,0.048-3.405c0.024-2.055,0.09-4.122,0.096-6.182
				c0.006-4.092,0.102-8.208,0.149-12.305c0.054-4.91,0.03-9.832,0.113-14.736c0.054-2.766,0.036-5.567,0.048-8.333
				c0.03-8.255,0.072-16.511,0.072-24.766c0-7.21-0.042-14.426-0.019-21.642c0.006-2.24,0.013-4.498-0.041-6.738
				c-0.281-12.418-0.437-24.903-0.473-37.339c-0.107-37.865,0.144-75.712,0.442-113.577c0.138-16.761,0.138-33.523,0.197-50.278
				c0.042-11.839-0.006-23.696-0.167-35.535c-0.055-3.883-0.048-7.766-0.149-11.648c-0.27-9.909-0.676-19.825-1.052-29.729
				c-0.155-3.937-0.311-7.879-0.483-11.81c-0.114-2.443-0.27-4.91-0.323-7.354c-0.012-0.221-0.065-0.436-0.161-0.621
				c0.024-0.627,0.048-1.261,0.072-1.888c0-0.347-0.084-0.675-0.233-0.968c0.018-0.92,0.023-1.846,0.036-2.766
				c1.081-0.466,1.81-1.559,1.81-2.801c-0.144-1.571-0.514-2.091-1.762-3.083l-0.138-0.113c-0.161-0.968-0.753-1.834-1.727-2.294
				c-0.149-0.071-0.358-0.179-0.514-0.221c-0.705-0.227-2.097-0.048-2.867-0.012c-0.74,0.029-1.476,0.042-2.216,0.06
				c-12.454,0.395-24.992,0.544-37.465,0.573c-9.146,0.018-18.29,0.042-27.436,0.065c-5.555,0.019-11.116-0.095-16.666-0.119
				c-14.037-0.06-28.068-0.43-42.105-0.531c-5.579-0.042-11.17-0.216-16.749-0.275c-5.186-0.054-10.406-0.143-15.591-0.269
				c-4.546-0.113-9.098-0.149-13.648-0.227c-10.979-0.191-21.959-0.383-32.938-0.58c-17.979-0.316-35.966-0.627-53.951-0.812
				c-19.007-0.203-38.038-0.107-57.051,0.203c-0.113-0.012-0.227-0.018-0.34-0.023c-9.563-0.627-19.103-1.236-28.672-1.786
				c-5.352-0.305-10.74-0.598-16.098-0.74c-10.674-0.299-21.325-0.419-31.999-0.586
				C288.579-367.302,285.813-367.039,283.214-366.896z M380.998-359.404c5.292,0.37,10.591,0.74,15.889,1.116
				c1.655,0.108,3.31,0.228,4.904,0.347c-9.88,0.065-19.813,0.113-29.753,0.149c-12.861,0.03-25.715,0.155-38.57,0.173
				c-7.234,0.013-14.467,0.019-21.701-0.023c-4.833-0.03-9.665-0.132-14.491-0.138c-1.756-0.006-3.5-0.006-5.25-0.012
				c0-0.286-0.186-0.544-0.472-0.627c4.092-0.263,8.208-0.376,12.281-0.502c17.305-0.537,34.562-0.609,51.878-0.669
				C364.135-359.62,372.57-359.506,380.998-359.404z M282.719-354.984c-0.113,0.418-0.215,0.836-0.316,1.261
				c-0.006,0.012-0.012,0.023-0.012,0.035c-0.263,0.353-0.478,1.04-0.669,1.458c-0.448,0.968-0.789,2.103-1.081,3.231
				c-0.794-1.392-1.75-2.754-2.377-4.193c-0.131-0.293-0.43-0.908-0.472-1.207c-0.047-0.382-0.137-0.758-0.185-1.158
				c-0.036-0.275,0.173-1.249,0.353-1.565l0.639-0.232c1.553-0.46,3.118-0.705,4.701-0.723c0.042-0.007,0.095-0.013,0.155-0.019
				C283.167-357.087,282.976-356.012,282.719-354.984z M288.603-357.804c-0.526-0.006-1.051-0.012-1.577-0.012
				c-0.036-0.006-0.072,0-0.065,0.054c0.298,0.125,0.311-0.048,0.298-0.233C287.701-357.941,288.148-357.882,288.603-357.804z
				 M676.104-355.444c1.207,1.869,2.091,2.557,4.325,2.789h0.006c0.029,0.239,0.06,0.484,0.089,0.724
				c-1.463,6.051-2.389,12.299-3.136,18.445c-0.585,4.838-1.016,9.725-1.338,14.623c-1.23,0.573-2.455,1.188-3.638,1.815
				c-7.67,3.99-15.118,8.751-22.508,13.231c-4.701,2.849-9.354,5.788-13.995,8.727c-3.16,1.995-6.392,3.919-9.588,5.859
				c-2.759,1.673-5.566,3.423-8.392,4.977c-3.883,2.145-7.694,4.396-11.643,6.427c-1.786,0.914-3.56,1.876-5.352,2.76
				c-3.99,1.959-8.005,3.806-12.055,5.639c-0.132,0.061-0.191,0.222-0.132,0.358c0.061,0.138,0.222,0.197,0.359,0.138
				c8.278-3.745,16.444-7.586,24.442-11.923c14.545-7.879,28.731-16.325,42.889-24.896c5.077-3.076,10.238-6.033,15.304-9.115
				c1.422-0.866,2.825-1.769,4.223-2.677c-0.46,7.58-0.65,15.19-0.752,22.735c-0.019,1.26-0.03,2.515-0.042,3.774
				c-0.854,0.472-1.69,1.027-2.533,1.529c-1.779,1.063-3.571,2.121-5.352,3.189c-2.156,1.297-4.354,2.604-6.553,3.835
				c-1.338,0.741-2.729,1.5-4.026,2.294c-3.668,2.252-7.484,4.408-11.277,6.463c-5.567,3.017-11.29,5.717-17.186,8.028
				c-2.365,0.926-4.791,1.667-7.191,2.485c-0.251,0.077-0.389,0.353-0.311,0.609c0.077,0.251,0.352,0.388,0.608,0.311
				c1.333-0.454,2.694-0.83,4.021-1.297c3.542-1.248,7.066-2.544,10.531-3.996c6.678-2.801,13.075-5.979,19.538-9.252
				c2.336-1.177,4.546-2.455,6.822-3.752c2.712-1.553,5.472-3.1,8.147-4.707c1.308-0.794,2.664-1.522,3.972-2.323
				c0.245-0.155,0.508-0.316,0.777-0.478c-0.042,14.3,0.364,28.618,0.913,42.889c0.526,13.732,1.063,27.459,1.607,41.186
				c0.645,16.218,1.021,32.429,0.771,48.665c-0.107,7.305-0.49,14.599-0.759,21.91c-0.113,3.034-0.191,6.069-0.293,9.103
				c-0.358,10.967-0.316,21.982-0.25,32.949c0.107,18.219,0.43,36.431,0.723,54.65c0.125,8.363,0.28,16.731,0.305,25.094
				c0.012,4.056,0.238,8.136,0.37,12.192c0.119,3.733,0.173,7.484,0.274,11.218c0.155,6.009,0.113,12.066,0.054,18.075
				c-0.029,3.088-0.048,6.201-0.173,9.283c-0.138,3.375-0.275,6.756-0.395,10.137c-0.018,0.52,0.389,0.974,0.908,0.992
				s0.974-0.388,0.991-0.908c0-0.102,0.006-0.203,0.012-0.298c0.096,0.538,0.203,1.057,0.312,1.571
				c-0.359,0.543-0.735,1.087-1.123,1.625l-0.98,1.165c-0.346-0.089-0.656-0.102-0.979-0.048c-1.278,0.209-2.145,1.434-1.935,2.712
				l0.102,0.358l-0.508,0.454c-3.453,2.742-7.986,4.51-12.413,5.316c-0.412-0.221-0.884-0.347-1.38-0.347
				c-7.007,0.078-14.097,0.024-21.104-0.125c-3.668-0.078-7.323-0.12-10.985-0.155c6.135-0.591,12.252-1.254,18.351-2.24
				c2.933-0.472,5.824-1.04,8.732-1.631c1.732-0.358,3.453-0.842,5.173-1.213c0.442-0.095,0.729-0.543,0.634-0.985
				s-0.544-0.723-0.986-0.633c-0.943,0.162-1.887,0.4-2.831,0.574c-1.422,0.269-2.843,0.52-4.271,0.776
				c-4.833,0.854-9.838,1.481-14.713,2.043c-10.172,1.171-20.303,1.965-30.529,2.604c-1.876,0.113-3.751,0.215-5.627,0.274
				c-2.33-0.023-4.653-0.065-6.982-0.137c-11.104-0.43-22.203-0.574-32.991-0.514c-13.542-0.173-26.755-0.353-39.968-0.334
				c-8.004,0.006-16.015,0.113-24.019,0.137c-4.504,0.012-9.05,0.292-13.548,0.424c-7.197,0.221-14.39,0.621-21.563,1.063
				c-1.23,0.066-2.449,0.149-3.68,0.269c-4.928-0.281-9.868-0.58-14.802-0.866c-5.859-0.334-11.689-0.807-17.525-1.386
				c-2.503-0.245-4.977-0.585-7.473-0.884c-1.38-0.167-2.76-0.424-4.14-0.639c-1.78-0.269-3.686-0.538-5.43-0.956
				c-2.085-0.496-4.17-0.932-6.225-1.458c0.305-0.311,0.604-0.621,0.908-0.92c0.89-0.908,1.828-1.834,2.76-2.7
				c0.286-0.287,0.293-0.753,0.006-1.034c-0.28-0.281-0.747-0.287-1.033-0.006c-1.04,1.003-2.073,2.049-3.076,3.082
				c-0.377,0.371-0.759,0.759-1.136,1.159c-0.555-0.155-1.11-0.323-1.66-0.502c-3.411-1.111-6.612-2.317-9.611-3.811
				c1.863-1.481,3.913-2.801,5.794-4.199c0.752-0.562,1.564-1.117,2.287-1.696c0.741-0.585,1.452-1.195,2.204-1.768
				c0.323-0.275,0.37-0.771,0.102-1.093c-0.274-0.323-0.771-0.371-1.093-0.102c-1.995,1.69-3.948,3.268-6.027,4.85
				c-1.529,1.159-2.993,2.276-4.384,3.435c-0.645-0.34-1.284-0.699-1.912-1.075c-0.543-0.86-0.979-1.768-1.278-2.736
				c-0.209-0.663-0.442-1.338-0.52-2.037c-0.09-0.478-0.556-0.788-1.033-0.699c-0.478,0.089-0.789,0.556-0.699,1.033
				c0.084,0.771,0.334,1.661,0.651,2.521c-1.685-1.23-3.292-2.628-4.821-4.241c0.58-0.579,1.159-1.165,1.738-1.714
				c1.768-1.708,3.883-3.345,5.806-4.886c2.7-2.162,5.406-4.45,8.201-6.487c1.165-0.848,2.306-1.828,3.501-2.628
				c0.364-0.269,0.441-0.807,0.167-1.171c-0.269-0.364-0.807-0.442-1.171-0.173c-1.29,0.854-2.551,1.923-3.805,2.849
				c-2.999,2.228-5.956,4.635-8.793,7.066c-1.045,0.896-2.031,1.858-3.059,2.771c-1.248,1.105-2.407,2.204-3.53,3.333
				c-1.278-1.476-2.551-3.297-3.471-5.048c0.818-0.609,1.637-1.218,2.461-1.81c0.305-0.221,0.364-0.663,0.144-0.968
				c-0.227-0.299-0.669-0.364-0.968-0.138c-0.759,0.544-1.5,1.087-2.246,1.643c-0.657-1.427-1.242-2.849-1.708-4.336
				c1.631-1.744,3.351-3.411,5.06-5.071c2.599-2.551,5.466-4.82,8.303-7.096c2.258-1.804,4.761-3.644,7.228-5.137
				c0.358-0.233,0.466-0.729,0.233-1.087c-0.227-0.358-0.723-0.466-1.087-0.232c-5.37,3.291-10.274,7.514-14.838,11.827
				c-1.786,1.685-3.596,3.452-5.311,5.304c-0.006-0.006-0.006-0.018-0.006-0.024c-0.705-2.819-1.26-5.961-1.392-8.99
				c1.027-0.854,2.025-1.738,3.034-2.634c1.529-1.368,2.933-2.873,4.354-4.354c1.936-2.007,3.883-4.032,5.89-5.961
				c0.341-0.334,0.341-0.89,0-1.225h-1.224c-1.523,1.421-2.969,3.017-4.415,4.516c-1.368,1.416-2.742,2.903-4.146,4.283
				c-0.573,0.567-1.165,1.135-1.726,1.72c-0.12,0.119-0.239,0.239-0.353,0.34c0.245-0.388,0.376-0.884,0.316-1.392
				c-0.388-2.61-0.705-5.209-0.967-7.801c1.822-1.828,3.644-3.656,5.471-5.478c4.206-4.211,8.458-8.435,13.034-12.246
				c1.899-1.583,3.757-3.16,5.77-4.599c0.448-0.353,0.531-1.016,0.18-1.463c-0.353-0.448-1.016-0.526-1.464-0.173
				c-0.938,0.789-1.906,1.553-2.843,2.341c-1.727,1.446-3.393,3.029-5.042,4.564c-4.904,4.563-9.432,9.623-14.121,14.407
				c-0.329,0.329-0.657,0.663-0.974,0.998c0.543-3.548,1.272-7.025,2.204-10.537c1.129-4.343,2.497-8.638,4.032-12.861
				c0.812-0.765,1.625-1.535,2.449-2.282c1.965-1.804,4.026-3.5,6.033-5.256c1.159-1.016,2.473-1.983,3.698-2.927
				c1.667-1.284,3.452-2.628,5.227-3.739c0.621-0.388,1.261-0.771,1.876-1.17c0.507-0.334,0.65-1.021,0.322-1.529
				c-0.329-0.508-1.021-0.657-1.529-0.329c-1.69,1.009-3.285,2.288-4.892,3.429c-3.608,2.575-7.013,5.77-10.34,8.697
				c-0.466,0.406-0.926,0.818-1.38,1.23c0.191-0.496,0.382-0.986,0.585-1.476c0.705-1.756,1.41-3.667,2.234-5.364
				c0.203-0.478-0.018-1.04-0.496-1.237c-0.478-0.203-1.034,0.018-1.237,0.496c-1.589,3.435-2.962,7.037-4.325,10.597
				c-1.816,1.738-3.608,3.518-5.388,5.31c0.006-1.463,0.024-2.933,0.06-4.402c0.078-3.829,0.018-7.664,0.107-11.499
				c0-0.054,0-0.107,0-0.161c0.526-0.43,1.045-0.86,1.535-1.296c1.93-1.732,4.08-3.44,6.117-5.042
				c5.239-4.116,10.549-8.076,15.914-12c0.364-0.275,0.441-0.8,0.173-1.165c-0.274-0.365-0.8-0.442-1.165-0.173
				c-1.356,0.938-2.688,2.061-4.008,3.064c-2.491,1.899-4.97,3.823-7.443,5.752c-2.551,1.995-5.071,4.014-7.568,6.075
				c-1.147,0.944-2.419,1.917-3.5,2.939c0.018-0.842,0.048-1.673,0.084-2.509c0.292,0.018,0.579,0.036,0.878,0.047
				c1.338,0.084,2.497-0.938,2.581-2.282c0.072-1.23-0.776-2.312-1.959-2.544c1.165-1.35,2.306-2.688,3.327-4.14
				c2.623-3.733,5.274-7.616,8.96-10.364c0.574-0.454,0.669-1.302,0.215-1.875c-0.454-0.574-1.308-0.663-1.882-0.209
				c-3.823,3.07-6.523,7.442-9.252,11.475c-0.741,1.093-1.589,2.091-2.437,3.088c0.107-1.284,0.227-2.557,0.37-3.817
				c0.066-0.723-0.472-1.368-1.195-1.427c-0.717-0.066-1.362,0.472-1.427,1.188c-0.024,0.209-0.048,0.418-0.072,0.627
				c-0.072-0.442-0.185-0.872-0.442-1.261c-0.239-0.364-0.591-0.657-1.015-0.8c0.896-1.033,1.971-1.846,3.064-2.64
				c2.753-2.025,5.537-4.038,8.273-6.087c1.356-1.015,2.753-1.971,4.098-3.004c1.577-1.219,3.189-2.407,4.785-3.614
				c2.335-1.774,4.624-3.698,6.875-5.579c0.508-0.442,0.556-1.225,0.113-1.732s-1.225-0.562-1.732-0.12
				c-1.983,1.744-3.93,3.524-5.932,5.257c-2.479,2.15-5.089,4.193-7.651,6.242c-3.913,3.124-7.879,6.2-11.797,9.312
				c-0.884,0.705-1.762,1.416-2.641,2.145c-0.663,0.371-1.29,0.878-1.899,1.249c-0.275,0.167-0.711,0.215-1.063,0.406
				c-1.075,0.585-2.288,1.081-3.584,1.493c1.678-2.049,3.578-3.99,5.382-5.872c1.201-1.254,2.383-2.557,3.59-3.805
				c1.619-1.661,3.16-3.608,4.546-5.472c0.603-0.8,1.081-1.738,1.667-2.521c0.418-0.729,0.173-1.667-0.55-2.085
				c-0.729-0.418-1.667-0.179-2.084,0.55c-0.478,0.776-0.932,1.655-1.392,2.461c-0.472,0.824-1.177,1.72-1.721,2.527
				c-0.328,0.478-0.782,1.003-1.146,1.458c-1.565,1.941-3.136,3.763-4.779,5.639c-1.446,1.648-2.921,3.273-4.349,4.946
				c-0.711,0.824-1.368,1.727-2.055,2.569c-0.096,0.119-0.162,0.25-0.197,0.394c-2.801,0.562-5.824,0.836-8.709,0.878
				c4.205-5.901,9.408-10.871,14.778-15.859c1.685-1.571,3.279-3.268,4.976-4.821c0.657-0.645,0.663-1.714,0.018-2.377
				c-0.651-0.657-1.72-0.663-2.383-0.018c-3.381,3.172-6.756,6.762-9.784,10.268c-1.792,2.067-3.656,4.122-5.298,6.308
				c-0.687,0.92-1.416,1.816-2.097,2.742c-0.908,1.212-1.756,2.467-2.581,3.739c-1.661-0.048-3.226-0.167-4.629-0.335
				c-0.812-0.101-1.625-0.161-2.425-0.263c2.204-2.431,4.57-4.796,6.87-7.013c6.469-6.266,13.643-12.233,20.853-17.627
				c1.953-1.464,3.924-2.903,5.872-4.373c5.287-3.972,10.603-7.903,15.901-11.851c0.538-0.395,0.645-1.159,0.251-1.69
				c-0.394-0.538-1.153-0.651-1.69-0.257c-1.81,1.308-3.578,2.694-5.376,4.02c-4.779,3.53-9.438,7.114-14.049,10.854
				c-10.597,8.583-20.733,17.603-29.741,27.782c-0.329-0.048-0.651-0.102-0.974-0.155c0.633-0.902,1.29-1.78,1.947-2.634
				c4.492-5.943,10.364-11.409,15.865-16.396c0.567-0.568,0.573-1.494,0.006-2.061s-1.493-0.573-2.061-0.006
				c-4.827,5.06-9.611,10.071-13.954,15.555c-1.326,1.672-2.539,3.428-3.715,5.197c-1.153-0.209-2.306-0.436-3.477-0.681
				c-1.625-0.347-3.213-0.752-4.772-1.201c1.917-2.252,3.871-4.51,5.86-6.678c4.456-4.868,9.229-10.047,14.718-13.756
				c0.52-0.395,0.615-1.147,0.221-1.667c-0.395-0.52-1.153-0.615-1.673-0.221c-1.499,1.099-3.034,2.539-4.36,3.835
				c-2.019,1.989-3.96,3.978-5.824,6.117c-3.453,3.948-6.851,7.968-10.22,11.994c-2.288-0.693-4.552-1.469-6.845-2.276
				c-1.511-0.538-3.041-1.159-4.558-1.828c0.251-0.263,0.502-0.525,0.717-0.8c1.171-1.481,2.443-2.951,3.644-4.432
				c3.596-4.438,7.192-9.223,12.078-12.323c0.609-0.418,0.771-1.254,0.358-1.864c-0.412-0.603-1.249-0.771-1.858-0.358
				c-4.104,2.473-7.568,7.21-10.37,11.003c-1.523,2.055-3.052,4.086-4.647,6.081c-0.538,0.669-1.129,1.266-1.714,1.875
				c-1.63-0.771-3.237-1.589-4.778-2.407c-0.114-0.06-0.221-0.12-0.329-0.173c7.521-9.993,17.585-17.06,27.328-24.819
				c2.09-1.673,4.331-3.483,6.278-5.329c1.589-1.493,3.094-3.028,4.653-4.552c0.34-0.34,0.334-0.902-0.012-1.242
				c-0.34-0.334-0.902-0.329-1.236,0.012c-0.866,0.848-1.69,1.78-2.575,2.599c-2.383,2.198-4.73,4.45-7.251,6.499
				c-3.883,3.16-7.825,6.344-11.636,9.587c-2.682,2.282-5.34,4.48-7.867,6.929c-1.147,1.111-2.419,2.27-3.471,3.482
				c-1.816,2.079-3.512,4.122-5.125,6.332c-3.835-2.127-7.61-4.594-11.098-7.401c0.974-0.747,1.947-1.511,2.813-2.317
				c1.487-1.404,3.07-2.748,4.575-4.134c1.703-1.565,3.381-3.213,5.036-4.826c2.413-2.354,4.868-4.653,7.323-6.953
				c1.535-1.445,3.184-2.909,4.803-4.253c3.554-2.945,7.054-5.908,11.23-7.933c0.49-0.251,0.687-0.86,0.43-1.35
				c-0.25-0.49-0.86-0.687-1.35-0.43c-1.983,0.908-3.96,2.246-5.734,3.5c-5.048,3.56-9.6,8.028-13.864,12.484
				c-4.373,4.57-8.769,8.978-13.428,13.237c-0.872,0.789-1.804,1.518-2.742,2.234c-2.437-2.025-4.725-4.224-6.792-6.589
				c0.191-0.484,0.143-1.057-0.185-1.499c-0.896-1.183-1.464-2.539-1.912-3.949c4.641-3.279,9.54-6.308,14.168-9.492
				c2.348-1.619,4.636-3.297,6.816-5.131c1.266-1.069,2.539-2.312,3.853-3.297c0.329-0.305,0.358-0.824,0.06-1.159
				c-0.305-0.329-0.831-0.358-1.159-0.06c-4.563,4.295-9.378,7.963-14.485,11.612c-3.142,2.246-6.367,4.408-9.515,6.672
				c-0.233-0.8-0.448-1.607-0.675-2.383c-0.334-1.099-0.585-2.39-0.8-3.524c-0.496-2.628-0.914-5.197-1.291-7.807
				c1.565-1.529,3.28-2.849,5.251-3.787l-0.287-0.287c-1.828,0.8-3.512,2.126-5.029,3.644c-0.167-1.177-0.323-2.347-0.472-3.536
				c-0.048-0.346-0.09-0.687-0.138-1.404h0.55c2.365-2.359,4.725-4.731,7.096-7.078c0.167-0.173,0.167-0.472,0-0.639h-0.639
				c-2.348,2.317-4.677,4.665-7.025,7c-0.657-4.462-1.135-10.059-1.505-15.662c0.125-0.161,0.245-0.316,0.37-0.466
				c0.042-0.065,0.072-0.131-0.03-0.203c-0.753-5.878-1.01-11.797-1.267-17.675c-0.311-7.174-0.663-14.342-0.956-21.522
				c-0.149-3.775-0.275-7.539-0.388-11.272c0.52-3.423,1.069-6.821,1.529-10.22c1.063-7.962,1.983-16.002,2.509-24.025
				c0.663-10.113,0.872-20.262,1.063-30.393c0.347-18.434,0.018-36.867-0.771-55.277c-0.454-10.465-1.266-20.96-2.019-31.413
				c0.245-3.059,0.508-6.117,0.747-9.169c0.257-3.405,0.663-6.792,1.045-10.185c0.233-2.085,0.46-4.224,0.801-6.29
				c0.46-2.766,0.8-5.543,1.416-8.291c0.179-0.776,0.311-1.792,0.573-2.521c0.162-0.437,0.233-0.974,0.371-1.428
				c0.269-0.866,0.555-1.679,0.872-2.521c0.102-0.274,0.274-0.669,0.436-0.896c0.46-0.902,0.292-1.953-0.334-2.67
				c0.102-0.406,0.191-0.818,0.298-1.213c0.125,0.042,0.263,0.06,0.406,0.065c4.223,0.054,8.44,0.197,12.669,0.245
				c20.709,0.233,41.419,0.538,62.129,0.621c12.843,0.054,25.685-0.054,38.528-0.077c21.701-0.042,43.408-0.197,65.455-0.353
				c0.783,0.012,1.899,0.023,3.022,0.03c6.499,0.065,12.992,0.137,19.491,0.185c28.475,0.203,56.998,0.203,85.448,1.129
				c9.743,0.316,19.539,0.675,29.264,1.356c4.414,0.305,8.811,0.645,13.219,0.991c5.179,0.406,10.322,1.058,15.465,1.702
				c2.485,0.316,5.06,0.699,7.521,1.165c1.458,0.281,2.945,0.49,4.396,0.818c1.953,0.442,3.907,0.896,5.86,1.338
				c0.907,0.203,1.81,0.525,2.718,0.753c1.003,0.286,2.055-0.305,2.336-1.309c0.286-1.003-0.305-2.055-1.309-2.335
				c-0.891-0.353-2.037-0.562-2.969-0.824c-1.553-0.431-3.279-0.824-4.868-1.105c-2.223-0.4-4.427-0.902-6.666-1.225
				c-3.65-0.525-7.264-1.027-10.92-1.518c-2.975-0.399-5.973-0.704-8.948-0.967c9.235,0.143,18.506,0.305,27.776,0.562
				c7.413,0.202,14.838,0.46,22.257,0.675c0.979,0.023,1.804-0.759,1.828-1.738c0-0.186-0.024-0.364-0.072-0.538
				c1.769-0.029,3.536-0.054,5.299-0.089C675.973-355.695,676.027-355.569,676.104-355.444z M567.282-339.74
				c-18.261,8.1-36.754,16.935-53.443,27.967l-0.071,0.329l0.328,0.071c12.442-8.268,25.96-14.981,39.508-21.218
				c9.474-4.36,18.995-8.589,28.541-12.801c3.602-1.589,7.174-3.22,10.775-4.802c0.215-0.096,0.311-0.347,0.221-0.562
				c-0.096-0.21-0.353-0.312-0.562-0.216C584.133-347.261,575.711-343.479,567.282-339.74z M278.173-346.521
				c0.574,1.135,0.836,1.96,1.165,3.101c-0.466,2.354-0.836,4.761-1.147,7.162c-0.209-1.912-0.406-3.841-0.609-5.759
				c-0.233-2.228-0.478-4.456-0.657-6.684C277.349-348.002,277.803-347.249,278.173-346.521z M621.968-341.342
				c-11.772,5.836-23.074,12.473-34.292,19.318c-11.917,7.27-23.547,15.017-35.159,22.752l-0.066,0.305l0.305,0.066
				c14.951-9.97,30.028-19.569,45.667-28.428c12.424-7.042,25.393-13.362,38.456-19.126c0.406-0.174,0.591-0.651,0.412-1.063
				c-0.18-0.406-0.657-0.586-1.063-0.412C631.441-345.846,626.646-343.665,621.968-341.342z M685.34-345.493
				c0.006,1.798,0.012,3.584-0.019,5.37c-0.06,3.112-0.102,6.225-0.138,9.337c-0.012,0.812-0.018,1.637-0.035,2.455
				c-0.024-0.598-0.054-1.195-0.078-1.78c-0.269-5.448-0.597-10.859-1.045-16.271C684.312-345.935,684.784-345.606,685.34-345.493z
				 M650.39-334.448c-15.973,8.477-30.638,18.721-44.979,29.693c-3.596,2.748-7.156,5.544-10.734,8.321
				c-2.264,1.768-4.569,3.524-6.797,5.334c-0.251,0.203-0.299,0.579-0.096,0.836c0.197,0.251,0.573,0.299,0.83,0.102
				c5.179-4.229,10.591-8.261,15.883-12.353c5.759-4.45,11.654-8.733,17.64-12.879c5.161-3.565,10.477-7.107,15.889-10.273
				c4.6-2.694,9.193-5.233,13.9-7.735c1.612-0.854,3.285-1.602,4.903-2.455c2.288-1.201,4.785-2.366,7.156-3.411
				c0.425-0.191,0.615-0.711,0.418-1.135c-0.19-0.424-0.71-0.615-1.135-0.418C658.901-338.898,654.595-336.682,650.39-334.448z
				 M682.86-318.786c0.406,7.049,0.753,14.104,1.129,21.151c0.09,1.696,0.191,3.405,0.287,5.113
				c-0.006,0.358-0.013,0.711-0.019,1.063c-0.543,0.167-0.943,0.669-0.943,1.272c-0.418,23.606-0.556,47.225-0.776,70.838
				c-0.144,14.3-0.287,28.606-0.383,42.912c-0.113-4.701-0.257-9.396-0.43-14.079c-0.466-12.132-0.902-24.27-1.374-36.401
				c-0.795-20.501-1.631-41.037-1.559-61.556c0.035-10.501,0.257-21.073,1.009-31.557c0.567-0.37,1.142-0.735,1.721-1.094
				c-0.567,0.072-1.129,0.293-1.685,0.532c0.102-1.35,0.209-2.7,0.334-4.05c0.395-4.546,0.873-9.056,1.523-13.554
				C682.12-331.725,682.484-325.261,682.86-318.786z M298.781-311.971c1.2,1.201,2.395,2.413,3.584,3.638
				c0.687,0.968,1.362,1.941,2.049,2.909c-0.048,0.174,0,0.364,0.137,0.502c0.233,0.227,0.478,0.46,0.711,0.687
				c1.296,1.822,2.61,3.62,3.99,5.395c9.897,12.688,20.709,24.58,31.999,36.031c-0.657,0.095-1.332,0.274-1.589,0.382
				c-1.452,0.567-2.748,1.481-4.026,2.413c-0.454-0.543-0.908-1.087-1.362-1.624c0.251-0.67,0.406-1.309,0.389-1.9
				c-0.012-0.346-0.072-0.645-0.09-0.974c-0.018-0.28-0.914-0.131-1.159-0.209c-0.388-0.119-0.842-0.155-1.249-0.28
				c-0.287-0.096-0.567-0.186-0.848-0.275c-4.642-5.728-9.211-11.51-13.703-17.346c-3.226-4.182-6.397-8.387-9.563-12.616
				c-1.034-1.535-2.049-3.082-3.059-4.677c-0.454-0.723-1.021-1.703-1.362-2.479c-0.651-1.284-2.234-1.792-3.512-1.141
				c-1.284,0.651-1.786,2.229-1.141,3.513c0.998,2.024,2.187,3.937,3.423,5.812c-0.03,0.186,0.006,0.389,0.131,0.556
				c0.711,0.968,1.428,1.941,2.187,2.885c0.472,0.682,0.974,1.356,1.427,2.049c1.356,2.062,2.975,4.021,4.402,6.039
				c2.252,3.185,4.773,6.314,7.168,9.402c1.625,2.097,3.262,4.188,4.91,6.278c-0.048,0.048-0.078,0.113-0.078,0.19
				c0,0.126,0.114,0.228,0.239,0.228c0.047-0.012,0.102-0.018,0.149-0.024c0.52,0.657,1.04,1.309,1.565,1.96
				c0.759,1.075,1.386,1.863,2.013,2.658c1.332,1.678,2.664,3.368,4.002,5.041c-0.048,0.167-0.036,0.316,0.107,0.418
				c0.078,0.06,0.173,0.066,0.269,0.054c3.273,4.122,6.559,8.22,9.868,12.329c5.042,6.254,10.185,12.484,15.375,18.655
				c-0.018,0.161,0.03,0.328,0.144,0.465c0.107,0.12,0.269,0.197,0.424,0.21c1.756,2.085,3.512,4.157,5.28,6.224
				c6.744,7.915,13.458,15.836,20.292,23.673c4.516,5.173,9.085,10.322,13.673,15.441c-0.065,0.072-0.137,0.144-0.203,0.215
				c-0.197,0.191-0.209,0.526-0.018,0.723c0.197,0.203,0.526,0.215,0.729,0.018c0.06-0.065,0.125-0.125,0.179-0.185
				c0.688,0.765,1.374,1.529,2.062,2.3c1.062,1.183,2.132,2.377,3.207,3.572c-0.859,0.574-1.732,1.123-2.622,1.637
				c-0.37,0.215-0.496,0.705-0.28,1.075c0.209,0.371,0.698,0.496,1.069,0.281c0.991-0.598,1.947-1.183,2.891-1.798
				c0.024,0.024,0.048,0.048,0.071,0.078c0.126,0.167,0.264,0.353,0.406,0.544c2.234,3.022,4.51,6.021,6.738,9.062
				c4.868,6.654,9.665,13.362,14.42,20.1c0.388,0.556,1.164,0.687,1.714,0.299c0.556-0.389,0.693-1.159,0.305-1.714
				c-2.061-2.987-4.146-5.961-6.236-8.924c1.058,1.177,2.103,2.341,3.166,3.518c1.38,1.529,2.748,3.064,4.104,4.612
				c0.502,0.579,1.046,1.224,1.577,1.81c-0.215,0.131-0.43,0.275-0.633,0.424c-0.95,0.579-1.249,1.828-0.669,2.777
				c0.227,0.365,0.549,0.639,0.92,0.794c-0.395,0.269-0.776,0.538-1.147,0.818c-0.478,0.323-0.604,0.992-0.28,1.47
				c0.328,0.478,0.991,0.597,1.47,0.275c7.03-4.856,14.963-8.237,23.116-10.752c2.127-0.657,4.277-1.272,6.415-1.917
				c8.841-2.646,18.021-4.73,27.054-6.684c3.787-0.818,7.634-1.643,11.391-2.581c1.655-0.418,3.327-0.824,5-1.236
				c1.911,2.019,3.775,4.08,5.597,6.183c0.09,0.149,0.168,0.292,0.258,0.442c0.376,0.669,0.77,1.326,1.158,1.989
				c-0.173,0.388-0.191,0.645,0.251,0.448c0.006,0.012,0.018,0.024,0.018,0.03v-0.006c-0.215,0.221-0.376,0.472-0.501,0.747
				c-0.705,1.082-0.771,1.505-0.365,1.278c-0.71,1.278-0.764,1.559-0.812,1.84c-0.108,0.591-0.144,1.141-0.197,1.732l0.071,0.322
				l0.096,0.281c0.221-0.071,1.559-1.571,1.834-1.863c0.502-0.526,1.01-1.058,1.511-1.583c3.286,5.489,6.721,10.901,10.054,16.355
				c1.075,1.756,2.174,3.518,3.279,5.269L524-125.238l0.131-0.023l-0.274,0.675c0.048,0.233,0.232,0.436,0.436,0.538l0.646-0.197
				l-0.072,0.024c2.7,4.247,5.454,8.458,8.172,12.688c8.751,13.607,17.878,27.047,27.083,40.356
				c3.71,5.364,7.484,10.698,11.242,16.038c-2.706,0.896-5.442,1.744-8.16,2.628c-5.961,1.936-12.018,3.787-18.063,5.459
				c-1.194,0.329-2.395,0.651-3.596,0.968c-1.834,0.144-3.667,0.275-5.501,0.412c-4.134,0.293-8.273,0.508-12.395,0.95
				c-1.78,0.197-3.005,2.007-2.432,3.715c0.514,1.511,1.648,1.768,2.963,2.491c1.87,1.033,3.757,2.037,5.627,3.052
				c8.058,4.378,16.14,8.721,24.216,13.063c15.806,8.506,31.646,16.94,47.422,25.506c9.164,4.976,18.303,9.987,27.418,15.035
				c0.872,0.604,1.738,1.189,2.616,1.769c2.103,1.386,4.241,2.777,6.314,4.199c1.302,0.896,2.699,1.738,4.044,2.592
				c0.514,0.329,1.57,1.105,2.114,1.207c0.573,0.102,1.104-0.149,1.439-0.55c1.953,1.1,3.9,2.192,5.854,3.292
				c1.428,0.807,3.256,0.292,4.057-1.135c0.8-1.428,0.286-3.255-1.142-4.056c-0.961-0.538-1.917-1.075-2.879-1.619
				c-1.063-4.187-2.031-8.387-2.915-12.592c0.538-0.042,0.991-0.376,1.219-0.836c0.173,0.389,0.347,0.777,0.52,1.171
				c0.197,0.454,0.747,0.663,1.201,0.46c0.453-0.197,0.663-0.747,0.46-1.201l-2.198-4.904c-0.013-0.245-0.024-0.49-0.036-0.729
				l-0.012,0.012c1.129-1.47,1.606-3.411,1.445-5.257c-0.078-0.866-0.197-2.604-1.577-2.019c-0.125,0.048-0.239,0.102-0.358,0.155
				c-0.036-0.358-0.065-0.71-0.102-1.069c-1.774-17.359-4.581-34.502-7.521-51.699c-0.119-0.729-0.245-1.452-0.376-2.181
				c-0.096-4.551-0.209-9.097-0.395-13.643c-0.173-4.223-0.412-8.434-0.765-12.633c0.132-0.227,0.269-0.466,0.412-0.705
				c0.621-1.087,1.225-2.216,1.816-3.333c0.251-0.484,0.562-0.956,0.776-1.458c0.269-0.591-0.233-1.26-0.872-1.278l-0.86,0.496
				l-0.466,0.275c-0.43,0.334-0.86,0.663-1.284,0.992c-0.472-4.408-1.087-8.799-1.888-13.177c-0.824-4.522-1.894-9.223-3.285-13.607
				c-0.144-0.46-0.228-0.968-0.52-1.362c-0.538-0.723-1.69-0.824-2.312-0.143c-0.156,0.167-0.305,0.424-0.454,0.693
				c-0.395-0.538-1.225-0.717-1.792-0.347c-0.186,0.114-0.371,0.287-0.538,0.472c-0.328-1.356-0.651-2.712-0.956-4.068
				c-0.441-1.798-2.275-2.909-4.073-2.467c-1.798,0.442-2.909,2.276-2.467,4.074c0.806,3.083,1.522,6.194,2.21,9.319
				c-0.92,1.427-1.721,3.088-2.419,4.629l-0.466,1.189l-0.228,0.388c-1.511,2.509-3.166,5.03-4.803,7.461
				c-3.04,4.51-6.141,8.996-9.067,13.589c-0.991-1.446-1.989-2.897-2.98-4.337c0.048-0.102,0.09-0.197,0.144-0.292
				c0.071-0.138,0.077-0.305,0.065-0.46c-0.023-0.239-0.155-0.448-0.341-0.609c-0.274-0.227-0.585-0.233-0.901-0.137
				c-12.551-18.165-25.429-36.097-38.444-53.928c-6.033-8.261-12.192-16.426-18.219-24.688
				c-5.179-7.103-10.723-13.983-16.093-20.955c-2.037-2.634-4.062-5.28-6.087-7.92c0.132-0.233,0.251-0.46,0.377-0.693
				c0.305-0.568,0.89-1.518,1.057-2.103c0.239-0.836-0.74-1.296-1.475-1.033c-0.771,0.275-1.535,0.49-2.306,0.753
				c-3.202-4.2-6.386-8.423-9.546-12.651c-0.418-0.562-0.83-1.117-1.248-1.679c0.179-0.376,0.292-0.794,0.311-1.23
				c2.204-0.646,4.402-1.284,6.606-1.924c0.788-0.245,1.236-1.093,0.997-1.882c-0.245-0.794-1.093-1.242-1.888-0.997
				c-2.323,0.711-4.641,1.445-6.952,2.187c-0.544-0.412-1.23-0.64-1.954-0.621c-0.155,0-0.305,0-0.447,0.006
				c-0.711-0.956-1.41-1.912-2.115-2.867c0.574-0.454,1.117-0.926,1.362-1.225c0.472-0.598,0.209-1.5-0.406-1.87
				c-0.621-0.376-1.206-0.102-1.81,0.155c-0.335,0.138-0.663,0.275-0.986,0.412c-0.358-0.49-0.71-0.979-1.057-1.469
				c-0.174-0.239-0.377-0.412-0.621-0.55c-1.23-2.216-2.461-4.444-3.59-6.696c-0.825-1.631-1.637-3.268-2.468-4.893
				c-0.238-0.472-0.83-0.663-1.302-0.43c-0.472,0.239-0.657,0.83-0.424,1.302c1.738,3.363,3.416,6.732,5.215,10.065
				c0.06,0.119,0.125,0.239,0.19,0.353c0,0.144,0.036,0.292,0.12,0.424c0.023,0.03,0.047,0.071,0.071,0.114
				c-0.729,0.639-0.854,1.75-0.274,2.551c0.173,0.238,0.346,0.477,0.52,0.723c-0.896,0.352-1.805,0.681-2.694,1.021
				c-3.799,1.439-7.586,2.771-11.433,4.079c-2.001,0.681-4.021,1.332-6.039,1.972c-3.375,0.627-6.744,1.344-10.083,2.055
				c-3.22,0.675-6.422,1.541-9.611,2.365c-4.008,1.045-7.969,2.223-11.893,3.53c-3.31,1.087-6.708,2.252-10.018,3.566
				c-0.418,0.125-0.849,0.263-1.278,0.4c-4.832,1.499-9.707,3.279-14.306,5.406c-0.592,0.269-1.177,0.526-1.763,0.812
				c-0.89-0.902-1.792-1.81-2.688-2.712c0.884-0.669,1.768-1.338,2.646-2.007c-0.311-0.125-1.23,0.371-1.559,0.502
				c-0.604,0.245-1.177,0.532-1.738,0.848c-16.325-16.331-33.522-31.719-50.325-47.56c-2.623-2.467-5.245-4.928-7.843-7.389
				c-6.541-6.798-13.093-13.572-19.652-20.321c-7.514-7.724-15.088-15.382-22.597-23.141c-3.757-4.564-7.353-9.289-10.716-14.211
				c-0.717-1.039-2.163-1.296-3.196-0.579c-0.179,0.119-0.334,0.263-0.46,0.418c-0.639-0.646-1.272-1.29-1.906-1.936
				c-0.412-0.412-1.087-0.418-1.499-0.006C298.369-313.058,298.363-312.383,298.781-311.971z M643.251-292.569
				c-2.461,1.207-4.964,2.604-7.335,3.961c-5.406,3.094-10.675,6.283-16.009,9.516c-3.369,2.036-6.708,4.163-10.095,6.164
				c-1.905,1.129-3.823,2.258-5.711,3.417l0.144,0.251c5.347-3.286,10.771-6.451,16.11-9.749
				c10.238-6.319,20.871-12.58,31.784-17.675C649.129-295.358,646.208-294.015,643.251-292.569z M687.43-285.287
				c0.019,6.08-0.018,12.167,0.012,18.248c0.066,13.565-0.113,27.131-0.107,40.696c0.006,11.051-0.089,22.131-0.221,33.17
				c-0.251,20.035-0.232,40.069-0.424,60.104c-0.065,7.849-0.024,15.698-0.048,23.547c-0.018,8.453-0.012,16.911,0.06,25.351
				c0.054,6.499,0.125,12.992,0.203,19.491c0.042,3.68,0.054,7.598,0.209,11.165c0,3.136,0.065,6.272,0.078,9.414
				c0.041,9.319,0.089,18.661-0.006,27.973c-0.055,5.466,0.041,10.956-0.066,16.415c-0.077,4.336-0.096,8.733-0.083,13.076
				c0.018,6.29-0.203,12.609-0.161,18.894c0.012,1.822-0.084,3.656-0.078,5.483c0,0.968-0.018,1.936-0.065,2.903
				c-0.4-0.191-0.885-0.018-1.069,0.382c-0.592,1.183-1.177,2.401-1.78,3.608c0.054-23.027,0.418-46.066,0.454-69.094
				c0.023-20.136,0.096-40.26,0.191-60.391c0.113-24.789,0.173-49.579,0.382-74.374c0.132-15.895,0.263-31.796,0.37-47.697
				c0.12-17.705,0.358-35.415,0.479-53.114c0.012-1.941,0.023-3.883,0.035-5.83c0.013,0.006,0.03,0.006,0.048,0.006
				c0.502-0.012,0.902-0.437,0.891-0.938c-0.168-4.713-0.138-9.611,0.119-14.312c0.138-2.431,0.316-4.952,0.364-7.377
				c0.03-1.69,0.072-3.387,0.113-5.071C687.353-290.807,687.418-288.047,687.43-285.287z M279.565-274.04
				c0.466,14.366,0.627,28.69,0.567,43.062c-0.036,8.244-0.299,16.505-0.55,24.742c-0.215,7.084-0.627,14.192-0.86,21.283
				c-0.251,7.419-0.46,14.862-0.765,22.287c-0.066-2.568-0.125-5.137-0.179-7.706c-0.096-4.223-0.203-8.464-0.215-12.693
				c-0.012-6.051-0.173-12.114-0.162-18.171c0.03-14.879-0.083-29.759,0.287-44.626c0.138-5.442,0.233-10.884,0.382-16.325
				c0.096-3.44,0.251-6.882,0.334-10.322c0.132-5.394,0.406-10.788,0.687-16.188C279.254-283.807,279.403-278.926,279.565-274.04z
				 M333.474-264.333c0.09,0.006,0.269,0.018,0.442,0.036l0.215,0.023l0.012,0.592c-0.054,0.436-0.197,0.92-0.388,1.415
				c-0.388-0.454-0.765-0.914-1.141-1.367c2.987,3.805,2.897,3.691-0.932-1.177C332.118-264.686,333.056-264.357,333.474-264.333z
				 M341.311-261.914l0.543,0.012l-0.233,1.177c-0.137,0.567-0.298,1.123-0.531,1.679c-0.162,0.37-0.4,0.759-0.574,1.129
				c-0.316,0.663-0.878,1.362-1.26,2.001c-0.024,0.036-0.048,0.072-0.066,0.107c-1.051-1.242-2.103-2.479-3.148-3.715
				C337.649-260.665,339.489-261.753,341.311-261.914z M346.054-257.995c-2.001,0.932-4.217,2.108-5.854,3.375
				c-0.144-0.168-0.287-0.341-0.436-0.502c0.203-0.239,0.4-0.472,0.591-0.705c0.562-0.699,0.998-1.499,1.392-2.3
				c0.155-0.322,0.55-1.117,0.604-1.463c0.048-0.341,0.275-1.021,0.424-1.679C343.868-260.17,344.961-259.076,346.054-257.995z
				 M660.663-257.816c-3.387,2.568-7.281,4.469-10.871,6.744c-1.595,1.01-3.094,2.007-4.521,3.249
				c-0.257,0.222-0.55,0.431-0.795,0.676c-0.382,0.394-0.794,0.771-1.183,1.158c-0.89,0.878-1.673,1.953-2.401,2.963
				c-0.227,0.316-0.161,0.771,0.155,1.004c0.322,0.227,0.776,0.161,1.004-0.155c3.363-5.155,8.834-7.796,13.924-10.907
				c1.947-1.183,3.931-2.312,5.734-3.722c0.884-0.693,1.672-1.422,2.526-2.15c0.299-0.274,0.316-0.753,0.036-1.052
				c-0.275-0.305-0.753-0.322-1.052-0.041C662.366-259.285,661.577-258.515,660.663-257.816z M346.908-257.207l-0.048,0.018
				c0.669,0.657,1.338,1.32,2.013,1.983c-0.848,2.384-1.947,4.707-3.357,6.804c-1.661-1.941-3.327-3.877-4.976-5.818
				c0.12-0.077,0.233-0.148,0.353-0.221c1.589-0.962,3.178-1.679,4.809-2.323L346.908-257.207z M351.979-252.172
				c-2.049,1.142-3.918,2.909-5.615,4.325l-0.227,0.173c-0.054-0.065-0.107-0.131-0.155-0.185l1.481-1.912
				c0.705-0.968,1.362-1.971,1.857-2.992c0.221-0.478,0.418-0.944,0.598-1.416C350.605-253.51,351.299-252.841,351.979-252.172z
				 M355.623-248.653c-0.734,2.539-1.505,5.077-2.532,7.515c-0.156,0.347-0.311,0.693-0.478,1.033
				c-2.007-2.354-4.014-4.701-6.027-7.049c0.436-0.34,0.884-0.675,1.338-0.997c1.439-1.033,3.172-2.275,5.011-3.088
				C353.831-250.379,354.727-249.514,355.623-248.653z M360.688-243.82c-0.06,0.048-0.107,0.096-0.161,0.137
				c-0.95,0.675-1.84,1.309-2.832,1.918c-1.153,0.698-2.825,1.589-4.307,2.58c-0.203-0.251-0.412-0.489-0.621-0.74
				c0.388-0.801,0.752-1.625,1.129-2.384c0.699-1.403,1.469-2.825,2.103-4.253c0.179-0.406,0.353-0.812,0.526-1.225
				C357.911-246.461,359.297-245.135,360.688-243.82z M367.385-237.519c-0.167,0.023-0.329,0.102-0.442,0.238
				c-0.281,0.222-0.842,0.926-1.087,1.23c-0.866,1.069-1.87,2.187-2.801,3.214c-0.753,0.824-1.481,1.631-2.216,2.432
				c-1.344-1.571-2.682-3.143-4.008-4.719c-1.034-1.225-2.055-2.443-3.094-3.662c0.203-0.113,0.406-0.233,0.615-0.353
				c1.129-0.681,2.479-1.242,3.673-1.834c1.291-0.639,2.419-1.254,3.548-2.013C363.502-241.156,365.443-239.335,367.385-237.519z
				 M374.726-230.668c-0.042,0.024-0.083,0.036-0.114,0.055c-0.233,0.096-0.46,0.179-0.693,0.28
				c-0.382,0.167-0.771,0.388-1.141,0.591c-2.216,1.225-5.071,3.227-5.908,5.741c-0.054,0.138-0.096,0.274-0.131,0.412
				c-1.685-1.936-3.363-3.871-5.042-5.818c1.045-1.093,2.079-2.21,3.106-3.339c0.657-0.729,1.481-1.541,2.085-2.294
				c0.263-0.328,0.836-1.01,1.141-1.26c0.107-0.126,0.167-0.281,0.179-0.437C370.377-234.705,372.552-232.687,374.726-230.668z
				 M657.014-234.203c-1.081,0.43-2.216,0.812-3.279,1.308c-0.86,0.4-1.721,0.824-2.586,1.219c-1.255,0.579-2.957,1.618-4.003,2.526
				c-0.878,0.759-1.541,1.41-2.329,2.252c-0.228,0.251-0.209,0.657,0.042,0.891c0.257,0.227,0.663,0.209,0.896-0.042
				c2.724-3.273,6.875-5.113,10.776-6.631c2.03-0.782,4.073-1.535,6.116-2.294c0.322-0.119,0.49-0.483,0.37-0.806
				c-0.119-0.329-0.483-0.49-0.806-0.371C660.479-235.518,658.729-234.885,657.014-234.203z M376.082-229.484l-0.179,0.914
				c-0.777,3.178-3.781,6.271-5.914,8.715c-0.974-1.123-1.947-2.234-2.921-3.357c0.776-2.438,3.034-3.858,5.227-4.904
				c0.508-0.244,1.135-0.412,1.672-0.627c0.442-0.173,1.045-0.406,1.649-0.609L376.082-229.484z M379.588-225.823
				c0.95,1.01,1.905,2.013,2.873,3.011c-0.711,0.161-1.338,0.358-1.643,0.52c-0.478,0.245-1.093,0.43-1.601,0.669
				c-1.32,0.615-2.628,1.296-3.954,1.911c-1.374,0.628-2.485,1.243-3.65,1.732c-0.298-0.346-0.603-0.692-0.902-1.045
				c0.388-0.424,0.789-0.83,1.177-1.23c1.117-1.171,2.306-2.365,3.279-3.656c0.998-1.326,1.75-2.693,2.234-4.234
				C378.131-227.37,378.854-226.594,379.588-225.823z M653.472-212.76c-0.329,0.215-0.412,0.657-0.203,0.98
				c0.215,0.328,0.657,0.418,0.979,0.203c4.563-3.041,9.109-6.105,13.697-9.104c0.322-0.215,0.412-0.657,0.197-0.98
				c-0.21-0.328-0.651-0.412-0.975-0.203C662.581-218.864,658.029-215.794,653.472-212.76z M384.194-221.032l-0.388,1.23
				c-0.317,0.843-0.693,1.667-1.207,2.526c-1.308,2.187-3.112,4.343-4.247,6.589c-0.047,0.089-0.095,0.179-0.137,0.274
				c-1.941-2.216-3.871-4.426-5.8-6.648c0.598-0.179,1.189-0.436,1.762-0.711c1.601-0.8,3.339-1.643,4.982-2.341
				c0.657-0.28,1.481-0.705,2.156-0.884c0.771-0.203,1.541-0.484,2.324-0.598C383.823-221.414,384.002-221.224,384.194-221.032z
				 M384.206-221.051l-0.012,0.019L384.206-221.051z M388.184-216.959c0.723,0.741,1.451,1.482,2.174,2.229
				c-0.036,0.006-0.066,0.012-0.102,0.018c-3.136,0.657-5.741,2.73-8.375,4.433c-0.687,0.437-1.565,1.052-2.299,1.421
				c-0.191-0.215-0.382-0.43-0.568-0.645c1.034-2.24,2.855-4.247,4.158-6.164c0.597-0.879,1.105-1.738,1.595-2.683
				c0.233-0.466,0.442-0.956,0.627-1.451C386.32-218.857,387.252-217.908,388.184-216.959z M392.706-212.365l0.054-0.113
				l-0.209,0.436c-0.364,0.723-0.752,1.428-1.183,2.085c-0.806,1.219-1.571,2.671-2.455,3.817c-0.275,0.364-0.525,0.782-0.776,1.165
				c-0.729,1.087-1.452,2.162-2.097,3.303c-1.696-1.774-3.704-4.044-5.705-6.319c0.687-0.377,1.362-0.783,1.953-1.147
				c1.971-1.248,4.343-2.651,6.523-3.524c0.597-0.238,1.828-0.669,2.461-0.681c0.138-0.006,0.287-0.019,0.43-0.036
				C392.037-213.04,392.371-212.705,392.706-212.365z M397.609-207.461c-0.967,0.346-1.983,0.74-2.873,1.177
				c-2.354,1.153-4.546,2.485-6.553,4.122l-1.542,1.32c-0.012-0.018-0.03-0.036-0.042-0.047c1.093-1.917,2.317-3.584,3.704-5.287
				c0.842-1.027,1.905-2.312,2.574-3.435c0.34-0.58,0.651-1.1,0.95-1.631C395.089-209.976,396.35-208.721,397.609-207.461z
				 M508.403-208.136c-0.431,0.311-0.818,0.603-1.01,0.747c-3.166,2.335-6.164,4.969-9.008,7.687
				c-2.187,2.084-4.366,4.336-6.451,6.66l-1.517,1.81l0.155-0.215c1.254-1.87,2.622-3.805,3.745-5.752
				c0.562-0.974,1.183-1.923,1.75-2.897c1.117-1.912,2.156-3.96,3.094-5.968c0.64-1.38,1.291-2.771,1.864-4.181
				c1.355-0.072,2.706-0.126,4.079-0.186c0.532-0.029,1.082-0.023,1.631-0.023C507.292-209.684,507.848-208.906,508.403-208.136z
				 M498.577-209.893l-0.042,0.09l-2.27,5.155c-1.899,3.649-3.919,7.437-6.2,10.865c-1.595,2.419-3.124,4.875-4.791,7.258
				c-2.365,3.387-4.737,6.78-7.042,10.202c-3.118,4.612-5.908,9.235-8.471,14.175c-0.389,0.759-0.729,1.553-1.093,2.324
				l-0.168,0.371c-5.399,1.917-10.728,3.966-16.026,6.146c-0.46,0.191-0.926,0.382-1.386,0.567c0.699-1.213,1.41-2.413,2.139-3.608
				c3.291-5.448,7.03-10.955,10.931-15.991c4.48-5.782,9.074-11.487,13.948-16.946c3.572-3.996,7.132-7.957,10.788-11.869
				c2.097-2.246,4.241-4.433,6.361-6.66l1.368-1.403l0.131-0.138C497.358-209.533,497.968-209.713,498.577-209.893z
				 M487.329-208.859c0.036-0.035,0.072-0.083,0.107-0.131c0.257-0.035,0.526-0.072,0.795-0.096
				C487.927-209.008,487.622-208.931,487.329-208.859z M487.252-208.752c-3.781,1.046-2.175,0.502,0.077-0.107
				C487.306-208.822,487.275-208.787,487.252-208.752z M487.264-202.318c-3.865,4.146-7.562,8.351-11.308,12.604
				c-0.95,1.082-1.857,2.234-2.777,3.339c-3.143,3.799-6.117,7.664-9.067,11.618l-1.947,2.748l0.818-1.338
				c3.9-6.099,7.908-12.102,11.97-18.087c1.554-2.306,3.154-4.582,4.731-6.869c1.535-2.228,3.059-4.415,4.719-6.547
				c0.251-0.323,0.496-0.645,0.747-0.979c2.526-0.777,5.059-1.553,7.598-2.318C490.901-206.213,489.073-204.265,487.264-202.318z
				 M479.642-206.219c-2.885,1.045-5.878,1.983-8.757,2.813c-0.723,0.209-1.439,0.412-2.229,0.651
				c3.865-1.32,7.67-2.61,11.481-3.865C479.97-206.481,479.809-206.355,479.642-206.219z M464.822-203.949
				c0.041-0.125,0.077-0.251,0.107-0.37c0.054-0.251-0.006-0.466-0.144-0.639c0.472-0.096,0.938-0.203,1.415-0.299
				c2.115-0.454,4.235-0.908,6.368-1.206C470.024-205.556,467.42-204.755,464.822-203.949z M398.069-206.081l0.013,1.015
				c-0.251,2.336-1.805,4.922-2.975,6.887c-0.514,0.873-1.165,1.774-1.601,2.676c-0.257,0.514-0.526,1.027-0.741,1.565
				c-1.846-2.079-3.692-4.163-5.538-6.242c0.442-0.412,0.896-0.794,1.326-1.111c2.396-1.804,5.089-3.172,7.897-4.193
				L398.069-206.081z M403.947-201.255c-2.891,1.983-5.77,4.044-8.452,6.314l-1.857,1.685l0.149-0.55
				c0.818-2.013,2.258-3.865,3.351-5.668c0.251-0.4,0.657-0.932,0.843-1.338c0.269-0.598,0.604-1.159,0.878-1.769
				c0.388-0.89,0.615-1.977,0.687-2.975C401.003-204.116,402.472-202.682,403.947-201.255z M508.122-205.323l-0.907,1.917
				c-0.598,1.338-1.225,2.987-1.989,4.217c-0.514,0.824-0.95,1.762-1.445,2.604c-0.998,1.714-2.037,3.405-3.059,5.101
				c-2.312,3.793-4.791,7.526-7.246,11.254c-0.311-0.4-0.878-0.52-1.319-0.257c-0.484,0.287-0.651,0.914-0.371,1.397
				c0.149,0.257,0.293,0.508,0.442,0.765c-0.496,0.747-0.985,1.5-1.47,2.252c-2.168,3.345-4.271,6.846-6.141,10.37
				c-0.269,0.502-0.531,1.004-0.794,1.5c-4.319,1.057-8.596,2.401-12.741,3.841c-0.12,0.042-0.245,0.083-0.37,0.125
				c0.292-0.562,0.585-1.123,0.901-1.655c1.236-2.108,2.461-4.193,3.739-6.284c1.255-2.061,2.646-4.08,3.996-6.075
				c2.318-3.417,4.827-6.732,7.407-9.946c5.316-6.636,11.093-12.854,17.598-18.267L508.122-205.323z M510.972-204.026
				c0.09,0.149,0.191,0.305,0.293,0.454c0.43,0.765,0.896,1.511,1.368,2.264c1.2,1.906,2.4,3.805,3.631,5.693
				c-0.107,0.065-0.215,0.125-0.316,0.191c-2.795,1.607-5.627,3.955-7.914,6.212c-1.351,1.326-2.712,2.664-3.955,4.092
				c-2.712,3.094-5.304,6.29-7.968,9.426c-0.592-1.027-1.183-2.043-1.769-3.07c4.218-6.416,8.452-12.825,12.222-19.509
				c0.657-1.183,1.362-2.342,2.019-3.519c0.586-1.063,1.142-2.228,1.649-3.393C510.476-204.803,510.721-204.42,510.972-204.026z
				 M480.239-201.518c-2.438,3.572-4.887,7.132-7.317,10.698c-5.161,7.58-10.119,15.381-14.897,23.2
				c-2.599,4.253-5.077,8.608-7.443,12.992c-0.489,0.89-0.985,1.798-1.457,2.706c-3.919,1.648-7.855,3.387-11.624,5.263
				c-1.912,0.943-3.979,1.935-5.938,3.01l-1.291-1.421l0.09,0.095c0.849,0.048,1.715-0.245,2.365-0.89
				c1.225-1.213,1.237-3.19,0.024-4.415c-1.284-1.23-2.562-2.616-3.787-3.913c-2.229-2.377-4.486-4.719-6.685-7.126
				c-0.818-0.89-1.624-1.78-2.437-2.664c0.448-0.472,0.896-0.95,1.338-1.428c2.58-2.795,5.012-5.723,7.503-8.602
				c4.635-5.37,9.001-10.567,14.139-15.184l1.786-1.452l-2.79,4.683c-0.28,0.472-0.37,0.992-0.604,1.463
				c-0.113,0.227-0.292,0.448-0.406,0.675c-0.967,1.792-2.174,3.632-3.231,5.388c-1.696,2.837-3.356,5.705-5.029,8.554
				c-1.744,2.969-3.53,5.943-5.203,8.954c-0.065,0.113-0.196,0.322-0.257,0.442l-0.263,0.448c-0.149,0.298-0.353,0.597-0.537,0.932
				l-0.216,0.376l-0.065,0.137c-0.065,0.197-0.048,0.382,0.167,0.556c0.126,0.102,0.216,0.137,0.377,0.12l0.406-0.257l0.543-0.914
				l1.243-2.073c2.18-3.709,4.456-7.33,6.737-10.979c0.885-1.422,1.852-2.861,2.819-4.229c1.052-1.488,2.067-3.005,3.143-4.474
				c1.445-1.977,2.963-3.907,4.479-5.83c1.326-1.685,2.76-3.273,4.176-4.88c1.188-1.362,2.515-2.766,3.937-4.146
				c2.066-0.705,4.146-1.41,6.224-2.103c-1.511,3.178-3.189,6.266-4.862,9.36c-3.279,6.015-7.437,11.708-11.17,17.466
				c-2.532,3.901-5.107,7.975-7.18,12.138c-0.544,1.093-1.087,2.162-1.601,3.285c-0.09,0.197-0.251,0.484-0.383,0.771l-0.179,0.478
				l-0.09,0.298c-0.024,0.353,0.502,0.526,0.723,0.281l0.119-0.179l0.818-1.165c1.267-1.762,2.491-3.572,3.752-5.34
				c3.416-4.796,7.06-9.623,10.823-14.157c8.41-10.143,17.186-19.533,27.102-27.919l2.239-1.738l0.269-0.203
				c0.634-0.197,1.261-0.394,1.895-0.591C481.774-203.835,481.016-202.665,480.239-201.518z M458.663-201.983
				c-3.5,1.159-6.94,2.348-10.399,3.68c-1.738,0.663-3.799,1.397-5.46,2.24c-0.698,0.347-1.427,0.645-2.126,0.992
				c-0.783,0.382-1.553,0.782-2.312,1.177c0.274-0.681,0.556-1.362,0.848-2.031c0.18-0.412,0.107-0.848-0.125-1.105
				c0.483-0.185,0.968-0.376,1.451-0.567c3.68-1.452,7.479-2.718,11.254-3.882c3.393-1.052,6.899-2.025,10.399-2.868
				C460.98-203.608,459.792-202.85,458.663-201.983z M463.663-201.028c0.029-0.078,0.065-0.167,0.102-0.257
				c1.643-0.508,3.303-1.003,4.892-1.469C467.032-202.198,465.342-201.613,463.663-201.028z M471.279-198.937
				c-0.896,0.836-1.828,1.69-2.688,2.562c-2.479,2.515-5.035,5.018-7.347,7.682c-1.918,2.204-3.895,4.361-5.747,6.63
				c-3.644,4.462-7.197,9.014-10.645,13.643l-6.624,9.373l1.075-2.145c1.338-2.377,2.766-4.707,4.205-7.037
				c0.908-1.47,1.857-2.951,2.844-4.367c2.198-3.148,4.241-6.433,6.415-9.593c1.428-2.079,2.921-4.199,4.235-6.344
				c1.989-3.267,4.008-6.583,5.621-10.071c2.49-0.83,4.987-1.648,7.49-2.467c1.834-0.598,3.667-1.189,5.507-1.774
				C474.152-201.577,472.707-200.275,471.279-198.937z M461.357-200.221c-1.267,0.448-2.533,0.896-3.799,1.344
				c0.328-0.275,0.656-0.543,0.985-0.8c0.991-0.311,1.989-0.615,2.986-0.926C461.471-200.478,461.417-200.347,461.357-200.221z
				 M411.128-194.392c-2.599,2.252-5.09,4.695-7.461,7.168c-0.849,0.878-1.709,1.75-2.575,2.628
				c-2.335-2.622-4.665-5.238-6.994-7.849c0.107-0.12,0.215-0.233,0.328-0.341c0.383-0.376,0.842-0.717,1.249-1.069
				c2.091-1.834,4.457-3.315,6.75-4.856c0.771-0.532,1.631-1.099,2.491-1.613C406.976-198.334,409.043-196.356,411.128-194.392z
				 M453.251-197.336c-3.679,1.326-7.353,2.676-11.009,4.05c1.822-1.213,3.835-2.037,5.872-2.826
				c1.434-0.555,2.886-1.117,4.349-1.589c0.615-0.203,1.23-0.418,1.857-0.633C453.962-197.999,453.604-197.671,453.251-197.336z
				 M427.787-188.627c-0.442,0.454-0.884,0.914-1.326,1.386l-2.126,0.83c0.095-0.078,0.196-0.155,0.298-0.245
				c1.094-1.058,1.201-2.76,0.305-3.937c1.763-0.992,3.524-1.875,5.454-2.771c1.481-0.693,3.064-1.213,4.527-1.9
				c0.364-0.179,0.741-0.352,1.117-0.514C433.133-193.901,430.171-191.112,427.787-188.627z M436.818-194.445l-0.824,1.834
				c-0.263,0.144-0.52,0.287-0.782,0.442c-1.947,1.099-3.979,2.39-5.859,3.763c2.191-2.108,4.485-4.08,6.905-5.704L436.818-194.445z
				 M446.926-190.544l-2.133,2.867l1.936-3.244c0.395-0.675,0.807-1.344,1.194-2.019c0.149-0.275,0.341-0.543,0.49-0.83
				c0.395-0.131,0.788-0.269,1.194-0.406c0.228-0.083,0.466-0.161,0.699-0.245C449.124-193.167,447.971-191.841,446.926-190.544z
				 M519.322-191.004c-0.395,0.723-0.782,1.452-1.165,2.186c-1.224,2.306-2.604,4.57-3.906,6.828
				c-1.93,3.333-4.104,6.72-6.344,9.856c-1.225,1.696-2.419,3.44-3.655,5.137c-0.765,0.316-1.535,0.651-2.294,0.985l-2.969-4.772
				c-0.699-1.159-1.386-2.33-2.066-3.506c0.489-0.556,0.979-1.117,1.475-1.679c2.897-3.333,5.699-6.612,8.733-9.808
				c2.879-3.046,6.355-6.039,10.179-8.231C517.979-193.005,518.647-192.002,519.322-191.004z M413.923-191.769
				c0.347,0.334,0.837,0.442,1.284,0.334c1.362,1.302,2.706,2.616,4.068,3.931c-0.019,0.012-0.03,0.023-0.042,0.03
				c-1.966,1.553-3.895,3.369-5.74,5.053c-1.912,1.738-3.823,3.495-5.801,5.167c-1.129-1.242-2.258-2.485-3.368-3.739
				c-0.824-0.914-1.643-1.828-2.455-2.742c0.155-0.167,0.316-0.329,0.483-0.484c2.593-2.622,5.137-5.221,7.849-7.735
				c0.586-0.556,1.184-1.093,1.799-1.619C412.639-192.97,413.278-192.366,413.923-191.769z M437.046-185.521
				c-4.45,4.91-8.381,10.346-12.765,15.31l-2.503,2.832l1.738-2.413c1.38-1.888,2.718-3.799,4.079-5.699
				c2.067-2.879,4.379-5.967,6.105-9.056c0.913-1.631,1.779-3.202,2.609-4.838c2.432-0.908,4.869-1.804,7.306-2.682
				C441.287-190.037,439.131-187.821,437.046-185.521z M522.387-186.638c0.18,0.287,0.353,0.55,0.538,0.812l0.095,0.137
				c0.138,0.221,0.287,0.448,0.431,0.663c-0.891,0.711-1.769,1.446-2.616,2.198c-5.107,4.522-9.761,9.534-14.282,14.641l-0.933,1.01
				c-0.054-0.018-0.113-0.03-0.167-0.042l1.225-1.643c1.738-2.396,3.417-4.874,5.107-7.305c1.769-2.551,3.596-5.131,5.251-7.76
				c0.752-1.194,1.528-2.377,2.275-3.572c0.389-0.627,0.765-1.254,1.129-1.888C521.085-188.46,521.724-187.546,522.387-186.638z
				 M431.401-183.502c-0.609,1.045-1.195,2.15-1.834,3.172c-1.571,2.479-3.13,4.856-4.827,7.258
				c-1.839,2.604-3.757,5.143-5.591,7.747c-0.06,0.072-0.144,0.191-0.245,0.329c-1.94-2.121-3.895-4.241-5.842-6.368
				c2.3-2.24,4.427-4.486,6.637-6.839c2.162-2.306,4.414-4.844,6.786-7.317c0.029,0.137,0.083,0.275,0.185,0.4
				c0.305,0.394,0.896,0.466,1.29,0.155c1.183-0.896,2.312-1.75,3.477-2.581c0.891-0.347,1.78-0.681,2.67-1.01
				C433.253-186.847,432.356-185.157,431.401-183.502z M426.533-187.265l-0.072,0.024L426.533-187.265z M422.889-186.136
				l0.215,0.203l0.49-0.191l0.741-0.287c-0.365,0.263-0.771,0.436-1.189,0.52L422.889-186.136z M420.021-185.7l-0.353,0.854
				c-0.866,1.881-2.049,3.596-3.153,5.346c-1.165,1.834-2.545,3.614-3.835,5.358c-0.329,0.436-0.651,0.872-0.968,1.302
				c-0.968-1.051-1.93-2.108-2.897-3.166c1.858-1.541,3.65-3.166,5.448-4.779L420.021-185.7z M422.68-184.332
				c0.395,0.149,1.058-0.221,1.452-0.389c-0.562,0.622-1.117,1.243-1.655,1.87c-1.003,1.159-2.043,2.377-3.094,3.483
				c-0.938,0.985-1.876,2.031-2.784,3.052c-0.531,0.597-1.135,1.153-1.672,1.756c-0.37,0.418-0.849,0.842-1.255,1.237l-0.478,0.43
				c2.735-3.387,5.639-6.564,7.67-10.423c0.328-0.639,0.604-1.236,0.86-1.833C421.999-184.864,422.333-184.47,422.68-184.332z
				 M539.005-161.425c-0.556,0.4-1.105,0.812-1.631,1.255c-1.392,1.159-2.724,2.335-4.092,3.518
				c-1.864,1.613-3.638,3.381-5.406,5.137c-1.003-1.428-2.013-2.861-3.022-4.289c0.979-1.648,1.96-3.309,2.892-4.981
				c1.051-1.906,1.804-3.823,2.646-5.818c0.275-0.663,0.926-2.15-0.298-2.282c-0.699-0.072-1.38,1.057-1.792,1.541
				c-1.285,1.511-2.562,3.046-3.848,4.564c-0.83,0.974-1.684,1.923-2.538,2.867c-1.882-2.617-3.781-5.269-5.711-7.843
				c-0.364-0.478-0.704-1.003-1.081-1.469c-0.251-0.305-0.382-0.675-0.776-0.783c-0.544-0.155-1.81,0.538-2.312,0.729
				c-1.518,0.555-3.047,1.177-4.563,1.792c0.274-0.287,0.556-0.574,0.83-0.866c2.174-2.3,4.426-4.54,6.648-6.798
				c2.903-2.957,6.039-5.925,9.33-8.583C530.988-173.401,535.402-166.747,539.005-161.425z M494.706-174.046
				c-0.489,0.562-0.974,1.123-1.463,1.673c-0.126,0.131-0.245,0.269-0.364,0.406c-0.335,0.089-0.646,0.281-0.885,0.562
				c-0.221,0.257-0.358,0.555-0.418,0.872c-1.045,1.141-2.133,2.27-3.243,3.339l-2.198,1.965l2.204-4.086
				c1.428-2.407,2.933-4.772,4.426-7.042c0.108-0.167,0.21-0.334,0.317-0.49C493.619-175.916,494.163-174.978,494.706-174.046z
				 M497.586-169.136c-1.004-0.818-2.014-1.637-3.023-2.461c0.317-0.358,0.628-0.717,0.944-1.069
				C496.193-171.483,496.881-170.307,497.586-169.136z M492.186-168.832c1.069,0.98,2.055,1.882,3.059,2.939
				c0.585,0.615,1.129,1.254,1.679,1.888c-0.371,0.137-0.741,0.274-1.105,0.412c-0.167,0.06-0.328,0.119-0.483,0.179
				c-0.042-0.036-0.09-0.066-0.156-0.042c0.019-0.012,0.019-0.036,0.019-0.054c-0.209-1.487-1.595-2.533-3.082-2.324
				c-1.267,0.186-2.533,0.395-3.8,0.646c1.303-1.201,2.562-2.449,3.775-3.733C492.12-168.891,492.149-168.861,492.186-168.832z
				 M513.851-168.276l1.661,2.306c-2.025,0.418-4.026,0.956-6.039,1.392l-5.395,1.189c-0.029-0.024-0.054-0.054-0.077-0.078
				c0.598-0.251,1.188-0.514,1.798-0.753c0.514-0.227,0.849-0.693,0.932-1.212L513.851-168.276z M527.584-164.346l-1.291,2.79
				c-0.771,1.464-1.601,2.903-2.442,4.343c-0.448-0.627-0.902-1.254-1.351-1.888L527.584-164.346z M517.13-163.736l3.656,5.06
				l-6.29,6.887c-0.866-1.021-1.738-2.043-2.604-3.07c-1.523-1.786-3.124-3.584-4.772-5.352c2.885-0.765,5.752-1.595,8.542-2.581
				l0.399-0.155l0.144-0.036l0.454-0.179c0.197-0.12,0.383-0.269,0.525-0.496L517.13-163.736z M541.102-158.342l-0.144,0.621
				c-0.406,1.565-1.016,3.112-1.535,4.647c-0.406,1.201-0.985,2.479-1.505,3.638c-1.1,2.455-2.312,4.803-3.614,7.126
				c-1.81-2.604-3.614-5.203-5.43-7.789c2.078-1.995,4.193-3.96,6.344-5.878c1.23-1.111,2.622-2.312,4.067-3.44l0.741-0.508
				C540.391-159.388,540.749-158.856,541.102-158.342z M521.342-157.906l0.155,0.209c0.472,0.681,0.955,1.368,1.439,2.043
				c-0.586,0.985-1.171,1.971-1.738,2.963c-1.016,1.762-2.043,3.536-2.933,5.376c-1.105-1.332-2.223-2.658-3.346-3.972
				L521.342-157.906z M544.584-153.265c0.859,1.249,1.714,2.491,2.574,3.739c-1.355,0.801-2.664,1.708-3.9,2.682
				c-2.676,2.103-5.096,4.391-7.371,6.822c-0.174-0.257-0.353-0.514-0.532-0.765c0.891-1.535,1.703-3.07,2.515-4.647
				c0.335-0.639,0.705-1.332,0.98-1.995c0.274-0.639,0.591-1.29,0.878-1.929c0.985-2.168,1.947-4.749,2.658-7.103
				C543.126-155.374,543.855-154.322,544.584-153.265z M273.418-155.141l-0.018,0.872c0.006,7.323,0.096,14.659,0.299,21.994
				c0.185,6.594,0.466,13.141,0.818,19.729c0.203,3.817,0.418,7.712,0.836,11.517c-1.171,3.154-1.959,6.26-2.3,9.647
				c-0.149,1.518-0.197,3.005-0.143,4.45c-0.221-0.854-0.412-1.72-0.591-2.586c0-1.057-0.006-2.103,0.006-3.154
				c0.012-2.156,0.03-4.301,0.054-6.457c0.072-0.072,0.12-0.167,0.12-0.269c0.047-3.614,0.173-7.216,0.149-10.83
				c-0.012-1.619-0.03-3.238-0.06-4.88c0.215-12.956,0.448-25.93,0.807-38.91L273.418-155.141z M526.693-150.356
				c-0.299,0.305-0.609,0.597-0.908,0.89c-1.714,1.648-3.428,3.369-5.173,5.018c-0.274-0.334-0.543-0.669-0.812-0.998
				c-0.114-0.149-0.233-0.293-0.353-0.436c1.296-2.879,2.873-5.627,4.485-8.369C524.854-152.948,525.779-151.652,526.693-150.356z
				 M510.523-147.453l-2.831,3.118l0.585-3.429l0.107-0.609c0.072-0.227,0.156-0.46,0.258-0.669
				c0.143-0.221,0.311-0.472,0.501-0.741C509.598-149.012,510.063-148.229,510.523-147.453z M527.822-148.749
				c1.858,2.664,3.716,5.346,5.562,8.034c-0.747,1.29-1.523,2.574-2.312,3.865c-0.669,1.099-1.362,2.192-2.055,3.291
				c-2.414-3.237-4.862-6.439-7.371-9.599c0.878-0.788,1.731-1.589,2.544-2.395c1.153-1.141,2.318-2.276,3.482-3.405
				C527.721-148.893,527.769-148.821,527.822-148.749z M548.412-147.925l-0.095,0.054L548.412-147.925z M548.812-147.148
				l0.048-0.149l-2.138,7.019c-0.544,1.284-0.986,2.622-1.584,3.889c-0.901,1.917-1.821,3.805-2.777,5.668
				c-0.508-0.741-1.021-1.469-1.529-2.204c-1.302-1.864-2.598-3.721-3.895-5.585c2.73-2.927,5.705-5.729,8.973-7.986l2.407-1.374
				C548.479-147.626,548.646-147.393,548.812-147.148z M510.59-147.519l-0.066,0.065L510.59-147.519z M555.76-137.25
				c-1.248,0.699-2.425,1.5-3.566,2.419c-2.76,2.186-5.202,4.778-7.544,7.449c-0.395-0.58-0.788-1.159-1.183-1.732
				c0.675-1.302,1.314-2.64,1.941-3.918c1.738-3.596,3.303-7.306,4.552-11.099c0.102-0.311,0.203-0.621,0.305-0.938
				C552.086-142.459,553.92-139.849,555.76-137.25z M681.797-106.601c-0.048,10.537-0.083,21.08-0.113,31.844
				c-0.102-8.052-0.167-15.871-0.144-23.672c0.03-10.131,0.072-20.25,0.161-30.375c0.036-4.611,0.162-9.193,0.311-13.804
				C681.946-130.596,681.851-118.602,681.797-106.601z M534.758-138.732l-0.036,0.036l-2.354,2.879l2.019-3.357l0.03-0.048
				C534.53-139.054,534.645-138.893,534.758-138.732z M541.436-128.93c-0.848,1.607-1.727,3.202-2.628,4.797
				c-0.424,0.74-0.849,1.481-1.278,2.222c-0.383-0.538-0.765-1.069-1.146-1.601c-1.882-2.599-3.764-5.185-5.663-7.766
				c0.633-0.764,1.267-1.541,1.911-2.299c1.004-1.213,2.055-2.443,3.148-3.662C537.673-134.473,539.561-131.707,541.436-128.93z
				 M557.241-135.596l-0.221,0.119c0.215,0.305,0.43,0.604,0.65,0.914c-0.119,0.406-0.238,0.812-0.412,1.219
				c-0.292,0.681-0.531,1.403-0.812,2.09c-0.664,1.601-1.339,3.196-2.067,4.767c-1.213,2.61-2.532,5.19-3.889,7.753
				c-1.606-2.384-3.208-4.767-4.82-7.145c2.724-3.046,5.591-6.045,8.9-8.321L557.241-135.596z M563.824-125.979
				c-1.41,1.087-2.748,2.288-4.092,3.429c-2.485,2.103-4.862,4.545-7.114,6.958c-0.347-0.507-0.693-1.021-1.04-1.529
				c2.145-3.937,4.229-7.98,5.962-12.078c0.478-1.141,1.016-2.348,1.434-3.536C560.586-130.482,562.199-128.225,563.824-125.979z
				 M524.615-130.662l1.141,1.547c0.096,0.125,0.191,0.263,0.293,0.4c-0.024,0.03-0.042,0.065-0.066,0.101L524.615-130.662z
				 M543.425-125.979c-0.818,0.95-1.625,1.894-2.431,2.825l-2.294,2.515c1.23-2.019,2.287-4.133,3.488-6.152
				c0.107-0.186,0.209-0.364,0.316-0.55C542.81-126.887,543.114-126.433,543.425-125.979z M534.405-116.601
				c-0.065,0.089-0.12,0.185-0.173,0.281c-0.442-0.645-0.885-1.291-1.326-1.936l-5.711-8.542c0.036-0.042,0.071-0.09,0.107-0.132
				C529.704-123.518,532.075-120.077,534.405-116.601z M524.155-125.465l-0.042,0.054L524.155-125.465z M549.5-116.899
				c-0.741,1.374-1.5,2.736-2.252,4.086c-0.508,0.902-1.027,1.81-1.541,2.724c-1.362-2.001-2.73-4.002-4.116-5.985
				c-0.692-0.991-1.38-1.977-2.055-2.962c0.585-0.639,1.165-1.285,1.756-1.912c1.04-1.141,2.085-2.33,3.143-3.53
				C546.125-121.953,547.815-119.426,549.5-116.899z M565.258-124.408l-0.197,0.155c0.054,0.066,0.107,0.137,0.161,0.209
				c-0.389,1.446-0.843,2.885-1.362,4.277c-1.583,4.217-3.649,8.213-5.836,12.15c-1.451-2.145-2.909-4.295-4.366-6.439
				c0.956-0.998,1.911-1.995,2.921-2.933c1.547-1.44,3.059-2.981,4.701-4.313L565.258-124.408z M571.117-115.943
				c-1.451,0.764-2.783,1.601-4.193,2.58c-2.944,2.037-5.495,4.683-7.747,7.455c-0.019-0.024-0.03-0.042-0.036-0.066l2.079-3.745
				c1.386-2.61,2.682-5.263,3.799-8.016c0.585-1.458,1.104-2.921,1.577-4.409C568.101-120.071,569.605-117.999,571.117-115.943z
				 M551.31-114.169l-0.03,0.036l-3.679,4.175l2.808-5.023c0.053-0.102,0.107-0.203,0.161-0.305
				C550.82-114.916,551.064-114.54,551.31-114.169z M541.209-106.159c-2.001-2.897-3.973-5.776-5.949-8.655
				c0.071-0.054,0.148-0.114,0.227-0.167C537.428-112.067,539.327-109.134,541.209-106.159z M572.521-114.265l-0.126,0.066
				c0.071,0.102,0.138,0.197,0.209,0.287l0.054-0.161l-3.195,10.047c-0.812,2.037-1.589,4.086-2.432,6.111
				c-0.311,0.747-0.621,1.493-0.938,2.246c-1.93-2.855-3.859-5.71-5.788-8.572c2.861-3.5,6.093-6.505,10.185-8.996L572.521-114.265z
				 M556.937-105.675c-0.657,1.17-1.32,2.335-1.978,3.5c-0.639,1.117-1.242,2.222-1.827,3.327c-1.834-2.844-3.698-5.675-5.579-8.488
				c0.322-0.376,0.639-0.759,0.968-1.135c1.236-1.434,2.496-2.813,3.799-4.188C553.854-110.329,555.401-108.005,556.937-105.675z
				 M578.147-106.404c0.663,0.932,1.332,1.858,1.995,2.784c-3.435,2.252-6.308,4.683-8.888,7.401l-2.963,3.799
				c-0.329-0.472-0.646-0.95-0.962-1.422c1.679-4.056,3.315-8.118,4.874-12.228c0.693-1.846,1.404-3.751,2.014-5.657
				C575.525-109.952,576.834-108.172,578.147-106.404z M632.087-111.075l1.081,3.93c0.155,0.699,0.316,1.404,0.46,2.103
				c-0.328,0.065-0.609,0.239-0.824,0.472c-0.102-0.597-0.197-1.188-0.299-1.78c-0.245-1.416-0.447-2.837-0.65-4.259
				L632.087-111.075z M565.108-93.299c-0.442,1.075-0.878,2.15-1.284,3.226c-0.651,1.679-1.339,3.345-2.008,5.018
				c-2.317-3.763-4.665-7.514-7.048-11.242c0.609-0.979,1.225-1.953,1.875-2.921c0.765-1.153,1.541-2.27,2.354-3.345
				C561.034-99.475,563.065-96.387,565.108-93.299z M278.514-90.443c0.328,2.419,0.729,4.809,1.129,7.216
				c-0.364,0.448-0.717,0.902-1.016,1.308c-0.932-2.401-1.625-4.779-2.007-7.282c-0.347-2.21-0.556-4.408-0.591-6.618
				c0.478,3.261,1.045,6.487,1.643,9.766c-0.173-4.725-0.239-9.474-0.502-14.198c-0.036-0.562-0.065-1.111-0.102-1.667
				C277.51-98.083,277.994-94.254,278.514-90.443z M584.217-97.946c-3.064,1.738-5.974,4.587-8.261,7.222
				c-1.147,1.308-2.33,2.586-3.477,3.907l-0.239,0.25c-0.012-0.018-0.023-0.036-0.036-0.047l6.123-9.086
				c1.141-2.031,2.222-4.014,3.064-6.182C582.335-100.568,583.279-99.26,584.217-97.946z M578.973-100.61l-0.831,1.75
				c-0.968,2.007-2.317,4.02-3.518,5.896c-1.069,1.655-2.211,3.303-3.369,4.94c-0.711-1.045-1.41-2.097-2.121-3.136
				c2.198-2.7,4.605-5.155,7.329-7.521L578.973-100.61z M626.866-90.181c-0.723,0.711-1.434,1.463-2.139,2.198
				c-2.61,2.682-5.143,5.442-7.628,8.237c2.306-5.023,4.63-10.041,7.013-15.023c0.508-0.884,1.016-1.774,1.518-2.664
				C626.09-95.025,626.538-92.618,626.866-90.181z M586.188-95.21c0.58,0.806,1.171,1.625,1.757,2.443l-0.562,1.714
				c-2.198,5.442-4.862,10.603-7.484,15.83c-2.229-3.292-4.45-6.583-6.667-9.874c0.239-0.275,0.484-0.556,0.724-0.824
				c1.23-1.422,2.526-2.79,3.787-4.182c2.09-2.3,4.641-4.767,7.532-6.379C585.572-96.059,585.883-95.634,586.188-95.21z
				 M587.962-92.803l-0.018,0.036L587.962-92.803z M566.345-91.471l-0.012,0.024L566.345-91.471z M566.882-90.623l-1.917,2.485
				l1.368-3.309C566.512-91.166,566.691-90.897,566.882-90.623z M595.352-82.69c-0.454,0.353-0.914,0.723-1.374,1.099
				c-3.656,2.939-7.133,6.547-10.215,10.083c-0.257,0.287-0.508,0.573-0.765,0.854c-0.46-0.669-0.914-1.344-1.368-2.013
				c-0.209-0.316-0.424-0.627-0.633-0.943c0.627-1.23,1.261-2.461,1.894-3.698c1.303-2.575,2.533-5.173,3.751-7.783
				c0.933-2.013,1.757-3.984,2.533-5.985C591.218-88.269,593.272-85.468,595.352-82.69z M566.9-90.635l-0.019,0.012L566.9-90.635z
				 M615.278-90.073l-0.161,0.233l-0.006,0.006L615.278-90.073z M612.716-83.771c-0.419,0.328-0.824,0.651-1.207,0.967
				c-0.807,0.639-1.637,1.272-2.449,1.924c1.47-2.234,2.969-4.438,4.48-6.631l1.571-2.323
				C614.286-87.821,613.486-85.802,612.716-83.771z M569.863-86.101c-0.448,0.615-0.891,1.224-1.332,1.828
				c-1.105,1.5-2.085,3.088-3.172,4.593c-0.055,0.072-0.096,0.144-0.126,0.221c-0.657-1.081-1.308-2.162-1.971-3.244
				c0.866-1.434,1.762-2.837,2.724-4.235c0.562-0.831,1.141-1.637,1.732-2.413C568.43-88.269,569.146-87.188,569.863-86.101z
				 M628.963-78.389c-1.207,1.23-2.396,2.491-3.53,3.805c-2.885,3.339-5.782,6.588-8.523,10.047
				c-5.293,6.667-10.412,13.452-15.567,20.214c-0.412-0.573-0.824-1.147-1.236-1.72c1.774-2.879,3.584-5.729,5.395-8.59
				c1.863-2.957,3.781-5.902,5.729-8.829c0.441,0.102,0.926,0.018,1.313-0.281c0.651-0.514,0.783-1.458,0.299-2.126
				c0.884-1.314,1.774-2.616,2.664-3.907c3.781-5.519,7.599-11.021,11.367-16.54c0.114-0.173,0.347-0.496,0.621-0.89
				C628.001-84.273,628.491-81.334,628.963-78.389z M363.514-83.054c-2.396,1.397-4.647,2.897-6.875,4.534
				c-5.155,3.775-9.952,7.831-14.599,12.209c-2.025,1.911-4.098,3.781-6.105,5.71c-2.126,2.055-4.319,4.122-6.517,6.104
				c-1.75,1.583-3.506,3.154-5.292,4.695c-0.938,0.812-1.941,1.571-2.861,2.407c-0.179,0.144-0.203,0.43-0.06,0.609
				c0.149,0.185,0.436,0.209,0.615,0.06c1.798-1.547,3.649-3.022,5.43-4.582c1.661-1.452,3.279-2.951,4.952-4.384
				c1.135-0.974,2.222-2.019,3.345-3.011c4.02-3.56,8.016-7.257,12.174-10.645c2.12-1.726,4.157-3.53,6.313-5.215
				c3.351-2.61,6.661-4.904,10.304-7.09c1.445-0.866,2.921-1.672,4.462-2.353c0.412-0.197,0.585-0.693,0.395-1.105
				c-0.197-0.412-0.693-0.591-1.105-0.394C366.507-84.834,364.996-83.92,363.514-83.054z M578.697-72.816
				c-0.102,0.203-0.203,0.412-0.305,0.627c-1.338,2.712-2.682,5.442-3.906,8.225c-0.932-1.606-1.876-3.202-2.819-4.791
				c-1.899-3.196-3.812-6.379-5.734-9.563c0.102,0.012,0.209-0.006,0.328-0.042c0.353-0.12,1.941-1.577,2.317-1.917
				c1.046-0.944,2.091-2.007,3.101-3.088C574.008-79.853,576.35-76.334,578.697-72.816z M279.846-82.021
				c0.353,2.18,0.788,4.402,1.332,6.588c-0.812-1.577-1.518-3.195-2.109-4.88c-0.149-0.406-0.287-0.807-0.424-1.207
				c0.346-0.448,0.705-0.89,1.057-1.338C279.75-82.577,279.798-82.302,279.846-82.021z M596.534-81.203l-0.042,0.036
				c0.388,0.514,0.776,1.034,1.164,1.553l-1.039,1.72c-3.076,4.438-6.636,8.429-9.897,12.676c-0.908-1.314-1.804-2.628-2.712-3.955
				c1.631-1.792,3.285-3.548,4.976-5.322c1.081-1.129,2.294-2.138,3.399-3.237c1.152-1.147,2.592-2.21,3.847-3.244L596.534-81.203z
				 M611.706-80.498l-0.274,0.215L611.706-80.498z M610.995-79.01c-0.514,0.699-1.027,1.397-1.541,2.079
				c-0.251-0.364-0.502-0.735-0.753-1.099l2.73-2.252C611.282-79.865,611.139-79.44,610.995-79.01z M597.681-79.644l-0.024,0.03
				L597.681-79.644z M619.507-79.243l-2.712,3.954c-1.158,1.679-2.299,3.369-3.435,5.065c-0.006-0.305-0.054-0.597-0.144-0.902
				c0-0.024,0.007-0.048,0.013-0.06c0.28-0.633,0.556-1.266,0.842-1.905c1.47-1.703,2.969-3.417,4.486-5.113L619.507-79.243z
				 M599.317-77.434c0.52,0.681,1.027,1.452,1.577,2.097c0.274,0.323,0.495,0.687,0.729,0.998c-2.837,2.562-5.472,5.34-8.13,8.076
				c-1.457,1.487-2.909,3.034-4.324,4.605c-0.479-0.699-0.962-1.386-1.434-2.085c0.501-0.669,1.021-1.344,1.541-2.019
				c1.476-1.929,3.1-3.781,4.611-5.687c0.908-1.153,1.798-2.324,2.712-3.471c0.776-0.985,1.535-2.049,2.258-3.118
				C599.013-77.84,599.162-77.637,599.317-77.434z M629.644-74.077c0.12,0.818,0.245,1.637,0.371,2.455
				c-6.41,8.751-13.249,17.167-19.533,26.002c-1.702,2.377-3.273,4.827-4.839,7.299c-1.081-1.505-2.168-3.01-3.243-4.521
				c1.69-2.187,3.387-4.378,5.083-6.571c7.007-9.074,14.02-18.183,21.875-26.486C629.453-75.289,629.549-74.68,629.644-74.077z
				 M604.86-71.144c-0.203,0.251-0.4,0.496-0.591,0.747c-3.453,4.283-7.187,8.375-10.609,12.688
				c-0.322,0.388-0.627,0.782-0.938,1.177c-0.836-1.201-1.672-2.413-2.509-3.614c1.309-1.428,2.646-2.826,4.002-4.206
				c1.458-1.481,2.897-2.975,4.367-4.45c0.346-0.352,0.687-0.693,1.033-1.033c-0.102,0.538,0.144,1.105,0.651,1.38
				c0.615,0.323,1.392,0.089,1.714-0.526c0.585-1.177,1.213-2.33,1.87-3.47C604.18-72.016,604.521-71.58,604.86-71.144z
				 M340.439-71.968c-0.705,1.194-1.469,2.521-2.348,3.584c-0.758,0.914-1.475,1.846-2.264,2.742
				c-3.626,4.127-8.016,7.771-11.917,11.666c-2.192,2.192-4.342,4.438-6.069,7.019c-0.227,0.323-0.155,0.783,0.167,1.016
				c0.322,0.227,0.782,0.155,1.015-0.167c4.677-6.553,11.2-11.152,16.929-16.719c1.517-1.476,3.064-3.059,4.373-4.725
				c0.818-1.033,1.451-2.066,2.204-3.118c0.353-0.567,0.173-1.338-0.4-1.69C341.562-72.714,340.792-72.542,340.439-71.968z
				 M581.397-68.796c-0.071,0.078-0.138,0.155-0.203,0.245c-0.711,0.878-1.47,1.744-2.192,2.61l-3.303,4.05
				c-0.03-0.06-0.066-0.125-0.108-0.186l2.085-4.874c0.688-1.428,1.392-2.843,2.103-4.259
				C580.316-70.403,580.854-69.603,581.397-68.796z M292.981-62.912c-0.239,0.34-0.161,0.83,0.179,1.069
				c0.34,0.245,0.83,0.167,1.075-0.173c1.708-2.521,3.363-4.57,5.74-6.452c0.645-0.507,1.308-0.848,2.001-1.278
				c0.376-0.215,0.508-0.699,0.293-1.075c-0.209-0.376-0.693-0.508-1.069-0.299C297.544-69.268,295.305-66.162,292.981-62.912z
				 M305.806-63.318c-0.789,0.938-1.553,1.923-2.3,2.879c-0.496,0.633-1.105,1.362-1.529,2.037
				c-0.197,0.274-0.137,0.663,0.138,0.854c0.269,0.197,0.657,0.137,0.854-0.131c0.645-0.836,1.291-1.679,1.929-2.509
				c1.01-1.326,2.198-2.568,3.28-3.841c0.723-0.848,1.535-1.792,2.323-2.568c0.717-0.699,1.392-1.47,2.103-2.174
				c0.316-0.317,0.741-0.794,1.099-1.034c0.341-0.329,0.359-0.878,0.036-1.218c-0.323-0.341-0.872-0.358-1.219-0.036
				C310.136-68.623,308.028-65.953,305.806-63.318z M320.249-70.373c-1.685,1.774-3.333,3.554-5.089,5.263
				c-3.465,3.381-6.792,6.792-9.026,11.092c-0.215,0.418-0.048,0.95,0.37,1.171c0.418,0.215,0.95,0.054,1.165-0.364
				c1.201-2.79,3.781-5.37,5.824-7.526c1.326-1.392,2.879-2.748,4.307-4.044c1.41-1.278,2.736-2.67,4.139-3.942
				c0.454-0.46,0.442-1.212-0.018-1.667C321.462-70.845,320.709-70.833,320.249-70.373z M607.315-67.96
				c-4.897,5.717-8.709,10.424-12.191,14.844c-0.466-0.651-0.932-1.314-1.397-1.977c3.327-4.253,6.893-8.315,10.369-12.431
				c0.615-0.734,1.23-1.475,1.84-2.204C606.396-69.143,606.85-68.551,607.315-67.96z M631.299-62.649
				c-1.32,1.386-2.61,2.801-3.925,4.199c-4.349,4.624-8.655,9.492-12.711,14.372c-1.601,1.924-3.214,3.847-4.814,5.776
				c-0.885,0.281-1.763,0.615-2.622,0.956c3.13-5.011,6.582-9.826,10.184-14.61c2.516-3.351,5.096-6.69,7.682-9.988
				c1.452-1.863,2.963-3.787,4.337-5.705c0.311-0.448,0.646-0.884,0.974-1.326C630.701-66.867,631.006-64.764,631.299-62.649z
				 M582.419-67.285c0.92,1.374,1.84,2.742,2.766,4.116c-1.021,1.403-1.995,2.855-2.903,4.36c-1.338,0.442-2.682,0.884-4.02,1.332
				c-0.574-0.986-1.142-1.977-1.715-2.963c1.428-1.732,2.879-3.453,4.337-5.161c0.495-0.585,0.997-1.165,1.499-1.732
				C582.395-67.314,582.407-67.297,582.419-67.285z M606.694-64.316l-0.006,0.018l-0.084,0.472l-0.035,0.102l-0.114,0.705
				c0.013,0.556,0.239,1.045,0.956,1.392c0.065,0.03,0.144,0.054,0.221,0.078c-1.397,2.145-2.789,4.307-4.175,6.475
				c-1.547,2.419-3.082,4.844-4.576,7.293c-0.896-1.267-1.792-2.527-2.688-3.793c1.183-1.452,2.365-2.891,3.554-4.325
				C602.059-58.713,604.377-61.515,606.694-64.316z M587.09-60.362c-0.734,0.233-1.47,0.466-2.204,0.711l0.328-0.609
				c0.323-0.478,0.657-0.944,0.992-1.41C586.492-61.234,586.791-60.798,587.09-60.362z M631.89-58.432l0.019-0.024l-0.801,1.661
				c-0.974,1.81-2.001,3.715-3.13,5.436c-2.097,3.184-4.116,6.35-6.374,9.426c-3.094,4.217-6.26,8.411-9.414,12.598
				c-1.146-1.571-2.299-3.142-3.44-4.713c0.801-1.009,1.613-2.013,2.438-3.01c1.625-0.723,3.249-1.428,4.946-2.043
				c0.154-0.042,0.25-0.209,0.209-0.364c-0.042-0.149-0.209-0.245-0.359-0.203c-0.932,0.089-1.893,0.329-2.819,0.514
				c2.635-3.453,5.49-6.744,8.387-9.994l10.113-10.907C631.734-59.514,631.812-58.976,631.89-58.432z M584.652-56.467l-3.398,4.193
				c-0.054-0.089-0.102-0.173-0.155-0.263l2.712-5.095l0.023-0.042c0.843-0.281,1.691-0.555,2.545-0.83
				C585.794-57.829,585.214-57.148,584.652-56.467z M591.122-54.412c-0.824,1.105-1.625,2.21-2.413,3.345
				c-0.251-0.125-0.526-0.173-0.818-0.137c-0.55,0.066-1.105,0.144-1.655,0.227c0.036-0.107,0.066-0.215,0.072-0.293
				c0.036-0.621-0.598-1.099-1.183-0.872c-0.979,0.382-2.043,0.896-3.017,1.362c-0.006-0.012-0.013-0.018-0.019-0.03
				c2.085-2.539,4.229-5,6.416-7.449C589.372-56.981,590.25-55.69,591.122-54.412z M579.97-54.514
				c-0.305-0.526-0.604-1.045-0.902-1.571c0.682-0.227,1.368-0.46,2.056-0.687C580.717-56.037,580.328-55.278,579.97-54.514z
				 M633.294-48.917c0.137,0.872,0.274,1.745,0.406,2.623c-0.013,0-0.024,0.006-0.03,0.012c-0.442,0.144-0.848,0.735-1.171,1.069
				c-0.771,0.794-1.493,1.643-2.258,2.443c-2.724,2.879-5.603,5.639-8.345,8.5c-1.774,1.852-3.644,3.632-5.441,5.459
				c-0.741,0.747-1.476,1.493-2.217,2.246c-0.305-0.412-0.608-0.831-0.926-1.254c2.485-3.327,5.071-6.589,7.479-9.934
				c1.577-2.198,3.292-4.367,4.773-6.625c1.469-2.234,3.028-4.426,4.414-6.726c0.651-1.069,1.254-2.174,1.888-3.261
				c0.161-0.281,0.322-0.568,0.483-0.854C632.648-53.122,632.965-51.02,633.294-48.917z M573.889-51.563
				c0.257,0.358,0.508,0.729,0.765,1.087c-4.109-0.006-8.153,0.705-12.149,1.726c0.209-0.484,0.395-0.962,0.483-1.374
				c0.03-0.155,0.078-0.322,0.126-0.49c3.07-1.051,6.146-2.103,9.211-3.166C572.85-53.044,573.369-52.304,573.889-51.563z
				 M593.451-50.99c-0.765,0.98-1.522,1.948-2.275,2.921l-2.181,2.712c-0.018,0.006-0.035,0.006-0.048,0.012
				c-0.812,0.137-1.612,0.364-2.395,0.645c1.099-1.822,2.258-3.614,3.464-5.358c0.682-0.986,1.374-1.947,2.091-2.903
				C592.556-52.304,593.004-51.646,593.451-50.99z M559.564-48.068c-0.041,0.054-0.083,0.113-0.125,0.167
				c-0.347,0.096-0.699,0.203-1.052,0.311c-2.389,0.239-4.784,0.466-7.186,0.687l9.504-2.951l0.071-0.018
				C560.383-49.257,559.965-48.642,559.564-48.068z M594.802-49.012c0.848,1.236,1.714,2.485,2.574,3.715
				c-0.113,0.191-0.227,0.382-0.328,0.567c-2.396,4.056-4.726,8.094-6.911,12.263c-0.496,0.932-0.986,1.864-1.47,2.802
				c-0.538,0.161-1.081,0.311-1.637,0.454c-0.693,0.179-1.392,0.287-2.091,0.389l-0.681,0.107l0.836-1.619
				c1.225-2.138,2.855-4.085,4.026-6.272c0.549-1.015,1.183-2.049,1.481-3.184c0.107-0.4,0.263-0.8,0.34-1.219
				c0.239-1.272,0.233-2.126,0.18-3.405c-0.019-0.287-0.071-0.501-0.161-0.663c1.177-1.469,2.348-2.933,3.53-4.39
				C594.593-49.317,594.694-49.167,594.802-49.012z M585.179-45.47c-0.257-0.454-0.526-0.908-0.789-1.374
				c0.216-0.394,0.431-0.788,0.622-1.194c0.603-0.09,1.2-0.173,1.798-0.257C586.224-47.375,585.674-46.438,585.179-45.47z
				 M579.414-42.645c-0.131,0.162-0.263,0.317-0.388,0.484c-1.189,1.452-2.593,2.832-3.967,4.104
				c-1.589,1.463-3.202,2.903-4.79,4.36l-4.212,3.996l-1.158,0.233c-0.515,0.096-1.021,0.186-1.535,0.269
				c-1.882-1.057-3.77-2.097-5.669-3.13c0.525-1.308,1.236-2.455,2.061-3.524l0.729-0.831l1.924-1.667l0.872-0.866l6.242-3.303
				c2.557-1.362,5.125-2.694,7.699-3.966C577.944-45.208,578.68-43.929,579.414-42.645z M572.975-46.175l-6.779,3.602l0.406-0.562
				l0.83-1.248l0.161-0.442c0-0.179-0.06-0.353-0.161-0.484c1.828-0.287,3.649-0.567,5.472-0.854
				C572.927-46.169,572.951-46.175,572.975-46.175z M566.159-45.112l-0.119,0.149c-0.191,0.245-0.383,0.525-0.508,0.675
				c-0.711,0.866-1.458,1.708-2.234,2.527l-1.469,1.511l-5.502,2.909c0.688-2.545,2.15-4.635,3.572-6.792
				c2.085-0.322,4.163-0.651,6.254-0.974L566.159-45.112z M554.696-41.486c-1.355,1.786-2.76,3.56-4.079,5.388
				c-1.494-0.776-2.993-1.535-4.492-2.288l-3.488-1.643l5.018-1.291c1.57-0.49,3.13-1.069,4.701-1.643
				c1.284-0.197,2.592-0.4,3.9-0.597C555.742-42.872,555.216-42.179,554.696-41.486z M599.622-42.071
				c-0.932,1.212-1.864,2.431-2.796,3.644l-3.787,4.689l4.021-7.198c0.502-0.878,1.016-1.744,1.529-2.61
				C598.941-43.051,599.281-42.561,599.622-42.071z M637.236-23.793c0.197,2.927,0.388,5.848,0.597,8.775
				c-0.388,0.275-0.782,0.543-1.164,0.824c-0.622,0.442-1.237,0.986-1.853,1.458c-2.502,1.923-4.909,4.474-7.149,6.702l-1.811,1.786
				l2.557-4.223c1.452-2.491,2.796-5.042,3.955-7.676c0.806-1.834,1.338-3.715,1.881-5.633c0.442-1.565,0.682-3.686,0.669-5.316
				c-0.006-0.687,0.174-1.738-0.573-2.079c-0.759-0.347-1.361,0.454-1.888,0.872c-1.738,1.386-3.393,2.975-5.089,4.42
				c-2.264,1.93-4.433,4.008-6.564,6.099c-0.364-0.484-0.735-0.968-1.1-1.458c1.565-1.965,3.143-3.924,4.642-5.914
				c4.151-5.52,7.807-11.236,9.868-17.807C635.205-36.576,636.203-30.185,637.236-23.793z M589.211-42.896v0.03l-0.013,0.525
				c-0.221,1.774-1.027,3.339-1.846,4.904c-1.117,2.121-2.509,4.133-3.715,6.2c-0.586,1.003-0.998,2.013-1.38,3.1
				c-0.174,0.484-0.138,1.04,0.424,1.243c0.382,0.143,2.557-0.263,3.07-0.364c0.639-0.125,1.254-0.269,1.876-0.424
				c-0.186,0.329-0.364,0.669-0.508,0.992c-0.263,0.597-0.902,1.344-0.191,1.894c0.186,0.143,0.466,0.233,0.699,0.161l0.543-0.562
				l0.036,0.131l0.209-0.388l0.943-0.968c0.646-0.764,1.291-1.535,1.93-2.312c0.442-0.131,0.884-0.281,1.338-0.424
				c2.109-0.687,4.199-1.595,6.248-2.455c1.236-0.525,2.485-1.069,3.722-1.612c-1.47,2.682-2.808,5.478-4.074,8.195l-1.039,2.497
				l-0.179,0.442c-0.084,0.418,0.232,0.789,0.603,0.926c0.771,0.274,1.136-0.543,1.548-1.027c0.311-0.365,0.597-0.801,0.907-1.183
				c0.933-1.153,1.816-2.371,2.73-3.536c1.188-1.511,2.407-2.999,3.59-4.51c0.065-0.09,0.131-0.179,0.197-0.263
				c1.152,1.619,2.317,3.231,3.488,4.833c-0.86,1.224-1.702,2.461-2.557,3.686c-2.013,2.879-3.883,5.961-5.567,9.043
				c-0.245,0.442-0.52,0.908-0.74,1.362l-0.437,0.86l-0.119,0.239c-0.132,0.388-0.113,0.776,0.311,1.063
				c0.896,0.609,1.738-0.849,2.204-1.434c1.876-2.336,3.954-4.534,5.967-6.744c1.261-1.386,2.557-2.742,3.871-4.08
				c1.117,1.505,2.24,3.004,3.357,4.504c-0.992,1.26-1.978,2.539-2.928,3.834c-2.521,3.411-4.462,7.067-6.283,10.86
				c-9.038-5.173-18.01-10.471-27.006-15.716c-5.489-3.196-11.003-6.416-16.57-9.54l1.721-0.347
				c-0.144,0.155-0.299,0.329-0.395,0.502c-0.328,0.627,0.395,1.422,1.082,1.141l0.328-0.209l0.746-0.454
				c2.067-1.368,3.937-2.867,5.818-4.486c2.461-2.127,5.186-4.755,7.986-6.768c0.126,0.227,0.245,0.454,0.371,0.675
				c-0.162,0.329-0.317,0.669-0.473,1.004c-0.776,1.678-1.499,3.417-2.12,5.155c-0.287,0.807,0.705,1.434,1.212,0.956
				c0.442-0.418,0.789-0.938,1.184-1.403c0.418-0.496,0.836-1.004,1.242-1.511c0.591-0.735,1.183-1.476,1.78-2.205
				c0.603,0.036,1.23-0.095,1.798-0.412c1.32-0.758,1.911-2.3,1.523-3.709C588.183-41.617,588.697-42.256,589.211-42.896z
				 M301.869-42.597c3.955,4.695,7.801,9.516,11.553,14.39c-0.257,0.167-0.514,0.322-0.783,0.46
				c-3.68-4.994-7.359-9.976-11.033-14.976C301.69-42.687,301.78-42.639,301.869-42.597z M586.898-42.734l-0.071,0.089
				c-0.012-0.018-0.018-0.03-0.03-0.047C586.833-42.71,586.869-42.723,586.898-42.734z M631.705-41.563l-0.197,0.627
				c-0.932,2.623-2.521,5.591-3.99,7.951c-2.67,4.295-5.818,8.255-8.96,12.221c-1.052-1.403-2.103-2.813-3.148-4.223
				c0.18-0.185,0.353-0.37,0.538-0.543c3.53-3.578,7.09-7.114,10.633-10.674c1.397-1.41,2.843-2.861,4.181-4.325L631.705-41.563z
				 M555.993-40.739l-0.257,0.496c-0.473,1.034-0.98,2.294-1.123,3.423c-0.048,0.382-0.216,0.986-0.019,1.326
				c0.126,0.221,0.275,0.329,0.454,0.364l0.538-0.06l-0.233,0.137c-0.448,0.257-0.896,0.502-1.344,0.741
				c-0.693-0.37-1.38-0.735-2.073-1.093c0.149-0.203,0.299-0.388,0.448-0.573c0.759-0.944,1.445-1.959,2.198-2.915L555.993-40.739z
				 M602.143-38.439c0.58,0.842,1.165,1.69,1.756,2.533c-2.568,1.159-5.143,2.335-7.717,3.44c-0.956,0.4-1.882,0.783-2.802,1.153
				c2.455-3.076,4.868-6.17,7.275-9.271C601.151-39.873,601.646-39.156,602.143-38.439z M311.779-38.912
				c4.361,1.308,8.805,2.133,13.279,2.927c2.736,0.49,5.501,0.8,8.273,1.117c-0.143,0.179-0.292,0.353-0.43,0.538
				c-0.162,0.197-0.125,0.508,0.071,0.669c0.203,0.167,0.508,0.132,0.675-0.065c0.269-0.347,0.543-0.675,0.818-1.01
				c0.143,0.018,0.287,0.036,0.43,0.054c6.57,0.771,13.344,1.141,19.963,1.403c-0.125,0.132-0.251,0.263-0.371,0.4
				c-1.547,1.631-3.154,3.327-4.582,5.06c-0.155,0.173-0.137,0.448,0.03,0.603c0.173,0.155,0.454,0.138,0.604-0.036
				c1.368-1.667,2.939-3.327,4.444-4.88c0.335-0.353,0.675-0.699,1.147-1.093c3.321,0.131,6.637,0.292,9.958,0.454l-0.047,2.67
				c-0.108,2.228-0.251,4.492-0.311,6.72c-0.006,0.107-0.012,0.221-0.012,0.334c-0.956,0.992-1.894,1.995-2.813,3.022
				c-0.161,0.173-0.149,0.454,0.024,0.615c0.167,0.162,0.454,0.149,0.609-0.024c0.687-0.771,1.397-1.529,2.126-2.27
				c-0.078,1.672-0.179,3.357-0.245,5.035c-0.197,4.958-0.418,9.964-0.388,14.928c0.018,2.921-0.024,5.83,0.06,8.751
				c0.054,1.804,0.144,3.596,0.227,5.406c0.179,4.175,0.52,8.536,1.129,12.675c0.568,3.966,1.267,7.909,2.24,11.755
				c-0.078,0.12-0.155,0.233-0.227,0.353c-0.018,0.018-0.03,0.036-0.042,0.054c-1.822-2.007-3.602-4.062-5.334-6.141
				c-0.86-1.039-1.72-2.067-2.575-3.112c0.173-0.144,0.353-0.287,0.538-0.418c0.281-0.227,0.329-0.651,0.102-0.938
				c-0.221-0.281-0.645-0.329-0.932-0.102c-0.185,0.137-0.371,0.287-0.556,0.436c-1.911-2.33-3.799-4.683-5.621-7.061
				c-0.657-0.848-1.302-1.696-1.954-2.545c0.526-0.507,1.04-1.003,1.535-1.475c1.732-1.679,3.423-3.345,5.125-5.042
				c0.382-0.388,0.371-1.027-0.023-1.404c-0.389-0.376-1.028-0.364-1.404,0.024c-2.103,2.145-4.229,4.301-6.302,6.493
				c-1.069-1.392-2.138-2.778-3.213-4.151c-1.35-1.727-2.688-3.447-4.02-5.173c1.159-1.135,2.622-1.905,4.05-2.724
				c0.783-0.454,1.619-1.099,2.324-1.679c0.209-0.173,0.412-0.442,0.633-0.639c0.287-0.305,0.269-0.806-0.036-1.099
				c-0.311-0.287-0.812-0.269-1.099,0.036c-0.203,0.185-0.37,0.442-0.573,0.639c-0.478,0.466-1.541,1.29-2.103,1.559
				c-0.538,0.245-1.135,0.675-1.661,0.979c-0.8,0.454-1.673,1.045-2.431,1.75c-1.517-1.983-3.029-3.978-4.54-5.973
				c1.529-1.469,3.052-2.939,4.54-4.438c0.269-0.269,0.269-0.717,0-0.992h-0.992c-1.469,1.421-2.915,2.885-4.349,4.36
				c-2.138-2.843-4.259-5.687-6.385-8.536c1.332-1.272,2.622-2.634,3.984-3.865c0.305-0.299,0.305-0.807,0.006-1.117
				c-0.305-0.305-0.812-0.305-1.117-0.006c-1.272,1.212-2.515,2.527-3.751,3.805c-2.042-2.735-4.091-5.483-6.141-8.225
				c0.084-0.054,0.162-0.107,0.245-0.161c0.167-0.125,0.741-0.46,0.932-0.526l0.376-0.125c0.388-0.125,0.609-0.555,0.484-0.944
				c-0.12-0.388-0.556-0.609-0.944-0.483c-0.436,0.042-1.356,0.717-1.923,1.135c-2.079-2.771-4.164-5.537-6.26-8.279
				c-0.012-0.018-0.024-0.036-0.036-0.047c1.529-1.016,4.462-2.832,6.063-2.885c0.502-0.12,0.8-0.633,0.681-1.135
				c-0.12-0.502-0.627-0.801-1.129-0.687c-0.364,0.119-0.764,0.191-1.123,0.329c-0.711,0.269-1.291,0.615-1.959,0.943
				c-0.776,0.382-1.648,1.087-2.365,1.577c-0.358,0.233-0.699,0.478-1.04,0.717c-2.557-3.321-5.149-6.601-7.759-9.862
				C309.497-39.557,310.644-39.252,311.779-38.912z M366.196-38.009l-0.012,0.322c-0.215-0.006-0.424-0.018-0.645-0.024
				L366.196-38.009z M582.813-37.645l-0.036,0.078l0.054-0.066c0.221,0.424,0.042,0.323-0.126,0.203L582.813-37.645z
				 M548.502-33.016c-0.167,0.245-0.346,0.501-0.514,0.758c-1.392-0.741-2.783-1.475-4.175-2.216l-2.712-1.452l-1.995-1.069
				C542.326-35.847,545.42-34.497,548.502-33.016z M641.752-34.766c0.621,3.931,1.152,7.873,1.762,11.803
				c0.86,5.579,1.596,11.344,2.145,16.964c0.174,1.852,0.358,3.715,0.525,5.585c-0.029,0.012-0.053,0.03-0.077,0.047
				c-1.165-6.499-2.156-13.021-3.022-19.586c-0.508-3.805-0.985-7.616-1.445-11.421c-0.066-1.708-0.12-3.411-0.168-5.119
				C641.566-35.919,641.656-35.345,641.752-34.766z M557.068-34.312l-0.604,1.219c-0.03,0.06-0.06,0.125-0.084,0.191
				c-0.263-0.107-0.633-0.245-1.093-0.406c0.012-0.006,0.023-0.012,0.036-0.012L557.068-34.312z M605.763-33.255l-3.285,4.253
				l0.334-0.71c0.765-1.47,1.577-2.903,2.401-4.319C605.387-33.774,605.571-33.518,605.763-33.255z M383.315-33.769
				c-1.469,2.055-3.01,4.104-4.432,6.194c-0.281,0.395-0.191,0.95,0.209,1.23c0.395,0.287,0.95,0.191,1.231-0.203
				c1.421-2.09,2.962-4.139,4.432-6.194c0.281-0.4,0.191-0.956-0.209-1.236C384.152-34.258,383.596-34.168,383.315-33.769z
				 M605.834-33.338l-0.071,0.083L605.834-33.338z M556.381-32.902c0.795,0.305,0.723,0.334-0.048,0.167
				C556.346-32.789,556.363-32.849,556.381-32.902z M551.925-31.325c1.219,0.609,2.432,1.242,3.638,1.887
				c-0.023,0.341-0.018,0.616,0.048,0.753c0.186,0.43,1.512,0.52,2.323,0.543c3.823,2.115,7.581,4.343,11.314,6.595
				c2.64,1.595,5.274,3.231,7.908,4.892c-1.117-0.597-2.222-1.183-3.321-1.768c-7.849-4.188-15.668-8.417-23.517-12.598
				c0.406-0.167,0.818-0.329,1.225-0.502C551.668-31.457,551.8-31.391,551.925-31.325z M320.673-18.614
				c-0.311,0.251-0.609,0.496-0.914,0.741c-2.121-2.986-4.235-5.938-6.374-8.858c0.275-0.149,0.55-0.292,0.824-0.454
				C316.391-24.336,318.547-21.475,320.673-18.614z M632.875-26.063l-0.065,1.583c-0.681,5.119-3.261,10.131-5.913,14.707
				c-1.643-2.145-3.285-4.295-4.922-6.445c2.21-2.103,4.462-4.151,6.731-6.165L632.875-26.063z M612.154-24.42
				c-1.23,1.272-2.443,2.55-3.644,3.847l-0.927,1.087l1.159-1.84c0.872-1.356,1.792-2.682,2.742-3.996
				C611.7-25.018,611.927-24.719,612.154-24.42z M321.527-17.449c2.097,2.837,4.199,5.681,6.32,8.524
				c-0.209,0.173-0.418,0.353-0.633,0.525c-1.732-2.073-3.44-4.139-5.113-6.182c-0.568-0.794-1.129-1.589-1.69-2.377
				c0.316-0.227,0.645-0.466,0.961-0.693C321.426-17.587,321.474-17.521,321.527-17.449z M618.665-15.699
				c-0.329,0.323-0.657,0.645-0.991,0.968l-5.209,5.466l3.351-4.964c0.651-0.878,1.314-1.744,1.989-2.604
				C618.086-16.458,618.378-16.082,618.665-15.699z M624.722-7.761c0.18,0.245,0.431,0.406,0.699,0.496
				c-0.132,0.239-0.274,0.466-0.406,0.699c-1.284,2.174-2.61,4.331-3.906,6.499c-0.371,0.627-1.075,1.625-0.287,2.228
				c0.747,0.573,1.32-0.125,1.857-0.585c1.189-1.027,2.354-2.15,3.489-3.237c3.326-3.214,6.451-6.601,10.017-9.54l1.822-1.362
				c0.09,1.236,0.179,2.479,0.269,3.727c-0.389,1.488-0.962,2.879-1.529,4.325c-1.087,2.76-2.27,5.329-3.011,8.202
				c-0.478,1.857-0.776,3.835-0.723,5.758c0,0.191-0.006,0.49,0.006,0.794c-5.441-2.712-10.854-5.651-16.157-8.596
				c-2.557-1.422-5.102-2.849-7.641-4.295c0.084-0.107,0.174-0.215,0.257-0.305c0.699-0.771,1.368-1.595,2.043-2.389
				c1.715-2.019,3.597-4.008,5.442-5.914c0.943-0.979,1.905-1.947,2.879-2.903C621.467-12.025,623.109-9.905,624.722-7.761z
				 M372.892-2.265c-0.054,0.179-0.102,0.347-0.143,0.526c-0.12-2.664-0.179-5.328-0.191-8.01c0.818-0.771,1.655-1.542,2.497-2.3
				c0.466-0.43,0.932-0.86,1.392-1.291C375.126-9.708,373.896-5.957,372.892-2.265z M335.194,0.853
				c-0.036,0.036-0.071,0.078-0.107,0.113c-1.368-1.63-2.736-3.267-4.116-4.892c-0.968-1.141-1.935-2.288-2.891-3.435
				c0.197-0.155,0.395-0.316,0.58-0.484C330.834-4.935,333.008-2.038,335.194,0.853z M639.297,4.228
				c-0.084,0.054-0.167,0.113-0.251,0.179c-0.556,0.4-1.326,0.974-1.815,1.451l-2.145,2.168l0.012-0.998
				c0.4-3.464,1.732-6.361,3.184-9.975c0.113-0.293,0.233-0.592,0.353-0.878C638.831-1.136,639.046,1.546,639.297,4.228z
				 M606.7-0.754c-0.138-0.078-0.299-0.161-0.448-0.251c-0.041-0.024-0.083-0.054-0.119-0.078
				C606.33-0.975,606.521-0.861,606.7-0.754z M337.291,3.619c-0.478-0.573-0.956-1.147-1.434-1.72
				c0.024-0.024,0.048-0.048,0.072-0.072C336.383,2.424,336.837,3.021,337.291,3.619z M643.054,8.146
				c0.514,2.551,1.081,5.095,1.679,7.634l-1.129-0.525l-0.077-0.036c-0.108-0.926-0.21-1.852-0.312-2.753
				c-0.28-2.348-0.501-4.695-0.716-7.049C642.684,6.325,642.863,7.232,643.054,8.146z M649.565,5.924v0.012V5.924z M639.9,9.873
				c0.144,1.272,0.28,2.557,0.424,3.835l-5.34-2.515c0.209-0.287,0.4-0.645,0.621-0.89c0.531-0.591,1.039-1.129,1.589-1.696
				c0.675-0.717,1.505-1.404,2.329-2.043C639.644,7.663,639.763,8.768,639.9,9.873z M682.144,29.358
				c0.036,3.656,0.065,7.323,0.102,10.985c-0.215-0.203-0.49-0.347-0.801-0.382c-0.28-0.042-0.562,0.012-0.794,0.125
				c0.418-8.93,0.818-17.854,1.152-26.785c0.036-1.075,0.078-2.144,0.114-3.213C681.994,16.509,682.072,22.931,682.144,29.358z
				 M634.954,11.181l0.03,0.012L634.954,11.181z M636,14.962c1.57,0.777,3.153,1.529,4.742,2.276c0.03,0.239,0.066,0.49,0.096,0.729
				c-0.824-0.46-1.648-0.92-2.473-1.374c-2.855-1.583-5.717-3.154-8.477-4.677C631.854,12.907,633.921,13.946,636,14.962z
				 M373.37,18.486c-0.227,0.221-0.46,0.442-0.699,0.675c0.006-0.155,0.012-0.305,0.018-0.442c0.496-0.078,0.92-0.323,1.189-0.711
				C373.591,18.277,373.478,18.373,373.37,18.486z M645.616,19.46c0.114,0.46,0.222,0.92,0.341,1.38
				c-0.604-0.334-1.194-0.669-1.792-1.01c-0.06-0.358-0.119-0.723-0.173-1.081C644.529,18.994,645.073,19.245,645.616,19.46z
				 M370.348,42.726c0.042,0.048,0.089,0.089,0.137,0.137c0.376,1.093,0.794,2.168,1.243,3.226
				c-2.813-3.548-5.543-7.18-8.429-10.662c-0.597-0.717-1.188-1.439-1.768-2.15C364.404,36.466,367.343,39.62,370.348,42.726z
				 M374.744,40.934c0.926,1.446,1.935,2.79,3.034,4.05c-0.299,0.334-0.591,0.675-0.884,1.021c-0.281-0.275-0.562-0.543-0.836-0.818
				c-0.753-1.726-1.386-3.494-1.959-5.316C374.308,40.247,374.523,40.588,374.744,40.934z M686.659,43.909
				c-0.334,0.358-0.537,0.836-0.537,1.362c-0.024,3.829,1.392,8.906-1.702,11.792c-0.084-0.926-0.197-1.828-0.317-2.604
				c-0.071-0.4-0.144-0.794-0.221-1.201c-0.006-1.559-0.006-3.118-0.006-4.677c0.949-1.965,1.846-3.966,2.813-5.967
				C686.678,43.049,686.665,43.479,686.659,43.909z M387.975,53.191c-1.099,1.129-2.126,2.348-3.058,3.721
				c-0.072-0.042-0.144-0.089-0.215-0.125c-0.472-0.298-0.926-0.705-1.398-0.998c-0.604-0.382-1.267-0.985-1.858-1.565
				c-0.734-0.854-1.451-1.917-2.049-2.807c-0.024-0.036-0.048-0.072-0.083-0.12c0.472,0.436,0.938,0.86,1.41,1.29
				c0.448,0.406,1.147,0.371,1.553-0.078c0.406-0.448,0.37-1.141-0.078-1.553c-1.517-1.368-3.011-2.748-4.48-4.158
				c0.287-0.311,0.573-0.627,0.866-0.926C381.327,48.807,384.504,51.208,387.975,53.191z M391.29,54.93
				c2.599,2.21,5.74,3.799,8.966,5.101c0.06,0.102,0.144,0.185,0.251,0.257c0.173,0.114,0.395,0.131,0.585,0.072
				c0.67,0.257,1.339,0.502,2.002,0.747c1.559,0.556,3.142,0.986,4.725,1.428c1.732,0.484,3.452,0.836,5.215,1.201
				c0.675,0.144,1.392,0.329,2.084,0.448c0,0.042,0.013,0.09,0.024,0.131c-1.702-0.191-3.405-0.382-5.096-0.597
				c-5.507-0.687-10.8-1.571-16.164-3.004c-1.696-0.454-3.339-1.099-4.981-1.732c-0.968-0.37-2.061-0.938-3.059-1.511
				c0.884-1.428,1.983-2.586,3.16-3.704C389.755,54.171,390.52,54.559,391.29,54.93z M681.839,57.814
				c0.03,0.317,0.048,0.633,0.065,0.95c-0.418,0.233-0.854,0.466-1.332,0.717c-0.604,0.292-0.932,0.938-0.859,1.565
				c-0.132-0.066-0.27-0.131-0.406-0.179c0.148-0.316,0.292-0.645,0.441-1.01c0.598-1.487,0.437-3.028,0.406-4.593l0.389-0.604
				c0.209-0.322,0.412-0.657,0.615-0.985C681.433,55.067,681.689,56.477,681.839,57.814z M421.055,64.941
				c-1.152-0.12-2.718-0.281-4.276-0.442c0.03-0.024,0.054-0.048,0.084-0.066C418.385,64.63,419.92,64.804,421.055,64.941z
				 M674.629,65.204c-0.197,0.03-0.604,0.108-0.782,0.096c-0.102-0.012-0.203-0.012-0.299-0.012
				c0.669-0.221,1.314-0.472,1.918-0.764C675.364,64.887,675.148,65.12,674.629,65.204z"/>
		</g>
	</g>
</g>
</svg>
