<?xml version="1.0" encoding="utf-8"?>
<!-- Generator: Adobe Illustrator 16.0.0, SVG Export Plug-In . SVG Version: 6.00 Build 0)  -->
<!DOCTYPE svg PUBLIC "-//W3C//DTD SVG 1.1//EN" "http://www.w3.org/Graphics/SVG/1.1/DTD/svg11.dtd">
<svg version="1.1" id="Layer_1" xmlns="http://www.w3.org/2000/svg" xmlns:xlink="http://www.w3.org/1999/xlink" x="0px" y="0px"
	 width="420.44px" height="435.654px" viewBox="270.206 7.972 420.44 435.654"
	 enable-background="new 270.206 7.972 420.44 435.654" xml:space="preserve">
<g transform="scale(1 -1)">
	<g transform="translate(0 -75)">
		<g>
			<path marker-start="none" marker-end="none" d="M284.965-365.742c0.006,1.184,0.036,2.371,0.071,3.565
				c-0.52,0.023-1.045,0.054-1.565,0.084c-0.974,0.042-1.756,0.795-1.887,1.727c-0.998-0.036-2.085-0.006-3.046,0.107
				c-0.591,0.071-1.326,0.036-1.828,0.376c-0.651,0.437-1.021,1.493-1.254,2.217c-0.765,2.389-0.024,4.641,1.069,6.737
				c0.239,3.034,0.472,6.068,0.651,9.108c0.239,4.062,0.382,8.137,0.591,12.204c0.036,0.704,0.078,1.415,0.125,2.126
				c-0.364,3.649-0.788,7.287-1.051,10.949c-0.018,0.167-0.03,0.341-0.036,0.508c-0.054-3.865-0.292-7.724-0.55-11.576
				c-0.567-8.41-1.499-16.784-2.443-25.153c-0.024-0.238-0.251-0.418-0.49-0.395c-0.239,0.023-0.418,0.251-0.395,0.489
				c0.598,5.299,1.201,10.585,1.667,15.896c0.806,9.287,1.362,18.659,1.69,27.973c-0.639,9.337-1.189,18.631-1.559,27.984
				c-0.125,3.112-0.287,6.226-0.371,9.337c-0.221,8.172-0.567,16.354-0.651,24.525c-0.09,8.729-0.293,17.455-0.299,26.188
				c-0.006,3.214-0.006,6.428,0,9.635c-0.215,2.055-0.4,4.115-0.538,6.171c-0.251,3.608-0.334,7.222-0.466,10.835
				c-0.269,7.21-0.514,14.408-0.741,21.618c-0.615,19.503-1.01,39.023-1.26,58.539c-0.084,6.642-0.09,13.285-0.149,19.927
				c-0.024,2.419,0.036,4.856-0.024,7.27c-0.048,1.84,0,3.632,0.036,5.466c0.012,0.603-0.03,1.212-0.012,1.816
				s-0.018,1.219-0.006,1.822c0.006,0.347-0.006,0.597,0,0.86l0.012,0.173c0.036,0.274,0.131,0.525,0.4,0.89l0.185,0.125
				c0.776,0.567,2.067,0.197,2.21-0.782l0.048-0.532l0.024,0.179l0.006-0.944l0.084-6.332c0.012-1.207,0.012-2.425,0.006-3.638
				c0.406,1.649,0.872,3.273,1.41,4.862c1.105,4.462,3.094,8.638,5.675,12.484c-0.395,0.323-0.789,0.639-1.177,0.968
				c-0.173,0.137-0.197,0.4-0.06,0.573c0.138,0.173,0.4,0.197,0.574,0.06c0.37-0.317,0.747-0.622,1.123-0.926
				c0.603,0.866,1.236,1.714,1.899,2.55c0.424,0.58,0.848,1.159,1.272,1.75c0.047,0.071,0.102,0.143,0.155,0.209
				c0.012,0.472,0.203,0.938,0.579,1.272c0.585,0.514,1.171,1.034,1.744,1.559c0.747,0.908,1.667,1.834,2.497,2.658
				c0.305,0.299,0.609,0.604,0.92,0.896c0.036,0.066,0.072,0.125,0.113,0.191c6.027,10.107,12.634,19.664,19.414,29.245
				c-0.842,0.06-1.738-0.024-2.712-0.298c-0.299-0.072-0.604,0.113-0.675,0.412c-0.072,0.298,0.113,0.603,0.412,0.675
				c0.83,0.215,1.923,0.484,2.777,0.388c0.334-0.042,0.639-0.078,0.944-0.119c0.394,0.555,0.789,1.111,1.188,1.672
				c1.93,2.724,3.907,5.448,5.902,8.147c-0.012,0.012-0.024,0.024-0.03,0.036c-0.185,0.155-0.538,0.382-0.663,0.525
				c-0.233,0.191-0.269,0.538-0.078,0.771c0.191,0.233,0.538,0.269,0.771,0.078c0-0.018,0.287-0.25,0.651-0.531
				c1.476,1.989,2.957,3.96,4.45,5.914c0.663,0.872,1.332,1.75,2.001,2.628c-0.018,0.012-0.036,0.024-0.048,0.036
				c-0.305,0.191-0.4,0.597-0.209,0.902c0.191,0.305,0.598,0.4,0.902,0.209c0.048-0.036,0.102-0.072,0.149-0.107
				c2.031,2.67,4.062,5.34,6.075,8.022c0.311,0.418,0.633,0.831,0.956,1.243c-0.065,0.066-0.125,0.125-0.185,0.191
				c-0.215,0.215-0.215,0.585,0,0.8h0.8c0.03-0.036,0.06-0.066,0.09-0.096c0.985,1.236,1.989,2.455,2.975,3.691
				c2.252,2.82,4.546,5.639,6.839,8.428c1.159,1.41,2.324,2.826,3.482,4.241c-0.579,0.729-1.135,1.494-1.547,2.27
				c-0.233,0.37-0.12,0.866,0.251,1.099c0.37,0.233,0.866,0.12,1.099-0.251c0.346-0.615,0.765-1.242,1.23-1.857
				c2.306,2.825,4.599,5.656,6.875,8.494c-0.054,0.048-0.107,0.09-0.161,0.138c-0.287,0.227-0.334,0.657-0.107,0.944
				c0.227,0.287,0.657,0.334,0.944,0.107c0.054-0.048,0.107-0.096,0.167-0.138c3.022,3.77,6.105,7.509,9.08,11.32
				c4.336,5.549,8.823,11.11,12.891,16.856c0.812,1.105,2.383,1.338,3.488,0.526c0.484-0.358,0.8-0.866,0.938-1.416
				c0.794,0.687,1.625,1.326,2.515,1.959c0.382,0.269,0.794,0.591,1.212,0.794c1.35,0.669,2.551,1.267,3.979,1.768
				c4.104,1.446,7.699,1.738,12.012,1.69l3.835-0.352l0.007,0.143c0.483,3.596,4.874,3.715,7.646,3.489
				c0.585-0.036,1.027-0.55,0.991-1.135c-0.035-0.585-0.549-1.027-1.135-0.992c-1.654,0.149-3.279,0.191-4.671-0.651
				c-0.508-0.311-0.567-0.86-0.562-1.41c5.64,0.765,11.309,1.284,16.971,1.941c1.972,0.227,3.955,0.43,5.932,0.627
				c0.962,0.096,2.001,0.173,2.951,0.323c0.579,0.06,1.111-0.365,1.171-0.944c0.06-0.58-0.364-1.111-0.944-1.171
				c-3.226-0.418-6.479-0.663-9.712-1.045c-2.33-0.275-4.672-0.507-7.007-0.747c0.818-0.693,1.631-1.38,2.449-2.061
				c1.981,0.281,3.937,0.538,5.858,0.782c0.599,0.072,1.2,0.144,1.805,0.209c2.886,0.526,5.801,0.986,8.732,1.398
				c-0.395,0.364-0.608,0.908-0.524,1.481c0.131,0.914,0.984,1.553,1.898,1.421c4.796-0.794,9.635-1.153,14.479-1.595
				c0.556-0.054,1.109-0.102,1.666-0.149c1.476,0,2.951-0.03,4.379-0.036c2.843-0.042,5.687-0.03,8.518,0.269
				c6.959,0.43,13.841,1.021,20.781,1.762c0.729,0.072,1.403-0.274,1.786-0.842c7.049,0.532,14.091,1.165,21.146,1.75
				c8.018,0.657,16.122,1.278,24.162,1.541c2.712,0.089,5.425,0.102,8.137,0.155c2.693,0.054,5.43,0,8.124-0.096
				c4.449-0.161,8.899-0.305,13.344-0.52c10.412-0.508,20.848-0.896,31.265-1.332c12.245-0.514,24.503-0.956,36.754-1.278
				c0.061-0.006,0.126-0.006,0.175-0.006c2.238,0.048,4.462,0.089,6.684,0.131c3.041,0.054,6.135,0.155,9.175,0.137
				c2.021-0.012,4.086,0.018,6.105,0.072c1.833,0.048,3.763-0.089,5.579,0.054c0.752,0,1.45-0.292,1.981-0.765
				c2.88,0.024,5.765,0.06,8.649,0.083c1.319,0.006,2.448-0.932,2.699-2.187c1.853-0.758,3.44-1.87,4.318-3.5
				c0.484-0.896,0.968-1.971,1.04-3.004c0.077-1.087,0.138-1.912,0.042-3.076l0.453-0.675c0.162-0.263,0.329-0.52,0.484-0.782
				c0.315,1.643,0.592,3.291,0.729,4.952c-0.406,0.233-0.83,0.454-1.308,0.699c-0.776,0.389-1.101,1.344-0.711,2.121
				c0.357,0.723,1.225,1.051,1.965,0.776c-0.036,0.311-0.071,0.621-0.097,0.932c-0.07,0.562,0.251,1.093,0.747,1.308
				c0.023,1.768,0.048,3.537,0.077,5.304c0,0.365,0.306,0.669,0.669,0.669c0.365,0,0.67-0.305,0.67-0.669
				c-0.013-1.881,0.019-3.757,0.029-5.633c0.161-0.185,0.269-0.412,0.305-0.669c0.061-0.89,0.197-1.762,0.27-2.664
				c0.566-0.329,1.117-0.693,1.643-1.135c0.802-0.687,1.519-1.38,2.098-2.276c1.493-2.324,1.731-4.934,1.769-7.598
				c0.639-0.394,1.075-1.093,1.099-1.894c0.078-1.021,0.03-2.246,0.042-3.291c0.036-2.844,0.084-5.711,0.133-8.566
				c0.131-8.154,0.076-16.319,0.231-24.467c0.048-2.61,0.03-5.245,0.042-7.855c0.024-5.478,0.054-10.955,0.061-16.433
				c0.006-5.036,0.012-10.071,0.019-15.106c0.006-2.772,0.054-5.567,0-8.333c-0.061-3.237,0.035-6.493-0.03-9.73
				c-0.281-13.565-0.37-27.173-0.508-40.756c-0.131-13.064-0.071-26.151-0.012-39.215c0.064-13.738,0.112-27.465,0.227-41.204
				c0.287-34.628,0.526-69.273,0.377-103.9c-0.019-4.552-0.096-9.104-0.126-13.655c-0.022-3.841-0.036-7.698-0.167-11.533
				c-0.273-7.976-0.615-15.961-0.836-23.931c-0.174-6.312-0.473-12.675-0.771-18.981c-0.03-0.586-0.062-1.171-0.091-1.757
				c1.165,0.138,2.329,0.274,3.5,0.418c-0.334-0.479-2.412-1.226-3.052-1.487c-0.174-0.071-0.341-0.143-0.508-0.215
				c-0.036-0.699-0.061-1.403-0.072-2.097c-0.012-0.228-0.064-0.437-0.167-0.628c0.03-0.614,0.055-1.241,0.084-1.862
				c0-0.371-0.09-0.717-0.257-1.017c0.019-0.854,0.029-1.703,0.041-2.551c1.082-0.52,1.84-1.637,1.84-2.915
				c-0.131-1.422-0.591-2.384-1.887-3.208c-0.239-1.242-1.111-2.312-2.468-2.544c-0.938-0.162-1.857-0.019-2.801,0.019
				c-0.688,0.022-1.375,0.035-2.062,0.06c-12.358,0.376-24.789,0.531-37.154,0.562c-4.819,0.013-9.635,0.055-14.455,0.078
				c-9.761,0.041-19.521-0.065-29.28-0.12c-13.918-0.076-27.83-0.411-41.741-0.536c-11.368-0.103-22.747-0.39-34.114-0.58
				c-22.656-0.389-45.319-0.83-67.981-1.146c-12.12-0.167-24.253-0.418-36.371-0.482c-14.283-0.072-28.565,0.112-42.841,0.118
				c-1.833,0-3.667,0-5.501,0.019c-3.22-0.228-6.439-0.424-9.659-0.585c-18.535-0.944-36.879-0.699-55.337,0.997
				c-1.189,0.106-2.461,0.209-3.638,0.395c-1.374,0.215-2.766,0.55-4.128,0.824c-0.37,0.071-0.734,0.144-1.105,0.221
				c-1.792-0.125-3.584-0.048-5.382,0.036c-0.036-1.165-0.072-2.323-0.107-3.471c-0.048-1.535-1.344-2.747-2.879-2.699
				C286.129-368.574,284.917-367.277,284.965-365.742z M387.79-359.345c1.117,0.112,2.234,0.227,3.351,0.347
				c2.951,0.304,5.896,0.633,8.834,0.967c-4.725,0.03-9.456,0.066-14.181,0.103c-6.564,0.048-13.129,0-19.694,0.048
				c-16.737,0.12-33.487,0.174-50.224,0.148c-5.382-0.006-10.764-0.102-16.146-0.144c-2.336-0.019-4.666-0.023-6.995-0.023
				c-0.012-0.232-0.143-0.441-0.418-0.496c8.53-0.472,17.072-0.691,25.62-0.89c4.761-0.113,9.521-0.119,14.276-0.215
				c6.332-0.126,12.688-0.09,19.025-0.096C363.413-359.607,375.61-359.536,387.79-359.345z M446.334-358.365
				c-0.322,0.006-0.65,0.006-0.974,0.013c-5.698,0.048-11.392,0.09-17.055,0.132c-1.643-0.181-3.255-0.342-4.832-0.515
				C431.072-358.61,438.706-358.491,446.334-358.365z M285.27-355.128c-0.878,0-1.721,0.478-2.145,1.309
				c-0.293,0.364-0.58,1.309-0.8,1.769c-0.395,0.817-0.705,1.882-0.866,2.957c-0.018-0.042-0.042-0.09-0.066-0.132
				c-0.675-1.2-1.493-2.426-2.091-3.649c-0.245-0.508-0.412-0.979-0.627-1.493c-0.149-0.364-0.167-0.878-0.215-1.267
				c-0.054-0.389,0.047-0.759,0.185-1.117l0.197-0.46l0.347-0.113c0.43-0.125,0.866-0.231,1.267-0.311
				c1.762-0.358,3.202-0.55,4.725-0.567C285.216-357.183,285.246-356.155,285.27-355.128z M673.584-355.534
				c0.149,0.233,0.286,0.479,0.43,0.717c0.824,1.352,2.385,1.931,3.871,2.085c0.161,1.439,0.316,2.88,0.466,4.331
				c-0.186-0.054-0.376-0.107-0.562-0.154c-2.108-0.586-4.337-0.92-6.487-1.314c-3.542-0.651-7.156-1.213-10.728-1.702
				c-8.137-1.117-16.277-2.043-24.433-2.784c10.097,0.239,20.196,0.503,30.31,0.824c0.992,0.024,1.828-0.765,1.853-1.756
				c0-0.167-0.019-0.328-0.054-0.478c1.72-0.03,3.452-0.061,5.185-0.097C673.471-355.749,673.518-355.642,673.584-355.534z
				 M302.096-355.128c24.126,0.215,48.235,0.681,72.367,0.609c17.794-0.055,35.589-0.125,53.402-0.222
				c1.762,0.186,3.536,0.348,5.298,0.489c7.998,0.651,15.896,1.04,23.923,1.261c7.885,0.215,15.771,0.113,23.654,0.048
				c7.149-0.06,14.295-0.286,21.438-0.478c20.967-0.562,41.957-1.47,62.937-1.04c7.515,0.096,15.034,0.347,22.549,0.598
				c6.35,0.209,12.724,0.46,19.067,0.836c12.985,0.766,25.982,1.529,38.916,2.987c5.996,0.675,11.945,1.367,17.914,2.264
				c4.526,0.682,9.014,1.535,13.528,2.246c0.515,0.077,1.033,0.155,1.554,0.232c0.013,0.18,0.029,0.357,0.049,0.544
				c0.566,6.636,0.872,13.309,1.26,19.957c0.221,3.87,0.441,7.747,0.657,11.624c-0.071,14.658-0.139,29.323-0.203,43.98
				c-0.132,10.106-0.222,20.208-0.27,30.304c-0.048,8.899-0.154,17.801-0.238,26.7c-0.174,18.208-0.294,36.419-0.4,54.626
				c-0.257,42.853-0.454,85.711-0.43,128.564c0.006,8.583,0.07,17.167,0.161,25.751c-0.061,13.273-0.113,26.551-0.174,39.83
				c-0.042-0.012-0.09-0.024-0.138-0.024c-0.782-0.102-1.512,0.46-1.613,1.243c-0.627,2.813,0.062,6.439,0.67,9.366
				c-0.335,0.507-0.698,1.027-1.074,1.559l-0.962,1.146c-0.354-0.095-0.67-0.107-0.992-0.054c-1.296,0.215-2.174,1.452-1.959,2.748
				l0.102,0.353l-0.482,0.43c-2.809,2.126-6.021,3.632-9.402,4.576c-6.164-0.048-12.358,0.06-18.493,0.149
				c-1.619,0.018-3.244,0.048-4.893,0.078c-3.912-0.06-7.86-0.131-11.797-0.185c5.674-0.532,11.354-1.189,16.964-2.097
				c2.622-0.424,5.37-0.848,7.95-1.452c2.055-0.478,4.134-0.974,6.188-1.428c0.448-0.096,0.735-0.549,0.64-0.998
				c-0.096-0.448-0.55-0.735-0.998-0.639c-2.795,0.538-5.578,1.141-8.397,1.547c-3.201,0.46-6.385,0.974-9.599,1.368
				c-12.767,1.577-25.562,2.616-38.422,3.268c-3.571-0.036-7.144-0.107-10.716-0.186c-3.751-0.083-7.521-0.203-11.271-0.232
				c-9.737-0.078-19.497-0.186-29.233-0.323c-12.258-0.167-24.545-0.353-36.809-0.209c-5.25,0.06-10.507,0.054-15.765,0.107
				c-4.062,0.042-8.165,0.203-12.227,0.37c-4.021,0.162-8.028,0.323-12.013,0.508c-2.742-0.113-5.454-0.197-8.166-0.239
				c-4.778-0.078-9.545,0.137-14.317,0.102c-4.521-0.03-9.02-0.323-13.523-0.663c-3.5-0.263-6.94-0.538-10.43-0.908
				c-2.664-0.28-5.357-0.734-8.005-1.177c-1.177-0.197-2.413-0.394-3.571-0.645c-3.632-0.794-7.187-1.63-10.697-2.729
				c0.865-0.86,1.756-1.697,2.615-2.539c0.286-0.281,0.292-0.753,0.013-1.04c-0.281-0.287-0.753-0.293-1.039-0.012
				c-0.843,0.759-1.613,1.643-2.438,2.431c-0.232,0.215-0.46,0.436-0.681,0.657c-0.699-0.233-1.392-0.484-2.079-0.741
				c-1.852-0.699-3.912-1.469-5.662-2.396c-0.878-0.466-1.733-0.938-2.599-1.409c0.023-0.018,0.047-0.036,0.077-0.054
				c1.989-1.439,4.062-2.837,5.998-4.342c0.753-0.585,1.48-1.219,2.239-1.798c0.329-0.274,0.376-0.776,0.103-1.105
				c-0.274-0.329-0.776-0.376-1.104-0.102c-1.947,1.696-3.919,3.23-5.968,4.809c-0.854,0.651-1.696,1.296-2.521,1.941
				c-3.286-1.905-6.768-4.94-8.829-8.112c1.601-1.421,3.297-2.795,4.964-4.116c1.792-1.428,3.566-2.885,5.37-4.301
				c1.069-0.842,2.181-1.648,3.243-2.497c0.938-0.747,2.003-1.571,2.987-2.24c0.37-0.275,0.448-0.818,0.173-1.188
				c-0.273-0.371-0.817-0.448-1.188-0.173c-1.47,0.998-2.897,2.186-4.325,3.255c-3.93,2.945-7.544,6.051-11.2,9.325
				c-0.43,0.376-0.854,0.764-1.278,1.159c-0.215,0.012-0.43,0.083-0.615,0.215c-0.299,0.203-0.478,0.514-0.52,0.848
				c-0.37,0.347-0.729,0.699-1.087,1.051c-0.765-0.902-1.476-1.857-2.126-2.867c-0.448-0.693-0.86-1.397-1.249-2.114
				c0.8-0.591,1.595-1.177,2.395-1.756c0.305-0.227,0.371-0.675,0.144-0.979c-0.227-0.304-0.675-0.371-0.979-0.144
				c-0.735,0.532-1.47,1.069-2.204,1.613c-0.508-1.069-0.962-2.162-1.35-3.273c-0.125-0.346-0.233-0.693-0.334-1.039
				c0.956-1.034,1.935-2.037,2.891-2.969c2.574-2.521,5.34-5.095,8.177-7.312c0.92-0.717,1.798-1.5,2.748-2.174
				c0.579-0.412,1.17-0.89,1.732-1.326c1.494-1.165,3.244-2.335,4.856-3.327c0.364-0.233,0.472-0.734,0.239-1.099
				c-0.233-0.364-0.734-0.472-1.099-0.239c-5.292,3.279-10.239,7.437-14.725,11.737c-1.75,1.679-3.53,3.411-5.221,5.221
				c-0.125-0.489-0.245-0.985-0.364-1.481c-0.131-0.532-0.203-1.099-0.311-1.637c-0.353-1.786-0.681-3.871-0.765-5.734
				c1.027-0.854,2.043-1.727,3.041-2.64c3.53-3.238,6.702-6.899,10.167-10.227c0.34-0.34,0.34-0.902,0-1.242h-1.243
				c-1.183,1.105-2.371,2.347-3.476,3.536c-2.222,2.383-4.564,4.809-6.929,7.078c0.185-0.358,0.269-0.782,0.221-1.212
				c-0.4-2.586-0.723-5.179-0.98-7.783c1.613-1.619,3.231-3.238,4.862-4.838c2.79-2.748,5.525-5.555,8.417-8.196
				c3.375-3.088,7.024-6.421,10.788-9.038c0.454-0.358,0.537-1.027,0.179-1.481s-1.027-0.538-1.481-0.179
				c-2.706,2.228-5.255,4.438-7.818,6.852c-4.833,4.552-9.408,9.498-14.001,14.288c-0.316,0.329-0.639,0.657-0.956,0.986
				c0.34-2.27,0.776-4.521,1.302-6.708c1.356-5.734,3.017-11.146,4.981-16.594c4.797-4.516,9.946-8.96,15.31-12.681
				c1.226-0.854,2.467-1.625,3.729-2.431c0.514-0.334,0.662-1.033,0.327-1.547c-0.334-0.514-1.032-0.663-1.547-0.328
				c-1.517,0.908-3.082,2.073-4.498,3.136c-2.658,1.995-5.424,4.182-7.867,6.427c-1.356,1.243-2.712,2.467-4.068,3.698
				c0.096-0.251,0.191-0.502,0.293-0.747c0.782-2.019,1.601-4.056,2.491-6.027c0.203-0.484-0.018-1.051-0.501-1.254
				c-0.484-0.203-1.052,0.018-1.255,0.502c-1.577,3.369-2.986,7.042-4.307,10.531c-0.818,0.765-1.637,1.535-2.443,2.318
				c-0.962,0.92-1.906,1.864-2.837,2.825c0.006-1.421,0.03-2.837,0.065-4.253c0.072-3.035,0-6.087,0.06-9.127
				c0.012-0.824,0.036-1.648,0.054-2.473c0.311-0.257,0.621-0.514,0.938-0.765c0.699-0.574,1.362-1.189,2.061-1.756
				c5.065-4.104,10.095-8.136,15.37-11.97c1.661-1.207,3.291-2.473,4.976-3.65c0.37-0.275,0.447-0.807,0.173-1.177
				c-0.273-0.37-0.807-0.448-1.177-0.173c-1.165,0.807-2.348,1.768-3.471,2.646c-2.192,1.702-4.396,3.405-6.601,5.095
				c-2.61,2.001-5.179,4.068-7.729,6.146c-1.416,1.153-2.849,2.306-4.205,3.524c-0.096,0.078-0.185,0.161-0.281,0.245
				c0.072-2.216,0.167-4.432,0.311-6.648c0.382,0.096,0.807-0.018,1.081-0.334c0.514-0.663,1.183-1.278,1.667-1.941
				c0.991-1.356,2.025-2.664,3.004-4.044c2.073-2.921,4.665-6.559,7.67-8.583c0.579-0.46,0.675-1.32,0.215-1.899
				s-1.32-0.675-1.899-0.215c-0.968,0.705-1.786,1.595-2.61,2.455c-2.061,2.145-3.704,4.791-5.4,7.228
				c-0.902,1.296-1.774,2.616-2.766,3.841c-0.251,0.298-0.508,0.591-0.771,0.884c0.102-1.248,0.221-2.491,0.358-3.727
				c0.065-0.729-0.478-1.38-1.207-1.446c-0.729-0.065-1.38,0.478-1.446,1.207c-0.012,0.084-0.024,0.167-0.03,0.239
				c-0.191-0.824-0.807-1.518-1.589-1.834c2.628-2.055,5.328-4.056,8.076-6.045c3.184-2.312,6.326-4.671,9.504-6.989
				c3.243-2.366,6.332-4.982,9.438-7.521c0.514-0.448,0.566-1.243,0.118-1.756c-0.447-0.513-1.242-0.567-1.755-0.119
				c-0.98,0.872-1.936,1.798-2.921,2.658c-2.473,2.15-4.976,4.265-7.52,6.332c-5.633,4.57-11.451,8.924-17.03,13.553
				c-0.627,0.311-1.177,0.812-1.798,1.177c-0.233,0.132-0.395,0.287-0.669,0.353c-0.711,0.173-1.589,0.687-2.276,1.01
				c-0.323,0.155-0.735,0.263-1.075,0.406c-0.269,0.107-0.532,0.203-0.807,0.298c2.414-2.867,5.018-5.472,7.598-8.231
				c1.302-1.392,2.664-2.813,3.847-4.301c1.291-1.625,2.36-3.136,3.471-4.856c0.424-0.735,0.179-1.685-0.556-2.108
				c-0.734-0.424-1.684-0.18-2.108,0.555c-0.968,1.75-1.929,3.387-3.124,5.012c-2.425,3.297-5.287,6.26-7.957,9.354
				c-1.452,1.685-2.819,3.345-4.217,5.078c-0.078,0.089-0.131,0.191-0.167,0.292c-0.526,0.107-1.051,0.209-1.565,0.323
				c-1.153,0.251-2.539,0.358-3.722,0.442c-0.472,0.036-0.992,0.024-1.458,0.083c-0.567,0.072-1.207,0.096-1.857,0.09
				c4.146-5.812,9.336-10.859,14.623-15.662c1.69-1.535,3.285-3.196,4.934-4.779c0.669-0.657,0.675-1.738,0.018-2.407
				c-0.657-0.669-1.738-0.675-2.407-0.018c-2.7,2.556-5.346,5.292-7.807,8.076c-1.159,1.308-2.323,2.623-3.488,3.924
				c-0.926,1.04-1.78,2.163-2.688,3.22c-0.747,0.866-1.428,1.828-2.126,2.736c-1.212,1.571-2.359,3.19-3.441,4.844
				c-0.227-0.006-0.448-0.018-0.657-0.018c-2.031-0.054-4.146-0.227-6.266-0.502c2.15-2.396,4.378-4.719,6.726-6.935
				c2.204-2.084,4.414-4.146,6.696-6.146c1.834-1.607,3.716-3.13,5.579-4.701c4.259-3.59,8.847-6.977,13.321-10.286
				c5.573-4.122,11.123-8.279,16.684-12.418c0.543-0.4,0.657-1.171,0.257-1.714s-1.171-0.657-1.714-0.257
				c-4.611,3.369-9.265,6.822-13.774,10.322c-5.478,4.247-10.74,8.757-15.985,13.273c-3.662,3.148-7.353,6.553-10.74,9.987
				c-2.831,2.867-5.597,5.729-8.255,8.709c-0.311-0.048-0.615-0.096-0.92-0.144c3.471-5.137,8.1-9.922,12.556-14.085
				c1.69-1.583,3.369-3.208,5.095-4.749c0.573-0.573,0.579-1.511,0.006-2.084c-0.574-0.574-1.511-0.58-2.085-0.006
				c-4.085,4.343-8.434,8.697-12.167,13.345c-1.923,2.383-3.667,4.731-5.352,7.246c-1.631-0.299-3.226-0.645-4.749-1.016
				c-0.998-0.245-1.989-0.543-2.986-0.776c-0.131-0.03-0.257-0.066-0.389-0.096c1.542-1.81,3.13-3.584,4.695-5.358
				c3.512-4.002,7.162-7.903,11.224-11.355c1.434-1.219,2.897-2.461,4.462-3.5c0.525-0.4,0.621-1.165,0.221-1.69
				c-0.4-0.525-1.165-0.621-1.69-0.221c-1.272,0.914-2.473,2.097-3.625,3.148c-2.294,2.09-4.402,4.414-6.469,6.726
				c-2.198,2.461-4.301,5.018-6.421,7.55c-1.225,1.458-2.485,2.891-3.709,4.349c-1.864-0.531-3.781-1.218-5.52-1.857
				c-0.191-0.072-0.376-0.138-2.031-0.818c0.323,0.233,0.752,0.155,0.979-0.155c2.569-3.835,6.207-7.031,9.623-10.101
				c1.756-1.577,3.537-3.208,5.322-4.743c2.145-1.84,4.02-3.96,5.902-6.057c0.543-0.609,1.225-1.547,1.672-2.234
				c0.245-0.382,0.52-0.878,0.8-1.219c0.358-0.579,0.18-1.356-0.4-1.714c-0.58-0.358-1.356-0.179-1.714,0.4
				c-0.334,0.52-0.615,1.093-0.95,1.601c-0.305,0.46-0.639,0.902-0.938,1.368c-0.52,0.806-1.397,1.846-2.049,2.562
				c-2.449,2.688-4.91,5.143-7.568,7.652c-3.679,3.477-8.136,7.365-10.895,11.624c-0.227,0.317-0.167,0.765,0.161,0.992
				c-1.069-0.323-2.419-0.842-3.673-1.416c0.991-1.087,1.947-2.181,2.897-3.345c4.265-5.257,7.771-10.173,13.392-13.99
				c0.615-0.418,0.782-1.266,0.364-1.881s-1.266-0.783-1.881-0.364c-3.435,1.959-6.511,5.949-8.882,9.055
				c-1.326,1.738-2.628,3.506-3.937,5.263c-0.514,0.687-1.081,1.476-1.643,2.126c-0.58,0.675-1.141,1.386-1.75,2.031
				c-0.095,0.096-0.185,0.191-0.281,0.287c-0.752-0.347-1.511-0.675-2.246-1.034c-0.956-0.466-1.923-0.961-2.897-1.481
				c7.258-9.749,17.675-17.161,27.095-24.58c2.108-1.661,4.277-3.458,6.242-5.287c1.583-1.475,3.064-3.01,4.611-4.516
				c0.34-0.347,0.334-0.914-0.012-1.254c-0.347-0.34-0.914-0.334-1.254,0.012c-0.771,0.747-1.488,1.553-2.252,2.306
				c-0.699,0.687-1.452,1.368-2.168,2.043c-3.865,3.626-8.124,7.007-12.233,10.352c-7.688,6.248-15.172,12.365-20.949,20.423
				c-3.787-2.103-7.586-4.605-10.949-7.317c0.054-0.042,0.102-0.083,0.155-0.12c0.765-0.639,1.541-1.272,2.306-1.912
				c2.664-2.222,5.167-4.725,7.693-7.096c2.742-2.581,5.501-5.203,8.202-7.825c1.732-1.678,3.578-3.219,5.37-4.826
				c3.59-3.208,7.442-6.183,11.737-8.375c0.49-0.263,0.675-0.89,0.412-1.38c-0.263-0.49-0.89-0.675-1.38-0.412
				c-1.702,0.932-3.572,1.894-5.119,3.07c-0.693,0.525-1.445,1.003-2.126,1.541c-1.685,1.332-3.488,2.73-5.042,4.199
				c-3.363,3.184-6.517,6.475-9.784,9.76c-1.368,1.374-2.688,2.802-4.074,4.151c-2.079,2.019-4.092,4.014-6.242,5.961
				c-0.979,0.878-2.001,1.697-3.028,2.503c-0.609-0.514-1.207-1.033-1.774-1.553c-1.63-1.493-3.435-3.184-4.964-4.94
				c0.203-0.49,0.149-1.069-0.185-1.523c-0.866-1.236-1.428-2.521-1.881-3.871c0.358-0.257,0.723-0.514,1.087-0.765
				c2.843-2.007,5.818-3.841,8.697-5.794c1.045-0.71,2.108-1.392,3.148-2.103c1.129-0.771,2.222-1.625,3.363-2.365
				c2.073-1.35,4.05-3.172,5.956-4.755c0.776-0.645,1.541-1.416,2.348-2.007c0.334-0.305,0.364-0.836,0.06-1.171
				c-0.304-0.335-0.836-0.364-1.171-0.06c-7.132,6.941-15.668,12.305-23.762,18.171c-0.215-0.723-0.418-1.47-0.621-2.229
				c-0.938-3.452-1.559-7.251-2.049-10.8c-0.03-0.203-0.06-0.406-0.084-0.609c1.583-1.565,3.31-2.903,5.197-3.746l-0.292-0.287
				c-1.828,0.848-3.477,2.126-4.964,3.59c-0.221-1.619-0.424-3.244-0.615-4.869h0.543c2.33-2.347,4.665-4.713,7.037-7.019
				c0.173-0.173,0.173-0.472,0-0.645h-0.645c-2.366,2.293-4.695,4.653-7.013,6.989c-1.147-9.987-1.81-20.118-2.156-30.112
				c-0.186-5.173-0.508-10.34-0.711-15.513c-0.281-6.977-0.567-13.948-0.783-20.924c0.508-3.292,1.045-6.583,1.487-9.874
				c1.051-7.885,2.001-15.883,2.503-23.822c0.633-10.035,0.866-20.088,1.057-30.135c0.12-6.423,0.162-12.855,0.132-19.288
				c0.472-4.486,0.938-8.974,1.386-13.458c1.308-13.195,2.61-26.456,3.47-39.688c0.466-7.174,0.872-14.323,1.278-21.498
				c0.454-8.016,0.538-16.086,0.681-24.114c0.072-4.188,0.03-8.397-0.06-12.608C294.6-355.271,298.339-355.164,302.096-355.128z
				 M680.859-352.87l0.412,0.024l-0.174,0.549c-0.035,0.138-0.071,0.281-0.096,0.413c-0.03-0.323-0.064-0.651-0.102-0.986H680.859z
				 M575.801-344.459c-10.07,4.443-20.105,8.918-30.021,13.702c-6.236,3.011-12.335,6.278-18.403,9.604
				c-4.923,2.688-9.653,5.682-14.366,8.709c-3.523-0.227-7.049-0.321-10.543-0.232c-2.455,0.061-5.036,0.287-7.467,0.622
				c-0.991,0.137-2.754,0.353-3.53,0.907c-1.141,0.823-1.146,1.798-1.354,3.047c-0.114,0.669-0.216,1.35-0.312,2.03
				c-0.27,0.167-0.448,0.467-0.448,0.807c0,0.95,0,1.905,0,2.86c-0.668,6.159-0.962,12.239-1.152,18.446
				c-0.364,11.611,0.357,23.421,0.896,35.021c0.145,3.207,0.3,6.415,0.447,9.616c-0.125,1.313-0.25,2.628-0.388,3.931
				c-0.149,1.403-0.306,2.86-0.515,4.253c-0.096,0.64-0.251,1.464-0.273,2.097c-1.96,14.665-2.163,29.33-2.294,44.107
				c-0.072,8.279,0.06,16.576,0.189,24.849c0.062,4.062,0.133,8.136,0.217,12.191c-0.014,0.329-0.024,0.646-0.03,0.962
				c-0.442,13.094-0.358,26.008,0.395,39.072c0.18,3.112,0.376,6.284,0.657,9.42c0.006,0.472,0.018,0.95,0.029,1.421l0.006,1.302
				v0.239c0.054,0.376,0.191,0.711,0.508,0.902c0.347,0.603,1.027,0.985,1.763,0.926c0.013-0.006,0.023-0.006,0.035-0.024
				c0.187,0.203,0.442,0.305,0.711,0.305c0,0.221,0,0.436,0,0.651c-0.807,0.018-1.601,0.048-2.396,0.083l-0.663,0.036l-1.421,0.006
				l-0.299,0.083l-1.535,0.138c-0.705,0.078-1.219,0.723-1.142,1.428s0.724,1.218,1.428,1.141c0.628-0.131,1.297-0.125,1.966-0.185
				c1.152-0.102,2.348-0.131,3.53-0.173c0.022,0.114,0.118,0.215,0.244,0.233c0.09,0.006,0.186,0.018,0.286,0.03
				c0,0.191,0,0.376,0,0.568c0,0.328,0.271,0.597,0.599,0.597c0.327,0,0.598-0.269,0.598-0.597c0-0.138,0-0.269-0.007-0.4
				c0.49,0.072,0.974,0.137,1.452,0.179c2.12,0.173,4.217,0.376,6.35,0.478c3.446,0.161,6.881,0.161,10.315,0.083l4.044-0.078
				c0.162,0.484,0.604,0.771,1.075,0.717c3.452-0.496,6.821-0.735,10.299-0.998c0.424-0.036,0.858-0.066,1.283-0.096
				c1.66,0.048,3.31,0.078,4.965,0.102c5.925,0.072,11.875,0.024,17.788-0.346c0.692-0.042,1.386-0.078,2.078-0.138
				c0.64-0.054,1.297-0.024,1.924-0.155c0.168-0.036,0.395-0.197,0.495-0.334c0.627-0.872,0.216-1.571-0.604-1.959
				c-0.92-0.436-3.046-0.597-4.88-0.675c0.257-0.155,0.43-0.436,0.436-0.752c0.014-0.872,0.03-1.738,0.042-2.604
				c0.203-0.03,0.396-0.114,0.557-0.251c0.311-0.281,0.489-1.254,0.572-1.685c0.663-3.47,0.837-7.466,0.878-11.027
				c0.062-5.376,0.133-10.728,0.078-16.11c-0.126-12.442-0.508-24.951-0.926-37.387c-0.149,8.452,0.245-14.443,0.639-37.351
				c0.377-5.155,0.854-10.37,1.368-15.477c0.376-3.763,0.682-7.55,1.017-11.313c0.675-7.64,1.38-15.286,1.965-22.932
				c0.329-4.349,0.502-8.709,0.698-13.063c0.3-1.589,0.64-3.25,1.063-4.797c0.238-1.057-0.09-2.113-0.789-2.843
				c0.06-2.414,0.107-4.827,0.126-7.234c0.042-5.501,0.065-11.092-0.18-16.616c0.608-1.847,0.843-3.842,0.759-5.795
				c-0.006-0.029-0.006-0.055-0.006-0.083c0.077,0.006,0.155,0.012,0.239,0.018c0.823,0.203,1.672-0.299,1.875-1.123
				c0.202-0.824-0.3-1.672-1.123-1.875c-0.125-0.066-0.258-0.126-0.383-0.18c7.908-5.228,15.938-10.347,24.014-15.256
				c4.462-2.719,9.008-5.306,13.512-7.944c1.666-0.979,3.393-1.857,5.071-2.819c5.035-2.886,10.382-5.572,15.591-8.13
				c6.379-3.13,12.788-6.164,19.3-9.024c0.412-0.181,0.597-0.663,0.418-1.075c-0.18-0.412-0.663-0.599-1.075-0.419
				c-11.726,4.994-23.087,10.962-34.119,17.316c-14.767,8.5-28.978,17.771-43.17,27.154c-0.154-0.065-0.311-0.131-0.466-0.19
				c-0.09-0.447-0.215-0.801-0.37-0.968c-0.244-0.257-0.521-0.335-0.824-0.412c-0.019-0.196-0.041-0.395-0.061-0.592
				c-0.251-2.181-0.537-4.378-0.771-6.559c-0.029-0.27-0.28-0.46-0.551-0.432c-0.269,0.03-0.459,0.281-0.43,0.551
				c0.245,2.271,0.562,4.521,0.782,6.798c0,0.042,0.007,0.09,0.013,0.132c-0.598-0.287-1.577-0.354-2.551-0.358
				c-0.663-0.239-1.326-0.473-1.989-0.688c0.096-1.081,0.197-2.156,0.322-3.201c0.054-0.646-0.418-1.225-1.063-1.278
				c-0.645-0.054-1.225,0.418-1.276,1.062c-0.108,0.908-0.187,1.815-0.251,2.729c-1.597-0.437-3.19-0.741-4.803-1.094
				c-3.09-0.669-6.226-1.229-9.337-1.779c-6.345-1.116-12.837-2.03-19.336-2.484c2.646-1.708,5.305-3.388,8.021-4.987
				c4.546-2.683,9.235-5.191,13.924-7.604c7.449-3.836,15.071-7.275,22.675-10.788c5.866-2.712,11.811-5.28,17.724-7.892
				c4.994-2.204,9.97-4.468,14.97-6.66c0.215-0.096,0.315-0.353,0.221-0.566s-0.353-0.316-0.566-0.221
				C585.775-348.916,580.8-346.664,575.801-344.459z M278.956-346.664c0.58,1.136,0.836,1.979,1.165,3.137
				c-0.203,1.158-0.388,2.323-0.615,3.5c-0.215,1.087-0.37,2.21-0.514,3.311c-0.239-2.229-0.472-4.476-0.71-6.714
				c-0.197-1.806-0.395-3.608-0.574-5.418C278.131-348.145,278.585-347.393,278.956-346.664z M285.281-339.597
				c-0.012,4.253-0.185,8.554-0.34,12.801c-0.144,3.93-0.293,7.843-0.508,11.767c-0.131,2.366-0.221,4.737-0.364,7.104
				c-0.395,6.457-0.842,12.921-1.35,19.384c-0.442-7.335-1.01-14.671-1.529-22c0.281-3.996,0.675-7.992,1.016-11.982
				c0.239-2.782,0.502-5.765,0.914-8.518c0.687-4.605,1.117-9.312,2.186-13.858C285.293-343.134,285.281-341.365,285.281-339.597z
				 M652.684-337.106c-1.052,0.521-2.145,1.047-3.166,1.613c-1.685,0.938-3.429,1.792-5.102,2.747
				c-4.337,2.479-8.596,4.978-12.837,7.622c-8.805,5.49-17.269,11.654-25.554,17.927c-0.699,0.019-1.393,0.035-2.079,0.065
				c-1.638,0.06-3.273,0.137-4.909,0.231c-0.657-0.022-1.314-0.041-1.966-0.054c-3.781-0.096-7.67-0.286-11.438-0.585
				c-0.837-0.064-1.667-0.126-2.503-0.19c-0.544-0.042-1.177-0.167-1.709-0.085c-0.263,0.043-0.603,0.155-0.836,0.281
				c-0.43,0.233-0.807,0.609-1.039,1.039c-0.203,0.358-0.347,1.153-0.46,2.021l-2.754-0.036c-0.842-0.042-1.69-0.149-2.533-0.191
				c-0.398-0.018-0.788-0.096-1.188-0.029c-0.264,0.041-0.508,0.203-0.682,0.4c-0.293,0.328-0.357,0.859-0.466,1.277
				c-0.399,1.56-0.615,3.314-0.776,4.923c-0.238,2.401-0.425,4.755-0.55,7.162c-0.299,5.812-0.383,11.678-0.357,17.501
				c0.022,6.78,0.138,13.542,0.263,20.32c0.065,3.489,0.263,7.031,0.274,10.515c0.013,3.136,0.28,6.319,0.27,9.449
				c-0.006,1.177,0.054,2.413,0.107,3.591c0.054,1.111,0.006,2.252,0.077,3.355c0.186,6.409,0.222,12.854,0.335,19.271l0.353,20.249
				l-0.03,1.529c-0.125,11.248-0.042,22.496,0.39,33.731l0.614,11.355l0.859,34.854c0.042,1.511,0.09,3.022,0.138,4.534
				c-0.096,4.038-0.179,8.076-0.251,12.12c-0.137,7.568-0.376,15.172-0.357,22.747c0.023,10.513-0.023,21.02,0.072,31.539
				c0.028,3.393-0.03,6.81,0.06,10.197c0.048,1.69,0.191,3.393,0.263,5.083c0.097,2.396,0.222,4.791,0.335,7.18
				c-0.64,4.122-1.207,8.267-1.249,12.424c-0.012,0.818-0.118,2.575,0.438,3.172c0.029,0.03,0.06,0.06,0.096,0.09
				c-0.138-0.012-0.27-0.024-0.399-0.036c-1.249-0.131-2.497-0.311-3.745-0.436c-0.191-0.018-0.371,0.125-0.39,0.317
				c-0.018,0.191,0.125,0.37,0.316,0.388c2.539,0.25,5.029,0.549,7.58,0.741c3.8,0.287,7.729,0.257,11.541,0.197
				c1.965-0.036,3.937-0.108,5.907-0.228c7.335,0.341,14.677,0.765,22.012,0.98c2.938,0.078,5.872,0.131,8.805,0.191
				c-0.042,0.329-0.084,0.651-0.119,0.979c-0.161,1.237,0.718,2.378,1.953,2.539c1.236,0.161,2.377-0.717,2.539-1.953
				c0.054-0.526,0.119-1.046,0.19-1.565l1.428-0.024l-0.341,0.006c0.102,0.191,0.27,0.346,0.467,0.43L630.6,6.08l-0.251,3.763
				c-0.012,0.215,0.155,0.406,0.37,0.418c0.216,0.012,0.406-0.155,0.419-0.37l0.244-3.536c0.203-0.09,0.364-0.251,0.466-0.442
				l1.661-0.03c0.354-0.024,0.705-0.006,1.045-0.102c0.753-0.215,1.111-1.171,0.818-1.87c-0.28-0.663-2.557-2.556-3.237-3.016
				l-0.179-0.149c0-0.753,0-1.511,0-2.3c0.149-2.121,0.292-4.277,0.489-6.416c0.562-6.266,0.974-12.598,1.444-18.875
				c0.448-6.015,0.95-12.024,1.38-18.04c0.007-0.036,0.007-0.072,0.014-0.102c0.729-8.697,1.563-17.382,2.228-26.08
				c1.075-14.133,1.983-28.272,2.677-42.429c0.669-13.661,1.183-27.375,1.458-41.055c0.118-5.956,0.144-11.917,0.269-17.866
				c0.102-4.701,0.078-9.479,0.036-14.187c-0.061-6.218-0.042-12.442-0.187-18.655c-0.185-7.986-0.46-15.968-0.759-23.953
				c-0.185-4.922-0.388-9.838-0.597-14.754c0.824-1.087,1.702-2.091,2.724-3.022c2.825-2.604,6.184-4.475,9.491-6.402
				c1.477-0.86,2.928-1.758,4.373-2.664c1.732-1.088,3.333-2.42,4.85-3.781c0.306-0.275,0.323-0.759,0.049-1.063
				s-0.759-0.321-1.062-0.048c-0.454,0.358-0.933,0.969-1.392,1.272c-0.39,0.257-0.777,0.65-1.153,0.942
				c-0.878,0.683-1.911,1.398-2.861,1.973c-4.934,2.975-11.134,6.021-15.105,10.555c-0.348-8.226-0.688-16.444-0.95-24.67
				c4.642-2.091,9.211-4.324,13.769-6.678c7.174-3.704,13.996-8.06,21.038-11.995c0.615-0.358,0.824-1.152,0.466-1.769
				c-0.356-0.614-1.151-0.823-1.768-0.466c-6.899,4.021-13.709,8.201-20.662,12.138c-1.911,1.081-3.787,2.233-5.698,3.315
				c-2.336,1.313-4.742,2.622-7.191,3.87c-0.065-2.258-0.131-4.51-0.18-6.762c-0.102-4.176-0.148-8.356-0.16-12.532
				c3.571-1.923,7.186-3.774,10.87-5.513c-2.64,1.057-5.327,2.358-7.873,3.638c-1.009,0.501-2.007,1.015-2.997,1.541
				c-0.007-1.696,0-3.395,0.012-5.09c0.364-0.215,0.723-0.431,1.087-0.646c0.567-0.09,1.075-0.399,1.428-0.854
				c4.211-2.51,8.417-5.048,12.622-7.574c5.465-3.291,10.974-6.499,16.427-9.802c2.854-1.728,5.62-3.65,8.435-5.448
				c-1.045,0.138-2.12,0.776-3.094,1.188c-2.014,0.854-4.009,1.841-5.949,2.839c-4.086,2.103-8.022,4.479-11.959,6.846
				c-3.458,2.078-6.911,4.163-10.357,6.266c-1.953,1.184-3.889,2.391-5.817,3.603c-0.264-0.698-0.872-1.254-1.648-1.397
				c-0.376-0.096-0.753-0.186-1.129-0.281c0.012-0.633,0.018-1.266,0.029-1.898c0.023-1.553-1.219-2.843-2.771-2.867
				c-0.292-0.006-0.579,0.03-0.842,0.107c-0.191-0.041-0.364-0.083-0.502-0.102c-3.578-0.608-6.846-0.962-10.501-1.01
				c-3.823-0.054-7.67,0.238-11.451,0.896l-0.395,0.078l-3.519,0.006c-0.305,0-0.604,0-0.902,0c3.202-2.4,6.409-4.797,9.72-7.055
				c2.658-1.821,5.292-3.648,7.975-5.436c1.648-1.094,3.339-2.121,4.987-3.214c2.438-1.612,5.096-3.131,7.628-4.601
				c7.479-4.33,15.238-8.393,23.123-11.946c0.43-0.202,0.621-0.729,0.418-1.158c-0.203-0.431-0.729-0.621-1.158-0.418
				C658.125-339.752,655.407-338.45,652.684-337.106z M380.55-313.213c-0.394,1.493-0.699,3.118-0.908,4.713
				c-0.938-0.442-1.875-0.849-2.885-1.165c-6.045-1.899-13.063-1.57-19.288-1.016c-5.609,0.502-11.165,1.284-16.779,1.506
				c-0.478-0.019-0.95-0.072-1.398-0.149c-0.382-0.07-0.747-0.227-1.129-0.305c-0.711-0.145-1.392-0.239-2.097-0.4
				c-0.346-0.076-0.782-0.144-1.135-0.096c-1.505,0.197-2.24,0.878-2.61,1.87c-0.789,0.022-1.583,0.042-2.372,0.054
				c-0.71,0.006-1.212,0.483-1.236,1.194c-0.012,0.46,0.083,1.146,0.131,1.619c0.125,1.271,0.155,2.593,0.233,3.877
				c0.131,2.19,0.149,4.401,0.281,6.594c0.078,1.249,0.03,2.533,0.114,3.775c0.125,1.834,0.113,3.744,0.161,5.591
				c0,0.09,0,0.186,0.006,0.281c-0.346,7.196-0.334,14.461-0.275,21.6c0.042,6.141,0.209,12.293,0.418,18.451
				c0.048,9.317,0.137,18.643,0.239,27.961c0.138,13.578,0.155,27.167,0.167,40.75c-0.102,0.639-0.209,1.267-0.323,1.9
				c-0.054,0.316,0.078,0.627,0.329,0.824c0,1.822,0,3.638,0.006,5.459c0,0.072,0.012,0.144,0.036,0.209
				c-0.191,1.672-0.413,3.351-0.633,5.018c-0.018,0.155,0.096,0.305,0.251,0.323c0.155,0.018,0.305-0.096,0.322-0.251
				c0.018-0.173,0.042-0.347,0.066-0.514c0.257,0.675,0.878,0.621,1.517,0.651c0.042,0.066,0.09,0.131,0.149,0.203
				c0.508,0.639,1.846,0.866,2.634,1.093c0.735,0.209,1.768,0.514,2.67,0.687c-0.125,0.161-0.191,0.364-0.161,0.58
				c0.054,0.4,0.436,0.687,0.836,0.633c1.72-0.287,3.596-0.466,5.34-0.591c1.141-0.089,2.288-0.197,3.441-0.257
				c2.413-0.107,4.88-0.263,7.395-0.454c0.394-0.018,0.836-0.042,1.278-0.054c3.393-0.137,6.779-0.245,10.178-0.334
				c0.92-0.03,1.84-0.048,2.76-0.065c2.771,0.161,5.627,0.257,8.398,0.292c0.323,0,0.986,0.048,1.613,0.036l0.52-0.036l0.365-0.024
				c0.102-0.018,0.203-0.042,0.287-0.065c-0.042,0.418-0.083,0.836-0.114,1.254c-1.917,0.203-3.853,0.328-5.758,0.472
				c-3.303,0.239-6.678,0.323-9.993,0.292c-10.227-0.102-20.118-0.663-30.231,1.189c-0.131,0.018-0.227,0.149-0.209,0.281
				c0.018,0.131,0.149,0.227,0.281,0.209c2.449-0.448,5.035-0.842,7.521-0.974c1.947-0.107,3.853-0.173,5.806-0.197
				c3.184-0.036,6.463,0.125,9.641,0.305c5.681,0.323,11.391,0.627,17.078,0.496c4.289-0.096,9.05-0.729,13.237-1.649
				c0.896-0.197,1.815-0.436,2.7-0.675c0.424-0.114,1.033-0.227,1.416-0.406c0.496-0.227,0.496-1.003,0.042-1.291
				c-0.227-0.143-0.406-0.131-0.645-0.185c-2.61-0.567-5.573-0.562-8.261-0.705c0.042-0.012,0.089-0.024,0.144-0.042
				c0.585-0.239,0.872-0.92,0.633-1.505c-0.442-0.974-0.717-2.365-0.824-3.435c-0.065-0.669-0.191-1.356-0.269-2.031
				c-0.138-1.195-0.239-2.414-0.323-3.572c-0.042-1.816-0.042-3.59,0.012-5.376c0.114,0.609,0.221,1.219,0.329,1.822
				c0.317,1.936,0.831,3.847,1.213,5.764c0.37,1.876,0.95,4.134,2.073,5.687c0.095,0.125,0.287,0.149,0.412,0.054
				c0.125-0.096,0.149-0.287,0.054-0.412c-0.604-0.669-1.069-2.18-1.254-3.053c-0.514-2.443-0.872-4.749-1.045-7.246
				c-0.155-2.216-0.185-4.48-0.376-6.684c-0.06-0.675-0.119-1.344-0.179-2.019c0.55-0.006,1.003-0.46,1.003-1.009
				c-0.047-0.699-0.012-1.571,0.006-2.282c0.06-2.091,0.065-4.223,0.078-6.314c0.042-5.896,0.257-11.803,0.353-17.706
				c0.185-11.625,0.424-23.235,0.567-34.859c0.167-2.354,0.334-4.713,0.508-7.062c0.257-3.529,0.418-7.065,0.669-10.591
				c0.054-1.033-0.382-1.978-1.105-2.609c-0.012-0.58-0.018-1.159-0.03-1.738c-0.06-2.712-0.065-5.43-0.119-8.143
				c-0.078-4.24-0.197-8.523-0.49-12.746c-0.215-3.064-0.376-6.142-0.873-9.17c-0.143-0.879-0.298-2.162-0.567-3.237
				c0.024-2.448-0.024-4.935,0.167-7.329c0.083-1.111-0.036-2.312,0.036-3.423C382.855-314.342,380.986-314.873,380.55-313.213z
				 M405.793-309.964c-0.137,0.437-0.251,0.891-0.346,1.362c-0.557,0.148-1.111,0.315-1.673,0.483
				c-0.963,0.28-1.29,1.415-0.676,2.187c0.395,0.496,1.021,0.496,1.596,0.572c0.112,0.014,0.227,0.024,0.341,0.036
				c-0.12,1.805-0.09,3.687-0.02,5.466c-0.125,0.077-0.257,0.161-0.376,0.245c-0.753,0.406-1.032,1.355-0.627,2.108
				c0.244,0.454,0.692,0.74,1.178,0.801c0,0.061,0.006,0.119,0.012,0.186l0.238,3.941l-0.019,2.844
				c-0.018,1.397-0.036,2.802-0.071,4.199c-0.09,3.417-0.054,6.839-0.132,10.256c-0.077,3.394-0.125,6.827-0.131,10.222
				c0,2.599-0.072,5.202-0.108,7.801c-0.028,2.246-0.028,4.51-0.089,6.756c-0.006,0.065-0.006,0.138-0.013,0.197
				c-0.148-1.2-0.292-2.401-0.412-3.62c-0.352-3.482-0.382-7.036-0.543-10.537c-0.12-2.538-0.281-5.095-0.377-7.628
				c-0.054-1.415-0.37-2.849-0.478-4.253c-0.019-0.173-0.191-0.299-0.364-0.28s-0.299,0.191-0.281,0.364
				c0.174,1.248,0.406,2.497,0.526,3.751c0.399,4.312,0.579,8.644,0.697,12.969c0.108,4.115,0.306,8.966,1.201,13.284
				c0,0.753-0.012,1.499-0.029,2.252c-0.149,5.006-0.125,10.041-0.203,15.053c-0.412,25.984-0.682,51.992-0.985,77.977
				c-0.065,5.382-0.113,10.764-0.167,16.116c-0.174,6.511-0.311,12.986-0.424,19.467c-0.281,15.405-0.538,30.805-0.753,46.21
				c-0.019,1.212,0.955,2.228,2.174,2.252c0.013,0.119,0.019,0.251,0.03,0.376c0.036,0.538-0.024,1.727,0.19,2.157
				c0.399,0.8,1.463,1.672,2.187,2.15c0.006,0.006,0.019,0.012,0.023,0.018c-0.006,0.102,0,0.209,0.013,0.323
				c0.112,1.093,1.11,1.888,2.204,1.774c0.913-0.107,1.821-0.197,2.729-0.274c3.77,0.729,8.148,0.603,11.248,0.406
				c2.706-0.18,5.406-0.442,8.13-0.753c0.782,0.024,1.595,0.048,2.407,0.078c3.005,0.107,5.997,0.179,9.002,0.221
				c3.13,0.048,6.218,0.089,9.336-0.179c2.479-0.215,5.221-0.562,7.688-1.123c-0.131,0.699-0.263,1.404-0.394,2.114
				c-1.47-0.023-2.934-0.047-4.391-0.071c-9.205-0.167-18.487-0.209-27.688,0.036c-6.409,0.167-12.854,0.4-19.233,1.045
				c-0.495,0.036-0.872,0.484-0.837,0.979c0.036,0.496,0.483,0.872,0.979,0.836c3.465-0.353,6.989-0.604,10.514-0.771l2.557-0.102
				l4.289,0.036c11.057,0.179,22.102,0.831,33.17,0.735c-0.035,0.125-0.071,0.239-0.103,0.358c-0.119,0.394-0.292,0.83-0.37,1.225
				c-0.132,0.43,0.113,0.89,0.544,1.021c0.431,0.131,0.891-0.114,1.021-0.544c0.209-0.687,0.406-1.38,0.591-2.079
				c3.865-0.054,7.7-0.185,11.559-0.49c1.111-0.089,2.271-0.173,3.375-0.316c0.335-0.048,0.776-0.036,1.236-0.12l0.155-0.036
				c0.144-0.042,0.269-0.102,0.376-0.186c0.395-0.334,0.203-1.159-0.298-1.225l-0.365-0.036c-0.388-0.024-0.752-0.012-1.135-0.036
				c-0.842-0.054-1.69-0.144-2.538-0.144c-3.896-0.012-7.802-0.042-11.702-0.096c0.191-0.866,0.376-1.732,0.55-2.604
				c0.348-0.096,0.698-0.191,1.051-0.293c-0.006,0.424-0.012,0.842-0.018,1.267c-0.006,0.633,0.508,1.159,1.141,1.165
				c0.635,0.006,1.159-0.508,1.165-1.141c0.007-0.514,0.013-1.028,0.019-1.547c0.316-0.102,0.58-0.34,0.724-0.645
				c0.543-0.167,1.093-0.34,1.648-0.514c0.938-0.227,1.517-1.177,1.29-2.115c-0.228-0.938-1.178-1.517-2.114-1.29
				c-0.233,0.03-0.46,0.072-0.699,0.113c0-0.394,0-0.782,0.006-1.17c0.007-0.753-0.048-1.512,0.013-2.264
				c0.06-0.752,0.006-1.505,0.013-2.258c0.012-1.75,0.018-2.771,0.012-4.522c-0.012-3.518,0-7.03,0-10.543
				c0.788-6.714,1.302-13.512,1.625-20.291c0.376-3.381,0.746-6.78,1.081-10.179c0.312-3.184,0.74-6.427,0.943-9.611
				c0.329-5.047,0.524-10.148,0.711-15.202c0.227-6.254,0.514-12.508,0.711-18.768c0.842-27.042,1.225-54.036,0.92-81.077
				c-0.09-7.969-0.341-15.967-0.693-23.93c-0.363-8.117-0.806-16.646-2.191-24.658c-0.055-0.305-0.144-0.585-0.274-0.848
				c0.084-3.429,0.181-6.863,0.354-10.273c0.627-0.023,1.248-0.055,1.876-0.084c1.637-0.09,3.375-0.286,4.992-0.312
				c1.619-0.113,2.839-1.522,2.725-3.142c-0.113-1.619-1.522-2.838-3.143-2.725c-0.62,0.012-1.277,0.09-1.898,0.145
				c-1.105,0.083-2.234,0.137-3.352,0.185c-0.461-0.299-1.219-0.299-1.757-0.347c-0.144-0.019-0.279-0.029-0.411-0.035
				c-0.322-0.316-0.788-0.424-1.136-0.538c-1.744-0.573-4.443-0.501-6.26-0.447c-1.434,0.041-2.88,0.161-4.343,0.334
				c-3.877-0.006-7.741,0.133-11.648,0.4c-2.061,0.138-4.108,0.341-6.141,0.765c-0.065-0.006-0.131,0-0.197,0.006
				c-5.063,0.28-10.166,0.693-15.268,0.949l-1.393,0.036l-5-1.248c-1.971-0.377-3.96-0.592-6.122-0.544
				c-0.891,0.02-1.737,0.113-2.567,0.257c0.006-0.154,0.006-0.305,0.018-0.454C407.968-310.854,406.151-311.152,405.793-309.964z
				 M374.111-307.825c-0.747,0.048-1.685,0.113-2.407,0.072c-1.034-0.062-2.252,0.006-3.31,0.012
				c-2.18,0.012-4.384-0.06-6.564-0.119c-2.103-0.061-4.229-0.12-6.362-0.21c1.458-0.154,2.921-0.298,4.385-0.418
				C364.093-308.853,369.469-308.978,374.111-307.825z M529.973-304.462c-1.099,0-2.191,0-3.272,0.006
				c-4.671,0.024-9.384-0.042-14.049-0.322c-4.086-0.245-8.185-0.556-12.223-1.249c-0.914-0.154-1.804-0.34-2.7-0.537
				c3.938-0.447,7.964-0.437,11.911-0.215C516.557-306.403,523.211-305.549,529.973-304.462z M331.939-305.812
				c-0.382,0.383-0.514,1.582-0.597,2.371c-0.012-0.202-0.03-0.405-0.042-0.608l-0.144-1.847l0.789-0.035
				C331.945-305.89,331.945-305.854,331.939-305.812z M415.661-304.862l3.865-0.125c-0.329,0.083-0.651,0.161-0.98,0.244
				c-1.959,0.072-3.918,0.149-5.865,0.233c-1.267,0.048-2.551,0.054-3.835,0.084c0.019-0.203,0.036-0.412,0.055-0.615
				C411.163-304.88,413.409-304.845,415.661-304.862z M495.752-304.642l1.225,0.316c2.312,0.591,5.06,0.979,7.42,1.23
				c4.97,0.524,10.047,0.884,15.069,0.817c-0.19,0.019-0.382,0.041-0.566,0.065c-7.259,0.866-14.923,1.583-22.203,0.556
				c-0.28-0.042-0.562-0.084-0.836-0.132L495.752-304.642z M411.157-302.551c-0.808,0.305-1.666,0.628-2.532,0.974
				c0.023-0.388,0.054-0.775,0.083-1.158c0.305,0,0.609-0.006,0.914-0.023c0.741-0.054,1.499-0.054,2.252-0.065
				C411.635-302.735,411.396-302.646,411.157-302.551z M466.273-302.783l0.006,0.042h-0.013L466.273-302.783z M466.268-302.741
				l-0.19,7.383c-0.119,0.18-0.187,0.389-0.187,0.615c-0.006,0.186-0.006,0.376-0.012,0.567c-0.131,0-0.269,0.012-0.4,0.042
				c-1.605,0.257-2.698,1.778-2.441,3.387c0.639,3.769,1.109,7.789,1.338,11.6c0.179,3.006,0.466,5.992,0.585,9.003
				c0.065,1.751,0.161,3.507,0.245,5.257c-0.084,2.442-0.167,4.886-0.221,7.322c-0.145,6.01-0.676,12.049-1.021,18.053
				c-1.271,15.481-1.104,31.251-0.693,46.771c0.209,8.088,0.509,16.176,0.812,24.293c-0.167,11.373-0.328,22.782-0.483,33.911
				c-0.148,4.91-0.251,9.54-0.274,14.163v4.737c-0.048,3.471-0.103,6.947-0.149,10.537c-0.102,3.255-0.215,6.636-0.34,10.023
				c-0.341,8.876-0.992,17.932-2.139,26.683c-0.139,0.669-0.257,1.285-0.383,1.9c-1.56,0.167-3.111,0.358-4.678,0.448
				c-3.439,0.179-6.898,0.49-10.34,0.627c-3.435,0.137-6.923,0.221-10.363,0.227c-2.928,0.006-5.865,0.018-8.793,0.084
				c-5.801,0.125-11.708,0.167-17.46,1.003c-0.441,0.042-0.837,0.233-1.142,0.514c-0.196-0.114-0.388-0.227-0.573-0.353
				c0.181-0.221,0.293-0.501,0.293-0.8c0.036-11.128,0.071-22.257,0.113-33.331c0.274-8.811,0.621-17.568,1.062-26.307
				c0.525-10.471,1.242-20.931,1.792-31.396c0.688-13.052,1.548-26.08,2.546-39.113c0.353-4.57,0.729-9.133,1.141-13.697
				c0.203-2.281,0.382-4.601,0.633-6.869c0.174-3.459,0.526-6.888,0.58-10.356c0.173-10.782-0.222-21.47-0.406-32.245
				c-0.126-7.317-0.168-14.951,0.573-22.232c0.424-4.146,0.824-8.046,1.774-12.12c0.257-1.099,0.488-2.239,0.83-3.313
				c0.418-1.577-0.526-3.202-2.104-3.62s-3.202,0.524-3.62,2.103c-2.532,9.092-3.369,18.41-3.523,27.842
				c-0.071,4.521-0.091,9.025,0.029,13.548c0.113,4.224,0.19,8.445,0.286,12.663c0.132,5.824,0.245,11.647,0.09,17.473
				c-0.09,3.272-0.353,6.511-0.556,9.725c-0.251,2.688-0.495,5.382-0.729,8.022c0.077-20.405,0.155-40.857,0.239-61.316
				c0.107-0.036,0.197-0.09,0.286-0.161c0.442-0.389,0.383-1.737,0.396-2.342c0.048-2.682-0.103-5.639-0.335-8.303
				c-0.113-1.213-0.209-2.433-0.292-3.649c0.012-2.198,0.018-4.396,0.028-6.595c0-0.233-0.064-0.454-0.179-0.64l0.006-0.328
				l0.312-4.868c0.042-0.627,0.084-1.249,0.125-1.864c1.177-0.52,2.42-0.961,3.529-1.278c4.141-1.193,8.662-1.981,12.976-2.168
				c2.734-0.112,5.472-0.203,8.194-0.43c6.721-0.556,13.667-0.64,20.411-0.657c2.442-0.006,4.922,0.013,7.358-0.06
				C462.636-302.688,464.451-302.706,466.268-302.741z M353.616-302.21c4.624,0.239,9.324,0.448,13.954,0.448
				c1.523,0,3.064,0.028,4.582-0.024c1.171-0.042,2.443-0.119,3.608-0.106c1.075,0.006,2.18-0.209,3.244-0.354
				c-0.161,1.834-0.221,3.716-0.353,5.531c-0.221,3.005-0.287,6.039-0.418,9.056c-0.179,4.086-0.305,8.255-0.329,12.348
				c-0.024,4.044-0.131,8.088-0.137,12.132c-0.012,6.702-0.024,13.435,0.197,20.147c-0.006,0.149-0.018,0.299-0.024,0.454
				c-0.818,12.287-1.547,24.574-1.768,36.891c-0.131,7.241-0.263,14.475-0.167,21.721c0.018,1.421,0.197,2.939,0.329,4.36
				c0.161,1.762,0.316,3.53,0.483,5.292c0.186,1.929,0.389,3.853,0.592,5.776c0.071,0.71,0.137,1.439,0.209,2.168
				c-0.466-0.621-1.201-1.033-2.037-1.045c-8.524-0.37-17.155,1.087-25.644,1.69c-2.084,0.149-4.307,0.323-6.397,0.305
				c-1.236-0.012-2.473-0.065-3.709-0.113c-0.633-0.024-1.308-0.137-1.935-0.131l-2.826-0.137l-0.137-0.818
				c-0.34-2.503-0.436-4.964-0.388-7.581c0.054-3.148,0.322-6.326,0.322-9.461c0-1.601,0.036-3.297-0.083-4.886
				c-0.042-0.574-0.119-1.177-0.131-1.744c-0.012-0.203-0.191-0.358-0.394-0.347c-0.054,0-0.102,0.012-0.144,0.03
				c0.472-3.285,0.932-6.606,1.254-9.88c0.227-2.306,0.436-4.611,0.663-6.912c0.185-1.84,0.215-3.781,0.311-5.639
				c0.173-3.355,0.137-6.744,0.191-10.105c0.054-3.566-0.024-7.224-0.144-10.788c-0.227-6.535-0.508-13.046-0.831-19.6
				c0.149-1.727,0.287-3.487,0.424-5.245c0.251-3.397,0.299-6.887,0.46-10.298c0.203-4.233,0.454-8.476,0.604-12.711l1.009-20.561
				l-0.006,0.154c3.984,0.448,7.938,0.239,11.893-0.227C351.161-302.342,352.386-302.275,353.616-302.21z M544.924-301.654
				c0.646,0.103,1.291,0.203,1.93,0.306c-0.263,3.78-0.363,7.646-0.55,11.421c-0.46,9.359-0.739,18.737-1.026,28.109
				c-0.316,10.525-0.454,21.062-0.698,31.594c-0.042,1.769-0.078,3.535-0.107,5.244c-0.232,2.599-0.441,5.125-0.64,7.646
				c-1.332,16.917-2.449,33.75-3.04,50.696c-0.365,10.519-0.317,21.175-0.257,31.707c0.018,2.897-0.024,5.806,0.029,8.697
				c0.029,1.601,0.244,3.244,0.447,4.833c0.306,2.407,0.579,4.833,0.808,7.246c0.537,5.71,0.836,11.194,0.848,16.929
				c0,0.292,0.239,0.532,0.532,0.532c0.292,0,0.531-0.239,0.531-0.532c0.018-6.332,0.55-12.568,1.158-18.864
				c0.167-1.798,0.395-3.566,0.431-5.34c0,0.072,0.006,0.144,0.012,0.215c0.245,4.085,0.502,8.153,0.771,12.239
				c0.155,2.377,0.484,4.778,0.771,7.144c0.054,0.478,0.126,0.985,0.203,1.529c-0.041,2.174-0.077,4.378-0.113,6.583
				c-0.006,0.298,0.145,0.573,0.37,0.741c-0.621-0.018-1.158-0.036-1.541-0.048c-0.872-0.042-1.744-0.078-2.616-0.102
				c-0.173-0.096-0.395-0.137-0.65-0.078c-0.09,0.018-0.18,0.036-0.251,0.048c-3.591-0.09-7.187-0.096-10.752-0.096
				c-1.966-0.8-3.99-1.667-6.021-2.27c-1.303-0.388-2.562-0.555-3.883-0.806c-2.066-0.388-4.134-0.783-6.2-1.147
				c-7.819-1.392-16.224-2.139-23.666,0.95c0-15.853,0-31.7,0-47.548c0.25-2.712,0.507-5.417,0.71-8.124
				c1.028-14.103,2.497-28.165,3.202-42.292c0.245-4.981,0.531-10.029,0.52-15.017c-0.006-3.118,0.036-6.236-0.012-9.354
				c-0.064-4.211-0.209-8.423-0.357-12.634c-0.342-9.796-1.069-19.598-1.387-29.395c-0.065-1.869-0.126-3.739-0.18-5.608
				c0.395-4.964,0.789-9.928,1.021-14.892c0.286-6.201,0.711-12.432,0.656-18.645l-0.022-0.524c3.93,0.704,8.068,0.891,11.875,0.891
				c3.368,0,6.708-0.155,10.069-0.329c1.137-0.06,2.349-0.113,3.472-0.251c1.988-0.251,4.002-0.418,5.997-0.651
				c2.832-0.334,5.663-0.687,8.494-1.032c0.508-0.065,1.016-0.125,1.518-0.19c0.818-0.019,1.625-0.042,2.425-0.061
				c0.771-0.019,1.554-0.041,2.349-0.055C543.03-302.049,543.969-301.804,544.924-301.654z M573.948-302.21l4.897,0.173
				c-0.018,0.191-0.029,0.358-0.042,0.496c-0.203,2.079-0.37,4.169-0.52,6.212c0-0.645,0-1.344,0-2.036
				c0-0.765-0.627-1.393-1.393-1.393c-0.765,0-1.392,0.628-1.392,1.393c0,10.465,0,20.938,0,31.401
				c-0.92,10.44-1.696,20.925-2.312,31.42l-0.029,0.681l-0.145-5.089c-0.018-1.679-0.131-3.375-0.154-5.054
				c-0.019-1.422-0.049-2.879-0.113-4.295c-0.209-4.337-0.18-8.764-0.275-13.111c-0.101-4.778-0.064-9.558-0.095-14.336
				c-0.019-2.724-0.03-5.604,0.106-8.321c0.107-2.078,0.107-4.169,0.222-6.248c0.119-2.204,0.263-4.349,0.472-6.485L573.948-302.21z
				 M590.488-301.995l2.205,0.579l1.039,0.347l-1.535,0.257l-0.167-0.034c-1.989-0.406-3.984-0.663-5.747-0.438
				c-0.65,0.078-1.476,0.197-2.287,0.376l0.083-0.949L590.488-301.995z M617.5-300.567c4.319,0.383,8.626,0.933,12.914,1.548
				c0.944,0.132,1.895,0.244,2.85,0.363c-0.018,1.088-0.028,2.182-0.036,3.273c-0.201,0.12-0.398,0.245-0.597,0.371
				c-0.228,0.137-0.454,0.273-0.675,0.412c0-0.927,0-1.847,0-2.767c0-0.538-0.442-0.979-0.98-0.979
				c-0.536,0-0.979,0.441-0.979,0.979c0,1.319,0,2.646,0,3.973c-6.266,3.841-12.544,7.586-18.941,11.218
				c-5.579,3.166-11.438,6.129-17.231,8.877c-2.217,1.051-4.476,2.03-6.702,3.058c-0.138,0.062-0.197,0.229-0.138,0.365
				s0.227,0.196,0.363,0.137c2.276-1.051,4.605-2.019,6.863-3.104c5.848-2.819,11.654-5.641,17.377-8.71
				c6.194-3.327,12.322-6.791,18.409-10.327c-0.006,1.595-0.006,3.188,0,4.784c-0.878,0.508-1.756,1.016-2.628,1.528
				c-2.802,1.632-5.557,3.353-8.321,5.042c-5.607,3.416-11.218,6.815-16.839,10.208l0.145,0.251
				c4.354-2.635,8.722-5.237,13.062-7.891c4.845-2.963,9.684-5.908,14.581-8.745c-0.006,6.2-0.006,12.4,0,18.606
				c-0.286,0.113-0.573,0.232-0.854,0.353c-3.362,1.374-6.673,2.539-10.118,3.668c-0.258,0.077-0.396,0.358-0.316,0.615
				c0.077,0.257,0.358,0.395,0.615,0.316c2.676-0.872,5.376-1.708,8.01-2.713c0.891-0.341,1.774-0.687,2.664-1.039
				c-0.006,72.689-0.006,145.374-0.006,218.068c-0.191,2.168-0.396,4.331-0.599,6.499c-0.566,5.908-1.067,11.821-1.637,17.729
				c-0.346,3.632-0.794,7.252-1.2,10.878c-0.37,3.285-0.608,6.618-0.942,9.916c-0.042,0.394-0.084,0.794-0.126,1.195
				c-2.384-0.801-4.91-1.344-6.966-1.529c-1.888-0.173-3.696-0.316-5.603-0.323c-1.094-0.006-2.181,0.018-3.262,0.245
				c-0.145-0.054-0.316-0.072-0.483-0.09c-1.38-0.167-2.844-0.376-4.224-0.448c-2.066-0.107-4.074-0.144-6.142-0.131
				c-3.005,0.018-6.701,0.287-9.623,0.991c-2.431,0.591-4.97,1.285-7.216,2.414c-0.215,0.107-0.424,0.215-0.621,0.322l-0.544-6.81
				c-0.07-1.338-0.328-2.658-0.398-4.002c-0.281-5.215-0.771-10.436-1.063-15.656c-0.174-3.118-0.399-6.242-0.58-9.384l0.155-4.068
				c0.186-5.149,0.18-10.424,0.096-15.573c-0.119-7.246-0.231-14.485-0.524-21.725c0.801-37.56,2.043-75.108,2.944-112.663
				c0.186-7.789,0.347-15.579,0.501-23.361c0.126-6.367,0.139-12.771,0.155-19.14c0.024-8.147,0.156-16.289,0.229-24.437
				c0.048-5.729,0.167-11.47,0.321-17.197c0.107-4.002,0.191-8.063,0.442-12.055c0.119-1.905,0.215-3.841,0.299-5.746
				c0.065-1.554,0.209-3.124,0.322-4.678c0.49,0.048,0.979,0.084,1.476,0.09c0.969,0.013,1.917,0.155,2.915,0.145
				c1.021-0.013,2.365-0.203,3.381-0.371l0.358-0.065c-0.132,0.155-0.263,0.312-0.377,0.473c0.132-0.054,0.419-0.299,0.663-0.521
				l1.1-0.179l0.724,0.167c-2.628,2.049-5.238,4.109-7.825,6.183c-0.257,0.203-0.305,0.585-0.103,0.843
				c0.203,0.257,0.585,0.305,0.844,0.102c2.831-2.275,5.697-4.54,8.583-6.786c1.715,0.377,3.398,0.711,5.179,0.747
				c0.974,0.019,1.864-0.096,2.826-0.203c0.949-0.106,1.517-1.087,0.949-1.898c-0.091-0.125-0.264-0.27-0.483-0.418l-0.717-0.438
				l6.827-1.193c0.186-0.036,0.37-0.065,0.556-0.097C612.889-300.938,615.194-300.771,617.5-300.567z M550.169-300.884
				c0.711,0.083,1.428,0.148,2.146,0.209c-0.42,0.28-0.844,0.562-1.262,0.842l-0.064,0.305l0.305,0.066
				c0.567-0.389,1.141-0.771,1.708-1.153c0.4,0.036,0.795,0.065,1.195,0.107c0.143,3.076-0.341,5.974-2.146,8.703
				c-0.347,0.524-1.1,1.332-1.612,1.679c-0.203,0.138-0.585,0.382-0.746,0.55c-0.544,0.388-0.67,1.158-0.281,1.702
				c0.215,0.305,0.562,0.478,0.92,0.502c-0.132,7.245-0.263,14.497-0.389,21.743c-0.312,1.535-0.585,3.082-0.884,4.623
				c-0.782,4.002-1.345,8.076-1.895,12.132c0.012-0.383,0.024-0.765,0.036-1.147c0.353-12.968,0.753-25.905,1.338-38.861
				c0.144-3.189,0.312-6.385,0.508-9.569c0.048-0.848,0.125-1.702,0.186-2.551C549.541-300.968,549.854-300.926,550.169-300.884z
				 M495.895-300.794l0.008,0.231L495.895-300.794z M592.054-297.892l-0.221,0.035L592.054-297.892z M633.24-289.899
				c0,0.317,0,0.635,0.006,0.95c-0.432,0.239-0.866,0.483-1.29,0.729c-0.007-1.602-0.007-3.201-0.007-4.804
				c0.425-0.243,0.849-0.494,1.271-0.739C633.222-292.479,633.229-291.189,633.24-289.899z M684.825-264.835
				c-0.054,32.925-0.312,65.85-0.556,98.775c-0.274,36.64-0.441,73.4,0.216,109.951c0,3.106,0.096,6.218,0.083,9.331
				c-0.035,9.247,0.09,18.505-0.006,27.752c-0.055,5.418,0.042,10.86-0.065,16.271c-0.084,4.301-0.096,8.661-0.084,12.968
				c0.019,6.242-0.203,12.502-0.161,18.738c0.02,2.742-0.048,5.519-0.125,8.273c-0.395-0.155-0.866,0.018-1.046,0.412
				c-0.585,1.183-1.158,2.372-1.75,3.548c-0.006-3.751,0.006-7.502,0.048-11.254c0.174-18.135,0.383-36.288,0.424-54.423
				c0.155-64.793,0.396-129.592,1.034-194.378c0.149-15.941,0.28-31.874,0.437-47.816c0.508-0.012,0.907-0.441,0.901-0.943
				c-0.18-4.671-0.144-9.533,0.125-14.198c0.138-2.413,0.316-4.904,0.37-7.312c0.024-1.2,0.055-2.396,0.084-3.597
				C684.861-283.436,684.838-274.136,684.825-264.835z M554.834-290.389c0.048,6.35-0.161,12.656-0.466,18.988
				c-0.92-0.196-1.834,0.042-2.526,0.579c0.103-5.919,0.209-11.839,0.316-17.753c0-0.089-0.014-0.173-0.155-0.161
				c1.171-0.907,2.097-2.013,2.808-3.255C554.822-291.452,554.828-290.921,554.834-290.389z M280.306-275.725
				c0.095,3.661,0.209,7.336,0.305,11.003c-0.663,6.84-1.368,13.673-2.085,20.565c0.173-10.035,0.424-20.005,0.771-29.979
				c0.167-4.893,0.382-9.772,0.627-14.7C280.061-284.434,280.186-280.079,280.306-275.725z M633.539-273.222
				c-0.03,1.194-0.048,2.396-0.066,3.603c-0.508,0.228-1.016,0.453-1.522,0.682c0-6.303,0-12.599,0.007-18.895
				c0.43-0.251,0.859-0.496,1.29-0.741C633.294-283.454,633.396-278.335,633.539-273.222z M382.192-286.214
				c0.239,4.289,0.299,8.644,0.347,12.938c0.018,1.728,0.036,3.459,0.048,5.186c-0.311,0-0.609,0.042-0.896,0.12
				c0.012-0.442,0.024-0.885,0.036-1.32c0.096-4.223,0.197-8.458,0.329-12.676c0.048-1.589,0.06-3.178,0.107-4.768
				C382.169-286.56,382.181-286.387,382.192-286.214z M633.443-261.872c0.034,10.047,0.125,20.088,0.405,30.136
				c0.103,3.572,0.144,7.156,0.298,10.729c0.258,5.914,0.336,11.845,0.604,17.765c0.305,6.642,0.396,13.326,0.759,19.951
				c0.107,1.971,0.071,3.972,0.209,5.938c0.048,0.669,0,1.38,0.065,2.043c0.096,5.43,0.19,10.865,0.114,16.307
				c-0.432,23.015-1.465,46.007-2.861,68.992c-0.341,5.495-0.699,11.003-1.088,16.504c0-64.728,0-129.448,0-194.169
				c0.508-0.21,1.01-0.419,1.512-0.628C633.438-266.161,633.431-264.017,633.443-261.872z M334.717-228.17
				c0.054,6.695,0.071,13.654-0.46,20.273c-0.347,3.811-0.753,7.598-1.213,11.384l-0.113,0.824c0-4.785,0.078-9.581,0.012-14.359
				c-0.036-2.432-0.054-4.863-0.06-7.294c0.054-0.979,0.113-1.966,0.173-2.951c0.388-6.618,0.848-13.261,1.374-19.885
				C334.579-236.169,334.681-232.173,334.717-228.17z M645.062-230.436c-0.95,0.724-1.68,1.5-2.479,2.367
				c-0.232,0.256-0.215,0.668,0.042,0.9s0.669,0.215,0.902-0.042c0.794-1.146,2.724-2.616,3.937-3.333
				c0.495-0.292,0.991-0.627,1.493-0.902c3.439-1.862,7.657-3.267,11.319-4.604c0.327-0.119,0.495-0.489,0.376-0.818
				c-0.119-0.328-0.489-0.495-0.818-0.376C654.923-235.452,649.261-233.618,645.062-230.436z M575.496-173.449
				c-0.222,7.371-0.46,14.874-0.693,22.382l-0.699-35.034l0.162-13.667c0.244-8.798,0.621-17.591,1.094-26.348
				c0.042-0.879,0.09-1.757,0.144-2.635C575.502-210.364,575.502-191.978,575.496-173.449z M490.286-218.625
				c0.084,4.462-0.024,8.93-0.078,13.333c-0.334,10.734-1.062,21.468-1.911,32.214c-0.054-7.986-0.042-15.931,0.107-23.899
				c0.096-5.155,0.269-10.322,0.592-15.471c0.221-3.56,0.472-7.106,0.848-10.655l0.203-1.602l0.072-0.538
				C490.185-223.039,490.244-220.836,490.286-218.625z M651.16-214.043c-0.329,0.215-0.418,0.662-0.203,0.99
				s0.663,0.419,0.991,0.203c4.521-3.017,9.044-6.045,13.583-9.031c0.329-0.215,0.419-0.663,0.203-0.991
				c-0.216-0.329-0.662-0.419-0.991-0.203C660.203-220.089,655.682-217.061,651.16-214.043z M280.275-205.729
				c-0.245,5.608-0.514,11.218-0.699,16.827c-0.263,7.855-0.496,15.71-0.794,23.571c-0.048-1.84-0.089-3.667-0.119-5.49
				c-0.125-6.642-0.221-13.278-0.287-19.915c0.269-2.276,0.556-4.551,0.783-6.827c0.412-4.235,0.848-8.47,1.296-12.71
				C280.401-208.752,280.335-207.24,280.275-205.729z M381.661-196.685c-0.018-0.251-0.036-0.496-0.048-0.741
				c0.036-1.296,0.083-2.592,0.144-3.895C381.721-199.773,381.691-198.232,381.661-196.685z M333.892-183.532
				c-0.209,2.557-0.645,5.167-1.099,7.777c0.054-2.21,0.096-4.42,0.12-6.625c0.245-1.607,0.478-3.22,0.711-4.82
				c0.107-0.747,0.215-1.5,0.323-2.252C334.036-187.456,334.054-185.575,333.892-183.532z M547.576-175.366
				c0.126,6.117,0.322,12.228,0.46,18.344c0,0.167,0.006,0.34,0.012,0.525c-0.215,12.413-0.43,24.837-0.645,37.268
				c-0.055-1.033-0.103-2.061-0.132-3.088c-0.097-2.807-0.294-5.639-0.341-8.446c-0.023-1.583-0.071-3.184-0.138-4.767
				c-0.149-3.662-0.144-7.335-0.257-10.997c-0.145-4.444-0.161-8.9-0.174-13.338c0.048-1.56,0.102-3.101,0.174-4.642
				c0.144-3.255,0.357-6.636,0.514-9.808c0.019-1.153,0.179-2.33,0.209-3.482c0.023-0.878,0.084-1.858,0.167-2.73
				c0.065-0.669,0.084-1.392,0.12-2.067c0.012-0.298,0.023-0.603,0.054-0.902C547.457-180.808,547.517-178.036,547.576-175.366z
				 M377.934-163.724c0.006,0.065,0.018,0.137,0.03,0.203c-0.06-0.006-0.113-0.018-0.167-0.024c0.042-0.084,0.083-0.167,0.125-0.251
				C377.922-163.772,377.928-163.748,377.934-163.724z M384.982-161.228l1.272,0.102l-1.637,0.329
				c-0.633,0.12-1.272,0.239-1.917,0.353c-0.717,0.12-1.434,0.227-2.156,0.316c0.03-0.424,0.066-0.854,0.107-1.278
				C382.073-161.377,383.531-161.329,384.982-161.228z M274.458-97.396c-0.37,1.708-0.621,3.458-0.711,5.358
				c-0.042,0.818-0.054,1.63-0.036,2.425c-0.245-1.039-0.466-2.073-0.508-3.106c0.006-4.659,0.096-9.318,0.138-13.978
				c0.023-3.268,0.06-6.529,0.095-9.796C273.807-110.125,274.165-103.764,274.458-97.396z M278.806-96.22
				c0.454,3.458,0.992,6.881,1.535,10.322c0.018,0.113,0.036,0.233,0.054,0.352c-0.322,0.4-0.633,0.801-0.932,1.207
				c-0.687-1.804-1.237-3.638-1.643-5.495c-0.036-0.986-0.072-1.965-0.108-2.945c0.251,1.458,0.514,2.921,0.771,4.402
				c-0.179-4.42-0.215-8.858-0.448-13.279c-0.036-0.615-0.072-1.23-0.102-1.768C278.197-101.07,278.483-98.645,278.806-96.22z
				 M518.337-93.543c0.424,0.107,0.854,0.215,1.29,0.322c-3.5,0.024-7.007,0.06-10.507,0.12c-2.976,0.048-6.021,0.012-8.984,0.155
				c-2.766,0.125-5.585,0.144-8.386,0.203c0-0.358,0-0.717,0-1.081c0.305-0.138,0.633-0.257,0.884-0.353
				c2.072-0.807,4.211-1.404,6.434-1.631C505.733-96.482,511.903-95.168,518.337-93.543z M504.443-90.521l2.107,0.131
				c2.503,0.155,5.019,0.299,7.538,0.436l0.107-0.12l-0.107,0.125l-1.075,0.066c-4.354,0.227-8.715,0.316-13.123,0.215
				c-2.239-0.054-4.778-0.179-6.994-0.484c-0.222-0.036-0.442-0.065-0.663-0.095c2.824-0.114,5.681-0.215,8.481-0.215
				c0.771-0.006,1.547-0.012,2.323-0.03L504.443-90.521z M337.829-64.615c-3.632,3.429-7.257,6.863-10.985,10.185
				c-1.057,0.944-2.139,1.87-3.22,2.784c-0.627,0.531-1.308,1.045-1.911,1.601c-0.186,0.149-0.209,0.436-0.06,0.622
				c0.149,0.185,0.436,0.209,0.621,0.06c1.762-1.541,3.614-3.004,5.388-4.546c1.648-1.434,3.25-2.939,4.916-4.349
				c1.804-1.529,3.596-3.202,5.346-4.802c3.244-2.963,6.654-5.938,10.041-8.739c1.977-1.637,3.918-3.375,5.961-4.928
				c2.646-2.013,5.209-3.889,7.98-5.729c1.016-0.675,2.073-1.267,3.118-1.882c1.159-0.687,2.592-1.487,3.847-1.989
				c0.418-0.197,0.591-0.705,0.395-1.123c-0.197-0.418-0.705-0.591-1.123-0.395C356.752-82.374,346.938-73.21,337.829-64.615z
				 M281.566-79.5c0.096,0.448,0.197,0.896,0.299,1.344c-0.669-1.374-1.261-2.849-1.78-4.146c-0.215-0.538-0.424-1.075-0.615-1.613
				c0.323-0.412,0.651-0.83,0.992-1.236C280.777-83.257,281.154-81.37,281.566-79.5z M293.656-65.439
				c-0.245,0.346-0.167,0.842,0.179,1.087c0.347,0.245,0.842,0.167,1.087-0.179c2.246-3.291,4.229-5.645,7.676-7.664
				c0.382-0.215,0.514-0.705,0.298-1.087c-0.215-0.382-0.705-0.514-1.087-0.298C298.261-71.884,295.884-68.539,293.656-65.439z
				 M309.855-70.003c-1.165,1.368-2.383,2.748-3.477,4.169c-0.902,1.177-1.87,2.312-2.771,3.483c-0.311,0.4-0.8,0.961-1.033,1.392
				c-0.197,0.275-0.131,0.675,0.143,0.872c0.275,0.197,0.675,0.131,0.872-0.144c0.49-0.776,1.147-1.493,1.703-2.228
				c1.159-1.541,2.568-3.058,3.853-4.51c0.95-1.075,1.917-2.132,2.909-3.16c0.657-0.687,1.434-1.565,2.174-2.133
				c0.34-0.328,0.358-0.884,0.03-1.225c-0.329-0.34-0.884-0.358-1.225-0.03C311.91-72.404,310.889-71.221,309.855-70.003z
				 M320.697-72.846c-0.968,1.016-1.906,2.055-2.897,3.053c-2.216,2.24-4.653,4.486-6.69,6.881c-0.878,1.027-1.678,2.042-2.491,3.1
				c-0.771,1.003-1.296,2.114-1.917,3.196c-0.221,0.424-0.054,0.961,0.371,1.183c0.424,0.221,0.961,0.054,1.183-0.371
				c1.009-2.521,3.906-5.591,5.77-7.455c1.846-1.846,3.847-3.691,5.8-5.424c0.89-0.789,1.696-1.69,2.581-2.491
				c0.46-0.466,0.448-1.23-0.018-1.69C321.923-73.324,321.157-73.312,320.697-72.846z M462.624-66.723
				c-0.062,0.006-0.12,0.012-0.18,0.018c-0.048,0-0.097,0.006-0.145,0.006c0.024-0.173,0.048-0.347,0.078-0.52
				c0.083-0.418,0.179-0.836,0.269-1.254C462.636-67.888,462.63-67.303,462.624-66.723z M447.612-58.008l3.477,0.036l-3.41,0.06
				c-5.585,0.089-11.171,0.096-16.762,0.089l-5.274-0.006l3.508-0.078C435.302-58.002,441.46-58.05,447.612-58.008z M310.16-45.022
				c0.92,0.4,1.828,0.866,2.766,1.207c1.087,0.394,2.163,0.878,3.244,1.284c4.217,1.583,8.745,2.837,13.147,3.769
				c1.511,0.317,3.04,0.604,4.575,0.854c-0.215,0.269-0.43,0.544-0.639,0.818c-0.167,0.203-0.131,0.514,0.072,0.681
				c0.203,0.167,0.514,0.131,0.681-0.072c0.334-0.418,0.675-0.836,1.021-1.248c3.9,0.597,7.849,0.974,11.773,1.135
				c2.993,0.125,5.949,0.065,8.942-0.006c0.012-0.006,0.024-0.006,0.353-0.03c-2.252,1.769-4.169,3.859-5.979,6.003
				c-0.155,0.173-0.137,0.454,0.036,0.609c0.173,0.155,0.454,0.137,0.609-0.036c1.954-2.312,3.997-4.498,6.111-6.588
				c2.813-0.113,5.8-0.406,8.536-0.765c0.25-0.036,0.508-0.072,0.758-0.113v-0.006l0.03,0.908c-0.03,1.977-0.144,3.978-0.239,5.956
				c-0.065,1.296-0.054,2.658-0.167,3.942c-0.03,0.287-0.054,0.585-0.072,0.884c-0.932,0.968-1.84,1.953-2.712,2.939
				c-0.161,0.173-0.149,0.46,0.024,0.621c0.173,0.162,0.46,0.149,0.621-0.024c0.639-0.734,1.302-1.451,1.989-2.15
				c-0.042,1.034-0.066,2.073-0.096,3.07c-0.137,4.438-0.376,8.858-0.448,13.303c-0.072,4.313-0.06,8.655,0.065,12.968
				c0.114,3.913,0.388,7.789,0.705,11.69c0.209,2.544,0.567,5.221,0.991,7.741c0.138,0.818,0.227,1.648,0.4,2.461
				c0.334,1.595,0.621,3.19,0.974,4.785c0.137,0.663,0.305,1.314,0.472,1.971c-0.066,0.102-0.132,0.203-0.197,0.305
				c-2.616-2.927-5.143-5.902-7.682-8.912c-0.06-0.066-0.114-0.131-0.167-0.197c0.173-0.137,0.347-0.275,0.52-0.406
				c0.287-0.227,0.334-0.657,0.107-0.944c-0.227-0.287-0.657-0.334-0.944-0.107c-0.185,0.137-0.364,0.281-0.543,0.424
				c-2.557-3.118-4.988-6.338-7.449-9.534c1.631-1.595,3.297-3.16,4.928-4.755c0.556-0.543,1.069-1.141,1.631-1.667
				c0.382-0.394,0.37-1.039-0.024-1.421c-0.395-0.382-1.04-0.371-1.422,0.024c-0.741,0.693-1.445,1.493-2.156,2.222
				c-1.356,1.386-2.712,2.784-4.05,4.188c-0.442-0.573-0.89-1.141-1.338-1.708c-1.965-2.485-3.919-4.994-5.86-7.514
				c0.645-0.633,1.439-1.135,2.533-1.798c0.597-0.365,1.248-0.693,1.815-1.087c0.55-0.382,1.082-0.735,1.607-1.141
				c0.353-0.269,0.675-0.717,0.998-0.943c0.293-0.311,0.275-0.818-0.036-1.111c-0.311-0.292-0.818-0.275-1.111,0.036
				c-0.424,0.418-0.717,0.86-1.237,1.212c-0.376,0.257-0.747,0.532-1.123,0.789c-0.406,0.281-0.89,0.508-1.314,0.771
				c-1.105,0.687-2.145,1.266-3.035,2.091c-1.499-1.959-2.986-3.925-4.462-5.902c1.5-1.446,2.999-2.897,4.474-4.373
				c0.275-0.275,0.275-0.729,0-1.003h-1.003c-1.452,1.392-2.874,2.837-4.283,4.289c-0.902-1.207-1.792-2.419-2.682-3.625
				c-1.2-1.637-2.413-3.255-3.631-4.875c1.302-1.242,2.586-2.509,3.924-3.745c0.311-0.305,0.311-0.818,0.006-1.129
				c-0.305-0.311-0.818-0.311-1.129-0.006c-1.099,1.117-2.222,2.228-3.297,3.363c-0.119,0.12-0.239,0.245-0.364,0.382
				c-1.523-2.031-3.052-4.056-4.558-6.087c-0.508-0.681-1.016-1.356-1.523-2.037c0.245-0.149,0.49-0.305,0.735-0.46
				c0.245-0.155,0.621-0.239,0.765-0.329c0.394-0.131,0.615-0.567,0.484-0.962c-0.131-0.394-0.567-0.615-0.962-0.484
				c-0.34,0.024-1.201,0.609-1.875,1.099c-1.332-1.768-2.67-3.53-3.996-5.298c-0.735-0.979-1.47-1.965-2.216-2.933
				c1.511-1.003,4.432-2.79,5.961-2.826c0.508-0.119,0.812-0.639,0.693-1.146c-0.119-0.508-0.639-0.812-1.147-0.693
				c-0.352,0.125-0.764,0.186-1.111,0.323c-0.699,0.275-1.29,0.609-1.953,0.938c-0.777,0.382-1.613,1.081-2.342,1.565
				c-0.34,0.221-0.675,0.454-1.003,0.681c-0.083-0.107-0.173-0.215-0.257-0.322c-1.619-2.019-3.184-4.116-4.785-6.153
				c-2.121-2.7-4.312-5.441-6.553-8.129C306.737-46.611,308.47-45.757,310.16-45.022z M307.664-38.888
				c2.084,2.616,4.146,5.257,6.188,7.903c-0.239,0.149-0.472,0.292-0.71,0.424c-1.888-2.575-3.775-5.143-5.639-7.724
				c-1.535-2.121-3.1-4.217-4.659-6.314C304.539-42.776,306.104-40.841,307.664-38.888z M366.088-40.584l0.012,0.4
				c-0.376,0.054-0.747,0.107-1.105,0.149c0.197-0.083,0.406-0.173,0.621-0.263L366.088-40.584z M383.238-36.54
				c-1.487,2.031-2.933,4.098-4.396,6.146c-0.287,0.4-0.191,0.962,0.209,1.249c0.4,0.287,0.961,0.191,1.249-0.209
				c1.463-2.049,2.909-4.116,4.396-6.146c0.287-0.4,0.191-0.962-0.209-1.249C384.087-37.036,383.525-36.94,383.238-36.54z
				 M321.062-21.493c-0.287,0.227-0.573,0.46-0.86,0.687c-0.729-0.986-1.451-1.983-2.15-2.993c-1.374-1.917-2.759-3.823-4.151-5.723
				c0.251-0.131,0.508-0.274,0.759-0.412C316.803-27.132,318.935-24.318,321.062-21.493z M328.229-11.93
				c-0.197,0.179-0.394,0.352-0.597,0.525c-2.288-2.754-4.54-5.543-6.696-8.417c0.293-0.221,0.585-0.442,0.884-0.663
				C323.958-17.634,326.091-14.785,328.229-11.93z M372.779-4.959c-0.108-2.581-0.167-5.167-0.179-7.748
				c1.278-1.195,2.562-2.377,3.841-3.572C375.09-12.563,373.824-8.77,372.779-4.959z M335.541-2.205
				c-0.03,0.023-0.06,0.054-0.084,0.083c-1.344-1.601-2.706-3.22-4.08-4.838c-0.968-1.135-1.929-2.27-2.885-3.411
				c0.186-0.155,0.371-0.316,0.556-0.472C331.222-7.952,333.391-5.061,335.541-2.205z M578.602,0.208
				c0.007,0.089,0.013,0.179,0.02,0.274c-0.317,0.215-0.651,0.466-0.896,0.687c-0.131,0.096-0.231,0.215-0.299,0.353h-0.07
				c0.536-0.191,0.932-0.711,0.932-1.308c0-1.326,0-2.652,0-3.978C578.398-2.45,578.459-1.1,578.602,0.208z M590.465-1.847
				c0.119-0.054,0.245-0.071,0.376-0.089c0.312-0.054,0.622-0.102,0.968-0.144C591.002-1.948,590.226-1.811,590.465-1.847z
				 M575.502-1.495c0,0.567,0,1.135,0,1.708c0,0.597,0.382,1.117,0.926,1.308l-1.444,0.012l-0.024-2.593
				c-0.006-0.191,0-0.382,0.006-0.573C575.131-1.566,575.311-1.519,575.502-1.495z M336.999-0.27
				c-0.251-0.305-0.502-0.603-0.759-0.908c0.018-0.012,0.03-0.024,0.042-0.042C336.521-0.903,336.759-0.586,336.999-0.27z
				 M610.661-1.184c0.961,0.132,1.923,0.281,2.891,0.4c0.884,0.107,1.792,0.161,2.694,0.209c-0.215,0.185-0.354,0.466-0.354,0.783
				c0,0.143,0.023,0.274,0.09,0.43l-3.285,0.651c-2.616,0.478-5.232,0.908-7.85,1.278c-3.59-0.167-7.186-0.353-10.781-0.52
				l-7.992-0.317l6.862-1.111c2.354-0.364,4.707-0.741,7.062-1.117c2.121-0.34,4.331-0.543,6.47-0.723
				C607.883-1.339,609.293-1.435,610.661-1.184z M619.848-0.951c-0.424,0.03-0.836,0.06-1.248,0.078
				c0.061-0.072,0.113-0.156,0.161-0.245C619.119-1.07,619.479-1.017,619.848-0.951z M624.806,3.194h-0.023l-0.537,0.012
				c-3.262-0.048-6.529-0.161-9.784-0.257c-1.04-0.036-2.079-0.066-3.13-0.107c2.682-0.4,5.346-0.836,7.998-1.285
				c0.92-0.161,1.834-0.334,2.748-0.514l1.206-0.245l0.908-0.102c0.311-0.042,0.621-0.078,0.932-0.125
				C625.015,1.444,624.913,2.316,624.806,3.194z M576.81,1.522h-0.382H576.81z M629.99,2.86c0,0.084,0,0.162,0,0.245l-0.567,0.012
				c0.03-0.186,0.054-0.371,0.084-0.562C629.668,2.651,629.829,2.752,629.99,2.86z M631.406,6.02l-0.024,0.334L631.406,6.02z
				 M373.549,15.141c-0.293,0.275-0.591,0.55-0.89,0.824c-0.006-0.119-0.006-0.239-0.006-0.358c0.418-0.06,0.789-0.233,1.016-0.592
				C373.555,15.129,373.549,15.135,373.549,15.141z M368.215,37.117c0.729,0.752,1.458,1.505,2.192,2.258
				c0.316,0.932,0.663,1.87,1.045,2.802c-2.885-3.674-5.8-7.312-8.721-10.938C364.529,33.223,366.352,35.188,368.215,37.117z
				 M376.004,39.458c0.538,0.717,1.105,1.416,1.69,2.085c-0.287,0.323-0.574,0.657-0.854,0.985
				c-0.227-0.221-0.454-0.442-0.681-0.663c-0.717-1.619-1.338-3.286-1.894-5.018C374.798,37.756,375.377,38.623,376.004,39.458z
				 M383.728,41.543c0.842,1.027,1.882,1.941,2.885,2.819c-2.031-1.219-3.811-2.73-5.406-4.438c0.239-0.239,0.478-0.484,0.723-0.723
				C382.503,40.008,383.077,40.749,383.728,41.543z M684.043,40.492c-0.334,0.364-0.531,0.842-0.531,1.368
				c-0.019,3.859,1.397,8.775-1.685,11.672c-0.061-0.58-0.126-1.17-0.173-1.762c-0.062-0.687-0.174-1.41-0.306-2.156
				c-0.007-1.481-0.013-2.957-0.013-4.438c0.934-1.923,1.812-3.883,2.73-5.818C684.055,39.739,684.049,40.122,684.043,40.492z
				 M387.832,49.739c-1.081,1.104-2.085,2.294-2.981,3.632c-0.43-0.269-0.848-0.556-1.248-0.848c-0.818-0.604-1.5-1.183-2.163-1.804
				c-0.257-0.304-0.501-0.609-0.729-0.926c-0.4-0.549-0.783-1.105-1.147-1.661c0.37,0.334,0.735,0.663,1.105,1.004
				c0.454,0.412,1.159,0.376,1.571-0.078c0.412-0.454,0.376-1.159-0.078-1.571c-1.517-1.362-2.993-2.73-4.45-4.116
				c0.274-0.305,0.549-0.609,0.83-0.896C381.279,45.384,384.421,47.768,387.832,49.739z M400.495,55.055
				c-0.149,0.233-0.299,0.466-0.438,0.71c-0.209,0.335-0.102,0.789,0.233,0.998c0.334,0.209,0.788,0.101,0.997-0.233
				c0.168-0.346,0.406-0.705,0.657-1.051c4.833,1.362,9.826,2.312,14.725,3.059c-0.532,0.448-1.062,0.896-1.589,1.35
				c-0.263,0.209-0.358,0.549-0.281,0.86c-3.841-0.43-7.657-0.968-11.475-1.541c-5.615-0.848-12.4-2.318-17.573-5.287
				c0.788-1.236,1.887-2.467,3.082-3.62C392.485,52.29,396.421,53.831,400.495,55.055z M534.262,61.477
				c4.707,0.065,9.42,0.143,14.067,0.233c-2.766,0.065-5.597,0.125-8.44,0.089c-4.056-0.06-8.117-0.209-12.174-0.418
				C529.901,61.411,532.082,61.446,534.262,61.477z"/>
		</g>
	</g>
</g>
</svg>
