<?xml version="1.0" encoding="utf-8"?>
<!-- Generator: Adobe Illustrator 16.0.0, SVG Export Plug-In . SVG Version: 6.00 Build 0)  -->
<!DOCTYPE svg PUBLIC "-//W3C//DTD SVG 1.1//EN" "http://www.w3.org/Graphics/SVG/1.1/DTD/svg11.dtd">
<svg version="1.1" id="Layer_1" xmlns="http://www.w3.org/2000/svg" xmlns:xlink="http://www.w3.org/1999/xlink" x="0px" y="0px"
	 width="487.627px" height="600.849px" viewBox="62.488 95.634 487.627 600.849"
	 enable-background="new 62.488 95.634 487.627 600.849" xml:space="preserve">
<g>
	<path fill="none" stroke="#FFFFFF" stroke-width="1.6975" stroke-miterlimit="10" d="M128.101,353.792
		c-0.398-4.875-0.656-9.791-0.656-14.777c0-83.899,57.785-154.277,135.715-173.583c3.703-19.805,12.762-37.723,25.646-52.184
		C171.653,122.194,79.362,220.011,79.362,339.454c0,5.918,0.299,11.771,0.744,17.578c11.004-2.508,22.441-3.885,34.213-3.885
		C118.972,353.147,123.56,353.388,128.101,353.792z M100.157,278.083c0-6.785,5.496-12.281,12.281-12.281
		c6.773,0,12.275,5.496,12.275,12.281c0,6.779-5.502,12.275-12.275,12.275C105.653,290.358,100.157,284.862,100.157,278.083z"/>
	<path fill="none" stroke="#FFFFFF" stroke-width="1.6975" stroke-miterlimit="10" d="M229.198,500.435
		c-44.162-21.135-78.287-59.858-93.328-107.098c-6.984-1.324-14.186-2.051-21.551-2.051c-9.709,0-19.131,1.219-28.137,3.479
		c17.672,70.541,68.35,127.951,134.678,154.935c5.455-13.39,8.49-28.031,8.49-43.383
		C229.351,504.343,229.292,502.38,229.198,500.435z"/>
	<path fill="none" stroke="#FFFFFF" stroke-width="1.6975" stroke-miterlimit="10" d="M306.302,404.101L306.302,404.101
		L306.302,404.101c-11.232,0-21.803-2.848-31.025-7.856c-1.846-1.002-3.639-2.086-5.367-3.258
		c-17.314-11.695-28.693-31.506-28.693-53.972c0-22.465,11.379-42.27,28.693-53.971c1.729-1.166,3.521-2.256,5.367-3.258
		c7.646-4.154,16.219-6.779,25.33-7.57c-0.047-1.178-0.094-2.361-0.094-3.551c0-0.51,0.029-1.008,0.041-1.518
		c-0.861-0.715-1.699-1.453-2.537-2.191c-36.17,4.113-64.277,34.787-64.277,72.059c0,40.078,32.484,72.568,72.562,72.568
		c27.65,0,51.675-15.469,63.927-38.221c-2.338-0.927-4.646-1.904-6.896-2.988C352.251,390.472,330.876,404.101,306.302,404.101z"/>
	<path fill="none" stroke="#FFFFFF" stroke-width="1.6975" stroke-miterlimit="10" d="M243.46,248.634
		c0-8.754-7.096-15.844-15.844-15.844s-15.844,7.09-15.844,15.844c0,8.742,7.096,15.838,15.844,15.838
		S243.46,257.376,243.46,248.634z"/>
	<path fill="none" stroke="#FFFFFF" stroke-width="1.6975" stroke-miterlimit="10" d="M379.557,419.892
		c-8.748,0-15.839,7.091-15.839,15.839s7.091,15.838,15.839,15.838c8.741,0,15.844-7.09,15.844-15.838
		S388.298,419.892,379.557,419.892z"/>
	<g>
		<path fill="none" stroke="#FFFFFF" stroke-width="1.6975" stroke-miterlimit="10" d="M363.331,370.374
			c-36.146-17.32-61.383-53.719-62.725-96.158c-9.111,0.791-17.684,3.416-25.33,7.57c-1.846,1.002-3.639,2.092-5.367,3.258
			c-17.309,11.701-28.693,31.506-28.693,53.971c0,22.466,11.385,42.275,28.693,53.972c1.729,1.172,3.521,2.256,5.367,3.258
			c9.223,5.01,19.793,7.856,31.025,7.856C330.876,404.101,352.251,390.472,363.331,370.374z"/>
		<path fill="none" stroke="#FFFFFF" stroke-width="1.6975" stroke-miterlimit="10" d="M499.872,389.229
			c-6.785,0-12.281,5.503-12.281,12.281c0,6.779,5.496,12.281,12.281,12.281s12.281-5.502,12.281-12.281
			C512.153,394.731,506.657,389.229,499.872,389.229z"/>
		<path fill="none" stroke="#FFFFFF" stroke-width="1.6975" stroke-miterlimit="10" d="M124.714,278.083
			c0-6.785-5.502-12.281-12.275-12.281c-6.785,0-12.281,5.496-12.281,12.281c0,6.779,5.496,12.275,12.281,12.275
			C119.212,290.358,124.714,284.862,124.714,278.083z"/>
	</g>
	<path fill="none" stroke="#FFFFFF" stroke-width="1.6975" stroke-miterlimit="10" d="M440.517,164.171
		c-1.118-3.715-2.577-7.266-4.241-10.705c-26.584-18.615-57.328-31.652-90.568-37.477c-20.83,7.277-37.354,23.607-44.9,44.309
		c1.828-0.059,3.65-0.141,5.496-0.141c20.63,0,40.429,3.539,58.869,9.967c27.539,9.598,51.99,25.729,71.531,46.547
		c4.436-9.475,6.979-20.01,6.979-31.16C443.681,178.093,442.562,170.927,440.517,164.171z"/>
	<path fill="none" stroke="#FFFFFF" stroke-width="1.6975" stroke-miterlimit="10" d="M521.44,267.237
		c-9.404-28.014-24.105-53.578-42.943-75.516c-1.154,20.432-7.939,39.346-18.844,55.225c16.184,26.9,25.506,58.395,25.506,92.068
		c0,4.759-0.24,9.457-0.609,14.115c-7.201,92.18-84.229,164.742-178.248,164.742c-13.4,0-26.438-1.523-38.994-4.318
		c-0.779,16.676-4.236,32.631-9.926,47.49c15.762,3.469,32.115,5.35,48.92,5.35c125.338,0,226.939-101.606,226.939-226.938
		C533.241,314.194,529.058,289.931,521.44,267.237z M499.872,413.792c-6.785,0-12.281-5.502-12.281-12.281
		c0-6.778,5.496-12.28,12.281-12.28s12.281,5.502,12.281,12.28C512.153,408.29,506.657,413.792,499.872,413.792z"/>
	<path fill="none" stroke="#FFFFFF" stroke-width="1.6975" stroke-miterlimit="10" d="M349.632,178.778
		c-17.725,11.871-31.834,28.723-40.295,48.568c13.295,19.236,35.483,31.869,60.646,31.869c24.737,0,46.575-12.234,59.94-30.932
		C408.817,204.729,381.066,187.263,349.632,178.778z"/>
	<path fill="none" stroke="#FFFFFF" stroke-width="1.6975" stroke-miterlimit="10" d="M150.841,397.245
		c-4.852-1.623-9.85-2.941-14.971-3.908c15.041,47.238,49.166,85.963,93.328,107.098c-0.258-5.227-0.902-10.354-1.846-15.375
		C192.354,466.099,164.962,434.915,150.841,397.245z"/>
	<path fill="none" stroke="#FFFFFF" stroke-width="1.6975" stroke-miterlimit="10" d="M140.312,339.015
		c0-76.131,51.275-140.244,121.16-159.809c0.27-4.682,0.844-9.275,1.688-13.775c-77.93,19.307-135.715,89.684-135.715,173.583
		c0,4.986,0.258,9.902,0.656,14.777c4.406,0.398,8.748,0.99,13.037,1.746C140.599,350.101,140.312,344.593,140.312,339.015z"/>
	<path fill="none" stroke="#FFFFFF" stroke-width="1.6975" stroke-miterlimit="10" d="M365.171,170.124
		c-18.438-6.428-38.237-9.967-58.869-9.967c-1.846,0-3.668,0.082-5.496,0.141c-1.523,4.166-2.672,8.496-3.428,12.973
		c2.959-0.152,5.93-0.24,8.924-0.24c14.994,0,29.515,2.021,43.33,5.748c31.437,8.484,59.187,25.951,80.291,49.506
		c2.603-3.639,4.863-7.523,6.779-11.613C417.161,195.853,392.71,179.722,365.171,170.124z"/>
	<path fill="none" stroke="#FFFFFF" stroke-width="1.6975" stroke-miterlimit="10" d="M459.653,246.946
		c-2.625,3.826-5.49,7.471-8.566,10.916c13.482,24,21.205,51.668,21.205,81.152c0,8.433-0.646,16.711-1.857,24.804
		c-11.971,79.903-80.895,141.182-164.133,141.182c-13.43,0-26.461-1.629-38.965-4.641c0.076,1.979,0.152,3.961,0.152,5.959
		c0,2.432-0.076,4.84-0.182,7.235c12.557,2.795,25.594,4.318,38.994,4.318c94.021,0,171.047-72.562,178.248-164.742
		c0.369-4.658,0.609-9.356,0.609-14.115C485.159,305.341,475.837,273.847,459.653,246.946z"/>
	<path fill="none" stroke="#FFFFFF" stroke-width="1.6975" stroke-miterlimit="10" d="M457.86,170.575
		c-6.826-6.135-14.052-11.83-21.586-17.109c1.663,3.439,3.122,6.99,4.241,10.705c2.045,6.756,3.164,13.922,3.164,21.34
		c0,11.15-2.543,21.687-6.979,31.16c-1.916,4.09-4.178,7.975-6.779,11.613c-13.365,18.697-35.203,30.932-59.941,30.932
		c-25.16,0-47.35-12.633-60.645-31.869c-8.215-11.889-13.055-26.291-13.055-41.836c0-4.178,0.434-8.25,1.096-12.24
		c0.756-4.477,1.904-8.807,3.428-12.973c7.546-20.701,24.07-37.031,44.9-44.309c-12.809-2.238-25.957-3.48-39.404-3.48
		c-5.895,0-11.719,0.299-17.496,0.738c-12.885,14.461-21.943,32.379-25.646,52.184c-0.844,4.5-1.418,9.094-1.688,13.775
		c-0.111,2.092-0.193,4.189-0.193,6.305c0,32.432,14.215,61.523,36.738,81.445c0.838,0.738,1.676,1.477,2.537,2.191
		c2.021,1.682,4.119,3.275,6.263,4.811c13.185,9.428,28.541,15.984,45.193,18.75v0.006c3.656,0.604,7.365,1.031,11.133,1.266
		c2.263,0.146,4.535,0.24,6.838,0.24c32.244,0,61.201-14.057,81.105-36.357c3.076-3.445,5.941-7.09,8.566-10.916
		c10.903-15.879,17.688-34.793,18.844-55.225C472.075,184.239,465.196,177.161,457.86,170.575z"/>
	<path opacity="0.6" fill="#FFFFFF" enable-background="new    " d="M457.86,170.575c-6.826-6.135-14.052-11.83-21.586-17.109
		c1.663,3.439,3.122,6.99,4.241,10.705c2.045,6.756,3.164,13.922,3.164,21.34c0,11.15-2.543,21.687-6.979,31.16
		c-1.916,4.09-4.178,7.975-6.779,11.613c-13.365,18.697-35.203,30.932-59.941,30.932c-25.16,0-47.35-12.633-60.645-31.869
		c-8.215-11.889-13.055-26.291-13.055-41.836c0-4.178,0.434-8.25,1.096-12.24c0.756-4.477,1.904-8.807,3.428-12.973
		c7.546-20.701,24.07-37.031,44.9-44.309c-12.809-2.238-25.957-3.48-39.404-3.48c-5.895,0-11.719,0.299-17.496,0.738
		c-12.885,14.461-21.943,32.379-25.646,52.184c-0.844,4.5-1.418,9.094-1.688,13.775c-0.111,2.092-0.193,4.189-0.193,6.305
		c0,32.432,14.215,61.523,36.738,81.445c0.838,0.738,1.676,1.477,2.537,2.191c2.021,1.682,4.119,3.275,6.263,4.811
		c13.185,9.428,28.541,15.984,45.193,18.75v0.006c3.656,0.604,7.365,1.031,11.133,1.266c2.263,0.146,4.535,0.24,6.838,0.24
		c32.244,0,61.201-14.057,81.105-36.357c3.076-3.445,5.941-7.09,8.566-10.916c10.903-15.879,17.688-34.793,18.844-55.225
		C472.075,184.239,465.196,177.161,457.86,170.575z"/>
	<path fill="none" stroke="#FFFFFF" stroke-width="1.6975" stroke-miterlimit="10" d="M267.337,500.358
		c-2.789-72.757-56.303-132.47-126.199-144.82c-4.289-0.756-8.631-1.348-13.037-1.746c-4.541-0.404-9.129-0.645-13.781-0.645
		c-11.771,0-23.209,1.377-34.213,3.885c0.99,12.908,3.018,25.522,6.076,37.733c9.006-2.262,18.428-3.479,28.137-3.479
		c7.365,0,14.566,0.727,21.551,2.051c5.121,0.967,10.119,2.285,14.971,3.908c39.088,13.084,68.801,46.563,76.512,87.813
		c0.943,5.021,1.588,10.148,1.846,15.375c0.094,1.945,0.152,3.908,0.152,5.884c0,15.352-3.035,29.993-8.49,43.383
		c11.713,4.77,23.918,8.578,36.521,11.344c5.689-14.859,9.146-30.813,9.926-47.49c0.105-2.396,0.182-4.805,0.182-7.235
		C267.489,504.319,267.413,502.339,267.337,500.358z"/>
	<path opacity="0.4" fill="#FFFFFF" enable-background="new    " d="M267.337,500.358c-2.789-72.757-56.303-132.47-126.199-144.82
		c-4.289-0.756-8.631-1.348-13.037-1.746c-4.541-0.404-9.129-0.645-13.781-0.645c-11.771,0-23.209,1.377-34.213,3.885
		c0.99,12.908,3.018,25.522,6.076,37.733c9.006-2.262,18.428-3.479,28.137-3.479c7.365,0,14.566,0.727,21.551,2.051
		c5.121,0.967,10.119,2.285,14.971,3.908c39.088,13.084,68.801,46.563,76.512,87.813c0.943,5.021,1.588,10.148,1.846,15.375
		c0.094,1.945,0.152,3.908,0.152,5.884c0,15.352-3.035,29.993-8.49,43.383c11.713,4.77,23.918,8.578,36.521,11.344
		c5.689-14.859,9.146-30.813,9.926-47.49c0.105-2.396,0.182-4.805,0.182-7.235C267.489,504.319,267.413,502.339,267.337,500.358z"/>
	<g>
		<g>
			<path fill="none" stroke="#FFFFFF" stroke-width="1.6975" stroke-miterlimit="10" d="M150.841,397.245
				c14.121,37.67,41.514,68.854,76.512,87.813C219.642,443.81,189.929,410.329,150.841,397.245z"/>
			<path fill="none" stroke="#FFFFFF" stroke-width="1.6975" stroke-miterlimit="10" d="M370.229,373.362
				c-12.252,22.752-36.275,38.221-63.927,38.221c-40.078,0-72.562-32.49-72.562-72.568c0-37.271,28.107-67.945,64.277-72.059
				c-22.523-19.922-36.738-49.014-36.738-81.445c0-2.115,0.082-4.213,0.193-6.305c-69.885,19.564-121.16,83.678-121.16,159.809
				c0,5.578,0.287,11.086,0.826,16.523c69.896,12.352,123.41,72.063,126.199,144.82c12.504,3.012,25.535,4.641,38.965,4.641
				c83.238,0,152.162-61.277,164.133-141.182c-17.161,10.969-37.534,17.354-59.414,17.354
				C396.606,381.173,382.854,378.384,370.229,373.362z M211.772,248.634c0-8.754,7.096-15.844,15.844-15.844
				s15.844,7.09,15.844,15.844c0,8.742-7.096,15.838-15.844,15.838S211.772,257.376,211.772,248.634z M379.557,451.567
				c-8.748,0-15.839-7.091-15.839-15.839s7.091-15.838,15.839-15.838c8.741,0,15.844,7.09,15.844,15.838
				S388.298,451.567,379.557,451.567z"/>
			<path fill="none" stroke="#FFFFFF" stroke-width="1.6975" stroke-miterlimit="10" d="M309.337,227.347
				c8.461-19.846,22.57-36.697,40.295-48.568c-13.815-3.727-28.336-5.748-43.33-5.748c-2.994,0-5.965,0.088-8.924,0.24
				c-0.662,3.99-1.096,8.062-1.096,12.24C296.282,201.056,301.122,215.458,309.337,227.347z"/>
		</g>
		<path fill="none" stroke="#FFFFFF" stroke-width="1.6975" stroke-miterlimit="10" d="M477.015,166.608
			c-43.6-43.061-103.383-69.744-169.417-70.096c-0.435,0-0.861-0.029-1.296-0.029c-134.186,0-242.965,108.779-242.965,242.971
			c0,7.44,0.387,14.795,1.043,22.065c1.172,13.084,3.352,25.875,6.516,38.273c19.078,74.637,72.721,135.404,142.857,164.326
			c11.877,4.904,24.234,8.859,36.979,11.836c17.854,4.184,36.439,6.463,55.57,6.463c134.191,0,242.965-108.779,242.965-242.965
			C549.267,271.813,521.61,210.659,477.015,166.608z M306.302,566.394c-16.805,0-33.158-1.881-48.92-5.35
			c-12.604-2.766-24.809-6.574-36.521-11.344c-66.328-26.982-117.006-84.394-134.678-154.935
			c-3.059-12.211-5.086-24.825-6.076-37.733c-0.445-5.808-0.744-11.66-0.744-17.578c0-119.443,92.291-217.26,209.443-226.207
			c5.777-0.439,11.602-0.738,17.496-0.738c13.447,0,26.596,1.242,39.404,3.48c33.239,5.824,63.984,18.861,90.568,37.477
			c7.534,5.279,14.76,10.975,21.586,17.109c7.336,6.586,14.215,13.664,20.637,21.146c18.838,21.938,33.539,47.502,42.943,75.516
			c7.616,22.693,11.801,46.958,11.801,72.217C533.241,464.786,431.64,566.394,306.302,566.394z"/>
	</g>
	<g>
		
			<path opacity="0.4" fill="#FFFFFF" stroke="#FFFFFF" stroke-width="1.6975" stroke-miterlimit="10" enable-background="new    " d="
			M362.984,370.802c-36.146-17.319-61.382-53.719-62.718-96.158c-0.041-1.184-0.094-2.355-0.094-3.551
			c0-0.504,0.035-1.008,0.041-1.518c2.021,1.682,4.125,3.275,6.264,4.811c13.177,9.428,28.546,15.984,45.199,18.756l0,0
			c3.65,0.609,7.359,1.037,11.121,1.271c2.268,0.135,4.547,0.234,6.844,0.234c32.25,0,61.201-14.057,81.105-36.357
			c13.482,24,21.199,51.668,21.199,81.152c0,8.432-0.633,16.711-1.847,24.803c-17.161,10.975-37.541,17.354-59.42,17.354
			c-14.414,0-28.172-2.788-40.792-7.811C367.557,372.864,365.241,371.88,362.984,370.802"/>
		
			<path opacity="0.4" fill="#FFFFFF" stroke="#FFFFFF" stroke-width="1.6975" stroke-miterlimit="10" enable-background="new    " d="
			M349.264,179.206c-17.73,11.865-31.828,28.723-40.296,48.562c13.296,19.242,35.484,31.875,60.646,31.875
			c24.738,0,46.576-12.234,59.946-30.932C408.442,205.151,380.704,187.69,349.264,179.206z"/>
	</g>
	<g>
		<path fill="#FFFFFF" d="M347.477,655.163h2.905l6.158,14.994l6.164-14.994h2.905l-7.266,17.373l8.66,20.108l15.803-37.77h3.252
			l-17.666,41.256h-2.725l-9.07-21.211l-9.123,21.211h-2.729l-17.606-41.256h3.192l15.86,37.77l8.55-20.108L347.477,655.163z"/>
		<path fill="#FFFFFF" d="M416.089,696.425c-2.871,0-5.483-0.604-7.846-1.805c-2.367-1.195-4.4-2.771-6.105-4.705
			c-1.705-1.939-3.018-4.166-3.955-6.68c-0.926-2.521-1.389-5.099-1.389-7.734c0-2.748,0.492-5.385,1.482-7.898
			c0.983-2.52,2.344-4.745,4.061-6.686c1.729-1.939,3.773-3.479,6.135-4.623c2.367-1.143,4.916-1.711,7.677-1.711
			c2.864,0,5.489,0.609,7.868,1.828c2.386,1.219,4.418,2.817,6.105,4.793c1.688,1.979,2.994,4.213,3.92,6.715
			c0.932,2.502,1.396,5.027,1.396,7.582c0,2.789-0.492,5.449-1.482,7.963c-0.984,2.521-2.344,4.74-4.066,6.656
			c-1.722,1.916-3.768,3.445-6.129,4.588C421.392,695.851,418.837,696.425,416.089,696.425z M399.759,675.501
			c0,2.361,0.394,4.641,1.189,6.832c0.791,2.186,1.916,4.125,3.369,5.807c1.452,1.688,3.188,3.035,5.202,4.043
			c2.016,1.009,4.22,1.513,6.628,1.513c2.473,0,4.711-0.521,6.709-1.57c1.991-1.049,3.696-2.432,5.114-4.154
			c1.412-1.729,2.508-3.668,3.281-5.842c0.773-2.168,1.16-4.377,1.16-6.627c0-2.361-0.404-4.641-1.219-6.826
			c-0.815-2.185-1.945-4.125-3.394-5.812c-1.459-1.688-3.17-3.029-5.149-4.037c-1.976-1.008-4.144-1.512-6.504-1.512
			c-2.484,0-4.729,0.521-6.744,1.569c-2.016,1.049-3.744,2.433-5.174,4.154c-1.437,1.723-2.537,3.674-3.312,5.836
			C400.146,671.048,399.759,673.257,399.759,675.501z"/>
		<path fill="#FFFFFF" d="M455.024,696.132v-41.256h17.139c1.746,0,3.352,0.369,4.828,1.103c1.471,0.737,2.742,1.711,3.803,2.936
			c1.066,1.219,1.898,2.596,2.502,4.125c0.599,1.529,0.902,3.07,0.902,4.623c0,1.512-0.234,2.965-0.697,4.383
			c-0.469,1.418-1.125,2.684-1.975,3.809c-0.855,1.125-1.888,2.052-3.082,2.789c-1.201,0.732-2.521,1.22-3.955,1.453l10.289,16.037
			h-3.429l-9.996-15.574h-13.364v15.574L455.024,696.132L455.024,696.132z M457.989,677.827h14.473c1.312,0,2.514-0.293,3.598-0.867
			c1.085-0.586,2.017-1.354,2.789-2.303c0.773-0.943,1.365-2.033,1.775-3.246c0.404-1.225,0.609-2.473,0.609-3.75
			c0-1.318-0.24-2.59-0.728-3.81c-0.486-1.225-1.143-2.297-1.975-3.229s-1.806-1.676-2.906-2.238
			c-1.102-0.557-2.297-0.838-3.574-0.838h-14.062V677.827z"/>
		<path fill="#FFFFFF" d="M504.788,696.132v-41.256h2.959v25.043l24.063-25.043h3.429l-17.14,18.07l18.013,23.186h-3.375
			l-16.56-21.381l-8.432,8.654v12.727H504.788L504.788,696.132z"/>
		<path fill="#FFFFFF" d="M85.069,675.214c0-2.479,0.434-4.951,1.301-7.412c0.873-2.461,2.145-4.658,3.809-6.598
			c1.664-1.935,3.709-3.517,6.129-4.734s5.186-1.828,8.279-1.828c3.68,0,6.82,0.845,9.416,2.525c2.596,1.688,4.535,3.85,5.812,6.479
			l-2.438,1.396c-0.738-1.436-1.6-2.637-2.584-3.604c-0.99-0.967-2.062-1.752-3.205-2.354c-1.137-0.598-2.332-1.037-3.574-1.301
			c-1.236-0.271-2.455-0.41-3.656-0.41c-2.637,0-4.957,0.527-6.973,1.6c-2.016,1.062-3.721,2.449-5.115,4.154
			s-2.449,3.633-3.164,5.777c-0.721,2.155-1.078,4.317-1.078,6.485c0,2.438,0.422,4.765,1.277,6.967
			c0.855,2.216,2.016,4.16,3.486,5.849c1.471,1.682,3.217,3.029,5.232,4.037s4.184,1.512,6.51,1.512c1.236,0,2.52-0.158,3.832-0.469
			c1.318-0.312,2.578-0.791,3.779-1.453c1.201-0.656,2.326-1.5,3.369-2.525c1.049-1.024,1.922-2.237,2.619-3.633l2.555,1.219
			c-0.697,1.554-1.646,2.925-2.848,4.125c-1.202,1.201-2.537,2.209-4.014,3.023c-1.471,0.813-3.029,1.424-4.676,1.834
			c-1.646,0.404-3.264,0.609-4.852,0.609c-2.83,0-5.414-0.621-7.758-1.863c-2.35-1.236-4.365-2.854-6.076-4.853
			c-1.699-1.991-3.029-4.26-3.979-6.797C85.534,680.434,85.069,677.845,85.069,675.214z"/>
		<path fill="#FFFFFF" d="M137.036,696.132v-41.256h2.965v38.584h24.645v2.672H137.036z"/>
		<path fill="#FFFFFF" d="M193.474,696.425c-2.865,0-5.484-0.604-7.84-1.805c-2.367-1.195-4.4-2.771-6.105-4.705
			c-1.705-1.939-3.023-4.166-3.949-6.68c-0.932-2.521-1.395-5.099-1.395-7.734c0-2.748,0.492-5.385,1.477-7.898
			c0.99-2.52,2.35-4.745,4.072-6.686c1.729-1.939,3.768-3.479,6.135-4.623c2.355-1.143,4.916-1.711,7.664-1.711
			c2.865,0,5.496,0.609,7.875,1.828c2.385,1.219,4.418,2.817,6.105,4.793c1.688,1.979,2.988,4.213,3.92,6.715
			c0.926,2.502,1.395,5.027,1.395,7.582c0,2.789-0.492,5.449-1.482,7.963c-0.984,2.521-2.344,4.74-4.066,6.656
			c-1.722,1.916-3.768,3.445-6.129,4.588C198.782,695.851,196.228,696.425,193.474,696.425z M177.149,675.501
			c0,2.361,0.393,4.641,1.189,6.832c0.791,2.186,1.916,4.125,3.369,5.807c1.453,1.688,3.188,3.035,5.197,4.043
			c2.016,1.009,4.225,1.513,6.627,1.513c2.484,0,4.723-0.521,6.715-1.57c1.992-1.049,3.697-2.432,5.109-4.154
			c1.418-1.729,2.514-3.668,3.287-5.842c0.779-2.168,1.166-4.377,1.166-6.627c0-2.361-0.41-4.641-1.225-6.826
			c-0.815-2.185-1.945-4.125-3.398-5.812c-1.453-1.688-3.17-3.029-5.145-4.037s-4.148-1.512-6.51-1.512
			c-2.479,0-4.723,0.521-6.738,1.569s-3.738,2.433-5.174,4.154s-2.537,3.674-3.311,5.836
			C177.536,671.048,177.149,673.257,177.149,675.501z"/>
		<path fill="#FFFFFF" d="M227.64,675.214c0-2.479,0.439-4.951,1.307-7.412c0.873-2.461,2.145-4.658,3.809-6.598
			c1.664-1.935,3.709-3.517,6.129-4.734c2.42-1.218,5.186-1.828,8.279-1.828c3.68,0,6.82,0.845,9.416,2.525
			c2.596,1.688,4.535,3.85,5.812,6.479l-2.438,1.396c-0.738-1.436-1.6-2.637-2.59-3.604c-0.984-0.967-2.057-1.752-3.199-2.354
			c-1.137-0.598-2.332-1.037-3.574-1.301c-1.236-0.271-2.455-0.41-3.656-0.41c-2.637,0-4.957,0.527-6.973,1.6
			c-2.016,1.062-3.721,2.449-5.115,4.154c-1.4,1.705-2.455,3.633-3.17,5.777c-0.715,2.155-1.072,4.317-1.072,6.485
			c0,2.438,0.428,4.765,1.277,6.967c0.85,2.216,2.016,4.16,3.486,5.849c1.477,1.682,3.217,3.029,5.227,4.037
			c2.016,1.008,4.184,1.512,6.516,1.512c1.236,0,2.52-0.158,3.832-0.469c1.312-0.312,2.572-0.791,3.779-1.453
			c1.201-0.656,2.32-1.5,3.369-2.525c1.043-1.024,1.916-2.237,2.613-3.633l2.561,1.219c-0.703,1.554-1.646,2.925-2.848,4.125
			c-1.202,1.201-2.537,2.209-4.014,3.023c-1.471,0.813-3.029,1.424-4.676,1.834c-1.646,0.404-3.27,0.609-4.852,0.609
			c-2.83,0-5.414-0.621-7.764-1.863c-2.338-1.236-4.365-2.854-6.07-4.853c-1.699-1.991-3.029-4.26-3.979-6.797
			C228.112,680.434,227.64,677.845,227.64,675.214z"/>
		<path fill="#FFFFFF" d="M283.685,696.132v-41.256h2.965v25.043l24.059-25.043h3.428l-17.145,18.07l18.012,23.186h-3.369
			l-16.559-21.381l-8.426,8.654v12.727H283.685L283.685,696.132z"/>
	</g>
</g>
</svg>
