<?xml version="1.0" encoding="utf-8"?>
<!-- Generator: Adobe Illustrator 16.0.0, SVG Export Plug-In . SVG Version: 6.00 Build 0)  -->
<!DOCTYPE svg PUBLIC "-//W3C//DTD SVG 1.1//EN" "http://www.w3.org/Graphics/SVG/1.1/DTD/svg11.dtd">
<svg version="1.1" id="Layer_1" xmlns="http://www.w3.org/2000/svg" xmlns:xlink="http://www.w3.org/1999/xlink" x="0px" y="0px"
	 width="435.751px" height="418.05px" viewBox="265.966 12.967 435.751 418.05"
	 enable-background="new 265.966 12.967 435.751 418.05" xml:space="preserve">
<g transform="scale(1 -1)">
	<g transform="translate(0 -75)">
		<g>
			<path marker-start="none" marker-end="none" d="M462.241-352.016c-6.75,1.762-13.416,3.805-19.951,6.177
				c-0.197,0.048-0.37,0.095-0.543,0.143c-4.475,1.159-8.847,2.401-13.243,3.823c-12.46,4.026-24.371,9.372-35.565,16.009
				c5.43-4.354,10.865-8.686,16.355-12.98c-0.812,0.072-1.428,0.651-2.085,1.069c-1.081,0.688-2.15,1.428-3.208,2.145
				c-4.629,3.142-9.181,6.392-13.619,9.796c-3.452,2.646-6.815,5.395-10.101,8.243c-1.291,0.927-2.569,1.876-3.835,2.844
				c-4.719,3.596-9.217,7.58-13.488,11.695c-12.538,12.066-22.621,26.385-29.992,42.029c-3.62,5.531-7.013,11.331-9.719,17.311
				c-2.389,5.269-4.456,10.877-6.057,16.438c-0.699,2.425-1.392,4.851-1.93,7.317c-0.627,2.896-1.302,5.818-1.696,8.757
				c-0.364,2.7-0.789,5.376-1.003,8.1c-0.388,4.946-0.585,9.784-0.484,14.707c-0.125,0.549-0.239,1.093-0.347,1.648
				c-0.257,1.26-0.585,2.832-0.651,4.104c-0.042,0.884-0.144,1.792-0.155,2.676c-0.012,0.848,0.03,1.708,0.036,2.557l0.024,0.34
				c-0.161,0.018-0.329,0.036-0.49,0.054c-2.963,0.287-5.973,0.371-8.924,0.681c-8.309,0.872-16.636,1.923-24.879,3.262
				c-1.977,0.322-3.924,0.752-5.884,1.152c-0.956,0.197-2.174,0.437-3.088,0.753c-1.673,0.58-2.18,2.354-1.386,3.853
				c0.298,0.562,0.525,0.705,0.866,1.165c0.729,0.992,1.583,2.145,2.425,3.028c0.675,0.711,1.291,1.541,1.965,2.264
				c1.864,1.989,3.62,4.109,5.496,6.093c1.589,1.685,3.172,3.393,4.737,5.107c3.823,4.182,7.819,8.267,11.731,12.371
				c2.766,2.897,5.525,5.824,8.339,8.679c1.649,1.678,3.25,3.411,4.904,5.077c2.909,2.933,5.782,5.914,8.673,8.871
				c5.985,6.128,12.012,12.215,18.081,18.272c0.418,0.466,0.836,0.938,1.254,1.416c10.423,11.821,21.175,23.212,32.746,33.887
				c-0.155,0.089-0.304,0.173-0.454,0.263c-0.275,0.144-0.382,0.49-0.239,0.765c0.144,0.275,0.49,0.382,0.765,0.239
				c0.269-0.155,0.543-0.304,0.812-0.454c0.388,0.358,0.783,0.717,1.177,1.075c0.149,0.149,0.406,0.155,0.556,0.006
				c0.149-0.149,0.155-0.406,0.006-0.556c-0.292-0.334-0.58-0.663-0.866-0.991c0.209-0.12,0.418-0.233,0.633-0.347
				c0.454,0.4,0.908,0.794,1.368,1.195c0.556,0.484,1.093,0.998,1.661,1.463c0.878,0.729,1.852,1.421,3.041,1.452
				c0.382,0.012,0.711-0.054,1.069-0.186c0.436-0.161,0.89-0.484,1.296-0.717c1.063-0.609,2.079-1.29,3.088-1.983
				c3.877-2.652,7.526-5.603,11.123-8.631c2.658-2.234,5.394-4.498,7.932-6.864c2.258-2.103,4.6-4.151,6.876-6.248
				c3.04-2.807,6.051-5.639,9.049-8.488c2.855-2.718,5.699-5.46,8.524-8.213c5.054-4.922,10.053-9.928,14.999-14.963
				c4.874-4.958,9.778-9.916,14.503-15.011c1.518-1.637,3.112-3.214,4.63-4.862c6.684-7.276,13.571-14.474,19.849-22.078
				c0.95-1.147,1.995-2.341,2.874-3.53c0.501-0.681,1.045-1.434,1.576-2.091c2.461,0.173,4.982,0.239,7.425,0.347
				c0.144,0.024,0.293-0.078,0.317-0.221c0.023-0.143-0.078-0.292-0.222-0.316c-2.132-0.729-4.271-1.38-6.438-1.929
				c0.089-0.598-0.019-1.231-0.4-1.906c-0.191-0.334-0.526-0.729-0.843-0.95c-0.454-0.316-1.087-0.478-1.744-0.573
				c1.708-1.542,3.333-3.142,4.994-4.755c0.137-0.114,0.155-0.334,0.042-0.472c-0.114-0.137-0.335-0.155-0.473-0.042
				c-2.377,1.625-4.707,3.321-6.994,5.065c-0.508-0.054-1.016-0.114-1.518-0.144c-1.464-0.107-2.933-0.155-4.396-0.215
				c-5.859-0.245-11.708-0.269-17.573-0.395c-4.414-0.095-8.787-0.269-13.189-0.484c-2.281-0.113-4.79-0.328-7.126-0.651
				c-0.065-0.09-0.138-0.167-0.215-0.233c-0.203-0.167-0.437-0.251-0.663,0.06c-0.239,0-0.454-0.03-0.663-0.065
				c-0.711-0.12-1.422-0.251-2.133-0.358c-0.197-2.097-0.299-4.199-0.179-6.356c-0.209,0.669-0.233-0.944-0.03-2.485
				c0-0.597,0.024-1.194,0.09-1.78c0.215-2.133,0.441-4.158,0.771-6.278c0.43-2.771,1.213-5.471,1.965-8.16
				c0.353-1.266,0.807-2.502,1.267-3.733c1.236-3.303,2.641-6.571,4.372-9.647c1.5-2.664,2.981-5.107,4.678-7.646
				c0.997-1.494,2.132-2.987,3.243-4.396c6.499-8.25,14.115-15.298,22.651-21.402c0.901-0.651,1.815-1.285,3.715-2.414
				c-0.215,0.264-0.149,0.609,0.096,0.801c0.274,0.215,0.693,0.167,0.908-0.107c0.771-1.01,1.559-2.007,2.365-2.986
				c4.026-2.485,8.166-4.737,12.467-6.852c3.745-1.846,7.431-3.471,11.271-5.084c3.613-1.517,7.574-2.831,11.325-3.96
				c11.146-3.357,22.938-5.531,34.592-5.836c5.848-0.155,11.857-0.071,17.657,0.711c3.686,0.496,7.245,1.081,10.823,1.894
				c4.624,2.114,9.169,4.36,13.584,6.69c4.432,2.341,8.763,4.772,13.117,7.251c6.678,3.806,13.153,7.969,19.604,12.15
				c1.47,1.517,2.915,3.052,4.307,4.617c3.649,4.109,7.114,8.189,10.405,12.586c1.648,2.197,3.363,4.36,4.964,6.594
				c0.628,0.873,1.368,2.145,2.39,2.516c0.979,0.352,2.3,0.023,2.896-0.866c0.264-0.395,0.431-0.878,0.604-1.339
				c1.255,0.383,2.778-0.209,3.106-1.994l0.024-0.406l0.029,0.125l-0.012-0.37l0.06-0.759c0-0.49-0.012-0.979-0.006-1.422
				l-0.132-2.007l-0.023-1.326c-0.042-0.872-0.102-1.756-0.186-2.651c0.215-2.15,0.239-4.242,0.186-6.404
				c-0.054-2.281-0.335-4.491-0.64-6.75c-0.717-5.34-2.091-10.131-3.983-15.154c-1.745-4.623-4.026-9.049-6.23-13.464
				c0-0.077-0.019-0.149-0.048-0.215c-1.021-2.091-1.983-4.199-3.034-6.278c-1.947-3.847-4.206-7.628-6.547-11.247
				c-1.303-2.014-2.658-4.038-4.11-5.949c-1.051-1.38-2.072-2.838-3.184-4.17c-1.481-1.774-2.944-3.519-4.474-5.251
				c-3.357-3.811-7.246-7.556-11.099-10.871c-1.529-1.32-3.076-2.706-4.683-3.931c-1.805-1.38-3.561-2.843-5.418-4.157
				c-4.026-2.843-7.969-5.478-12.204-8.01c-1.679-1.004-3.375-1.972-5.274-2.575c-0.759-0.514-1.529-0.997-2.294-1.475
				c3.549,1.015,7.127,1.982,10.711,2.812c3.111,0.717,6.224,1.374,9.336,2.085c-4.265-1.72-8.477-3.607-12.724-5.382
				c-4.516-1.888-9.079-3.68-13.685-5.328c-2.909-1.045-5.872-1.983-8.805-2.963c-0.705-0.232-1.403-0.466-2.103-0.699
				c-12.502-5.896-25.781-10.035-39.412-11.086c0.514-0.442,1.021-0.878,1.541-1.29c-0.436-0.329-1.75,0.394-2.216,0.609
				c-0.406,0.185-0.795,0.37-1.171,0.562c-1.547-0.09-3.094-0.138-4.647-0.138c-1.039-0.149-2.085-0.287-3.124-0.437
				c-2.969-0.43-6.099-0.663-9.098-0.83c-2.938-0.167-5.896-0.245-8.87,0.329c0.538-0.138,1.081-0.228,1.619-0.317
				c2.58-0.436,5.143-0.859,7.729-1.266c0.238-0.007,0.43-0.209,0.424-0.448s-0.209-0.431-0.448-0.424
				c-6.833-0.663-13.78-0.64-20.62-0.108C475.203-355.109,468.597-353.683,462.241-352.016z M499.091-348.414
				c-4.82,3.758-9.307,8.094-13.446,12.484c-1.583,1.673-3.226,3.381-4.868,4.994c-0.717,0.705-1.523,1.481-2.187,2.228
				c-0.274,0.281-0.274,0.747,0.007,1.021c0.28,0.275,0.746,0.275,1.021-0.006c0.586-0.657,1.285-1.308,1.918-1.93
				c1.565-1.522,3.178-3.136,4.684-4.713c2.783-2.915,5.829-5.65,8.828-8.339c1.087-0.974,2.264-1.846,3.393-2.771
				c0.412-0.34,0.896-0.65,1.29-1.003c0.634-0.562,1.5-1.147,2.198-1.649c0.078-0.06,0.155-0.119,0.233-0.173
				c3.273,0.173,6.547,0.431,9.808,0.771c-1.81,1.397-3.631,2.897-5.273,4.408c-3.083,2.825-5.985,5.884-8.979,8.805
				c-2.67,2.604-5.346,5.102-8.088,7.628c-0.138,0.12-0.144,0.341-0.023,0.479c0.119,0.137,0.34,0.143,0.478,0.023
				c5.681-5.113,11.475-10.214,17.46-14.969c1.075-0.854,2.066-1.792,3.148-2.635c1.146-0.901,2.258-1.882,3.429-2.754
				c0.286-0.221,0.573-0.436,0.865-0.65c4.331,0.514,8.644,1.171,12.927,1.971c-2.963,2.001-5.824,4.092-8.733,6.278
				c-4.229,3.166-8.225,6.672-12.316,10.005c-3.387,2.76-6.738,5.663-10.065,8.506c-0.144,0.12-0.161,0.353-0.042,0.496
				c0.12,0.144,0.353,0.161,0.496,0.042c6.792-5.8,13.763-11.283,20.967-16.552c2.699-1.972,5.524-3.812,8.362-5.579
				c1.41-0.885,2.855-1.786,4.331-2.604c4.504,0.914,8.966,2.001,11.881,3.291c-1.786,1.016-3.53,2.139-5.274,3.22
				c-4.689,2.903-9.134,6.11-13.351,9.665c-2.79,2.354-5.604,5.053-7.873,7.914c-0.203,0.239-0.173,0.615,0.065,0.818
				c0.239,0.203,0.615,0.174,0.818-0.065c1.888-2.407,4.193-4.6,6.487-6.612c6.027-5.292,13.345-9.796,20.405-13.583
				c0.328-0.191,0.495-0.574,0.257-0.962c10.8,2.927,16.021,4.874,20.931,7.55c-0.019,0.036-0.007,0.066,0.006,0.096
				c-2.145,1.607-4.271,3.237-6.416,4.845c-2.771,2.072-5.472,4.307-8.063,6.601c-1.326,1.171-2.635,2.341-3.877,3.607
				c-2.396,2.443-4.42,4.82-6.522,7.521c-0.228,0.299-0.174,0.734,0.125,0.962c0.299,0.227,0.734,0.173,0.962-0.126
				c6.522-9.115,16.772-16.115,25.996-22.453c0.292,0.083,0.585,0.167,0.878,0.263c5.382,2.066,6.373,2.568,3.931,1.679
				c1.266,0.812,2.538,1.648,3.799,2.503c-1.738,1.296-3.482,2.58-5.19,3.912c-8.022,6.212-16.015,12.347-24.217,18.32
				c-0.399,0.293-0.495,0.866-0.203,1.267c0.293,0.399,0.866,0.495,1.267,0.203c2.628-1.947,5.316-3.817,7.969-5.734
				c2.718-1.972,5.436-3.961,8.147-5.943c4.791-3.507,9.552-7.061,14.348-10.567c1.434,1.004,2.844,2.031,4.235,3.082
				c0.956,0.723,1.917,1.458,2.867,2.192c-0.681,0.657-1.355,1.314-2.055,1.953c-1.69,1.523-3.542,2.987-5.347,4.385
				c-1.72,1.332-3.464,2.712-5.227,3.979c-2.557,1.84-5.154,3.822-7.562,5.848c-1.631,1.374-3.279,2.7-4.779,4.223
				c-0.179,0.168-0.185,0.46-0.018,0.64c0.167,0.179,0.46,0.186,0.639,0.018c0.724-0.669,1.416-1.35,2.157-2.001
				c5.328-4.677,11.558-8.631,17.346-12.741c1.488-1.057,3.029-2.24,4.433-3.404c0.64-0.538,1.29-1.159,1.941-1.703
				c2.091,1.644,4.163,3.31,6.224,4.988c-5.656,3.5-10.793,7.729-15.823,12.066c-1.194,1.027-2.341,2.15-3.518,3.201
				c-1.213,1.081-2.455,2.139-3.656,3.226c-0.286,0.239-0.316,0.675-0.077,0.962c0.238,0.287,0.675,0.316,0.961,0.078
				c1.565-1.362,3.179-2.706,4.797-4.003c0.896-0.717,1.84-1.439,2.706-2.186c4.283-3.704,8.728-7.27,13.494-10.34
				c0.884-0.574,1.84-1.111,2.76-1.649c0.018,0.013,0.029,0.024,0.048,0.036c2.329,1.924,4.587,3.919,6.815,5.949
				c-7.646,4.271-14.868,11.576-20.083,18.291c-0.299,0.364-0.244,0.92,0.12,1.218c0.364,0.299,0.92,0.245,1.218-0.119
				c1.105-1.47,2.414-2.927,3.645-4.307c4.897-5.502,10.232-10.167,16.647-13.655c1.302,1.201,2.593,2.407,3.889,3.614
				c0.334,0.311,0.669,0.627,1.01,0.949c-0.622,0.526-0.741,1.458-0.251,2.127c1.039,1.523,2.084,3.059,3.124,4.594
				c-5.771,4.092-11.015,8.906-16.08,13.816c-2.318,2.239-4.767,4.623-6.924,7.013c-0.292,0.298-0.286,0.782,0.013,1.075
				c0.298,0.292,0.782,0.286,1.075-0.013c1.493-1.654,3.189-3.285,4.79-4.838c2.975-2.886,6.01-5.556,9.163-8.237
				c2.892-2.461,6.104-4.749,9.188-7.001c1.476,2.187,2.944,4.379,4.408,6.564c-0.735,0.532-1.446,1.088-2.121,1.607
				c-1.051,0.8-2.049,1.84-3.004,2.76c-0.783,0.759-1.523,1.57-2.271,2.359c-0.65,0.687-1.338,1.38-1.941,2.103
				c-0.859,1.033-1.72,2.091-2.628,3.088c-1.135,1.242-2.282,2.587-3.524,3.722c-0.472,0.43-0.974,0.83-1.439,1.267
				c-0.305,0.263-0.334,0.734-0.071,1.039s0.734,0.334,1.039,0.071c0.962-0.896,1.989-1.726,2.944-2.634
				c1.786-1.69,3.531-3.477,5.263-5.221c2.479-2.497,4.868-5.382,7.754-7.443c0.418-0.305,0.836-0.591,1.248-0.859
				c1.374,2.055,2.754,4.104,4.134,6.158c0.926,1.38,1.852,2.766,2.766,4.157c-0.341,0.311-0.675,0.627-1.004,0.95
				c-0.573,0.562-1.194,1.123-1.72,1.726c-2.407,2.778-5.071,5.389-8.632,6.512c-0.316,0.107-0.483,0.466-0.376,0.782
				s0.466,0.483,0.782,0.376c0.795-0.328,1.613-0.556,2.396-0.949c2.586-1.314,4.79-3.214,6.923-5.179
				c0.926-0.86,1.798-1.721,2.712-2.562c2.975,4.587,5.818,9.223,8.404,14.001c-0.711,0.49-1.421,0.962-2.156,1.445
				c-1.027,0.669-2.479,1.404-3.626,1.846c-0.478,0.186-1.003,0.293-1.469,0.473l0.107,0.405c0.418-0.137,0.896-0.292,1.32-0.405
				c0.65-0.18,1.618-0.651,2.245-0.944c1.284-0.609,2.671-1.32,3.973-2.072c0.794,1.493,1.565,2.998,2.306,4.527l1.941,4.229
				l0.681,1.923c0.437,1.284,0.86,2.581,1.225,3.854c0.448,1.559,0.92,3.159,1.41,4.707c1.093,3.458,2.019,7.019,2.699,10.614
				c-0.012,0.286-0.023,0.567-0.041,0.849c-0.12,1.612-0.347,3.135-0.55,4.725l-0.269,2.329l-0.454-0.603
				c-0.55-0.741-1.141-1.548-1.744-2.24c-1.732-1.989-3.435-4.057-5.251-5.968c-1.368-1.439-2.729-2.861-4.098-4.276
				c0.562-0.209,1.063-0.592,1.41-1.136c0.824-1.308,0.43-3.052-0.878-3.876c-4.971-3.166-10.096-6.141-15.244-9.044
				c-0.019-0.012-0.03-0.023-0.042-0.036c-4.456-4.157-8.793-8.374-12.998-12.782c-0.52-0.544-1.392-0.567-1.936-0.048
				s-0.567,1.392-0.048,1.935c1.78,1.864,3.572,3.722,5.37,5.562c-2.628-1.439-5.28-2.837-7.969-4.211
				c-0.818-0.538-1.66-1.069-2.496-1.589c-5.132-3.208-11.367-6.016-17.454-7.98c-2.252-1.004-4.517-1.983-6.786-2.945
				c5.245,1.171,10.34,2.826,15.137,5.048c4.276,1.983,8.028,4.253,11.856,6.988c0.508,0.353,1.213,0.233,1.565-0.274
				s0.233-1.213-0.274-1.564c-11.672-8.608-25.435-13.105-39.741-14.809c-0.029-0.006-0.06-0.012-0.096-0.012
				c-1.678-0.639-3.362-1.267-5.053-1.876c-0.818-0.305-1.738,0.114-2.043,0.933c-0.048,0.119-0.078,0.244-0.096,0.37
				c-0.968-0.054-1.947-0.096-2.927-0.138c-2.229-0.102-4.522-0.054-6.75-0.006c-4.283,0.09-8.554,0.424-12.801,0.95
				c1.206-0.634,2.413-1.249,3.596-1.853c3.555-1.821,7.072-3.649,10.167-6.182c0.358-0.245,0.441-0.747,0.196-1.105
				c-0.244-0.358-0.746-0.442-1.104-0.197c-0.64,0.347-1.236,0.776-1.864,1.135c-1.869,1.069-3.673,2.271-5.591,3.256
				c-2.867,1.476-5.848,2.957-8.631,4.569c-0.646,0.364-1.291,0.735-1.93,1.105c-0.729,0.119-1.451,0.238-2.175,0.364
				c-8.189,1.409-16.277,3.53-24.102,6.326c-1.398,0.495-2.808,1.039-4.205,1.612c0.776-0.663,1.559-1.32,2.347-1.965
				c3.327-2.748,6.738-5.376,10.305-7.813c4.802-3.279,9.808-6.702,14.957-9.414c0.173-0.084,0.239-0.305,0.155-0.478
				c-0.084-0.174-0.305-0.239-0.479-0.155c-2.962,1.38-5.889,2.831-8.715,4.474c-4.104,2.39-8.153,5.083-11.916,7.986
				c-1.542,1.188-3.041,2.407-4.57,3.614c-2.27,1.786-4.402,3.728-6.535,5.668c-0.758,0.341-1.511,0.688-2.252,1.04
				c-4.271,1.995-8.404,4.127-12.4,6.439c1.619-1.458,3.244-2.909,4.875-4.355c5.154-4.587,10.137-9.551,15.034-14.419
				c0.149-0.132,0.167-0.364,0.036-0.514c-0.132-0.149-0.364-0.167-0.514-0.036c-1.762,1.303-3.5,2.729-5.203,4.109
				c-3.237,2.629-6.415,5.251-9.533,8.022c-2.425,2.156-4.772,4.45-7.103,6.714c-1.869,1.811-3.739,3.626-5.585,5.46
				c-5.997,4.026-11.654,8.548-16.977,13.709c-9.754,9.443-17.453,20.411-22.047,32.602c-1.058,1.213-2.115,2.437-3.148,3.68
				c-8.518,10.167-16.492,20.937-24.508,31.503c-0.108,0.144-0.084,0.358,0.06,0.466c0.143,0.107,0.358,0.083,0.466-0.06
				c7.693-10.197,15.638-20.083,24.036-29.7c0.574-0.663,1.153-1.314,1.744-1.959c-1.463,4.653-2.479,9.474-2.98,14.443
				c-0.144,0.036-0.28,0.107-0.388,0.215c-8.477,8.285-14.784,18.326-21.2,28.236c-0.113,0.173-0.065,0.412,0.108,0.525
				c0.173,0.114,0.412,0.066,0.525-0.107c1.81-2.813,3.715-5.639,5.633-8.38c4.51-6.463,9.246-12.717,15.106-17.998
				c-0.155,2.318-0.197,4.671-0.125,7.055c0.023,0.92,0.089,1.846,0.19,2.76c-0.388,0.412-0.765,0.83-1.146,1.23
				c-1.29,1.344-2.61,2.67-3.919,4.002c-4.868,4.97-9.527,9.749-13.941,15.131c-0.257,0.311-0.209,0.788,0.102,1.045
				s0.788,0.209,1.045-0.102c3.859-4.898,8.291-9.121,12.747-13.458c1.774-1.727,3.584-3.495,5.412-5.173
				c0.018-0.023,0.042-0.047,0.065-0.065c0.49,2.819,1.255,5.597,2.121,8.333c-0.466,0.52-0.932,1.033-1.392,1.553
				c-4.205,4.701-8.931,9.611-12.084,15.119c-0.209,0.34-0.108,0.8,0.232,1.009s0.801,0.107,1.01-0.233
				c2.509-4.169,5.704-7.95,9.115-11.427c1.261-1.291,2.557-2.581,3.823-3.889c0.006,0.024,0.012,0.048,0.023,0.072
				c0.203,0.908,1.117,1.475,2.025,1.272c0.579-0.131,1.015-0.549,1.11-1.105c0.006,0.06,0.042,0.06,0.078,0.054
				c0.388-0.072,0.645-0.46,0.573-0.848c-0.119-0.556-0.233-1.105-0.335-1.648c0.27,0.042,0.532,0.078,0.807,0.107
				c1.613,0.173,3.214,0.334,4.82,0.484c-0.148,0.143-0.305,0.281-0.453,0.424c-1.243,1.123-2.449,2.336-3.722,3.423
				c-3.787,3.238-7.503,6.81-10.854,10.501c-0.215,0.233-0.203,0.615,0.029,0.831c0.233,0.215,0.615,0.203,0.831-0.03
				c1.66-1.798,3.314-3.584,5.143-5.221c2.031-1.822,4.098-3.584,6.135-5.394c1.248-1.111,2.652-2.18,3.847-3.339
				c0.353-0.346,0.723-0.681,1.093-1.015c0.699,0.054,1.404,0.107,2.115,0.155c2.861,0.185,5.776,0.298,8.685,0.376
				c-4.623,4.725-9.24,9.456-13.882,14.163c-0.424,0.424-0.424,1.117,0,1.541h1.541c5.09-5.065,10.203-10.107,15.388-15.077
				c0.155-0.161,0.269-0.358,0.328-0.562c0.812,0.012,1.619,0.018,2.432,0.03l14.694,0.502c-0.962,0.771-1.918,1.547-2.867,2.324
				c-5.83,4.73-11.791,9.599-16.988,15.023c-0.311,0.316-0.311,0.842,0.006,1.153s0.843,0.311,1.153-0.006
				c1.798-1.912,3.847-3.829,5.83-5.543c2.114-1.834,4.211-3.656,6.373-5.442c2.061-1.702,4.199-3.345,6.302-5
				c1.021-0.807,2.055-1.607,3.082-2.413h-0.06l0.979,0.036l-3.822,4.725c-1.535,1.726-3.07,3.446-4.588,5.149
				c-5.089,3.649-9.814,7.532-14.455,11.761c-9.743,8.871-18.846,18.494-27.734,28.212c-9.432,10.31-19.049,20.644-29.431,30.016
				c-3.244,2.927-6.648,5.705-10.101,8.381c-1.021,0.789-2.097,1.523-3.118,2.312c-1.529,1.177-3.327,2.335-4.958,3.369
				c-1.027,0.645-2.067,1.32-3.124,1.971c-0.46-0.382-0.902-0.783-1.302-1.159c-0.562-0.532-1.207-1.021-1.78-1.553
				c-1.051-0.974-2.121-1.936-3.178-2.891c-1.493-1.643-2.969-3.285-4.456-4.91c-6.804-7.437-13.834-14.527-21.02-21.594
				c-12.078-11.881-24.24-23.66-36.276-35.577c-0.979-1.153-1.947-2.317-2.903-3.482c-2.867-3.506-5.836-6.971-8.596-10.561
				c-1.553-2.019-3.19-3.996-4.719-6.039c-1.529-2.049-3.046-4.08-4.552-6.123c0.717-0.418,1.392-0.872,2.103-1.29
				c0.556-0.334,1.195-0.854,1.702-1.26c1.792-1.434,3.495-2.969,5.275-4.396c0.4-0.329,0.812-0.651,1.224-0.974
				c1.099,0,2.192-0.012,3.292-0.036c2.001-0.054,3.978-0.096,5.973-0.179c-1.32,1.212-2.616,2.449-3.924,3.655
				c-1.368,1.254-2.795,2.479-4.14,3.757c-1.648,1.571-3.524,2.915-5.221,4.415c-0.239,0.197-0.281,0.562-0.083,0.8
				s0.562,0.281,0.8,0.083c0.932-0.824,1.959-1.571,2.909-2.377c2.097-1.78,4.181-3.572,6.272-5.364
				c1.929-1.661,3.913-3.423,5.943-5.089c0.789-0.042,1.577-0.107,2.359-0.221c1.529-0.233,2.897-0.627,4.391-0.944
				c0.012-0.006,0.03-0.006,0.048-0.012c0.322,1.87,0.681,3.739,1.075,5.603c-4.725,2.921-9.038,6.128-13.153,10.047
				c-0.329,0.299-0.353,0.825-0.054,1.153c0.298,0.329,0.824,0.353,1.153,0.054c1.941-1.714,3.781-3.387,5.848-4.964
				c2.145-1.643,4.343-3.064,6.613-4.415c0.603,2.718,1.272,5.436,2.007,8.166c0.155,0.609,0.789,0.979,1.398,0.824
				s0.979-0.788,0.824-1.397c-0.818-2.874-1.541-5.812-2.168-8.793c0.502-0.287,1.01-0.573,1.523-0.854
				c0.448-0.257,0.609-0.836,0.352-1.284c-0.257-0.448-0.836-0.609-1.284-0.353c-0.334,0.185-0.657,0.376-0.985,0.567
				c-0.448-2.3-0.836-4.617-1.165-6.947c0.317-0.329,0.544-0.735,0.639-1.177c0.096-0.484-0.006-1.434-0.095-2.228
				c0.173-0.024,0.352-0.048,0.538-0.066c1.033-0.137,1.756-1.099,1.619-2.132c-0.138-1.034-1.099-1.756-2.133-1.619
				c-0.06,0.006-0.119,0.012-0.179,0.018c0.03-0.717,0.089-1.416,0.161-2.019c0.155-1.314,0.346-2.604,0.573-3.889
				c0.12,0.227,0.371,0.382,0.645,0.365c0.365-0.024,0.639-0.347,0.615-0.711c-0.197-1.834-0.287-3.662-0.03-5.496
				c-0.072,0.233-0.018,0.006,0.203-0.759c-0.454,3.244-0.346,6.434-0.161,9.6c0.292,5.053,0.693,10.143,1.362,15.166
				c0.012,0.161,0.167,0.281,0.329,0.269c0.161-0.012,0.281-0.167,0.269-0.329c-1.111-8.315-1.678-16.797-1.643-25.345
				c0.114-0.418,0.233-0.836,0.347-1.243c0.705-2.599,1.32-5.334,1.768-7.986c0.4-2.348,0.669-4.504,0.866-6.875
				c0.155-1.857-0.024-3.68,0.024-5.513c0.06-0.717-0.478-1.362-1.195-1.422c-0.054-0.006-0.107-0.006-0.155-0.012
				c3.154-18.649,11.158-36.295,22.083-51.998c0.765-1.04,1.535-2.067,2.317-3.089c2.748-3.626,5.573-7.21,8.303-10.578
				c5.459-6.309,11.2-12.066,17.221-17.383c9.103-8.046,18.631-15.131,28.875-21.653c4.134-2.628,8.404-5.125,12.705-7.467
				c3.184-1.732,6.422-3.477,9.694-5.023c2.503-1.183,4.982-2.443,7.527-3.53c6.068-2.599,12.274-5.179,18.553-7.3
				c-2.258,1.272-4.48,2.658-6.678,4.199c-0.329,0.216-0.413,0.67-0.197,0.998c0.215,0.328,0.669,0.412,0.997,0.197
				c4.826-3.405,9.897-6.177,15.185-8.243c1.618-0.525,3.249-0.998,4.904-1.434c0.394-0.107,0.794-0.215,1.141-0.305
				c0.801-0.126,1.547-0.239,2.3-0.341c1.517-0.221,3.052-0.4,4.593-0.562c-5.196,4.176-10.812,7.819-16.014,11.995
				c-4.176,3.351-8.184,6.911-11.141,11.427c-0.167,0.232-0.113,0.562,0.119,0.729c0.233,0.167,0.562,0.113,0.729-0.119
				c3.512-5.048,7.538-8.542,12.46-12.18c2.574-1.899,5.19-3.752,7.861-5.52c0.913-0.604,1.815-1.261,2.712-1.899
				c1.015-0.723,2.066-1.404,3.052-2.162c0.885-0.676,1.798-1.422,2.706-2.056c0.155-0.131,0.257-0.298,0.299-0.483
				c1.888-0.161,3.769-0.299,5.645-0.418c2.426-0.161,4.856-0.275,7.3-0.347c-0.161,0.107-0.311,0.209-0.448,0.299
				c-1.565,1.01-3.094,2.145-4.444,3.44c-0.567,0.544-1.23,1.081-1.744,1.673c-0.388,0.448-0.836,0.872-1.242,1.313
				c-0.974,1.063-1.894,2.192-2.867,3.262c-2.061,2.27-3.925,4.851-6.117,7.001c-1.2,1.177-2.461,2.521-3.828,3.5
				c-0.49,0.353-1.052,0.705-1.512,1.088c-0.269,0.19-0.334,0.579-0.144,0.848c0.191,0.269,0.579,0.335,0.849,0.144
				c0.525-0.406,1.099-0.765,1.631-1.165c0.489-0.364,0.985-0.812,1.463-1.2c1.386-1.135,2.861-2.658,4.062-3.984
				c1.021-1.129,2.097-2.216,3.105-3.363c3.543-4.014,7.891-8.638,12.879-11.152c0.131,0.377,0.55,0.58,0.932,0.46
				c2.497-0.836,4.898-1.57,7.442-2.198C496.856-348.491,497.974-348.462,499.091-348.414z M438.784-331.497
				c-2.545,2.132-5.042,4.312-7.593,6.439c-1.965,1.637-4.02,3.1-6.039,4.659c-0.143,0.102-0.173,0.311-0.071,0.453
				c0.102,0.144,0.311,0.174,0.454,0.072c1.051-0.812,2.145-1.571,3.208-2.365c1.003-0.747,1.989-1.56,2.975-2.33
				c2.616-2.031,5.143-4.193,7.759-6.23c2.886-2.252,5.699-4.276,8.728-6.302c1.099-0.734,2.306-1.517,3.482-2.132
				c0.334-0.197,0.454-0.64,0.257-0.974c-0.197-0.335-0.64-0.454-0.974-0.257C446.525-338.05,442.648-334.734,438.784-331.497z
				 M543.228-328.475c-1.326,1.386-2.688,2.754-4.014,4.146c-0.663,0.698-1.351,1.403-2.067,2.049
				c-0.692,0.621-1.409,1.397-2.132,1.953c-0.902,0.699-1.816,1.428-2.712,2.139c-0.406,0.305-0.484,0.896-0.18,1.302
				s0.896,0.484,1.303,0.18c2.921-2.169,5.621-4.647,8.165-7.252c3.967-4.056,8.333-8.571,13.374-11.308
				c0.55-0.328,0.729-1.045,0.4-1.595c-0.328-0.55-1.045-0.729-1.595-0.4C549.924-335.242,546.19-331.575,543.228-328.475z
				 M401.881-326.438c-5.274,3.267-10.394,6.576-15.405,10.238c-13.386,9.778-25.781,21.038-36.384,33.755
				c-2.855,2.844-5.537,5.818-8.076,8.924c1.577-2.49,3.243-4.939,5.029-7.341c1.219-1.643,2.443-3.357,3.763-4.916
				c1.183-1.403,2.372-2.85,3.536-4.271c-1.535,1.511-0.567,0.37,0.562-0.646c0.615-0.741,1.302-1.464,1.947-2.175
				c2.013-2.258,4.169-4.426,6.326-6.54c9.838-9.653,21.641-18.326,33.684-25.022c2.813-1.571,5.639-3.053,8.644-4.14
				C404.271-327.901,403.058-327.173,401.881-326.438z M618.964-290.365l0.263,0.341l-0.006-0.006L618.964-290.365z
				 M619.704-289.511l-0.131-0.215l0.549,0.86l-0.896-1.159C619.388-289.852,619.543-289.684,619.704-289.511z M634.954-273.705
				c1.093,1.798,2.15,3.626,3.166,5.489c-0.316,0.209-0.472,0.627-0.335,1.01c0.323,1.612,0.711,3.261,1.1,4.88
				c-0.233,0.18-0.46,0.364-0.681,0.55c-0.036-0.054-0.066-0.107-0.09-0.155l-0.604-1.033l-0.215-0.437l0.107,0.215
				c-0.567-1.815-1.236-3.584-1.852-5.388c-0.64-1.882-1.595-4.026-2.461-5.818c-0.4-0.83-0.789-1.66-1.195-2.484
				C632.911-275.826,633.933-274.769,634.954-273.705z M559.93-271.37c0.884,0.341,1.779,0.688,2.676,1.04
				c-4.044-0.562-8.268-0.765-12.341-0.807c-7.742-0.084-15.555,0.651-23.255,2.061c3.549-0.734,7.198-1.284,10.729-1.708
				C544.918-271.662,552.444-271.925,559.93-271.37z M522.931-268.198c0.035-0.023,0.071-0.054,0.71-0.113
				c0.239-0.065,0.502-0.125,3.143-0.55C525.487-268.676,524.196-268.449,522.931-268.198z M518.791-267.057
				c-0.688,0.173-1.386,0.353-2.085,0.537c-0.878,0.221-1.786,0.52-2.658,0.795c1.541-0.586,3.231-1.117,5.012-1.583
				C518.97-267.225,518.887-267.146,518.791-267.057z M454.918-250.062c-4.199,3.895-8.207,8.01-12.209,12.096
				c-3.656,3.728-7.24,7.705-10.585,11.707c-4.517,5.4-8.817,10.998-12.503,17.001c-0.119,0.19-0.071,0.454,0.12,0.573
				c0.19,0.119,0.454,0.072,0.573-0.119c3.751-6.111,8.231-11.727,12.962-17.096c1.207-1.368,2.438-2.748,3.716-4.045
				c1.804-1.833,3.554-3.744,5.424-5.519c1.917-1.816,3.829-3.632,5.746-5.448c3.363-3.178,6.917-6.158,10.322-9.3
				c2.419-2.229,4.874-4.415,7.275-6.66c2.849-2.658,5.645-5.37,8.482-8.034c0.311-0.281,0.34-0.777,0.06-1.088
				c-0.281-0.311-0.776-0.34-1.088-0.06C466.996-260.904,460.838-255.553,454.918-250.062z M639.679-258.981
				c-0.292-0.562-0.585-1.116-0.878-1.672c0.144-0.09,0.281-0.18,0.425-0.269C639.375-260.277,639.529-259.632,639.679-258.981z
				 M462.767-238.701c-0.621,0.495-0.305,0.221,0.036-0.03C462.791-238.726,462.779-238.714,462.767-238.701z M449.243-224.998
				c0.753-1.136,1.606-2.115,2.473-3.064c1.912-2.109,3.901-4.14,5.849-5.979C454.673-231.271,451.758-228.152,449.243-224.998z
				 M602.662-228.822c-0.041,0.019-0.083,0.043-0.083,0.096c-0.228-0.185-0.479-0.137-0.724-0.053
				c-0.25,0.065-0.507,0.148-0.77,0.25c-0.019-0.018-0.036-0.035-0.055-0.047c-0.148-0.15-0.406-0.156-0.555-0.006
				c-0.096,0.089-0.132,0.227-0.114,0.352c-1.624,0.734-3.368,1.869-4.629,2.76c-1.386,0.974-2.813,1.899-4.163,2.927
				c-1.41,1.069-2.903,2.288-4.349,3.28c-0.508,0.346-1.058,0.848-1.548,1.236c-1.48,1.164-2.95,2.329-4.402,3.529
				c-3.226,2.664-6.469,5.316-9.658,8.022c-10.418,8.841-20.59,17.908-30.721,27.083c-0.854,0.765-1.703,1.535-2.557,2.312
				c1.529-1.655,3.058-3.303,4.605-4.934c13.332-14.091,27.011-27.519,42.691-38.964c0.28-0.209,0.34-0.615,0.131-0.896
				c-0.209-0.28-0.615-0.34-0.896-0.131c-23.763,17.34-43.576,39.232-63.658,60.563c-0.573,0.597-1.141,1.201-1.685,1.786
				c-1.828,1.726-3.626,3.44-5.412,5.167c-2.126,2.042-4.324,4.104-6.385,6.212c-1.069,1.093-2.217,2.258-3.333,3.303
				c-1.063,0.992-2.229,2.157-3.208,3.226c-1.069,1.165-2.264,2.354-3.387,3.471c-0.92,0.908-1.834,1.912-2.718,2.903
				c-0.521,0.347-1.04,0.687-1.554,1.034c-0.466,0.287-0.729,0.771-0.52,1.338c-0.036,0.03-0.06,0.066-0.084,0.102
				c-0.28,0.358-0.633,0.776-1.003,1.236c-0.968,0.932-1.93,1.858-2.879,2.795c-0.556,0.526-0.574,1.416-0.048,1.972
				c0.244,0.257,0.573,0.4,0.926,0.018c-0.042,0.072-0.024,0.138,0,0.203c-3.339-0.316-6.69-0.543-10.102-0.603
				c-0.143-0.024-0.292,0.078-0.316,0.221c-0.023,0.144,0.078,0.293,0.222,0.317c3.291,0.998,6.392,2.049,9.802,2.652
				c1.888,0.329,3.775,0.567,5.692,0.645c0.126,0.06,0.197,0.078,0.263,0.096c1.094,0.257,2.139,0.532,3.25,0.771
				c2.139,0.466,4.54,0.646,6.72,0.831c3.304,0.281,6.69,0.352,10.006,0.442c2.049,0.06,4.169,0.179,6.212,0.107
				c3.9-0.137,7.813-0.143,11.708,0.083c1.505,0.084,3.082,0.233,4.575,0.466c1.248,3.172,1.905,6.158,2.073,9.599
				c0.071,1.445,0.167,2.945,0.077,4.39c-0.113,1.899-0.161,3.781-0.448,5.675c-0.382,2.527-0.896,5.06-1.522,7.538
				c-0.287,1.129-0.615,2.401-1.021,3.632c-1.063,2.21-2.312,4.51-3.62,6.619c-0.228,0.269-0.448,0.532-0.621,0.794
				c-0.065,0.072-0.12,0.144-0.084,0.251c-0.203,0.37-0.215,0.394-0.227,0.418c-0.956,1.439-1.888,2.969-2.915,4.354
				c-0.926,1.243-1.84,2.491-2.766,3.733c-1.41,1.899-3.064,3.853-4.653,5.597c-0.914,1.003-1.792,2.067-2.748,3.034
				c-2.532,2.557-5.023,5.054-7.699,7.479c-0.723,0.651-1.458,1.29-2.216,1.935c1.392-1.72,2.777-3.429,4.133-5.161
				c2.204-2.82,4.402-5.687,6.654-8.464c-0.848,0.609-1.589,1.386-2.354,2.097c-1.2,1.123-2.377,2.276-3.565,3.417
				c-3.841,3.68-7.718,7.736-11.093,11.845c-0.92,1.111-1.822,2.234-2.724,3.363c-3.076,2.276-6.261,4.45-9.486,6.439
				c-1.009,0.615-2.013,1.219-3.017,1.81c0.149-0.424-0.006-0.92-0.394-1.171c-0.46-0.299-1.094-0.167-1.392,0.292
				c-0.807,1.045-1.554,2.133-2.307,3.214c-3.207,1.774-6.475,3.417-9.886,4.94c-2.191,0.944-4.42,1.828-6.684,2.652
				c0.191-0.257,0.37-0.508,0.556-0.759c0.292-0.299,0.286-0.794-0.013-1.087c-0.298-0.293-0.794-0.287-1.087,0.012
				c-1.38,0.998-2.634,2.139-3.841,3.333c-3.649,1.171-7.365,2.18-11.116,3.017c1.857-1.672,3.728-3.339,5.65-4.916
				c-2.885,1.744-5.836,3.566-8.625,5.537c-8.757,1.727-17.705,2.503-26.54,2.222c-7.114-0.872-14.317-2.777-21.062-5.095
				c-6.553-2.258-12.741-5.119-19.115-7.801c-4.325-1.822-8.572-3.823-12.836-5.77c-1.404-0.645-2.778-1.332-4.158-2.007
				c-3.907-3.046-7.801-6.075-11.648-9.169c0.096-0.263,0.072-0.567-0.083-0.812c-0.173-0.269-0.466-0.412-0.801-0.173
				c-0.872-0.418-3.572-2.616-6.236-4.875c-0.036-0.227-0.167-0.436-0.364-0.579c-0.162-0.114-0.341-0.167-0.52-0.173
				c-0.842-0.723-1.685-1.452-2.515-2.18c-4.056-3.56-7.915-7.443-11.552-11.427c-0.598-0.645-1.619-0.687-2.264-0.089
				c-0.645,0.597-0.687,1.619-0.089,2.264c1.236,1.362,2.497,2.7,3.775,4.014c-0.036,2.694,0.012,5.501,0.209,8.142
				c0.125,1.78,0.269,3.536,0.454,5.287c-0.556,0.185-1.105,0.388-1.678,0.597c-0.323,0.113-0.49,0.472-0.376,0.794
				c0.113,0.323,0.472,0.49,0.794,0.376c0.46-0.191,0.926-0.358,1.397-0.508c0.191,1.661,0.424,3.315,0.723,5
				c0.257,1.476,0.597,2.921,0.896,4.385c0.639,3.1,1.672,6.242,2.694,9.234l0.896,2.527l-1.332-2.748
				c-0.962-2.103-1.87-4.235-2.73-6.403c-4.396-11.063-7.658-23.29-6.708-35.273c0.048-0.782-0.543-1.469-1.326-1.517
				c-0.782-0.048-1.469,0.543-1.517,1.326c-0.125,1.738-0.233,3.417-0.215,5.161c0.102,10.812,2.993,22.376,6.678,32.5
				c1.792,4.928,3.817,9.898,6.086,14.796c-0.107,0.137-0.131,0.34-0.048,0.514c0.998,2.108,1.989,4.187,3.035,6.278
				c2.091,4.181,4.653,8.452,7.258,12.335c2.544,3.799,5.292,7.287,8.171,10.83c2.396,2.951,5.256,5.919,7.998,8.554
				c7.246,6.971,15.125,13.159,23.648,18.494c4.516,2.825,9.104,5.316,13.847,7.724c6.104,3.1,12.627,5.77,19.187,8.034
				c7.651,4.479,16.223,7.484,24.962,9.408c2.706,0.597,5.562,1.135,8.31,1.481c1.35,0.167,2.693,0.382,4.043,0.543
				c3.77,0.46,7.784,0.735,11.577,0.86c7.257,0.245,14.551,0.191,21.803-0.263c5.214-0.323,10.381-0.801,15.578-1.344
				c7.335-0.771,14.683-1.792,21.964-2.969c3.793-0.609,7.592-1.236,11.355-2.037c2.078-0.442,4.163-0.8,6.23-1.308
				c2.27-0.556,4.485-1.159,6.714-1.804c-0.144,0.281-0.144,0.639,0.035,0.926c0.27,0.43,0.849,0.567,1.278,0.299
				c1.709-1.105,3.513-2.133,5.203-3.256c1.146-0.37,2.294-0.74,3.446-1.093c0.508-0.096,0.837-0.591,0.741-1.099
				c-0.03-0.149-0.096-0.287-0.18-0.4c0.174-0.113,0.353-0.233,0.532-0.353c3.058-2.09,6.141-4.169,9.139-6.343
				c4.271-3.101,8.429-6.374,12.467-9.737c1.648-1.177,3.243-2.389,4.809-3.65c1.726-1.397,3.554-2.819,5.173-4.331
				c0.102-0.102,0.209-0.203,0.269-0.263c0.675-0.526,1.309-0.998,1.924-1.493c3.213-2.61,6.35-5.364,9.324-8.244
				c1.039-1.009,2.138-2.037,3.159-3.088c0.03,0.012,0.055,0.03,0.084,0.048c0.765,0.418,1.738,0.137,2.156-0.627
				c0.776-1.452,1.565-2.903,2.354-4.366c0.956-1.034,1.899-2.097,2.819-3.196c4.791-5.752,9.295-11.887,13.094-18.344
				c2.007-3.411,3.925-6.821,5.651-10.388c0.896-1.852,1.821-3.691,2.604-5.597c1.751-4.265,3.603-8.506,4.94-12.926
				c0.358-1.195,0.8-2.377,1.129-3.578c0.968-3.506,1.978-6.953,2.766-10.513c0.012-0.066,0.023-0.131,0.03-0.203
				c0.752-2.091,1.367-4.223,1.977-6.362c0.771-2.724,1.512-5.573,2.103-8.338c0.812-3.793,1.416-7.616,1.989-11.451
				c0.263-1.392-0.657-2.742-2.049-3.004c-0.077-0.018-0.155-0.03-0.232-0.036c0.322-7.962,0.148-15.937-0.467-23.869
				c0.496,0.179,1.04,0.239,1.602,0.161c2.891-0.49,6.033-0.687,8.989-0.932c5.86-0.484,11.726-0.962,17.58-1.487
				c2.998-0.269,6.068-0.562,9.025-1.04c1.302-0.209,2.616-0.406,3.895-0.747c0.466-0.125,0.95-0.323,1.404-0.43l0.322-0.167
				c0.872-0.43,1.422-1.009,1.72-1.899c1.523-0.065,3.047-0.143,4.564-0.137c0.447,0,0.806-0.371,0.806-0.818
				c0-0.448-0.37-0.807-0.818-0.807c-1.487,0.024-2.969-0.018-4.443-0.06c-0.078-0.305-0.197-0.597-0.358-0.896
				c-0.27-0.496-0.538-0.693-0.938-1.069c-0.161-0.012-0.723-0.555-1.141-0.985c0.328-0.161,0.663-0.311,1.004-0.46
				c0.143,0.149,0.286,0.305,0.436,0.46c0.233,0.245,0.634,0.251,0.878,0.018c0.239-0.233,0.245-0.615,0.012-0.86
				c0.812-0.478,1.667-0.759,2.503-0.979c0.412-0.12,0.646-0.568,0.526-0.98c-0.12-0.412-0.567-0.645-0.98-0.525
				c-1.099,0.364-2.252,0.663-3.32,1.123c-8.745-9.193-17.514-18.344-26.331-27.448c-9.043-11.654-18.529-22.997-28.35-33.988
				c-4.826-5.4-9.616-10.895-14.539-16.235c0.49-0.239,0.986-0.46,1.487-0.669c0.484-0.215,0.693-0.794,0.479-1.278
				c-0.215-0.484-0.795-0.693-1.278-0.479c-0.699,0.311-1.374,0.633-2.031,0.974c-0.991-1.063-1.989-2.12-2.992-3.166
				c-1.846-1.929-3.698-3.829-5.567-5.71c-1.004-1.207-2.007-2.408-2.957-3.645c-1.625-2.114-3.291-4.234-4.934-6.331
				c-0.818-1.046-1.978-2.557-2.545-3.733C604.974-228.965,603.689-229.365,602.662-228.822z M438.372-223.732
				c-1.428,1.529-2.766,3.094-4.157,4.641c-2.432,2.701-4.887,5.4-7.384,8.041c-2.323,2.455-4.617,5.023-6.821,7.592
				c-4.558,5.305-8.59,10.525-11.994,16.654c-0.096,0.167-0.036,0.382,0.131,0.478c0.168,0.095,0.383,0.036,0.479-0.132
				c0.836-1.427,1.66-2.819,2.532-4.229c1.774-2.879,4.056-5.836,6.219-8.446c6.887-8.321,14.879-15.632,21.82-23.87
				c0.197-0.227,0.179-0.579-0.048-0.776S438.569-223.959,438.372-223.732z M443.037-216.707c1.541-2.402,3.285-4.737,5.155-6.989
				C446.155-221.176,444.477-218.895,443.037-216.707z M604.162-222.347c1.236,1.727,2.574,3.381,3.841,5.083
				c0.591,0.801,1.284,1.565,1.863,2.372c0.389,0.55,0.849,1.063,1.261,1.595c1.218,1.57,2.467,3.118,3.703,4.671
				c0.747,0.933,1.493,1.87,2.229,2.796c-0.216-0.203-0.442-0.424-0.67-0.639c-0.901-0.861-1.798-1.715-2.705-2.563
				c0-0.286-0.107-0.573-0.329-0.782c-0.232-0.221-0.531-0.316-0.824-0.299c-4.104-3.835-8.273-7.604-12.412-11.402
				c0.34-0.222,0.687-0.437,1.039-0.646c0.46-0.281,1.69-0.985,2.323-1.147C603.708-222.986,603.929-222.669,604.162-222.347z
				 M600.178-220.596c0.52,0.704,1.392,1.559,2.007,2.228c1.738,1.894,3.446,3.829,5.185,5.729c1.177,1.284,2.359,2.556,3.549,3.817
				c-0.771,0.824-1.535,1.643-2.307,2.467c-2.275,2.419-4.713,4.742-7.048,7.108c-6.075,6.158-12.467,12.162-17.287,19.396
				c-0.209,0.304-0.138,0.734,0.167,0.943c0.305,0.209,0.735,0.138,0.944-0.167c3.596-5.418,8.207-10.059,12.824-14.605
				c2.646-2.604,5.412-5.101,8.095-7.669c2.055-1.971,4.062-3.937,6.068-5.931c1.936,2.042,3.883,4.055,5.848,6.057
				c-1.469,1.183-2.885,2.467-4.307,3.864c-1.069,1.052-2.055,2.174-3.1,3.232c-1.195,1.207-2.265,2.628-3.394,3.906
				c-1.595,1.804-3.082,3.746-4.6,5.621c-1.988,2.461-4.002,4.928-5.967,7.401c-0.233,0.287-0.191,0.711,0.096,0.944
				c0.286,0.233,0.711,0.191,0.943-0.096c4.021-5.053,8.166-10.083,12.437-14.933c2.682-3.052,5.765-6.099,9.151-8.655
				c2.688,2.718,5.394,5.417,8.124,8.112c-0.837,0.609-1.661,1.194-2.485,1.822c-1.66,1.249-3.243,2.712-4.755,4.133
				c-5.447,5.131-10.734,11.786-13.805,18.643c-0.167,0.364-0.006,0.812,0.359,0.979c0.364,0.167,0.812,0.006,0.979-0.358
				c3.339-7.317,8.374-12.968,14.222-18.38c2.002-1.858,4.475-3.739,7.025-5.322c0.627,0.621,1.26,1.236,1.894,1.864
				c1.685,2.084,3.368,4.181,5.065,6.266c-0.974,0.723-1.978,1.397-2.928,2.156c-1.164,0.926-2.275,1.888-3.41,2.843
				c-2.097,1.762-4.086,3.841-5.985,5.818c-2.593,2.706-5.144,5.729-7.329,8.775c-1.201,1.679-2.449,3.405-3.482,5.191
				c-0.18,0.292-0.096,0.687,0.197,0.866c0.292,0.179,0.687,0.095,0.865-0.197c1.41-2.533,3.495-5.239,5.341-7.484
				c5.06-6.165,11.247-11.965,18.039-16.331c1.673,2.079,3.352,4.145,5.042,6.218c3.596,4.402,7.275,8.727,10.961,13.052
				c-4.492,2.784-8.793,7.073-11.977,10.914c-2.574,3.1-5.096,6.242-7.503,9.474c-0.704,0.944-1.386,2.055-2.03,3.052
				c-0.615,0.944-1.314,1.84-1.924,2.784c-0.209,0.299-0.144,0.723,0.155,0.932c0.299,0.209,0.723,0.144,0.932-0.155
				c1.326-1.983,2.927-3.745,4.373-5.633c0.752-0.985,1.481-1.977,2.27-2.939c0.663-0.806,1.296-1.648,1.965-2.455
				c3.196-3.829,6.852-7.646,10.771-10.74c1.451-1.147,3.004-2.306,4.623-3.286c1.852,2.168,3.697,4.343,5.537,6.529
				c0.502,0.603,1.01,1.207,1.523,1.81c-0.293-0.065-0.604-0.018-0.866,0.162c-4.265,2.897-8.393,6.535-11.94,10.274
				c-3.62,3.817-7.168,8.016-9.51,12.759c-0.161,0.311-0.042,0.705,0.269,0.866c0.311,0.162,0.705,0.042,0.866-0.269
				c2.109-4.104,5.012-7.729,8.231-11.021c0.896-0.914,1.852-1.738,2.76-2.628c1.972-1.924,4.385-3.907,6.648-5.49
				c1.261-0.884,2.574-1.881,3.918-2.628c0.341-0.227,0.515-0.615,0.496-0.991c2.342,2.759,4.707,5.519,7.091,8.237
				c0.077,0.084,0.148,0.173,0.227,0.263c-1.093,1.153-2.187,2.312-3.291,3.44c-4.062,4.146-8.106,8.309-12.204,12.418
				c-0.43,0.43-0.43,1.147,0,1.577h1.577c5.131-5.239,10.441-10.274,15.698-15.375c1.01,1.183,2.013,2.366,3.028,3.542
				c1.105,1.278,2.282,2.557,3.339,3.871c1.661,2.055,3.542,4.02,5.263,6.027l3.148,3.519l-10.639,1.105
				c-0.729-0.006-1.452-0.012-2.175-0.018c-2.484-0.024-5.054,0.036-7.538,0.155c-1.702,0.084-3.488,0.12-5.179,0.329
				c-1.243,0.155-2.474,0.412-3.68,0.723c-1.577,0.149-3.095,0.406-4.684,0.884c-0.196,0.03-0.382,0.066-0.543,0.113
				c-0.448,0.06-0.854,0.209-1.219,0.424c-0.132-1.225-0.269-2.449-0.389-3.673c-0.012-0.162-0.167-0.281-0.328-0.269
				c-0.161,0.012-0.28,0.167-0.269,0.329c0.131,1.302,0.263,2.61,0.4,3.924c-0.831,0.364-1.583,0.842-2.271,1.398
				c-0.556-0.46-1.296-0.699-2.066-0.598c-1.464,0.191-2.497,1.547-2.306,3.011c0.119,1.213,0.238,2.413,0.347,3.602
				c-0.186,0.305-0.312,0.645-0.364,1.015c-0.049,0.353-0.096,0.705-0.144,1.063c-1.094,1.29-2.181,2.586-3.298,3.859
				c-2.957,3.345-5.89,6.786-8.644,10.298c-2.562,3.262-5.214,6.744-7.228,10.37c-0.598,1.069-1.248,2.115-1.792,3.226
				c-0.144,0.263-0.042,0.604,0.222,0.747c0.263,0.143,0.603,0.042,0.746-0.221c3.967-7.855,10.131-14.659,16.062-21.056
				c1.158-1.26,2.336-2.509,3.512-3.751c-0.173,1.463-0.334,2.933-0.507,4.402c-0.257,2.108-0.521,4.223-0.777,6.337
				c-1.254,1.344-2.425,2.874-3.518,4.331c-1.811,2.407-3.507,4.821-5.197,7.312c-1.876,2.76-3.715,5.549-5.627,8.285
				c-1.493,2.138-3.082,4.169-4.653,6.248c-0.096,0.12-0.071,0.299,0.048,0.394c0.12,0.096,0.299,0.072,0.395-0.047
				c0.794-1.075,1.667-2.097,2.467-3.16c1.027-1.368,2.073-2.76,3.07-4.146c4.032-5.603,7.998-11.11,12.651-16.158
				c-0.149,1.266-0.299,2.533-0.43,3.799c-0.496,4.528-1.039,9.115-1.439,13.691c-1.052,1.267-2.108,2.533-3.172,3.793
				c-5.441,6.434-10.812,12.664-15.627,19.599c-0.179,0.257-0.119,0.615,0.138,0.794s0.615,0.12,0.795-0.137
				c4.318-6.314,9.354-11.833,14.551-17.413c1.01-1.093,2.031-2.174,3.053-3.255c-0.072,1.069-0.132,2.133-0.18,3.202
				c-0.036,0.55,0.18,1.063,0.55,1.422c-0.102,0.424-0.203,0.848-0.287,1.278c-0.191,0.926-0.46,1.852-0.692,2.771
				c-0.812,3.244-1.732,6.41-2.688,9.587c-0.322,0.4-0.645,0.806-0.968,1.212c-5.113,6.392-9.921,13.04-14.945,19.497
				c-0.102,0.131-0.071,0.329,0.06,0.43c0.132,0.102,0.329,0.071,0.431-0.06c4.749-6.117,9.533-12.395,14.604-18.38
				c-0.144,0.478-0.293,0.962-0.436,1.446c-1.583,5.185-3.555,10.37-5.502,15.429c-0.549,1.422-1.111,2.837-1.685,4.241
				c-1.338,1.864-2.747,3.698-4.151,5.472c-2.927,3.674-6.015,7.246-8.924,10.925c-0.215,0.257-0.18,0.651,0.077,0.866
				c0.257,0.215,0.651,0.179,0.866-0.078c3.226-3.847,6.535-7.646,9.755-11.505c-0.669,1.571-1.344,3.154-2.037,4.725
				c-2.354,3.662-4.73,7.299-7.252,10.865c-2.204,3.106-4.45,6.218-6.779,9.229c-1.242,1.607-2.413,3.321-3.71,4.88
				c-1.355,1.631-2.705,3.286-4.05,4.922c-2.509,3.07-5.507,6.099-8.356,8.858c-0.771,0.747-1.595,1.452-2.365,2.198
				c-0.891,0.86-1.857,1.702-2.844,2.521c-0.89,0.622-1.785,1.237-2.688,1.84c-1.709,1.129-3.477,2.18-5.209,3.279
				c-2.693,1.708-5.723,3.405-8.565,4.856c-2.485,1.272-5.03,2.706-7.593,3.805c-1.846,0.794-3.745,1.667-5.572,2.515
				c-0.926,0.43-1.918,0.8-2.861,1.195c-3.477,1.463-7.043,2.718-10.609,3.948c-10.566,3.65-21.832,6.254-32.877,7.897
				c-32.143,4.784-65.897,1.869-96.219-9.981c-1.266-0.926-2.473-1.894-3.644-2.909c0.431,0.024,0.866,0.054,1.303,0.089
				c0.418,0.054,0.806-0.239,0.86-0.657c0.054-0.418-0.239-0.807-0.657-0.86c-1.368-0.329-2.79-0.657-4.182-1.051
				c-1.547-1.529-3.005-3.16-4.366-4.892c-0.233-0.281-0.663-0.316-0.944-0.084c-0.28,0.233-0.316,0.663-0.083,0.944
				c0.836,1.075,1.702,2.108,2.61,3.106c-0.86-0.323-1.727-0.633-2.581-0.962c-1.01-0.394-2.019-0.872-3.022-1.29
				c-1.72-0.717-3.398-1.667-5.065-2.497c-2.09-1.045-4.085-2.234-6.062-3.477c-1.488-0.938-2.999-1.852-4.433-2.879
				c-6.738-4.827-12.759-10.364-18.177-16.486c-0.144-0.49-0.406-0.974-0.723-1.422c-1.189-1.654-2.365-3.429-3.495-5.131
				c-2.025-3.052-4.109-6.069-5.949-9.247c-1.511-2.623-2.999-5.233-4.492-7.867c-0.645-1.141-1.248-2.335-1.846-3.506
				c-1.923-3.775-3.745-7.658-5.334-11.588c-2.658-6.583-4.803-13.518-6.792-20.333c-0.454-1.553-0.902-3.1-1.333-4.647
				c0.06-0.018,0.12-0.03,0.186-0.042c0.538-0.125,1.105-0.323,1.643-0.43c1.272-0.251,2.73-0.95,3.889-1.535
				c0.334-0.173,0.741-0.448,1.141-0.771l-0.107-0.09l4.821,4.247c-1.917,1.356-3.77,2.837-5.143,4.671
				c-0.633,0.842-1.105,1.654-1.625,2.574c-0.173,0.317-0.06,0.729,0.257,0.902c0.317,0.173,0.729,0.06,0.902-0.257
				c1.38-2.623,2.861-3.931,5.239-5.711c0.197-0.155,0.406-0.292,0.621-0.43c0.108,0.597,0.43,1.159,0.95,1.565
				c1.553,1.278,3.16,2.521,4.767,3.751c-3.381,2.533-6.63,6.463-8.327,10.012c-0.191,0.358-0.054,0.806,0.305,0.997
				c0.358,0.191,0.807,0.054,0.998-0.304c2.043-4.062,4.868-7.061,8.5-9.576c0.585,0.448,1.171,0.89,1.75,1.344
				c2.395,1.852,4.802,3.697,7.198,5.561c-0.323,0.341-0.657,0.675-1.045,0.998c-3.004,2.425-5.304,3.739-6.965,7.276
				c-0.173,0.364-0.024,0.812,0.34,0.985s0.812,0.024,0.986-0.34c0.806-2.246,3.124-4.074,4.994-5.406
				c0.549-0.394,1.219-0.818,1.726-1.248c0.484-0.406,0.914-0.794,1.344-1.195c1.78,1.392,3.548,2.79,5.298,4.211
				c0.639,0.514,1.326,0.974,1.953,1.493c0.245,0.203,0.55,0.466,0.878,0.747c-2.031,1.631-4.074,3.279-6.063,4.952
				c-3.22,2.694-6.434,5.25-9.462,8.171c-0.269,0.251-0.287,0.687-0.036,0.956c0.25,0.269,0.687,0.287,0.956,0.036
				c3.148-3.035,6.564-5.729,9.981-8.446c1.386-1.105,2.801-2.181,4.181-3.286c0.562-0.454,1.135-0.932,1.72-1.374l0.006,0.012
				l0.292,0.215c0.287,0.197,0.556,0.353,0.794,0.454c0.878,0.364,1.906,0.155,2.61-0.472l0.316-0.251l0.191-0.358
				c0.34-0.598,0.448-1.135,0.382-1.637c2.264,1.254,4.587,2.419,6.953,3.5c-0.616,0.496-1.231,0.998-1.834,1.493
				c-5.191,4.217-10.041,9.253-14.097,14.563c-0.257,0.323-0.203,0.794,0.12,1.051c0.322,0.257,0.794,0.203,1.051-0.12
				c2.216-2.837,4.582-5.626,7.204-8.1c3.118-2.957,6.266-5.525,9.611-7.975c3.399,1.47,6.87,2.778,10.358,3.955
				c-0.472,0.364-0.95,0.729-1.416,1.093c-5.035,3.876-9.999,8.1-14.157,12.92c-0.179,0.197-0.167,0.508,0.03,0.687
				c0.197,0.179,0.508,0.167,0.687-0.03c4.796-5.567,10.549-9.939,16.528-14.121c0.126,0.042,0.251,0.084,0.377,0.125
				c3.733,1.195,7.496,2.294,11.331,3.118c0.042,0.006,0.09,0.018,0.138,0.03c-2.223,1.899-4.45,3.811-6.625,5.765
				c-3.542,3.171-7.323,6.762-9.981,10.722c-0.167,0.227-0.113,0.556,0.114,0.723c0.227,0.167,0.555,0.113,0.723-0.114
				c3.554-5.101,8.476-9.282,13.338-13.111c1.487-1.177,2.963-2.377,4.444-3.554c0.579,0.12,1.159,0.227,1.744,0.323
				c2.127,0.322,4.235,0.729,6.374,0.974c-4.259,4.014-7.855,8.261-11.601,12.854c-0.227,0.281-0.185,0.705,0.096,0.932
				c0.28,0.227,0.705,0.186,0.932-0.095c3.853-4.755,7.992-9.504,12.712-13.5c1.606,0.114,3.195,0.251,4.814,0.281
				c0.489,0.006,0.985,0.06,1.475,0.036c0.765-0.036,1.548,0.012,2.312-0.018c0.859-0.036,1.768-0.102,2.616-0.107
				c0.245-0.006,0.501-0.018,0.765-0.036c-0.729,0.705-1.452,1.41-2.175,2.126c-2.246,2.204-4.337,4.444-6.445,6.762
				c-0.884,0.968-1.708,2.007-2.568,2.993c-1.631,1.863-3.285,3.978-4.725,5.997c-0.233,0.305-0.167,0.752,0.137,0.985
				c0.305,0.233,0.753,0.167,0.986-0.137c3.578-4.743,7.275-8.984,11.486-13.177c2.037-2.037,4.163-3.972,6.32-5.872
				c3.034-0.323,5.979-0.86,8.966-1.481c0.854-0.179,1.708-0.371,2.562-0.574c-3.471,3.482-7.049,6.953-10.292,10.645
				c-1.667,1.894-3.346,3.781-4.916,5.764c-1.243,1.565-2.413,3.148-3.603,4.755c-0.227,0.305-0.155,0.747,0.149,0.974
				s0.747,0.155,0.974-0.149c1.23-1.84,2.819-3.823,4.266-5.508c1.612-1.881,3.226-3.811,4.964-5.579
				c3.261-3.309,6.517-6.529,9.939-9.688c0.8-0.741,1.601-1.481,2.401-2.228c4.778-1.344,9.474-3.022,14.066-4.869
				c1.44-0.585,2.969-1.2,4.444-1.857c-0.347,0.424-0.698,0.842-1.051,1.26c-0.974,1.135-1.905,2.306-2.88,3.447
				c-2.15,2.521-4.336,5.023-6.511,7.526c-3.44,3.972-6.982,7.968-10.172,12.144c-0.251,0.317-0.197,0.789,0.119,1.04
				s0.788,0.197,1.039-0.12c5.89-7.592,12.705-14.593,19.108-21.749c1.691-1.888,3.423-3.847,5.065-5.824
				c3.304-1.655,6.589-3.345,9.791-5.185c-0.06,0.084-0.12,0.167-0.174,0.257c-1.547,2.229-3.017,4.492-4.474,6.78
				c-0.538,0.848-1.123,1.703-1.631,2.569c-2.275,3.847-4.438,7.628-6.547,11.576c-0.197,0.37-0.054,0.848,0.316,1.045
				c0.371,0.197,0.849,0.054,1.046-0.317c4.516-8.589,9.736-16.666,15.561-24.395c1.194-0.765,2.413-1.505,3.613-2.27
				c1.021-0.651,2.001-1.398,3.011-2.073c2.359-1.577,4.779-3.327,7.007-5.078c2.897-2.27,5.663-4.611,8.44-7.024
				c0.592-0.514,1.129-1.075,1.708-1.595c0.962-0.86,2.02-1.815,2.909-2.735c1.702-1.756,3.387-3.482,5.054-5.281
				c1.183-1.272,2.27-2.557,3.393-3.882c0.49-0.58,1.016-1.159,1.47-1.756c1.021-1.35,2.126-2.652,3.112-4.032
				c1.146-1.606,2.245-3.202,3.351-4.832c1.834-2.7,3.387-5.657,4.904-8.548c1.058-2.019,2.18-4.265,2.915-6.421
				c0.525-1.547,1.177-3.19,1.571-4.767c0.376-1.512,0.824-2.981,1.158-4.504c1.84-3.22,3.854-6.332,6.045-9.277
				c0.245-0.353,0.168-0.848-0.185-1.093c-0.353-0.245-0.849-0.167-1.094,0.186c-1.476,1.923-2.777,4.014-3.972,6.152
				c0.305-1.852,0.537-3.733,0.687-5.615c0.126-1.745,0.173-3.405,0.18-5.083c1.439-2.013,2.909-4.008,4.324-6.027
				c1.326-1.899,2.622-3.811,3.829-5.794c0.657-1.075,1.213-2.258,1.876-3.315c0.257-0.496,0.06-1.123-0.437-1.38
				s-1.123-0.06-1.38,0.436c-0.322,0.603-0.598,1.254-0.932,1.84c-0.956,1.66-1.87,3.339-2.886,4.97
				c-1.188,1.905-2.502,3.757-3.757,5.615c-0.227,0.329-0.448,0.657-0.669,0.986c-0.006-0.287-0.012-0.58-0.018-0.866
				c-0.042-1.714-0.329-3.417-0.473-5.119c-0.155-1.822-0.669-3.733-0.985-5.543c-0.209-1.057-1.242-1.744-2.3-1.535
				c-1.057,0.209-1.744,1.243-1.535,2.3c0.316,1.643,0.663,3.297,0.854,4.958c0.036,0.358,0.071,0.711,0.107,1.069
				c-0.09-0.048-0.191-0.084-0.286-0.114c-0.609-0.179-1.213-0.358-1.811-0.532c-0.186-1.207-0.483-2.425-0.699-3.625
				c-0.071-0.389-0.459-0.646-0.848-0.574s-0.646,0.46-0.573,0.848c0,0.024,0.006,0.054,0.012,0.084
				c-0.55-0.926-1.445-1.75-2.401-1.804c-6.643-0.382-13.47,0.908-20.041,1.774c-0.507,0.065-1.021,0.131-1.541,0.209
				c-3.882-0.125-7.765-0.257-11.63-0.615c-0.286-0.03-0.579-0.054-0.884-0.084l-0.132-0.167c-0.758-1.236-1.23-2.592-1.779-3.931
				l0.012-0.006c1.631-1.051,3.226-2.043,4.814-3.172c3.184-2.27,6.29-5.089,9.073-7.837c4.946-4.886,9.385-10.256,14.169-15.304
				c1.834-1.936,3.607-3.889,5.562-5.705c0.436-0.448,0.436-1.177-0.013-1.613c-0.161-0.161-0.358-0.257-0.562-0.305
				c1.195-1.242,2.378-2.497,3.549-3.763c1.583-1.726,3.172-3.44,4.755-5.137c3.04-2.73,6.093-5.43,9.115-8.136
				c3.565-3.202,7.174-6.32,10.781-9.468c3.65-3.184,7.329-6.38,11.051-9.48c6.84-5.687,13.715-11.535,20.931-16.731
				c1.553-1.123,3.076-2.192,4.659-3.214C599.885-221.026,600.028-220.793,600.178-220.596z M439.268-210.256
				c1.1-2.157,2.318-4.254,3.77-6.451C441.615-214.6,440.355-212.443,439.268-210.256z M593.93-207.198
				c-0.651,0.609-1.351,1.243-1.96,1.888c-2.574,2.706-5.185,5.555-7.872,8.136c-1.326,1.272-2.73,2.586-4.164,3.733
				c-0.508,0.406-1.057,0.788-1.553,1.207c-0.119,0.095-0.144,0.287-0.048,0.406c0.096,0.119,0.287,0.143,0.406,0.047
				c1.021-0.86,2.126-1.637,3.136-2.526c1.924-1.69,3.812-3.477,5.615-5.298c4.253-4.295,9.342-9.534,14.742-12.418
				c0.322-0.203,0.418-0.646,0.215-0.968s-0.645-0.418-0.968-0.215C598.648-211.416,596.372-209.48,593.93-207.198z M315.942-201.56
				c-0.149,0.424-0.299,0.854-0.442,1.285c0.137-1.231,0.305-2.449,0.52-3.662C315.966-203.16,315.942-202.366,315.942-201.56z
				 M563.478-182.343l-0.341,0.042c-2.078,1.959-3.728,4.074-5.412,6.368c-1.857,2.526-3.686,5.065-5.483,7.634
				c-2.95,4.217-5.919,8.422-8.876,12.64c-2.127,3.028-4.354,5.979-6.523,8.978c-0.203,0.274-0.143,0.669,0.132,0.872
				s0.669,0.143,0.872-0.131c2.168-3.005,4.385-5.979,6.559-8.978c3.393-4.677,6.672-9.474,10.047-14.175
				c1.094-1.529,2.181-3.076,3.298-4.587c1.261-1.697,2.58-3.387,3.769-5.131c0.711-1.045,1.345-2.115,2.002-3.19L563.478-182.343z
				 M626.09-155.176c-2.258,2.491-4.546,5.059-6.66,7.676c-0.161,0.191-0.138,0.478,0.054,0.639
				c0.191,0.161,0.478,0.137,0.639-0.054c6.941-8.47,14.964-16.092,23.595-22.812c0.425-0.353,0.484-0.998,0.132-1.421
				c-0.353-0.424-0.998-0.484-1.422-0.131C636.579-166.334,631.227-160.845,626.09-155.176z M308.75-170.122
				c-0.442,0.37-0.878,0.747-1.32,1.117c-1.308,0.048-2.622,0.12-3.972,0.186c-1.493,0.065-2.999,0.102-4.504,0.131
				c0.048-0.036,0.096-0.066,0.149-0.096c0.353-0.233,0.92-0.424,1.314-0.621c0.156-0.078,0.287-0.179,0.4-0.305
				c0.998-0.107,2.007-0.209,3.035-0.281C305.459-170.116,307.108-170.158,308.75-170.122z M311.618-169.979
				c0.675,0.048,1.523,0.215,2.312,0.233c0.09,0.346,0.191,0.692,0.305,1.039c-0.006-0.191-0.131-0.227-0.257-0.215
				c-1.266-0.102-2.503-0.138-3.727-0.138c0.328-0.245,0.657-0.484,0.991-0.711c0.078-0.065,0.144-0.143,0.197-0.227
				C311.498-169.99,311.558-169.984,311.618-169.979z M294.564-168.623c-0.633,0.006-1.272,0.006-1.912,0.018
				c0.771-0.113,1.541-0.227,2.306-0.334C294.833-168.837,294.701-168.73,294.564-168.623z M540.868-166.621
				c-0.943,1.541-1.852,3.13-2.825,4.653c-1.78,2.79-3.697,5.543-5.65,8.213c-5.018,6.87-10.55,13.446-15.364,20.447
				c-0.238,0.329-0.161,0.8,0.168,1.04c0.328,0.239,0.8,0.161,1.039-0.167c3.925-5.585,8.231-10.835,12.46-16.194
				c1.989-2.521,3.901-5.095,5.866-7.634c2.258-2.915,4.175-6.104,6.218-9.163c0.329-0.525,0.168-1.225-0.358-1.553
				C541.896-167.308,541.197-167.147,540.868-166.621z M277.151-166.645c0.263,0.006,0.532,0.012,0.801,0.018
				c1.685,2.437,3.381,4.862,5.101,7.276c-0.012,0.006-0.024,0.012-0.036,0.023c-0.413,0.221-0.95,0.347-1.362,0.58
				c-0.394,0.161-0.603,0.591-0.508,0.986c-0.603-0.646-1.207-1.302-1.804-1.959c-0.771-0.848-1.535-1.744-2.324-2.575l-3.835-4.414
				l-0.042-0.048C274.476-166.735,275.808-166.687,277.151-166.645z M285.228-166.567c2.282,0.03,4.582,0.083,6.875,0.113
				c-1.117,1.045-2.192,2.108-3.214,3.076c-1.517,1.416-3.046,2.449-4.749,3.423c-1.606-2.198-3.195-4.408-4.754-6.648
				C281.333-166.585,283.286-166.598,285.228-166.567z M294.546-143.714c-2.461-2.497-4.91-5.005-7.108-7.275
				c-1.451-1.523-2.652-2.813-3.835-4.109c-0.627-0.693-1.26-1.374-1.887-2.055c0.185,0.06,0.4,0.06,0.597-0.018
				c0.573-0.257,1.171-0.496,1.756-0.759C287.498-153.146,290.986-148.415,294.546-143.714z M510.888-139.795
				c-2.975,2.753-6.17,5.018-9.587,7.162c-0.173-0.353-0.353-0.699-0.556-1.04c0.305-0.323,0.609-0.633,0.914-0.938
				c0.621-0.621,1.32-1.32,1.905-1.971c0.473-0.532,0.98-1.033,1.487-1.535c0.102-0.078,0.203-0.149,0.305-0.221
				c7.294-5.394,14.259-11.588,20.71-18.01C521.192-150.672,516.401-144.926,510.888-139.795z M693.893-125.668
				c-0.322,0.155-0.633,0.311-0.943,0.472c-1.194-1.332-2.438-2.646-3.626-3.984c-4.146-4.671-8.303-9.348-12.442-14.091
				C682.615-137.448,688.267-131.57,693.893-125.668z M449.076-131.301c-2.473,2.562-4.887,5.179-7.401,7.706
				c-4.552,4.575-8.995,9.276-13.595,13.816c-4.761,4.695-9.498,9.39-14.307,14.032c-2.007,1.935-4.056,3.823-6.062,5.758
				c-3.035,2.921-6.236,5.674-9.283,8.565c-2.855,2.712-5.961,5.173-8.894,7.79c-1.099,0.979-2.347,1.87-3.417,2.855
				c-0.794,0.735-1.81,1.511-2.682,2.168c-1.81,1.368-3.554,2.784-5.424,4.074l-2.103,1.356l-0.472-0.316
				c-0.167-0.114-0.328-0.233-0.49-0.358c0.048-0.03,0.102-0.06,0.155-0.09c3.07-1.852,6.063-3.913,8.966-6.009
				c10.459-7.544,20.028-16.725,29.066-25.9c10.495-10.656,20.728-21.504,31.479-31.909c2.729-2.646,5.537-5.203,8.404-7.676
				C451.723-134.049,450.396-132.675,449.076-131.301z M500.507-128.577c0.119,0.311,0.251,0.615,0.388,0.92
				c-1.355-0.203-2.706-0.472-3.853-0.86l-0.544-0.203l1.094-1.427c0.508-0.598,1.033-1.201,1.57-1.804
				C499.682-130.853,500.088-129.67,500.507-128.577z M544.667-118.064c-0.113-0.466-0.245-0.95-0.399-1.434
				c0.131-0.048,0.25-0.114,0.364-0.185C544.649-119.146,544.661-118.607,544.667-118.064z M641.334-119.08
				c-0.651,1.003-1.297,2.043-1.924,3.064c-0.502,0.818-1.093,1.607-1.631,2.407c-1.104,1.654-2.252,3.279-3.41,4.898
				c-4.349,6.057-8.519,11.81-11.493,18.637c-0.113,0.263,0.012,0.58,0.274,0.693c0.264,0.114,0.58-0.012,0.693-0.274
				c2.742-6.511,7.055-12.054,11.325-17.651c1.84-2.413,3.817-4.868,5.544-7.365c0.758-1.105,1.529-2.234,2.306-3.321
				c0.298-0.46,0.161-1.087-0.299-1.386C642.26-119.677,641.633-119.54,641.334-119.08z M651.728-102.826
				c0.155,3.871,0.155,8.022-0.065,11.887c-0.042,0.71-0.084,1.421-0.126,2.126c-0.734,0.149-1.374,0.609-1.744,1.26
				c0.782-6.451,0.926-12.741,0.573-19.234c-0.048-0.788-0.113-1.577-0.197-2.359l0.281-3.076l0.753-0.604h0.006
				C651.506-109.504,651.584-106.165,651.728-102.826z M343.139-57.011c-0.735,0.723-2.545,1.439-3.405,1.798
				c-0.789,0.317-1.679,0.58-2.563,0.818c-0.956-3.453-1.863-6.905-2.718-10.405c-0.06-0.233-0.113-0.466-0.173-0.699
				C337.154-62.59,340.116-59.771,343.139-57.011z M369.027-61.879c-0.161,0.083-0.329,0.173-0.49,0.263
				c-1.009-1.153-2.019-2.293-2.981-3.393C366.662-63.976,367.845-62.918,369.027-61.879z M637.11-30.997
				c-1.421,2.885-2.909,5.674-4.479,8.44c-0.442,0.58-0.854,1.153-1.314,1.727c1.35-2.24,2.664-4.486,3.919-6.768
				c0.698-1.29,1.451-2.634,2.103-3.954C637.284-31.361,637.194-31.182,637.11-30.997z M628.641-15.968
				c-1.29,1.894-2.533,3.954-3.937,5.758c-0.64,0.824-1.225,1.685-1.857,2.509c-0.609,0.782-1.219,1.559-1.834,2.33
				c0.054-0.102,0.107-0.209,0.167-0.311c0.149-0.203,0.299-0.4,0.448-0.598c2.515-3.411,4.904-6.917,7.18-10.495
				c0.358-0.353,0.705-0.711,1.033-1.063C629.453-17.205,629.047-16.571,628.641-15.968z M563.549,45.611
				c-0.896,0.597-1.798,1.188-2.7,1.774c-3.272,0.275-6.492,0.585-9.748,0.968c2.694-0.842,5.424-1.774,8.017-2.795
				c1.63-0.651,3.243-1.332,4.862-2.001c2.042-0.843,4.175-1.81,6.14-2.82c0.395-0.209,0.795-0.412,1.189-0.615
				C568.758,42.009,566.165,43.849,563.549,45.611z M410.011,41.448c0.43,0.406,0.872,0.806,1.319,1.195
				c-1.116-0.472-2.222-0.962-3.326-1.458C408.679,41.287,409.348,41.376,410.011,41.448z M466.763,59.236
				c-1.666-0.042-3.327-0.119-4.993-0.227c-3.273-0.215-6.619-0.46-9.856-0.967c-2.484-0.395-4.886-0.765-7.347-1.272
				c-4.642-0.956-9.235-2.294-13.649-4.044C442.654,56.077,454.607,58.197,466.763,59.236z"/>
		</g>
	</g>
</g>
</svg>
