<?xml version="1.0" encoding="utf-8"?>
<!-- Generator: Adobe Illustrator 16.0.0, SVG Export Plug-In . SVG Version: 6.00 Build 0)  -->
<!DOCTYPE svg PUBLIC "-//W3C//DTD SVG 1.1//EN" "http://www.w3.org/Graphics/SVG/1.1/DTD/svg11.dtd">
<svg version="1.1" id="Layer_1" xmlns="http://www.w3.org/2000/svg" xmlns:xlink="http://www.w3.org/1999/xlink" x="0px" y="0px"
	 width="439.208px" height="336.002px" viewBox="260.637 61.416 439.208 336.002"
	 enable-background="new 260.637 61.416 439.208 336.002" xml:space="preserve">
<g transform="scale(1 -1)">
	<g transform="translate(0 -75)">
		<g>
			<path marker-start="none" marker-end="none" d="M509.962-319.641c-7.048-0.155-14.103-0.322-21.151-0.495
				c0.316-0.233,0.633-0.472,0.95-0.705c-0.49-0.096-1.786,0.382-2.569,0.663c-18.84-0.46-37.674-0.962-56.507-1.386
				c-8.578-0.197-17.168-0.358-25.745-0.478c-7.145-0.096-14.324-0.251-21.475-0.162c-6.242,0.072-12.484,0.257-18.714,0.521
				c0.024-0.108,0.018-0.228-0.03-0.329c-0.114-0.232-0.406-0.334-0.639-0.221c-0.532,0.203-1.051,0.424-1.571,0.645
				c-7.413,0.329-14.82,0.771-22.221,1.267c-5.938,0.395-11.875,0.753-17.806,1.147c-0.012-0.036-0.024-0.078-0.042-0.108
				c-0.09-0.143-0.287-0.185-0.43-0.095c-0.155,0.083-0.311,0.173-0.46,0.263c-4.402,0.299-8.84,0.585-13.267,0.83
				c-0.125-0.054-0.263-0.09-0.4-0.09c-1.236-0.096-2.443-0.334-3.649-0.418c-0.424-0.03-0.842-0.144-1.272-0.132
				c-2.706,0.061-5.311,0.615-7.933,1.207c-4.146,0.132-8.285,0.239-12.437,0.322c-5.304,0.102-10.65,0.024-15.955-0.054
				c-0.562-0.006-1.027,0.448-1.034,1.01c-0.006,0.562,0.448,1.027,1.01,1.033c4.892,0.048,9.76,0.149,14.652,0.138
				c2.335-0.012,4.683-0.03,7.025-0.065c-0.538,0.244-1.075,0.501-1.619,0.776c-0.687,0.34-1.35,0.752-2.031,1.11
				c-1.708,0.896-3.704,2.39-5.208,3.614c-4.839,3.942-8.673,8.847-11.302,14.342c-1.159-1.23-2.312-2.461-3.458-3.697
				c-0.371-0.4-1.016-0.424-1.416-0.054c-0.4,0.37-0.424,1.016-0.054,1.416c1.35,1.439,2.694,2.879,4.038,4.318
				c-0.233,0.562-0.454,1.135-0.663,1.714c0.012-0.148,0.024-0.298,0.042-0.441c-0.018,0.149-0.03,0.305-0.048,0.454
				c-1.41,3.864-2.252,7.962-2.455,12.167c-0.161,3.202,0.024,6.876,0.729,10.322c-0.747,10.925-1.344,21.862-1.882,32.806
				c-0.699,14.079-1.26,28.188-1.637,42.279c-0.161,6.152-0.353,12.299-0.496,18.452c-0.072,3.07-0.179,6.158-0.191,9.229
				c-0.024,5.125,0.072,10.268,0.131,15.394c0.084,6.803,0.149,13.601,0.239,20.405c0.131,10.011,0.233,20.022,0.364,30.034
				c0.09,6.685,0.096,13.375,0.334,20.059c0.305,8.583,0.818,17.162,1.398,25.733c-0.149,0.992-0.311,1.989-0.436,2.981
				c-0.424,3.244-1.087,6.78-1.141,10.035c-0.06,3.62,0.03,7.037,0.418,10.645c0.144,1.326,0.376,2.784,0.711,4.277
				c-0.203,0.311-0.298,0.699-0.227,1.105c0.376,1.93,0.663,3.823,1.195,5.729c-0.185,1.034-0.376,2.073-0.567,3.118
				c-0.072,0.4-0.334,0.693-0.412,1.075c-0.107,0.508-0.209,1.021-0.323,1.535c-0.185-0.042-0.388-0.018-0.567,0.078
				c-0.412,0.209-0.567,0.723-0.358,1.135c0.144,0.305,0.292,0.604,0.448,0.902c0,0.012-0.006,0.03-0.006,0.047
				c-0.054,0.209-0.107,0.413-0.155,0.615l-0.048,0.281l-0.054,0.317c-0.018,0.394,0.072,0.771,0.412,1.135
				c0.221,0.233,0.448,0.353,0.759,0.424c0.299,0.06,0.549,0.048,0.759-0.024c1.248,1.857,2.694,3.566,4.294,5.125
				c-0.065,4.092-0.137,8.184-0.215,12.281c-0.006,0.454,0.358,0.83,0.812,0.836c0.454,0.006,0.83-0.358,0.836-0.812
				c0.066-3.596,0.144-7.186,0.233-10.782c2.36,2.037,4.988,3.793,7.766,5.275c0.388,0.406,0.782,0.812,1.183,1.218
				c-0.591,0.281-1.003,0.89-1.003,1.589c0,0.962,0.789,1.75,1.75,1.75h2.682c2.18,2.049,4.438,4.062,6.726,6.104
				c0.872,0.741,2.186,0.633,2.927-0.239s0.633-2.187-0.239-2.927c-1.201-0.98-2.413-1.959-3.626-2.939h1.595
				c1.672,0.43,3.303,0.83,5.018,1.194c5.609,1.177,11.761,1.774,17.49,1.983c2.341,0.083,4.707,0.137,7.055,0.125
				c1.84-0.012,3.679-0.096,5.513-0.107c1.894-0.012,3.817-0.186,5.71-0.269c2.885-0.125,5.824-0.406,8.691-0.711
				c1.177-0.125,2.33-0.382,3.494-0.579c2.139-0.365,4.516-0.962,6.762-1.637h251.077c0,0.047,0,0.102,0.012,0.161
				c0.066,0.424,0.473,0.723,0.896,0.657c1.535-0.287,3.178-0.376,4.743-0.454c1.021-0.048,1.899-0.042,2.927-0.185
				c0.454-0.066,0.907-0.125,1.361-0.179h37.507c0.86,0,1.583-0.639,1.727-1.463c2.61,0.06,5.304,0.113,7.86-0.066
				c1.345-0.096,2.796-0.125,4.122-0.329c1.32-0.203,2.592-0.394,3.906-0.621c1.123-0.197,2.276-0.496,3.411-0.836
				c3.858-0.334,7.712-0.783,11.444-1.434c0.353-0.06,0.885-0.137,1.189-0.298c1.135-0.604,1.529-2.019,1.445-3.232
				c-0.048-0.711-0.191-1.392-0.203-2.108c-0.024-1.135,0.376-2.545,0.556-3.686c0.096-0.615,0.179-1.23,0.263-1.834
				c-0.024,1.117-0.06,2.258-0.042,3.393c0.442-0.466,0.627-1.673,0.812-2.318c0.472-1.655,0.842-3.321,1.23-5
				c0.167-0.759,0.322-1.511,0.466-2.258c0.113-0.012,0.233-0.042,0.353-0.084c0.269-0.107,0.598-0.346,0.836-0.52
				c0.753-0.556,1.416-1.135,2.02-1.762c0.406,0.472,0.812,0.938,1.219,1.41c0.113,0.179,0.358,0.233,0.537,0.12
				c0.18-0.114,0.233-0.358,0.119-0.538c-0.316-0.687-0.627-1.368-0.949-2.043c0.436-0.538,0.836-1.117,1.236-1.738
				c2.921-4.617,4.098-10.083,6.612-14.874c0.466-1.021,0.019-2.234-1.003-2.7c-0.628-0.287-1.32-0.233-1.87,0.083
				c-0.119-0.89-0.287-1.78-0.585-2.646c0.054,0.006,0.065-0.03,0.065-0.06c0.949-32.328,2.413-64.644,3.488-96.971
				c0.149-4.605,0.287-9.217,0.395-13.828c0.149-2.407,0.286-4.814,0.424-7.216c0.502-9.067,0.836-18.105,1.183-27.179
				c0.167-4.396,0.048-8.918,0.006-13.32c-0.096-10.471-0.394-20.925-0.997-31.378c-0.783-13.607-1.972-27.232-4.015-40.708
				c-0.478-3.143-1.057-6.296-1.708-9.444c0.299-2.724,0.233-5.603-0.358-7.962c-0.215-0.849-0.418-1.644-0.657-2.432l-0.238-0.699
				l-0.496-1.798c-1.547-4.772-4.098-9.205-7.526-12.914c-1.052-1.135-2.568-2.562-3.859-3.405c-0.412-0.269-0.8-0.567-1.206-0.836
				l-0.484-0.274l-3.972-3.806c-0.484-0.46-1.261-0.436-1.721,0.048c-0.232,0.239-0.341,0.556-0.334,0.866l0.06,0.27l-2.02-0.4
				c0.155-0.233,0.251-0.508,0.251-0.795c0-0.782-0.645-1.428-1.428-1.428h-26.085c0.447-0.28,0.89-0.562,1.338-0.836
				c1.039-0.078,2.078-0.155,3.118-0.233c-0.688-0.221-1.392-0.334-2.103-0.394c0.525-0.323,1.057-0.646,1.595-0.962
				c0.341-0.209,0.448-0.675,0.239-1.016c-0.21-0.341-0.676-0.448-1.016-0.239c-1.177,0.699-2.342,1.416-3.507,2.139
				c-0.305,0-0.609-0.006-0.907-0.012c-2.163-0.065-4.343-0.084-6.506-0.107c-7.27-0.072-14.562-0.251-21.832-0.418
				c-25.44-0.58-50.881-0.556-76.321-0.974c-0.293-0.006-0.579-0.013-0.866-0.019c0.138-0.065,0.274-0.137,0.412-0.203
				c0.37-0.161,0.544-0.597,0.383-0.968c-0.162-0.37-0.598-0.543-0.968-0.382c-1.261,0.448-2.503,0.943-3.733,1.487
				c-6.523-0.113-13.04-0.245-19.562-0.382c0.812-0.55,1.612-1.117,2.419-1.703c0.286-0.179,0.364-0.567,0.185-0.854
				c-0.179-0.287-0.567-0.364-0.854-0.186C512.913-321.468,511.443-320.566,509.962-319.641z M411.372-317.46
				c-0.8,0.454-1.595,0.92-2.389,1.397h-15.304c-0.263-0.358-0.758-0.472-1.147-0.257c-0.161,0.084-0.316,0.168-0.472,0.257h-14.223
				c0.018-0.012,0.03-0.018,0.048-0.023c0.186-0.084,0.269-0.311,0.186-0.496c-0.084-0.185-0.311-0.269-0.496-0.185
				c-0.627,0.215-1.242,0.453-1.857,0.704h-20.596c0.842-0.52,1.69-1.027,2.544-1.522c11.141-0.335,22.364-0.473,33.487-0.233
				C397.891-317.693,404.635-317.579,411.372-317.46z M352.225-316.062h-12.831c0.323-0.203,0.646-0.4,0.974-0.597
				c0.186-0.12,0.371-0.239,0.562-0.358c4.151-0.149,8.309-0.293,12.466-0.431c0.382-0.018,0.771-0.029,1.159-0.042
				C353.771-317.023,352.995-316.552,352.225-316.062z M426.587-317.161c6.827,0.138,13.667,0.299,20.5,0.472
				c-0.316,0.203-0.627,0.412-0.938,0.627h-34.933c0.646-0.447,1.284-0.907,1.918-1.367
				C417.614-317.347,422.101-317.257,426.587-317.161z M336.449-316.062h-18.392c0.06-0.041,0.125-0.083,0.191-0.125
				c6.535-0.233,13.07-0.478,19.61-0.717C337.393-316.611,336.921-316.331,336.449-316.062z M640.205-316.062h-7.694
				c2.88-0.197,5.759-0.4,8.644-0.609C640.838-316.469,640.521-316.266,640.205-316.062z M463.287-316.271
				c-0.114,0.066-0.233,0.138-0.347,0.209h-14.981c0.161-0.149,0.203-0.406,0.102-0.603
				C453.138-316.54,458.209-316.408,463.287-316.271z M471.076-316.062h-3.848c0.066-0.035,0.126-0.065,0.191-0.102
				C468.639-316.128,469.857-316.098,471.076-316.062z M316.367-316.062h-1.505c0.532-0.023,1.069-0.041,1.601-0.06
				C316.432-316.104,316.402-316.086,316.367-316.062z M306.708-310.405c-2.903,1.714-5.8,3.519-8.745,5.148
				c-2.604,1.44-5.173,2.945-7.771,4.396c1.511-1.756,3.034-3.5,4.593-5.208c1.171-1.285,2.396-2.527,3.566-3.812
				c0.645-0.692,0.603-1.786-0.09-2.431c-0.693-0.646-1.786-0.604-2.431,0.089c-1.529,1.565-3.082,3.279-4.521,4.929
				c-2.007,2.306-4.021,4.563-5.902,6.977c-0.86,1.099-1.72,2.246-2.568,3.417c-2.168,1.146-4.349,2.293-6.529,3.44
				c-0.18,0.096-0.251,0.322-0.156,0.502c0.096,0.179,0.323,0.251,0.502,0.155c1.726-0.908,3.464-1.811,5.203-2.718
				c-0.944,1.355-1.857,2.724-2.712,4.085c-0.932,1.464-1.899,2.939-2.807,4.433c-0.705-0.711-1.41-1.422-2.109-2.139
				c0.054-0.286,0.114-0.567,0.173-0.854c0.532-2.593,1.458-5.06,2.449-7.497c0.717-1.756,1.87-3.853,2.962-5.399
				c0.269-0.425,0.347-0.926,0.245-1.386l-0.209-0.484l1.302-1.355c0.633-0.634,1.29-1.237,1.953-1.744
				c1.117-0.854,2.24-1.858,3.458-2.581c1.243-0.734,2.401-1.403,3.674-2.091c0.436-0.238,0.902-0.466,1.374-0.675h19.868
				C309.885-312.281,308.296-311.344,306.708-310.405z M330.058-312.412c-2.837,1.559-5.681,3.105-8.524,4.653
				c-9.623,5.232-19.927,10.716-28.379,17.765c-0.245,0.19-0.287,0.555-0.096,0.8c0.191,0.245,0.556,0.287,0.8,0.096
				c10.883-8.876,23.212-14.593,35.512-21.217c1.738-0.938,3.458-1.9,5.167-2.886l0.006-0.006h13.344
				c-2.258,1.541-4.474,3.136-6.666,4.719c-4.438,3.196-8.751,6.595-13.201,9.767c-3.799,2.712-7.55,5.34-11.487,7.855
				c-0.233,0.143-0.298,0.46-0.155,0.692c0.144,0.233,0.46,0.299,0.693,0.155c11.457-7.365,22.215-15.691,33.576-23.188h19.085
				c-4.068,2.204-7.969,4.809-11.762,7.3c-4.349,2.849-8.572,5.884-12.926,8.721c-1.177,0.765-2.348,1.547-3.518,2.323
				c-1.697,1.123-3.471,2.15-5.179,3.262c-0.143,0.09-0.185,0.287-0.095,0.431c0.089,0.143,0.287,0.185,0.43,0.095
				c1.583-1.027,3.214-1.995,4.814-2.998c5.334-3.339,10.531-6.941,15.883-10.244c5.042-3.118,10.047-6.087,15.256-8.889h14.247
				c-9.88,5.269-19.85,10.28-28.487,17.49c-1.511,1.26-2.921,2.628-4.337,3.99c-0.209,0.203-0.215,0.556-0.012,0.765
				s0.555,0.215,0.765,0.012c0.967-1.027,2.121-2.061,3.208-2.963c0.651-0.537,1.249-1.105,1.929-1.619
				c2.001-1.505,3.96-3.01,6.087-4.349c4.647-2.927,9.336-5.411,14.247-7.891c2.766-1.397,5.567-2.837,8.285-4.33
				c0.663-0.364,1.326-0.741,1.995-1.105h13.78c-2.049,1.284-4.092,2.581-6.146,3.841c-3.375,2.061-6.822,4.259-10.071,6.517
				c-4.342,3.017-8.434,5.968-12.376,9.504l-0.024,0.406l0.406,0.023c6.708-6.045,14.658-11.038,22.436-15.566
				c2.694-1.57,5.388-3.142,8.07-4.725h17.962c-1.894,0.938-3.764,1.924-5.633,2.993c-0.783,0.447-1.613,0.865-2.372,1.344
				c-1.463,0.914-2.956,1.798-4.408,2.729c-1.344,0.866-2.646,1.811-3.984,2.688c-0.985,0.65-2.007,1.428-2.956,2.145
				c-3.381,2.544-6.643,5.101-9.851,7.866c-0.167,0.138-0.191,0.4-0.054,0.567c0.138,0.168,0.4,0.191,0.567,0.054
				c7.861-6.768,16.229-12.579,25.321-17.573c1.815-1.004,3.661-1.923,5.531-2.813h14.975c-2.347,1.434-4.683,2.873-7.048,4.289
				c-6.039,3.607-12.867,7.718-17.831,12.783c-0.173,0.161-0.179,0.441-0.018,0.615c0.161,0.173,0.442,0.179,0.615,0.018
				c1.786-1.679,3.626-3.351,5.615-4.791c5.185-3.757,10.549-6.857,16.086-10.118c1.512-0.891,3.059-1.84,4.546-2.796h14.671
				c-1.435,0.914-2.88,1.822-4.248,2.831c-3.763,2.778-7.484,5.544-11.212,8.375c-2.986,2.27-5.991,4.617-9.037,6.81
				c-1.523,1.1-3.059,2.187-4.563,3.31c-0.299,0.209-0.364,0.633-0.155,0.932s0.633,0.364,0.932,0.155
				c3.166-2.336,6.421-4.588,9.605-6.911c4.909-3.578,9.85-7.108,14.903-10.472c2.592-1.726,5.196-3.387,7.831-5.029h12.741
				c-3.357,2.348-6.577,4.97-9.719,7.538c-4.367,3.561-8.626,7.24-13.01,10.776c-1.697,1.368-3.417,2.706-5.126,4.062
				c-0.209,0.167-0.25,0.484-0.083,0.693s0.483,0.251,0.692,0.083c1.87-1.499,3.8-2.933,5.663-4.438
				c6.69-5.406,13.506-10.704,20.482-15.734c1.368-0.991,2.79-2.007,4.229-2.98h21.282c-1.29,0.795-2.58,1.589-3.864,2.39
				c-11.344,6.982-22.232,13.941-32.25,22.74c-0.173,0.149-0.191,0.43-0.042,0.604c0.149,0.173,0.431,0.191,0.604,0.042
				c1.021-0.879,2.019-1.792,3.059-2.646c1.738-1.428,3.5-2.777,5.286-4.146c3.811-2.915,7.986-5.633,12.072-8.153
				c2.562-1.583,5.101-3.178,7.699-4.701c3.471-2.043,7.007-4.056,10.483-6.129h18.356c-0.986,0.586-1.966,1.177-2.928,1.774
				c-10.597,6.475-20.416,14.139-30.434,21.462c-0.233,0.173-0.281,0.508-0.107,0.74c0.173,0.233,0.508,0.281,0.74,0.108
				c7.789-5.83,15.782-11.738,23.995-16.946c2.694-1.709,5.388-3.321,8.124-4.952c1.278-0.765,2.58-1.493,3.9-2.187h18.052
				c-3.686,2.108-7.156,4.402-10.549,7.024c-6.464,4.988-12.748,10.197-18.918,15.543l-0.03,0.364l0.364,0.03
				c8.298-7.192,17.024-14.056,26.48-19.658c1.995-1.189,3.96-2.265,5.991-3.304h14.348c-1.846,0.926-3.68,1.888-5.472,2.873
				c-2.084,1.147-4.169,2.246-6.218,3.459c-4.199,2.484-8.369,5.334-12.15,8.422c-2.557,2.091-5.16,4.301-7.406,6.727
				c-0.209,0.209-0.209,0.567,0,0.776h0.776c5.227-5.43,11.528-9.809,18.027-13.577c1.428-0.824,2.825-1.673,4.265-2.479
				c3.901-2.18,7.98-4.235,12.043-6.2h11.289c-3.925,2.407-7.712,5-11.475,7.646c-7.76,5.442-15.154,11.242-22.257,17.502
				c-0.167,0.144-0.185,0.4-0.042,0.567c0.144,0.168,0.4,0.186,0.567,0.042c4.026-3.548,8.214-7.019,12.568-10.148
				c1.983-1.428,3.996-2.813,5.979-4.235c1.403-1.009,2.891-1.947,4.343-2.891c1.451-0.944,2.891-1.899,4.372-2.796
				c3.268-1.977,6.511-3.889,9.874-5.687h15.787c-13.386,9.432-25.816,20.017-39,29.729l-0.054,0.353l0.353,0.054
				c6.911-5.09,13.757-10.269,20.626-15.411c6.769-5.071,13.739-10.065,20.948-14.491c0.096-0.066,0.18-0.149,0.239-0.233h18.941
				c-5.101,2.951-9.963,6.32-14.886,9.575c-5.31,3.507-10.656,7.15-15.716,11.009c-2.007,1.535-3.942,3.13-5.913,4.707
				c-3.005,2.401-5.836,5.215-8.536,7.957c-0.144,0.149-0.144,0.399,0.006,0.543s0.4,0.144,0.544-0.006
				c9.312-9.82,21.642-17.567,33.193-24.455c3.226-1.923,6.512-3.822,9.689-5.817c1.726-1.088,3.273-2.294,4.832-3.513h15.674
				c-2.616,1.738-5.209,3.519-7.771,5.328c-4.157,2.921-8.225,6.045-12.305,9.073c-5.639,4.188-11.277,8.375-16.929,12.544
				c-0.161,0.12-0.197,0.359-0.077,0.521c0.119,0.161,0.358,0.196,0.52,0.077c6.833-5.023,13.709-9.951,20.626-14.861
				c3.429-2.432,6.929-4.928,10.459-7.21c1.518-0.979,2.98-2.043,4.486-3.04c1.225-0.818,2.455-1.631,3.691-2.432h23.595
				c-0.985,0.305-1.947,0.681-2.885,1.123c-0.657,0.311-1.303,0.705-1.954,1.033c1.476-0.06,2.969,0,4.462,0.155
				c-0.717,0.293-1.434,0.592-2.144,0.902c-2.999,1.308-5.968,2.777-8.925,4.175c-6.212,2.945-12.538,6.171-18.374,9.833
				c-1.666,1.045-3.356,2.066-4.981,3.178c-6.81,4.646-12.908,9.861-17.92,16.396c-0.167,0.215-0.125,0.531,0.09,0.699
				c0.215,0.167,0.531,0.125,0.698-0.09c1.219-1.571,2.432-2.945,3.739-4.433c0.807-0.914,1.828-1.827,2.719-2.658
				c3.034-2.849,6.373-5.37,9.844-7.657c5.107-3.369,10.363-6.004,15.823-8.728c1.971-0.985,4.038-1.815,6.027-2.789
				c3.124-1.529,6.283-2.963,9.414-4.462c1.051-0.508,2.18-1.01,3.195-1.577c1.278-0.717,2.587-1.476,3.883-2.15
				c0.071-0.036,0.138-0.084,0.191-0.132c1.38,0.281,2.741,0.646,4.067,1.081c1.601,0.526,3.118,1.04,4.582,1.727
				c-0.609,0.406-1.219,0.807-1.828,1.2c-3.925,2.509-7.896,4.952-11.827,7.455c-8.62,5.495-17.06,11.009-24.599,17.938
				c-0.215,0.196-0.238,0.543-0.042,0.758c0.197,0.216,0.544,0.239,0.759,0.042c1.452-1.267,2.85-2.551,4.354-3.757
				c1.834-1.47,3.698-2.844,5.604-4.211c6.445-4.63,13.518-8.494,20.291-12.604c2.252-1.367,4.528-2.789,6.75-4.211
				c0.812-0.525,1.612-1.063,2.419-1.606c0.222,0.131,0.442,0.274,0.663,0.424c0.514,0.341,1.021,0.711,1.518,1.105
				c0.06,0.215,0.119,0.436,0.179,0.662l0.138,0.526l0.186,1.69c0.083,0.776,0.155,1.553,0.203,2.335
				c0.071,1.23,0.102,2.449,0.113,3.662c-0.424,0.269-0.849,0.544-1.267,0.824c-2.342,1.547-4.456,3.279-6.612,5.071
				c-2.073,1.727-4.086,3.477-6.104,5.269c-2.604,2.312-5.251,4.725-7.975,6.894c-1.392,1.104-2.79,2.18-4.199,3.261
				c-0.293,0.222-0.353,0.651-0.132,0.944c0.222,0.293,0.651,0.353,0.944,0.131c3.184-2.461,6.338-4.88,9.401-7.502
				c2.73-2.342,5.556-4.731,8.411-6.911c1.057-0.807,2.091-1.655,3.178-2.426c1.445-1.027,2.891-2.024,4.36-2.998
				c0,0.765,0,1.529,0.012,2.306c0.013,1.183-0.096,2.396-0.144,3.578c-0.06,1.386-0.137,2.766-0.227,4.146
				c-1.606,1.815-3.124,3.757-4.725,5.603c-4.391,5.029-9.104,10.035-13.918,14.665c-2.825,2.718-5.604,5.501-8.536,8.111
				c-1.708,1.518-3.369,3.089-5.077,4.605c-3.423,3.047-6.888,6.075-10.382,9.044c-2.532,2.145-5.065,4.283-7.64,6.451
				c-2.903,2.281-5.836,4.588-8.763,6.893c4.109-3.978,8.23-7.95,12.353-11.94c1.612-1.529,3.249-3.076,4.893-4.611
				c2.795-2.61,5.501-5.311,8.225-7.992c5.483-5.406,10.943-10.83,16.367-16.295c2.491-2.509,4.939-5.065,7.442-7.568
				c0.705-0.717,0.693-1.876-0.023-2.581c-0.717-0.704-1.876-0.692-2.581,0.024c-4.635,4.647-9.246,9.336-13.846,14.014
				c-1.183,1.194-2.371,2.389-3.561,3.571c-0.161,0.084-0.305,0.186-0.436,0.311c-5.191,4.373-10.035,9.157-14.903,13.883
				c-7.909,7.688-15.608,15.584-23.314,23.475c-0.161,0.156-0.316,0.316-0.472,0.479c-0.854-2.354-1.619-4.719-2.336-7.168
				c-0.107-0.419-0.543-0.663-0.961-0.556s-0.663,0.544-0.556,0.962c0.358,1.219,0.675,2.419,1.063,3.631
				c0.466,1.458,0.997,2.934,1.559,4.385c-1.033,1.058-2.072,2.121-3.142,3.22c-0.389,0.37-0.843,0.807-1.297,1.249
				c-0.734,0.698-1.469,1.397-2.204,2.09c-0.209-0.573-0.424-1.141-0.65-1.702c-0.521-1.249-1.094-2.461-1.679-3.68
				c-0.251-0.525-0.891-0.747-1.416-0.495c-0.525,0.25-0.747,0.89-0.496,1.415c0.933,2.024,1.811,3.972,2.593,6.033
				c-1.894,1.804-3.793,3.596-5.687,5.388c-0.096,0.061-0.186,0.119-0.274,0.186c-1.213,0.807-2.407,1.631-3.603,2.461
				c-0.698-1.654-1.35-3.321-1.947-5c-0.179-0.483-0.723-0.729-1.206-0.549c-0.484,0.179-0.729,0.723-0.55,1.206
				c0.669,1.821,1.386,3.626,2.145,5.418c-0.167,0.113-0.335,0.227-0.502,0.346c-1.2,0.825-2.497,1.721-3.632,2.623
				c-0.131,0.096-0.161,0.292-0.065,0.424c0.096,0.132,0.292,0.162,0.424,0.066c1.29-1.003,2.628-1.989,3.99-2.957
				c0.065,0.161,0.138,0.322,0.209,0.483c-0.048,0.042-0.096,0.09-0.144,0.138c-3.423,2.861-6.773,5.71-10.089,8.583
				c-0.818-1.672-1.637-3.351-2.455-5.018c-0.173-0.358-0.609-0.508-0.968-0.334s-0.508,0.609-0.334,0.968
				c0.878,1.786,1.756,3.572,2.64,5.352c-1.959,1.696-3.912,3.393-5.865,5.101c-0.657-0.998-1.326-1.989-2.007-2.969
				c-0.144-0.209-0.442-0.269-0.651-0.125c-0.209,0.144-0.269,0.442-0.126,0.651c0.705,1.009,1.398,2.031,2.079,3.064
				c-3.202,2.802-6.386,5.633-9.521,8.518c-0.257-0.436-0.514-0.872-0.765-1.308c-0.113-0.197-0.382-0.263-0.579-0.149
				c-0.197,0.114-0.263,0.382-0.149,0.58c0.286,0.484,0.573,0.974,0.866,1.463c-0.263,0.239-0.52,0.478-0.771,0.717
				c-1.332,1.236-2.688,2.455-4.009,3.709c-0.531-0.543-1.069-1.087-1.601-1.625c-1.648-1.673-3.303-3.327-4.964-4.982
				c2.145-1.78,4.391-3.464,6.439-5.352c2.532-2.342,5.143-4.755,7.807-6.941c1.345-1.105,2.7-2.192,4.051-3.292
				c4.414-3.596,9.438-7.275,14.616-9.665c0.621-0.311,0.872-1.075,0.562-1.696s-1.075-0.872-1.696-0.562
				c-7.795,3.781-13.727,8.912-20.112,14.712c-1.619,1.469-3.22,2.963-4.839,4.426c-1.003,0.902-2.055,1.822-3.022,2.76
				c-1.057,1.027-2.066,2.168-3.159,3.154c-0.544,0.484-1.088,0.979-1.631,1.481c-3.172-3.142-6.367-6.254-9.605-9.336
				c0.072-0.054,0.144-0.107,0.221-0.161c1.094-0.831,2.169-1.69,3.273-2.515c1.446-1.082,2.922-2.198,4.277-3.387
				c2.975-2.604,6.099-5.197,9.234-7.61c1.9-1.457,3.842-2.838,5.776-4.241c2.509-1.821,5.472-3.739,8.202-5.208
				c0.555-0.323,0.74-1.046,0.418-1.602c-0.323-0.556-1.046-0.74-1.602-0.418c-2.705,1.643-5.471,3.207-7.998,5.137
				c-3.805,2.903-7.461,5.83-11.086,8.966c-1.918,1.661-3.925,3.244-5.801,4.952c-1.881,1.708-3.841,3.626-5.836,5.215
				c-1.302-1.236-2.61-2.461-3.918-3.686c-1.912-1.786-3.848-3.524-5.795-5.25c0.604-0.615,1.219-1.23,1.853-1.84
				c0.704-0.681,1.367-1.404,2.084-2.073c1.936-1.798,3.841-3.728,5.908-5.382c1.523-1.219,3.052-2.574,4.647-3.686
				c0.794-0.556,1.606-1.159,2.389-1.738c1.744-1.297,3.697-2.467,5.544-3.62c1.409-0.878,2.879-1.774,4.349-2.55
				c2.526-1.339,5.041-2.796,7.651-3.961c0.615-0.311,0.866-1.075,0.556-1.69s-1.075-0.866-1.69-0.556
				c-8.112,4.146-15.632,8.793-22.729,14.516c-3.429,2.766-6.899,5.907-9.952,9.091c-0.692,0.717-1.373,1.458-2.043,2.204
				c-1.015-0.896-2.03-1.792-3.046-2.694c-1.679-1.494-3.381-2.969-5.107-4.42l0.019-0.013c3.249-2.903,6.522-5.765,9.855-8.571
				c7.15-6.027,15.19-12.055,24.108-15.148c0.556-0.215,0.83-0.849,0.615-1.404c-0.215-0.555-0.849-0.83-1.403-0.615
				c-9.151,3.614-16.367,9.247-23.804,15.572c-3.482,2.963-6.917,6.045-10.328,9.092c-0.065,0.054-0.113,0.113-0.149,0.18
				c-3.31-2.748-6.702-5.412-10.167-7.975c5.86-5.573,13.064-10.209,19.886-14.401c4.08-2.516,8.142-5.054,12.209-7.581
				c0.574-0.382,0.735-1.164,0.353-1.738c-0.382-0.573-1.165-0.734-1.738-0.352c-1.344,0.859-2.729,1.84-4.032,2.766
				c-2.347,1.666-4.85,3.226-7.245,4.838c-7.126,4.791-14.384,9.646-20.548,15.645c-2.796-2.037-5.627-4.008-8.494-5.89
				c4.408-3.25,8.852-6.397,13.403-9.433c1.894-1.266,3.8-2.437,5.717-3.649c1.213-0.765,2.491-1.422,3.71-2.168
				c1.631-0.998,3.482-2.049,5.208-2.855c0.49-0.257,0.688-0.872,0.431-1.362c-0.257-0.489-0.872-0.687-1.362-0.43
				c-1.003,0.472-2.001,1.039-2.969,1.583c-4.82,2.712-9.312,5.968-13.727,9.294c-3.745,2.82-7.479,5.657-11.188,8.519
				c-1.69-1.04-3.542-1.966-5.286-2.873c-1.792-0.938-3.632-1.828-5.489-2.664c5.06-3.638,10.215-7.15,15.381-10.627
				c3.011-2.031,5.943-4.182,8.912-6.278c0.293-0.215,0.353-0.645,0.138-0.938s-0.645-0.353-0.938-0.137
				c-1.332,0.961-2.599,2.036-3.919,3.004c-2.066,1.512-4.127,3.028-6.188,4.546c-4.659,3.417-9.366,6.744-14.025,10.143
				c-0.227-0.102-0.447-0.197-0.669-0.293c0.203-0.466,0.216-1.015-0.012-1.511c-0.209-0.442-0.567-0.765-0.985-0.932
				c2.503-2.455,5.358-4.594,8.142-6.667c1.093-0.812,2.24-1.612,3.297-2.461c0.723-0.573,1.47-1.146,2.175-1.738
				c0.8-0.669,1.559-1.397,2.359-2.061c0.328-0.286,0.358-0.794,0.071-1.123c-0.286-0.328-0.794-0.358-1.123-0.071
				c-0.812,0.669-1.57,1.434-2.383,2.091c-1.356,1.093-2.754,2.186-4.157,3.22c-3.692,2.705-7.724,5.692-10.872,9.169
				c-0.316,0.102-0.621,0.203-0.926,0.311c-1.679-0.615-3.369-1.094-5.06-1.643c-0.489-0.144-1.016,0.131-1.158,0.621
				c-0.126,0.424,0.065,0.878,0.441,1.087c-0.232,0.054-0.46,0.155-0.663,0.305c-0.185,0.119-0.364,0.245-0.537,0.37
				c-0.902,0.263-1.75,0.615-2.76,1.123c-0.902,0.448-1.959,1.296-2.724,1.96c-0.866,0.752-1.637,1.601-2.336,2.508
				c-1.756,1.273-3.513,2.557-5.269,3.842c0.442-0.628,0.896-1.243,1.35-1.87c1.847-2.568,4.057-5.083,6.147-7.449
				c1.338-1.517,2.753-2.962,4.091-4.468c0.646-0.729,1.398-1.523,2.104-2.187c0.848-0.794,1.618-1.69,2.496-2.448
				c0.311-0.305,0.317-0.812,0.013-1.123s-0.812-0.316-1.123-0.013c-0.615,0.64-1.261,1.255-1.876,1.9
				c-0.537,0.562-1.087,1.218-1.643,1.744c-0.812,0.765-1.69,1.869-2.438,2.712c-1.911,2.15-3.763,4.33-5.585,6.559
				c-1.374,1.684-2.604,3.398-3.924,5.107c-0.747,0.955-1.679,2.354-2.282,3.482c-0.717,0.525-1.439,1.051-2.162,1.576
				c-0.144,0.102-0.287,0.203-0.418,0.311c-1.506,0.766-2.886,1.686-4.235,2.617c-5.215,3.572-10.334,7.18-15.43,10.919
				c-3.034,2.222-6.051,4.545-9.02,6.911c0.03-0.078,0.065-0.155,0.102-0.233c0.872-2.067,1.75-4.134,2.635-6.195
				c1.511-3.529,3.028-6.988,4.713-10.441c0.776-1.589,1.553-3.184,2.431-4.719c1.506-2.622,3.053-4.928,4.826-7.371
				c0.741-1.021,1.548-2.055,2.39-2.998c0.305-0.371,0.251-0.938-0.119-1.243s-0.938-0.251-1.242,0.12
				c-6.523,7.711-9.976,16.641-13.787,25.9c-0.901,2.186-1.768,4.408-2.706,6.576c-0.274,0.621-0.549,1.249-0.83,1.87
				c-1.242,0.998-2.479,2.001-3.697,3.005c-3.728,3.04-7.419,6.104-11.087,9.205c2.359-4.791,4.904-9.509,7.449-14.103
				c1.882-3.411,3.816-6.792,5.65-10.226c1.177-2.204,2.33-4.42,3.519-6.613c1.207-2.228,2.306-4.365,3.273-6.707
				c0.149-0.299,0.036-0.676-0.263-0.824c-0.299-0.15-0.675-0.036-0.824,0.262c-1.512,2.193-2.641,4.582-3.889,6.93
				c-2.145,4.02-4.307,8.034-6.374,12.096c-3.482,6.839-6.923,13.631-10.166,20.56c-2.39,2.025-4.773,4.068-7.133,6.128
				c-0.573,0.162-1.141,0.353-1.702,0.562c-0.221-0.274-0.442-0.543-0.657-0.806c0.293-0.872,0.586-1.738,0.891-2.599
				c1.188-3.422,2.389-6.762,3.732-10.125c0.508-1.267,1.01-2.581,1.602-3.811c1.23-2.557,2.258-5.036,3.739-7.491
				c0.305-0.549,0.102-1.254-0.448-1.559s-1.254-0.102-1.559,0.448c-1.23,2.156-2.3,4.354-3.327,6.606
				c-0.729,1.595-1.272,3.327-1.858,4.976c-1.194,3.375-2.228,6.804-3.255,10.232c-0.203,0.663-0.4,1.332-0.604,2.007
				c-1.589-1.881-3.303-3.673-5.071-5.424c-0.012-0.167-0.066-0.334-0.162-0.483c-0.185-0.281-0.49-0.436-0.8-0.454
				c-0.143-0.144-0.287-0.281-0.43-0.418c0.144-0.717,0.293-1.428,0.442-2.139c1.69,1.147,3.381,2.294,5.077,3.429
				c0.908,0.621,2.163,0.394,2.784-0.514c0.621-0.908,0.395-2.163-0.514-2.784c-6.135-4.36-12.401-8.536-18.565-12.849
				c-4.928-3.447-9.904-6.839-14.826-10.297c-5.549-3.901-11.081-7.808-16.6-11.732c-9.145-7.461-18.362-14.832-27.423-22.37
				c-5.197-4.324-10.471-8.59-15.561-13.033c-2.682-2.342-5.442-4.636-8.088-7.02c-4.235-3.811-8.47-7.604-12.634-11.486
				c-2.592-2.413-5.131-4.868-7.634-7.359c0.645-1.081,1.308-2.145,2.037-3.207c1.798-2.641,3.787-5.149,5.86-7.58
				c0.866-1.028,1.738-2.05,2.598-3.064c4.182-2.198,8.327-4.433,12.395-6.762c2.515-1.446,5.065-2.813,7.556-4.308
				c1.69-1.015,3.357-2.042,5.012-3.088h17.872C331.001-312.944,330.529-312.676,330.058-312.412z M683.445-298.931
				c-0.734,0.299-1.457,0.723-2.096,1.093c-0.239,0.132-0.473,0.27-0.711,0.406c-0.084-1.451-0.197-2.902-0.317-4.36
				c-0.029-0.347-0.06-0.687-0.089-1.033C681.415-301.631,682.502-300.322,683.445-298.931z M685.704-294.815
				c0.399,0.95,0.842,1.954,1.158,2.928c0.132,0.412,0.233,0.848,0.37,1.26c0.473,1.439,0.735,2.963,0.902,4.498
				c-0.179,0.144-0.358,0.293-0.537,0.442c-2.33,1.869-4.653,3.757-6.93,5.692c0.012-0.221,0.019-0.442,0.03-0.669
				c0.144-0.155,0.286-0.316,0.436-0.478c0.682-0.801,0.586-2.008-0.215-2.688c-0.042-0.036-0.077-0.065-0.113-0.09
				c0.09-3.607,0.09-7.21-0.03-10.775c-0.006-0.113-0.012-0.228-0.018-0.335c0.657-0.4,1.338-0.782,1.995-1.141
				c0.525-0.299,1.206-0.586,1.685-0.932C685.005-296.344,685.375-295.586,685.704-294.815z M275.258-285.162
				c-0.071,0.132-0.143,0.263-0.215,0.395c-0.424,0.765-0.854,1.589-1.266,2.425c-0.138-0.113-0.281-0.233-0.418-0.347
				c0.114-1.308,0.263-2.616,0.454-3.937C274.291-286.136,274.774-285.652,275.258-285.162z M688.445-282.032
				c0.144,2.342,0.048,5.197-0.46,7.484c-0.131,0.604-0.286,1.291,0,1.87c0.257,0.52,0.705,0.842,1.201,0.938
				c0,1.493,0,2.987,0,4.48c-0.866,0.161-1.548,0.896-1.583,1.81c-0.496,6.403-0.938,12.765-1.165,19.175
				c-0.251-0.186-0.604-0.222-0.884-0.054c-2.497,1.487-4.768,3.04-7.037,4.88c-2.538,2.061-4.851,4.414-7.15,6.738
				c-0.938,0.943-2.03,1.965-2.891,2.962c-0.239,0.245-0.232,0.657,0.012,0.896c0.245,0.239,0.657,0.233,0.896-0.013
				c0.543-0.633,1.272-1.344,1.881-1.923c1.052-1.01,2.049-2.097,3.112-3.1c2.915-2.748,5.968-5.49,9.408-7.557
				c0.83-0.496,1.702-1.093,2.568-1.512c0.102-0.065,0.186-0.143,0.078-0.304c-0.06,0.997-0.06,1.033-0.06,1.068
				c-0.4,13.984-0.096,28.129,0.364,42.112c0.006,0.197,0.012,0.4,0.018,0.604c-1.206,0.8-2.401,1.654-3.494,2.509
				c-2.312,1.798-4.642,3.524-6.827,5.483c-2.604,2.335-4.935,4.647-7.336,7.186c-0.376,0.4-0.358,1.039,0.042,1.416
				s1.039,0.358,1.416-0.042c4.79-5.388,10.375-9.629,16.301-13.559c0.316,9.014,0.699,18.009,1.153,27.029
				c0.274,5.507,0.525,10.979,0.943,16.474c0.071,1.021,0.149,2.043,0.233,3.064c0,27.573,0,55.146,0,82.719
				c-0.872,0.663-1.745,1.32-2.61,1.983c-0.197-4.952-0.383-9.91-0.562-14.856c-0.419-11.224-0.609-22.28-0.287-33.51
				c0.191-6.601,0.633-13.267,1.451-19.82c0.019-0.179-0.113-0.346-0.292-0.364c-0.18-0.018-0.347,0.114-0.365,0.293
				c-0.932,7.371-1.29,14.694-1.684,22.107c-0.264,4.886-0.287,9.826-0.353,14.718c-0.155,10.961,0.083,21.928,0.131,32.896
				c-5.806,4.294-11.54,8.733-17.173,13.272c-1.493-1.864-3.011-3.709-4.552-5.531c-11.081-13.07-22.436-25.817-34.281-38.193
				c2.108-1.487,4.253-2.939,6.386-4.319c1.905-1.236,3.912-2.479,5.914-3.542c1.081-0.574,2.281-1.308,3.422-1.744
				c0.526-0.269,0.735-0.92,0.466-1.446c-0.269-0.525-0.919-0.735-1.445-0.466c-3.757,1.971-7.156,4.6-10.626,7.037
				c-1.661,1.165-3.268,2.437-4.887,3.68c-0.245-0.257-0.489-0.514-0.734-0.765c-3.363-3.495-6.738-6.959-10.137-10.424
				c-0.138-0.161-0.275-0.322-0.412-0.478c0.292-0.227,0.585-0.442,0.884-0.657c1.039-0.759,2.025-1.625,3.076-2.383
				c2.198-1.583,4.521-3.064,6.857-4.42c1.397-0.806,2.831-1.678,4.36-2.216c0.525-0.239,0.765-0.872,0.525-1.398
				c-0.238-0.525-0.871-0.765-1.397-0.525c-1.553,0.83-3.136,1.553-4.647,2.485c-1.911,1.177-3.523,2.395-5.346,3.721
				c-1.403,1.021-2.748,2.132-4.121,3.184c-0.413,0.311-0.789,0.699-1.171,1.069c-2.204-2.562-4.421-5.131-6.648-7.682
				c1.499-1.416,3.028-2.891,4.694-4.122c0.651-0.484,1.291-1.045,1.972-1.481c0.836-0.532,1.643-1.087,2.491-1.601
				c0.633-0.382,1.308-0.711,1.947-1.082c0.914-0.531,1.935-0.896,2.867-1.374c0.615-0.305,0.859-1.063,0.555-1.679
				c-0.304-0.615-1.062-0.86-1.678-0.556c-1.171,0.556-2.39,1.326-3.488,2.025c-3.937,2.497-7.121,5.424-10.353,8.733
				c-0.029-0.036-0.06-0.072-0.089-0.102c-2.3-2.623-4.6-5.239-6.905-7.849c0.149-0.179,0.305-0.358,0.472-0.538
				c3.22-3.625,8.052-6.379,12.149-8.888c0.729-0.442,1.481-0.872,2.198-1.326c0.891-0.562,1.78-1.195,2.688-1.72
				c0.478-0.323,0.597-0.98,0.274-1.458c-0.322-0.478-0.979-0.598-1.457-0.275c-1.799,1.296-3.639,2.718-5.514,3.889
				c-1.052,0.657-2.181,1.446-3.178,2.186c-2.927,2.181-5.441,4.014-7.921,6.678c-0.173,0.179-0.341,0.365-0.502,0.556
				c-2.741-3.1-5.483-6.188-8.237-9.271c0.245-0.179,0.49-0.364,0.741-0.543c5.955-4.42,11.755-9.265,18.505-12.407
				c0.532-0.257,0.759-0.914,0.502-1.446c-0.257-0.531-0.914-0.758-1.445-0.501c-2.055,0.95-4.48,2.258-6.302,3.596
				c-3.387,2.491-6.47,5.245-9.719,7.903c-1.01,0.818-2.031,1.69-3.076,2.521c-2.216-2.479-4.438-4.946-6.666-7.401
				c0.501-0.424,1.003-0.842,1.505-1.254c2.15-1.804,4.391-3.607,6.696-5.346c0.8,1.302,1.612,2.592,2.449,3.871
				c0.119,0.191,0.388,0.245,0.579,0.125c0.191-0.12,0.245-0.389,0.125-0.58c-0.842-1.296-1.672-2.604-2.479-3.918
				c1.732-1.29,3.5-2.533,5.305-3.709c1.332,2.204,2.676,4.402,4.037,6.595c0.293,0.466,0.914,0.609,1.381,0.316
				c0.466-0.292,0.608-0.914,0.316-1.38c-1.393-2.186-2.778-4.354-4.158-6.535c2.133-1.32,4.308-2.539,6.518-3.596
				c0.543-0.287,0.752-0.961,0.466-1.505c-0.287-0.543-0.962-0.752-1.505-0.466c-2.246,1.189-4.409,2.515-6.506,3.931
				c-1.929-3.064-3.822-6.146-5.65-9.289c1.32-0.657,2.742-1.302,4.074-1.78c0.46-0.197,0.675-0.734,0.478-1.194
				s-0.734-0.675-1.194-0.478c-1.416,0.58-2.832,1.272-4.199,1.989c-1.685-2.927-3.334-5.866-4.952-8.823
				c2.998-1.714,6.075-3.166,9.169-4.683c0.598-0.305,0.836-1.045,0.531-1.643s-1.045-0.836-1.643-0.532
				c-3.07,1.601-6.068,3.309-9.008,5.119c-1.38-2.544-2.729-5.107-4.056-7.682c-0.149-0.287-0.293-0.573-0.442-0.854
				c3.262-1.595,6.685-3.07,10.012-4.128c0.675-0.233,1.027-0.979,0.795-1.654c-0.233-0.675-0.98-1.027-1.655-0.794
				c-3.59,1.153-6.977,2.658-10.274,4.349c-0.047-0.102-0.095-0.197-0.148-0.299c2.854-2.778,5.704-5.567,8.541-8.345
				c0.078-0.048,0.144-0.09,0.203-0.144c0.317-0.322,0.64-0.639,0.962-0.956c1.978,4.277,4.122,8.482,6.272,12.675
				c1.821,3.554,3.596,7.186,5.274,10.806c0.765,1.643,1.445,3.357,2.18,5.018c0.203,0.472,0.765,0.687,1.237,0.484
				c0.472-0.203,0.687-0.765,0.483-1.236c-0.765-1.708-1.464-3.464-2.264-5.155c-1.727-3.65-3.489-7.264-5.311-10.872
				c-2.187-4.313-4.42-8.662-6.457-13.088c1.428-1.374,2.873-2.729,4.343-4.067c1.618-1.278,3.249-2.545,4.874-3.811
				c0.818,2.412,1.643,4.826,2.437,7.245c1.046,3.184,2.259,6.272,3.812,9.235c0.675,1.296,1.439,2.359,2.24,3.56
				c0.322,0.46,0.974,0.573,1.434,0.25c0.46-0.322,0.573-0.974,0.251-1.434c-3.578-5.047-5.054-10.28-7.061-16.074
				c-0.473-1.356-0.885-2.766-1.332-4.164c2.413-1.869,4.838-3.738,7.257-5.608c0.795,1.846,1.637,3.673,2.593,5.472
				c0.478,0.89,1.021,1.708,1.523,2.568c0.227,0.358,0.717,0.466,1.075,0.238c0.358-0.227,0.466-0.717,0.239-1.074
				c-1.655-2.467-2.963-5.424-4.158-8.189c0.932-0.717,1.858-1.434,2.79-2.15c10.585-8.208,21.115-16.522,31.545-24.927
				c7.252-5.849,14.324-11.81,21.349-17.914c3.321-2.892,6.66-5.884,9.862-8.967c-0.102,1.171-0.197,2.342-0.287,3.519
				c-3.87,2.683-7.526,6.248-10.907,9.182c-3.31,2.873-6.505,5.489-10.196,7.843c-1.326,0.848-2.736,1.493-4.092,2.264
				c-0.18,0.096-0.257,0.328-0.161,0.508c0.096,0.179,0.328,0.257,0.508,0.161c1.35-0.765,2.754-1.422,4.104-2.216
				c1.75-1.027,3.488-2.229,5.131-3.417c5.215-3.781,10.077-8.076,15.417-11.678c-0.144,2.043-0.269,4.086-0.347,6.135
				c-0.047,0.83,0.586,1.547,1.416,1.595s1.547-0.586,1.595-1.416c0.114-2.76,0.299-5.543,0.49-8.314
				c0.412-0.245,0.824-0.484,1.242-0.711c0.508-0.299,0.669-0.962,0.37-1.47c-0.292-0.496-0.926-0.663-1.427-0.4
				c0.029-0.466,0.065-0.932,0.101-1.392c0.078-1.104,0.149-2.216,0.216-3.327c0.316-0.316,0.627-0.639,0.943-0.955
				c2.526-2.617,4.803-5.46,6.995-8.375C688.368-283.299,688.403-282.665,688.445-282.032z M288.352-272.534
				c7.413,6.946,15.077,13.727,22.818,20.375c-5.525-4.241-11.009-8.542-16.439-12.885c-6.469-5.173-12.831-10.465-19.162-15.787
				c0.418-0.724,0.854-1.44,1.29-2.175c0.066-0.119,0.131-0.239,0.203-0.358C280.766-279.69,284.559-276.083,288.352-272.534z
				 M312.526-248.295c7.15,5.663,14.3,11.392,21.576,16.887c4.408,3.333,8.798,6.696,13.207,10.035
				c0.747,0.567,1.505,1.135,2.275,1.715c5.501,4.658,10.967,9.396,16.373,14.198c2.156,1.912,4.319,3.817,6.475,5.734
				c-4.82,2.604-9.289,5.514-13.965,8.614c-2.813,1.857-5.591,3.895-8.291,5.914c-3.53,2.64-7.019,5.31-10.441,8.088
				c-0.251,0.197-0.293,0.573-0.096,0.824s0.573,0.292,0.824,0.096c7.383-6.027,15.519-11.845,23.708-16.713
				c1.978-1.177,3.966-2.354,5.991-3.441c1.183-0.633,2.39-1.225,3.578-1.846c0.084-0.048,0.173-0.096,0.263-0.144
				c1.78,1.589,3.548,3.184,5.31,4.797c0.92,0.842,1.846,1.696,2.766,2.544c-1.159,0.723-2.317,1.446-3.482,2.15
				c-2.079,1.254-4.146,2.539-6.218,3.805c-1.87,1.141-3.769,2.24-5.603,3.435c-9.396,6.117-18.685,12.46-27.722,19.085L339-162.165
				l0.353,0.054c5.938-4.301,12.018-8.297,18.338-12.006c2.515-1.476,5.054-2.903,7.58-4.361c1.69-0.974,3.399-1.881,5.06-2.909
				c4.133-2.563,8.333-5.024,12.496-7.533c0.293-0.179,0.591-0.364,0.89-0.543c1.332,1.243,2.658,2.497,3.979,3.757
				c0.376,0.358,0.752,0.723,1.129,1.093c-1.171,0.818-2.336,1.654-3.513,2.467c-2.335,1.601-4.659,3.22-6.989,4.838
				c0.245-0.938,0.496-1.875,0.759-2.808c0.066-0.245-0.09-0.508-0.334-0.573c-0.245-0.066-0.508,0.089-0.574,0.334
				c-0.358,1.284-0.71,2.581-1.057,3.883c-2.037,1.41-4.074,2.813-6.128,4.205c-6.923,4.671-13.978,9.049-21.182,13.273
				c-0.143,0.078-0.191,0.269-0.113,0.412c0.078,0.143,0.269,0.191,0.412,0.113c1.846-1.129,3.751-2.156,5.603-3.273
				c3.494-2.108,6.982-4.217,10.471-6.337c3.494-2.133,6.977-4.313,10.447-6.517c-0.591,2.324-1.147,4.659-1.625,6.995
				c-0.227,1.082-0.448,2.163-0.669,3.25c-4.241,2.467-8.488,4.868-12.789,7.246c0.322-1.738,0.734-3.446,1.308-5.095
				c0.06-0.191-0.048-0.406-0.239-0.466c-0.191-0.06-0.406,0.048-0.466,0.239c-0.645,1.954-1.039,3.638-1.41,5.657
				c-1.016,5.579-0.979,11.379-2.348,16.905c-3.124,2.945-6.236,5.914-9.318,8.906c0.245-1.267,0.508-2.545,0.747-3.823
				c0.298-1.619,0.514-3.286,0.878-4.886c0.687-3.011,1.171-6.194,2.324-9.085c0.065-0.203-0.054-0.43-0.257-0.496
				c-0.203-0.065-0.43,0.054-0.496,0.257c-1.326,3.357-1.959,7.317-2.628,10.866c-0.448,2.365-0.854,4.731-1.296,7.096
				c-0.066,0.329-0.131,0.657-0.203,0.979c-6.666,6.505-13.189,13.153-19.383,20.059c-0.299,0.323-0.275,0.836,0.047,1.135
				c0.323,0.299,0.836,0.275,1.135-0.048c0.269-0.311,0.543-0.615,0.854-0.89c-3.799,3.757-7.508,7.598-11.158,11.493
				c0.448-7.084,0.878-13.888,3.208-20.787c0.113-0.365-0.084-0.765-0.448-0.878c-0.364-0.113-0.765,0.084-0.878,0.448
				c-0.382,1.201-0.759,2.341-1.075,3.566c-0.794,3.059-1.207,6.2-1.541,9.336c-0.341,3.208-0.574,6.535-0.639,9.784
				c-3.321,3.572-6.601,7.18-9.85,10.806c-6.146,6.852-12.198,13.751-18.189,20.733c-2.616,3.046-5.269,6.135-7.783,9.259
				c-1.87,2.324-3.823,4.594-5.692,6.929c-2.085,2.592-4.164,5.191-6.218,7.795c0.047-1.589,0.095-3.178,0.149-4.767
				c0.287-3.309,0.538-6.636,0.801-9.952c0.412-5.334,0.639-10.776,0.83-16.122c0.191-5.334,0.34-10.668,0.454-15.997l0.065-4.325
				l0.215-7.652c0.119-4.11,0.221-8.22,0.233-12.323c0.012-5.029,0.113-10.065,0.144-15.095c0.065-12.18,0.024-24.383-0.066-36.562
				c-0.018-2.079-0.036-4.151-0.054-6.17c0.155-8.189,0.299-16.313,0.436-24.437c0.257-15.728,0.735-31.462,0.95-47.189
				c0.137-9.91,0.102-19.796,0.048-29.705c0.006-0.514-0.406-0.95-0.92-0.956c-0.436-0.006-0.812,0.287-0.926,0.681
				c0.018-0.585,0.03-1.177,0.048-1.768c0.024-1.094,0.054-2.169,0.089-3.231c0.34-0.042,0.651-0.251,0.807-0.58
				c0.257-0.615,0.543-1.2,0.848-1.773C287.157-268.76,299.749-258.413,312.526-248.295z M266.788-263.294
				c0.311,0.646,1.051,2.156,1.738,3.315c0,0.382-0.006,0.765-0.006,1.152c-0.042,4.898,0,9.803,0.024,14.701
				c0.042,7.609,0.227,15.25,0.209,22.854c-0.006,2.992,0.078,6.01,0.12,9.002c0.12,8.219,0.281,16.438,0.376,24.658
				c0.125,11.051,0.328,22.107,0.508,33.158c-0.376,23.278-0.741,46.556-1.153,69.834c-0.149,8.148-0.161,16.308-0.185,24.539
				c-0.579,8.16-1.344,16.379-2.395,24.568c-0.484,0.633-0.968,1.272-1.452,1.917c-0.149-1.314-0.239-2.658-0.287-4.014
				c-0.078-2.204,0.024-4.408,0.024-6.618c-0.006-4.08,0.37-8.07,0.705-12.132c0.144-1.75,0.311-3.793,0.604-5.514
				c0.03-0.281-0.09-0.543-0.299-0.711c0.09-1.386,0.173-2.771,0.257-4.157c0.591-9.91,0.651-19.837,0.508-29.759
				c-0.113-7.574-0.185-15.154-0.305-22.729c-0.173-10.907-0.323-21.809-0.472-32.716c-0.078-5.627-0.012-11.284-0.215-16.905
				c-0.549-15.345-1.003-30.745-1.105-46.096c-0.065-9.994,0.018-19.981,0.191-29.975c0.071-4.229,0.25-8.458,0.382-12.688
				c0.108-3.655,0.257-7.323,0.437-10.99C265.42-266.711,266.011-264.906,266.788-263.294z M271.835-252.063
				c-0.49,0.083-0.878,0.501-0.884,1.015c-0.089,0.663-0.185,1.326-0.275,1.989l-0.167,1.696l-0.066-4.098
				c-0.03-2.252-0.048-4.504-0.06-6.75c0.699,0.108,1.404-0.221,1.78-0.812C272.05-256.705,271.937-254.388,271.835-252.063z
				 M675.824-253.115c-1.912,1.637-3.854,3.519-5.472,5.447c-0.92,1.094-1.858,2.259-2.796,3.321
				c-0.232,0.27-0.663,0.776-0.836,1.069c-0.174,0.228-0.132,0.567,0.096,0.741c0.227,0.173,0.567,0.131,0.74-0.096
				c0.257-0.442,0.782-0.992,1.111-1.404c0.752-0.943,1.564-1.875,2.365-2.783c2.706-3.053,6.033-6.463,9.803-8.118
				c0.304-0.137,0.441-0.514,0.304-0.818c-0.137-0.305-0.514-0.441-0.818-0.305C678.882-255.564,676.977-254.101,675.824-253.115z
				 M693.648-225.662c0.908,16.756,1.35,33.541,2.222,50.313c0.006,0.526,0.006,1.052,0.006,1.577
				c-0.042,9.36-0.311,18.714-0.52,28.075c-0.161,7.246-0.436,14.545-0.759,21.785c-0.113,2.438-0.203,4.88-0.292,7.258
				c-0.084-4.104-0.18-8.273-0.27-12.437c-0.137-6.135-0.328-12.27-0.466-18.404c-0.096-4.373-0.125-8.847-0.376-13.207
				c-0.483-8.381-0.854-16.797-1.177-25.184c-0.113-2.897-0.227-5.794-0.341-8.691c0-19.138,0-38.271,0-57.41
				C692.543-243.224,693.164-234.442,693.648-225.662z M465.766-244.448c-1.171,1.255-2.27,2.581-3.423,3.841
				c-1.499,1.637-2.999,3.273-4.504,4.904c-2.616,2.838-5.143,5.699-7.604,8.674c-1.409,1.708-3.034,3.625-4.217,5.507
				c-1.995,3.172-3.722,6.23-5.232,9.671c-0.138,0.305,0,0.682,0.305,0.818c0.305,0.138,0.681,0,0.818-0.305
				c0.705-1.523,1.428-2.915,2.228-4.391c0.872-1.601,2.062-3.303,3.148-4.772c0.997-1.344,1.923-2.759,3.005-4.038
				c0.949-1.123,1.887-2.264,2.831-3.398c0.537-0.645,1.135-1.261,1.696-1.888c1.983-2.222,4.038-4.372,6.069-6.553
				c2.114-2.27,4.139-4.581,6.218-6.875c0.328-0.364,0.293-0.938-0.071-1.267S466.094-244.812,465.766-244.448z M313.846-238.409
				c-0.663,0.263-1.296,0.484-1.959,0.729c-0.741,0.274-1.565,0.232-2.306,0.376c-0.341,0.023-0.592,0.334-0.568,0.675
				s0.334,0.592,0.675,0.567c0.818-0.138,1.613-0.131,2.455-0.34c0.776-0.191,1.517-0.508,2.27-0.717
				c1.171-0.329,2.562-1.207,3.662-1.757c0.353-0.173,0.675-0.454,1.04-0.621c0.424-0.287,0.538-0.866,0.251-1.29
				s-0.866-0.538-1.291-0.251C316.767-240.111,315.345-239,313.846-238.409z M483.781-230.578c-1.972,1.451-3.931,2.922-5.866,4.427
				c-0.119,0.089-0.144,0.269-0.054,0.388s0.27,0.144,0.389,0.055c2.019-1.554,4.062-3.076,6.122-4.582
				c0.479,0.238,0.962,0.484,1.452,0.734c1.702,0.866,3.291,1.941,4.934,2.922c0.801,0.578,1.571,1.17,2.312,1.756
				c-0.334,0.508-0.286,1.194,0.132,1.648c-0.646,0.478-1.284,0.968-1.911,1.463c-0.174,0.126-0.21,0.377-0.084,0.55
				c0.125,0.173,0.376,0.209,0.55,0.084c0.663-0.526,1.344-1.04,2.036-1.548c1.261,1.172,2.497,2.414,3.733,3.608
				c1.32,1.278,2.677,2.515,3.984,3.806c0.126,0.125,0.257,0.25,0.389,0.376c-0.048,0.06-0.096,0.113-0.138,0.173
				c-0.239,0.281-0.203,0.711,0.078,0.949c0.28,0.24,0.71,0.203,0.949-0.077c0.024-0.036,0.054-0.065,0.078-0.095
				c3.691,3.565,7.521,7.006,11.188,10.596c4.653,4.558,9.498,8.948,14.163,13.505c7.138,6.971,14.384,13.834,21.552,20.781
				c0.03,0.054,0.06,0.107,0.102,0.162c0.018,0.024,0.036,0.042,0.071,0.006l0.174,0.167c-0.335,0.334-0.663,0.669-0.992,1.01
				c-0.203,0.191-0.299,0.46-0.286,0.723c-0.18,0.155-0.353,0.316-0.526,0.478c-0.334,0.305-0.364,0.836-0.06,1.171
				c0.305,0.334,0.837,0.364,1.171,0.06c0.723-0.663,1.458-1.326,2.187-1.989c2.079,2.025,4.151,4.056,6.218,6.111
				c4.881,4.844,9.82,9.641,14.677,14.509c1.81,1.816,3.62,3.632,5.43,5.448c-0.286,0.257-0.567,0.52-0.842,0.776
				c-0.281,0.245-0.311,0.681-0.066,0.961c0.245,0.281,0.682,0.311,0.962,0.066c0.299-0.281,0.604-0.556,0.908-0.83
				c8.429,8.482,16.821,17.006,25.142,25.644c-0.03,0.03-0.06,0.06-0.083,0.095c-0.592,0.627-1.249,1.23-1.816,1.876
				c-0.263,0.269-0.257,0.705,0.012,0.967c0.27,0.263,0.705,0.257,0.968-0.012c0.532-0.609,1.177-1.147,1.708-1.744
				c0.055-0.066,0.108-0.125,0.162-0.191c1.158,1.201,2.312,2.407,3.464,3.614c1.117,1.302,2.24,2.604,3.363,3.913
				c-0.215,0.233-0.436,0.472-0.646,0.711c-0.209,0.227-0.196,0.597,0.03,0.807c0.228,0.209,0.598,0.197,0.807-0.03
				c0.149-0.203,0.34-0.418,0.55-0.627c3.422,3.978,6.857,7.968,10.285,11.964c-0.567,0.437-1.135,0.872-1.696,1.309
				c-0.221,0.161-0.269,0.483-0.107,0.705s0.484,0.269,0.705,0.107c0.579-0.454,1.165-0.902,1.756-1.35
				c0.962,1.117,1.918,2.234,2.874,3.351c6.57,7.676,13.171,15.316,19.795,22.944c7.18,8.267,14.342,16.403,22.215,24.031
				c0.102,0.102,0.209,0.203,0.316,0.311c2.288,2.993,4.594,6.039,6.983,8.942c1.493,1.816,3.011,3.62,4.546,5.418
				c0.102,2.771,0.227,5.496,0.286,8.237c-2.156,2.801-4.33,5.621-6.093,8.602c-0.496,0.83-0.938,1.637-1.374,2.467
				c-0.603,0.801-1.212,1.643-1.744,2.455c-0.238,0.353-0.37,0.884,0.013,1.332c-0.042,0.084-0.055,0.114-0.066,0.149
				c-0.28,0.669-0.496,1.535-0.669,2.425l-0.102,0.633l-3.446,0.472c-3.405,0.371-6.81,0.681-10.196,0.974
				c0.041-0.125,0.065-0.263,0.065-0.4c0-0.776-0.627-1.416-1.404-1.416c-8.978-0.4-17.985-0.651-26.975-0.758
				c-7.413-0.09-14.832-0.012-22.245,0.078c-9.067,0.107-18.129,0.185-27.196,0.316c-14.516,0.209-29.037,0.358-43.552,0.573
				c-10.608,0.155-21.199,0.287-31.617,0.358c-3.214-0.071-6.248-0.143-9.276-0.203c-7.443-0.161-14.886-0.388-22.328-0.579
				c-26.008-0.669-52.01-1.392-77.97-2.126c-1.153-0.09-2.27-0.186-3.387-0.275c-4.343-0.364-8.739-0.752-13.064-1.272
				c-2.461-0.298-4.916-0.585-7.377-0.89c-2.664-0.328-5.328-0.771-7.992-1.117l-0.036,0.275c6.654,0.896,13.267,1.894,19.945,2.682
				c0.89,0.102,1.786,0.221,2.682,0.334c-12.663-0.364-25.339-0.788-37.996-1.314c-12.239-0.514-24.491-1.021-36.718-1.78
				c-8.757-0.543-17.502-1.129-26.252-1.762c-1.32-0.096-2.712-0.263-4.032-0.251c-1.439,0.012-2.861,0.042-4.277,0.06
				c-3.512-4.988-5.818-10.794-5.012-16.934l0.239-1.368l0.353-0.388c1.201-1.356,1.69-2.252,2.324-4.235
				c0.143-0.46-0.107-0.961-0.567-1.105c-0.46-0.143-0.962,0.107-1.105,0.567c-0.43,1.338-0.765,2.103-1.613,3.232
				c-0.078,0.102-0.173,0.197-0.275,0.292c0.054-2.073,0.113-4.146,0.179-6.212c0.501-0.639,0.998-1.278,1.493-1.923
				c3.363-4.426,6.917-8.864,10.513-13.105c5.31-6.266,10.656-12.407,16.224-18.446c6.355-6.899,12.878-13.625,19.491-20.267
				c-0.024,1.17-0.024,2.449-0.102,3.608c-0.107,1.565-0.221,3.136-0.328,4.701c0.274-0.37,0.639-3.106,0.717-3.721
				c0.233-1.846,0.448-3.674,0.633-5.514c3.453-3.452,6.923-6.893,10.412-10.316c19.67-19.354,39.956-38.253,61.065-56.036
				c6.069-5.113,12.132-10.214,18.278-15.238c4.832-3.949,9.719-7.831,14.557-11.773c7.838-6.38,15.955-12.425,23.894-18.679
				c5.293-4.169,10.483-8.464,15.758-12.652c0.747-0.549,0.908-1.619,0.358-2.365s-1.619-0.908-2.365-0.358
				c-5.28,3.56-10.514,7.114-15.668,10.854c-5.478,3.972-10.794,8.195-16.122,12.359c-5.765,4.504-11.528,9.067-17.168,13.727
				c-2.843,2.348-5.687,4.689-8.523,7.037c-0.024-0.03-0.048-0.06-0.065-0.089c-0.149-0.197-0.293-0.395-0.437-0.591
				c15.148-12.902,30.774-25.166,47.1-36.479c5.908-4.098,12.055-8.064,18.23-11.743c2.372-1.416,4.797-2.772,7.229-4.074
				c1.421-0.759,2.98-1.464,4.342-2.294c1.123-0.692,2.252-1.415,3.375-2.108C483.423-230.751,483.602-230.668,483.781-230.578z
				 M324.353-228.619c-0.669,0.348-1.356,0.783-2.031,1.105c-0.555,0.264-1.105,0.598-1.661,0.879
				c-1.009,0.507-2.025,0.781-3.1,1.116c-0.263,0.071-0.418,0.358-0.346,0.622c0.072,0.262,0.358,0.418,0.621,0.346
				c1.326-0.406,2.443-0.734,3.691-1.367c2.431-1.23,5.089-2.939,7.873-2.976c0.34-0.023,0.591-0.335,0.567-0.675
				s-0.334-0.592-0.675-0.567C327.722-230.117,325.733-229.33,324.353-228.619z M679.372-227.723
				c-3.942,2.808-6.941,6.039-9.904,9.844c-0.758,0.975-1.57,1.936-2.287,2.939c-0.358,0.466-0.269,1.152,0.197,1.512
				c0.466,0.357,1.152,0.268,1.511-0.197c0.729-1.04,1.625-2.085,2.443-3.059c1.696-2.014,3.393-3.829,5.357-5.586
				c1.59-1.421,3.273-2.926,5.107-4.031c0.693-0.418,1.392-0.777,2.085-1.183c0.621-0.335,0.854-1.13,0.52-1.751
				c-0.334-0.621-1.129-0.854-1.75-0.52C681.522-229.191,680.399-228.457,679.372-227.723z M334.233-223.595l-0.221,0.304
				c-0.203,0.246-0.543,0.586-0.807,0.783c-1.403,1.045-2.759,2.007-4.253,2.975c-0.741,0.479-1.601,0.968-2.306,1.487
				c-0.687,0.508-1.672,0.956-2.192,1.577c-0.215,0.227-0.209,0.592,0.018,0.807s0.591,0.209,0.807-0.018
				c0.03-0.102,0.639-0.538,0.782-0.622c0.681-0.382,1.398-0.95,2.085-1.38c2.162-1.35,4.235-2.754,6.218-4.307
				c0.353-0.281,0.562-0.633,0.848-0.902c0.191-0.269,0.131-0.65-0.137-0.842C334.806-223.924,334.424-223.863,334.233-223.595z
				 M682.609-217.843c-1.123,0.782-2.216,1.595-3.309,2.425c-2.342,1.774-4.559,3.716-6.631,5.795
				c-1.326,1.332-2.813,2.951-3.793,4.551c-0.353,0.52-0.215,1.243,0.305,1.595c0.52,0.352,1.242,0.215,1.595-0.305
				c1.481-2.485,4.128-4.773,6.254-6.672c1.804-1.613,3.799-2.963,5.759-4.367c0.866-0.615,2.036-1.434,2.98-1.918
				c0.621-0.388,0.807-1.218,0.418-1.839c-0.389-0.622-1.219-0.807-1.84-0.419C683.828-218.744,683.105-218.189,682.609-217.843z
				 M332.578-209.379c-0.257,0.191-0.311,0.568-0.12,0.824c0.191,0.258,0.568,0.311,0.825,0.12c2.377-1.804,4.772-3.597,7.168-5.376
				c0.257-0.191,0.311-0.567,0.119-0.824c-0.191-0.257-0.567-0.311-0.824-0.119C337.351-212.975,334.956-211.183,332.578-209.379z
				 M339.388-204.666c-1.051,0.86-2.145,1.649-3.19,2.497c-0.233,0.173-0.287,0.514-0.113,0.747s0.514,0.287,0.747,0.113
				c1.081-0.896,2.27-1.672,3.327-2.61c1.034-0.92,1.989-1.876,2.999-2.813c0.209-0.203,0.215-0.543,0.012-0.752
				s-0.543-0.216-0.753-0.013C341.407-206.559,340.451-205.537,339.388-204.666z M354.954-203.608
				c-4.534,2.443-9.312,4.761-12.825,8.632c-0.543,0.597-1.111,1.177-1.577,1.84c-0.197,0.239-0.155,0.603,0.083,0.8
				c0.239,0.197,0.603,0.155,0.8-0.083c1.021-1.201,1.846-2.181,3.022-3.244c3.686-3.333,8.166-5.394,12.598-7.55
				c1.613-0.783,3.25-1.607,4.875-2.354c0.358-0.179,0.501-0.621,0.323-0.979c-0.18-0.358-0.622-0.502-0.98-0.322
				C359.184-205.771,357.027-204.725,354.954-203.608z M590.519-205.316c-0.03-0.072-0.06-0.144-0.09-0.215
				c0.406-0.287,0.812-0.568,1.225-0.849C591.277-206.021,590.895-205.669,590.519-205.316z M523.199-200.442
				c0.4,0.131,0.812,0.239,1.23,0.353c-0.138,0.155-0.269,0.305-0.4,0.46c-0.316,0.353-0.286,0.908,0.065,1.225
				c0.353,0.316,0.908,0.287,1.225-0.066c0.239-0.257,0.479-0.514,0.717-0.765c3.137,2.832,6.207,5.758,9.235,8.721
				c-0.364,0.292-0.723,0.585-1.081,0.884c-0.239,0.186-0.281,0.538-0.096,0.777c0.185,0.239,0.537,0.281,0.776,0.096
				c0.4-0.323,0.812-0.639,1.225-0.95c1.756,1.732,3.506,3.476,5.25,5.227c3.937,3.948,7.838,7.95,11.66,12.012
				c-0.4,0.299-0.807,0.597-1.206,0.902c-3.889-3.68-7.777-7.347-11.66-11.015c-5.239-4.946-10.507-9.868-15.746-14.814
				c-1.696-1.601-3.387-3.208-5.077-4.814C520.523-201.512,521.802-200.914,523.199-200.442z M385.992-193.412
				c-0.215,0.131-0.424,0.257-0.639,0.388c-1.243-1.159-2.491-2.312-3.745-3.453C383.065-195.455,384.528-194.427,385.992-193.412z
				 M391.32-189.732c-0.125,0.657-0.239,1.326-0.376,1.983c-1.32-1.266-2.652-2.509-3.972-3.757
				c0.311-0.191,0.622-0.388,0.932-0.579C389.038-191.297,390.179-190.515,391.32-189.732z M584.677-180.581
				c0.274,0.532,0.556,1.063,0.836,1.595c-1.827,1.153-3.619,2.348-5.394,3.584c-1.696-3.04-3.423-6.051-5.232-9.02
				c1.129-0.639,2.275-1.267,3.429-1.87c0.884-0.472,1.792-0.944,2.712-1.41C582.228-185.324,583.44-182.953,584.677-180.581z
				 M579.414-174.9c-3.034,2.145-5.979,4.42-8.828,6.828c-0.406,0.334-0.812,0.681-1.207,1.021c-1.612-2.646-3.208-5.311-4.791-7.98
				c3.023-2.885,6.039-5.776,9.05-8.673c0.149-0.09,0.299-0.179,0.448-0.263C575.926-180.987,577.688-177.958,579.414-174.9z
				 M386.655-171.52c-2.855,1.607-5.681,3.268-8.518,4.946c-0.89,0.52-1.774,1.04-2.658,1.553c0.711-3.453,1.481-6.893,2.342-10.328
				c2.293-1.463,4.575-2.921,6.851-4.378c1.708-1.099,3.429-2.216,5.155-3.303C388.835-179.171,387.712-175.354,386.655-171.52z
				 M393.625-180.067c1.159,1.033,2.342,2.061,3.537,3.076l-0.006,0.012c-0.395,0.179-0.777,0.364-1.147,0.549
				c-2.724,1.314-5.388,2.718-8.022,4.175c0.316-1.236,0.645-2.473,0.961-3.697c0.556-2.216,1.093-4.468,1.708-6.667
				c0.012-0.06,0.03-0.119,0.048-0.179C391.66-181.877,392.628-180.958,393.625-180.067z M680.531-174.679
				c-1.882,1.583-4.021,3.017-5.968,4.551c-1.732,1.368-3.279,2.694-4.874,4.217c-0.866,0.831-1.876,1.87-2.568,2.85
				c-0.412,0.501-0.335,1.248,0.167,1.661c0.502,0.412,1.248,0.334,1.66-0.167c0.682-0.992,1.769-2.049,2.646-2.873
				c1.177-1.111,2.39-2.198,3.697-3.154c3.603-2.628,7.156-5.239,10.65-7.999c0.579-0.484,0.657-1.362,0.174-1.941
				c-0.484-0.58-1.362-0.657-1.941-0.173C682.968-176.681,681.737-175.695,680.531-174.679z M591.26-168.461
				c-1.918,1.039-3.74,2.12-5.508,3.255c-1.123-2.031-2.24-4.068-3.357-6.093c-0.478-0.866-0.955-1.732-1.434-2.599
				c1.78-1.17,3.603-2.3,5.454-3.387C587.992-174.321,589.61-171.382,591.26-168.461z M562.659-176.65
				c-1.38,1.32-2.76,2.634-4.134,3.96c-0.144-0.143-0.28-0.287-0.418-0.424c0.896-0.807,1.792-1.607,2.688-2.407
				c0.598-0.418,1.195-0.824,1.805-1.23C562.617-176.716,562.635-176.681,562.659-176.65z M568.603-166.376
				c-0.723,0.639-1.439,1.278-2.145,1.929c-2.055-2.156-4.122-4.312-6.194-6.451c1.23-1.177,2.461-2.347,3.686-3.524
				C565.508-171.74,567.05-169.059,568.603-166.376z M389.576-167.995c-1.147,1.033-2.282,2.073-3.279,2.993
				c0.227-1.117,0.466-2.228,0.723-3.345c0.06-0.275,0.125-0.549,0.191-0.824c1.051-0.562,2.114-1.105,3.178-1.625
				c1.643-0.812,3.315-1.613,4.976-2.425C393.417-171.49,391.493-169.751,389.576-167.995z M585.059-164.758
				c-3.219,2.109-6.283,4.391-9.414,6.894c-0.131,0.095-0.256,0.197-0.382,0.305c-1.744-2.754-3.465-5.514-5.161-8.297
				c3.25-2.7,6.631-5.221,10.143-7.568C581.863-170.54,583.458-167.649,585.059-164.758z M402.46-172.625
				c-2.664,2.21-5.316,4.42-7.962,6.66c0.155-0.43,0.323-0.86,0.49-1.284c2.264-1.983,4.534-3.948,6.821-5.902
				C402.024-172.977,402.239-172.798,402.46-172.625z M555.497-169.805c-0.107,0.107-0.215,0.209-0.322,0.317
				c-0.222,0.203-0.347,0.472-0.377,0.752c-0.257-0.245-0.508-0.484-0.765-0.723c0.323-0.293,0.646-0.585,0.974-0.872
				C555.168-170.158,555.336-169.979,555.497-169.805z M384.63-163.551c-2.867,2.497-5.621,4.922-8.345,7.359
				c-0.986,0.872-1.965,1.744-2.939,2.616c0.501-2.945,1.033-5.872,1.607-8.792c1.499-0.836,3.004-1.679,4.516-2.509
				c2.097-1.165,4.217-2.377,6.355-3.548C385.4-166.807,385-165.182,384.63-163.551z M563.215-161.437
				c-0.12,0.113-0.233,0.227-0.353,0.334c-2.204-2.09-4.408-4.181-6.612-6.26c0.232-0.042,0.46-0.149,0.645-0.323
				c0.096-0.102,0.197-0.197,0.299-0.292C559.206-165.809,561.214-163.623,563.215-161.437z M597.681-157.428
				c-1.774,1.249-3.5,2.557-5.203,3.906c-2.078-3.435-4.067-6.923-6.026-10.423c1.785-1.129,3.745-2.103,5.627-3.07
				C593.905-163.802,595.775-160.606,597.681-157.428z M393.644-165.355c0.03,0.012,0.065,0.018,0.096,0.024
				c-2.557,2.168-5.107,4.354-7.628,6.571c-4.6,4.014-9.229,7.992-13.912,12.179v-0.006c6.947-6.499,13.966-12.902,21.092-19.174
				C393.333-165.582,393.458-165.427,393.644-165.355z M574.253-156.724c-0.102,0.084-0.203,0.173-0.298,0.263
				c-2.187-2.354-4.385-4.695-6.595-7.03c0.639-0.574,1.284-1.129,1.935-1.685C570.932-162.351,572.581-159.525,574.253-156.724z
				 M591.814-153.002c-2.323,1.857-4.605,3.775-6.875,5.687c-0.483,0.4-0.968,0.812-1.451,1.225
				c-0.896-0.98-1.786-1.959-2.677-2.939c-1.648-2.461-3.267-4.946-4.855-7.443c1.158-0.956,2.347-1.888,3.565-2.766
				c2.061-1.511,4.122-2.867,6.242-4.259C587.735-159.967,589.73-156.455,591.814-153.002z M372.856-157.082
				c-0.334,1.577-0.633,3.178-0.926,4.773c-3.817,3.417-7.616,6.863-11.344,10.375c-0.394,0.364-0.788,0.735-1.177,1.105
				c0.376-1.816,0.633-3.703,0.842-5.525c0.317-2.891,0.544-5.877,0.974-8.816c0.257,0.107,0.568,0.107,0.831-0.03
				c1.804-0.992,3.656-1.923,5.441-2.945c2.091-1.201,4.199-2.396,6.308-3.578C373.489-160.176,373.173-158.629,372.856-157.082z
				 M567.694-156.508c-1.296-1.237-2.593-2.467-3.889-3.698c0.096-0.089,0.186-0.179,0.281-0.269
				C565.293-159.155,566.494-157.834,567.694-156.508z M575.251-155.063c-0.144-0.155-0.287-0.311-0.425-0.46
				c0.03-0.03,0.066-0.06,0.096-0.089C575.029-155.427,575.144-155.248,575.251-155.063z M680.787-150.631
				c-0.376,0.376-1.116,1.165-1.534,1.428c-0.377,0.239-0.741,0.615-1.153,0.842c-0.311,0.167-1.058,0.478-1.278,0.645
				c-0.299,0.221-1.428,0.364-1.828,0.484c-0.573,0.114-0.949,0.681-0.836,1.254s0.681,0.95,1.255,0.836
				c0.405-0.107,0.836-0.144,1.23-0.275c1.606-0.538,2.831-1.117,4.127-2.246c0.412-0.358,0.795-0.752,1.219-1.105
				c0.334-0.281,0.717-0.723,1.027-1.045c1.045-1.093,2.921-2.909,4.349-3.453c0.544-0.281,0.753-0.956,0.472-1.499
				c-0.28-0.543-0.955-0.753-1.499-0.472C684.407-154.496,682.239-152.082,680.787-150.631z M339.621-139.096
				c-0.287,1.583-0.508,3.184-0.789,4.767c-0.287,1.601-0.609,3.202-0.914,4.797c-0.585,3.082-1.296,6.152-1.876,9.241
				c-0.047,0.257,0.125,0.514,0.382,0.562s0.514-0.125,0.562-0.382c0.633-3.519,1.434-7.019,2.103-10.531
				c0.526-2.771,0.992-5.525,1.487-8.297c0.042-0.263-0.137-0.514-0.4-0.556C339.914-139.538,339.663-139.359,339.621-139.096z
				 M696.079-117.473c-0.155,8.542-0.43,17.107-0.704,25.649c-0.287,8.763-0.568,17.526-0.843,26.283
				c0.102-8.369,0.173-16.743,0.144-25.13c-0.012-2.216-0.03-4.426-0.054-6.672c0.155-2.592,0.322-5.221,0.508-7.837
				c0.353-5.053,0.669-10.107,0.997-15.166C696.109-119.39,696.092-118.435,696.079-117.473z M691.976-113.871
				c0.281,4.169,0.538,8.351,0.729,12.526c0.168,3.841,0.358,7.688,0.526,11.475c-0.048,1.189-0.09,2.324-0.138,3.458
				c-0.215,4.898-0.4,9.809-0.562,14.712c-0.287,0.209-0.573,0.424-0.854,0.633c0-15.716,0-31.432,0-47.147
				C691.778-116.768,691.874-115.322,691.976-113.871z M652.516-86.089c-0.675,0.651-1.463,0.979-2.365,1.188
				c-0.287,0.066-0.663,0.03-0.962,0.084c-0.245,0.012-0.436,0.239-0.424,0.484c0.012,0.245,0.239,0.436,0.483,0.424
				c0.341-0.054,0.747-0.012,1.069-0.095c1.278-0.317,2.192-0.735,3.118-1.685c1.947-1.989,3.447-5.346,6.577-5.388
				c0.245-0.018,0.43-0.251,0.412-0.496c-0.019-0.245-0.251-0.43-0.496-0.412C656.351-91.943,654.779-88.275,652.516-86.089z
				 M693.69-75.331c0.065,4.444,0.077,8.882,0.131,13.321c0.09,7.58-0.185,15.214-0.525,22.812c-0.096,0.305-0.173,0.55-0.203,0.657
				c-0.395,1.183-0.89,2.371-1.422,3.548c0.006-11.791,0.006-23.57,0.006-35.35c0.275-0.227,0.556-0.448,0.831-0.669
				c-0.233,7.192-0.425,14.396-0.592,21.588c0,0.167,0.138,0.316,0.305,0.316s0.316-0.137,0.316-0.305
				c0.227-9.838,0.592-19.67,1.081-29.562C693.643-77.72,693.666-76.525,693.69-75.331z M689.187-32.149
				c-0.663,0.442-1.255,1.123-1.679,1.648c-0.144,0.173-0.281,0.346-0.412,0.514c0.023-0.549,0.048-1.099,0.077-1.648
				c0.102-2.396,0.251-4.922,0.197-7.312c-0.119-5.436-0.071-10.877-0.305-16.313c-0.161-3.68-0.311-7.354-0.46-11.027
				c0.86-0.687,1.721-1.374,2.574-2.061C689.187-56.282,689.187-44.222,689.187-32.149z M684.622-59.926
				c-0.018,4.809-0.023,9.623-0.143,14.426c-0.251-4.587-0.567-9.175-0.317-13.774c-2.245,6.039-3.518,11.678-4.02,18.105
				c-0.132,1.637-0.167,3.297-0.161,4.964c-1.989-2.915-4.164-5.752-6.35-8.506c-1.864-2.336-3.71-4.683-5.573-7.007
				c4.211-3.375,8.488-6.66,12.753-9.987c1.272-0.998,2.545-2.001,3.811-3.005C684.622-63.115,684.622-61.521,684.622-59.926z
				 M693.768-40.674c-0.006,0.03-0.018,0.054-0.023,0.078c0.018-0.353,0.035-0.711,0.054-1.058
				C693.792-41.373,693.779-41.026,693.768-40.674z M268.078-22.097c-0.161-0.287-0.311-0.573-0.454-0.854
				c0.06-0.311,0.12-0.609,0.179-0.908c0.114-0.591,0.221-1.183,0.323-1.756C268.108-24.444,268.09-23.273,268.078-22.097z
				 M271.143-11.96c0.406,0.932,0.848,1.846,1.314,2.742c-0.179-0.006-0.353-0.012-0.532-0.018
				c-0.221-0.329-0.436-0.663-0.651-0.986c-0.585-0.896-1.075-1.816-1.547-2.753c0.024-0.89,0.048-1.774,0.072-2.664
				C270.145-14.397,270.646-13.077,271.143-11.96z M265.713-14.283c0.549,1.445,1.416,3.046,2.192,4.414
				c-0.018,1.027-0.036,2.055-0.054,3.088c-0.042-0.048-0.078-0.09-0.113-0.131c-1.153-1.332-2.198-2.599-3.148-4.062l0.167-0.478
				c0.167-0.501,0.358-1.027,0.49-1.541c0.125-0.496,0.257-0.985,0.388-1.481C265.665-14.409,265.689-14.349,265.713-14.283z
				 M272.881-8.43c0.562,1.021,1.165,2.019,1.815,2.993c-0.203-0.257-0.4-0.508-0.579-0.765c-0.418-0.597-0.896-1.159-1.32-1.75
				c-0.125-0.179-0.251-0.358-0.376-0.538C272.576-8.471,272.731-8.447,272.881-8.43z M679.957-6.602
				c-0.149,0.818-0.209,1.756-0.478,2.539c-0.155,0.448-0.46,0.83-0.717,1.225l-0.328,0.591l-4.379,0.585
				c0.03-0.066,0.054-0.131,0.084-0.191c0.185-0.448,0.316-0.926,0.501-1.374c0.013-0.042,0.03-0.078,0.048-0.108
				c0.251-0.054,0.431-0.167,0.598-0.269c1.727-1.147,3.375-2.473,4.534-4.223c0.113-0.179,0.257-0.358,0.394-0.543
				C680.137-7.749,680.053-7.157,679.957-6.602z M282.104-7.014c2.688,0.161,5.388,0.418,8.076,0.615
				c7.413,0.543,14.838,1.045,22.251,1.601c10.208,0.765,20.464,1.374,30.685,2.013c18.272,1.141,36.527,2.168,54.812,3.064
				c27.716,1.362,55.456,2.049,83.196,2.795c5.179,0.137,10.357,0.274,15.543,0.412H284.833c-0.687-0.227-1.374-0.472-2.043-0.723
				c0.562-0.012,1.117-0.257,1.511-0.717c0.711-0.849,0.591-2.126-0.257-2.837c-0.454-0.376-0.962-0.723-1.434-1.081
				c-1.147-0.884-2.449-2.109-3.423-3.178c-0.807-0.884-1.583-1.798-2.318-2.748C278.633-7.486,280.293-7.122,282.104-7.014z
				 M273.09-2.283c-0.729-0.507-1.439-1.045-2.126-1.606c-0.46-0.376-0.956-0.794-1.44-1.23c0.018-0.663,0.036-1.332,0.054-1.995
				C270.67-5.425,271.847-3.824,273.09-2.283z M618.945,3.487h-9.223c-4.659-0.316-9.312-0.627-13.966-0.896
				c-1.015-0.06-2.024-0.12-3.022-0.179c10.37-0.125,20.764-0.191,31.151-0.323c4.838-0.065,9.683-0.179,14.527-0.316
				C631.914,2.299,625.421,2.842,618.945,3.487z"/>
		</g>
	</g>
</g>
</svg>
