<?xml version="1.0" encoding="utf-8"?>
<!-- Generator: Adobe Illustrator 16.0.0, SVG Export Plug-In . SVG Version: 6.00 Build 0)  -->
<!DOCTYPE svg PUBLIC "-//W3C//DTD SVG 1.1//EN" "http://www.w3.org/Graphics/SVG/1.1/DTD/svg11.dtd">
<svg version="1.1" id="Layer_1" xmlns="http://www.w3.org/2000/svg" xmlns:xlink="http://www.w3.org/1999/xlink" x="0px" y="0px"
	 width="435.805px" height="431.09px" viewBox="239.363 70.756 435.805 431.09"
	 enable-background="new 239.363 70.756 435.805 431.09" xml:space="preserve">
<g transform="scale(1 -1)">
	<g transform="translate(0 -75)">
		<g>
			<path marker-start="none" marker-end="none" d="M478.864-424.07c-4.218-0.18-8.423-0.311-12.677-0.315
				c-12.807-0.029-25.972,0.196-38.562,2.742c-2.993,0.604-5.782,1.428-8.548,2.688c-0.89,0.406-2.616,1.529-3.136,2.359
				c-0.187,0.299-0.39,0.565-0.538,0.901c-0.585,1.302-0.92,3.213-1.142,5.013c-0.472,0.436-0.759,1.067-0.729,1.762
				c0.029,1.541,0.102,3.082,0.143,4.623c-0.022,0.328-0.047,0.649-0.06,0.979c-0.042,0.765-0.145,1.564-0.137,2.328
				c0.012,3.322,0,6.654,0.076,10.107c-0.048,2.108-0.112,4.35-0.19,6.588c-0.161,4.391-0.244,8.752-0.316,13.143
				c-0.022,1.345-0.028,2.699-0.018,4.056c-0.245,0.09-0.484,0.19-0.711,0.305c-0.782,0.359-1.529,0.736-2.258,1.129l-0.287,0.162
				l-0.502,0.221c-0.734,0.328-1.451,0.664-2.181,1.011c-0.37,0.106-0.741,0.221-1.1,0.334c-4.563,1.416-8.864,3.362-13.165,5.448
				c-1.564,0.752-3.112,1.554-4.659,2.354c-0.173-0.383-0.454-0.717-0.836-0.945c-5.752-3.947-10.615-8.559-15.423-13.631
				c-3.907-4.121-7.748-8.314-12.024-12.061c-1.947-1.707-3.882-3.32-6.051-4.736c-4.241-2.771-11.618-6.605-16.821-4.642
				c-1.034,0.39-1.87,0.687-2.867,1.193c-3.327,1.691-6.768,4.797-9.456,7.318c-1.559,1.463-3.309,3.076-5.029,4.307
				c-0.299,0.162-0.591,0.459-0.884,0.646c-1.069,0.676-2.317,1.905-3.273,2.748c-2.121,1.881-4.175,3.973-6.104,6.051
				c-2.342,2.526-4.492,5.102-6.708,7.729c-0.55,0.646-1.045,1.351-1.583,2.006c-0.382,0.461-0.771,0.951-1.153,1.451
				c-0.341,0.281-0.681,0.562-1.01,0.844c-6.26,5.273-13.278,11.464-14.366,20.082c-0.042,0.312-0.078,0.634-0.102,0.962
				c-0.806-0.363-1.637-0.705-2.437-1.068c-0.794-0.354-1.732,0.012-2.085,0.807c-0.352,0.793,0.012,1.732,0.807,2.084
				c0.442,0.181,0.878,0.371,1.314,0.568c0.239,0.131,0.484,0.272,0.723,0.412c-0.281,0.346-0.562,0.69-0.836,1.045
				c-0.556,0.674-0.454,1.684,0.221,2.24c0.675,0.555,1.685,0.453,2.24-0.222c0.137-0.18,0.281-0.358,0.424-0.539
				c0.047,0.259,0.102,0.515,0.161,0.783c0.985,4.564,4.092,9.976,6.845,13.709c1.051,1.428,2.121,2.98,3.279,4.318
				c0.818,0.938,1.595,1.936,2.401,2.891c0.812,0.963,1.75,1.89,2.527,2.867c2.461,2.748,5.06,5.252,7.765,7.748
				c0.747,0.688,1.523,1.344,2.288,2.008c0.418,0.357,0.866,0.805,1.32,1.104c1.607,1.053,3.262,2.03,4.875,3.069
				c0.86,0.558,1.905,1.154,2.7,1.781c0.293,0.203,0.639,0.299,0.974,0.279c-1.135,1.647-2.27,3.381-3.208,5.139
				c-1.38,2.586-2.359,5.34-3.309,8.105c-1.058,3.088-1.936,6.491-2.473,9.713c-0.526,3.142-0.926,6.109-1.159,9.162
				c-2.73-0.083-5.394-0.107-8.064,0c0.155-0.138,0.287-0.293,0.388-0.473c0.089-0.161,0.221-0.412,0.287-0.579
				c0.353-0.914-0.329-2.354-1.218-2.729c-0.532-0.221-1.32-0.305-1.906-0.388c-0.729-0.107-1.523-0.274-2.252-0.306
				c-1.344-0.06-2.67-0.006-3.996-0.048c-0.926-0.029-1.858-0.102-2.784-0.078c-1.177,0.03-2.348,0.187-3.518,0.329
				c-3.244,0.388-6.38,1.069-9.396,2.013l-1.661,0.609l-1.864,0.03c-3.357-0.014-6.714-0.077-10.018-0.132
				c-2.879-0.047-5.812-0.161-8.685-0.138c-0.974,0.007-3.357-0.168-4.169,0.197c-0.406,0.179-0.789,0.471-1.009,0.865
				c-0.209,0.365-0.311,0.711-0.46,1.088c-0.203,0.508-0.454,1.016-0.669,1.522c-0.562,1.332-1.314,2.609-1.959,3.912
				c-0.663,1.332-1.35,2.658-2.025,3.99c-0.245,0.167-0.442,0.364-0.627,0.615c-0.322,0.418-0.997,2.066-1.105,2.616
				c-0.036,0.148-0.065,0.305-0.102,0.46c-1.23,2.58-2.33,5.227-3.022,7.975c-0.633,2.484-0.669,5.979-0.627,8.571
				c0.042,2.401,0.173,4.784,0.364,7.168c0,0.006,0,0.019,0,0.03c-0.102,1.242-0.144,2.567-0.173,3.815
				c-0.024,1.13-0.107,2.265-0.119,3.394c-0.03,2.641-0.036,5.274-0.018,7.914c0.036,4.319,0.322,8.572,0.723,12.873
				c0.191,2.092,0.478,4.434,0.884,6.494c0.179,0.901,0.346,1.81,0.531,2.711c0.132,0.646,0.335,1.285,0.46,1.93
				c0.227,1.152,0.705,2.58,1.117,3.691c1.236,3.333,2.802,6.523,5.782,8.608c0.741,0.52,2.628,1.35,3.524,1.32
				c2.664,0.239,5.304,0.532,7.992,0.58c5.938,0.107,11.737-0.263,17.657-0.705c2.359-0.173,4.725-0.346,7.078-0.567
				c2.688-0.257,5.388-0.49,8.088-0.687c0.478,0.023,0.956,0.054,1.434,0.083c3.949,0.233,7.945,0.298,11.923,0.353
				c0.107,0.621,0.233,1.248,0.376,1.929c0.089,0.448,0.376,0.944,0.508,1.439c0.92,3.465,2.324,6.887,3.781,10.161
				c1.5,3.369,3.083,6.714,4.552,10.089c0.466,1.063,0.878,2.163,1.344,3.22c0.418,1.021,1.589,1.511,2.61,1.093l0.556-0.376
				l0.693,1.021c0.717,0.962,1.505,1.798,2.24,2.736c0.299,0.316,0.633,0.567,1.093,0.669c0.048,0.006,0.096,0.018,0.143,0.024
				c0.227,0.508,0.46,1.009,0.693,1.517c-0.794-0.424-1.804-0.149-2.27,0.633c-1.105,1.858-2.216,3.614-3.435,5.394l-0.4,0.514
				l-0.311-0.191c-0.227-0.071-0.484-0.083-0.747-0.012c-0.711,0.185-1.291,0.8-1.846,1.254c-1.195,0.968-2.366,2.132-3.519,3.166
				c-1.416,1.266-2.873,2.497-4.265,3.781c-1.63,1.5-3.387,2.951-4.964,4.492c-1.822,1.786-3.715,3.5-5.513,5.316
				c-1.661,1.672-3.22,3.411-4.785,5.167c-2.604,2.933-5.191,6.452-7.204,9.814c-0.448,0.752-0.848,1.535-1.291,2.288
				c-0.161,0.269-0.311,0.574-0.376,0.884c-0.06,0.251-0.03,0.501,0.054,0.735l0.125,0.179l-0.669,0.884
				c-0.209-0.257-0.418-0.508-0.621-0.759c-0.191-0.37-0.364-0.74-0.501-1.111c-0.221-0.573-0.574-1.452-0.836-2.348l-0.054-0.251
				l1.828-2.419c0.567-0.669,1.171-1.29,1.697-1.995c0.956-1.272,2.198-2.652,3.297-3.811c2.772-2.927,5.567-5.615,8.59-8.291
				c4.205-3.727,8.44-7.431,12.664-11.14c2.784-2.443,5.591-4.862,8.303-7.383l0.878-0.825c0.812-0.734,1.577-1.493,2.372-2.222
				l-0.251,0.12l0.639-0.675c1.075-1.756-0.992-3.763-2.753-2.993l-0.717,0.496c-1.034,1.045-2.121,1.899-3.208,2.861
				c-1.905,1.679-3.954,3.22-5.967,4.767c-7.15,5.507-14.593,10.43-21.45,16.313c-2.688,2.306-5.06,4.749-7.192,7.568
				c-0.478,0.633-1.111,1.565-1.458,2.27c-0.633,1.29-1.732,3.041-1.81,4.486c-0.023,0.454-0.102,0.872-0.095,1.356
				c0.065,4.074,3.004,8.614,5.047,11.947c0.454,0.747,0.956,1.481,1.493,2.24c3.16,7.15,7.09,14.007,11.773,20.309
				c1.547,2.084,3.231,4.08,4.934,6.033c3.184,3.656,6.559,6.857,10.34,9.886c1.129,0.908,2.479,1.971,3.704,2.73
				c1.225,0.752,2.395,1.547,3.667,2.24c1.446,0.789,2.885,1.494,4.354,2.228c2.139,1.069,4.432,1.721,6.636,2.586
				c0.992,0.334,2.067-0.107,2.557-0.998c0.06,0.042,0.125,0.084,0.191,0.125c0.185,0.114,0.376,0.227,0.567,0.347
				c-0.078,0.496,0.042,1.021,0.376,1.452c0.633,0.812,1.816,0.956,2.628,0.322c0.018-0.018,0.036-0.036,0.054-0.048
				c1.015,0.251,2.126-0.185,2.67-1.135c0.209-0.376,0.311-0.783,0.311-1.183c7.861-6.105,15.812-12.156,23.146-18.876
				c0.048-0.03,0.096-0.065,0.144-0.102c2.324-1.774,4.749-3.584,6.953-5.501c0.824-0.717,1.606-1.463,2.413-2.198
				c0.741-0.675,1.439-1.38,2.15-2.084c0.239-0.239,0.627-0.58,0.801-0.848c0.758-1.183,1.099-2.145,1.386-3.495
				c1.624,0.484,3.226,0.986,4.832,1.595c1.058,0.394,2.103,0.812,3.142,1.242c0.724,0.442,1.434,0.89,2.133,1.332
				c2.694,1.703,5.382,3.495,8.136,5.101c0.604,0.353,1.188,0.765,1.804,1.093c1.021,0.543,2.049,1.099,3.053,1.672
				c1.242,0.705,2.646,1.291,3.948,1.882c1.207,0.395,2.515-0.209,3.005-1.356c0.812,0.299,1.624,0.591,2.437,0.872
				c-0.44,5.352-0.501,11.104-0.227,16.469c0.048,0.991,0.077,1.995,0.131,2.993c-0.311,2.413-0.316,4.856-0.25,7.335
				c0.083,3.387,0.292,6.846,0.758,10.203c0.216,1.535,0.4,3.118,0.759,4.623c0.103,0.436,0.216,0.872,0.336,1.302
				c0.082,0.789,0.209,1.571,0.382,2.342c0.454,2.066,0.949,3.727,1.846,5.65c1.953,4.193,6.159,7.843,10.418,9.552
				c1.583,0.633,3.554,1.093,5.227,1.41c5.395,1.015,10.771,1.135,16.241,0.89c2.067-0.096,4.211-0.197,6.268-0.43
				c3.333-0.376,6.636-0.765,9.963-1.219c2.7-0.37,5.412-0.86,8.101-1.302c2.998-0.49,5.984-1.051,8.983-1.523
				c0.52-0.083,1.039-0.167,1.541-0.251c3.805,0.137,7.58,0.12,11.271,0.089c0.634-0.006,1.272-0.012,1.905-0.018
				c1.619-0.012,3.352,0,4.971-0.09c0.682-0.036,1.638,0.066,2.271-0.083c0.65-0.155,1.277-0.651,1.601-1.23
				c0.377-0.681,0.526-2.204,0.657-3.017c0.09-0.543,0.221-1.093,0.316-1.637c0.723-4.211,1.062-8.572,1.235-12.836
				c0.271-6.547,0.265-13.142,0.155-19.694c-0.113-6.762-0.298-13.625,0.09-20.375c0.006-0.245-0.018-0.484-0.071-0.711
				c1.248-0.382,2.497-0.747,3.751-1.105c0.065,0.107,0.149,0.209,0.245,0.305c0.699,0.705,1.853,0.711,2.558,0.012
				c0.524-0.532,1.051-1.045,1.595-1.536c0.364-0.102,0.729-0.197,1.093-0.292c2.976-0.8,5.943-1.631,8.931-2.377
				c4.038-1.016,8.082-2.121,12.091-3.237c1.493-0.418,2.933-0.986,4.438-1.38c0.556-0.185,1.003-0.55,1.296-1.003
				c0.048,0.047,0.097,0.095,0.149,0.143c2.664,2.628,5.52,5.047,8.32,7.521c1.309,1.153,2.706,2.354,4.073,3.435
				c1.184,0.932,2.33,1.936,3.524,2.849c0.997,0.765,1.989,1.523,2.979,2.276c4.846,5.538,9.922,10.663,16.045,14.921
				c1.1,0.765,2.622,0.496,3.388-0.603c0.315-0.472,0.46-1.01,0.424-1.542c0.251-0.161,0.496-0.328,0.747-0.489
				c1.935,0.657,3.924,1.111,6.032,1.188c5.949,0.209,12.509-5.8,16.45-9.725c1.863-1.858,3.52-3.793,5.274-5.764
				c4.163-4.689,7.927-9.796,11.553-14.963c0.019-0.012,0.035-0.03,0.061-0.042c2.232-1.905,4.604-3.906,6.684-5.973
				c3.925-3.895,7.526-8.147,10.466-12.831c0.537-0.89,0.515-1.971,0.023-2.813c0.096-0.645-0.054-1.32-0.46-1.864
				c-0.884-1.183-1.744-2.401-2.628-3.59c-0.341-0.46-0.604-0.98-0.962-1.446c-1.011-1.308-2.15-2.646-3.243-3.889
				c-0.138-0.155-0.271-0.305-0.4-0.454c0.4-0.144,0.771-0.382,1.081-0.711c1.039-1.117,0.985-2.879-0.132-3.918
				c-3.146-2.819-6.158-5.794-9.449-8.458c-1.438-1.165-2.867-2.371-4.331-3.506c-1.48-1.147-2.991-2.264-4.479-3.405
				c-0.627-0.478-1.261-0.95-1.899-1.416c-0.656-0.842-1.309-1.69-1.947-2.545c-0.682-0.908-1.815-1.266-2.85-1.009l-0.173,0.078
				c-1.004-1.422-1.947-2.909-2.813-4.444c-0.084-0.143-0.161-0.287-0.238-0.43c1.792-1.446,3.596-2.885,5.43-4.295
				c0.436-0.353,0.508-1.01,0.155-1.446c-0.354-0.436-1.01-0.507-1.445-0.155c-1.689,1.35-3.352,2.742-5.006,4.134
				c-0.424-0.95-0.782-1.906-1.117-2.885c0.515-1.111,1.017-2.282,1.445-3.411c0.299-0.794,0.586-1.589,0.866-2.377
				c0.473-0.245,0.854-0.657,1.033-1.195c0.364-1.314,0.843-2.622,1.225-3.942c0.634-2.21,1.171-4.492,1.655-6.792l0.227-1.183
				l-0.102,0.531c0.377-1.236,0.753-2.473,1.135-3.709c0.329-1.081,0.646-2.186,0.974-3.285l0.432-1.332l0.321-0.932
				c0.071-0.227,0.145-0.448,0.203-0.663l0.036-0.144l0.042-0.155l0.065-0.316c0.09-0.58-0.019-1.117-0.27-1.559
				c0.065-0.257,0.131-0.514,0.196-0.771c4.17-0.651,8.405-0.794,12.616-0.932c3.069-0.102,6.129-0.269,9.199-0.388
				c5.446-0.209,10.906-0.209,16.354-0.394c2.867-0.096,5.776-0.09,8.632-0.251c2.354-0.131,4.742-0.263,7.097-0.358
				c2.39-0.096,5.054-0.323,7.419-0.687c0.676-0.102,1.271-0.113,1.894-0.472c1.225-0.705,1.721-2.623,2.091-3.937
				c0.412-1.463,0.789-2.891,1.111-4.378c0.406-1.87,0.537-3.794,0.771-5.692c0.197-1.625,0.18-3.256,0.312-4.881
				c0.167-2.126,0.064-4.289,0.077-6.421c0.019-3.046-0.148-6.093-0.286-9.133c-0.229-5.029-0.585-10.06-0.788-15.089
				c-0.096-2.39-0.203-4.839-0.162-7.229c0.006-0.524,0.019-1.038,0.036-1.54c0.161-1.714,0.315-3.416,0.466-5.119
				c0.186-2.229,0.341-4.521,0.383-6.756c0.013-0.782,0.097-1.582,0.065-2.365c-0.036-0.884-0.573-1.75-1.332-2.223l-0.705-0.286
				l-0.328-0.322c-0.49-0.496-0.933-1.099-1.374-1.649c-0.998-1.241-2.258-3.104-3.913-3.458c-0.591-0.126-1.361,0.007-1.965,0.071
				c-0.902,0.096-1.828,0.162-2.735,0.203c-1.494,0.062-2.98,0.107-4.469,0.132c-10.179-2.175-20.268-2.837-30.631-3.351
				c-5.27-0.265-10.579-0.406-15.854-0.558c-0.55-0.018-1.104-0.022-1.653-0.018h-0.078c-0.286-0.788-0.573-1.57-0.854-2.354
				c0.854-0.452,1.714-0.907,2.574-1.354c0.424-0.227,0.592-0.765,0.364-1.189c-0.228-0.424-0.766-0.591-1.188-0.362
				c-0.789,0.412-1.57,0.823-2.358,1.241c-1.786-4.945-3.584-9.897-5.585-14.754c0.028-0.018,0.06-0.043,0.089-0.061
				c0.483-0.383,0.574-1.094,0.19-1.576c-0.279-0.354-0.729-0.496-1.141-0.406c-1.207-2.819-2.497-5.598-3.906-8.313
				c-0.67-1.285-1.38-2.617-2.133-3.938c1.953-1.207,3.918-2.405,5.89-3.59c1.959-1.176,3.979-2.281,5.933-3.465
				c2.168-1.314,4.391-2.598,6.605-3.828c0.467-0.264,0.634-0.873,0.37-1.338c-0.263-0.467-0.872-0.633-1.338-0.371
				c-5.144,2.777-10.292,5.938-15.147,9.193c1.81-1.685,3.619-3.404,5.424-5.131c6.666-6.416,13.021-13.214,18.451-20.716
				c1.325-1.827,2.484-3.668,3.619-5.614c0.203-0.359,0.438-0.748,0.663-1.16c0.771-0.537,1.547-1.074,2.323-1.601
				c1.04-0.776,1.261-2.264,0.484-3.305c-0.125-0.16-0.257-0.305-0.406-0.424c0.305-0.836,0.627-1.689,0.836-2.531
				c0.042-0.18,0.084-0.354,0.126-0.533c0.28,0.275,0.562,0.552,0.848,0.824c0.928,0.892,1.995,1.732,2.874,2.652
				c1.188,1.039,3.017,0.92,4.057-0.269c1.039-1.188,0.92-3.018-0.27-4.057c-1.685-1.271-3.477-3.035-4.952-4.551
				c-2.078-2.14-4.163-4.267-6.199-6.445c-1.31-1.397-2.6-2.844-3.926-4.225c-1.492-1.554-2.956-3.146-4.42-4.736
				c0.049-0.047,0.103-0.096,0.155-0.143c1.941-1.828,3.613-3.912,5.347-5.933c0.263-0.239,0.274-0.658,0.035-0.92
				c-0.238-0.264-0.656-0.274-0.92-0.037c-1.081,0.688-2.107,1.506-3.147,2.252c-1.194,0.855-2.341,1.728-3.47,2.617
				c-0.223-0.231-0.438-0.467-0.651-0.692c-2.897-3.082-5.83-6.115-8.854-9.05c1.052-0.782,2.114-1.553,3.185-2.317
				c0.711-0.525,0.859-1.535,0.335-2.246c-0.526-0.711-1.535-0.859-2.246-0.334c-1.207,0.891-2.413,1.778-3.614,2.676
				c-2.873-2.688-5.842-5.268-8.941-7.705c-5.029-3.949-11.379-7.969-17.711-9.266c-1.381-0.279-4.706-0.799-6.135-0.412
				c-1.171,0.315-1.876,1.397-2.671,2.258c-1.354,1.477-2.734,2.861-4.187,4.242c-2.981,2.838-6.153,5.387-9.266,8.07
				c-3.017,2.598-5.974,5.243-8.966,7.858c-2.372,2.074-4.726,4.355-6.924,6.619c-2.126,2.18-4.247,4.457-6.224,6.828
				c-0.426-0.258-0.85-0.49-1.189-0.693c-0.334-0.196-0.687-0.389-1.057-0.574c0.723-0.59,1.438-1.182,2.162-1.768
				c4.604-3.781,9.078-7.729,13.625-11.582c0.431-0.365,0.478-1.021,0.112-1.451c-0.365-0.43-1.021-0.479-1.451-0.112
				c-5.472,4.651-10.878,9.358-16.26,14.102c-0.382-0.154-0.771-0.303-1.158-0.447l-2.014-0.699l-1.039-0.502
				c-1.271-0.614-2.551-1.225-3.835-1.813c0.46-0.312,0.914-0.621,1.374-0.926c0.479-0.324,0.598-0.98,0.274-1.459
				c-0.322-0.478-0.979-0.597-1.457-0.273c-0.802,0.549-1.596,1.098-2.391,1.66c-3.303-1.463-6.653-2.783-10.083-3.771
				c1.004-0.817,2.015-1.637,3.018-2.454c0.46-0.39,0.525-1.089,0.138-1.548c-0.389-0.461-1.087-0.524-1.547-0.137
				c-1.404,1.146-2.784,2.322-4.193,3.471c-1.267-0.299-2.545-0.545-3.829-0.725c1.457-5.674,2.217-11.455,2.526-17.273
				c0.448-0.274,0.896-0.551,1.345-0.823c0.454-0.287,0.598-0.896,0.312-1.351c-0.287-0.455-0.896-0.598-1.352-0.312
				c-0.064,0.037-0.137,0.078-0.196,0.121c0.155-4.648,0.048-9.312-0.19-13.955c-0.06-1.058-0.12-2.125-0.186-3.189
				c1.438-1.319,2.879-2.641,4.33-3.946c0.328-0.3,0.347-0.818,0.049-1.148c-0.299-0.328-0.818-0.346-1.147-0.047
				c-1.123,1.027-2.24,2.055-3.369,3.076c-0.102-1.494-0.227-2.986-0.364-4.457c-0.315-3.267-0.55-6.539-0.884-9.808
				c-0.054-0.479-0.096-0.957-0.132-1.428c1.165-0.844,2.336-1.691,3.501-2.545c0.699-0.49,0.866-1.457,0.376-2.156
				c-0.488-0.699-1.457-0.867-2.156-0.377c-0.949,0.609-1.888,1.242-2.812,1.889l-0.012-0.006c-1.41-1.172-3.817-1.543-5.592-1.774
				l-0.656-0.084l0.119,0.006c-0.023-0.053-0.049-0.113-0.077-0.16c-0.275-0.455-0.879-0.604-1.332-0.328
				c-0.155,0.082-0.306,0.172-0.454,0.262l-0.741-0.09l-0.436-0.184h-1.101l-6.714-0.514c-1.075-0.056-2.145-0.103-3.214-0.15
				c0.657-0.479,1.32-0.955,1.982-1.422c0.358-0.256,0.442-0.771,0.187-1.129c-0.257-0.357-0.771-0.441-1.129-0.187
				C481.302-425.826,480.083-424.955,478.864-424.07z M472.097-419.053c-0.405,0.305-0.807,0.608-1.207,0.914
				c-2.766-0.162-5.53-0.275-8.297-0.322c0.37-0.234,0.741-0.467,1.111-0.705C466.499-419.148,469.295-419.119,472.097-419.053z
				 M459.547-418.492c-0.299,0-0.604,0-0.896,0.006c-3.555,0.015-7.066,0.097-10.592,0.246c0.448-0.246,0.896-0.49,1.345-0.729
				c3.739-0.146,7.49-0.197,11.219-0.203C460.264-418.945,459.905-418.719,459.547-418.492z M481.851-418.664
				c1.452,0.084,2.915,0.166,4.373,0.273c-0.765,0.489-1.528,0.979-2.294,1.477c-2.455-0.281-4.893-0.609-7.358-0.812
				c-1.117-0.097-2.229-0.187-3.346-0.265c0.467-0.334,0.933-0.662,1.403-0.996C477.036-418.916,479.443-418.814,481.851-418.664z
				 M445.455-418.121c-1.361,0.072-2.718,0.15-4.079,0.244c-2.282,0.15-4.604,0.305-6.876,0.551
				c-3.285,0.353-6.559,0.746-9.844,1.123c-0.508,0.053-0.866,0.521-0.812,1.027c0.055,0.507,0.521,0.865,1.027,0.812
				c5.627-0.705,11.183-1.219,16.72-1.522c-4.994,2.992-9.851,6.271-14.665,9.401c-1.756,1.136-3.56,2.191-5.37,3.23
				c-0.189-3.965-0.412-7.933-0.621-11.881c0.812-0.383,1.686-0.687,2.176-0.83c4.156-1.271,8.464-1.709,12.795-2.14
				c1.302-0.131,2.604-0.221,3.912-0.321c2.322-0.187,4.658-0.328,7.001-0.437C446.363-418.617,445.903-418.371,445.455-418.121z
				 M489.688-418.115l0.03,0.006l1.101,5.568c-5.37,4.449-10.467,9.043-15.634,13.732c-2.676,2.43-5.243,5.006-7.885,7.479
				c-3.864,3.613-7.628,7.334-11.444,11.002c-4.736,4.553-9.491,9.098-14.317,13.555c-3.041,2.808-6.171,5.525-9.283,8.242
				c-1.738,1.519-3.56,2.957-5.304,4.47c-0.329,0.272-0.377,0.774-0.103,1.104c0.274,0.328,0.776,0.375,1.104,0.102
				c3.327-2.813,6.727-5.592,9.976-8.5c3.984-3.565,7.951-7.133,11.869-10.771c6.959-6.457,13.854-12.998,20.896-19.359
				c3.513-3.172,7.001-6.396,10.614-9.448c3.369-2.855,6.757-5.677,10.214-8.416c1.172,5.153,2.433,10.291,3.482,15.477
				c-1.911,1.678-3.835,3.357-5.752,5.029c-1.834,1.596-3.722,3.137-5.567,4.725c-6.212,5.346-12.514,10.615-18.666,16.033
				c-1.702,1.492-3.394,2.998-5.077,4.51c-0.019-0.065-0.035-0.139-0.065-0.203c-0.257-0.586-0.943-0.854-1.529-0.598
				c-10.507,4.289-19.503,12.467-27.655,20.189c-2.636,2.497-5.293,4.965-7.957,7.426c-1.631,1.504-3.327,3.146-5.041,4.557
				c-1.063,0.879-2.104,1.781-3.166,2.658c-1.941,1.602-4.002,3.076-6.033,4.559l-0.061,0.347l0.348,0.061
				c1.021-0.789,2.107-1.494,3.136-2.27c0.962-0.73,1.918-1.478,2.867-2.218c2.844-2.211,5.585-4.629,8.309-6.987
				c2.234-1.937,4.469-3.871,6.69-5.812c4.192-3.674,8.417-7.19,12.879-10.531c2.525-1.895,5.208-3.577,7.885-5.25
				c2.287-1.438,4.725-2.813,7.21-3.942c-7.802,7.098-15.418,14.449-22.621,22.106c-0.196,0.209-0.19,0.55,0.019,0.746
				c0.209,0.197,0.55,0.191,0.747-0.018c12.687-13.344,26.516-25.101,40.547-36.998c5.573-4.726,11.109-9.492,16.642-14.264
				c0.759-0.658,1.523-1.314,2.287-1.979c0.229,1.213,0.448,2.42,0.651,3.639c0.538,3.269,0.943,6.82,1.116,10.263
				c-1.087,0.698-2.161,1.409-3.226,2.133c-10.316,6.988-20.764,14.623-29.801,23.213c-4.952,4.707-9.378,9.4-13.59,14.789
				c-1.212,1.553-2.55,3.291-3.584,4.963c-0.077,0.121-0.048,0.293,0.071,0.371s0.293,0.049,0.37-0.072
				c2.013-3.123,4.386-6.008,6.792-8.834c3.687-4.33,7.962-8.528,12.293-12.221c9.031-7.699,18.828-14.588,28.93-20.818
				c0.608-0.381,1.219-0.77,1.827-1.17c0.007,0.467,0.013,0.92,0.013,1.379c-0.006,3.633-0.281,7.168-0.646,10.767
				c-0.353,0-0.705,0.006-1.051,0.018c-1.135,0-2.055,0.932-2.055,2.066c0,1.134,0.932,2.055,2.065,2.055
				c2.007-0.066,3.968,0.102,5.896,0.441c-2.927,2.211-5.913,4.36-8.864,6.541c-3.799,2.797-7.682,5.53-11.521,8.268
				c-6.32,4.504-12.468,9.234-18.284,14.359c-0.323,0.28-0.354,0.776-0.072,1.1c0.281,0.322,0.777,0.352,1.1,0.072
				c3.143-2.867,6.528-5.508,9.923-8.07c6.254-4.719,12.812-9.074,19.252-13.535c3.69-2.562,7.299-5.131,10.871-7.85
				c0.118-0.097,0.244-0.191,0.363-0.281c0.364,0.096,0.724,0.191,1.081,0.299l1.082,0.354l-0.065,0.227
				c-0.228,1.242,0.441,2.521,1.653,3.017c0.976,0.389,1.924,0.823,2.915,1.172c0.271,0.09,0.544,0.186,0.818,0.272
				c-7.293,5.418-14.413,11.088-21.51,16.715c-3.465,2.74-6.953,5.521-10.466,8.195c-1.679,1.277-3.465,2.545-5.076,3.889
				c-2.623,2.191-5.251,4.312-7.986,6.367c-0.162,0.113-0.191,0.347-0.078,0.508c0.113,0.16,0.347,0.191,0.508,0.078
				c1.547-1.135,3.106-2.233,4.695-3.311c1.403-0.949,2.885-1.857,4.24-2.873c8.68-6.529,17.155-13.332,25.806-19.902
				c4.008-3.047,8.046-6.021,12.138-8.924c0.8,0.256,1.606,0.514,2.413,0.781c2.407,0.801,4.922,1.41,7.312,2.246
				c0.064,0.018,0.131,0.043,0.197,0.065c-2.067,1.84-4.135,3.674-6.194,5.521c-11.104,9.885-22.209,19.76-33.062,29.926
				c-0.447-0.162-0.896-0.322-1.345-0.479c-2.682-0.938-5.352-1.637-8.1-2.321c-2.377-0.599-4.852-0.914-7.275-1.248
				c-0.615-0.078-1.188,0.363-1.267,0.979c-0.077,0.615,0.363,1.189,0.979,1.267c3.273,0.467,6.362,0.969,9.563,1.858
				c0.447,0.119,0.896,0.25,1.38,0.388c-3.542-0.472-7.062-0.746-10.604-0.92c-2.693-0.132-5.46-0.125-8.152-0.035
				c-3.394,0.106-6.811,0.287-10.18,0.723c-6.469,0.836-12.913,1.93-19.181,3.799c-2.055,0.609-4.121,1.207-6.141,1.924
				c-1.164,0.406-2.323,0.836-3.458,1.277c-1.446,0.174-2.88,0.414-4.271,0.73c-1.254,0.278-2.783,0.59-3.972,1.026
				c-0.975,0.357-2.055,0.724-3.047,1.039c-1.01,0.322-2.066,0.871-3.053,1.283c-1.834,0.766-4.086,2.02-5.746,3.113
				c-1.899,1.248-3.709,2.479-5.483,3.912c-0.09,0.065-0.173,0.131-0.232,0.231c-1.142,0.658-2.157,1.387-3.143,2.115
				c-6.689,4.928-12.669,11.498-17.388,18.32c-1.858,2.682-3.477,5.53-5.066,8.381c-1.123,2-2.132,4.121-3.064,6.282
				c-2.205,4.57-4.032,9.324-5.49,14.176c-1.027,3.417-1.834,6.888-2.557,10.376c-0.388,1.856-0.609,3.757-0.938,5.627
				c-0.179,1.033-0.269,2.107-0.4,3.154c-0.371,2.998-0.58,6.008-0.651,9.03c-0.107,4.558-0.113,9.276,0.287,13.822
				c0.221,2.533,0.496,5.035,0.818,7.544c0,6.857,0.621,13.983,2.473,20.584c6.332,22.579,22.018,41.246,42.125,53.085
				c3.602,2.121,7.395,4.241,11.24,5.872c2.558,1.081,5.061,2.168,7.67,3.13c3.723,1.368,7.616,2.563,11.463,3.519
				c2.438,0.603,4.862,1.188,7.336,1.619c0.998,0.173,1.952,0.358,2.969,0.436c1.661,0.125,3.638-0.191,5.293-0.436
				c0.131,0.012,0.257-0.078,0.269-0.209c0.013-0.131-0.078-0.257-0.209-0.269c-1.786-0.783-3.465-1.47-5.353-1.978
				c-1.087-0.292-2.216-0.412-3.321-0.627c-2.091-0.412-4.199-0.884-6.26-1.416c-7.097-1.822-14.043-4.253-20.662-7.413
				c-8.41-4.02-16.594-9.014-23.666-15.113c-1.643-1.416-3.327-2.861-4.862-4.39c0.734-1.141,1.445-2.204,2.192-3.262
				c1.177,0.926,2.377,1.804,3.596,2.623c0.496,0.334,0.991,0.651,1.481,0.961c1.171,1.153,2.371,2.276,3.602,3.369
				c-0.597,0.699-1.188,1.398-1.779,2.103c-0.162,0.191-0.138,0.478,0.054,0.639c0.19,0.161,0.478,0.138,0.639-0.054
				c0.586-0.699,1.177-1.392,1.769-2.079c2.084,1.828,4.234,3.566,6.458,5.227c0.942,0.818,1.898,1.667,2.896,2.473
				c-0.035,0.048-0.071,0.095-0.102,0.143c-0.113,0.149-0.083,0.382,0.065,0.496c0.149,0.113,0.382,0.083,0.496-0.066
				c0.029-0.048,0.065-0.089,0.095-0.137c0.229,0.173,0.46,0.346,0.693,0.514c0.872,0.627,1.744,1.32,2.634,1.905
				c3.25,2.145,6.393,4.05,9.894,5.771c8.619,4.235,17.89,6.851,27.368,7.652l-0.012,0.018c-0.102,0.144-0.07,0.353,0.071,0.454
				c0.144,0.102,0.353,0.072,0.454-0.072c0.019-0.036,0.042-0.065,0.066-0.102c11.33,1.159,22.9,0.048,33.893-3.255
				c3.857-1.165,8.577-3.453,11.952-5.663c0.807-0.532,1.601-1.093,2.407-1.619c0.148-0.102,0.299-0.203,0.437-0.329
				c11.057-5.376,21.97-12.807,30.995-21.576c1.583-1.135,3.154-2.306,4.594-3.572c1.045-0.926,2.098-1.846,3.143-2.771
				c0.776-0.687,1.57-1.529,2.306-2.27c0.168-0.173,0.335-0.34,0.496-0.514c0.09,0.12,0.209,0.215,0.347,0.293
				c0.508,0.269,1.152,0.078,1.422-0.43c1.272-1.965,2.538-3.942,3.729-5.961c0.729-0.89,1.438-1.798,2.126-2.724
				c3.243-4.396,6.141-8.858,8.638-13.727c1.242-2.425,2.307-4.911,3.394-7.407c0.299-0.693,0.578-1.404,0.849-2.127
				c1.415-1.021,2.837-2.055,4.259-3.082c4.014-2.921,7.998-5.865,12.024-8.769c5.691-4.104,11.385-8.273,17.179-12.228
				c5.442-3.716,10.89-7.33,16.397-10.943c6.547-4.301,13.396-8.269,20.23-12.096c3.896-2.181,7.831-4.188,11.815-6.188
				c3.284-1.648,6.63-3.226,10.017-4.652c0.598-0.264,0.873-0.969,0.609-1.564c-0.264-0.598-0.969-0.873-1.564-0.609
				c-2.915,1.164-5.938,2.641-8.757,4.031c-2.354,1.165-4.72,2.301-7.031,3.549c-3.564,1.931-7.065,3.884-10.578,5.907
				c-3.728,2.15-7.396,4.54-11.003,6.882c-5.621,3.644-11.158,7.496-16.569,11.438c-10.837,7.896-21.521,16.009-32.25,24.055
				c-1.465,1.093-2.938,2.175-4.414,3.249c0.077-0.227,0.161-0.447,0.237-0.668c0.688-1.996,1.41-3.99,1.979-6.027
				c0.692-2.504,1.242-4.988,1.804-7.521c0.323-1.469,0.599-3.016,0.824-4.562c4.63-3.292,9.301-6.518,14.014-9.695
				c3.771-2.545,7.616-4.957,11.476-7.365c2.406-1.505,4.916-3.053,7.39-4.432c1.881-1.053,3.728-2.211,5.633-3.209
				c1.714-0.9,3.404-1.869,5.119-2.771c3.178-1.673,6.392-3.262,9.635-4.797c1.589-0.753,3.185-1.464,4.79-2.181
				c1.207-0.537,2.414-1.11,3.646-1.588c1.959-0.767,3.87-1.687,5.836-2.455c3.686-1.452,7.28-2.796,11.032-4.039
				c0.525-0.18,0.865-0.681,0.859-1.212c5.354,0.329,10.74,0.579,16.009,0.495c3.52,0.419,6.805,1.409,9.981,2.587
				c0.293,0.335,0.609,0.663,0.949,0.974l0.274,0.203l-0.054,1.297c-0.078,1.396-0.174,2.818-0.287,4.234
				c-0.382,0.473-0.621,1.062-0.651,1.721c-0.131,2.526-0.257,5.041-0.237,7.574c-0.223,2.096-0.454,4.199-0.676,6.302
				c-0.203,0.042-0.399,0.119-0.573,0.251c-1.811,1.302-3.655,2.551-5.466,3.854c-3.326,2.396-6.637,4.855-9.88,7.364
				c-9.462,7.317-18.618,14.97-27.878,22.531c-3.578,2.915-7.174,5.812-10.758,8.722c-0.269-0.055-0.538-0.113-0.801-0.168
				c-1.612-0.352-3.273-0.681-4.868-1.104c-2.204-0.585-4.337-1.236-6.517-1.875c-0.258-0.078-0.532,0.066-0.609,0.322
				c-0.078,0.258,0.065,0.531,0.322,0.609c2.181,0.651,4.331,1.285,6.505,1.894c-0.412,0.126-0.807,0.413-1.087,0.896
				c-0.55,0.933-1.171,3.202-1.435,4.301c-0.154,0.609-0.305,1.225-0.453,1.834c-0.37,0.078-0.734,0.161-1.094,0.275
				c-0.962,0.292-1.954,0.484-2.909,0.83c-1.129,0.334-1.769,1.535-1.434,2.664c0.119,0.406,0.354,0.753,0.663,1.01
				c-0.968,0.848-1.936,1.685-2.909,2.521l-8.87,7.09l0.245-0.765c0.18-0.723,0.328-1.523,0.459-2.258
				c0.275-1.511,0.729-4.205,2.163-5.089c0.167-0.102,0.364-0.197,0.521-0.298l-0.155-0.275c-2.485,1.23-2.433,4.384-3.022,6.738
				c-0.203,0.801-0.399,1.529-0.621,2.318l0.019,0.125l0.311-0.06c0.197-0.107,0.342-0.239,0.4-0.274
				c0.692-0.43,1.397-0.962,2.072-1.428c1.685-1.159,3.405-2.312,5.112-3.435c2.391-1.577,4.768-3.154,7.114-4.767
				c0.271-0.078,0.538-0.155,0.801-0.221c-0.167,0.758-0.328,1.529-0.472,2.306c-0.222,1.105-0.431,2.216-0.646,3.321
				c-0.055,0.036-0.097,0.078-0.139,0.125c-5.816,6.266-11.868,12.383-18.267,18.076c-2.532,2.252-5.077,4.629-7.705,6.756
				c-1.499,1.212-2.939,2.515-4.462,3.697c-1.338,1.04-2.706,2.126-4.021,3.202c-0.215,0.167-0.257,0.484-0.09,0.699
				c0.168,0.215,0.484,0.257,0.699,0.089c1.309-1.129,2.79-2.204,4.151-3.292c3.143-2.515,6.283-5.077,9.349-7.688
				c4.665-3.978,9.271-8.004,13.792-12.15c1.828-1.69,3.607-3.429,5.382-5.173l0.007-0.012l-1.052,3.464l-1.254,3.184
				c-0.735,1.769-1.5,3.53-2.282,5.287c-1.518,3.375-3.011,6.762-4.516,10.149c-0.753-0.418-1.512-0.836-2.252-1.254
				c-0.944-0.562-2.175-0.251-2.736,0.693c-0.562,0.943-0.251,2.174,0.693,2.735c1.11,0.651,2.126,1.38,3.178,2.097
				c0.054,0.496,0.263,0.968,0.609,1.35c-0.091,0.753,0.321,1.505,1.062,1.81c0.006,0,0.012,0.006,0.018,0.006
				c-1.518,1.291-3.021,2.592-4.497,3.907c-2.516,2.24-5.007,4.54-7.484,6.821c-2.085,1.917-4.17,3.835-6.225,5.782
				c-1.027,0.974-2.108,1.917-3.111,2.915c-0.264,0.245-0.275,0.663-0.03,0.926s0.663,0.275,0.926,0.03
				c4.331-4.235,9.073-8.291,13.674-12.221c2.442-2.084,4.861-4.271,7.335-6.314c0.795-0.663,1.595-1.32,2.39-1.983
				c0.437,0.287,0.872,0.579,1.309,0.884c1.731,1.195,3.43,2.455,5.102,3.68c0.992,1.04,1.936,2.079,2.844,3.178
				c2.229,2.706,4.372,5.478,6.505,8.261c-1.01,0.92-1.995,1.84-2.985,2.819c-1.937,1.882-3.733,3.907-5.634,5.824
				c-1.249,1.26-2.532,2.509-3.77,3.775c-0.316,0.305-0.322,0.824-0.019,1.141c0.306,0.316,0.824,0.322,1.142,0.018
				c2.979-2.885,5.812-5.919,8.799-8.792c1.152-1.123,2.348-2.258,3.584-3.333c2.891,3.763,5.794,7.521,8.912,11.116
				c0.866,0.998,1.744,1.936,2.646,2.843c0.041,0.072,0.071,0.144,0.107,0.209c0.137,0.281,0.305,0.574,0.46,0.86
				c-0.902,0.926-1.87,1.72-2.838,2.592l-0.029,0.364l0.364,0.03c0.9-0.807,1.894-1.607,2.76-2.485
				c0.406,0.806,0.752,1.648,1.146,2.467c0.592,1.212,2.061,1.714,3.272,1.123c0.097-0.048,0.187-0.102,0.274-0.161
				c0.389,0.311,0.783,0.621,1.183,0.919c-0.106,0.203-0.215,0.406-0.315,0.574c-0.228,0.37-0.509,0.735-0.74,1.105
				c-0.055,0.078-0.107,0.161-0.161,0.239c-0.197-0.322-0.473-0.603-0.812-0.818c-1.219-0.771-2.844-0.4-3.613,0.818
				c-0.752,1.171-1.499,2.36-2.24,3.554c-0.286,0.102-0.562,0.269-0.8,0.49c-1.895,1.697-3.807,3.602-5.604,5.412
				c-3.32,3.333-6.708,6.625-10.063,9.922c-4.36,4.289-8.817,8.613-13.388,12.675c-2.013,1.786-4.05,3.53-6.093,5.286
				c-1.94,1.661-3.972,3.255-6.039,4.797c-0.19-0.275-0.44-0.508-0.74-0.681c-3.13-1.864-5.765-3.847-8.351-6.463
				c-1.13-1.141-2.312-2.264-3.375-3.465c-1.542-1.738-3.112-3.482-4.689-5.191c-4.819-5.238-9.713-10.453-16.421-13.195
				c-0.942-0.388-1.894-0.741-2.885-0.979c-1.177-0.281-2.551-0.389-3.764-0.574c-0.8-0.131-1.57,0.412-1.702,1.213
				c-0.132,0.8,0.412,1.571,1.213,1.702h0.012c-0.299,0.281-0.154,0.49,0.042,0.663c3.034,2.724,5.549,5.442,8.105,8.578
				c-2.538-2.067-5.029-4.235-7.323-6.469c-1.117-1.087-2.139-2.21-3.22-3.315c-0.483-0.526-1.309-0.562-1.834-0.078
				s-0.562,1.308-0.077,1.833c0.179,0.191,0.364,0.389,0.55,0.58c-0.992,0.329-2.02,0.615-2.999,0.944
				c0.496-0.657,0.646-1.547,0.364-2.342c0.998-0.776,1.201-2.222,0.454-3.243c-0.766-1.04-2.246-1.267-3.285-0.502
				c-0.86,0.597-1.673,1.338-2.557,1.936c-1.619,1.099-3.291,2.079-4.971,3.076c-1.486,0.878-3.017,1.744-4.575,2.64
				c-6.936,2.264-14.092,3.721-21.067,5.967c-0.944,0.281-1.481,1.284-1.201,2.228c0.281,0.944,1.284,1.481,2.229,1.201
				c3.345-1.093,6.768-1.911,10.208-2.682c-2.599,0.878-5.208,1.727-7.808,2.586c-0.012,0-0.023,0.006-0.036,0.006
				c-0.028,0-0.064,0-0.096,0c-0.746-0.03-1.428,0.233-1.953,0.681c-1.313,0.436-2.628,0.884-3.937,1.35
				c-0.174-0.591-0.348-1.171-0.515-1.732c-0.305-0.998-0.645-2.037-0.878-3.052c-0.125-0.484-0.627-0.771-1.11-0.645
				c-0.483,0.125-0.771,0.627-0.646,1.111c0.466,1.601,0.818,3.327,1.063,5.06c-0.515,0.185-1.028,0.376-1.535,0.567
				c-0.717,0.245-1.101,1.045-0.854,1.762c0.246,0.717,1.045,1.099,1.763,0.854c0.305-0.119,0.62-0.239,0.932-0.352
				c0.042,0.573,0.072,1.146,0.096,1.708c0.042,1.213,0.036,2.438,0.03,3.65c-0.006,0.585,0.102,1.225,0.148,1.816
				c0.097,1.308,0.21,2.616,0.274,3.931c-0.28,1.499-0.585,2.992-0.854,4.486c-0.635,3.464-1.488,6.995-2.246,10.441
				c-0.317,1.451-0.699,2.921-0.914,4.384c-0.872,5.914-1.352,11.887-1.435,17.866c-0.012,0.353,0.097,0.687,0.274,0.968
				c-2.944,0.257-5.866,0.651-8.78,1.105c-2.509,0.066-5.023,0.083-7.533,0.197c-10.722,0.46-21.468,0.83-32.195,1.021
				c-4.726,0.083-9.449-0.144-14.156-0.323c-1.087-0.042-3.118-0.209-4.558-0.645l-1.039-0.454l-0.86-0.771
				c-0.155-0.173-0.305-0.353-0.442-0.538c0.933-0.633,1.429-1.798,1.159-2.951c-1.647-5.358-2.999-11.099-3.716-16.66
				c-0.388-3.017-0.717-6.021-0.974-9.05c-0.4-4.725-0.502-9.539-0.604-14.282c-0.042-1.983-0.071-3.966-0.083-5.949
				c1.672,0.364,3.31,0.615,5.012,0.92c1.499,0.179,2.873-0.896,3.053-2.396c0.18-1.499-0.896-2.873-2.396-3.052
				c-1.953-0.173-3.822-0.376-5.674-0.663c0.006-0.364,0.006-0.729,0.012-1.093c0-0.514-0.424-0.938-0.938-0.938h-0.056
				c-0.243-0.239-0.543-0.43-0.878-0.55c0.024-0.227,0.049-0.448,0.072-0.669c0.149-1.583,0.209-3.172,0.562-4.737
				c0.148-0.824-0.396-1.619-1.22-1.768c-0.823-0.149-1.618,0.394-1.769,1.218c-0.334,1.828-0.818,3.548-1.164,5.37
				c-0.747-0.143-1.494-0.311-2.234-0.454c-1.219-0.239-2.557-0.669-3.745-1.052c-1.564-0.501-3.137-1.051-4.652-1.684
				c-5.28-2.21-10.357-4.869-15.603-7.132c-1.219-0.532-2.431-0.998-3.655-1.463c0.633-1.111,0.424-2.562-0.562-3.441
				c-1.135-1.009-2.892-0.902-3.9,0.233c-0.389,0.46-0.783,0.92-1.183,1.374c-1.529-0.37-3.083-0.651-4.587-0.89
				c-0.741-0.119-1.458,0.382-1.577,1.123c-0.119,0.741,0.382,1.458,1.123,1.577c0.991,0.143,1.953,0.329,2.897,0.543
				c-4.444,4.725-9.503,9.175-14.354,13.201c-2.324,1.929-4.468,3.96-6.672,6.021c-2.12,1.983-4.211,3.955-6.248,6.021
				c-1.26,1.272-2.526,2.569-3.769,3.889c-1.505,0.974-3.076,1.87-4.629,2.748c-0.729,0.412-1.601,0.764-2.335,1.165
				c-0.747-0.442-1.481-0.896-2.204-1.362c0.131-0.185,0.233-0.394,0.311-0.621c0.382-1.207-0.287-2.509-1.493-2.891
				c-2.718-0.979-5.203-2.509-7.581-4.205c-2.156-1.542-4.223-3.083-6.302-4.731c-2.939-2.335-5.687-4.82-8.446-7.347
				c-7.944-8.273-15.214-17.293-22.287-25.996l1.171-1.458c0.794-0.149,1.147-0.753,1.661-1.291c1.284-1.338,2.497-2.7,3.823-4.008
				c3.937-3.883,8.01-7.646,12.102-11.367c3.542-3.22,7.019-6.469,10.334-9.922c0.842-0.878,1.648-1.774,2.479-2.664
				c0.448-0.478,0.926-0.968,1.332-1.476c1.469-1.846,3.148-3.662,4.45-5.633c0.579-0.872,1.278-1.75,1.804-2.64
				c0.574-0.961,1.141-1.953,1.75-2.891c0.46-0.771,0.239-1.768-0.562-2.24c0.562,1.26,0.597,1.338,0.639,1.416
				c0.525,1.123,1.87,1.607,2.993,1.081c1.123-0.525,1.606-1.87,1.081-2.993c-0.824-1.661-1.607-3.339-2.396-5.018
				c-1.947-4.133-4.026-8.208-5.943-12.365c-1.822-3.954-3.458-7.896-5.095-11.923c-0.627-1.541-1.23-3.124-1.798-4.725
				c0.961-0.418,1.667-1.35,1.738-2.467c0.095-1.589-1.111-2.963-2.7-3.058c-0.287-0.018-0.573-0.03-0.86-0.036
				c-0.06-0.209-0.12-0.418-0.179-0.621c-0.406-1.41-0.753-2.843-1.159-4.241c-0.382-1.309-0.729-2.85-0.968-4.193
				c-0.173-0.824-0.991-1.344-1.815-1.171c-0.825,0.173-1.344,0.991-1.171,1.815c0.615,2.82,1.29,5.58,2.049,8.327
				c-0.908-0.006-1.816-0.012-2.718,0l-1.464-2.819c-0.239-0.466-0.83-0.65-1.296-0.412c-0.466,0.238-0.651,0.83-0.412,1.297
				c0.346,0.645,0.687,1.301,1.015,1.964c-7.52,0.162-15.053,0.848-22.537,1.535c-10.137-0.215-20.28-0.699-30.422-1.081
				c-0.376-0.018-0.723,0.096-1.003,0.299c-0.161-0.173-0.311-0.358-0.454-0.55c0.412-0.197,0.609-0.681,0.466-1.117
				c-2.759-8.184-4.122-16.91-5.245-25.465c-0.34-2.568-0.579-5.143-0.83-7.723c0-0.49,0-0.98,0.006-1.471
				c0.024-5.222,0.299-10.627,0.812-15.828c0.436-4.47,0.866-9.248,1.989-13.697l0.92-2.892l3.422-0.467
				c1.374-0.186,2.861-0.49,4.223-0.782c3.931-0.849,7.855-1.654,11.78-2.587c2.533-0.604,5.161-1.146,7.664-1.827
				c10.537-2.86,22.018-5.675,32.991-5.514c0.334,0,0.675,0.006,1.01,0.024c-0.012,0.321-0.018,0.649-0.024,0.984
				c-0.042,1.979,0.024,3.896,0.036,5.86c0,0.398,0.645,0.662,0.818-0.007c0-1.069,0.036-2.162,0.102-3.261
				c0.257,2.065,3.196,2.62,4.116,0.703l0.221-0.46l0.036-0.167l0.245-1.068c0.09-0.149,0.269-0.34,0.329-0.502
				c0.066-0.174,0.09-0.453,0.131-0.646l0.962-3.889l0.603-1.918c0.395-1.31,0.777-2.616,1.159-3.924l0.543-1.812l2.294-6.379
				c0.932-2.486,1.881-4.971,2.807-7.455c0.472-1.272,2.037-5.102,1.936-6.219c-0.03-0.293-0.107-0.566-0.227-0.812l-0.394-0.549
				l0.149-0.311c0.621-1.213,1.29-2.402,2.001-3.562c0.346-0.592,0.251-1.326-0.186-1.805c0.203-0.25,0.406-0.508,0.615-0.764
				c1.082-1.361,1.959-2.886,2.939-4.318c0.58-0.592,0.574-1.553-0.018-2.133c-0.592-0.58-1.553-0.574-2.133,0.018
				c-1.015,0.64-2.24,1.428-3.136,2.217c-0.4,0.347-0.794,0.724-1.177,1.123c-1.637-1.438-3.22-2.885-4.779-4.42
				c-2.736-2.694-5.143-5.639-7.652-8.53c-2.628-3.021-5.023-6.283-7.64-9.312c-0.591-0.686-1.177-1.361-1.762-2.023
				c2.993,2.58,5.901,5.285,8.792,8.027c3.566,3.375,7.246,6.678,10.77,10.096c0.824,0.765,2.115,0.718,2.879-0.106
				c0.764-0.826,0.717-2.115-0.108-2.881c-7.263-6.713-14.521-13.701-22.352-19.761c-2.634-2.034-5.263-3.889-8.016-5.752
				c-1.529-1.039-3.142-2.012-4.785-2.92c-0.03-0.336-0.042-0.658-0.03-0.957c0.024-0.899,0.054-1.604,0.143-2.311
				c4.343-4.904,8.924-9.623,13.62-14.17c3.118-3.021,6.266-6.051,9.498-8.953c1.786-1.607,3.494-3.334,5.25-4.978
				c0.645-0.608,1.29-1.213,1.941-1.813c1.326-0.969,2.652-1.941,3.966-2.922c0.866-0.734,1.834-1.506,2.712-2.318
				c2.013-1.869,3.859-4.014,5.699-6.057c1.087-1.207,2.312-2.467,3.339-3.709c0.854-1.033,1.917-1.894,2.879-2.808
				c0.125-0.127,0.376-0.317,0.604-0.479l0.376-0.203l0.675,0.125c1.147,0.377,2.557,1.23,3.255,1.703
				c3.369,2.281,6.481,4.67,9.569,7.334c2.526,2.176,4.994,4.373,7.455,6.602c-0.382,0.257-0.752,0.515-1.123,0.759
				c-1.708,1.116-3.47,2.211-5.208,3.284c-5.298,3.279-10.734,6.75-15.065,11.273c-0.191,0.184-0.191,0.494-0.006,0.686
				c0.185,0.192,0.496,0.191,0.687,0.007c4.611-4.82,10.411-8.111,16.164-11.414c1.487-0.855,3.046-1.709,4.498-2.617
				c0.436-0.273,0.866-0.555,1.302-0.836c0.908,0.83,1.822,1.672,2.736,2.516c1.953,1.803,3.841,3.666,5.722,5.531
				c-2.544,1.611-5.101,3.219-7.706,4.742c-6.744,3.924-12.98,8.178-17.269,14.838c-0.179,0.262-0.113,0.639,0.149,0.817
				c0.263,0.181,0.639,0.113,0.818-0.149c2.843-4.467,6.702-7.34,11.015-10.256c2.861-1.937,5.866-3.597,8.846-5.34
				c1.852-1.089,3.686-2.191,5.538-3.279c0.406,0.399,0.818,0.801,1.23,1.207c1.285,1.254,2.508,2.567,3.746,3.865
				c-3.388,2.215-6.792,4.692-9.964,7.161c-3.972,3.089-7.706,6.115-11.272,9.652c-0.131,0.125-0.131,0.34-0.006,0.471
				c0.125,0.134,0.34,0.134,0.472,0.009c4.223-4.302,9.485-8.269,14.419-11.666c2.348-1.619,4.737-3.228,7.15-4.785
				c0.107,0.106,0.209,0.215,0.316,0.322c1.034,1.062,2.449,2.521,3.268,3.745c0.854,1.271,1.822,1.535,2.844,1.339
				c-1.888,1.372-3.764,2.766-5.609,4.188c-5.25,4.031-10.561,8.451-14.915,13.457c-0.179,0.197-0.167,0.508,0.03,0.688
				c0.197,0.179,0.508,0.166,0.687-0.03c7.072-8.142,16.624-14.49,25.584-20.572c0.102,0.014,0.203-0.018,0.286-0.082
				c0.92-0.861,2.234-1.338,3.453-1.59c0.627-0.125,1.522-0.078,2.007-0.521c0.215-0.196,0.621-0.44,0.873-0.608l2.3-1.404
				c0.106,0.133,0.227,0.246,0.353,0.354c-0.562,0.274-1.117,0.555-1.679,0.836c-1.816,0.907-3.656,1.821-5.424,2.812
				c-2.049,1.154-4.193,2.217-6.2,3.447c-0.478,0.27-0.651,0.885-0.383,1.361c0.27,0.479,0.885,0.651,1.362,0.383
				c1.254-0.771,2.593-1.439,3.877-2.15c2.747-1.522,5.603-2.885,8.452-4.217c0.274-0.131,0.55-0.264,0.836-0.389
				c-2.538,2.516-5.064,5.034-7.64,7.483c-3.273,3.113-6.511,6.273-9.874,9.289c-1.631,1.463-3.291,2.957-4.964,4.373
				c-1.625,1.373-3.31,2.693-4.916,4.092c-0.197,0.16-0.221,0.459-0.06,0.656s0.46,0.221,0.657,0.062
				c5.125-4.205,10.203-8.488,15.107-12.957c5.495-5.013,10.937-10.119,16.485-15.07c5.949-2.402,12.396-4.385,18.612-5.154
				c-0.346,0.203-0.698,0.412-1.051,0.627c-2.097,1.267-4.385,2.963-6.248,4.558c-1.47,1.262-2.986,2.467-4.396,3.805
				c-2.677,2.533-5.232,5.102-7.85,7.701c-2.593,2.574-5.132,5.201-7.754,7.746c-0.866,0.844-1.792,1.77-2.7,2.562
				c-1.499,1.31-2.986,2.588-4.504,3.877l0.251,0.312c2.3-1.978,4.611-3.877,6.815-5.974c3.591-3.409,7.114-6.918,10.733-10.305
				c6.409-5.996,13.076-11.844,21.241-15.326c0.442-0.211,0.627-0.754,0.418-1.194c-0.137-0.293-0.418-0.474-0.717-0.503
				c0-0.084-0.006-0.168-0.012-0.252c-0.132-1.026-1.087-1.756-2.114-1.623c-1.1,0.119-2.21,0.328-3.321,0.572
				c0.061-4.371,0.334-8.762,0.222-13.146c-0.007-0.215-0.013-0.431-0.019-0.646c5.8-5.52,11.827-10.76,17.962-15.926
				c9.527-8.047,19.516-15.697,29.641-23.045c0.733,0.059,1.476,0.119,2.222,0.19c2.651,0.238,5.389,0.531,8.082,0.908
				c-1.439,0.955-2.879,1.935-4.247,2.943c-7.162,5.264-14.336,10.514-21.176,16.195c-4.217,3.5-8.422,7-12.599,10.555
				c-5.37,4.574-10.613,9.324-15.853,14.049c-0.138,0.119-0.149,0.346-0.03,0.484c0.119,0.137,0.347,0.147,0.483,0.028
				c12.107-11.045,24.832-21.563,38.093-31.198c4.736-3.439,9.539-6.744,14.401-9.992c1.296-0.873,2.599-1.738,3.905-2.605
				c0.466,0.078,0.938,0.162,1.404,0.252c0.83,0.113,1.606-0.473,1.72-1.303c0.042-0.322-0.018-0.633-0.154-0.908
				c1.104-0.723,2.217-1.438,3.333-2.149L489.688-418.115z M495.345-417.494l0.49,0.072c0.298,0.047,0.591,0.102,0.878,0.154
				c-0.383,0.299-0.765,0.592-1.146,0.891L495.345-417.494z M455.975-416.215c-1.422,0.908-2.85,1.813-4.276,2.717
				c-9.909,6.236-20.22,13.416-28.146,22.107c-0.161,0.174-0.154,0.455,0.02,0.614c0.173,0.162,0.454,0.156,0.614-0.018
				c2.317-2.4,4.672-4.934,7.287-7.021c0.878-0.696,1.728-1.444,2.61-2.145c1.397-1.104,2.825-2.131,4.259-3.189
				c4.331-3.194,9.026-5.895,13.571-8.768c2.288-1.453,4.646-2.844,6.978-4.248c2.944,0.072,5.901,0.215,8.876,0.418
				c-5.112,3.949-10.147,7.992-15.147,12.062c-5.232,4.26-10.399,8.625-15.471,13.075c-5.035,4.414-10.019,8.863-14.861,13.476
				c-0.084-3.703-0.114-7.418-0.187-11.121c-0.096-4.623-0.273-9.254-0.489-13.889c2.771-1.564,5.52-3.269,8.226-4.935
				c4.839-2.998,9.517-6.08,14.348-8.94C448.113-416.191,452.038-416.264,455.975-416.215z M497.758-414.064l0.759,9.031
				l0.187,2.801l-0.271-1.26c-0.717-3.178-1.463-6.338-2.168-9.51c0.496-0.371,0.991-0.74,1.487-1.105L497.758-414.064z
				 M418.391-381.164c0.149,4.062,0.251,8.1,0.244,12.162c0,2.348-0.113,4.688-0.154,7.043c-0.753,0.184-1.506,0.393-2.259,0.621
				c0.257-0.312,0.406-0.717,0.396-1.148c-0.024-0.311-0.036-0.621-0.055-0.926c0.479-0.471,0.782-1.115,0.724-1.785
				c-0.065-0.676-0.28-1.26-0.795-1.69c0-1.402,0.029-2.808,0.061-4.218c0.077-3.924,0.312-7.926,0.633-11.838
				c0.239-2.916,0.418-5.83,0.609-8.746C418.044-388.189,418.259-384.682,418.391-381.164z M579.694-380.793
				c0.148,0.053,0.299,0.113,0.446,0.172c-0.022,0.012-0.041,0.025-0.06,0.037c-0.029,0.012-0.06,0.023-0.083,0.035
				c-0.145-0.096-0.287-0.197-0.425-0.293C579.622-380.824,579.658-380.812,579.694-380.793z M590.667-374.342
				c-0.436,0.244-0.872,0.481-1.308,0.729c-1.32-1.021-2.658-2.024-4.021-2.998c-1.152-0.832-2.288-1.69-3.429-2.545
				c0.054-0.223,0.048-0.467-0.03-0.692C584.98-378.375,587.926-376.422,590.667-374.342z M575.047-379.391l0.341,0.27
				c0.244,0.187,0.501,0.377,0.759,0.562c-2.239,1.213-4.421,2.497-6.554,3.848L575.047-379.391z M332.267-374.301
				c-1.613,1.354-3.297,2.766-5.053,3.924c-0.651,0.432-1.368,0.754-2.001,1.16c-0.693,0.447-1.905,0.824-2.7,1.123
				c-0.161,0.053-0.245,0.244-0.191,0.406c0.054,0.159,0.245,0.243,0.406,0.19c0.854-0.318,1.708-0.609,2.527-0.998
				c2.586-1.219,5.131-3.018,7.419-4.725c2.001-1.494,3.835-2.629,6.045-3.711c0.58-0.285,1.481-0.687,2.097-0.83
				c0.43-0.148,0.663-0.633,0.514-1.062c-0.149-0.429-0.633-0.664-1.063-0.514C337.571-378.756,334.292-376.01,332.267-374.301z
				 M320.153-373.668c-2.335,1.691-4.725,3.375-6.857,4.994c1.5-1.912,3.333-3.447,5.239-4.887c0.842-0.64,1.708-1.339,2.61-1.894
				c0.699-0.43,1.35-0.848,2.019-1.332c0.783-0.574,1.529-1.152,2.264-1.744C323.659-376.93,321.903-375.305,320.153-373.668z
				 M578.648-376.773c2.336,1.732,4.636,3.519,6.924,5.322c-1.339,0.775-2.665,1.57-3.974,2.4
				c-16.72,10.549-32.159,23.781-46.873,36.938c-6.099,5.453-12.126,10.998-18.183,16.504c-3.465,3.148-7.013,6.236-10.436,9.427
				l-0.019,0.399l0.4,0.021c3.249-3.023,6.636-5.98,9.957-8.933c5.514-4.91,11.003-9.844,16.588-14.676
				c7.957-6.881,16.025-13.647,24.413-19.998c3.764-2.85,7.567-5.58,11.433-8.291c4.833-3.395,9.826-6.422,14.862-9.486
				c1.361-0.836,2.747-1.665,4.146-2.479c2.521,2.006,5.029,4.025,7.509,6.086c-0.19,0.15-0.377,0.305-0.562,0.461
				c-3.268,2.682-6.565,5.316-9.809,8.033c-4.726,3.967-9.42,7.969-14.115,11.971c-5.991,5.107-12.012,10.209-17.962,15.357
				c-2.474,2.139-5.023,4.199-7.532,6.297c-7.258,6.062-14.61,11.897-22.155,17.598c-1.923,1.451-3.912,2.849-5.854,4.281
				c-0.077,0.055-0.145,0.121-0.197,0.191c-6.475-4.162-13.434-7.412-20.745-9.826c1.451-1.289,2.944-2.539,4.396-3.834
				c1.708-1.535,3.403-3.095,5.101-4.644c2.557-2.321,5.071-4.735,7.574-7.119c3.787-3.596,7.587-7.18,11.35-10.801
				c2.76-2.664,5.562-5.303,8.394-7.901c0.029,0.37,0.173,0.729,0.447,1.021c0.634,0.682,1.715,0.723,2.396,0.09
				c11.116-10.334,22.907-20.137,35.911-28.016c1.046-0.674,1.35-2.078,0.675-3.123c-0.035-0.049-0.065-0.096-0.102-0.137
				c1.918-1.144,3.889-2.246,5.854-3.273C578.523-376.863,578.589-376.822,578.648-376.773z M562.264-372.223
				c-6.852,6.709-13.798,13.262-20.841,19.766c-0.125,0.109-0.215,0.24-0.161,0.412c-3.236,2.516-6.193,5.33-9.108,8.16
				c-8.709,8.436-17.233,17.043-26.038,25.375c-3.327,3.143-6.769,6.11-10.166,9.164c-0.926-0.299-1.853-0.586-2.784-0.855
				c-2.664-1.271-5.376-2.424-8.147-3.453c13.063-12.106,26.804-23.635,40.548-34.961c0.174,0.066,0.347,0.137,0.524,0.209
				l1.088,0.479l2.156,1.176c0.023,0.012,0.048,0.023,0.071,0.037c-0.155,0.74,0.106,1.535,0.747,2.029
				c0.884,0.682,2.162,0.514,2.843-0.369c0.132-0.191,0.264-0.377,0.395-0.558c0.12-0.047,0.222-0.131,0.335-0.184
				c0.943-0.467,1.512-1.34,1.59-2.295c4.641-5.674,10.256-10.543,15.889-15.189c2.838-2.342,5.782-4.563,8.632-6.905
				c1.177-0.974,2.349-1.953,3.446-3.017C562.933-372.885,562.599-372.557,562.264-372.223z M592.764-372.699
				c2.359,1.904,4.605,3.89,6.798,5.967c-0.238,0.187-0.483,0.371-0.723,0.562c-0.024,0.02-0.048,0.037-0.078,0.055
				c-0.932-0.776-1.875-1.541-2.818-2.293c-1.409-1.123-2.809-2.246-4.218-3.356c0.125-0.066,0.251-0.132,0.376-0.197
				c0.306-0.174,0.521-0.455,0.627-0.766C592.74-372.725,592.752-372.711,592.764-372.699z M336.681-364.283
				c-1.583,0.933-3.172,2.021-4.618,3.148c-0.824,0.639-1.75,1.332-2.467,2.09l-0.018,0.4l0.4,0.018
				c0.8-0.865,1.983-1.695,2.927-2.395c0.621-0.462,1.278-0.949,1.947-1.332c0.55-0.312,1.093-0.683,1.637-1.011
				c0.627-0.377,1.314-0.711,1.954-1.069c1.434-0.8,3.022-1.498,4.527-2.168c1.9-0.843,3.931-1.673,5.89-2.354
				c0.347-0.137,0.514-0.543,0.376-0.889c-0.137-0.349-0.543-0.515-0.89-0.377C344.339-368.555,340.426-366.488,336.681-364.283z
				 M611.538-354.607c-0.012,0.015-0.03,0.025-0.042,0.037c-0.4-0.399-0.812-0.812-1.225-1.213c-2.903-2.82-5.92-5.58-9.015-8.238
				c0.203-0.153,0.412-0.315,0.615-0.471C605.171-361.268,608.414-358.006,611.538-354.607z M608.265-351.949
				c-0.979,0.783-1.965,1.572-2.927,2.379c-1.397,1.164-2.85,2.246-4.277,3.369c-4.725,3.721-9.616,7.187-14.479,10.721
				c-4.45,3.238-9.037,6.351-13.56,9.492c-15.591,10.824-31.253,21.517-45.267,34.64c-0.012-0.019-0.022-0.029-0.036-0.035
				c-1.981-1.756-4.02-3.404-9.677-6.756c0.145,0.227,0.299,0.168,0.442,0.071c2.043-1.512,4.108-2.994,6.151-4.504
				c3.315-2.455,6.56-5,9.838-7.504c6.262-4.777,12.336-9.867,18.446-14.83c7.521-6.11,14.909-12.408,22.424-18.528
				c5.514-4.492,11.021-8.996,16.611-13.394c1.744-1.375,3.524-2.701,5.274-4.068c0.222-0.18,0.447-0.352,0.676-0.53
				C601.473-358.387,604.949-355.246,608.265-351.949z M414.441-360.777c-1.428,0.474-2.854,0.998-4.26,1.547
				c0.049-0.047,0.097-0.09,0.133-0.125c0.53-0.137,1.057-0.25,1.589-0.356c0.836-0.187,1.499-0.723,1.868-1.435
				C413.964-360.975,414.19-360.85,414.441-360.777z M414.974-360.711c-0.186,0-0.357-0.018-0.531-0.066
				c0.598-0.196,1.188-0.383,1.779-0.561C415.923-360.975,415.476-360.734,414.974-360.711z M614.076-345.795
				c0.765,0.842,2.085,0.906,2.928,0.143c0.698-0.639,0.859-1.666,0.454-2.479c1.308,1.422,2.622,2.85,3.924,4.289
				c-5.83,4.104-11.505,8.416-17.376,12.49c-2.754,1.909-5.598,3.715-8.381,5.584c-7.461,5.012-15.011,9.86-22.556,14.748
				c-13.075,8.465-26.176,16.922-38.475,26.485c-0.084-0.065-0.174-0.139-0.257-0.203c-2.008-2.289-4.158-4.438-6.29-6.354
				c0.808-0.724,1.618-1.435,2.425-2.14c4.559-4.014,9.414-7.879,14.324-11.45c2.891-2.103,5.765-4.229,8.703-6.271
				c12.341-8.572,25.082-16.6,37.578-24.951c5.984-4.002,11.898-8.153,17.627-12.52c0.574-0.441,1.146-0.885,1.721-1.326
				C611.669-348.461,612.888-347.146,614.076-345.795z M623.969-340.975c0.251,0.278,0.508,0.561,0.766,0.848
				c-0.287,0.383-0.496,0.83-0.58,1.338c-0.065,0.473-0.055,1.045-0.18,1.5c-0.244,0.889-0.437,1.797-0.753,2.664
				c-0.765,2.043-1.601,3.936-2.539,5.764c-1.386,0.818-2.734,1.779-4.056,2.688c-1.815,1.248-3.638,2.492-5.447,3.752
				c-7.521,5.244-14.85,10.912-22.096,16.527c-0.991,0.76-1.977,1.528-2.963,2.295c-0.573-0.461-1.409-0.468-1.982,0.028
				c-0.538,0.453-0.688,1.207-0.413,1.822c-10.883,8.422-21.832,16.844-32.996,24.859c-1.834,1.313-3.686,2.617-5.543,3.914
				c-1.165-1.765-2.406-3.425-3.686-4.869c-1.941-2.197-3.984-4.246-6.207-6.111c5.257-4.008,10.675-7.752,16.176-11.432
				c6.021-4.039,12.191-7.818,18.362-11.625c6.852-4.224,13.834-8.304,20.632-12.599c2.587-1.637,5.186-3.268,7.777-4.891
				c1.846-1.154,3.648-2.443,5.46-3.656c4.707-3.143,9.407-6.451,13.911-9.875c1.763-1.344,3.446-2.854,5.154-4.28
				C623.168-341.865,623.568-341.424,623.969-340.975z M297.663-321.514c1.439,1.582,2.825,3.262,4.175,4.969
				c-0.334,0.037-0.657,0.174-0.92,0.418c-0.478,0.432-0.633,1.094-0.46,1.662c-3.046-3.668-5.812-7.455-8.1-11.769
				C294.36-325.027,296.026-323.318,297.663-321.514z M588.534-300.936c-0.437-0.49-0.872-0.976-1.309-1.451
				c2.7-1.949,5.419-3.89,8.143-5.771c1.619-1.129,3.237-2.252,4.855-3.381C596.234-308.109,592.321-304.592,588.534-300.936z
				 M492.913-307.363c0.502,0.148,1.004,0.312,1.506,0.474c7.885,4.114,15.226,9.33,21.851,15.241
				c-5.054-3.709-10.398-6.944-16.045-9.719c-1.666-0.824-3.351-1.594-5.034-2.315c-2.6-1.953-5.878-3.621-8.661-4.857
				c-0.944-0.418-1.883-0.805-2.826-1.158C486.797-309.049,489.861-308.295,492.913-307.363z M462.76-309.484
				c2.951,0.275,6.171,0.718,9.067,1.332c3.614,0.767,7.365,1.607,10.86,2.797c1.707,0.578,3.403,1.146,5.105,1.75
				c1.667,0.591,3.436,1.32,5.102,2.072c0.418,0.269,0.83,0.537,1.248,0.801c2.146,1.345,4.45,2.568,6.529,3.996
				c0.149,0.138,0.389,0.125,0.525-0.024c0.138-0.148,0.126-0.388-0.023-0.525c-0.066-0.09-0.126-0.172-0.186-0.256
				c1.026,0.586,2.091,1.141,3.105,1.756c2.831,1.703,5.598,3.512,8.268,5.465c0.968,0.711,2.049,1.459,2.957,2.234
				c2,1.709,4.062,3.334,6.045,5.078c1.727,1.518,3.362,3.188,5.076,4.725c0.055,0.047,0.108,0.097,0.162,0.144
				c-0.901,0.76-1.792,1.528-2.658,2.317c-0.174,0.148-0.19,0.418-0.041,0.592c0.148,0.173,0.418,0.191,0.591,0.041
				c0.901-0.807,1.828-1.596,2.76-2.37c2.497,2.239,4.994,4.469,7.438,6.768c0.096,0.113,0.264,0.156,0.399,0.107
				c6.081,8.493,11.075,17.734,14.688,27.543c1.04,4.588,1.78,9.246,2.234,13.94c-0.389,0.275-0.771,0.558-1.153,0.837
				c-0.189,0.133-0.237,0.395-0.106,0.586c0.132,0.19,0.395,0.238,0.586,0.106c0.251-0.179,0.508-0.356,0.765-0.531
				c0.646,7.396,0.579,14.867-0.144,22.245c-0.896,4.211-2.021,8.351-3.339,12.376c-1.937,5.891-4.373,11.57-7.182,17.031
				c1.519-3.447,2.813-6.977,3.843-10.681c0.269-0.973,0.578-2.018,0.794-3.004c0.269-1.207,0.489-2.467,0.794-3.662
				c0.036-0.137-0.041-0.286-0.18-0.322c-0.138-0.035-0.287,0.042-0.321,0.18c-1.195,3.189-2.413,6.313-3.907,9.384
				c-3.41,7.001-7.245,13.482-11.713,19.784c-1.513,1.607-3.395,3.154-5.03,4.659c-3.983,3.649-8.069,7.096-12.138,10.65
				c-2.7,2.359-5.729,5.06-7.938,7.891c-0.311,0.358-0.269,0.914,0.09,1.225c0.359,0.311,0.914,0.269,1.226-0.089
				c2.222-2.867,5.25-5.448,7.985-7.813c3.153-2.735,6.487-5.274,9.63-8.022c-2.413,2.879-4.977,5.609-7.538,8.387
				c-2.307,2.497-4.93,4.88-7.468,7.144c-6.505,5.8-13.936,11.122-21.755,15.489c2.162-2.581,4.337-5.155,6.511-7.718
				c2.797-3.303,5.604-6.666,8.53-9.856c0.479-0.567,0.399-1.421-0.168-1.899c-0.566-0.478-1.421-0.4-1.898,0.167
				c-4.82,5.967-9.503,12.006-14.336,17.961c-0.724,0.186-2.803,1.291-3.382,1.547c-2.991,1.302-6.087,2.628-9.024,4.038
				c-3.996,1.911-8.578,3.279-13.195,4.098c-2.76,0.155-5.524,0.006-8.278-0.03c-0.544-0.012-1.01,0.4-1.058,0.932
				c-0.454,0.006-0.902,0.006-1.355,0.006c3.571-4.289,7.651-8.243,11.695-11.935c4.72-4.319,9.468-8.572,14.108-12.968
				c0.544-0.562,0.532-1.469-0.029-2.013s-1.47-0.532-2.014,0.03c-1.164,1.272-2.312,2.557-3.458,3.847
				c-2.015,2.27-4.218,4.48-6.309,6.678c-5.054,5.304-10.311,10.579-14.892,16.349c-4.582-0.083-9.128-0.621-13.602-1.559
				c2.975-4.337,6.505-7.873,10.292-11.517c1.416-1.362,2.908-2.628,4.401-3.895c3.745-3.172,7.688-6.135,11.881-8.679
				c0.621-0.4,0.795-1.243,0.396-1.864c-0.4-0.621-1.243-0.794-1.864-0.395c-2.281,1.434-4.558,3.19-6.66,4.875
				c-3.033,2.425-5.979,4.97-8.769,7.688c-3.465,3.375-6.72,6.696-9.642,10.549c-0.621,0.818-1.303,1.697-1.846,2.569
				c-0.054,0.072-0.096,0.155-0.126,0.239c-4.611-1.087-9.133-2.598-13.518-4.456c6.834-7.042,14.114-13.637,21.694-19.861
				c2.819-2.318,5.812-4.456,8.745-6.625c0.557-0.436,0.657-1.254,0.222-1.81c-0.438-0.555-1.256-0.657-1.811-0.221
				c-4.719,3.715-9.217,7.92-13.59,12.036c-5.501,5.167-10.865,10.65-16.11,16.11c-0.035-0.012-0.07-0.03-0.101-0.042
				c-4.206-1.852-8.333-4.032-12.317-6.523c4.433-5.376,9.563-9.719,15.083-14.133c2.58-2.067,5.222-4.05,7.824-6.087
				c1.117-0.872,2.3-1.714,3.395-2.61c1.271-1.045,2.615-2.126,3.93-3.118c0.49-0.418,0.55-1.159,0.132-1.648
				c-0.418-0.489-1.159-0.55-1.648-0.131c-1.219,1.057-2.406,2.174-3.619,3.243c-3.333,2.939-6.731,5.8-10.083,8.727
				c-5.604,4.886-10.961,9.659-15.62,15.375c-3.285-2.084-6.477-4.384-9.517-6.863c0.975,0.43,1.983,0.842,3.06,1.242
				c1.953,0.729,3.989,1.201,5.991,1.774l0.293-0.125l-0.127-0.293c-1.647-1.009-3.303-1.983-4.945-3.004
				c-0.926-0.58-1.833-1.171-2.741-1.774c3.333-3.686,6.804-7.198,10.614-10.513c1.38-1.201,2.844-2.467,4.331-3.536
				c1.476-1.057,2.957-2.222,4.498-3.178c1.959-1.213,3.863-2.414,5.872-3.554c0.607-0.376,0.8-1.189,0.424-1.798
				c-0.377-0.609-1.188-0.801-1.798-0.424c-2.043,1.23-3.901,2.73-5.844,4.092c-0.549,0.382-1.081,0.824-1.601,1.249
				c-2.104,1.708-4.044,3.345-6.021,5.208c-4.021,3.787-7.699,7.789-11.29,11.911c-1.546-1.045-3.082-2.096-4.636-3.112
				c-1.624-1.063-3.201-2.186-4.73-3.381c2.879-3.608,6.099-6.756,9.396-9.987c2.474-2.425,5.228-4.815,7.95-6.959
				c1.493-1.177,2.992-2.39,4.569-3.453c0.399-0.299,0.479-0.878,0.18-1.278s-0.878-0.478-1.278-0.179
				c-5.556,4.14-10.681,9.283-15.471,14.258c-2.091,2.162-4.044,4.486-5.92,6.833c-1.332-0.765-2.479-1.762-3.584-2.795
				c-0.191-0.179-0.376-0.353-0.567-0.532c-1.362-1.667-2.658-3.375-3.889-5.125c2.139-2.276,4.665-4.325,6.953-6.207
				c2.252-1.857,4.671-3.614,6.863-5.525c0.926-0.806,1.84-1.619,2.754-2.437c0.842-0.752,1.666-1.69,2.441-2.515
				c0.329-0.371,0.293-0.956-0.077-1.284c-0.371-0.329-0.956-0.293-1.283,0.078c-0.557,0.591-1.095,1.278-1.638,1.894
				c-0.556,0.627-1.171,1.188-1.744,1.792c-0.724,0.765-1.589,1.469-2.36,2.186c-1.672,1.547-3.428,3.022-5.154,4.51
				c-2.3,1.978-5.006,4.289-7.281,6.756c-2.784-4.068-5.191-8.356-7.156-12.831c2.27-2.097,4.516-4.146,6.911-6.111
				c4.558-3.745,9.288-7.066,14.271-10.215c0.447-0.299,0.573-0.914,0.274-1.361c-0.299-0.448-0.914-0.574-1.362-0.275
				c-1.929,1.255-3.858,2.652-5.692,4.039c-2.359,1.785-4.707,3.565-6.959,5.489c-2.652,2.27-5.316,4.48-7.849,6.881
				c-0.06,0.054-0.12,0.108-0.179,0.167c-1.577-3.817-2.826-7.759-3.519-11.864c2.187-1.666,4.325-3.375,6.463-5.101
				c5.639-4.563,10.984-9.229,17-13.327c0.382-0.28,0.466-0.83,0.186-1.212c-0.281-0.382-0.831-0.466-1.213-0.185
				c-6.846,5.172-13.046,11.062-19.599,16.588c-1.04,0.865-2.103,1.684-3.184,2.484c-0.209-1.063-0.4-2.127-0.556-3.195
				c-0.024-0.186-0.209-0.311-0.395-0.287c-0.185,0.023-0.311,0.209-0.287,0.395c0.173,1.182,0.382,2.365,0.627,3.535
				c-0.759,0.562-1.517,1.111-2.27,1.674c-0.316-0.986-0.609-1.966-0.884-2.934c-0.293-1.225-0.568-2.455-0.753-3.721
				c0.042,1.045-0.209-0.019-0.675-3.734c1.732-2.389,4.116-4.809,6.176-6.737c2.927-2.754,6.051-5.185,9.086-7.808
				c1.881-1.625,3.78-3.225,5.662-4.854c0.305-0.275,0.335-0.76,0.06-1.064c-0.274-0.305-0.758-0.334-1.062-0.059
				c-0.933,0.812-1.84,1.678-2.742,2.525c-1.553,1.451-3.268,2.867-4.874,4.265c-4.319,3.746-9.002,7.777-12.544,12.395
				c-0.741-2.766-1.016-5-1.207-7.191c-0.006-0.055-0.006-0.055-0.024-0.245c-0.149-1.804-0.257-3.812-0.047-6.648
				c-0.012,0.264,0.185,0.438,0.424,0.442c0.275,0.006,0.508-0.216,0.514-0.49c0.138-0.926,0.287-1.846,0.448-2.76
				c2.359-1.834,4.761-3.697,6.989-5.662c2.252-1.996,4.564-3.925,6.809-5.927c3.148-2.795,6.267-5.502,9.552-8.135
				c1.248-1.004,2.634-1.941,3.937-2.893c0.341-0.25,0.412-0.74,0.161-1.08c-0.251-0.342-0.74-0.412-1.081-0.162
				c-7.3,5.305-13.613,11.637-20.387,17.538c-1.864,1.618-3.763,3.179-5.692,4.713c0.287-1.637,0.58-3.268,0.818-4.903
				c0.305-2.092,0.514-4.193,0.812-6.278c0.149-1.08,0.311-2.15,0.484-3.226c2.192-2.156,4.444-4.235,6.815-6.248
				c1.475-1.255,3.088-2.629,4.665-3.745c1.129-0.796,2.229-1.638,3.375-2.4c2.108-1.41,4.223-2.707,6.403-4.003
				c0.37-0.229,0.49-0.729,0.263-1.099c-0.227-0.371-0.729-0.49-1.099-0.265c-7.401,4.355-13.984,9.881-20.101,15.859
				c0.34-1.982,0.723-3.966,1.147-5.938c0.501-2.389,1.075-4.777,1.702-7.155c0.478-0.389,0.956-0.775,1.446-1.152
				c1.708-1.338,3.417-2.896,5.029-4.354c1.959-1.773,3.871-3.59,5.824-5.37c1.422-1.297,2.742-2.754,4.128-4.098
				c0.298-0.299,0.298-0.801,0-1.1h-1.1c-2.754,2.658-5.37,5.46-8.094,8.147c-1.667,1.644-3.375,3.237-5.095,4.82
				c-0.556,0.508-1.129,1.021-1.714,1.535c0.681-2.449,1.422-4.875,2.234-7.252c0.771-2.287,1.577-4.642,2.455-6.953
				c0.508-0.92,1.028-1.822,1.571-2.705c1.129-1.846,2.198-3.716,3.429-5.496c3.614-5.238,7.604-10.262,12.222-14.658v-0.371h-0.37
				c-3.363,3.263-6.601,6.906-9.42,10.646c-0.896,1.188-1.828,2.426-2.664,3.656c-0.562,0.83-1.1,1.689-1.673,2.509
				c-0.472,0.669-0.926,1.374-1.309,2.138c0.024-0.102,0.066-0.189,0.108-0.272c0.537-1.185,1.033-2.392,1.589-3.566
				c0.232-0.508,0.472-1.01,0.717-1.5c0.388,0.126,0.836-0.023,1.069-0.376c2.168-3.591,4.683-6.798,7.341-10.024
				c4.444-5.403,10.005-10.393,15.793-14.608c1.278-0.855,2.575-1.687,3.883-2.492c6.339-3.93,13.321-7.502,20.74-10.111
				c1.122-0.524,2.281-0.879,3.44-1.178c3.387-0.883,7.013-1.768,10.495-2.139c3.261-0.347,6.308-0.59,9.593-0.64
				c6.673-0.096,13.01,1.267,19.378,3.088c1.947,0.558,3.912,1.07,5.859,1.625c1.297,0.371,2.557,0.843,3.835,1.248l0.329-0.102
				l-0.103-0.328c-2.987-2.215-5.454-3.912-8.895-5.412c-1.899-0.824-3.842-1.344-5.854-1.809c-1.206-0.287-2.425-0.545-3.661-0.767
				C461.082-309.633,461.918-309.568,462.76-309.484z M598.391-304.693c-2.072,2.414-3.966,5.209-5.681,7.886
				c-0.131,0.196-0.263,0.405-0.396,0.614c-0.388-0.561-0.771-1.129-1.177-1.653c-0.148-0.191-0.292-0.377-0.44-0.562
				c1.75-1.701,3.612-3.375,5.424-4.934c1.421-1.236,2.837-2.449,4.217-3.613C599.711-306.234,599.048-305.471,598.391-304.693z
				 M586.289-298.559c-0.251,0.604-0.138,1.325,0.346,1.821c0.348,0.353,0.825,0.521,1.291,0.496
				c0.149,0.215,0.305,0.431,0.466,0.64c0.688,0.907,1.351,1.903,1.959,2.896c-0.586,1.074-0.196,2.438,0.885,3.029
				c0.096,0.053,0.196,0.096,0.299,0.137c-0.515,0.346-1.027,0.699-1.547,1.045c-0.323-0.436-0.651-0.877-0.975-1.313
				c-0.472-0.646-1.392-0.787-2.037-0.316c-0.646,0.473-0.788,1.393-0.315,2.037c0.299,0.412,0.598,0.83,0.896,1.248
				c-2.216,1.518-4.432,3.035-6.642,4.57c-6.888,4.772-13.697,9.663-20.608,14.407c-2.771,1.898-5.543,3.775-8.32,5.64
				c-0.425-0.641-0.843-1.272-1.261-1.906c-0.144-0.286-0.502-0.396-0.789-0.25c-0.034,0.012-0.07,0.035-0.034,0.096
				c-1.123-2.688-2.67-5.551-4.392-8.209c8.954-6.276,17.891-12.565,26.726-19.022c3.877-2.839,7.801-5.621,11.678-8.453
				c0.257-0.191,0.52-0.383,0.782-0.572C585.243-299.896,585.799-299.209,586.289-298.559z M511.479-299.264
				c2.604,1.575,5.312,3.172,7.725,5.035c0.615,0.473,1.254,0.92,1.869,1.393c1.355,1.045,2.76,2.191,4.128,3.393
				c-0.4,0.369-0.8,0.746-1.194,1.129c-4.475-4.307-9.175-8.291-14.133-11.887C510.421-299.891,510.959-299.58,511.479-299.264z
				 M406.892-298.344c0.187,0.346,0.567,0.531,0.943,0.496c-2.18,1.309-4.479,2.771-6.475,4.307
				c-0.669,0.514-1.351,1.039-2.031,1.535c-1.129,0.824-2.204,1.762-3.291,2.652c-2.975,2.438-5.848,5.194-8.494,7.985
				c-0.335,0.34-0.657,0.691-0.985,1.045c-0.944,0.871-1.876,1.763-2.802,2.664c1.058-1.576,2.156-3.125,3.285-4.666
				c1.075-1.479,2.359-2.854,3.513-4.27c2.771-2.156,5.764-4.117,8.816-5.795c0.573-0.322,0.771-1.058,0.448-1.631
				c-0.168-0.3-0.442-0.49-0.741-0.572c1.464-0.914,2.957-1.775,4.396-2.517c0.233-0.125,0.473-0.25,0.705-0.37
				c0.065-0.007,0.139-0.023,0.197-0.054c0.09-0.065,0.191-0.131,0.286-0.19c0.699-0.357,1.404-0.711,2.109-1.058
				C406.778-298.631,406.812-298.48,406.892-298.344z M321.55-293.111c-0.03,0.029-0.054,0.066-0.083,0.103
				c-0.03-0.103-0.072-0.203-0.113-0.287C321.413-293.242,321.479-293.178,321.55-293.111z M595.188-284.295
				c-0.143,0.043-0.285,0.096-0.424,0.168c-0.321,0.154-0.604,0.363-0.823,0.621l-0.155,0.262l-1.236-1.744
				c-0.598-0.824-1.193-1.643-1.798-2.461c0.692-0.436,1.38-0.871,2.072-1.301C593.66-287.293,594.448-285.801,595.188-284.295z
				 M529.979-284.766c0.682,0.758,1.355,1.51,2.024,2.27c-0.448,0.353-0.89,0.705-1.338,1.057c-1.589-1.768-3.22-3.487-4.868-5.125
				c-0.431-0.424-0.854-0.848-1.284-1.266c0.395-0.383,0.801-0.771,1.212-1.154C527.242-287.621,528.693-286.199,529.979-284.766z
				 M594.412-276.895l1.769,2.909c-0.95,0.74-1.904,1.476-2.854,2.224c-4.295,3.332-8.835,6.433-13.285,9.562
				c-6.904,4.852-14.078,9.301-21.205,13.806c-0.508-1.548-1.062-3.07-1.685-4.601c-1.303-3.195-3.101-6.087-4.977-8.94
				c2.796-1.847,5.585-3.692,8.381-5.551c9.002-6.003,17.943-12.12,27.054-17.956c0.216-0.143,0.431-0.28,0.646-0.418
				C590.356-282.914,592.447-279.945,594.412-276.895z M532.857-281.512c1.36,1.59,2.676,3.356,3.899,5.061
				c1.2,1.672,2.461,3.363,3.703,5c0.287,0.381,0.573,0.775,0.854,1.17c-0.228,0.162-0.454,0.316-0.682,0.474
				c-0.441-0.761-0.885-1.519-1.32-2.283c-1.434-2.496-3.214-4.904-4.867-7.258c-0.139-0.203-0.424-0.25-0.627-0.113
				c-0.203,0.139-0.251,0.424-0.114,0.627c0.776,1.105,1.625,2.217,2.372,3.34c0.645,0.976,1.277,1.965,1.856,2.916
				c-2.079-2.791-4.337-5.557-6.689-8.209c0.441-0.352,0.884-0.697,1.326-1.051C532.666-281.732,532.762-281.625,532.857-281.512z
				 M316.808-275.43c-0.496,1.479-0.968,2.975-1.428,4.473l-0.89,2.963l-0.604,1.733c-0.37,1.099-0.723,2.204-1.057,3.32
				c-0.395,1.303-0.765,2.609-1.117,3.925l-0.083,0.299c-0.084-0.006-0.167-0.012-0.251-0.019
				c0.902-5.383,2.449-10.812,4.498-15.293c0.579-1.271,1.147-2.621,1.81-3.899C317.375-277.084,317.083-276.26,316.808-275.43z
				 M597.25-272.223l0.556,0.914l0.824,1.977c1.361,3.406,2.599,6.9,3.847,10.322c0.049,0.138,0.097,0.274,0.149,0.412
				c-11.081,5.817-22.18,11.637-32.979,17.938c-2.58,1.499-5.112,3.059-7.641,4.63c-0.525-2.838-1.188-5.676-1.995-8.519
				c-0.257-0.901-0.52-1.786-0.794-2.658c7.084-4.438,14.276-8.745,21.217-13.41c2.748-1.852,5.521-3.648,8.249-5.531
				c1.143-0.787,2.33-1.56,3.447-2.378c0.633-0.465,1.319-0.973,1.982-1.403c0.669-0.431,1.374-0.979,2.02-1.457
				C596.503-271.668,596.88-271.941,597.25-272.223z M371.595-261.822c-1.237,2.801-2.324,5.662-3.387,8.535
				c-1.416,3.817-2.729,8.022-3.715,11.971c-0.263,1.027-0.514,2.05-0.765,3.076c-0.233,0.174-0.466,0.354-0.693,0.525
				c-0.239,0.162-0.478,0.335-0.723,0.502c1.051-4.748,2.354-9.443,3.984-14.008c-1.027,1.815-0.58,0.489,0.203-0.646
				c2.007-5.681,4.474-11.146,7.454-16.276l0.03-0.05c0.138-0.237,0.311-0.53,2.33-3.094
				C374.582-268.191,373.022-265.072,371.595-261.822z M543.424-267.181c0.145,0.273,0.496,0.388,0.771,0.245
				c0.054-0.036,0.106-0.078,0.148-0.119c1.01,1.744,1.947,3.518,2.803,5.321c0.321,0.692,0.639,1.392,0.942,2.097
				c-0.394,0.264-0.788,0.52-1.183,0.783c-0.717-1.285-1.457-2.552-2.216-3.8c-0.454-0.74-0.921-1.477-1.374-2.169
				c-0.113-0.232-0.209-0.431-0.306-0.621c-0.657-1.308-1.361-2.581-2.079-3.841c0.239-0.168,0.479-0.336,0.725-0.508
				C542.253-268.926,542.833-268.041,543.424-267.181z M551.506-249.84c-0.186-0.406-0.37-0.808-0.556-1.195
				c-1.213-2.545-2.509-5.063-3.89-7.538c0.39-0.257,0.771-0.508,1.159-0.765C549.541-256.244,550.628-253.072,551.506-249.84z
				 M603.324-256.686c-0.144,0.243-0.228,0.53-0.232,0.836c-0.012,0.286,0.055,0.567,0.173,0.812
				c-0.07,0.006-0.137,0.006-0.203,0.012c-1.057,0-1.91,0.867-1.91,1.925c0,1.057,0.865,1.91,1.923,1.91
				c0.753-0.018,1.494-0.006,2.233,0.024c0.354,0.997,0.741,2.013,1.178,2.975c0.244,0.55,0.405,1.033,0.687,1.548
				c-0.824,0.321-1.648,0.649-2.473,0.974c-3.482,1.362-7.008,2.938-10.399,4.521c-5.817,2.718-11.714,5.597-17.269,8.816
				c-1.864,1.08-3.71,2.174-5.562,3.272c-2.065,1.23-3.948,2.593-5.932,3.937c-0.711,0.479-1.409,0.969-2.108,1.458
				c-0.173-3.661-0.556-7.307-1.171-10.943c1.147-0.717,2.288-1.438,3.436-2.149c2.406-1.499,4.951-2.927,7.431-4.312
				c7.419-4.14,14.993-7.962,22.525-11.888c2.532-1.325,5.06-2.646,7.587-3.972C603.265-256.848,603.295-256.77,603.324-256.686z
				 M253.168-256.279l13.129,0.215l-1.673,0.975c-1.499,0.95-2.951,1.978-4.366,3.076c-0.627,0.132-1.254,0.269-1.882,0.412
				c-2.019,0.447-4.032,0.765-6.045,1.177c-0.723,0.144-1.583,0.293-2.377,0.399c0.305-0.573,0.609-1.141,0.92-1.709
				L253.168-256.279z M278.393-255.975h0.567c-0.651,0.112-1.308,0.231-1.977,0.352c0.323-0.089,0.627-0.166,0.938-0.244
				L278.393-255.975z M459.325-253.358c-1.219,0.203-2.407,0.425-3.578,0.688c-0.155,0-0.305,0-0.453,0.006
				c-1.727,0.024-3.572,0.144-5.274,0.418c-2.162,0.354-4.324,0.688-6.428,1.345c-6.486,2.024-11.312,4.205-15.997,9.151
				c-1.768,1.857-3.291,3.96-4.587,6.206l-0.155,0.292l-0.614,0.891c-0.998,1.648-1.798,3.447-2.42,5.341l-0.543,2.426l-1.088,3.984
				c-2.85,14.161,0.753,30.588,12,40.008c1.351,1.129,2.658,2.062,4.115,3.04c0.866,0.58,1.918,1.1,2.851,1.571
				c2.837,1.434,6.051,2.497,9.349,3.184l0.502,0.078l2.389,0.663c1.339,0.292,2.7,0.496,4.016,0.591
				c1.904,0.137,4.133,0.257,6.025,0.036c0.879-0.102,1.8-0.173,2.664-0.311c4.666-0.747,9.42-2.365,13.5-4.767
				c2.008-1.183,3.948-2.384,5.729-3.907c2.246-1.923,4.617-4.121,6.367-6.516c0.186-0.258,0.419-0.49,0.608-0.741
				c0.926-1.249,1.828-2.593,2.642-3.973c5.649-4.224,10.298-9.288,13.397-15.853c0.807-1.703,1.487-3.441,1.917-5.281
				c0.412-1.756,0.155-3.41,0.042-5.166c-0.341,0.848-0.789,1.721-1.165,2.557c-0.231,0.521-0.424,1.062-0.657,1.576
				c-0.562,1.242-0.9,2.676-1.434,3.967c-0.943,2.287-2.055,4.36-3.429,6.421c-1.779,2.664-3.99,5.144-6.469,7.407
				c0.084-0.174,0.16-0.347,0.244-0.52l0.441-1.01c0.264-0.885,0.657-1.798,0.968-2.676c0.628-1.787,1.165-3.876,1.519-5.74
				c1.313-6.9,1.093-14.438-1.702-20.984c-0.682-1.596-1.41-3.023-2.246-4.54c-1.284-2.335-3.178-4.636-5.006-6.571
				c-5.389-5.697-12.442-9.4-19.98-11.24c0.299-0.167,0.515-0.483,0.531-0.854c0.023-0.573-0.418-1.062-0.991-1.087
				c-0.586-0.144-1.229-0.299-1.828-0.382C463.536-253.842,460.891-253.627,459.325-253.358z M613.15-250.539
				c1.38,0.035,2.76,0.096,4.14,0.167c-1.081,0.37-2.162,0.747-3.243,1.136c-0.782,0.273-1.56,0.562-2.336,0.849
				c-0.209-0.783-0.424-1.56-0.645-2.318C611.753-250.629,612.446-250.562,613.15-250.539z M637.516-248.926
				c-2.328,0.812-4.658,1.75-6.917,2.621c-8.745,3.369-17.148,7.76-25.291,12.377c-9.909,5.621-19.455,11.904-28.827,18.369
				c-4.642,3.195-9.259,6.469-13.834,9.795c0.119-0.907,0.228-1.815,0.322-2.688c0.496-4.797,0.669-9.51,0.502-14.174
				c0.441-0.287,0.885-0.574,1.332-0.854c1.953-1.254,3.979-2.39,5.967-3.571c4.707-2.802,9.312-5.521,14.229-7.963
				c7.735-3.854,15.758-7.275,23.911-10.327c0.866,0.137,1.793-0.209,2.348-0.867c3.729-1.355,7.474-2.634,11.236-3.846
				C627.505-249.703,632.511-249.255,637.516-248.926z M471.368-245.778c2.502,1.04,4.838,2.104,7.084,3.649
				c0.531,0.365,1.135,0.711,1.625,1.123c0.537,0.454,1.129,0.885,1.689,1.313c0.431,0.334,0.896,0.789,1.296,1.17
				c1.822,1.728,3.269,3.363,4.701,5.432c0.376,0.538,0.771,1.087,1.075,1.667c0.328,0.621,0.734,1.23,1.039,1.857
				c1.058,2.196,2.306,5.352,2.628,7.817c0.162,1.229,0.467,2.461,0.49,3.703c0.023,1.435,0.048,2.772,0.03,4.212
				c-0.014,0.837-0.181,1.727-0.251,2.562c-0.155,1.769-0.545,3.519-1.033,5.244l-1.631,5.029l-2.162,4.594
				c-0.657,1.236-1.471,2.371-2.229,3.541c-0.209,0.323-0.43,0.64-0.657,0.951c-2.479,1.564-5.028,2.938-7.531,4.104
				c-1.941,0.901-3.89,1.744-5.849,2.604c-2.557,1.123-5.19,1.947-7.789,2.945c-0.454,0.161-0.698,0.669-0.538,1.123
				c0.161,0.453,0.67,0.699,1.123,0.537c1.146-0.436,2.329-0.801,3.482-1.225c1.721-0.639,3.411-1.296,5.113-1.977
				c2.586-1.039,5.231-2.211,7.676-3.543c0.167-0.096,0.334-0.185,0.502-0.274c-0.036,0.03-0.072,0.065-0.102,0.102
				c-3.65,3.584-7.831,6.165-12.558,8.076l-3.118,0.89l-4.539,0.448c-1.492,0.179-3.011,0.126-4.498,0.222
				c-1.438,0.096-2.927-0.102-4.359-0.15c-1.1-0.035-2.354-0.274-3.447-0.436l-3.082-0.675l-3.925-1.822
				c-0.646-0.335-1.284-0.806-1.917-1.183c-0.609-0.364-1.165-0.891-1.75-1.303c-2.802-1.971-5.299-5.089-7.264-7.885l-1.602-2.627
				l-2.079-4.045c-0.52-1.068-1.099-2.281-1.499-3.398c-0.753-2.097-1.476-4.038-2.097-6.194c-0.49-1.702-0.782-3.424-1.1-5.161
				c0.054-6.511,2.771-12.944,6.631-18.052c1.177-1.56,2.329-3.131,3.614-4.6c4.516-5.168,10.172-9.354,16.455-12.114
				c0.562-0.06,1.136-0.102,1.728-0.132v-0.153l-1.267,0.089c0.466-0.203,0.938-0.395,1.409-0.573l0.447-0.084
				c0.682-0.09,1.428-0.107,2.121-0.167C459.17-249.052,466.075-247.982,471.368-245.778z M555.711-246.514
				c0.006,0.023,0.02,0.055,0.024,0.084c-0.013,0.006-0.024,0.012-0.036,0.018c-0.019-0.102-0.036-0.203-0.055-0.292
				C555.663-246.645,555.688-246.578,555.711-246.514z M557.593-239.644c0.437,1.846,0.866,3.738,1.194,5.633
				c-0.531,0.353-1.051,0.729-1.564,1.104c-0.161-4.163-0.58-8.229-1.283-12.237c0.054-0.037,0.112-0.072,0.173-0.108
				C556.673-243.406,557.15-241.496,557.593-239.644z M437.815-243.777c-5.46,4.456-10.537,9.861-13.374,16.402
				c-0.818,1.889-1.632,3.668-2.217,5.657c-0.328,1.116-0.622,2.233-0.453,3.399c-0.078-0.293-0.085-0.599-0.085-0.896l0.013-0.149
				l0.203-1.522c0.215-1.262,0.489-2.516,0.854-3.745c0.28-0.961,0.627-1.912,0.908-2.867c0.209-0.711,0.579-1.5,0.865-2.192
				c1.522-3.722,4.051-7.55,6.972-10.314c0.901-0.854,1.78-1.523,2.747-2.276l2.33-1.415l2.574-1.069
				c0.048-0.023,0.096-0.048,0.167-0.048C438.724-244.506,438.252-244.142,437.815-243.777z M661.194-241.065
				c-1.798,0.927-3.524,1.989-5.293,2.97c-3.535,1.966-7.169,4.337-10.478,6.66c-2.121,1.492-4.283,2.92-6.374,4.461
				c-6.618,4.888-13.117,9.851-19.479,15.07c-8.542,7.008-16.988,14.127-25.44,21.242c-4.325,3.637-8.722,7.174-13.094,10.746
				c-4.36,3.56-8.87,6.917-13.352,10.315c-2.252,1.708-4.616,3.292-6.894,4.964c-0.125,0.083-0.154,0.269-0.071,0.395
				c0.084,0.125,0.27,0.155,0.396,0.071c2.21-1.66,4.526-3.195,6.75-4.844c4.192-3.106,8.393-6.236,12.489-9.467
				c9.015-7.109,17.891-14.366,26.832-21.564c5.646-4.545,11.331-9.115,17.127-13.47c2.598-1.953,5.207-3.954,7.854-5.836
				c2.861-2.03,5.74-4.021,8.613-6.026c7.879-5.496,16.36-10.215,24.67-15.018c0.585-0.306,0.807-1.039,0.502-1.625
				c-0.305-0.585-1.039-0.808-1.625-0.503C663.279-242.057,662.216-241.592,661.194-241.065z M362.987-234.614
				c-0.298,1.009-0.591,2.02-0.884,3.04c-0.639,2.205-1.165,4.486-1.619,6.786c0.179-2.233,0.4-4.444,0.687-6.636
				c0.269-1.523,0.561-3.041,0.872-4.547c0.514-0.353,1.033-0.698,1.517-1.039c0.006-0.013,0.018-0.019,0.036-0.035
				C363.376-236.186,363.173-235.379,362.987-234.614z M559.038-232.476c0.406,2.831,0.854,5.788,0.992,8.648
				c0.035,0.836,0.06,1.696,0.102,2.552c-0.49,0.352-0.979,0.717-1.464,1.073c-0.077-3.876-0.52-7.651-1.284-11.414
				c0.543-0.335,1.081-0.67,1.631-0.998C559.021-232.565,559.026-232.523,559.038-232.476z M554.312-227.16
				c0,0.831-0.018,1.668-0.048,2.51c-0.138-1.576-0.305-3.137-0.495-4.678c0.023-0.012,0.041-0.023,0.065-0.041
				C553.997-228.641,554.158-227.9,554.312-227.16z M560.203-220.277c0.084,1.086,0.03,2.245,0.03,3.338
				c0,2.652-0.097,5.316-0.358,7.957c-0.09,0.879-0.144,1.773-0.232,2.652c-0.084,0.782-0.239,1.612-0.348,2.4
				c-0.036,0.228-0.064,0.455-0.102,0.688c-1.104,0.807-2.204,1.619-3.303,2.432c0.028-0.09,0.048-0.18,0.076-0.264
				c0.223-0.764,0.442-1.523,0.663-2.287c0.872-3.023,1.41-6.321,1.732-9.45c0.228-2.229,0.328-4.408,0.315-6.56
				c0.502-0.353,1.005-0.705,1.513-1.052C560.191-220.373,560.197-220.326,560.203-220.277z M665.938-208.911
				c-0.125,2.114-0.299,4.224-0.316,6.344c-0.65,0.556-1.296,1.129-1.959,1.649c-2.622,2.036-5.263,3.924-7.962,5.865
				c-2.031,1.463-4.235,2.854-6.338,4.217c-3.106,2.008-6.284,4.051-9.469,5.926c-1.618,0.955-3.314,1.941-4.887,2.963
				c-0.286,0.174-0.376,0.549-0.203,0.836c0.174,0.287,0.55,0.377,0.837,0.203c1.541-1.027,3.237-1.965,4.832-2.921
				c2.485-1.487,4.971-2.993,7.449-4.504c4.312-2.622,8.637-5.382,12.788-8.249c1.703-1.183,3.356-2.42,4.958-3.728
				c-0.006,0.024-0.006,0.03,0,0.036c-0.012,1.303,0.866,2.413,2.073,2.736c-0.233,1.212-0.484,2.418-0.753,3.619
				c-0.46,2.037-0.927,4.235-1.541,6.225c-0.467,1.518-1.017,3.088-1.445,4.611c-0.418,1.475,0.448,3.022,1.923,3.44
				c0.508,0.144,1.021,0.132,1.5,0l0.054-0.185l-0.322,1.146l-4.832,0.52c-4.115,0.389-8.314,0.383-12.448,0.598
				c-3.154,0.161-6.32,0.131-9.468,0.256c-5.312-0.221-10.621-0.687-15.883-1.314c-2.79-0.335-5.593-0.747-8.363-1.243
				c9.234-7.49,18.445-15.028,27.812-22.346c7.479-5.848,15.046-11.797,22.877-17.186
				C666.486-215.906,666.134-212.424,665.938-208.911z M556.159-210.184c-0.013,1.75-0.048,3.531-0.181,5.274
				c-0.118,1.475-0.327,2.938-0.507,4.408c-0.502,0.376-1.01,0.746-1.512,1.123c0.215-1.936,0.389-3.907,0.521-5.896
				c0.353-1.505,0.688-3.028,1.004-4.582c0.238-1.177,0.436-2.365,0.608-3.561C556.142-212.334,556.165-211.258,556.159-210.184z
				 M554.588-185.023c-0.189,0.525-0.388,1.051-0.591,1.57c-1.111,0.801-2.21,1.602-3.31,2.408c0.92-2.467,1.601-4.977,2.442-7.461
				c0.048-0.131-0.019-0.281-0.148-0.328c-0.133-0.049-0.281,0.018-0.328,0.148c-0.181,0.371-0.348,0.753-0.516,1.135
				c0.663-3.41,1.201-6.833,1.638-10.238c0.029-0.28,0.065-0.555,0.096-0.836c1.727-1.278,3.459-2.551,5.197-3.805
				C558.137-196.475,556.625-190.717,554.588-185.023z M544.29-173.125c-2.072,3.673-4.438,7.126-6.917,10.543
				c-3.674,5.053-7.801,10.25-12.21,14.682c-2.837,2.849-5.734,5.555-8.78,8.112c-0.836,0.46-1.685,0.914-2.503,1.404
				c-0.37,0.203-0.556,0.621-0.49,1.016c-1.109,0.866-2.238,1.708-3.393,2.539c-2.771,1.977-5.597,3.733-8.529,5.465
				c-3.561,2.103-7.467,4.056-11.302,5.597c-0.508,0.197-1.016,0.4-1.541,0.538c4.539-1.965,8.715-4.545,12.711-7.317
				c1.171-0.824,2.348-1.661,3.507-2.515c0.061-0.018,0.119-0.048,0.179-0.083c1.56-1.04,3.124-2.037,4.672-3.101
				c0.711-0.49,1.392-1.039,2.103-1.535c1.278-0.89,2.497-1.953,3.716-2.927c3.398-2.718,6.66-5.89,9.652-9.049
				c7.963-8.405,15.102-18.9,20.077-29.347c1.212-2.551,2.316-5.066,3.375-7.641C547.462-182.15,545.963-177.456,544.29-173.125z
				 M549.152-173.083c-0.27,0.52-0.604,1.016-0.885,1.529c-0.263,0.478-0.531,0.956-0.812,1.434
				c1.141-3.231,2.108-6.523,2.867-9.892c1.081-0.795,2.162-1.583,3.243-2.371C552.265-179.205,550.729-176.117,549.152-173.083z
				 M370.699-169.594c-0.341,0.34-0.681,0.681-1.021,1.027c-0.729-1.44-1.439-2.867-2.126-4.337
				c-1.034-2.204-1.959-4.587-2.76-6.977c0.729-0.525,1.476-1.033,2.204-1.559C367.88-177.384,369.134-173.429,370.699-169.594z
				 M611.538-179.588c-0.818,0.669-1.644,1.338-2.467,2.014c0.054-0.311,0.112-0.615,0.185-0.908
				c0.174-0.747-0.07-1.387-0.501-1.822C609.674-180.06,610.606-179.82,611.538-179.588z M624.661-176.834
				c0.251,0.042,0.508,0.089,0.765,0.131c-1.38,0.065-2.771,0.102-4.14,0.245c-3.464,0.347-6.982,0.747-10.417,1.308
				c-0.222,0.036-0.448,0.066-0.675,0.102c0.585-0.472,1.177-0.95,1.768-1.416c0.962-0.782,1.924-1.56,2.893-2.341
				C618.114-178.07,621.418-177.419,624.661-176.834z M377.724-156.19c-0.023-0.036-0.036-0.048-0.042-0.06
				c-1.469-1.917-3.142-3.895-4.372-5.979c-0.854-1.445-1.84-2.843-2.61-4.342c-0.131-0.257-0.263-0.508-0.388-0.759
				c0.328-0.299,0.663-0.604,0.998-0.908c0-0.006,0.006-0.012,0.131-0.119C373.304-163.633,375.376-159.834,377.724-156.19z
				 M366.183-164.857c-0.072-0.149-0.143-0.299-0.209-0.448C366.04-165.156,366.111-165.007,366.183-164.857z M367.426-162.367
				c0.848,1.655,1.738,3.399,2.742,4.994c-0.102-0.131-0.185-0.275-0.269-0.418c-0.681-1.159-1.421-2.348-2.013-3.554
				c-0.412-0.848-0.824-1.673-1.225-2.503l0.012-0.012C366.924-163.358,367.175-162.856,367.426-162.367z M376.355-152.618
				c-0.113,0.167-0.227,0.334-0.328,0.508c-0.138,0.191-0.09,0.466,0.102,0.603c0.191,0.138,0.466,0.09,0.604-0.102
				c0.065-0.113,0.144-0.227,0.215-0.34c0.472,0.525,0.95,1.051,1.439,1.565c2.15,2.258,4.521,4.474,7.019,6.493
				c-0.759,1.039-1.487,2.114-2.103,3.189c-1.815-1.852-3.674-3.703-5.298-5.716c-0.783-0.968-1.637-1.923-2.384-2.921
				c-0.717-0.962-1.416-1.917-2.097-2.879c0.138,0.042,0.293,0.036,0.437-0.036c0.274-0.144,0.376-0.496,0.232-0.771
				c-0.878-1.834-1.69-3.68-2.461-5.543C373.166-156.501,374.707-154.518,376.355-152.618z M538.239-157.684
				c-0.03,0.065-0.061,0.131-0.084,0.197c-0.562,0.603-1.136,1.194-1.666,1.81c-0.155,0.173-0.316,0.353-0.526,0.508
				c0.229-0.269,0.454-0.532,0.592-0.86c0.734-0.693,1.345-1.481,1.941-2.282C538.412-158.102,538.323-157.893,538.239-157.684z
				 M488.535-147.32c-1.732,1.637-3.501,3.231-5.197,4.916c-4.896,4.856-9.312,10.155-13.894,15.298
				c-2.294,2.574-4.611,5.137-6.905,7.711c-0.376,0.412-0.347,1.063,0.064,1.439c0.412,0.376,1.063,0.347,1.439-0.065
				c3.549-3.973,7.188-7.873,10.752-11.833c3.955-4.384,8.047-8.625,12.461-12.544c1.815-1.613,3.687-3.297,5.65-4.725
				c0.634-0.52,0.729-1.464,0.209-2.097c-0.521-0.633-1.463-0.729-2.098-0.209C490.208-148.724,489.312-148.055,488.535-147.32z
				 M596.951-134.083c-0.126,0.107-0.257,0.215-0.383,0.323c-0.244-0.162-0.489-0.317-0.734-0.472
				c-0.03-0.018-0.054-0.036-0.077-0.054c0.215-0.358,0.424-0.723,0.633-1.087C596.568-134.955,596.754-134.525,596.951-134.083z
				 M484.145-123.875c-0.096,0.054-0.19,0.107-0.279,0.161c0.292-0.292,0.585-0.585,0.8-0.806
				C484.539-124.358,484.342-124.12,484.145-123.875z M589.104-108.565c-2.678,2.401-5.412,4.749-8.089,7.144
				c-0.347,0.299-0.383,0.836-0.084,1.183c0.3,0.347,0.836,0.382,1.184,0.084c2.67-2.39,5.436-4.719,8.184-7.013
				c2.688-2.246,5.322-4.385,8.159-6.434c1.052-0.758,2.162-1.529,3.256-2.234c0.955-0.615,1.983-1.165,2.951-1.768
				c0.607-0.382,0.788-1.195,0.406-1.804c-0.383-0.609-1.195-0.788-1.806-0.406C598.188-116.605,593.559-112.567,589.104-108.565z
				 M549.093-72.008c0.334,0.257,0.717,0.472,1.052,0.735c0.65,0.514,1.277,1.033,1.924,1.547c0.99,0.788,2.181,2.031,3.047,2.969
				c2.975,3.237,5.746,6.66,8.512,10.083c0.891,1.099,1.846,2.216,2.855,3.309c-0.072-0.042-0.145-0.083-0.209-0.12
				c-1.179-0.687-2.343-1.397-3.501-2.132c-2.108-2.234-4.146-4.653-6.158-6.965c-1.326-1.518-2.628-3.053-3.974-4.558
				c-0.645-0.723-1.271-1.511-1.959-2.192c-1.458-1.446-2.979-2.915-4.533-4.354C547.193-73.215,548.221-72.683,549.093-72.008z
				 M301.773-63.598c3.781,3.59,7.628,7.042,11.66,10.286c0.58,0.555,1.153,1.099,1.738,1.637c2.551,2.354,5.28,4.737,8.1,6.941
				c-2.019-0.979-3.949-2.067-5.866-3.268c-2.168-1.356-4.253-2.712-6.29-4.271c-7.79-5.968-14.438-13.655-19.652-22.03
				C294.76-70.599,298.153-67.038,301.773-63.598z M599.956-57.206c-0.753,0.782-1.458,1.63-2.223,2.401
				c-3.137,3.172-6.57,6.571-10.669,8.44c-0.405,0.186-0.765,0.287-1.129,0.364l-0.932,0.186l-1.136-0.131
				c5.669-3.871,11.248-7.879,16.762-12.006C600.409-57.696,600.183-57.451,599.956-57.206z M411.879-44.603
				c-0.035,1.249-0.06,2.497-0.077,3.757c-0.203-2.365-0.347-4.719-0.138-7.066c0.03-1.708,0.155-3.865,0.412-5.991
				C412.022-50.767,411.957-47.685,411.879-44.603z M497.43-31.706c0.071,3.608,0.035,7.192,0.006,10.794
				c-0.041,4.683-0.592,9.36-1.104,14.007l-0.263,1.535l-2.134,0.269c-0.096-1.577-1.463-2.783-3.04-2.688h-0.054
				c0.097-0.203,0.149-0.43,0.155-0.669c-0.006-0.239-0.006-0.478,0-0.71c0.4,0.37,0.92,0.627,1.505,0.705
				c1.5,0.197,2.886-0.866,3.083-2.365c0.514-5.657,1.015-11.278,1.319-16.958c0.222-4.235,0.222-8.47,0.19-12.705
				c0.03-0.138,0.061-0.269,0.097-0.4C497.274-37.829,497.37-34.764,497.43-31.706z M443.209-0.848
				c-0.913,0.072-1.821,0.131-2.705,0.173c-1.153,0.047-2.275,0.089-3.304-0.215C439.207-0.854,441.208-0.848,443.209-0.848z"/>
		</g>
	</g>
</g>
</svg>
