<?xml version="1.0" encoding="utf-8"?>
<!-- Generator: Adobe Illustrator 16.0.0, SVG Export Plug-In . SVG Version: 6.00 Build 0)  -->
<!DOCTYPE svg PUBLIC "-//W3C//DTD SVG 1.1//EN" "http://www.w3.org/Graphics/SVG/1.1/DTD/svg11.dtd">
<svg version="1.1" id="Layer_1" xmlns="http://www.w3.org/2000/svg" xmlns:xlink="http://www.w3.org/1999/xlink" x="0px" y="0px"
	 width="353.702px" height="442.679px" viewBox="324.51 0 353.702 442.679" enable-background="new 324.51 0 353.702 442.679"
	 xml:space="preserve">
<g transform="scale(1 -1)">
	<g transform="translate(0 -75)">
		<g>
			<path marker-start="none" marker-end="none" d="M573.99-367.403c-1.947,0.114-3.912,0.347-5.836,0.693
				c-1.679,0.305-3.649,0.681-5.221,1.314c-0.801,0.322-2.12,0.89-2.484,1.319c-0.365,0.358-0.395,0.4-0.371,0.484
				c-0.232,0.179-0.25,0.209-0.263,0.232c-0.537,1.004-0.681,1.69-0.8,2.539c-0.329,0.406-0.526,0.914-0.508,1.47
				c0.065,3.87,0.119,7.747,0.09,11.612c-0.019,2.024-0.055,4.031-0.036,6.051c-0.431,0.179-0.902,0.424-1.392,0.698
				c-1.983,0.496-4.009,1.213-5.812,2.121c-0.991,0.495-2.007,1.027-3.005,1.529c-1.319-1.123-2.628-2.198-3.924-3.352
				c-1.094-0.962-2.127-2.18-3.154-3.226c-2.938-2.975-5.818-6.284-9.683-8.082c-2.348-1.093-4.211-1.738-6.72-0.938
				c-3.19,1.016-5.274,3.99-7.771,5.938c-2.163,1.553-4.146,4.032-5.86,6.081c-0.376,0.441-0.734,0.896-1.099,1.355
				c-2.646,1.947-5.347,4.074-7.162,6.559c-0.824,1.117-1.905,2.999-2.21,4.51c-0.646-0.06-1.278,0.293-1.554,0.914
				c-0.34,0.771,0.013,1.685,0.783,2.025c0.006,0,0.012,0,0.018,0.006c-0.274,0.604-0.113,1.338,0.418,1.786
				c0.186,0.149,0.389,0.245,0.604,0.305c0.322,1.111,0.962,2.521,1.464,3.363c1.63,2.747,3.345,4.838,5.441,7.239
				c1.183,1.278,2.401,2.371,3.733,3.494c0.478,0.406,0.979,0.885,1.476,1.267c0.28,0.215,1.123,0.573,1.481,0.74
				c0.562,0.264,1.11,0.55,1.643,0.873c-0.013,0.023-0.024,0.041-0.03,0.06c-0.322,0.549-0.746,1.141-1.016,1.702
				c-0.478,1.016-0.842,2.371-1.123,3.465c-0.723,2.753-1.057,5.405-1.146,8.094c-0.573-0.024-1.146-0.036-1.715-0.036
				c-0.047-0.537-0.244-1.081-0.585-1.374l-0.257-0.185c-0.442-0.406-2.24-0.801-2.963-0.818l-1.625-0.007
				c-0.591-0.041-1.206-0.167-1.81-0.107c-1.23,0.132-2.628,0.275-3.883,0.592c-0.257,0.006-0.52,0.012-0.771,0.018
				c-2.562,0.03-5.215-0.107-7.789-0.149c-5.418-0.083-10.842-0.173-16.26-0.286c-14.873-0.316-29.741-0.634-44.614-0.891
				c-8.22-0.137-16.469-0.28-24.688-0.292c-5.543-0.006-11.098-0.096-16.647-0.036c-3.602,0.042-7.27,0.144-10.865,0.299
				c-5.806,0.251-11.618,0.364-17.424,0.627c-6.069,0.274-12.138,0.525-18.201,0.878c-3.082,0.18-6.207,0.316-9.283,0.579
				c-0.938,0.055-1.678,0.771-1.81,1.673c-0.675,0.006-1.445,0.12-2.079,0.222c-0.956,0.148-1.326,1.003-1.672,1.821
				c-0.914,2.192,0.054,5.012,0.974,7.091c0.257,5.071,0.412,10.148,0.538,15.226c-0.149,1.685-0.281,3.369-0.412,5.035
				c-0.149-2.502-0.311-5.023-0.442-7.538c-0.269-5.089-0.794-10.196-1.207-15.273c-0.018-0.233-0.233-0.412-0.466-0.395
				s-0.412,0.233-0.394,0.466c0.567,7.037,1.111,14.02,1.517,21.074c0.185,3.303,0.305,6.612,0.412,9.928
				c-0.329,5.322-0.556,10.656-0.842,15.996c-0.257,4.726-0.394,9.498-0.531,14.229c-0.263,9.258-0.508,18.492-0.657,27.757
				c-0.197,12.359-0.245,24.712-0.209,37.047c-0.024,0.352-0.048,0.687-0.066,1.015c-0.203,3.094-0.233,6.207-0.322,9.312
				c-0.144,5.036-0.287,10.071-0.406,15.106c-0.341,15.095-0.663,30.195-0.794,45.29c-0.06,6.481-0.096,12.956-0.155,19.431
				c-0.042,4.415,0.06,8.871-0.036,13.279c-0.03,1.338,0.012,2.581,0.036,3.913c0.018,0.998-0.03,2.007-0.024,3.01l0.018,0.598
				v0.227l0.012,0.179c0.054,1.057,1.344,1.66,2.174,1.021c0.394-0.299,0.538-0.627,0.585-1.004l0.018-0.125l0.006-0.137v-0.334
				l0.023-2.658c0.018-1.045,0.036-2.084,0.054-3.13c0.006-0.824,0.012-1.649,0.012-2.479c0.072,0.263,0.144,0.532,0.221,0.8
				c0.627,4.88,2.67,9.48,5.472,13.625c-0.269,0.215-0.526,0.43-0.795,0.651c-0.167,0.131-0.191,0.388-0.06,0.556
				c0.138,0.167,0.388,0.191,0.562,0.06c0.245-0.209,0.496-0.406,0.747-0.609c0.89,1.26,1.84,2.479,2.843,3.65
				c0.006,0.454,0.203,0.914,0.567,1.242c0.669,0.615,1.368,1.201,2.031,1.81c0.275,0.317,0.556,0.621,0.83,0.926
				c0.526,0.568,1.111,1.099,1.637,1.643c0.114,0.179,0.209,0.341,0.311,0.508c3.638,6.177,7.634,12.138,11.666,18.063
				c1.5,2.204,3.022,4.408,4.582,6.601c-0.096,0.006-0.173,0.006-0.245,0.006c-0.681-0.042-1.129-0.155-1.786-0.305
				c-0.293-0.072-0.591,0.108-0.657,0.4c-0.072,0.292,0.107,0.585,0.4,0.657c0.675,0.155,1.571,0.424,2.264,0.346
				c0.257-0.03,0.502-0.054,0.741-0.089c1.936,2.729,3.907,5.441,5.902,8.118c0.065,0.096,0.137,0.191,0.209,0.292
				c-0.269,0.215-0.466,0.382-0.466,0.395c-0.221,0.185-0.245,0.52-0.06,0.741c0.186,0.221,0.526,0.245,0.741,0.06
				c0.144-0.113,0.281-0.227,0.424-0.334c1.804,2.419,3.614,4.844,5.424,7.257c-0.185,0.209-0.227,0.526-0.072,0.777
				c0.179,0.263,0.532,0.364,0.812,0.227c1.816,2.413,3.62,4.838,5.424,7.257c0.173,0.227,0.346,0.46,0.52,0.693
				c-0.167,0.209-0.155,0.538,0.042,0.735h0.525c1.864,2.407,3.865,4.773,5.782,7.132c1.894,2.323,3.781,4.665,5.675,7
				c-0.424,0.543-0.884,1.177-1.159,1.714c-0.221,0.358-0.113,0.842,0.245,1.069c0.364,0.227,0.842,0.12,1.069-0.245
				c0.197-0.418,0.49-0.866,0.824-1.32c1.923,2.377,3.853,4.749,5.782,7.114c-0.209,0.233-0.215,0.597-0.018,0.848
				c0.196,0.251,0.562,0.311,0.836,0.149c0.167,0.203,0.328,0.406,0.502,0.609c3.942,4.802,7.783,9.73,11.6,14.641
				c1.523,1.959,3.022,3.966,4.517,5.955c0.734,0.979,1.434,2.013,2.191,2.969c0.789,1.075,2.318,1.302,3.394,0.514
				c0.358-0.269,0.627-0.621,0.788-1.003c0.586,0.484,1.194,0.956,1.822,1.41c0.263,0.186,0.591,0.448,0.866,0.598
				c2.461,1.374,4.916,2.138,7.669,2.658c0.425,0.072,0.866,0.144,1.32,0.203c0,0.012,0,0.018,0.006,0.03
				c0.162,0.884,1.021,1.464,1.906,1.302c0.531-0.143,1.123-0.203,1.672-0.316c1.494-0.329,3.106-0.472,4.63-0.687
				c0.102-0.018,0.209-0.036,0.311-0.048l0.006,0.018l0.125,0.752c1.075,1.912,3.854,2.115,6.326,1.917
				c0.567-0.03,0.997-0.532,0.962-1.099c-0.036-0.573-0.538-1.003-1.105-0.968c-1.129,0.09-2.39,0.156-3.429-0.263
				c-0.221-0.102-0.717-0.364-0.812-0.615c0.95-0.102,1.899-0.191,2.85-0.263c6.367,0.723,12.729,1.344,19.091,2.097
				c0.567,0.054,1.081-0.358,1.141-0.92c0.036-0.34-0.107-0.669-0.347-0.884c0.831,0.072,1.655,0.149,2.479,0.227
				c2.348,0.221,4.713,0.43,7.049,0.735c1.326,0.173,2.651,0.388,3.972,0.556c1.016,0.131,1.959-0.58,2.091-1.589
				c0.048-0.388-0.018-0.764-0.186-1.087c3.955,0.006,7.915,0.066,11.869,0.149c6.392,0.125,12.771,0.191,19.163,0.406
				c5.053,0.167,10.112,0.4,15.166,0.562c5.394,0.179,10.782,0.4,16.17,0.549c3.309,0.09,6.612,0.185,9.909,0.34
				c5.693,0.269,11.439,0.376,17.132,0.478c1.815,0.036,3.638,0.072,5.441,0.083c1.075,0.006,2.21-0.054,3.279,0.042
				c0.938,0,1.78-0.448,2.312-1.159c1.248-0.054,2.437-0.167,3.715-0.4c2.162-0.406,4.6-1.637,5.788-3.596
				c0.275,0.287,0.651,0.448,1.033,0.472c-0.012,0.191-0.023,0.376-0.029,0.567c-0.048,0.496,0.221,0.95,0.633,1.183
				c0.03,1.493,0.09,2.986,0.102,4.479c0,0.353,0.293,0.651,0.646,0.651c0.358,0,0.651-0.299,0.651-0.651
				c-0.019-1.565,0.023-3.124,0.041-4.689c0.203-0.197,0.341-0.454,0.364-0.752c0.036-0.723,0.162-1.505,0.197-2.252
				c0.657-0.502,1.278-1.051,1.78-1.774c1.66-2.425,1.911-4.952,1.983-7.628c0.508-0.406,0.848-1.021,0.866-1.721
				c0.071-1.511-0.024-3.118,0.029-4.647c0.072-1.899,0.084-3.883,0.066-5.782c-0.019-2.037,0.083-4.08,0.06-6.105
				c-0.054-4.211,0.06-8.452,0.077-12.664c0.096-17.394,0.066-34.782,0.06-52.171c0-5.848-0.227-11.708-0.215-17.567
				c0.006-3.751-0.071-7.509-0.096-11.254c-0.083-11.929-0.155-23.905-0.06-35.828c0.084-10.549,0.054-21.104,0.09-31.652
				c0.023-8.889,0.144-17.801,0.048-26.683c-0.042-3.728-0.167-7.46-0.251-11.182c-0.113-5.232-0.186-10.471-0.186-15.698
				c0.514-0.221,0.962-0.585,1.236-1.075c0.359-0.657,0.293-1.332,0.473-2.007c0.334-1.225,0.424-2.443,0.525-3.709
				c0.054-0.639,0.161-1.308,0.161-1.941c-0.006-0.944,0.107-1.906,0.132-2.85c0.035-1.362,0.06-2.748,0.054-4.109
				c-0.024-3.823-0.09-7.64,0.077-11.457c0.651,0.347,1.481,0.275,2.043-0.257c0.245-0.239,0.484-0.454,0.723-0.657
				c1.983-0.484,3.984-0.92,5.979-1.356c1.219-0.269,2.664-0.507,3.835-0.873c0.598-0.19,1.194-0.418,1.81-0.543
				c0.222-0.078,0.425-0.18,0.609-0.305c0.222,0.209,0.442,0.406,0.657,0.609c1.953,1.78,3.877,3.494,5.872,5.191
				c2.431,2.837,4.922,5.579,7.998,7.807c1.063,0.752,2.545,0.49,3.291-0.574c0.042-0.065,0.084-0.125,0.12-0.191
				c0.854,0.221,1.714,0.334,2.526,0.305c3.053-0.149,6.027-2.879,8.088-4.916c2.771-2.736,5.203-5.998,7.497-9.253
				c2.98-2.401,5.83-5.185,7.735-8.332c0.508-0.837,0.508-1.853,0.077-2.652c0-0.006,0-0.012,0-0.019
				c-0.179-0.794-0.657-1.23-1.069-1.87c-0.179-0.274-0.418-0.537-0.579-0.806c-0.155-0.274-0.221-0.521-0.442-0.771
				c-0.232-0.264-0.466-0.531-0.698-0.807c0.579-1.051,0.4-2.407-0.52-3.262c-0.812-0.711-1.602-1.457-2.401-2.191
				c0.125-0.287,0.251-0.568,0.376-0.837v-0.305h-0.305c-0.299,0.12-0.615,0.251-0.914,0.4c-0.37-0.316-0.734-0.615-1.111-0.901
				c-1.355-1.028-2.67-2.056-4.067-3.041c-0.048-0.036-0.09-0.06-0.132-0.096c-0.394-0.496-0.788-0.997-1.194-1.511
				c-0.609-0.783-1.559-1.147-2.479-0.95c-0.024-0.012-0.042-0.018-0.054-0.029c-0.442-0.693-0.837-1.404-1.159-2.145
				c0.418-0.92,0.818-1.876,1.141-2.79c0.155-0.203,0.275-0.43,0.358-0.675c0.245-0.83,0.496-1.648,0.723-2.485
				c0.12-0.089,0.233-0.179,0.358-0.269c0.634-0.472,1.386-0.968,2.062-1.386c0.286-0.191,0.364-0.585,0.173-0.872
				s-0.585-0.364-0.872-0.173c-0.389,0.244-0.771,0.483-1.146,0.734c0.221-0.711,0.436-1.428,0.645-2.145
				c0.149-0.52,0.358-1.058,0.484-1.583c0.119-0.466,0.232-0.991,0.406-1.505l0.041-0.418v-0.007
				c1.709-0.173,3.459-0.185,5.036-0.071c0.556,0.042,1.158-0.036,1.714-0.06c1.123-0.054,2.258-0.071,3.375-0.096
				c2.766-0.06,5.55-0.054,8.31-0.186c2.078-0.095,4.181-0.083,6.254-0.311c0.836-0.096,2.12-0.125,2.873-0.43
				c0.866-0.364,1.35-1.087,1.618-1.953c0.299-0.962,0.592-1.822,0.831-2.819c0.203-0.866,0.292-1.852,0.388-2.742
				c0.358-3.189,0.149-6.469,0.06-9.671c-0.054-1.899-0.155-3.931-0.304-5.824c-0.126-1.702-0.168-3.625-0.078-5.28
				c0.065-0.901,0.131-1.678,0.215-2.461c0.06-0.621,0.042-1.302,0.06-1.941c0.036-1.451,0.072-2.592-1.135-3.362l-0.406-0.245
				c-0.119-0.144-0.197-0.228-0.238-0.287c-0.508-0.717-1.368-1.702-2.181-2.078c-0.92-0.425-1.804-0.186-2.754-0.107
				c-0.938,0.071-1.882,0.065-2.813,0.065c-1.857-0.322-3.715-0.544-5.418-0.693c-3.368-0.316-6.911-0.478-10.292-0.502
				c-1.434-0.012-3.017-0.179-4.45-0.131c-0.418-1.081-0.818-2.187-1.236-3.256c-0.717-1.804-1.493-3.59-2.21-5.388
				c-0.311-0.782-0.663-1.535-1.051-2.282c-0.007-0.19-0.066-0.388-0.186-0.555c-0.065-0.096-0.144-0.174-0.239-0.245
				c-0.358-0.681-0.734-1.344-1.099-2.013c0.382-0.293,0.878-0.807,1.225-1.13c3.816-3.632,7.544-7.054,10.775-11.247
				c0.688-0.902,1.493-2.115,2.145-3.31c0.065-0.048,0.144-0.09,0.221-0.138c0.371-0.28,0.634-0.65,0.783-1.057
				c1.135,0.675,2.646,0.472,3.548-0.556c1.01-1.153,0.896-2.933-0.263-3.942c-1.188-0.83-2.449-2.229-3.471-3.279
				c-1.23-1.267-2.461-2.539-3.649-3.847c-1.213-1.332-2.479-2.599-3.722-3.895c-3.488-3.632-6.666-6.619-10.823-9.468
				c-2.025-1.386-4.689-2.497-7.133-2.736c-0.884-0.083-1.899-0.197-2.706,0.251c-0.794,0.437-1.881,1.894-2.634,2.587
				c-1.972,1.815-4.05,3.518-5.979,5.352c-2.521,2.384-5.185,4.814-7.496,7.473c-0.771-0.4-1.619-0.734-2.324-0.974
				c-0.495-0.179-0.979-0.341-1.523-0.502l-0.483-0.232c-0.418-0.209-0.836-0.412-1.267-0.592c-1.911-0.794-4.24-1.595-6.559-2.061
				c0.944-4.318,1.069-8.548,0.902-13.046c-0.06-1.84-0.161-3.739-0.358-5.567c-0.012-0.102-0.024-0.19-0.036-0.292
				c0.956-0.831,1.918-1.649,2.903-2.449c0.227-0.197,0.257-0.55,0.06-0.783c-0.197-0.232-0.55-0.263-0.782-0.065
				c-0.765,0.615-1.535,1.255-2.3,1.905c-0.072-0.901-0.138-1.81-0.251-2.699c-0.144-1.111-0.012-1.888-0.776-2.771
				c-0.979-1.123-2.76-1.219-4.116-1.464l-0.663-0.071l-0.221-0.09h-0.723l-5.346-0.377c-1.058-0.06-2.133-0.023-3.196-0.083
				c-1.47-0.084-3.005-0.019-4.479-0.019C579.02-367.654,576.499-367.559,573.99-367.403z M586.94-361.441
				c-4.026,3.918-7.705,8.351-11.158,12.765c-3.918,5.012-7.735,10.173-11.785,15.071c-2.192,2.651-4.427,5.143-6.708,7.711
				l0.125,0.113c1.721-1.935,3.471-3.811,5.149-5.781c0.639-0.759,1.344-1.518,1.941-2.294c0.669-0.866,1.422-1.685,2.097-2.545
				c1.278-1.643,2.61-3.262,3.924-4.88c3.668-4.528,7.312-9.109,11.141-13.488c0.615-0.705,1.261-1.386,1.876-2.085
				c1.332-1.517,2.789-3.022,4.295-4.462c1.183,0.161,2.365,0.353,3.53,0.573c0.549,0.066,1.081-0.185,1.386-0.615l-0.024-0.148
				l0.424,2.024c0.437,1.924,0.879,3.847,1.285,5.771c-1.476,1.428-2.957,2.867-4.337,4.372c-3.465,3.758-7.024,7.425-10.346,11.319
				c-3.148,3.704-6.206,7.473-9.318,11.206c-3.447,4.146-6.959,8.214-10.454,12.317c6.111-6.995,12.383-13.876,18.584-20.799
				c5.268-5.89,10.524-11.685,16.128-17.156c0.441,2.252,0.794,4.522,0.961,6.834c0.114,1.696,0.108,3.787-0.143,5.46l-0.013,0.179
				c-0.675,0.316-1.141,1.016-1.141,1.816c0,1.104,0.908,2.001,2.007,2.001c0.251-0.024,0.502-0.024,0.735-0.024
				c0.334,0.107,0.681,0.149,1.009,0.138h0.364c0.287,0.048,0.568,0.102,0.843,0.173l0.46,0.132l0.023,0.161
				c0.191,0.83,0.771,1.547,1.625,1.876c0.167,0.071,0.341,0.155,0.52,0.232c-1.093,0.884-2.191,1.936-3.076,2.808
				c-0.89,0.884-1.768,1.78-2.664,2.664c-0.711,0.693-1.403,1.547-2.049,2.312c-1.32,1.547-2.574,3.112-3.835,4.713
				c-3.429,4.36-6.672,9.056-9.688,13.709c-0.09,0.138-0.054,0.322,0.084,0.406c0.131,0.09,0.316,0.054,0.406-0.077
				c4.246-6.571,9.258-13.303,14.652-18.972c1.583-1.661,3.195-3.411,4.892-4.958c0.807-0.74,1.595-1.439,2.372-2.15
				c1.319,0.502,2.753,0.95,3.99,1.29c0.615,0.174,1.326,0.383,1.923,0.621c0.454,0.186,0.866,0.371,1.267,0.567l0.514,0.264
				c0.006,0.012,0.018,0.023,0.029,0.041c-0.292,0.293-0.585,0.58-0.878,0.872c-2.693,2.664-5.315,5.538-7.831,8.375
				c-2.766,3.118-5.561,6.248-8.171,9.498c-1.272,1.583-2.485,3.261-3.686,4.892c-1.01,1.362-2.049,2.729-3.011,4.122
				c-0.096,0.119-0.065,0.299,0.06,0.394c0.119,0.09,0.299,0.066,0.395-0.06c1.983-2.831,4.247-5.621,6.487-8.261
				c1.618-1.911,3.178-3.883,4.855-5.74c3.686-4.092,7.521-8.082,11.499-11.894c0.483-0.472,0.968-0.938,1.451-1.397
				c0.203,0.036,0.4,0.054,0.598,0.036c0.06,0.131,0.149,0.245,0.251,0.364c0.621,0.663,1.666,0.692,2.33,0.077
				c3.446-3.44,7.789-6.785,11.826-9.516c1.416-0.949,2.844-1.773,4.283-2.676c1.01-0.663,1.29-2.03,0.627-3.04
				c-0.102-0.155-0.221-0.299-0.352-0.412l0.376-0.293l0.818,0.55c0.341,0.251,0.681,0.514,1.039,0.782
				c1.094,0.812,2.175,1.715,3.231,2.58c1.058,0.866,2.181,1.69,3.214,2.593c0.532,0.472,1.063,0.938,1.595,1.404
				c-0.692,0.585-1.38,1.177-2.055,1.785c-1.493,1.326-3.004,2.623-4.45,4.009c-2.712,2.592-5.28,5.424-7.777,8.225
				c-7.114,7.957-13.738,16.397-20.106,24.957l0.138,0.107c4.791-6.493,10.06-12.885,15.549-18.792
				c2.354-2.539,4.755-5.125,7.258-7.515c1.989-1.899,3.96-3.745,6.009-5.591c1.261-1.129,2.473-2.312,3.758-3.417
				c0.997-0.866,2.007-1.714,3.028-2.557c1.888,1.702,3.691,3.435,5.453,5.382c0.084,0.102,0.191,0.186,0.293,0.264
				c-0.102,0.054-0.203,0.125-0.281,0.227c-1.678,1.941-3.237,3.96-4.88,5.932c-3.053,3.649-6.116,7.239-9.246,10.817
				c-2.516,2.873-5.155,5.723-7.784,8.488c-5.782,6.075-11.611,12.036-17.46,18.058c5.991-6.01,12.126-11.905,18.123-17.92
				c2.545-2.551,5.167-5.107,7.652-7.735c-0.18,0.501-0.096,1.081,0.274,1.511c0.263,0.299,0.502,0.604,0.729,0.92
				c-0.024,0.442,0.131,0.878,0.453,1.225c0.18,0.186,0.4,0.322,0.634,0.406c0.083,0.125,0.167,0.257,0.263,0.382
				c0.06,0.09,0.119,0.18,0.185,0.27c-0.041,0.137-0.065,0.269-0.077,0.406c-0.233,0.029-0.46,0.113-0.663,0.269
				c-0.627,0.454-0.771,1.35-0.311,1.977c0.514,0.711,1.01,1.416,1.493,2.127l0.586,0.89c-0.693,0.521-1.38,1.063-2.043,1.631
				c-5.74,4.856-10.627,10.352-15.776,15.806c-2.019,2.133-3.96,4.354-5.949,6.517c-1.863,2.031-3.757,4.015-5.662,5.997
				c-0.03-0.316-0.066-0.627-0.102-0.938c0.077-0.322,0.012-0.687-0.203-0.968c-0.007-0.006-0.013-0.012-0.019-0.012
				c-0.388-2.652-1.332-5.244-2.616-7.688c-0.054-0.126-0.119-0.239-0.197-0.335c-0.006-0.006-0.012-0.012-0.018-0.012
				c-0.646-1.242-1.397-2.438-2.21-3.578l-1.135-1.434l-1.027-2.097c-0.156-0.274-0.311-0.537-0.467-0.8
				c0.149-0.162,0.299-0.317,0.454-0.473c0.395-0.37,0.419-0.997,0.048-1.392c-0.364-0.395-0.991-0.418-1.386-0.048
				c-0.083,0.054-0.155,0.12-0.232,0.18c-1.38-1.989-3.011-3.793-4.856-5.334c6.773-8.99,14.192-17.419,21.922-25.603
				c3.106-3.285,6.29-6.606,9.539-9.76c2.892-2.813,5.586-5.854,8.494-8.668c0.347-0.353,0.335-0.938-0.018-1.284
				c-0.358-0.347-0.938-0.334-1.284,0.019c-11.995,12.09-22.962,25.016-33.63,38.276c-1.798,2.234-3.513,4.552-5.257,6.828
				c-1.505-1.225-3.16-2.276-4.939-3.101c-1.941-0.901-4.193-1.643-6.32-1.905c-0.328-0.042-0.645-0.084-0.974-0.113
				c0.042-0.287-0.048-0.604-0.269-0.824h-1.356c-0.232,0.227-0.459,0.46-0.687,0.692c-2.443-0.048-4.952,0.174-7.252,0.705
				c-4.641,1.075-8.213,2.688-12.048,5.52c-3.889,2.879-7.186,7.019-9.259,11.379c-1.481,3.124-2.503,6.409-2.855,9.862
				c-0.263,2.562-0.227,5.018,0.155,7.574c0.09,0.591,0.239,1.183,0.353,1.773c0.383,2.049,1.362,4.576,2.324,6.434
				c0.286,0.562,0.633,1.1,0.926,1.66c0.651,1.207,2.03,3.047,2.963,4.062c0.806,0.86,1.63,1.66,2.538,2.413
				c2.115,1.744,4.684,3.017,7.438,3.871l1.595,0.406l1.612,1.2c3.124,2.049,6.815,3.07,10.704,2.384
				c2.055-0.365,3.847-1.434,5.531-2.623c0.007-0.012,0.019-0.018,0.048-0.048c0.168,0.013,0.287-0.077,0.395-0.196
				c0.065-0.096,0.138-0.197,0.203-0.275c0.179-0.161,0.353-0.305,0.537-0.424c0.174-0.096,0.258-0.305,0.197-0.49
				c0.09-0.096,0.168-0.197,0.257-0.299l4.402-1.505c1.309-0.502,2.646-1.129,3.925-1.822c-0.651,0.663-1.32,1.32-2.001,1.972
				c-0.502,0.483-0.52,1.29-0.036,1.786c0.484,0.502,1.29,0.52,1.792,0.036c0.723-0.724,1.487-1.404,2.21-2.127
				c1.953-1.93,3.817-3.912,5.663-5.949c0.997-1.1,2.007-2.169,2.944-3.315c2.043-2.479,3.608-5.096,5.412-7.712
				c-0.537-0.179-1.069,0.49-1.463,0.747c-0.442,0.293-0.914,0.657-1.38,1.052c0.018-0.042,0.042-0.096,0.06-0.144
				c0.46-1.332,0.717-2.725,0.848-4.116c0.072-0.8,0.09-1.589,0.066-2.383c2.228-2.288,4.462-4.563,6.678-6.876
				c3.775-3.96,7.557-7.885,11.493-11.695c3.195-3.088,6.48-6.069,9.987-8.799c0.752-0.598,1.505-1.194,2.252-1.786l0.006,0.012
				l0.334,0.711c0.95,2.121,1.816,4.277,2.599,6.476c0.209,0.585,0.412,1.177,0.621,1.78c-0.358,0.34-0.585,0.83-0.585,1.367
				c0,0.149,0.018,0.299,0.054,0.442c-10.441,9.002-20.399,18.392-29.628,28.666l0.233,0.209
				c6.785-7.616,14.24-14.426,21.993-21.021c2.677-2.281,5.448-4.552,8.262-6.702c0.257,0.149,0.543,0.239,0.866,0.257
				c0.006,0.013,0.012,0.024,0.023,0.042c0.567,1.153,0.776,2.234,2.145,2.742c0.687,0.257,1.445,0.107,2.049-0.293
				c0.567-0.376,1.021-1.093,1.027-1.792c0-0.042-0.006-0.084-0.006-0.113c3.662,0.173,7.294,0.609,10.961,0.89
				c3.076,0.233,6.225,0.383,9.36,0.329c0.83,0.238,1.673,0.489,2.509,0.771l-0.006,0.035l-0.126,1.404
				c-0.185,0.358-0.298,0.759-0.316,1.188c-0.107,1.219-0.125,2.473-0.107,3.722c-0.113,1.152-0.238,2.323-0.353,3.488
				c-8.1,5.441-15.871,11.469-23.296,17.759c-0.131-0.024-0.257-0.054-0.388-0.072c-0.299-0.376-0.741-0.645-1.171-0.692
				c-0.442-0.054-0.807,0.012-1.111,0.161c-0.729-0.191-1.457-0.4-2.181-0.633c-0.244-0.078-0.514,0.065-0.591,0.316
				c-0.072,0.245,0.065,0.514,0.316,0.591c0.55,0.156,1.1,0.317,1.654,0.473c-0.43,0.65-0.656,1.535-0.859,2.312
				c-0.412,0.102-0.818,0.221-1.213,0.364c-1.105,0.299-1.75,1.457-1.445,2.562c0.215,0.795,0.878,1.35,1.648,1.487
				c-0.316,0.902-0.586,1.816-0.884,2.771c-0.305,0.932-0.586,1.87-0.885,2.796l-0.8,2.419l-0.126,0.311l-0.615,1.422
				c-0.604,0.489-1.2,1.004-1.792,1.518c-0.711-0.048-1.422,0.286-1.81,0.932c-0.191,0.292-0.281,0.627-0.287,0.949
				c-2.503,2.318-4.897,4.773-7.21,7.329c-2.789,3.07-5.561,6.088-8.189,9.301c-0.119,0.138-0.107,0.347,0.03,0.46
				c0.132,0.12,0.341,0.108,0.46-0.03c1.38-1.624,2.891-3.219,4.343-4.79c3.166-3.435,6.218-6.648,9.665-9.809
				c0.436-0.399,0.872-0.806,1.313-1.212c0.138,0.185,0.311,0.346,0.521,0.472c0.298,0.167,0.573,0.37,0.836,0.573
				c0.155,0.514,0.483,0.974,0.974,1.278c0.083,0.054,0.185,0.107,0.286,0.084c-0.006,0.209,0.132,0.299,0.287,0.358
				c0.347,0.137,0.711,0.155,1.052,0.065c0.878,0.598,1.744,1.236,2.592,1.899c0.03,0.036,0.054,0.072,0.078,0.107
				c0.018,0.019,0.042,0.048,0.06,0.072c-1.314,1.254-2.593,2.562-3.859,3.811c-2.927,2.873-5.781,5.836-8.655,8.77
				c-0.161,0.16-0.161,0.418,0,0.572h0.567c1.393-1.439,2.855-2.824,4.289-4.234c2.33-2.312,4.63-4.642,6.983-6.93
				c0.418-0.412,0.842-0.818,1.278-1.219c0.771,0.98,1.547,1.941,2.377,2.867l1.23,1.333l1.32,1.804
				c-3.369,3.53-6.744,7.078-9.402,11.2c-0.305,0.437-0.203,1.045,0.228,1.344c0.436,0.305,1.051,0.209,1.35-0.228
				c2.342-3.404,4.916-6.48,7.789-9.443c0.406-0.43,0.818-0.859,1.23-1.29c0.968,1.242,1.947,2.442,2.981,3.584
				c0.041,0.089,0.089,0.185,0.137,0.274c-0.131,0.119-0.251,0.227-0.334,0.328l-0.03,0.354l0.358,0.029
				c0.065-0.084,0.149-0.149,0.221-0.227c0.084,0.191,0.168,0.382,0.245,0.573c-0.144,0.144-0.269,0.292-0.376,0.472
				c-0.335,0.43-0.609,0.968-0.902,1.445c-0.065,0.061-0.131,0.113-0.191,0.168c-1.689,1.619-3.314,3.387-4.939,5.071
				c-1.673,1.737-3.387,3.53-5.119,5.214c-0.717,0.693-1.47,1.362-2.174,2.067c-0.724,0.723-1.554,1.428-2.336,2.103
				c-0.836,0.723-1.709,1.481-2.587,2.187c-0.006-0.006-0.012-0.012-0.018-0.012c-0.358-0.221-0.794-0.442-1.123-0.681
				c-0.263-0.191-0.508-0.406-0.776-0.591c-0.956-0.627-2.103-1.846-2.897-2.658c-1.977-2.025-3.895-4.164-6.074-5.979
				c-0.825-0.681-1.685-1.2-2.581-1.769c-0.567-0.357-2.461-1.2-3.088-1.236c-0.55-0.029-1.081-0.035-1.625-0.148
				c-0.729-0.145-1.428,0.28-1.601,0.997c-0.012-0.007-0.03-0.013-0.042-0.013c-0.06-0.316-0.18-0.615-0.376-0.89
				c-0.723-1.027-2.15-1.272-3.178-0.544c-0.705,0.544-1.362,1.1-2.103,1.607c-0.891,0.604-1.805,1.146-2.706,1.696
				c-0.066,0.03-0.144,0.06-0.216,0.084c-3.034,1.177-6.35,1.72-9.39,2.819c-0.538,0.155-0.938,0.543-1.039,1.057
				c-0.006-0.006-0.006-0.012-0.006-0.018c-0.12-0.472-0.604-0.746-1.075-0.633c-0.473,0.119-0.747,0.604-0.634,1.075
				c0.078,0.418,0.197,0.83,0.269,1.254c0.019,0.125,0.036,0.245,0.048,0.364c-0.102,0.036-0.209,0.072-0.304,0.107
				c-0.699,0.245-1.063,1.016-0.818,1.714c0.167,0.478,0.597,0.812,1.093,0.86c-0.06,2.371-0.389,4.641-0.872,7
				c-0.233,1.141-0.466,2.282-0.723,3.417c-0.149,0.663-0.358,1.421-0.406,2.09c-0.174,2.414-0.245,4.809-0.293,7.216
				c-1.457,0.155-2.897,0.364-4.343,0.604c-0.489,0.024-0.962,0.048-1.428,0.078c-1.481,0.072-2.975,0.06-4.456,0.173
				c-3.423,0.269-6.982,0.364-10.417,0.424c-1.786,0.03-3.59-0.012-5.382-0.042c-0.717-0.018-1.506,0.03-2.211-0.107
				c0.174-0.472,0.222-0.991,0.114-1.505c-0.676-1.948-1.38-3.889-1.822-5.902c-0.92-4.211-1.38-8.542-1.505-12.867
				c0.514,0.114,1.027,0.221,1.547,0.353c1.457,0.173,2.795-0.872,2.969-2.33c0.173-1.458-0.872-2.79-2.33-2.969
				c-0.603-0.03-1.177-0.054-1.756-0.095c-0.191-0.371-0.478-0.693-0.83-0.92c0.006-0.442,0.029-0.885,0.113-1.303
				c0.125-0.801-0.418-1.564-1.219-1.696c-0.8-0.126-1.57,0.418-1.696,1.225c-0.071,0.382-0.179,0.741-0.299,1.087
				c-1.648-0.299-3.261-0.752-4.851-1.38c-2.019-0.8-4.169-1.833-6.355-2.706c0.12-0.842-0.161-1.727-0.83-2.342
				c-1.081-1.003-2.783-0.943-3.793,0.145c-0.203,0.197-0.4,0.412-0.598,0.621c-0.274-0.042-0.555-0.078-0.83-0.107
				c-0.717-0.12-1.409,0.376-1.529,1.099c-0.071,0.442,0.09,0.872,0.395,1.171c-0.52,0.52-1.087,1.045-1.595,1.535
				c-1.464,1.403-3.028,2.641-4.534,3.99c-0.4,0.358-0.776,0.8-1.152,1.183c-0.896,0.92-1.763,1.852-2.641,2.79
				c-0.836,0.872-1.679,1.78-2.509,2.706c-0.663,0.43-1.344,0.842-2.037,1.219c-0.018-0.908-0.597-1.762-1.505-2.073
				c-2.282-0.961-3.961-2.312-5.932-3.847c-1.069-0.831-2.156-1.75-3.154-2.676c-1.409-1.314-2.849-2.67-4.223-4.056
				c-1.84-2.049-3.59-4.14-5.328-6.261c-0.209-0.298-0.412-0.597-0.609-0.913c0.514-0.281,1.117-1.069,1.523-1.493
				c1.021-1.063,2.156-2.067,3.213-3.101c0.771-0.747,1.596-1.464,2.39-2.181c1.983-1.815,3.907-3.625,5.759-5.572
				c0.399-0.425,0.878-0.879,1.248-1.314c0.95-1.129,1.894-2.282,2.718-3.513c0.203-0.311,0.395-0.627,0.586-0.943
				c0.507,0.173,1.081,0.149,1.606-0.09c1.093-0.514,1.564-1.821,1.051-2.909c-0.346-0.615-0.627-1.284-0.932-1.923
				c-0.579-1.201-1.26-2.359-1.846-3.555c-1.308-2.712-2.676-5.453-3.816-8.267c0.573-0.479,0.955-1.183,1.016-1.978
				c0.089-1.499-0.998-2.796-2.491-2.921c-0.472-0.884-0.699-1.834-0.872-2.796c-0.186-0.794-0.992-1.296-1.786-1.104
				c-0.795,0.185-1.296,0.985-1.111,1.78c0.167,0.681,0.329,1.386,0.49,2.09c-0.065,0-0.12,0-0.18,0.007l-0.023-0.054
				c-0.228-0.454-0.795-0.646-1.255-0.419c-0.215,0.107-0.364,0.281-0.454,0.49c-1.152,0.006-2.419,0.131-3.565,0.232
				c-2.108,0.174-4.205,0.341-6.314,0.526c-1.218,0.102-2.521,0.221-3.864,0.316c-2.777-0.048-5.573-0.144-8.339-0.274l-0.09-0.055
				c-0.436-0.441-0.692-1.236-0.866-1.804c-0.627-2.001-0.974-4.044-1.141-6.135c-0.418-5.083-0.341-9.993,0.155-15.07
				c0.149-1.523,0.341-3.572,0.801-5.269l0.054-0.144l1.773-0.274c3.124-0.556,6.362-1.356,9.438-2.145
				c0.489-0.132,0.991-0.322,1.476-0.472c1.087-0.341,2.204-0.615,3.285-0.95c3.094-0.968,6.338-1.529,9.575-1.523v0.245
				c-0.024,0.281-0.048,0.586-0.036,0.688l0.126,0.311c0.096,0.269,0.232,0.502,0.406,0.711c0.006,0.041,0.006,0.089,0.012,0.137
				l0.029,0.132c0.066,0.257,0.209,0.406,0.514,0.293c0.024-0.019,0.048-0.036,0.072-0.066c0.334,0.168,0.717,0.251,1.146,0.228
				c0.776-0.048,1.493-0.58,1.786-1.303l0.144-0.292l0.018-0.12c0.042-0.263,0.12-0.549,0.406-0.65
				c0.138-0.544,0.251-1.1,0.37-1.649l0.096-0.412l0.586-1.953l1.517-4.343c0.609-1.685,1.23-3.362,1.882-5.161l0.132-0.424
				c0.131-0.531,0.137-1.063-0.072-1.612l-0.238-0.335l0.113-0.232c0.119-0.18,0.232-0.358,0.358-0.514
				c0.065-0.12,0.119-0.245,0.161-0.383c0.084-0.107,0.173-0.232,0.251-0.334c0.448-0.693,0.675-1.452,0.974-2.217
				c0.562-0.567,0.556-1.505-0.012-2.066s-1.506-0.556-2.067,0.012c-0.19,0.054-0.394,0.126-0.591,0.209
				c0.09-0.071,0.185-0.149,0.274-0.245c0.747-0.8,0.699-2.055-0.102-2.801c-4.479-4.116-9.558-8.877-15.07-12.132
				c-0.006-0.048-0.013-0.096-0.013-0.138c-0.018-0.221,0.055-0.633,0.024-0.807c-0.03-0.179,0.084-0.46,0.125-0.645
				c0.061-0.066,0.126-0.132,0.197-0.197c3.022-3.124,5.991-5.908,9.312-8.745c0.914-0.795,1.744-1.673,2.587-2.455
				c0.884-0.646,1.726-1.254,2.562-1.857c0.299-0.191,0.65-0.479,1.021-0.824c0.006-0.007,0.012-0.013,0.023-0.013
				c0.293-0.209,0.634-0.37,0.932-0.573c1.404-0.974,3.202-2.18,4.856-2.646c0.418-0.167,0.621-0.645,0.46-1.062
				c-0.167-0.418-0.645-0.621-1.062-0.46c-0.49,0.173-0.938,0.4-1.351,0.65c0.006-0.006,0.012-0.018,0.024-0.023
				c0.102-0.138,0.997-1.111,1.522-1.606l0.502,0.286c0.723,0.437,1.422,0.95,2.103,1.481c-1.917,2.187-3.739,4.396-5.806,6.457
				c-0.782,0.789-1.757,1.362-2.67,1.978l0.209,0.322c0.454-0.305,1.081-0.621,1.481-0.949c0.364-0.299,0.765-0.55,1.135-0.837
				c0.932-0.717,1.959-1.637,2.813-2.449c0.943-0.901,1.936-1.785,2.921-2.64c0.311-0.274,0.705-0.633,1.087-0.944
				c3.298,2.688,6.487,5.759,9.516,8.758c0.979,0.967,1.899,1.977,2.85,2.95c0.263,0.269,0.859,0.891,1.003,1.207
				c0.102,0.221,0.473,0.537,0.663,0.681c0.681,0.502,1.303,0.567,1.936,0.437c0.102,0.137,0.245,0.25,0.4,0.322
				c-1.261,1.476-2.551,2.909-3.871,4.349c-2.12,2.312-4.629,4.504-6.965,6.618l-0.018,0.376l0.37,0.024
				c0.818-0.782,1.75-1.47,2.593-2.234c1.361-1.23,2.682-2.532,4.014-3.799c1.493-1.409,2.963-2.915,4.414-4.372
				c0.573-0.58,1.129-1.201,1.703-1.792c1.158-0.622,2.371-1.183,3.536-1.721c0.28-0.144,0.573-0.269,0.866-0.4
				c0.579,0.036,1.177-0.137,1.666-0.525c0.06-0.084,0.186-0.186,0.311-0.287c3.095-1.164,6.493-2.03,9.629-2.12
				c0.998-0.119,1.709-1.045,1.589-2.043c-0.119-0.997-1.045-1.714-2.043-1.589c-0.137,0.03-0.269,0.054-0.394,0.084
				c0.029-1.38,0.089-2.76,0.102-4.14c0.006-2.163,0.006-4.325-0.013-6.487c0.777-0.734,1.554-1.464,2.324-2.21
				c1.284-1.242,2.521-2.557,3.799-3.817c1.571-1.547,3.16-3.07,4.73-4.623c0.305-0.305,0.622-0.615,0.944-0.914
				C579.904-362.099,583.464-361.884,586.94-361.441z M572.515-359.5c-2.688,2.664-5.31,5.376-7.933,8.094
				c-0.035-3.321-0.107-6.654-0.257-9.97c0.066-0.102,0.09-0.107,0.06-0.023c0.126,0.071,0.275,0.095,0.437,0.083
				c1.852-0.274,3.751-0.4,5.615-0.549c1.553-0.12,3.13-0.197,4.713-0.222C574.259-361.238,573.387-360.372,572.515-359.5z
				 M592.4-340.744c-1.434,1.822-2.844,3.649-4.295,5.454c-1.47,1.821-3.005,3.59-4.433,5.436c-2.395,3.076-4.778,6.194-7.191,9.259
				c-2.336,2.963-4.731,6.206-6.804,9.354c-0.113,0.168-0.078,0.406,0.096,0.526c0.167,0.113,0.406,0.071,0.52-0.096
				c4.444-6.487,9.474-12.103,14.635-18.01c2.049-2.348,3.996-4.809,5.967-7.222c0.98-1.188,1.858-2.455,2.855-3.644
				c0.287-0.37,0.228-0.908-0.149-1.201C593.23-341.18,592.693-341.114,592.4-340.744z M531.257-335.296
				c-0.508,0.525-0.949,1.116-1.463,1.643c-1.207,1.23-2.324,2.515-3.519,3.751l0.287,0.287c1.225-1.255,2.586-2.401,3.847-3.626
				c0.489-0.479,1.045-0.891,1.535-1.368c1.045-1.01,2.055-2.055,3.105-3.07c0.191-0.191,0.191-0.52,0-0.711h-0.704
				C533.318-337.357,532.272-336.336,531.257-335.296z M651.632-329.191c0.203,0.238,0.412,0.489,0.627,0.734
				c-0.006,0.012-0.006,0.024-0.006,0.042c-0.084,1.267-0.573,2.574-1.194,3.835c-0.263,0.149-0.508,0.347-0.717,0.591
				c-0.872,0.98-1.709,1.983-2.551,2.993c-0.364,0.311-0.734,0.627-1.1,0.932c-2.962,2.461-6.009,5.042-8.798,7.754
				c-0.114-0.138-0.233-0.275-0.329-0.406c-0.441-0.52-1.171-0.669-1.762-0.406l0.018-0.012c3.005-3.214,6.027-6.392,9.002-9.636
				c1.786-1.941,3.417-3.984,5.143-5.973c0.245-0.293,0.27-0.699,0.096-1.016c0.299-0.006,0.604-0.078,0.878-0.215
				C651.178-329.717,651.404-329.454,651.632-329.191z M581.833-296.452c-3.416,2.976-6.702,6.309-9.742,9.659
				c-0.585,0.633-1.153,1.267-1.727,1.899h-1.63c-2.145,1.918-4.313,3.942-6.404,5.92c-0.597,0.567-1.2,1.129-1.804,1.69
				c0.149-1.153,0.347-2.294,0.609-3.405c0.788-0.83,1.577-1.654,2.384-2.473c4.044-4.134,8.201-8.172,12.376-12.191
				c0.765,0.102,1.5,0.251,2.187,0.442c0.478,0.095,0.95-0.21,1.045-0.688c0.049-0.239-0.006-0.478-0.125-0.669l-0.502-0.335
				l1.249-0.035C580.441-296.619,581.141-296.554,581.833-296.452z M590.955-293.071c-1.476,1.374-2.957,2.736-4.415,4.128
				c-1.38,1.32-2.735,2.67-4.109,4.002c-1.362,1.32-2.789,2.664-4.08,4.057c-2.568,2.766-5.083,5.555-7.609,8.428
				c-0.998,1.004-2.055,2.025-3.148,3.034c-2.061,1.894-4.312,3.907-6.188,6.153c-0.346-1.398-0.621-2.844-0.818-4.319
				c1.428-1.535,2.813-3.124,4.307-4.581c2.229-2.187,4.361-4.109,6.816-6.045c0.555-0.473,0.621-1.309,0.155-1.864
				c-0.473-0.549-1.309-0.621-1.864-0.149c-3.584,3.118-6.57,6.445-9.671,9.97c-0.023-0.388-0.042-0.776-0.048-1.171
				c0.508-0.597,1.021-1.2,1.529-1.798c2.007-2.383,4.08-4.809,6.213-7.072c0.89-0.943,1.75-1.924,2.634-2.867
				c1.111-1.171,2.276-2.317,3.405-3.471c1.045-1.075,2.216-2.264,3.351-3.237c1.23-1.058,2.438-2.192,3.668-3.268
				c1.075-0.938,2.186-1.863,3.327-2.766C586.654-295.281,588.87-294.302,590.955-293.071z M567.336-288.788
				c-0.048-0.102-0.107-0.185-0.191-0.263c-0.37-0.353-0.967-0.335-1.326,0.036c-0.907,0.878-1.798,1.852-2.699,2.766
				c0.752-1.512,1.564-2.688,2.616-4.056c1.159-1.529,2.741-2.652,4.289-3.758c0.746-0.531,1.702-0.985,2.699-1.361l0.12-0.036
				l0.979-0.019C571.667-293.244,569.492-291.028,567.336-288.788z M563.131-292.485l-1.648,2.174
				c-1.864,2.867-3.112,6.105-3.854,9.486c-0.919,0.961-1.821,1.947-2.676,2.963c0.747-5.138,3.578-11.332,7.796-14.391
				L563.131-292.485z M596.719-288.8c-0.543,0.466-1.069,0.926-1.595,1.409c-1.648,1.506-3.202,3.106-4.791,4.672
				c-1.798,1.768-3.596,3.53-5.388,5.31c-2.545,2.516-5.071,5.054-7.568,7.628c-0.441-0.131-0.943-0.06-1.332,0.239
				c-1.171,0.979-2.341,1.918-3.488,2.933c-3.195,2.802-6.308,6.153-8.87,9.701c-0.615-1.303-1.135-2.622-1.547-3.877
				c-0.013-0.023-0.019-0.048-0.024-0.071c0.52-0.627,1.063-1.213,1.487-1.685c2.114-2.39,4.678-4.331,7.126-6.367
				c1.243-1.028,2.497-2.145,3.758-3.143c0.591-0.55,0.621-1.499,0.065-2.091c-0.029-0.035-0.06-0.06-0.096-0.083
				c0.933-0.902,1.864-1.792,2.802-2.664c1.069-1.004,2.198-1.995,3.214-3.035c2.484-2.521,5.06-4.97,7.616-7.412
				c1.576-1.512,3.111-3.064,4.671-4.594C594.168-290.975,595.494-289.917,596.719-288.8z M390.4-291.213
				c6.541,0.065,13.076,0.054,19.617,0.131c2.855,0.03,5.704,0.066,8.565,0.107c-4.886,0.048-9.767,0.102-14.646,0.144
				c-11.236,0.107-22.478,0.09-33.719,0.113c-5.717,0.013-11.433,0.12-17.144,0.102c-4.402-0.012-8.799-0.048-13.201-0.06
				c-0.024-0.065-0.054-0.125-0.083-0.173c3.172-0.173,6.361-0.287,9.503-0.364c9.892-0.245,19.718-0.316,29.616-0.197
				C382.742-291.362,386.577-291.249,390.4-291.213z M333.827-290.454c0.639-0.061,1.296-0.108,1.941-0.149
				c0.25-0.061,0.496-0.03,0.227,0.054c-0.478,0.131-0.801,0.562-0.801,1.087c-0.006,0.681,0.538,1.242,1.219,1.248
				c4.856,0.144,9.701,0.216,14.551,0.341c5.549,0.155,11.099,0.316,16.648,0.395c6.23,0.083,12.454,0.06,18.69,0.083
				c13.816,0.048,27.651-0.035,41.461-0.167c18.26-0.179,36.509-0.334,54.763-0.436c-0.406,0.859-0.717,2.15-0.943,3.374
				c-0.316,0.771-0.556,1.506-0.556,1.954c-0.006,0.292-0.138,0.752-0.155,1.093c-0.054,1.039-0.096,1.995-0.084,3.047
				c0,0.083,0,0.161,0,0.244c-0.28,3.22-0.394,6.416-0.364,9.719c0.012,1.063,0.03,2.312,0.144,3.363
				c0.335,3.249,0.525,6.212,1.661,9.307c0.399,1.093,1.296,2.854,2.168,3.625c0.508,0.442,1.177,1.034,1.828,1.261
				c0.89,0.311,1.589,0.358,2.538,0.437c1.529,0.119,2.915,0.113,4.438,0.149c1.69,0.041,3.632-0.096,5.311-0.251
				c2.688-0.251,5.399-0.406,8.094-0.634c0.346-0.035,0.711-0.065,1.075-0.096c1.158,0.084,2.306,0.144,3.458,0.197
				c0.03,0.084,0.066,0.161,0.107,0.233c0.096,0.185,0.216,0.878,0.305,1.146c0.335,1.01,0.688,1.983,1.105,2.963
				c0.627,1.464,1.302,2.927,1.959,4.385c0.347,0.765,0.771,1.606,1.04,2.401c0.185,0.454,0.537,0.8,0.955,0.997l0.06-0.042
				l-0.25,0.168l-0.281,0.263l-0.395,0.346c-0.472,0.365-0.938,0.771-1.386,1.153c-0.782,0.675-1.78,1.392-2.622,2.025
				c-0.89,0.663-1.786,1.313-2.676,1.971c-2.455,1.81-5.006,3.597-7.222,5.692c-0.634,0.598-1.428,1.338-1.941,2.025
				c-0.675,0.908-1.918,2.622-2.127,3.709c-0.125,0.657-0.179,0.956-0.179,1.667c0,2.114,2.544,5.997,3.822,7.651
				c0.203,0.258,0.412,0.525,0.615,0.777c2.204,4.498,5.125,8.721,8.482,12.257c1.183,1.249,2.568,2.396,3.931,3.447
				c1.445,1.123,3.375,2.031,5.048,2.777c0.662,0.299,1.397,0.484,2.066,0.777c0.436,0.149,0.896,0.149,1.308,0.023
				c0.364,0.424,0.902,0.646,1.416,0.633c1.039,0.358,2.216-0.054,2.79-1.021c0.167-0.287,0.269-0.603,0.305-0.914
				c3.255-2.509,6.63-4.946,9.748-7.64c1.099-0.759,2.18-1.529,3.201-2.33c0.885-0.705,1.715-1.571,2.527-2.354
				c0.424-0.412,0.472-1.021,0.43-1.643c0.012-0.012,0.024-0.029,0.036-0.042c1.146,0.376,2.258,0.807,3.381,1.32
				c0.502,0.221,1.004,0.46,1.499,0.698c2.001,1.494,3.931,3.065,6.117,4.355c0.609,0.215,1.26,0.162,1.804-0.102
				c-0.138,2.294-0.149,4.647-0.096,7.025c-0.023,0.466-0.048,0.956-0.065,1.458c-0.09,2.258-0.084,4.82,0.191,7.066
				c0.089,0.723,0.179,1.416,0.399,2.103c0.007,0.036,0.007,0.078,0.013,0.12c0,0.018,0,0.036,0.023,0.042
				c0.149,0.986,0.203,1.177,0.269,1.374c0.275,0.896,0.724,2.174,1.297,2.933c0.19,0.257,0.37,0.478,0.52,0.562
				c0.006,0.036,0.018,0.054,0.029,0.071c0.962,1.619,2.426,3.046,4.104,3.918c0.585,0.299,1.373,0.49,2.013,0.651
				c3.578,0.896,7.306,0.789,10.967,0.591c1.792-0.102,3.674-0.287,5.442-0.55c2.066-0.316,4.121-0.687,6.182-1.009
				c1.393-0.215,2.766-0.43,4.151-0.615c0.18-0.03,0.371-0.054,0.562-0.078c-0.173,12.293-0.215,24.592-0.292,36.897
				c-0.09,13.296-0.161,26.593-0.191,39.89c-0.078,35.983-0.341,71.973-0.161,107.95c0.06,13.207,0.305,26.408,0.502,39.609
				c-0.048-0.006-0.09-0.018-0.138-0.018c-0.771-0.072-1.464,0.484-1.541,1.254c-0.358,2.604-0.006,5.394,0.418,8.094l0.023-0.036
				l-1.11,2.013l-0.442-0.03c-1.267,0.155-2.162,1.326-2.007,2.593l0.107,0.412l-0.789,0.771c-0.399,0.358-0.817,0.705-1.248,1.021
				c-0.711,0.525-1.577,1.2-2.371,1.577c-0.962,0.448-1.899,0.818-2.844,1.087c-0.382-0.179-0.8-0.281-1.248-0.281
				c-1.303,0.06-2.622,0.006-3.931,0.012c-3.172,0.018-6.35-0.072-9.521-0.113c-1.261-0.018-2.521-0.036-3.775-0.054
				c3.148-0.459,6.272-1.021,9.331-1.678c2.795-0.615,5.388-1.469,8.117-2.264c0.431-0.125,0.675-0.585,0.55-1.016
				c-0.126-0.43-0.585-0.681-1.016-0.549c-0.866,0.173-1.774,0.466-2.64,0.675c-0.849,0.203-1.703,0.364-2.545,0.573
				c-1.864,0.454-3.955,0.789-5.854,1.087c-2.204,0.34-4.402,0.729-6.624,1.033c-5.692,0.765-11.421,1.332-17.149,1.762
				c-0.239-0.006-0.472-0.012-0.699-0.012c-5.603-0.113-11.206-0.292-16.82-0.412c-5.681-0.113-11.355-0.155-17.036-0.227
				c-5.412-0.065-10.83-0.173-16.241-0.203c-3.692-0.018-7.384,0.03-11.069,0.06c-3.034,0.024-6.116-0.006-9.145,0.107
				c-5.956,0.215-11.911,0.543-17.849,0.998c-0.311-0.024-0.615-0.048-0.926-0.065c0.221-0.186,0.442-0.365,0.669-0.544
				c0.347-0.287,0.395-0.806,0.107-1.159c-0.28-0.346-0.807-0.394-1.152-0.107c-0.663,0.538-1.332,1.087-1.989,1.63
				c-0.215-0.018-0.431-0.036-0.64-0.047c-2.49-0.191-4.97-0.514-7.454-0.723c-0.64-0.054-1.261-0.173-1.894-0.251
				c-1.243-0.161-2.455-0.316-3.68-0.514c1.469-2.103,3.506-4.056,5.364-5.746c0.274-0.281,0.28-0.741,0.006-1.021
				c-0.281-0.275-0.741-0.281-1.021-0.006c-0.824,0.794-1.607,1.625-2.419,2.431c-0.544,0.538-1.094,1.075-1.583,1.661
				c-0.622,0.747-1.386,1.553-1.906,2.419c-3.613-0.651-7.4-1.511-11.021-2.795c0.227-0.275,0.454-0.543,0.711-0.8
				c1.47-1.511,3.124-2.861,4.838-4.098c1.721-1.243,3.447-2.473,5.161-3.722c0.657-0.478,1.267-1.057,1.93-1.541
				c0.316-0.269,0.364-0.753,0.096-1.075c-0.263-0.316-0.753-0.364-1.075-0.096c-1.177,0.95-2.282,1.947-3.488,2.879
				c-1.941,1.493-3.925,2.957-5.788,4.545c-1.004,0.86-1.882,1.792-2.802,2.718c-0.239,0.233-0.466,0.502-0.693,0.783
				c-1.302-0.508-2.574-1.063-3.799-1.69c0.215-0.048,0.412-0.161,0.573-0.329c0.4-0.442,0.371-1.123-0.071-1.523
				c-1.248-1.171-2.515-2.318-3.77-3.489c0.688-0.717,1.404-1.397,2.073-2.061c1.595-1.613,3.22-3.028,4.934-4.51
				c1.523-1.314,3.16-2.599,4.749-3.841c2.491-1.941,4.976-4.008,7.557-5.824c0.357-0.269,0.436-0.794,0.167-1.153
				c-0.269-0.364-0.795-0.436-1.153-0.173c-0.926,0.651-1.869,1.368-2.747,2.067c-1.936,1.529-4.038,2.981-5.896,4.605
				c-1.589,1.386-3.147,2.736-4.7,4.164c-1.446,1.332-2.969,2.729-4.301,4.169c-0.532,0.574-1.034,1.159-1.518,1.762
				c-0.09-0.089-0.18-0.173-0.263-0.257c-0.634-1.439-1.213-2.957-1.744-4.545c-0.09-0.251-0.168-0.502-0.251-0.753
				c1.434-1.093,2.885-2.18,4.337-3.231c0.292-0.221,0.358-0.657,0.137-0.956c-0.221-0.299-0.657-0.358-0.955-0.138
				c-1.32,0.956-2.635,1.941-3.937,2.933c-0.311-1.111-0.586-2.228-0.831-3.357c0.735-0.854,1.494-1.685,2.265-2.509
				c1.792-1.923,3.727-3.811,5.716-5.52c3.411-2.921,7.204-6.146,11.069-8.446c0.352-0.227,0.46-0.717,0.232-1.069
				c-0.227-0.352-0.717-0.46-1.069-0.233c-4.349,2.623-8.715,6.32-12.353,9.826c-2.127,2.049-4.295,4.092-6.183,6.355
				c-0.496-2.622-0.842-5.286-1.123-7.933c0.525-0.4,1.046-0.812,1.565-1.23c1.164-0.961,2.294-2.037,3.404-3.058
				c0.723-0.657,1.393-1.392,2.067-2.097c1.869-1.959,3.769-3.942,5.722-5.812c0.335-0.334,0.335-0.878,0-1.207h-1.206
				c-2.61,2.467-4.988,5.245-7.562,7.759c-0.299,0.281-0.585,0.585-0.878,0.884c0.023-0.167,0.023-0.34,0.006-0.514
				c-0.316-2.275-0.615-4.516-0.86-6.797c0.872-0.854,1.738-1.714,2.604-2.581c5.723-5.764,11.397-11.332,17.92-16.194
				c0.437-0.352,0.502-1.003,0.149-1.439s-1.003-0.508-1.439-0.149c-3.471,2.915-6.738,5.854-9.934,9.074
				c-3.208,3.22-6.272,6.588-9.444,9.856c-0.436-4.659-0.633-9.414-0.645-14.139c1.111-1.009,2.24-2.001,3.315-3.046
				c5.884-5.747,12.096-11.183,19.049-15.573c0.502-0.323,0.645-1.003,0.316-1.5c-0.322-0.501-1.004-0.645-1.499-0.322
				c-0.83,0.466-1.763,1.165-2.533,1.732c-2.24,1.637-4.318,3.297-6.433,5.107c-2.276,1.941-4.492,3.942-6.679,5.991
				c-1.481,1.386-3.053,2.771-4.444,4.235c-0.364,0.376-0.729,0.753-1.087,1.135c0.006-1.117,0.03-2.234,0.06-3.333
				c0.042-1.959-0.023-3.937-0.006-5.902c0.006-1.374,0.024-2.766,0.048-4.157c0.836-0.693,1.667-1.368,2.467-2.025
				c5.645-4.671,11.505-9.193,17.473-13.422c0.352-0.269,0.43-0.789,0.161-1.141c-0.27-0.353-0.783-0.43-1.136-0.162
				c-1.756,1.296-3.452,2.67-5.196,3.996c-2.568,1.948-5.221,3.949-7.688,6.015c-1.953,1.631-4.026,3.172-5.914,4.88
				c-0.042,0.03-0.083,0.066-0.125,0.102c0.054-1.774,0.131-3.554,0.239-5.316c0.328,0.03,0.662-0.095,0.89-0.358
				c2.712-3.07,4.886-6.499,7.496-9.659c0.872-1.057,2.073-2.007,3.137-2.849c0.549-0.472,0.621-1.308,0.149-1.852
				c-0.473-0.549-1.309-0.615-1.853-0.149c-0.525,0.454-1.135,0.956-1.618,1.44c-2.276,2.312-4.283,5.412-6.051,8.118
				c-0.586,0.896-1.261,1.708-1.941,2.521c0.083-0.938,0.173-1.87,0.286-2.79c0.06-0.705-0.466-1.338-1.177-1.404
				c-0.537-0.054-1.033,0.239-1.267,0.693c-0.054-0.125-0.119-0.239-0.185-0.335c-0.233-0.322-0.52-0.561-0.854-0.723
				c2.694-2.049,5.388-4.05,8.13-6.033c1.612-1.165,3.291-2.329,4.862-3.542c1.511-1.171,3.064-2.317,4.594-3.47
				c1.833-1.392,3.571-2.921,5.364-4.349c0.501-0.436,0.555-1.207,0.119-1.708c-0.437-0.496-1.207-0.55-1.709-0.114
				c-0.854,0.723-1.648,1.547-2.502,2.282c-2.133,1.833-4.229,3.721-6.439,5.471c-1.912,1.511-3.817,3.053-5.711,4.576
				c-2.802,2.246-5.597,4.426-8.345,6.69c-0.353,0.065-0.698,0.215-0.991,0.43c-0.525,0.365-1.016,0.729-1.583,1.034
				c-0.215,0.113-0.525,0.137-0.801,0.274c-0.729,0.371-1.457,0.681-2.192,0.956c1.255-1.458,2.581-2.85,3.925-4.235
				c1.033-1.075,2.043-2.18,3.082-3.243c1.338-1.362,2.778-3.112,3.901-4.666c0.501-0.699,0.949-1.445,1.434-2.156
				c0.412-0.717,0.173-1.643-0.538-2.055c-0.717-0.412-1.643-0.173-2.055,0.543c-0.866,1.493-1.595,2.802-2.616,4.247
				c-1.757,2.485-4.002,4.928-6.027,7.198c-1.523,1.69-2.951,3.399-4.349,5.197c-2.479,0.604-4.749,0.783-7.09,0.878
				c0.986-1.356,2.025-2.67,3.172-3.99c3.004-3.482,6.404-6.499,9.749-9.623c1.213-1.129,2.377-2.336,3.578-3.482
				c0.651-0.639,0.657-1.69,0.018-2.342c-0.639-0.651-1.69-0.657-2.342-0.018c-4.157,3.931-8.058,8.363-11.677,12.795
				c-1.398,1.708-2.658,3.441-3.937,5.233c-0.323,0.448-0.651,0.914-0.974,1.397c-0.812-0.042-1.619-0.102-2.431-0.102
				c-0.747-0.006-1.565-0.149-2.318-0.233c-0.322-0.03-0.639-0.071-0.961-0.107c8.703-9.527,19.371-17.807,29.58-25.226
				c4.127-3.01,8.147-6.17,12.281-9.169c0.537-0.388,0.645-1.141,0.257-1.667c-0.389-0.532-1.136-0.639-1.667-0.251
				c-2.055,1.476-4.086,3.041-6.11,4.57c-1.846,1.404-3.733,2.766-5.562,4.193c-3.799,2.945-7.544,6.123-11.176,9.265
				c-6.195,5.346-12.066,10.8-17.586,16.856c-0.388,0.418-0.776,0.849-1.165,1.284c-0.215-0.036-0.436-0.065-0.657-0.101
				c0.233-0.341,0.472-0.681,0.723-0.986c1.135-1.41,2.181-2.808,3.369-4.169c1.027-1.183,2.156-2.312,3.255-3.423
				c1.147-1.17,2.33-2.359,3.548-3.453c1.368-1.224,2.67-2.544,4.062-3.757c0.556-0.556,0.562-1.47,0.006-2.025
				c-0.562-0.562-1.47-0.568-2.031-0.006c-5.34,5.603-10.495,11.099-14.832,17.502c-2.276-0.418-4.54-0.926-6.768-1.541
				c5.185-6.105,10.776-12.455,17.311-17.042c0.501-0.406,0.591-1.159,0.185-1.661c-0.406-0.508-1.159-0.597-1.661-0.185
				c-1.589,1.356-3.088,2.682-4.576,4.151c-2.801,2.771-5.322,5.848-7.867,8.858c-1.559,1.834-3.118,3.674-4.665,5.52
				c-1.314-0.388-2.623-0.812-3.913-1.272c-0.639-0.233-1.284-0.466-1.923-0.711c0.036-0.03,0.072-0.071,0.102-0.107
				c1.625-2.407,3.703-4.474,5.83-6.451c2.521-2.341,5.179-4.534,7.669-6.893c1.565-1.481,3.286-3.094,4.605-4.797
				c0.358-0.466,0.735-0.938,1.075-1.41c0.316-0.436,0.574-0.926,0.902-1.362c0.347-0.567,0.173-1.32-0.388-1.667
				c-0.567-0.353-1.32-0.179-1.672,0.388c-1.201,1.965-2.372,3.739-3.955,5.448c-3.01,3.25-6.278,6.207-9.444,9.307
				c-2.114,2.066-4.115,4.151-5.788,6.601c-0.102,0.149-0.149,0.322-0.131,0.49c-0.83-0.317-1.661-0.651-2.479-0.998
				c0.102-0.107,0.203-0.215,0.305-0.323c0.562-0.603,1.075-1.29,1.619-1.917c1.338-1.553,2.569-3.237,3.895-4.814
				c2.562-3.028,4.713-5.322,7.938-7.538c0.597-0.406,0.752-1.237,0.346-1.834s-1.236-0.759-1.833-0.353
				c-3.614,2.335-6.111,5.782-8.662,9.205c-1.523,2.043-3.004,4.175-4.677,6.104c-0.215,0.239-0.437,0.478-0.663,0.711
				c-0.693-0.316-1.368-0.639-2.031-0.985c-0.747-0.382-1.475-0.765-2.204-1.165c6.29-8.315,14.999-14.396,23.081-20.835
				c1.774-1.422,3.721-2.975,5.358-4.546c0.669-0.633,1.422-1.284,2.055-1.941c0.627-0.651,1.266-1.32,1.911-1.941
				c0.334-0.341,0.329-0.89-0.012-1.225c-0.334-0.329-0.884-0.323-1.219,0.012c-1.469,1.398-2.808,2.927-4.36,4.253
				c-1.23,1.051-2.443,2.162-3.674,3.231c-2.013,1.756-4.175,3.47-6.248,5.167c-2.479,2.037-4.94,4.098-7.371,6.182
				c-0.914,0.777-1.774,1.631-2.664,2.425c-0.789,0.699-1.541,1.476-2.276,2.228c-0.466,0.484-0.974,0.938-1.41,1.463
				c-1.41,1.696-2.771,3.286-4.062,5.03c-3.25-1.828-6.361-3.859-9.252-6.17c1.397-1.087,2.861-2.372,4.133-3.56
				c4.313-4.056,8.59-8.154,12.933-12.18c3.727-3.453,8.536-7.748,13.135-9.916c0.478-0.257,0.657-0.866,0.4-1.344
				c-0.257-0.472-0.866-0.657-1.344-0.4c-8.351,4.354-14.187,11.242-20.722,17.842c-2.502,2.527-4.964,5-7.622,7.347
				c-0.592,0.508-1.201,0.998-1.816,1.481c-2.665-2.222-5.119-4.689-7.3-7.46c-0.466-0.591-0.902-1.201-1.314-1.822
				c0.604-0.436,1.207-0.872,1.828-1.302c2.443-1.721,4.988-3.303,7.473-4.97c0.902-0.609,1.81-1.201,2.706-1.81
				c0.974-0.657,1.912-1.398,2.897-2.031c2.575-1.648,4.737-3.972,7.144-5.812c0.323-0.292,0.347-0.806,0.054-1.129
				c-0.299-0.329-0.812-0.353-1.135-0.054c-0.603,0.55-1.165,1.153-1.792,1.69c-2.7,2.354-5.692,4.827-8.625,6.857
				c-0.992,0.687-1.971,1.428-2.957,2.126c-2.187,1.571-4.444,3.059-6.607,4.659c-0.49,0.364-0.974,0.717-1.445,1.075
				c-0.412-0.639-0.818-1.284-1.219-1.929c-0.25-0.406-0.49-0.836-0.723-1.284c-0.46-2.414-0.765-4.904-1.027-7.335
				c0.86-0.992,1.756-1.953,2.742-2.855c0.675-0.627,2.497-1.941,3.417-2.246l-0.263-0.287c-0.974,0.347-2.658,1.601-3.375,2.276
				c-0.92,0.849-1.768,1.745-2.575,2.67c-0.012-0.138-0.03-0.269-0.042-0.418c-0.645-5.973-1.027-11.922-1.302-17.884
				c0.52-0.693,1.045-1.368,1.565-2.055c0.155-0.203,0.107-0.508-0.096-0.663s-0.502-0.107-0.663,0.096
				c-0.287,0.382-0.58,0.765-0.872,1.147c-0.203-4.731-0.353-9.479-0.514-14.223c-0.048-1.434-0.042-2.873-0.09-4.301
				c-0.269-8.798-0.597-17.585-0.794-26.39c-0.03-1.23-0.054-2.461-0.078-3.686c0.185-1.32,0.358-2.64,0.526-3.954
				c0.681-5.49,1.254-11.021,1.631-16.541c0.436-6.343,0.639-12.657,0.788-19.013c0.155-6.881,0.251-13.769,0.263-20.656
				c0.024-13.04-0.084-26.164-0.681-39.186c-0.323-6.959-0.729-13.905-1.135-20.847c0.328-6.439,0.734-12.872,1.236-19.312
				c0.281-3.584,0.735-7.127,1.129-10.675c0.131-1.188,0.281-2.67,0.55-3.823c0.197-0.848,0.287-1.768,0.49-2.616
				c0.155-0.645,0.352-1.302,0.496-1.929c0.042-0.197,0.269-0.92,0.376-1.069c0.46-1.207-0.149-2.568-1.356-3.028
				s-2.569,0.149-3.022,1.355c-0.257,0.448-0.484,1.165-0.687,1.936c-0.681-1.523-1.207-3.053-0.992-4.677l0.102-0.431l0.197-0.096
				c0.543-0.209,1.117-0.358,1.685-0.46C333.199-290.496,333.504-290.437,333.827-290.454z M599.67-285.747l0.729,0.974l0.364,0.74
				c0.478,1.153,0.891,2.33,1.207,3.488c-3.44,2.819-6.727,5.943-9.856,9.067c-2.843,2.813-5.621,5.687-8.374,8.578
				c0.06-0.431-0.061-0.884-0.358-1.23c-0.562-0.657-1.571-0.735-2.223-0.167c-1.361,1.123-2.628,2.4-3.841,3.679
				c-2.3,2.42-4.438,4.904-6.386,7.616c-0.687,0.95-1.284,1.924-1.869,2.909c-0.084-0.023-0.161-0.054-0.245-0.071l-0.717-0.329
				l-1.087-1.081c-0.782-0.938-1.487-1.971-2.114-3.053c1.499-1.779,3.052-3.494,4.641-5.208c1.261-1.374,2.545-2.724,3.847-4.05
				c0.341-0.27,0.676-0.532,1.021-0.789c1.058-0.812,2.318-1.768,3.459-2.449c0.525-0.399,0.717-1.081,0.525-1.678
				c2.7-2.569,5.46-5.084,8.237-7.557c3.237-2.891,6.612-5.698,9.79-8.649c0.705-0.663,1.398-1.344,2.085-2.043
				C598.905-286.619,599.293-286.184,599.67-285.747z M648.693-282.176c-1.368,1.04-2.641,2.271-3.937,3.405
				c-2.401,2.108-4.773,4.253-7.162,6.367c-5.269,4.653-10.274,9.492-15.173,14.521c-1.648,1.696-3.195,3.524-4.748,5.305
				c-1.649,1.894-3.154,3.936-4.672,5.949l0.222,0.161c0.723-0.956,1.439-1.995,2.198-2.909c1.427-1.72,2.843-3.393,4.33-5.065
				c2.718-3.059,5.794-5.943,8.835-8.686c3.052-2.759,6.188-5.436,9.378-8.046c2.33-1.905,4.689-3.811,7.049-5.681
				c1.17-0.932,2.389-1.857,3.542-2.813c1.72-1.434,3.381-3.285,4.856-4.97c0.131-0.113,0.149-0.328,0.035-0.466
				c-0.119-0.131-0.334-0.149-0.466-0.036C651.5-284.206,650.085-283.232,648.693-282.176z M648.782-269.733
				c-3.59,3.513-7.12,7.073-10.608,10.687c-5.096,5.269-10.244,10.466-15.436,15.633c-2.019,2.019-4.157,3.954-6.212,5.938
				l0.149,0.155c3.823-3.686,7.699-7.306,11.505-11.009c5.997-5.836,12-11.648,18.104-17.365c2.886-2.706,5.908-5.269,8.883-7.866
				c3.459-3.022,7.252-5.932,10.926-8.691c0.483-0.383,0.573-1.1,0.19-1.589c-0.388-0.484-1.099-0.573-1.589-0.191
				C659.08-279.631,653.884-274.715,648.782-269.733z M330.768-278.771c-0.089,0.604-0.173,1.206-0.25,1.815
				c-0.108-1.212-0.215-2.419-0.281-3.632C330.481-279.894,330.625-279.368,330.768-278.771z M557.109-277.737
				c-0.495,0.562-0.991,1.117-1.481,1.679c-0.334,0.376-0.669,0.753-0.997,1.135c0.03-0.382,0.065-0.759,0.107-1.141
				c0.269-0.335,0.531-0.682,0.789-0.998c0.424-0.525,1.033-1.087,1.517-1.57c0.071-0.078,0.144-0.156,0.221-0.228
				C557.205-278.484,557.151-278.113,557.109-277.737z M561.811-274.9c-0.514,0.628-1.039,1.255-1.553,1.882
				c0-0.579,0.018-1.158,0.042-1.738c1.367-1.152,2.777-2.258,4.181-3.362C563.585-277.057,562.695-275.987,561.811-274.9z
				 M602.806-275.33c0.203,1.487-0.03,3.285-0.149,4.785c-0.92,0.74-1.84,1.475-2.741,2.222
				c-6.075,4.922-12.126,9.903-17.054,16.021c-0.287,0.341-0.239,0.866,0.101,1.152c0.341,0.293,0.866,0.245,1.153-0.095
				c4.575-5.592,10.148-10.292,15.919-14.611c0.681-0.52,1.362-1.027,2.049-1.541c-0.096,0.358-0.203,0.687-0.299,0.979
				c-0.454,1.249-0.89,2.324-1.409,3.352l-1.362,2.191c-0.358-0.071-0.734-0.006-1.039,0.228c-1.159,0.901-2.342,1.756-3.488,2.682
				c-1.261,1.021-2.491,2.115-3.687,3.208c-0.901,0.824-1.791,1.852-2.622,2.754c-0.107,0.113-0.215,0.227-0.316,0.346
				c-0.322,0.138-0.639,0.264-0.949,0.425c-1.368,0.651-3.179,1.146-4.666,1.487c-1.302,0.286-2.622,0.489-3.948,0.604
				c0.92-1.142,1.876-2.229,2.88-3.298c0.949-1.016,1.815-2.228,2.747-3.291c1.445-1.648,2.957-3.16,4.516-4.707
				c0.508-0.562,0.46-1.445-0.107-1.947c-0.562-0.508-1.445-0.46-1.947,0.102c-2.198,2.586-4.259,5.334-6.409,7.962
				c-0.508,0.628-0.968,1.351-1.428,2.025c-0.711,1.052-1.445,2.085-2.222,3.088c-0.03,0.048-0.066,0.102-0.09,0.149
				c-1.476,0.006-2.938-0.107-4.379-0.358c2.909-3.052,5.854-6.068,8.865-9.02c1.386-1.368,2.76-2.754,4.199-4.067
				c2.419-2.217,4.784-4.511,7.293-6.637c1.368-1.159,2.73-2.33,4.116-3.471c1.38-1.135,2.825-2.21,4.223-3.327
				c0.64-0.514,1.314-0.997,1.995-1.487C602.633-276.722,602.704-276.022,602.806-275.33z M556.823-273.693
				c-0.64,0.646-1.261,1.302-1.864,1.978c-0.137,0.137-0.263,0.28-0.388,0.436c0-0.071-0.006-0.144-0.006-0.203
				c-0.042-0.645-0.042-1.278-0.024-1.911c0.479-0.55,0.95-1.094,1.434-1.631c0.316-0.364,0.646-0.729,0.968-1.087
				C556.877-275.312,556.835-274.506,556.823-273.693z M605.523-274.834l0.102,0.328c0.107,0.466,0.197,0.938,0.269,1.422
				c-0.131,0.107-0.269,0.209-0.399,0.316L605.523-274.834z M670.926-268.21c-0.018,0.688-0.084,1.397,0.018,2.073
				c-0.023,0.854,0.353,1.637,0.962,2.15c-0.466,1.726-1.016,3.458-1.654,5.208c-0.114,0.383-0.132,0.771-0.066,1.136
				c-2.293,0.148-4.593,0.185-6.893,0.292c-1.398,0.054-2.79,0.066-4.182,0.138c-1.87,0.096-3.751,0.203-5.627,0.287
				c-1.225-0.126-2.449-0.275-3.661-0.467c0.196-0.161,0.388-0.328,0.591-0.478c1.804-1.422,3.644-2.903,5.537-4.205
				c4.146-2.855,8.327-5.692,12.557-8.435c0.907-0.591,1.81-1.206,2.699-1.827C671.075-270.964,670.955-269.584,670.926-268.21z
				 M556.99-269.088c-0.592,0.723-1.183,1.445-1.762,2.181c-0.18,0.209-0.149,0.525,0.06,0.704c0.209,0.174,0.531,0.144,0.705-0.065
				c0.376-0.483,0.765-0.962,1.152-1.434c0.036,0.293,0.078,0.592,0.119,0.89c-0.585,0.651-1.177,1.314-1.731,1.983l-0.604-3.04
				c-0.066-0.418-0.126-0.837-0.168-1.261c0.651-0.842,1.345-1.637,2.073-2.396C556.865-270.713,556.912-269.9,556.99-269.088z
				 M605.237-265.45c-0.149,0.412-0.358,0.824-0.514,1.242l-0.807,1.548l-1.464,2.007l-0.974,1.081l1.177-1.899
				c1.41-2.652,2.145-5.395,2.593-8.285c0.286-0.209,0.573-0.424,0.86-0.633C606.085-268.741,605.763-266.878,605.237-265.45z
				 M558.92-259.68c-0.084,0.149-0.161,0.299-0.239,0.46c-0.185,0.322-0.155,0.711,0.036,1.009
				c-0.078,0.096-0.155,0.197-0.233,0.299c-0.591-0.866-1.087-1.798-1.505-2.76l-0.872-2.371c0.232-0.018,0.466-0.119,0.633-0.305
				c0.299-0.364,0.621-0.723,0.95-1.069C557.994-262.905,558.406-261.263,558.92-259.68z M571.195-249.543
				c-0.066-0.019-0.126-0.03-0.18-0.042c2.323-3.578,5.102-6.355,8.429-9.229c0.621-0.55,1.326-1.159,2.013-1.673
				C578.028-256.849,574.623-253.187,571.195-249.543z M559.595-257.78c0.293,0.753,0.615,1.476,0.968,2.145l0.293,0.525
				l-1.261-1.302c-0.215-0.27-0.4-0.567-0.615-0.837c-0.024-0.029-0.042-0.054-0.06-0.077c0.125-0.155,0.257-0.316,0.388-0.472
				C559.403-257.78,559.499-257.774,559.595-257.78z M649.213-256.335c-0.27,0.048-0.538,0.084-0.801,0.132
				c0.102-0.078,0.197-0.168,0.305-0.257C648.878-256.418,649.045-256.377,649.213-256.335z M331.401-178.64
				c-0.065,5.549-0.179,11.081-0.287,16.624c-0.03,1.404-0.072,2.802-0.114,4.229c-0.006-2.915-0.006-5.806-0.006-8.691
				c0-12.795,0.096-25.602,0.353-38.546C331.467-196.129,331.515-187.385,331.401-178.64z M595.536-175.611
				c-0.048,3.739-0.065,7.485-0.179,11.236c-0.168,5.657-0.467,11.35-0.532,17c-0.054,4.366-0.077,8.739-0.125,13.111
				c-0.126,11.851-0.107,23.702-0.215,35.547c-0.108,12.646-0.126,25.333-0.03,37.972c0.048,5.639-0.042,11.32,0.096,16.958
				c0.102,4.241,0.149,8.625,0.179,12.813c0,6.905,0.072,13.834,0.072,20.757c0,5.675-0.072,11.355-0.042,17.024
				c0.018,3.858,0.018,7.747-0.03,11.6c-0.095,8.064,0.013,16.164-0.167,24.222c-0.054,2.216,0.006,4.468-0.048,6.69
				c-0.113,0.095-0.203,0.215-0.251,0.358c-0.209,0.52-0.406,1.033-0.604,1.547c0.108-13.171,0.4-26.336,0.454-39.496
				c0.096-27.836,0.155-55.671,0.197-83.507c0.048-34.627,0.358-69.261,0.478-103.888
				C595.017-175.647,595.273-175.629,595.536-175.611z M327.967-82.899c0.185,3.536,0.263,7.072,0.543,10.614
				c0.09,1.153,0.203,2.3,0.34,3.441c-0.788,2.544-1.26,5.018-1.38,7.927c-0.018-0.084-0.036-0.162-0.054-0.239
				c-0.006-1.075-0.012-2.15-0.006-3.22c0.012-4.791,0.072-9.599,0.131-14.396c0.036-3.662,0.084-7.323,0.131-10.979
				C327.751-87.469,327.841-85.181,327.967-82.899z M335.254-63.832c-0.167,0.167-0.167,0.454,0,0.627h0.627
				c2.013-2.025,4.026-4.026,6.039-6.045c0.173-0.167,0.173-0.46,0-0.627h-0.627C339.28-67.858,337.267-65.851,335.254-63.832z
				 M402.896-55.075c-4.104,2.634-8.148,5.776-11.821,8.984c-2.216,1.947-4.337,4.002-6.505,6.003
				c-3.721,3.435-7.347,6.959-11.092,10.364c-1.493,1.35-3.1,2.593-4.593,3.925c-0.179,0.149-0.203,0.43-0.048,0.609
				c0.149,0.179,0.43,0.203,0.609,0.054c1.565-1.398,3.262-2.73,4.862-4.122c3.262-2.855,6.469-5.782,9.719-8.655
				c2.097-1.863,4.241-3.662,6.344-5.501c5.681-4.988,12.228-10.28,19.103-13.476c0.4-0.197,0.556-0.693,0.358-1.093
				s-0.687-0.556-1.093-0.358C406.749-57.447,404.736-56.252,402.896-55.075z M344.77-39.055c-0.239,0.334-0.161,0.818,0.173,1.051
				c0.334,0.245,0.818,0.167,1.057-0.167c1.261-1.947,4.259-5.645,6.565-6.553c0.37-0.209,0.501-0.699,0.292-1.069
				c-0.209-0.37-0.699-0.501-1.069-0.292C348.784-44.556,346.651-41.785,344.77-39.055z M355.707-39.389
				c-0.759,0.914-1.487,1.929-2.246,2.813c-0.293,0.34-0.818,1.009-1.021,1.386c-0.197,0.263-0.131,0.657,0.137,0.848
				c0.269,0.191,0.657,0.125,0.848-0.144c0.186-0.364,0.55-0.711,0.783-1.057c0.633-0.938,1.583-1.947,2.324-2.825
				c1.236-1.464,2.592-3.053,3.954-4.385c0.669-0.651,1.35-1.481,2.085-2.043c0.334-0.316,0.353-0.86,0.03-1.188
				c-0.316-0.329-0.86-0.347-1.188-0.03C359.375-43.977,357.57-41.641,355.707-39.389z M367.946-45.458
				c-1.529,1.648-3.082,3.213-4.641,4.832c-1.249,1.291-2.617,2.557-3.746,3.96c-1.188,1.463-2.909,3.435-3.608,5.215
				c-0.209,0.412-0.048,0.938,0.365,1.147c0.412,0.209,0.938,0.042,1.146-0.371c0.203-0.37,0.371-0.741,0.585-1.111
				c1.852-3.214,5.4-6.314,8.112-8.781c1.177-1.063,2.288-2.228,3.458-3.273c0.442-0.46,0.43-1.207-0.03-1.643
				C369.129-45.924,368.388-45.912,367.946-45.458z M362.373-19.856c0.687,0.275,1.41,0.585,2.097,0.818
				c2.342,0.776,4.653,1.583,7.042,2.204c2.491,0.645,5.083,1.201,7.7,1.637c-0.149,0.179-0.287,0.358-0.424,0.543
				c-0.162,0.197-0.125,0.502,0.071,0.663c0.197,0.161,0.502,0.131,0.663-0.072c0.245-0.322,0.502-0.639,0.747-0.961
				c2.234,0.346,4.468,0.609,6.667,0.771c3.667,0.263,7.24,0.305,10.859,0.185c-1.553,1.619-3.064,3.279-4.516,4.976
				c-0.155,0.167-0.138,0.442,0.036,0.592c0.167,0.149,0.442,0.131,0.591-0.036c1.631-1.905,3.363-3.775,5.167-5.585
				c1.069-0.048,2.15-0.114,3.237-0.179c1.493-0.107,3.017-0.299,4.528-0.514c0,0.729,0,1.505-0.06,2.222
				c-0.061,0.627-0.03,1.296-0.066,1.929c-0.113,1.983-0.185,3.978-0.274,5.973c-0.705,0.735-1.428,1.458-2.091,2.24
				c-0.155,0.173-0.144,0.448,0.024,0.609c0.167,0.155,0.447,0.143,0.603-0.024c0.448-0.538,0.926-1.057,1.422-1.571
				c-0.131,2.963-0.257,5.926-0.358,8.895c-0.979,3.709-1.857,7.455-2.634,11.224c-0.789,3.811-1.452,8.105-1.625,11.994
				c-0.065,1.631-0.197,3.178-0.102,4.82c0.077,1.314,0.173,2.581,0.418,3.739h-0.048c-0.119,0.09-0.239,0.18-0.353,0.275
				c-2.15-2.658-4.247-5.394-6.302-8.106c1.834-1.798,3.764-3.536,5.543-5.388c0.377-0.382,0.365-1.01-0.018-1.386
				c-0.388-0.371-1.016-0.358-1.386,0.024c-1.721,1.792-3.477,3.566-5.185,5.376c-0.263-0.347-0.532-0.687-0.789-1.027
				c-1.518-2.007-3.106-3.972-4.642-5.974c-0.203-0.263-0.4-0.52-0.597-0.782c0.681-0.627,1.511-1.135,2.419-1.643
				c0.358-0.203,0.825-0.448,1.147-0.692c0.358-0.269,0.759-0.508,1.123-0.765c0.395-0.275,0.765-0.723,1.135-1.045
				c0.274-0.299,0.269-0.789-0.03-1.075c-0.305-0.281-0.788-0.269-1.075,0.03c-0.269,0.269-0.49,0.567-0.771,0.812
				c-0.723,0.621-1.738,1.248-2.586,1.69c-0.836,0.442-1.589,0.95-2.234,1.541c-1.254-1.648-2.503-3.309-3.745-4.964
				c1.242-1.201,2.485-2.401,3.709-3.62c0.263-0.269,0.263-0.711,0-0.974h-0.979c-1.123,1.087-2.198,2.229-3.285,3.363
				c-0.072,0.065-0.144,0.137-0.209,0.209c-0.329-0.436-0.651-0.872-0.98-1.302c-1.475-1.965-2.945-3.942-4.408-5.908
				c1.081-1.057,2.156-2.126,3.273-3.088c0.299-0.293,0.299-0.794,0.006-1.093c-0.298-0.305-0.794-0.305-1.099-0.006
				c-1.009,1.009-1.995,2.055-2.993,3.082c-1.696-2.288-3.393-4.576-5.101-6.857c0.424-0.257,0.824-0.46,1.087-0.514
				c0.388-0.113,0.609-0.532,0.496-0.926c-0.12-0.388-0.538-0.609-0.926-0.49c-0.185-0.012-1.069,0.525-1.481,0.824
				c-1.308-1.75-2.634-3.5-3.966-5.215c-0.436-0.567-0.866-1.123-1.296-1.684c0.06-0.03,0.12-0.066,0.179-0.102
				c1.027-0.627,3.513-2.234,4.779-2.21c0.49-0.113,0.789-0.621,0.675-1.111c-0.119-0.496-0.621-0.789-1.117-0.675
				c-0.269,0.09-0.55,0.144-0.818,0.233c-0.58,0.185-1.123,0.496-1.661,0.771c-0.968,0.49-1.995,1.314-2.909,1.971
				c-3.136-4.062-6.272-8.076-9.503-11.982C357.499-21.935,359.894-20.848,362.373-19.856z M356.705-16.052
				c1.786,2.198,3.542,4.438,5.28,6.685c-0.102,0.071-0.209,0.143-0.305,0.209c-0.018,0.006-0.03,0.012-0.042,0.024
				c-2.138-2.939-4.354-5.944-6.577-8.942C355.611-17.407,356.161-16.727,356.705-16.052z M421.677-14.206
				c-1.303,1.72-2.515,3.53-3.775,5.286c-0.281,0.388-0.186,0.938,0.203,1.212c0.388,0.281,0.938,0.186,1.212-0.203
				c1.261-1.75,2.474-3.566,3.775-5.287c0.281-0.388,0.186-0.932-0.197-1.212C422.501-14.689,421.957-14.594,421.677-14.206z
				 M368.197-1.172c-0.162,0.137-0.329,0.269-0.49,0.394c-0.472-0.615-0.932-1.23-1.386-1.852c-1.266-1.786-2.592-3.632-3.954-5.507
				c0.089-0.048,0.173-0.096,0.245-0.144C366.991-2.779,367.6-1.972,368.197-1.172z M374.332,7.083
				c-0.065,0.054-0.131,0.114-0.191,0.162c-1.953-2.335-3.871-4.683-5.716-7.084c0.167-0.12,0.328-0.239,0.496-0.358
				C370.73,2.227,372.528,4.658,374.332,7.083z M376.853,10.464c-0.621-0.729-1.236-1.463-1.858-2.192
				c0.048-0.036,0.09-0.078,0.138-0.114C375.7,8.923,376.273,9.693,376.853,10.464z M405.931,19.693
				c0.125,3.823,0.305,7.526,0.604,11.343c0.209,2.676,0.621,5.346,1.021,8.004c0.334,2.252,0.782,4.57,1.374,6.887
				c-0.705-0.789-1.41-1.577-2.104-2.371c-1.146-3.751-1.434-8.017-1.595-11.815c-0.19-4.462,0.048-9.187,0.651-13.697
				C405.895,18.6,405.907,19.149,405.931,19.693z M412.555,30.953c-0.453,0.412-0.901,0.818-1.367,1.225
				c-0.061-0.591-0.113-1.183-0.161-1.768C411.426,30.779,411.976,30.988,412.555,30.953z M410.452,51.041
				c0.054,0.149,0.107,0.299,0.168,0.454c-0.209-0.305-0.419-0.609-0.615-0.908C410.16,50.736,410.303,50.886,410.452,51.041z
				 M594.312,56.22c0.149,1.804,0.305,3.781-0.263,5.508c-0.018-0.203-0.036-0.4-0.048-0.592c-0.083-0.872-0.221-1.792-0.376-2.729
				c0-0.705,0-1.404,0-2.103c0.197-0.58,0.394-1.153,0.591-1.721C594.234,55.127,594.264,55.682,594.312,56.22z M591.624,63.985
				c0.006,0.239,0.029,0.478,0.048,0.723c-0.055,0.042-0.107,0.072-0.162,0.113c0.055-0.311,0.102-0.615,0.09-0.991
				C591.617,63.89,591.617,63.932,591.624,63.985z"/>
		</g>
	</g>
</g>
</svg>
