<?xml version="1.0" encoding="utf-8"?>
<!-- Generator: Adobe Illustrator 16.0.0, SVG Export Plug-In . SVG Version: 6.00 Build 0)  -->
<!DOCTYPE svg PUBLIC "-//W3C//DTD SVG 1.1//EN" "http://www.w3.org/Graphics/SVG/1.1/DTD/svg11.dtd">
<svg version="1.1" id="Layer_1" xmlns="http://www.w3.org/2000/svg" xmlns:xlink="http://www.w3.org/1999/xlink" x="0px" y="0px"
	 width="373.797px" height="441.473px" viewBox="308.43 2.688 373.797 441.473"
	 enable-background="new 308.43 2.688 373.797 441.473" xml:space="preserve">
<g transform="scale(1 -1)">
	<g transform="translate(0 -75)">
		<g>
			<path marker-start="none" marker-end="none" d="M458.353-367.068c-0.251,0.161-0.448,0.382-0.604,0.615
				c-0.096-0.228-0.19-0.46-0.274-0.693c-0.322-0.758-1.207-1.104-1.965-0.782c-0.759,0.322-1.105,1.213-0.783,1.972
				c0.902,1.821,1.159,3.876,1.738,5.817c0.281,0.944,0.717,1.899,1.105,2.813c0.46,1.075,0.896,2.187,1.32,3.285
				c2.114,5.496,4.109,10.979,6.08,16.528c2.928,8.226,5.604,16.54,8.614,24.735c1.355,3.704,2.729,7.39,4.271,11.027
				c-0.023,0-0.042,0-0.06,0.006c-1.583,0.023-3.243-0.065-4.839-0.102c-2.425-0.054-4.855-0.084-7.281-0.144
				c-5.155-0.125-10.31-0.167-15.465-0.286c-13.805-0.305-27.633-0.705-41.443-0.849c-7.926-0.09-15.865-0.173-23.792-0.274
				c-4.545-0.054-9.187-0.113-13.732-0.019c-6.894,0.155-13.787,0.437-20.686,0.682c-3.978,0.137-7.98,0.28-11.952,0.508
				c-6.989,0.399-14.043,0.603-21.008,1.218c-0.95,0.061-1.697,0.789-1.828,1.697c-0.681,0.006-1.458,0.113-2.097,0.221
				c-0.967,0.149-1.344,1.016-1.69,1.846c-0.926,2.21,0.054,5.06,0.98,7.162c0.263,5.125,0.418,10.256,0.549,15.387
				c-0.155,1.703-0.292,3.405-0.418,5.09c-0.155-2.533-0.317-5.077-0.448-7.622c-0.269-5.144-0.806-10.304-1.218-15.436
				c-0.018-0.232-0.239-0.418-0.472-0.399c-0.233,0.018-0.418,0.238-0.4,0.472c0.579,7.114,1.123,14.175,1.535,21.301
				c0.185,3.339,0.311,6.685,0.418,10.035c-0.329,5.382-0.567,10.77-0.854,16.17c-0.257,4.778-0.4,9.599-0.531,14.384
				c-0.275,9.354-0.52,18.69-0.663,28.057c-0.203,12.49-0.257,24.975-0.221,37.441c-0.024,0.358-0.048,0.693-0.065,1.027
				c-0.203,3.13-0.233,6.278-0.323,9.408c-0.144,5.095-0.292,10.184-0.412,15.273c-0.347,15.256-0.669,30.518-0.8,45.78
				c-0.06,6.547-0.102,13.094-0.162,19.634c-0.042,4.462,0.066,8.966-0.036,13.422c-0.03,1.35,0.012,2.61,0.036,3.954
				c0.018,1.01-0.03,2.031-0.024,3.046l0.018,0.604v0.233l0.012,0.179c0.054,1.069,1.362,1.672,2.204,1.027
				c0.394-0.299,0.538-0.633,0.585-1.01l0.018-0.131l0.006-0.137v-0.334l0.03-2.688c0.018-1.057,0.036-2.109,0.054-3.166
				c0.006-0.836,0.012-1.667,0.012-2.503c0.072,0.263,0.144,0.532,0.221,0.807c0.633,4.934,2.7,9.581,5.531,13.774
				c-0.269,0.215-0.532,0.43-0.807,0.657c-0.167,0.131-0.191,0.394-0.054,0.562c0.131,0.173,0.388,0.191,0.562,0.06
				c0.251-0.215,0.502-0.412,0.759-0.615c0.896,1.272,1.858,2.503,2.873,3.686c0.006,0.466,0.203,0.926,0.574,1.26
				c0.675,0.615,1.386,1.213,2.055,1.828c0.275,0.316,0.556,0.627,0.836,0.932c0.532,0.58,1.123,1.117,1.655,1.661
				c0.114,0.185,0.215,0.346,0.317,0.52c3.673,6.242,7.711,12.263,11.785,18.254c1.517,2.229,3.059,4.457,4.635,6.672
				c-0.096,0.006-0.179,0.006-0.251,0.006c-0.687-0.047-1.135-0.155-1.804-0.311c-0.293-0.072-0.597,0.114-0.663,0.406
				c-0.072,0.293,0.107,0.591,0.4,0.663c0.681,0.161,1.595,0.43,2.293,0.353c0.257-0.03,0.502-0.06,0.747-0.096
				c1.959,2.76,3.949,5.501,5.961,8.208c0.072,0.096,0.144,0.197,0.221,0.292c-0.281,0.221-0.478,0.388-0.478,0.4
				c-0.221,0.191-0.245,0.532-0.06,0.752c0.191,0.221,0.532,0.245,0.752,0.06c0.144-0.12,0.281-0.227,0.43-0.341
				c1.816,2.449,3.65,4.898,5.478,7.341c-0.191,0.209-0.233,0.526-0.072,0.776c0.173,0.275,0.532,0.371,0.825,0.233
				c1.828,2.443,3.655,4.886,5.483,7.335c0.167,0.233,0.346,0.466,0.52,0.699c-0.167,0.215-0.161,0.549,0.042,0.747h0.531
				c1.888,2.431,3.907,4.82,5.842,7.204c1.917,2.354,3.823,4.719,5.74,7.079c-0.43,0.549-0.896,1.188-1.171,1.732
				c-0.227,0.364-0.119,0.854,0.245,1.081c0.364,0.233,0.854,0.12,1.081-0.245c0.203-0.424,0.496-0.872,0.836-1.332
				c1.941,2.401,3.889,4.796,5.842,7.186c-0.209,0.233-0.221,0.603-0.018,0.854c0.197,0.257,0.568,0.317,0.842,0.155
				c0.173,0.203,0.334,0.412,0.508,0.615c3.984,4.856,7.867,9.838,11.726,14.796c1.541,1.983,3.059,4.008,4.563,6.027
				c0.741,0.985,1.452,2.031,2.217,2.999c0.8,1.087,2.341,1.314,3.429,0.514c0.364-0.269,0.633-0.627,0.8-1.016
				c0.592,0.496,1.207,0.968,1.84,1.428c0.263,0.191,0.598,0.454,0.878,0.604c2.479,1.386,4.964,2.162,7.748,2.688
				c0.43,0.072,0.878,0.143,1.332,0.203c0,0.012,0,0.024,0.006,0.036c0.167,0.89,1.033,1.476,1.929,1.314
				c0.538-0.149,1.136-0.203,1.691-0.323c1.511-0.329,3.142-0.478,4.677-0.693c0.107-0.018,0.209-0.036,0.316-0.048l0.006,0.018
				l0.132,0.759c1.087,1.93,3.889,2.139,6.385,1.941c0.574-0.036,1.01-0.538,0.975-1.117c-0.036-0.573-0.538-1.009-1.111-0.974
				c-1.147,0.09-2.42,0.155-3.465-0.269c-0.232-0.102-0.729-0.364-0.824-0.615c0.956-0.107,1.917-0.197,2.879-0.269
				c6.434,0.729,12.867,1.362,19.294,2.115c0.573,0.06,1.093-0.358,1.153-0.926c0.035-0.347-0.107-0.675-0.347-0.89
				c0.836,0.072,1.667,0.143,2.503,0.227c2.371,0.221,4.767,0.436,7.126,0.741c1.338,0.173,2.676,0.394,4.014,0.562
				c1.021,0.137,1.983-0.585,2.115-1.607c0.048-0.395-0.024-0.771-0.186-1.099c3.99,0.006,7.992,0.072,11.994,0.155
				c6.458,0.125,12.909,0.191,19.366,0.412c5.113,0.167,10.227,0.4,15.333,0.567c5.448,0.173,10.896,0.4,16.344,0.55
				c3.339,0.095,6.684,0.191,10.017,0.346c5.747,0.269,11.559,0.376,17.317,0.484c1.827,0.036,3.673,0.072,5.495,0.083
				c1.087,0.006,2.234-0.054,3.315,0.042c0.949,0,1.804-0.454,2.335-1.165c1.261-0.06,2.467-0.179,3.758-0.413
				c2.186-0.412,4.653-1.654,5.848-3.631c0.274,0.287,0.657,0.448,1.045,0.472c-0.012,0.197-0.023,0.382-0.029,0.58
				c-0.048,0.501,0.221,0.974,0.65,1.201c0.03,1.505,0.072,3.01,0.09,4.521c0,0.358,0.299,0.657,0.657,0.657
				s0.657-0.299,0.657-0.657c-0.012-1.577,0.018-3.16,0.042-4.731c0.203-0.203,0.34-0.472,0.37-0.771
				c0.036-0.729,0.155-1.523,0.191-2.275c0.669-0.508,1.302-1.063,1.804-1.792c1.953-2.855,1.978-5.86,2.031-9.079
				c0.501-0.406,0.83-1.021,0.848-1.714c-0.113-0.932,0.078-2.019,0.03-2.945c-0.096-1.691,0.077-3.477,0.042-5.179
				c-0.054-2.043,0.035-4.163,0.054-6.212c0.029-3.453,0.041-6.911,0.071-10.364c0.048-5.143-0.036-10.31,0.06-15.447
				c0.072-4.056-0.018-8.124,0.036-12.18c0.048-3.781,0.042-7.58,0.023-11.361c-0.035-7.473,0.102-14.981-0.006-22.448
				c-0.035-2.377-0.125-4.886-0.054-7.257c0.024-0.902-0.054-1.84-0.06-2.754c-0.006-1.452-0.03-2.903-0.054-4.354
				c-0.078-4.617-0.102-9.253-0.125-13.87c-0.066-14.205-0.144-28.415-0.102-42.62c0.054-16.469,0.143-32.943,0.148-49.412
				c0-4.898,0.042-9.814,0-14.718c-0.041-4.026-0.173-8.064-0.256-12.096c-0.09-4.612-0.156-9.223-0.18-13.829
				c0.878,0.741,1.762,1.476,2.646,2.21c9.826,8.195,19.664,16.265,29.95,23.875c-0.55,0.413-1.1,0.723-1.69,1.045
				c-0.49,0.233-0.693,0.825-0.46,1.314c0.232,0.49,0.83,0.693,1.313,0.46c1.021-0.514,2.056-0.627,3.023-1.003
				c0.43,0.316,0.854,0.633,1.284,0.949c1.164,0.878,2.837,0.64,3.721-0.531c0.472-0.639,0.621-1.422,0.472-2.15
				c0.251,0.102,0.538,0.125,0.825,0.048c1.493-0.424,2.998-0.753,4.504-1.135c1.278-0.322,2.557-0.687,3.828-1.027
				c0.831-0.227,1.679-0.43,2.516-0.651c0.771-0.215,1.576-0.353,2.312-0.681c0.585-0.269,1.117-0.591,1.678-0.896
				c0.454-0.107,0.735-0.58,0.622-1.033c-0.042-0.155-0.126-0.299-0.233-0.406l1.386-0.316l0.215-0.012
				c0.902-0.072,1.834-0.251,2.688-0.526l0.454-0.179l0.144-0.042l0.639-0.263c1.338-0.657,1.457-2.33,0.723-3.369
				c3.626-4.068,7.252-8.118,10.752-12.323l6.027-7.562l2.15-2.437c0.657-0.777,1.41-1.625,2.013-2.443
				c0.669-0.92,1.345-1.833,2.007-2.76c0.914,0.228,1.918-0.083,2.533-0.872c0.729-0.943,0.663-2.264-0.09-3.13l0.885-1.261
				c0.734-1.099,1.445-2.203,2.132-3.326c0.186-0.317,0.598-0.914,0.974-1.506l0.358-0.609l0.12-0.191
				c0.161-0.316,0.263-0.537,0.286-0.692l-0.012-0.454c-0.012-0.418-0.149-0.771-0.364-1.051c0.508-0.061,0.866-0.526,0.8-1.027
				c-0.06-0.508-0.525-0.867-1.033-0.801c-1.104,0.09-2.085,0.37-3.059,0.776c0.066-0.824,0.144-1.649,0.228-2.455
				c0.144-1.535,0.269-3.064,0.454-4.587c0.322-0.096,0.651-0.186,0.979-0.275c0.812-0.232,1.631-0.4,2.407-0.765
				c1.063-0.495,1.995-1.04,3.028-1.571c0.567-0.19,0.878-0.818,0.693-1.386c-0.191-0.573-0.818-0.884-1.387-0.692
				c-1.361,0.179-2.544,0.358-3.882,0.717c-0.406,0.102-0.831,0.28-1.236,0.466c0.054-0.239,0.107-0.478,0.173-0.717
				c0.454-1.738,1.553-3.208-0.048-4.845l-0.191-0.227c-0.215-0.311-0.717-0.807-0.991-1.094c-1.188-1.236-2.365-2.651-3.507-3.954
				c-0.041-0.048-0.077-0.09-0.113-0.131c0.37-0.222,0.729-0.46,1.1-0.693c0.447-0.107,0.723-0.573,0.608-1.021
				c-0.107-0.442-0.573-0.723-1.021-0.609c-0.944-0.113-1.828-0.149-2.778-0.006h-0.018c-1.535-1.768-3.118-3.506-4.701-5.215
				c-2.622-2.831-5.196-5.848-7.956-8.536c-1.905-1.857-3.907-3.518-5.938-5.28c-2.562-2.216-5.155-4.402-7.76-6.564
				c-4.485-3.745-9.002-7.455-13.5-11.176c0.263-0.27,0.358-0.682,0.233-1.063c-0.191-0.531-0.782-0.807-1.314-0.621
				c-0.322-0.019-0.645-0.03-0.968-0.006c-3.948-3.262-7.885-6.541-11.779-9.851c-2.76-2.407-5.603-4.755-8.387-7.138
				c-2.801-2.396-5.561-4.839-8.345-7.252c-0.991-0.854-1.971-1.708-2.95-2.562c0.096-0.263,0.107-0.556,0.006-0.824
				c-0.228-0.633-0.932-0.95-1.56-0.717c-0.065,0-0.131,0.012-0.196,0.018c-9.032-7.902-17.975-15.895-27.125-23.672
				c-3.089-2.635-6.219-5.215-9.318-7.837c-1.721-1.452-3.597-2.915-5.239-4.438c-0.173-0.155-0.657-0.615-0.83-0.717
				c-0.215-0.125-0.83-0.299-1.105-0.395c-0.896-0.334-1.66-0.723-2.425-1.26c0.209-0.287,0.353-0.621,0.424-0.986
				c0.228-1.296-0.639-2.55-1.935-2.783c-0.209-0.042-0.406-0.084-0.609-0.119c-0.418-0.974-1.332-1.696-2.449-1.816
				c-0.693-0.113-1.386-0.144-2.073-0.232c-0.483-0.072-0.991-0.161-1.476-0.209c-0.52-0.054-1.057-0.191-1.576-0.275
				c-0.92-0.144-1.858-0.316-2.766-0.502c-5.316-1.062-10.604-2.676-15.854-4.025c-1.553-0.4-3.106-0.741-4.659-1.063
				c0-0.197-0.036-0.4-0.126-0.585c-0.305-0.628-1.074-0.885-1.702-0.574c-0.376,0.18-0.746,0.365-1.117,0.55
				c-0.238-0.054-0.489-0.107-0.729-0.155c-0.848-0.179-1.792-0.305-2.664-0.436c-2.282-0.353-4.533-0.682-6.827-0.968
				c-1.721-0.228-3.447-0.448-5.167-0.657c-0.377-0.269-0.872-0.329-1.296-0.149c-1.046-0.126-2.098-0.239-3.143-0.341
				c-3.429-0.334-6.929-0.567-10.369-0.824c-4.385-0.328-8.984-0.734-13.327-1.386c-1.409-0.209-2.819-0.442-4.229-0.651
				c-0.831-0.119-1.816-0.43-2.646-0.185C460.73-368.878,458.986-367.546,458.353-367.068z M462.611-363.496
				c-0.06,0.227-0.077,0.447-0.083,0.656c-0.019,0.508-0.054,0.956-0.013,1.476c0.007,0.102,0.013,0.228,0.024,0.353
				c-0.353-0.901-0.699-1.81-1.039-2.718C461.865-363.651,462.241-363.568,462.611-363.496z M470.568-361.818
				c-0.042,0.186-0.09,0.383-0.132,0.586c-0.012,0.006-0.029,0.006-0.048,0.006l-0.102-0.782l0.019,0.131
				C470.395-361.859,470.479-361.842,470.568-361.818z M474.355-359.722c0-0.041-0.006-0.095-0.012-0.149h0.531
				C474.695-359.816,474.528-359.77,474.355-359.722z M481.894-359.775c0.776,0.114,1.535,0.239,2.288,0.358
				c-0.138,0.419-0.215,0.891-0.316,1.255c-0.036,0.113-0.066,0.227-0.096,0.347c-0.377,0.244-0.759,0.489-1.135,0.734
				c-0.019-0.55-0.055-1.117-0.18-1.583c-0.251-0.92-1.518-1.146-2.198-0.514c-0.502,0.472-0.663,1.732-0.849,2.413
				c-0.179,0.663-0.328,1.362-0.459,2.073c-0.203,0.125-0.4,0.263-0.609,0.394l0.023-0.603c0-1.088,0.006-2.181-0.006-3.279
				c0.968-0.544,1.936-1.088,2.915-1.613C481.481-359.787,481.702-359.781,481.894-359.775z M474.893-358.091
				c-0.144,0.084-0.286,0.168-0.424,0.257c-0.006-0.173-0.012-0.34-0.018-0.52c0.161-0.06,0.328-0.125,0.483-0.185
				C474.917-358.39,474.904-358.246,474.893-358.091z M491.893-358.228c-0.167,0.107-0.322,0.215-0.483,0.316
				c-0.018-0.126-0.03-0.263-0.036-0.4C491.547-358.281,491.72-358.258,491.893-358.228z M487.58-357.416l-0.149,1.356l-0.113-1.165
				c-0.006-0.012-0.006-0.023-0.006-0.036c0.071-0.041,0.144-0.077,0.221-0.119C487.544-357.392,487.562-357.403,487.58-357.416z
				 M523.312-353.533c3.44,0.532,6.857,1.165,10.286,1.744c2.551,0.437,5.113,0.849,7.664,1.332
				c-0.174,0.353-0.335,0.724-0.484,1.111l-0.113,0.311l-1.362,2.354c-1.057,1.769-2.281,3.459-3.41,5.185
				c-1.117,1.715-2.187,3.459-3.304,5.173c-0.991,1.529-2.024,3.035-3.034,4.546c-0.943,1.422-1.857,2.867-2.808,4.283
				c-1.756,2.634-3.613,5.227-5.472,7.801c-3.769,5.221-7.663,10.286-11.988,15.065c-1.553,1.499-2.951,3.094-4.611,4.533
				c-2.479,2.15-4.958,4.211-7.484,6.284c-1.811,1.487-3.656,2.933-5.478,4.408c-0.538,0.424-1.052,0.86-1.577,1.29
				c-0.054-0.137-0.107-0.269-0.155-0.4c-1.493-3.757-2.963-7.52-4.414-11.289c-0.586-1.852-1.142-3.686-1.661-5.579
				c-1.553-5.692-2.449-11.666-3.022-17.532c-0.077-0.764-0.776-1.338-1.541-1.26c-0.771,0.077-1.344,0.776-1.267,1.541
				c0.149,1.529,0.323,3.07,0.532,4.605c-0.711-1.882-1.416-3.764-2.121-5.65c0.562-0.156,1.153-0.353,1.512-0.49
				c0.436-0.167,0.884-0.155,1.32-0.335c0.263-0.119,0.537-0.215,0.812-0.316c0.102,0.084,0.227,0.149,0.376,0.203
				c0.794,0.269,1.612-0.179,1.702-1.039v-0.018c2.599-1.142,5.018-2.306,7.359-3.967c6.731-4.784,11.469-10.8,13.589-18.84
				c0.651-2.491,0.891-4.725,1.046-7.168c0.28-0.215,0.562-0.418,0.854-0.627C511.139-355.367,517.226-354.477,523.312-353.533z
				 M474.63-355.044c-0.09,1.152-0.173,2.312-0.257,3.471c-0.036,0.029-0.077,0.06-0.113,0.083c0.107-1.469,0.155-2.927,0.191-4.396
				c0.089-0.054,0.167-0.102,0.257-0.155C474.678-355.707,474.654-355.379,474.63-355.044z M491.887-354.363
				c-0.09,0.078-0.179,0.149-0.269,0.228c0.006-0.496,0.006-1.01-0.006-1.512c0.144-0.096,0.293-0.191,0.442-0.287
				C491.994-355.408,491.94-354.889,491.887-354.363z M497.353-354.44c-0.012-0.275-0.024-0.538-0.036-0.795
				c0.036-0.023,0.072-0.042,0.113-0.06c0.305-0.203,0.615-0.4,0.927-0.609C497.891-355.516,497.598-354.996,497.353-354.44z
				 M483.148-354.71l-0.293,2.265l0.006-0.138c-0.018-0.657-0.065-1.309-0.107-1.953c0.131-0.072,0.269-0.155,0.4-0.239
				C483.154-354.758,483.148-354.733,483.148-354.71z M467.862-354.064l-0.006,0.311c-0.132,0.203-0.149,0.478-0.024,0.705
				c0.006,0.018,0.019,0.035,0.03,0.054v-0.048l0.018,5.955c-0.149-0.376-0.286-0.759-0.43-1.141c0.161-1.654,0.239-3.352,0.364-5
				L467.862-354.064z M478.399-351.126l-0.216,1.918l0.078-2.461v-0.084c0.078-0.054,0.161-0.102,0.245-0.155
				C478.471-351.646,478.435-351.389,478.399-351.126z M491.636-351.144l-0.006,0.132l-0.09,1.152l0.007-0.161
				c0.012-0.358,0.029-0.723,0.041-1.087C491.606-351.126,491.624-351.138,491.636-351.144z M494.581-351.072l0.113,0.741v0.012
				c-0.065,0.06-0.125,0.119-0.191,0.18L494.581-351.072z M545.844-349.047c0.771,0.759,1.326,1.523,1.852,2.461
				c0.144,0.251,0.406,0.842,0.568,1.033c0.316,0.389,1.225,1.046,1.654,1.422c1.374,1.213,2.766,2.396,4.134,3.62
				c0.746,0.663,1.487,1.332,2.228,2.001c-3.446,2.885-6.714,6.087-10.059,9.079c-2.407,2.156-4.851,4.312-7.336,6.374
				c-0.549,0.447-1.104,0.89-1.66,1.332c-0.424-0.341-0.842-0.682-1.248-1.016c0.896-1.29,1.768-2.604,2.634-3.9
				c1.386-2.097,2.79-4.247,3.889-6.505c0.926-1.906,1.708-3.919,2.3-5.968c0.454-1.553,0.788-3.142,1.225-4.695
				c-0.688,0.389-1.23,1.236-1.75,1.828c-1.063,1.242-2.121,2.568-3.166,3.895l1.547-3.393c0.711-1.661,1.374-3.333,1.989-5
				c0.412-1.135,0.663-2.013,0.866-3.028C545.581-349.34,545.688-349.179,545.844-349.047z M474.062-347.034l-0.472,5.705
				l0.083-2.641c0.09-1.631,0.228-3.255,0.371-4.886c0.048-0.036,0.102-0.072,0.149-0.107
				C474.152-348.324,474.104-347.685,474.062-347.034z M484.73-345.636l0.006,0.041l-0.018,2.516
				c-0.018,2.49,0.06,4.916,0.186,7.395c0.012,0.364,0.06,1.123,0.137,1.953l-1.917,1.201c0.472-3.77,0.741-7.622,1.135-11.439
				l0.174-1.374l0.006-0.048C484.534-345.475,484.636-345.559,484.73-345.636z M480.233-343.707l-0.365,10.824
				c-0.012,0.299-0.023,0.609-0.035,0.914c-0.472,0.376-0.974,0.872-0.944,1.463c0.013,0.197-0.113,0.538,0.066,0.669l0.25-0.023
				l-0.771,0.388c0.329-1.338,0.49-2.766,0.699-4.104c0.132-0.824,0.263-1.654,0.347-2.484L480.233-343.707z M471.004-342.769
				l-0.035,0.615c-0.042,1.183-0.042,2.365,0.018,3.548c-0.149-0.4-0.293-0.807-0.437-1.207l0.096-0.418l0.006-0.179l0.197-1.153
				L471.004-342.769z M488.99-341.443l0.035,0.228c0.186,0.771,0.425,1.547,0.723,2.329c-0.34,0.514-0.698,1.027-1.075,1.518
				c0.048-0.621,0.096-1.248,0.144-1.869L488.99-341.443z M564.756-330.757c-0.998,0.628-1.983,1.332-2.927,2.007
				c-1.32,0.95-2.683,1.853-4.021,2.772c-4.318,2.98-9.104,6.421-12.926,10.411c-2.252-1.804-4.498-3.614-6.744-5.418
				c1.027-0.8,2.061-1.601,3.07-2.425c3.966-3.285,7.902-6.606,11.887-9.868c1.565-1.284,3.166-2.539,4.701-3.853
				C560.12-335.01,562.438-332.883,564.756-330.757z M475.168-333.72l0.161,4.295c0.018,0.418,0.023,0.872,0.071,1.309l-0.496,0.203
				c-0.25-0.688-0.507-1.38-0.758-2.067c0.334-0.131,0.603-0.418,0.717-0.854c0.215-0.891,0.227-1.828,0.292-2.742L475.168-333.72z
				 M479.791-330.649l-0.514,0.299l0.018-0.299c0.072-0.358,0.263-0.639,0.525-0.89
				C479.809-331.246,479.797-330.947,479.791-330.649z M571.648-324.521c-0.227,0.149-0.447,0.293-0.669,0.442
				c-1.451,0.932-2.885,1.888-4.324,2.837c-4.211,2.802-8.948,6.194-12.442,9.91c-0.573,0.604-1.171,1.225-1.744,1.857
				c-2.234-1.798-4.463-3.584-6.702-5.382c3.136-3.184,6.63-5.657,10.65-8.237c2.126-1.374,4.324-2.688,6.499-3.996
				c0.949-0.567,1.977-1.141,2.885-1.78c0.186-0.144,0.377-0.286,0.556-0.424C568.112-327.692,569.881-326.104,571.648-324.521z
				 M578.273-318.673h-0.03c-0.502,0.06-1.021,0.107-1.487,0.329c-0.418,0.197-0.759,0.525-1.123,0.807
				c-0.908,0.698-1.828,1.392-2.735,2.096c-4.176,3.22-8.841,6.553-12.132,10.723c-0.275,0.322-0.233,0.824,0.09,1.099
				c0.322,0.275,0.824,0.233,1.099-0.089c2.766-3.578,6.923-6.356,10.62-8.883c1.362-0.926,2.719-1.846,4.074-2.789
				c0.46-0.317,1.033-0.729,1.416-1.129c0.328-0.353,0.579-0.974,0.759-1.422c0.035-0.036,0.071-0.072,0.095-0.113
				c2.36,2.084,4.72,4.169,7.079,6.26c0.711,0.627,1.421,1.254,2.138,1.888c-1.373,0.788-2.735,1.679-3.906,2.503
				c-3.781,2.646-7.389,5.483-11.08,8.267c-1.404,1.052-2.826,2.037-4.266,3.005c-4.575-3.728-9.156-7.449-13.727-11.164
				c-0.502-0.406-0.997-0.812-1.499-1.219c3.99-4.498,8.912-7.676,14.085-10.854c1.905-1.177,3.961-2.216,5.896-3.375
				C576.152-320.494,578.674-318.261,578.273-318.673z M535.038-320.005c-0.149,0.12-0.305,0.245-0.448,0.371
				c-0.25,0.19-0.298,0.555-0.102,0.8c0.191,0.251,0.556,0.299,0.807,0.102c0.215-0.179,0.437-0.364,0.657-0.537
				c2.371,1.905,4.737,3.828,7.097,5.764c-0.52,0.628-1.016,1.272-1.476,1.93c-0.167,0.227-0.126,0.562,0.096,0.729
				c0.221,0.174,0.556,0.132,0.729-0.096c0.483-0.65,0.985-1.272,1.499-1.869c2.39,1.965,4.773,3.942,7.145,5.938
				c0.042,0.06,0.084,0.113,0.149,0.167c0.054,0.042,0.113,0.078,0.179,0.107c2.957,2.491,5.908,5,8.829,7.538
				c4.527,3.919,9.091,7.808,13.554,11.798c4.73,4.241,9.467,8.488,14.306,12.651c-0.036,0.024-0.048,0.036-0.054,0.048
				c-0.406,0.358-0.437,0.991-0.078,1.392c0.358,0.406,0.986,0.437,1.393,0.078c0.047-0.048,0.096-0.09,0.143-0.126
				c6.953,6.183,13.937,12.329,20.984,18.393c4.851,4.163,9.725,8.351,14.736,12.322c5.537,4.391,11.104,8.751,16.726,13.028
				c8.368,6.367,16.862,12.657,25.142,19.156c-0.203,0.299-0.406,0.598-0.604,0.896c-0.328,0.459-0.704,0.901-1.016,1.379
				c-0.328,0.496-0.782,0.992-1.152,1.458c-0.681,0.866-1.35,1.732-2.019,2.61c-1.589,2.073-3.399,4.122-5.078,6.128
				c-3.231,3.865-6.469,7.7-9.533,11.69c-0.663,0.854-1.355,1.774-1.941,2.712c0.006-0.024-0.006-0.036-0.018-0.042
				c-2.521-2.299-5.036-4.582-7.61-6.821c-4.432-3.865-9.02-7.562-13.595-11.248c-4.373-3.524-8.787-6.995-13.201-10.459
				c0.245-0.161,0.483-0.329,0.74-0.496c-0.472-0.399-1.397-0.382-1.989-0.46h-0.023c-2.748-2.191-5.514-4.349-8.268-6.517
				c-2.442-1.917-4.838-3.889-7.275-5.806c-1.768-1.393-3.578-2.82-5.28-4.283c-1.129-0.968-2.288-1.894-3.405-2.861
				c-1.308-1.123-2.753-2.432-4.002-3.429c-2.598-2.401-5.262-4.778-7.885-7.156c-2.896-2.634-5.681-5.412-8.565-8.063
				c-1.667-1.529-3.297-3.131-4.94-4.695c-2.896-2.777-5.842-5.573-8.805-8.279c-2.168-1.977-4.265-3.996-6.48-5.926
				c-1.763-1.529-3.477-3.147-5.203-4.713c-1.846-1.678-3.775-3.327-5.669-4.958c-3.105-2.664-6.296-5.221-9.432-7.843
				c-1.905-1.595-4.384-3.088-6.511-4.426c-2.3-1.458-4.594-2.886-6.911-4.266c0.788-0.621,1.577-1.26,2.365-1.917
				c7.599-6.332,14.056-13.78,20.047-21.623c0.197-0.264,0.4-0.526,0.597-0.801C534.603-320.357,534.817-320.189,535.038-320.005z
				 M596.456-302.574c-0.448,0.203-0.896,0.43-1.236,0.585c-1.046,0.472-2.15,0.926-3.154,1.47
				c-2.849,1.541-5.675,3.118-8.309,5.018c-1.989,1.439-3.697,2.938-5.466,4.647c-0.436,0.418-0.89,0.878-1.308,1.35
				c-2.449-2.007-4.91-4.014-7.359-6.021c1.941-1.291,3.877-2.575,5.817-3.896c3.137-2.156,6.422-4.443,9.772-6.271
				c1.619-0.884,3.244-1.702,4.929-2.432C592.245-306.271,594.354-304.426,596.456-302.574z M603.534-296.434
				c-0.489,0.071-0.974,0.167-1.439,0.299c-0.842,0.238-1.654,0.675-2.449,1.039c-1.296,0.598-2.532,1.236-3.805,1.876
				c-3.925,1.982-8.279,4.587-11.737,7.305c-0.466,0.358-0.926,0.741-1.386,1.117c-1.428-1.177-2.867-2.359-4.301-3.53
				c3.649-3.925,7.891-6.696,12.812-8.99c1.774-0.836,3.614-1.69,5.424-2.454c0.424-0.186,1.368-0.521,2.031-0.866
				C600.297-299.229,601.922-297.832,603.534-296.434z M375.312-297.838c8.028,0.006,16.074,0.107,24.114,0.245
				c-4.618,0.048-9.229,0.096-13.834,0.144c-10.865,0.107-21.725,0.09-32.584,0.113c-5.519,0.012-11.044,0.119-16.564,0.102
				c-4.169-0.012-8.327-0.048-12.49-0.06c-0.018-0.071-0.048-0.138-0.089-0.191c4.844-0.257,9.712-0.388,14.545-0.495
				c7.257-0.186,14.641-0.239,21.898-0.066C365.3-297.934,370.318-297.844,375.312-297.838z M317.854-297.073
				c0.639-0.06,1.278-0.113,1.923-0.155c0.239-0.06,0.454-0.029,0.155,0.036c-0.496,0.149-0.824,0.591-0.824,1.123
				c-0.006,0.687,0.543,1.254,1.23,1.261c4.689,0.148,9.372,0.221,14.067,0.346c5.358,0.155,10.722,0.316,16.081,0.395
				c6.021,0.09,12.048,0.065,18.069,0.09c13.35,0.048,26.712-0.036,40.063-0.174c23.881-0.238,47.756-0.447,71.644-0.52
				c0.132,0,0.263-0.018,0.395-0.048c0.884,2.073,1.798,4.11,2.861,6.135c0.096,0.215,0.215,0.406,0.353,0.586
				c0.161,0.717,0.299,1.439,0.441,2.162c-1.428-0.711-2.879-1.368-4.36-1.959c-0.657-0.27-1.422,0.047-1.69,0.704
				s0.048,1.422,0.705,1.69c1.995,0.729,3.966,1.655,5.896,2.718c0.042,0.245,0.084,0.502,0.179,0.735
				c0.138,0.328,0.502,0.8,0.705,1.099c0.634,0.92,1.338,1.846,2.079,2.777c-0.096,0.144-0.113,0.347-0.024,0.515
				c0.132,0.25,0.448,0.358,0.699,0.227h0.006c1.523,1.924,3.262,3.775,4.922,5.43c1.625,1.613,3.208,3.31,4.893,4.868
				c1.332,1.23,2.628,2.509,3.96,3.739c2.855,2.629,5.753,5.221,8.668,7.789c5.125,4.498,10.394,8.805,15.644,13.147
				c3.542,2.927,7.198,5.74,10.794,8.602c1.141,0.902,2.288,1.805,3.429,2.706c-0.55,0.317-1.093,0.634-1.637,0.962
				c-0.155,0.09-0.215,0.299-0.125,0.46c0.083,0.155,0.299,0.215,0.453,0.126c0.622-0.377,1.255-0.741,1.9-1.094
				c6.803,5.322,13.738,10.531,20.691,15.639c1.995,1.469,3.996,2.933,6.057,4.443c1.518,1.314,3.101,2.682,4.671,4.057
				c2.025,1.768,4.068,3.536,6.123,5.292c-0.353,24.951-0.37,49.919-0.478,74.882c-0.197,44.525-0.299,89.044-0.168,133.569
				c0.03,9.002,0.239,18.01,0.365,27.012c0.054,3.769,0.095,7.544,0.137,11.313c-0.06-0.012-0.113-0.024-0.173-0.024
				c-0.771-0.078-1.476,0.484-1.554,1.26c-0.364,2.634-0.006,5.454,0.425,8.184l0.023-0.036l-1.123,2.037l-0.447-0.03
				c-1.278,0.155-2.187,1.338-2.031,2.616l0.113,0.418l-0.8,0.777c-0.406,0.364-0.831,0.711-1.261,1.033
				c-0.717,0.532-1.601,1.219-2.396,1.595c-0.974,0.454-1.924,0.825-2.879,1.105c-0.389-0.186-0.812-0.293-1.261-0.293
				c-1.313,0.06-2.652,0.006-3.972,0.012c-3.202,0.018-6.422-0.066-9.629-0.108c-1.272-0.018-2.539-0.036-3.812-0.06
				c3.178-0.466,6.338-1.027,9.432-1.696c2.825-0.615,5.442-1.481,8.202-2.282c0.436-0.131,0.687-0.598,0.555-1.028
				c-0.125-0.436-0.591-0.687-1.027-0.562c-0.872,0.18-1.786,0.478-2.664,0.688c-0.854,0.209-1.72,0.37-2.574,0.573
				c-1.882,0.46-3.996,0.8-5.914,1.099c-2.233,0.346-4.449,0.741-6.701,1.045c-5.753,0.776-11.541,1.35-17.329,1.786
				c-0.239-0.006-0.478-0.012-0.705-0.012c-5.662-0.12-11.331-0.299-17-0.418c-5.746-0.113-11.48-0.155-17.221-0.227
				c-5.472-0.072-10.943-0.179-16.415-0.203c-3.739-0.018-7.467,0.024-11.194,0.054c-3.064,0.024-6.183-0.006-9.24,0.107
				c-6.016,0.215-12.036,0.55-18.04,1.01c-0.311-0.024-0.627-0.048-0.938-0.066c0.227-0.185,0.448-0.371,0.675-0.549
				c0.353-0.287,0.4-0.818,0.113-1.171c-0.286-0.353-0.818-0.4-1.17-0.107c-0.669,0.543-1.345,1.093-2.008,1.648
				c-0.215-0.018-0.43-0.036-0.645-0.048c-2.515-0.191-5.023-0.525-7.538-0.735c-0.646-0.054-1.272-0.167-1.912-0.25
				c-1.254-0.167-2.479-0.317-3.715-0.52c1.48-2.121,3.542-4.104,5.417-5.812c0.281-0.281,0.287-0.747,0.007-1.027
				c-0.281-0.281-0.747-0.287-1.028-0.006c-0.836,0.8-1.63,1.643-2.448,2.455c-0.55,0.549-1.105,1.087-1.596,1.678
				c-0.633,0.759-1.403,1.571-1.929,2.443c-3.656-0.657-7.484-1.523-11.141-2.826c0.228-0.274,0.454-0.543,0.717-0.806
				c1.487-1.529,3.16-2.891,4.893-4.14c1.738-1.26,3.482-2.503,5.215-3.763c0.663-0.484,1.278-1.069,1.947-1.559
				c0.322-0.269,0.37-0.765,0.102-1.087c-0.27-0.323-0.765-0.365-1.088-0.096c-1.188,0.961-2.306,1.971-3.524,2.909
				c-1.965,1.511-3.972,2.993-5.848,4.599c-1.016,0.866-1.905,1.81-2.837,2.748c-0.239,0.233-0.472,0.501-0.699,0.788
				c-1.313-0.514-2.604-1.075-3.841-1.708c0.215-0.048,0.418-0.162,0.579-0.334c0.406-0.442,0.371-1.135-0.071-1.542
				c-1.267-1.183-2.545-2.341-3.805-3.524c0.692-0.723,1.415-1.416,2.091-2.085c1.612-1.63,3.255-3.058,4.987-4.551
				c1.541-1.333,3.195-2.635,4.797-3.883c2.521-1.965,5.029-4.05,7.64-5.89c0.364-0.269,0.442-0.807,0.167-1.171
				c-0.269-0.358-0.8-0.436-1.164-0.167c-0.938,0.657-1.888,1.38-2.778,2.085c-1.959,1.547-4.079,3.017-5.961,4.653
				c-1.601,1.404-3.178,2.766-4.749,4.211c-1.464,1.344-2.999,2.76-4.343,4.217c-0.543,0.573-1.045,1.165-1.535,1.78
				c-0.096-0.09-0.179-0.18-0.269-0.263c-0.64-1.452-1.225-2.987-1.762-4.593c-0.09-0.257-0.168-0.508-0.251-0.759
				c1.451-1.105,2.908-2.21,4.378-3.273c0.299-0.221,0.364-0.663,0.144-0.961c-0.228-0.299-0.663-0.365-0.968-0.138
				c-1.338,0.968-2.664,1.965-3.979,2.963c-0.316-1.123-0.591-2.246-0.842-3.393c0.74-0.866,1.511-1.702,2.294-2.539
				c1.804-1.941,3.763-3.847,5.776-5.573c3.446-2.957,7.281-6.212,11.182-8.542c0.358-0.227,0.466-0.717,0.239-1.075
				c-0.233-0.358-0.724-0.466-1.081-0.239c-4.391,2.652-8.812,6.392-12.484,9.934c-2.15,2.067-4.343,4.134-6.255,6.428
				c-0.495-2.658-0.848-5.346-1.129-8.022c0.526-0.406,1.058-0.824,1.577-1.242c1.183-0.974,2.317-2.055,3.447-3.088
				c0.729-0.663,1.403-1.41,2.084-2.121c1.888-1.977,3.812-3.99,5.788-5.878c0.335-0.334,0.335-0.89,0-1.224h-1.218
				c-2.646,2.497-5.048,5.304-7.646,7.849c-0.299,0.287-0.591,0.591-0.884,0.896c0.018-0.173,0.018-0.346,0.006-0.52
				c-0.328-2.306-0.627-4.563-0.872-6.863c0.878-0.872,1.756-1.738,2.628-2.616c5.788-5.83,11.522-11.457,18.117-16.367
				c0.437-0.358,0.508-1.016,0.149-1.458s-1.016-0.508-1.457-0.155c-3.501,2.951-6.81,5.919-10.035,9.175
				c-3.244,3.255-6.344,6.66-9.552,9.963c-0.437-4.713-0.639-9.521-0.651-14.294c1.123-1.021,2.271-2.025,3.357-3.082
				c5.943-5.806,12.222-11.302,19.252-15.734c0.502-0.329,0.651-1.015,0.322-1.517c-0.328-0.508-1.016-0.651-1.522-0.323
				c-0.837,0.466-1.78,1.177-2.563,1.745c-2.258,1.66-4.36,3.339-6.498,5.161c-2.3,1.971-4.534,3.99-6.75,6.063
				c-1.5,1.398-3.083,2.802-4.492,4.277c-0.37,0.382-0.734,0.765-1.1,1.147c0.007-1.129,0.03-2.252,0.061-3.369
				c0.048-1.977-0.024-3.978-0.006-5.961c0.006-1.392,0.023-2.801,0.054-4.205c0.842-0.705,1.678-1.386,2.49-2.049
				c5.705-4.719,11.63-9.289,17.657-13.565c0.358-0.269,0.437-0.794,0.167-1.153c-0.269-0.358-0.794-0.43-1.152-0.161
				c-1.774,1.308-3.488,2.7-5.245,4.038c-2.598,1.965-5.28,3.99-7.777,6.081c-1.971,1.649-4.067,3.208-5.973,4.934
				c-0.042,0.03-0.084,0.065-0.126,0.102c0.054-1.792,0.132-3.59,0.239-5.376c0.328,0.03,0.669-0.09,0.902-0.358
				c2.741-3.106,4.934-6.571,7.58-9.761c0.878-1.069,2.084-2.031,3.166-2.885c0.555-0.478,0.621-1.32,0.148-1.87
				c-0.478-0.556-1.319-0.627-1.875-0.149c-0.525,0.46-1.141,0.961-1.631,1.458c-2.3,2.33-4.331,5.465-6.117,8.201
				c-0.591,0.902-1.271,1.727-1.959,2.545c0.078-0.944,0.174-1.888,0.287-2.813c0.065-0.717-0.472-1.356-1.188-1.422
				c-0.544-0.054-1.046,0.239-1.278,0.699c-0.061-0.125-0.126-0.245-0.191-0.335c-0.233-0.328-0.526-0.573-0.86-0.734
				c2.718-2.067,5.441-4.092,8.214-6.093c1.63-1.183,3.327-2.36,4.916-3.584c1.528-1.183,3.1-2.342,4.641-3.513
				c1.858-1.403,3.614-2.945,5.424-4.39c0.508-0.442,0.562-1.219,0.12-1.727c-0.442-0.501-1.219-0.555-1.727-0.119
				c-0.86,0.741-1.667,1.571-2.533,2.312c-2.15,1.852-4.271,3.763-6.505,5.531c-1.929,1.523-3.853,3.083-5.776,4.624
				c-2.825,2.27-5.65,4.474-8.428,6.756c-0.358,0.072-0.705,0.221-1.004,0.436c-0.531,0.37-1.027,0.741-1.601,1.045
				c-0.215,0.119-0.532,0.143-0.807,0.281c-0.741,0.37-1.475,0.687-2.222,0.967c1.272-1.475,2.617-2.879,3.973-4.283
				c1.045-1.087,2.066-2.204,3.118-3.273c1.351-1.38,2.802-3.148,3.937-4.719c0.514-0.711,0.962-1.458,1.451-2.18
				c0.419-0.723,0.174-1.661-0.549-2.073c-0.717-0.418-1.655-0.179-2.067,0.543c-0.878,1.511-1.618,2.831-2.652,4.295
				c-1.774,2.509-4.044,4.981-6.087,7.27c-1.541,1.714-2.98,3.44-4.396,5.256c-2.509,0.609-4.797,0.794-7.162,0.884
				c0.991-1.368,2.043-2.694,3.202-4.032c3.034-3.518,6.469-6.564,9.856-9.719c1.225-1.146,2.401-2.365,3.614-3.524
				c0.657-0.646,0.663-1.708,0.018-2.366c-0.645-0.657-1.708-0.663-2.366-0.018c-4.205,3.972-8.147,8.452-11.809,12.932
				c-1.41,1.726-2.682,3.477-3.972,5.292c-0.329,0.448-0.657,0.92-0.986,1.41c-0.824-0.042-1.637-0.102-2.455-0.102
				c-0.758-0.006-1.583-0.155-2.341-0.233c-0.329-0.036-0.651-0.078-0.974-0.114c8.792-9.629,19.581-17.998,29.89-25.5
				c4.176-3.041,8.237-6.236,12.425-9.265c0.538-0.394,0.646-1.153,0.257-1.685c-0.395-0.532-1.152-0.645-1.69-0.251
				c-2.072,1.487-4.128,3.07-6.177,4.618c-1.863,1.416-3.774,2.795-5.62,4.235c-3.841,2.975-7.623,6.188-11.296,9.366
				c-6.26,5.406-12.198,10.919-17.771,17.036c-0.395,0.424-0.789,0.86-1.177,1.296c-0.221-0.036-0.448-0.065-0.669-0.095
				c0.239-0.347,0.478-0.687,0.735-1.004c1.141-1.416,2.198-2.831,3.405-4.211c1.04-1.195,2.174-2.33,3.286-3.458
				c1.165-1.183,2.353-2.383,3.59-3.489c1.386-1.236,2.7-2.574,4.104-3.799c0.562-0.562,0.567-1.487,0.006-2.049
				c-0.567-0.562-1.487-0.567-2.049-0.006c-5.4,5.668-10.608,11.218-14.999,17.693c-2.293-0.424-4.582-0.938-6.839-1.559
				c5.245-6.17,10.896-12.586,17.496-17.227c0.514-0.412,0.603-1.165,0.191-1.679c-0.412-0.507-1.171-0.597-1.679-0.185
				c-1.606,1.374-3.118,2.712-4.623,4.193c-2.837,2.802-5.382,5.914-7.957,8.954c-1.571,1.857-3.142,3.721-4.713,5.579
				c-1.326-0.388-2.646-0.818-3.948-1.284c-0.646-0.233-1.302-0.472-1.948-0.717c0.036-0.03,0.072-0.072,0.102-0.107
				c1.643-2.438,3.746-4.528,5.896-6.523c2.544-2.366,5.232-4.582,7.748-6.965c1.583-1.499,3.327-3.13,4.659-4.85
				c0.364-0.472,0.74-0.95,1.087-1.422c0.323-0.442,0.58-0.938,0.908-1.379c0.352-0.568,0.173-1.333-0.395-1.685
				c-0.567-0.353-1.332-0.179-1.685,0.394c-1.218,1.989-2.401,3.781-3.996,5.507c-3.046,3.279-6.35,6.266-9.551,9.402
				c-2.132,2.09-4.158,4.199-5.848,6.678c-0.102,0.143-0.149,0.322-0.131,0.49c-0.842-0.323-1.678-0.657-2.509-1.01
				c0.108-0.102,0.209-0.215,0.311-0.322c0.568-0.609,1.087-1.308,1.631-1.941c1.362-1.571,2.599-3.273,3.942-4.862
				c2.586-3.064,4.761-5.382,8.022-7.622c0.603-0.412,0.758-1.249,0.352-1.852c-0.412-0.609-1.254-0.765-1.857-0.353
				c-3.65,2.359-6.177,5.842-8.751,9.3c-1.541,2.067-3.041,4.217-4.731,6.17c-0.215,0.239-0.436,0.478-0.669,0.711
				c-0.699-0.316-1.386-0.645-2.055-0.992c-0.753-0.388-1.488-0.771-2.222-1.177c6.355-8.404,15.16-14.551,23.326-21.062
				c1.798-1.434,3.763-3.004,5.418-4.587c0.675-0.645,1.434-1.302,2.073-1.965c0.633-0.657,1.278-1.338,1.936-1.965
				c0.334-0.341,0.328-0.896-0.012-1.23s-0.896-0.329-1.23,0.012c-1.487,1.404-2.843,2.957-4.408,4.295
				c-1.249,1.063-2.473,2.186-3.709,3.261c-2.037,1.78-4.223,3.513-6.32,5.227c-2.509,2.055-4.988,4.139-7.449,6.248
				c-0.926,0.788-1.792,1.648-2.694,2.455c-0.794,0.705-1.559,1.493-2.3,2.246c-0.472,0.49-0.986,0.956-1.428,1.481
				c-1.422,1.714-2.795,3.321-4.104,5.083c-3.286-1.846-6.434-3.895-9.349-6.236c1.404-1.093,2.885-2.401,4.169-3.596
				c4.367-4.098,8.686-8.243,13.076-12.311c3.763-3.489,8.625-7.831,13.279-10.023c0.478-0.257,0.663-0.878,0.4-1.356
				c-0.257-0.484-0.872-0.663-1.356-0.406c-8.44,4.396-14.342,11.361-20.949,18.034c-2.527,2.55-5.012,5.053-7.7,7.425
				c-0.597,0.514-1.218,1.009-1.84,1.499c-2.688-2.246-5.173-4.743-7.371-7.538c-0.472-0.604-0.914-1.219-1.326-1.846
				c0.603-0.442,1.212-0.884,1.84-1.314c2.473-1.738,5.047-3.345,7.556-5.029c0.914-0.609,1.828-1.207,2.736-1.822
				c0.979-0.663,1.935-1.416,2.927-2.055c2.599-1.667,4.791-4.021,7.222-5.872c0.329-0.299,0.353-0.818,0.054-1.147
				c-0.305-0.329-0.818-0.352-1.147-0.054c-0.609,0.562-1.183,1.165-1.81,1.708c-2.73,2.377-5.752,4.88-8.715,6.935
				c-1.009,0.693-2.001,1.439-2.993,2.15c-2.21,1.583-4.498,3.088-6.678,4.707c-0.496,0.364-0.979,0.723-1.463,1.087
				c-0.418-0.645-0.824-1.296-1.225-1.947c-0.263-0.412-0.501-0.848-0.734-1.302c-0.466-2.437-0.771-4.958-1.04-7.413
				c0.866-1.003,1.78-1.971,2.771-2.891c0.681-0.633,2.521-1.959,3.458-2.264l-0.274-0.292c-0.98,0.353-2.682,1.619-3.411,2.3
				c-0.926,0.86-1.786,1.762-2.598,2.7c-0.012-0.137-0.03-0.281-0.042-0.418c-0.651-6.045-1.039-12.054-1.314-18.082
				c0.52-0.699,1.057-1.386,1.577-2.079c0.162-0.203,0.114-0.508-0.095-0.669c-0.203-0.155-0.508-0.107-0.669,0.096
				c-0.293,0.388-0.585,0.776-0.884,1.165c-0.203-4.791-0.353-9.581-0.514-14.384c-0.048-1.439-0.042-2.897-0.089-4.342
				c-0.275-8.895-0.604-17.771-0.807-26.671c-0.03-1.248-0.06-2.491-0.083-3.727c0.191-1.332,0.364-2.67,0.538-3.996
				c0.687-5.549,1.266-11.14,1.648-16.719c0.442-6.41,0.645-12.795,0.794-19.216c0.155-6.959,0.257-13.918,0.269-20.877
				c0.024-13.183-0.09-26.444-0.693-39.61c-0.323-7.03-0.735-14.055-1.147-21.067c0.334-6.511,0.741-13.016,1.254-19.521
				c0.281-3.62,0.735-7.204,1.135-10.788c0.138-1.207,0.287-2.7,0.562-3.864c0.197-0.854,0.287-1.792,0.49-2.646
				c0.162-0.651,0.358-1.314,0.502-1.953c0.048-0.197,0.275-0.926,0.382-1.075c0.46-1.225-0.149-2.599-1.368-3.059
				c-1.225-0.466-2.598,0.144-3.058,1.368c-0.263,0.447-0.49,1.177-0.693,1.953c-0.687-1.541-1.225-3.082-1.003-4.725l0.102-0.437
				l0.203-0.096c0.55-0.209,1.117-0.364,1.703-0.466C317.215-297.115,317.525-297.055,317.854-297.073z M610.153-290.765
				c-5.729,2.849-10.597,6.564-15.608,10.53c-1.046,0.824-2.121,1.703-3.172,2.604c-2.407-2.001-4.82-3.996-7.228-5.991
				c0.346-0.28,0.704-0.567,1.062-0.83c3.005-2.24,6.434-4.224,9.809-5.866c1.72-0.83,3.44-1.672,5.173-2.484
				c0.932-0.442,1.953-0.837,2.808-1.41c0.556-0.376,1.087-0.842,1.589-1.313C606.432-293.937,608.289-292.354,610.153-290.765z
				 M515.284-290.921c1.338,1.159,2.683,2.3,3.99,3.495c0.866,0.788,1.702,1.666,2.629,2.383c1.434,1.117,2.86,2.312,4.271,3.524
				c-1.637,0.113-3.686,0.849-4.832,1.129c-1.834,0.442-3.764,1.171-5.556,1.798c-4.498,1.577-8.787,3.488-13.129,5.4
				c-2.784-2.384-5.646-4.671-8.62-6.773c3.596-1.542,7.275-2.844,11.021-4.128c1.731-0.592,3.464-1.219,5.196-1.804
				c1.637-0.544,3.345-1.069,4.797-2.031c0.478-0.197,0.704-0.753,0.508-1.236c-0.102-0.239-0.293-0.424-0.514-0.514h-0.724
				c-1.469,0.286-2.419,0.86-3.757,1.434c-1.493,0.639-2.98,1.284-4.468,1.923c-2.718,1.159-5.483,2.229-8.195,3.405
				c-1.56,0.663-3.082,1.35-4.588,2.061c-0.441-0.878-0.884-1.738-1.302-2.604c-0.096-0.221-0.186-0.441-0.281-0.669
				c0.824-0.322,1.643-0.681,2.438-1.051c0.4-0.186,0.907-0.466,1.308-0.622c0.377-0.143,0.473-0.37,0.789-0.543
				c0.597-0.329,1.219-0.604,1.804-0.938c0.782-0.442,1.601-0.92,2.39-1.345c0.949-0.508,1.936-1.146,2.849-1.744
				c2.324-1.517,4.486-3.052,6.612-4.683C511.79-293.77,513.618-292.36,515.284-290.921z M621.138-281.602
				c-1.003,0.525-1.983,1.081-2.938,1.624c-4.63,2.635-9.025,5.562-13.571,8.327c-1.243,0.747-2.474,1.476-3.722,2.192
				c-2.539-2.217-5.071-4.444-7.646-6.595c-0.09-0.078-0.18-0.149-0.263-0.227c1.373-1.147,2.783-2.271,4.271-3.31
				c4.725-3.315,9.736-6.284,14.999-8.667c0.186-0.09,0.334-0.21,0.466-0.358C615.553-286.297,618.343-283.943,621.138-281.602z
				 M314.76-285.258c-0.096,0.609-0.179,1.219-0.251,1.828c-0.113-1.219-0.227-2.443-0.287-3.668
				C314.467-286.398,314.61-285.867,314.76-285.258z M529.25-278.824c1.769,1.553,3.53,3.124,5.274,4.707
				c-2.622,0.872-5.089,1.696-7.651,2.771c-3.273,1.368-6.338,3.059-9.498,4.653c-1.601,0.807-3.172,1.714-4.713,2.628
				c-2.98-2.813-5.991-5.633-9.098-8.339c4.833-2.126,9.725-4.276,14.748-5.859c1.846-0.58,3.656-1.058,5.52-1.565
				c0.86-0.238,2.008-0.364,2.796-0.692c0.144-0.066,0.293-0.138,0.448-0.222C527.799-280.097,528.527-279.458,529.25-278.824z
				 M624.949-278.418l3.231,2.718c-2.24,1.111-4.433,2.407-6.409,3.649c-1.147,0.717-2.342,1.41-3.417,2.223
				c-1.953,1.451-3.841,2.986-5.794,4.449c-0.538,0.406-1.027,1.069-1.476,1.577c-0.532,0.592-1.093,1.165-1.69,1.685
				c-2.432-2.108-4.862-4.205-7.287-6.302c-0.162-0.138-0.312-0.274-0.467-0.4c1.983-1.087,3.967-2.15,5.92-3.268
				c3.231-1.846,6.857-3.799,10.292-5.274c1.027-0.441,2.043-0.955,3.082-1.361c0.831-0.329,1.661-0.646,2.497-0.968
				C623.934-279.267,624.441-278.843,624.949-278.418z M630.456-273.783l0.024,0.019l4.539,3.822
				c-0.729,0.347-1.451,0.699-2.162,1.046c-3.446,1.648-7.103,3.626-10.334,5.668c-1.708,1.088-3.362,2.198-5.047,3.321
				c-1.01,0.669-1.906,1.577-2.861,2.336c-0.353-0.299-0.705-0.604-1.052-0.902c-1.158-1.015-2.317-2.03-3.47-3.04
				c0.615-0.454,1.266-0.854,1.935-1.23c0.621-0.353,1.303-0.604,1.864-1.058c1.857-1.511,3.889-2.76,5.913-4.032
				c1.595-1.003,3.16-2.09,4.803-3.016c1.792-1.01,3.572-1.828,5.412-2.719C630.157-273.64,630.307-273.711,630.456-273.783z
				 M562.868-247.333c1.936,1.828,3.858,3.661,5.788,5.495c-0.687,0.096-1.338,0.281-2.139,0.466
				c-2.359,0.532-4.677,1.261-6.965,2.05c-3.918,1.344-7.891,2.902-11.749,4.688c-4.929-4.05-9.94-7.998-14.945-11.952
				c3.088-1.721,6.308-3.106,9.683-4.45c0.633-0.251,1.278-0.437,1.899-0.688c0.979-0.4,2.001-0.794,3.005-1.123
				c0.609-0.197,1.242-0.394,1.84-0.615c0.549-0.203,1.081-0.269,1.601-0.573c0.508-0.299,0.866-0.621,1.308-0.979
				c0.18-0.036,0.287-0.228,0.245-0.4c-0.042-0.179-0.232-0.286-0.406-0.245c-0.573-0.089-1.158-0.227-1.738-0.173
				c-0.866,0.077-2.007,0.544-2.813,0.83c-0.758,0.275-1.523,0.508-2.27,0.807c-0.734,0.293-1.506,0.556-2.229,0.884
				c-1.69,0.753-3.41,1.625-5.029,2.515c-2.049,1.123-4.062,2.265-6.027,3.477c-1.225-0.968-2.448-1.936-3.673-2.902
				c-1.356-1.094-2.688-2.192-4.003-3.31c0.048-0.03,0.084-0.054,0.132-0.078c0.741-0.441,1.481-0.884,2.222-1.332
				c0.885-0.531,1.87-0.943,2.79-1.428c0.489-0.257,1.058-0.441,1.565-0.681c1.738-0.794,3.631-1.476,5.436-2.114
				c2.706-0.962,5.376-1.936,8.063-2.933c0.395-0.144,0.598-0.598,0.454-0.992c-0.149-0.395-0.604-0.598-0.997-0.454
				c-2.36,0.824-4.755,1.69-7.073,2.629c-4.719,1.894-9.359,3.774-13.547,6.57c-2.426-2.091-4.797-4.229-7.15-6.439
				c-0.836-0.782-1.673-1.577-2.509-2.365c0.693-0.37,1.38-0.734,2.055-1.111c4.391-2.473,9.121-4.605,13.847-6.355
				c1.863-0.687,3.757-1.428,5.656-1.995c0.222-0.077,0.395-0.251,0.484-0.454C544.889-264.649,553.818-255.904,562.868-247.333z
				 M506.688-265.426c0.741,0.723,1.481,1.457,2.265,2.228c-1.255-1.141-2.461-2.252-3.674-3.345
				c-1.117-0.998-2.198-2.037-3.279-3.064c-0.466-0.442-0.944-0.872-1.398-1.326C502.752-269.237,504.735-267.344,506.688-265.426z
				 M637.559-267.804l0.012,0.012l4.098,3.453c-0.567,0.263-1.081,0.597-1.631,0.92c-1.188,0.698-2.383,1.397-3.571,2.097
				c-5.06,2.963-10.215,5.734-15.137,8.93c-0.113,0.065-0.197,0.161-0.251,0.269c-1.648-1.361-3.279-2.729-4.904-4.115
				c0.902-0.693,1.894-1.284,2.826-1.941c3.59-2.568,7.812-4.73,11.845-6.522C633.091-265.707,635.301-266.806,637.559-267.804z
				 M643.693-262.631l0.096,0.078L643.693-262.631z M643.789-262.553l7.048,5.932c-0.71,0.071-1.434,0.203-2.013,0.418
				c-5.023,1.875-9.646,5.304-13.625,8.84c-1.29,1.142-2.635,2.318-3.877,3.537c-3.094-2.455-6.17-4.935-9.217-7.443
				c4.247-2.718,8.841-5.071,13.44-7.15c1.81-0.818,3.638-1.66,5.43-2.521c0.579-0.28,1.23-0.55,1.792-0.86
				C643.107-261.997,643.454-262.254,643.789-262.553z M652.671-254.806l0.646,0.646c1.135,1.225,2.306,2.496,3.471,3.697
				c0.113,0.125,0.238,0.251,0.358,0.376c-0.747,0.191-1.476,0.418-2.097,0.669c-0.872,0.341-1.69,0.83-2.521,1.267
				c-0.806,0.418-1.678,0.884-2.437,1.374c-1.523,0.991-3.07,1.905-4.575,2.938c-2.51,1.709-4.994,3.482-7.443,5.28
				c-0.872-0.669-1.744-1.344-2.604-2.019c-0.723-0.562-1.445-1.123-2.168-1.696c2.204-2.091,4.498-4.092,6.94-5.884
				c0.598-0.442,1.255-0.968,1.876-1.362c0.896-0.562,1.769-1.087,2.676-1.637C647.241-252.631,650.079-253.533,652.671-254.806z
				 M660.149-246.777c1.01,1.135,2.037,2.264,3.059,3.393c-2.599,1.29-5.143,2.867-7.532,4.51c-1.374,0.944-2.808,2.169-4.098,3.22
				c-1.267,1.033-2.562,2.025-3.847,3.028c-0.329,0.251-0.508,0.621-0.526,1.004c-2.448-1.846-4.903-3.703-7.347-5.562
				c2.891-2.055,5.771-4.079,8.805-5.932c2.425-1.493,4.832-2.604,7.341-3.876c0.896-0.46,1.763-0.968,2.629-1.476
				C659.146-247.9,659.648-247.333,660.149-246.777z M666.23-240.021l1.188,1.326l-0.28,0.185c-0.412,0.604-0.598,1.362-0.448,2.133
				c0.203,1.403,0.525,2.808,0.729,4.224c0.168,1.188,0.317,2.377,0.442,3.565c-2.909,1.56-5.842,3.459-7.992,5.681
				c-0.209,0.186-0.287,0.466-0.251,0.729c-1.769-1.344-3.536-2.682-5.298-4.031c-1.78-1.368-3.566-2.719-5.347-4.074
				c0.132-0.042,0.269-0.113,0.389-0.203c2.473-1.936,5.035-3.68,7.628-5.43c2.043-1.38,4.229-2.819,6.421-3.937
				c0.699-0.358,1.392-0.675,2.091-0.985C665.747-240.571,665.985-240.297,666.23-240.021z M575.705-235.285
				c0.358,0.323,0.717,0.646,1.081,0.968c-6.481,1.69-14.05,3.662-19.957,7.258c-2.533-2.162-5.071-4.307-7.628-6.421
				c-0.203-0.174-0.406-0.335-0.604-0.502c1.972-0.801,3.961-1.518,5.914-2.156c1.104-0.358,2.246-0.657,3.362-1.004
				c2.683-0.824,5.646-1.397,8.393-2.055c1.518-0.364,2.641-0.496,3.961-1.159C572.037-238.647,573.854-236.957,575.705-235.285z
				 M585.125-227.131c-0.634,0.096-1.261,0.215-1.811,0.34c-1.093,0.258-2.168,0.461-3.255,0.765
				c-0.908,0.257-1.804,0.573-2.706,0.843c-0.604,0.179-1.261,0.483-1.857,0.729c-0.801,0.334-1.59,0.639-2.384,1.01
				c-2.58,1.206-5.089,2.479-7.538,3.889c-2.461-2.115-4.928-4.235-7.396-6.35c1.069-0.609,2.198-1.141,3.244-1.584
				c0.675-0.28,1.344-0.585,2.019-0.848c4.408-1.715,9.462-2.766,14.043-3.948c0.377-0.096,0.651-0.389,0.747-0.741
				C580.501-231.02,582.801-229.061,585.125-227.131z M668.214-224.443c0.09,1.422,0.185,3.076,0.125,4.492l0.036,1.021
				l-0.071,0.914l0.089-0.341l0.054,1.392c0.072,0.371,0.216,0.46,0.395,0.777c0.347,0.621,1.069,1.08,1.769,1.182
				c0.071,0.006,0.155,0.036,0.232,0.066l-0.609,0.92c-1.553-1.207-3.1-2.432-4.659-3.626c-1.679-1.296-3.356-2.575-5.041-3.847
				c0.167-0.018,0.341-0.096,0.472-0.221c1.66-1.852,4.349-3.411,7.078-4.611C668.13-225.703,668.178-225.076,668.214-224.443z
				 M587.83-224.903c2.127,1.738,4.266,3.477,6.41,5.209c-1.619,0.364-3.393,0.985-4.636,1.452
				c-2.909,1.092-5.896,2.532-8.673,3.947c-1.953,0.986-3.948,1.857-5.92,2.79c-2.097-1.792-4.199-3.584-6.296-5.37
				c-0.687-0.586-1.368-1.165-2.055-1.75c2.938-1.571,6.015-2.867,9.169-3.967c0.836-0.293,1.738-0.604,2.61-0.812
				c0.776-0.185,1.56-0.418,2.323-0.656c1.84-0.556,4.343-1.01,6.267-1.165c0.107-0.019,0.203-0.048,0.299-0.084
				C587.496-225.178,587.657-225.047,587.83-224.903z M604.107-211.834c-3.237,1.07-6.433,2.127-9.545,3.549
				c-2.473,1.135-4.845,2.449-7.126,3.912c-0.46,0.287-0.968,0.609-1.458,0.944c-0.508-0.358-1.009-0.717-1.517-1.075
				c-2.336-1.661-4.701-3.279-7.031-4.933c-0.489-0.419-0.974-0.837-1.463-1.255c1.499-0.705,3.082-1.339,4.581-2.025
				c3.011-1.397,6.397-2.849,9.575-3.793c1.165-0.347,2.426-0.782,3.603-1.039c0.866-0.186,1.678-0.341,2.484-0.55
				C598.834-215.99,601.462-213.9,604.107-211.834z M315.399-184.052c-0.072,5.603-0.179,11.194-0.293,16.803
				c-0.03,1.416-0.071,2.832-0.113,4.271c-0.006-2.945-0.006-5.872-0.006-8.787c0-12.926,0.095-25.876,0.352-38.958
				C315.464-201.732,315.512-192.892,315.399-184.052z M615.481-202.921c-0.872,0.149-1.738,0.4-2.581,0.633
				c-1.714,0.472-3.404,1.045-5.083,1.625c-0.765,0.263-1.589,0.532-2.336,0.854c-2.969,1.278-5.913,2.604-8.87,3.9
				c-2.078-1.535-4.205-3.088-6.326-4.528c-0.943-0.639-1.875-1.29-2.812-1.941c4.133-2.837,9.211-4.808,13.876-6.26
				c1.505-0.466,3.105-0.872,4.641-1.236c0.155-0.042,0.329-0.084,0.49-0.12C609.496-207.652,612.494-205.292,615.481-202.921z
				 M623.24-196.703c1.225,0.986,2.438,1.971,3.65,2.969c-1.184,0.125-2.33,0.406-3.507,0.717
				c-5.269,1.392-10.62,3.184-14.903,6.654c-0.328,0.239-0.395,0.705-0.161,1.033c0.232,0.335,0.705,0.4,1.033,0.167
				c2.24-1.672,4.761-3.124,7.401-4.068c0.782-0.281,1.576-0.52,2.354-0.789c2.509-0.866,5.268-1.236,7.783-2.055
				c0.453-0.149,0.896-0.346,1.332-0.567c2.735,2.264,5.436,4.558,8.105,6.893c-0.95-0.083-1.959-0.137-2.891,0.024
				c-4.511,0.729-10.645,4.056-14.247,6.852c-0.567,0.406-0.711,1.201-0.305,1.774c0.406,0.567,1.207,0.705,1.774,0.305
				c2.61-1.888,5.215-3.399,8.226-4.558c2.646-1.016,5.304-1.529,7.92-2.676c0.358-0.065,0.628-0.346,0.699-0.687
				c1.69,1.487,3.363,3.004,5.029,4.54c-1.648,0.43-3.273,0.908-4.88,1.476c-4.414,1.565-8.769,3.518-12.98,5.573
				c-0.537,0.257-1.087,0.52-1.631,0.783c-1.493-1.117-2.998-2.21-4.468-3.345c-4.946-3.805-9.838-7.658-14.688-11.582
				c0.437-0.072,0.837-0.323,1.1-0.717c0.466-0.741,0.244-1.738-0.496-2.204c-2.091-1.535-4.211-3.029-6.302-4.552
				c3.751-1.47,7.544-2.79,11.337-4.158c1.267-0.46,2.658-0.842,3.961-1.188c1.242-0.341,2.473-0.532,3.703-0.95
				c0.149-0.054,0.293-0.108,0.442-0.167C619.507-199.713,621.377-198.214,623.24-196.703z M582.365-198.262
				c-0.042,3.865-0.072,7.736-0.174,11.6c-0.173,6.129-0.472,12.288-0.537,18.404c-0.054,4.725-0.078,9.456-0.126,14.181
				c-0.131,12.825-0.113,25.644-0.215,38.462c-0.113,13.685-0.131,27.412-0.029,41.091c0.042,6.099-0.042,12.245,0.089,18.338
				c0.107,4.605,0.162,9.307,0.186,13.876c0,13.864,0.107,27.771,0.03,41.658c-0.03,5.394,0.048,10.806-0.072,16.194
				c-0.042,1.828,0.012,3.667-0.023,5.496c-0.096,4.665-0.024,9.342-0.084,14.013c-0.018,1.649,0.024,3.345-0.048,4.988
				c-0.077,1.87,0.012,3.769-0.054,5.645c-0.012,0.239-0.018,0.484-0.023,0.729c-0.09,0.083-0.155,0.185-0.197,0.311
				c-0.209,0.532-0.418,1.063-0.627,1.595c0.035-5.807,0.113-11.606,0.209-17.383c0.173-10.716,0.227-21.444,0.286-32.16
				c0.024-5.693-0.012-11.391,0.012-17.084c0.102-25.028,0.042-50.057,0.191-75.079c0.203-35.177,0.353-70.342,0.46-105.513
				C581.869-198.692,582.114-198.477,582.365-198.262z M311.922-87.284c0.191,3.572,0.269,7.15,0.556,10.728
				c0.083,1.165,0.203,2.324,0.346,3.483c-0.8,2.568-1.278,5.065-1.397,8.004c-0.018-0.083-0.036-0.161-0.054-0.239
				c-0.006-1.087-0.012-2.174-0.006-3.255c0.012-4.844,0.072-9.701,0.125-14.545c0.042-3.703,0.09-7.407,0.138-11.104
				C311.708-91.907,311.803-89.589,311.922-87.284z M319.293-68.014c-0.173,0.167-0.173,0.46,0,0.633h0.633
				c2.037-2.037,4.068-4.068,6.104-6.105c0.173-0.173,0.173-0.466,0-0.633h-0.633C323.361-72.082,321.331-70.05,319.293-68.014z
				 M387.664-59.161c-4.151,2.658-8.237,5.836-11.953,9.085c-2.24,1.965-4.384,4.044-6.57,6.063
				c-3.763,3.471-7.431,7.031-11.218,10.471c-1.505,1.368-3.13,2.623-4.635,3.972c-0.185,0.149-0.209,0.436-0.054,0.615
				c0.149,0.179,0.436,0.203,0.615,0.054c1.583-1.416,3.303-2.759,4.916-4.169c3.297-2.885,6.541-5.842,9.82-8.751
				c2.121-1.876,4.289-3.698,6.416-5.555c5.74-5.042,12.358-10.388,19.306-13.625c0.406-0.197,0.567-0.699,0.364-1.099
				c-0.197-0.406-0.699-0.567-1.105-0.364C391.553-61.556,389.522-60.356,387.664-59.161z M328.911-42.967
				c-0.245,0.34-0.167,0.824,0.173,1.069c0.34,0.239,0.83,0.161,1.069-0.179c1.272-1.965,4.307-5.705,6.637-6.625
				c0.376-0.209,0.501-0.699,0.292-1.075s-0.705-0.508-1.081-0.293C332.966-48.528,330.81-45.727,328.911-42.967z M339.967-43.308
				c-0.771,0.926-1.505,1.947-2.276,2.849c-0.293,0.34-0.824,1.021-1.034,1.392c-0.191,0.275-0.125,0.669,0.144,0.86
				c0.269,0.191,0.663,0.131,0.854-0.144c0.191-0.37,0.562-0.723,0.794-1.069c0.639-0.95,1.595-1.972,2.348-2.855
				c1.249-1.481,2.623-3.082,3.996-4.432c0.681-0.657,1.368-1.5,2.109-2.061c0.334-0.322,0.352-0.872,0.03-1.207
				c-0.323-0.334-0.866-0.353-1.201-0.03C343.67-47.943,341.849-45.583,339.967-43.308z M352.338-49.437
				c-1.547,1.661-3.118,3.244-4.695,4.875c-1.261,1.314-2.641,2.592-3.787,4.008c-1.195,1.476-2.939,3.477-3.644,5.269
				c-0.215,0.418-0.048,0.95,0.371,1.159c0.418,0.209,0.944,0.048,1.153-0.37c0.209-0.376,0.376-0.753,0.597-1.129
				c1.87-3.244,5.459-6.38,8.202-8.871c1.183-1.075,2.306-2.252,3.494-3.309c0.442-0.466,0.43-1.219-0.03-1.661
				C353.533-49.915,352.78-49.902,352.338-49.437z M346.705-23.566c0.693,0.275,1.422,0.597,2.121,0.83
				c2.365,0.789,4.701,1.595,7.114,2.222c2.521,0.651,5.137,1.219,7.777,1.661c-0.144,0.179-0.287,0.364-0.418,0.549
				c-0.167,0.197-0.131,0.502,0.066,0.669c0.203,0.167,0.508,0.131,0.669-0.072c0.251-0.329,0.508-0.651,0.759-0.974
				c2.258,0.353,4.516,0.615,6.738,0.782c3.709,0.263,7.317,0.305,10.979,0.179c-1.577,1.637-3.1,3.321-4.57,5.036
				c-0.155,0.167-0.137,0.442,0.036,0.598c0.167,0.149,0.448,0.131,0.597-0.036c1.649-1.923,3.399-3.817,5.227-5.651
				c1.082-0.042,2.174-0.107,3.268-0.179c1.511-0.107,3.046-0.298,4.582-0.52c0,0.735,0,1.523-0.066,2.246
				c-0.06,0.633-0.03,1.314-0.065,1.953c-0.114,2.001-0.185,4.02-0.275,6.039c-0.717,0.735-1.445,1.469-2.114,2.264
				c-0.156,0.173-0.144,0.454,0.023,0.609c0.173,0.162,0.454,0.149,0.615-0.024c0.448-0.538,0.932-1.069,1.428-1.583
				c-0.125,2.992-0.257,5.985-0.358,8.99c-0.991,3.751-1.881,7.532-2.664,11.343c-0.794,3.847-1.469,8.195-1.637,12.12
				c-0.072,1.654-0.203,3.213-0.107,4.874c0.078,1.326,0.179,2.61,0.424,3.781h-0.048c-0.125,0.089-0.239,0.185-0.358,0.274
				c-2.174-2.682-4.289-5.447-6.368-8.189c1.852-1.815,3.805-3.572,5.603-5.447c0.376-0.389,0.364-1.021-0.024-1.398
				c-0.382-0.376-1.021-0.364-1.392,0.024c-1.738,1.81-3.519,3.608-5.245,5.43c-0.263-0.347-0.538-0.693-0.794-1.039
				c-1.535-2.025-3.142-4.015-4.689-6.033c-0.209-0.263-0.406-0.532-0.603-0.794c0.687-0.633,1.523-1.141,2.437-1.661
				c0.364-0.203,0.836-0.454,1.165-0.699c0.358-0.269,0.764-0.507,1.135-0.771c0.4-0.281,0.771-0.734,1.141-1.057
				c0.293-0.305,0.281-0.794-0.03-1.081c-0.305-0.293-0.794-0.281-1.081,0.024c-0.275,0.274-0.496,0.573-0.783,0.818
				c-0.729,0.627-1.756,1.26-2.61,1.714c-0.848,0.448-1.606,0.956-2.258,1.559c-1.266-1.673-2.533-3.351-3.787-5.024
				c1.254-1.207,2.515-2.425,3.746-3.656c0.269-0.269,0.269-0.717,0-0.985h-0.986c-1.141,1.105-2.222,2.252-3.321,3.399
				c-0.071,0.072-0.143,0.137-0.215,0.209c-0.329-0.442-0.657-0.878-0.986-1.314c-1.487-1.983-2.975-3.979-4.456-5.974
				c1.093-1.063,2.18-2.145,3.31-3.112c0.304-0.305,0.304-0.807,0.006-1.111c-0.305-0.305-0.807-0.305-1.111-0.006
				c-1.021,1.021-2.013,2.079-3.022,3.118c-1.714-2.318-3.429-4.629-5.155-6.935c0.424-0.257,0.824-0.466,1.093-0.52
				c0.394-0.114,0.621-0.538,0.501-0.932c-0.119-0.394-0.538-0.615-0.932-0.496c-0.191-0.012-1.081,0.531-1.5,0.83
				c-1.326-1.768-2.664-3.53-4.008-5.274c-0.442-0.567-0.878-1.129-1.308-1.696c0.054-0.03,0.113-0.066,0.179-0.102
				c1.033-0.633,3.548-2.264,4.826-2.234c0.502-0.114,0.8-0.627,0.681-1.123c-0.12-0.502-0.627-0.801-1.129-0.681
				c-0.269,0.083-0.55,0.144-0.825,0.233c-0.585,0.185-1.135,0.502-1.678,0.783c-0.979,0.49-2.019,1.326-2.939,1.989
				c-3.172-4.104-6.338-8.16-9.611-12.114C341.777-25.668,344.196-24.569,346.705-23.566z M340.977-19.719
				c1.798,2.228,3.578,4.486,5.334,6.756c-0.108,0.072-0.209,0.144-0.311,0.215c-0.018,0.006-0.03,0.012-0.042,0.023
				c-2.163-2.975-4.402-6.009-6.648-9.043C339.872-21.087,340.421-20.4,340.977-19.719z M406.642-17.85
				c-1.314,1.738-2.539,3.566-3.817,5.34c-0.28,0.394-0.185,0.944,0.209,1.23c0.395,0.281,0.944,0.185,1.225-0.209
				c1.278-1.774,2.503-3.602,3.817-5.34c0.28-0.394,0.191-0.95-0.203-1.23S406.928-18.244,406.642-17.85z M352.589-4.678
				c-0.167,0.137-0.329,0.269-0.496,0.4c-0.472-0.621-0.943-1.242-1.403-1.87c-1.278-1.81-2.617-3.673-3.99-5.567
				c0.089-0.054,0.167-0.102,0.245-0.149C351.37-6.303,351.985-5.485,352.589-4.678z M358.789,3.667
				c-0.065,0.054-0.131,0.113-0.197,0.161c-1.971-2.359-3.906-4.737-5.776-7.162c0.173-0.119,0.334-0.239,0.508-0.364
				C355.146-1.244,356.967,1.211,358.789,3.667z M361.334,7.083c-0.627-0.74-1.249-1.481-1.87-2.222
				c0.048-0.03,0.09-0.072,0.132-0.108C360.175,5.53,360.754,6.301,361.334,7.083z M390.729,16.414
				c0.125,3.865,0.311,7.604,0.609,11.457c0.209,2.712,0.627,5.412,1.033,8.094c0.341,2.276,0.794,4.617,1.386,6.965
				c-0.71-0.8-1.421-1.595-2.126-2.396c-1.159-3.793-1.445-8.105-1.607-11.946c-0.197-4.51,0.048-9.289,0.657-13.84
				C390.693,15.303,390.705,15.858,390.729,16.414z M397.425,27.793c-0.454,0.412-0.914,0.824-1.386,1.236
				c-0.06-0.598-0.108-1.195-0.162-1.792C396.284,27.613,396.839,27.829,397.425,27.793z M395.298,48.096
				c0.054,0.149,0.107,0.305,0.167,0.46c-0.209-0.311-0.418-0.615-0.615-0.92C395,47.786,395.149,47.941,395.298,48.096z
				 M581.135,53.329c0.155,1.822,0.305,3.823-0.263,5.567c-0.019-0.203-0.036-0.406-0.054-0.597c-0.09-0.89-0.222-1.822-0.377-2.778
				c0-0.699,0-1.398,0-2.097c0.197-0.585,0.395-1.177,0.592-1.75C581.057,52.229,581.087,52.785,581.135,53.329z M578.417,61.178
				c0.006,0.245,0.029,0.484,0.048,0.729c-0.055,0.042-0.107,0.078-0.162,0.12c0.055-0.316,0.102-0.621,0.09-1.003
				C578.41,61.082,578.41,61.13,578.417,61.178z"/>
		</g>
	</g>
</g>
</svg>
