<?xml version="1.0" encoding="utf-8"?>
<!-- Generator: Adobe Illustrator 16.0.0, SVG Export Plug-In . SVG Version: 6.00 Build 0)  -->
<!DOCTYPE svg PUBLIC "-//W3C//DTD SVG 1.1//EN" "http://www.w3.org/Graphics/SVG/1.1/DTD/svg11.dtd">
<svg version="1.1" id="Layer_1" xmlns="http://www.w3.org/2000/svg" xmlns:xlink="http://www.w3.org/1999/xlink" x="0px" y="0px"
	 width="395.891px" height="445.787px" viewBox="292.501 -1.616 395.891 445.787"
	 enable-background="new 292.501 -1.616 395.891 445.787" xml:space="preserve">
<g transform="scale(1 -1)">
	<g transform="translate(0 -75)">
		<g>
			<path marker-start="none" marker-end="none" d="M331.808-369.058c-6.81,0.112-13.613,0.144-20.417,0.299
				c-1.141,0.022-2.282,0.036-3.417,0.071c-0.914,0.029-1.888,0.041-2.79,0.126c-0.669,0.064-1.518,0.102-2.187,0.106
				c-0.466,0-0.991,0.09-1.445,0.071c-0.538-0.023-1.565,0.012-2.109,0.078c-1.153,0.137-1.833-0.312-2.891,0.627l-0.478,0.692
				c-0.125,0.312-0.173,0.585-0.155,0.919c0.03,0.616,0.424,0.934,0.442,1.256l0.144,0.823l-0.018,0.448h-0.86
				c-0.298,0.113-0.543,0.347-0.675,0.657c-0.508,1.194-1.105,2.359-1.517,3.596c-0.413,1.236-0.693,2.879-0.836,4.183
				c-0.567,5.105,1.386,9.581,4.45,13.396l3.984,3.955l0.561,1.236c0.239,0.466,0.646,0.788,1.111,0.938l0.776-0.064l4.695,3.362
				c1.439,0.913,2.897,1.833,4.384,2.664l0.4,0.222l-0.956-0.396c-1.744-0.8-3.423-1.673-5.131-2.532
				c-1.296-0.656-2.634-1.38-3.942-2.145l-3.632-2.282l-0.221-0.483l-0.657-0.74l-0.496-0.473v-1.971
				c0-0.389-0.316-0.705-0.705-0.705c-0.389,0-0.705,0.316-0.705,0.705c0,0.562-0.107,2.104,0.054,2.544
				c0.149,0.418,1.147,1.016,1.308,1.446c0.299,0.794,0.418,0.771,1.213,1.29c0.567,0.37,1.123,0.771,1.696,1.135
				c2.132,1.355,4.265,2.682,6.457,3.942c3.877,2.228,7.837,4.323,11.833,6.332c1.386,0.691,2.807,1.324,4.193,2.023
				c3.136,1.577,6.487,3.112,9.772,4.35c1.296,0.483,2.569,1.021,3.901,1.403l1.207,0.28l3.118,2.037l4.653,4.594l-0.107,0.974
				l-0.46,4.694l-3.464,2.754c-2.909,2.825-5.358,6.206-7.198,9.426c-0.98,1.716-1.971,3.382-2.82,5.18
				c-0.496,1.058-1.021,2.103-1.505,3.166c-0.376,0.823-0.639,1.695-0.974,2.532c-0.777,1.947-1.404,4.009-2.007,6.016
				c-2.712,9.062-3.811,17.604-2.539,27.083c0.585,4.354,1.84,9.163,3.488,13.237c0.646,1.601,1.356,3.11,2.061,4.684
				c0.281,0.621,0.621,1.193,0.938,1.797l2.664,4.164c3.918,8.751,12.55,13.213,21.444,15.328c1.368,0.322,2.933,0.604,4.337,0.746
				c1.69,0.173,3.429,0.363,5.125,0.353c3.757-0.03,9.199-0.274,12.64-1.894c1.117-0.525,1.84-1.355,2.79-2.049
				c0.597-0.271,0.866-0.98,0.597-1.577c-0.137-0.3-0.382-0.521-0.669-0.628l-0.316,0.013l0.914-0.579
				c1.028-0.65,2.15-1.564,3.059-2.384l3.608-4.093l0.275,0.615c0.436,0.42,1.135,0.4,1.553-0.035
				c0.89-0.949,1.721-1.857,2.491-2.928c3.912-5.447,5.698-11.833,7.096-18.302l0.132-0.901l1.505-7.078
				c0.096-0.39,0.024-0.776-0.196-1.123l0.37-2.301c0.228-2.085,0.354-4.176,0.424-6.296c0.187-5.781-0.447-11.373-1.953-16.958
				l-1.396-4.062l-0.078-0.771c-0.633-2.615-1.929-5.143-3.327-7.718l-0.508-0.764l0.162-0.419l-0.591-0.228l-2.652-3.989
				c-1.159-1.493-2.389-2.7-3.799-3.948c-1.32-1.165-2.742-2.282-4.259-3.291l-2.252-1.387c-0.496-2.496,0.024-5.424,1.177-7.312
				c0.334-0.55,0.908-1.529,1.41-1.936c0.418-0.484,0.604-1.094,0.52-1.764l2.455-1.444l-0.125,0.646
				c0.263,0.388,0.8,0.495,1.188,0.232c3.208-2.271,6.666-4.188,10.31-5.974l3.298-1.255c3.715-1.158,7.516-2.187,11.343-3.333
				c3.106-0.932,6.242-1.769,9.289-2.885c1.577-0.58,3.028-1.105,4.498-1.937l2.024-1.589l0.431,0.049
				c0.316-0.097,0.598-0.306,0.766-0.609c1.205-2.246,2.83-4.253,4.104-6.445l0.125-0.341l0.592-0.454
				c0.473-0.388,0.74-0.932,0.801-1.493l-0.299-0.991l0.479-1.428c0.197-0.775,0.482-1.559,0.675-2.336
				c0.239-0.955,0.484-2.007,0.675-2.975c0.191-0.969,0.371-2.043,0.502-3.022c0.132-0.979,0.155-1.995,0.299-2.975
				c0.036-0.724-0.228-1.397-0.681-1.899l-0.4-0.197l0.467-2.914c1.016-0.139,1.959-1.123,1.804-2.168
				c-0.155-1.033-0.891-2.809-1.422-3.733c-1.602-2.784-4.862-3.189-7.789-2.873c-1.583,0.018-3.172,0.119-4.755,0.161
				c-2.761,0.071-5.573-0.006-8.332-0.065c-5.998-0.126-12.014-0.598-18.004-0.65c-4.211-0.036-8.44,0.048-12.646-0.03
				l-14.187-0.161l-11.367-0.119c-2.867-0.042-5.752,0.029-8.62,0.013l-2.933,0.029l-6.284-0.962
				c-1.278-0.084-2.729-0.048-4.014-0.006C335.87-369.058,333.827-369.094,331.808-369.058z M621.258-368.084l-2.104,0.562
				l-17.077,0.145c-4.761,0.06-9.485,0.149-14.24,0.37l-8.435,0.197l-1.368,0.06c-5.113,0.065-10.25,0.119-15.375,0.107
				c-0.944,0-1.937,0.09-2.879,0.154c-2.127,0.149-4.261,0.323-6.38,0.473c-1.094,0.077-2.188,0.251-3.273,0.335
				c-1.75,0.138-4.719,0.556-6.32,1.283c-0.687,0.312-1.702,1.017-1.588,1.895c-0.055,0.524,0.328,1.016,0.854,1.069
				c0.525,0.053,1.016-0.328,1.062-0.927l0.866-0.347l-1.439,3.423c-0.411,1.236-0.692,2.879-0.837,4.183
				c-0.566,5.105,1.387,9.58,4.45,13.396l3.984,3.955l0.562,1.236c0.239,0.466,0.646,0.788,1.111,0.938l0.776-0.064l4.694,3.362
				l4.218,2.562l-7.384-3.604c-0.984-0.53-1.995-1.099-2.979-1.689l-2.73-1.738l-0.221-0.483l-0.657-0.74l-0.495-0.473v-1.971
				c0-0.389-0.316-0.705-0.705-0.705s-0.705,0.316-0.705,0.705c0,0.447-0.09,2.198,0.036,2.502l1.267,1.398l0.437,0.812
				c2.539,1.827,5.328,3.478,8.022,5.077c4.15,2.467,8.494,4.73,12.807,6.899c1.386,0.691,2.809,1.324,4.193,2.023
				c3.226,1.619,6.666,3.202,10.047,4.45c1.045,0.383,2.085,0.849,3.146,1.165l1.631,0.388l3.166,2.067l4.653,4.6l-0.102,0.968
				l-0.46,4.688l-3.472,2.76c-2.907,2.825-5.356,6.206-7.196,9.426c-0.979,1.716-1.973,3.382-2.819,5.18
				c-0.496,1.058-1.021,2.103-1.506,3.166c-0.376,0.823-0.639,1.695-0.974,2.532c-0.776,1.947-1.403,4.009-2.008,6.016
				c-2.712,9.062-3.811,17.604-2.539,27.083c0.586,4.354,1.841,9.163,3.489,13.236c0.646,1.602,1.355,3.111,2.062,4.685
				c0.279,0.621,0.62,1.194,0.938,1.797l2.664,4.164c3.919,8.744,12.55,13.213,21.444,15.328c1.367,0.321,2.933,0.603,4.337,0.746
				c1.689,0.173,3.429,0.364,5.131,0.353c3.764-0.029,9.192-0.269,12.634-1.894c1.117-0.525,1.84-1.355,2.789-2.05
				c0.598-0.27,0.866-0.979,0.598-1.576c-0.138-0.299-0.382-0.52-0.669-0.629l-0.315,0.014l0.914-0.579
				c1.026-0.651,2.149-1.565,3.058-2.384l3.614-4.098l0.273,0.621c0.438,0.418,1.137,0.399,1.555-0.037
				c0.89-0.948,1.72-1.856,2.489-2.926c3.913-5.447,5.699-11.834,7.098-18.303l0.144-0.986l1.487-6.993
				c0.096-0.39,0.022-0.776-0.197-1.123l0.37-2.301c0.228-2.085,0.353-4.176,0.424-6.296c0.187-5.781-0.447-11.373-1.953-16.958
				l-1.396-4.062l-0.077-0.771c-0.634-2.615-1.93-5.143-3.328-7.718l-0.507-0.764l0.161-0.419l-0.592-0.228l-2.652-3.989
				c-1.158-1.493-2.389-2.7-3.799-3.948c-1.32-1.165-2.741-2.282-4.26-3.291l-2.252-1.388c-0.495-2.495,0.024-5.423,1.178-7.311
				c0.334-0.55,0.908-1.529,1.41-1.936c0.418-0.484,0.603-1.094,0.52-1.764l2.455-1.444l-0.126,0.646
				c0.263,0.388,0.801,0.495,1.188,0.232l10.222-5.943l3.387-1.284c3.716-1.158,7.515-2.187,11.344-3.333
				c3.105-0.932,6.242-1.769,9.288-2.885c1.577-0.58,3.028-1.105,4.498-1.937l2.025-1.589l0.43,0.049
				c0.316-0.097,0.599-0.306,0.765-0.609c1.207-2.246,2.831-4.253,4.104-6.445l0.126-0.335l0.597-0.46
				c0.474-0.388,0.741-0.932,0.802-1.493l-0.3-0.997l0.473-1.422c0.196-0.775,0.483-1.559,0.676-2.336
				c0.238-0.955,0.483-2.007,0.675-2.975c0.192-0.969,0.37-2.043,0.502-3.022c0.131-0.979,0.155-1.995,0.298-2.975
				c0.036-0.724-0.227-1.397-0.681-1.899l-0.364-0.18l0.4-1.618c1.026-0.119,1.982-1.123,1.84-2.156
				c-0.132-0.949-0.908-2.915-1.416-3.764c-1.769-2.957-4.642-3.082-7.747-2.992c-1.589-0.006-3.184,0.077-4.767,0.065
				c-2.893-0.023-5.766-0.125-8.655-0.233l-21.379-1.151l-0.573-0.274l-0.831,0.328l-6.923-0.084
				c-4.438-0.041-8.896-0.061-13.332-0.048l-2.288,0.019L621.258-368.084z M346.245-364.356l1.661,0.019
				c-1.744,1.142-3.435,2.342-5.161,3.494c-0.651,0.437-1.32,0.943-1.995,1.326c-0.573,0.328-1.135,0.676-1.714,0.998
				c-0.46,0.257-0.979,0.441-1.421,0.698l-0.191,0.515l0.514,0.189c0.657-0.334,1.314-0.615,1.959-0.974
				c0.597-0.328,1.183-0.771,1.786-1.081c0.34-0.179,0.711-0.472,1.033-0.692c1.063-0.717,2.145-1.416,3.202-2.139l3.763-2.306
				l10.919,0.154l-0.597,0.274c-4.88,2.316-9.36,4.785-13.04,8.787l0.012,0.562l0.562-0.012c0.622-0.735,1.386-1.393,2.103-2.025
				c3.554-3.172,8.016-4.832,12.334-6.672l2.031-0.866l6.039,0.091l5.107,0.07l-2.341,0.991c-4.068,2.396-7.192,5.061-10.549,8.357
				l0.298,0.311c4.666-4.517,9.008-7.407,15.274-9.575l4.701,0.029l2.885,0.048l-1.004,0.592c-1.027,0.663-1.953,1.429-2.951,2.12
				c-1.792,1.242-3.56,2.767-5.28,4.122c-2.33,1.84-4.653,3.645-6.899,5.608c5.985-4.247,11.81-8.732,18.35-12.4l5.848-0.006
				l6.731,0.173l-2.043,0.892c-6.863,3.518-12.944,8.194-18.606,13.625l-0.024,0.585l0.585,0.023
				c1.929-1.834,3.966-3.722,6.152-5.245c0.938-0.65,1.87-1.332,2.826-1.959c2.365-1.553,4.82-2.808,7.299-4.15l7.759-3.668
				l8.59,0.221l-6.027,3.394c-2.27,1.56-4.442,3.273-6.539,4.887c-2.073,1.595-4.177,3.053-6.291,4.575l-0.155,0.859l0.86,0.155
				c0.98-0.71,1.989-1.367,2.981-2.062c0.938-0.656,1.846-1.36,2.783-2.019c2.712-1.906,5.418-4.002,8.291-5.657
				c0.956-0.55,1.904-1.093,2.879-1.605c1.229-0.646,2.575-1.153,3.806-1.805l1.344-0.622l5.836,0.155
				c0.646-0.006,1.29,0.007,1.937-0.006c0.651-0.012,1.308-0.041,1.959-0.065c0.609-0.022,1.236-0.064,1.84-0.064
				c0.681,0,3.279-0.197,4.414,0.19c0.09,0.353,0.187,0.621,0.335,0.872l0.048,0.376c-0.532,0.448-0.771,0.985-0.765,1.577
				l0.406,4.468l-0.753,1.535l-2.944,1.481c-2.76,1.577-5.514,3.124-8.237,4.767c-2.963,1.786-6.225,3.854-8.638,6.38
				c2.085-1.737,4.701-3.375,7.072-4.642c2.043-1.093,4.098-2.162,6.225-3.102c1.522-0.669,3.231-1.332,4.694-2.084l1.542-0.775
				l-0.484,6.039l-4.797,2.598c-2.354,1.439-4.659,2.963-6.988,4.444c-2.407,1.522-4.826,3.011-7.252,4.504l-0.215,0.836
				l0.836,0.216c3.34-1.982,6.714-3.931,10.137-5.765l7.604-4.032l-0.438,1.637l-0.34,0.992l-1.201,0.974
				c-1.302,0.991-2.609,1.882-3.979,2.771c-2.174,1.415-4.223,2.867-6.48,4.181l-18.458,9.839l-1.36,0.489
				c-2.575,1.027-5.042,2.049-7.574,3.172l-8.112,4.588l-0.598-0.203l0.657-0.489c1.344-0.914,2.766-1.708,4.133-2.58
				c1.087-0.693,2.324-1.296,3.459-1.924c2.885-1.596,5.878-3.221,8.667-4.964c0.478-0.244,0.663-0.849,0.418-1.326
				c-0.245-0.479-0.848-0.663-1.326-0.418c-5.292,2.114-10.154,5.363-14.688,8.774c-4.014,3.022-7.927,6.397-11.242,10.179
				l-0.693,0.824l-0.376-0.09l-2.007,1.355l-1.852-0.466l-2.341-0.306c0.472-0.263,0.627-0.848,0.37-1.302
				c-0.257-0.454-0.842-0.609-1.296-0.353l-2.55,1.428l13.518-10.304c2.975-2.229,6.027-4.464,9.115-6.523
				c4.265-2.837,8.572-5.537,12.992-8.111c0.37-0.209,0.495-0.692,0.286-1.062s-0.692-0.496-1.062-0.287
				c-0.496,0.239-0.986,0.556-1.47,0.824c-1.936,1.088-3.757,2.258-5.585,3.529c-2.712,1.895-5.496,3.781-8.094,5.83
				c-2.354,1.858-4.778,3.626-7.12,5.502c-4.599,3.681-9.247,7.306-13.989,11.146l-0.341-0.776
				c-0.197-0.237-0.478-0.399-0.806-0.424c-2.407-0.257-4.48-0.239-6.839,0.4l-2.945,1.312l-0.585-0.507l0.263-2.432
				c0.783-0.567,0.938-1.644,0.376-2.396l-0.412-0.406l0.155-3.021c0.047-0.609-0.406-1.158-1.016-1.206s-1.159,0.406-1.207,1.016
				l-0.12,1.039l-2.867-2.85l-0.347-0.228l-0.012-0.329c-0.149-0.315-0.412-0.578-0.759-0.703l-3.769-1.937l-1.595-1.04
				c-1.284-0.723-2.575-1.511-3.883-2.174c-4.151-2.108-8.273-4.295-12.424-6.409c-4.868-2.479-10.047-5.273-14.42-8.56
				l-1.696-1.404l-4.211-8.518c-0.693-1.561-1.308-3.144-1.792-4.772l-0.747-3.817l0.454-2.078l1.702-5.376l1.643,0.132
				c1.29,0.06,2.586,0.096,3.876,0.138c3.405,0.113,6.899,0.018,10.304-0.036l8.1-0.502l-1.995,1.439
				c-1.29,0.984-2.718,1.863-3.859,3.027c1.972-1.284,3.943-2.64,5.92-3.918l1.003-0.615l5.991-0.363l3.763-0.09l-0.543,0.215
				c-2.103,1.171-4.074,2.581-6.051,4.229c-1.224,1.021-2.455,2.503-3.5,3.722l0.024,0.383l0.382-0.024
				c1.637-1.821,3.327-3.506,5.31-4.964c1.613-1.188,3.387-2.239,5.233-3.159l1.039-0.447l4.11-0.091
				C342.607-364.452,344.423-364.362,346.245-364.356z M562.378-363.4c1.84-0.007,3.68,0.013,5.521,0.007l5.614,0.022l-1.422,1.027
				c-1.29,0.984-2.718,1.864-3.857,3.027c1.971-1.283,3.941-2.64,6.08-4.02l3.774-0.012l5.328-0.078l-5.101,3.565
				c-1.226,1.021-2.455,2.503-3.501,3.722l0.023,0.383l0.382-0.024c1.638-1.82,3.327-3.506,5.312-4.964l4.474-2.705l3.292-0.042
				h8.488l-3.913,2.646c-0.651,0.437-1.32,0.944-1.995,1.326c-0.573,0.329-1.135,0.676-1.714,0.998
				c-0.46,0.257-0.98,0.441-1.422,0.698l-0.191,0.515l0.515,0.189c0.656-0.334,1.313-0.614,1.959-0.974
				c0.598-0.328,1.183-0.771,1.785-1.081c0.342-0.179,0.711-0.472,1.033-0.692c1.063-0.717,2.146-1.416,3.202-2.139l2.425-1.487
				l3.012,0.007l7.902,0.006l-6.225,3.362c-2.15,1.393-4.146,2.992-6.062,5.023l0.013,0.562l0.562-0.012
				c1.93-2.233,5.389-4.707,8.075-5.938c1.01-0.46,2.014-0.938,3.023-1.398c1.087-0.495,2.232-0.896,3.333-1.361l0.543-0.232
				l7.628,0.012l3.806,0.024l-1.136,0.478c-4.073,2.396-7.191,5.065-10.549,8.363l0.299,0.311c3.501-3.394,6.81-5.859,10.865-7.741
				l3.555-1.393l7.729,0.048l-0.299,0.181c-1.026,0.663-1.953,1.428-2.951,2.119c-1.792,1.242-3.56,2.767-5.279,4.122
				c-2.329,1.841-4.653,3.645-6.898,5.608c4.008-2.808,7.914-5.764,11.964-8.47l5.705-3.536l4.635,0.071
				c0.615,0.012,1.243-0.019,1.858,0.022l5.561,0.197l-0.836,0.371c-6.862,3.518-12.943,8.194-18.606,13.625l-0.023,0.585
				l0.585,0.023c1.931-1.834,3.967-3.722,6.153-5.245c0.938-0.65,1.869-1.331,2.825-1.959c2.364-1.553,4.819-2.808,7.299-4.15
				l6.522-3.082l8.459,0.406l-4.659,2.622c-2.271,1.559-4.444,3.272-6.541,4.886c-2.072,1.595-4.175,3.053-6.29,4.576l-0.155,0.858
				l0.86,0.155c0.979-0.71,1.988-1.367,2.979-2.062c0.938-0.656,1.846-1.36,2.784-2.019c2.712-1.906,5.417-4.002,8.291-5.657
				c0.955-0.55,1.905-1.093,2.879-1.605l3.339-1.589l7.616,0.369c1.947,0.036,3.9,0.019,5.848-0.029
				c0.824-0.019,3.19-0.131,3.948,0.12l0.479,0.43l-0.479,1.309c0.155,1.477,0.341,2.956,0.406,4.469l-0.752,1.534l-2.945,1.481
				c-2.76,1.577-5.514,3.124-8.237,4.767c-2.963,1.786-6.224,3.854-8.638,6.38c2.085-1.737,4.701-3.375,7.072-4.642
				c2.043-1.093,4.098-2.162,6.225-3.101c1.523-0.669,3.231-1.332,4.695-2.084l1.541-0.776l-0.556,6.624l-4.344,2.39
				c-2.354,1.439-4.658,2.97-6.987,4.443c-2.413,1.522-4.833,3.011-7.259,4.511l-0.215,0.836l0.836,0.215
				c3.339-1.988,6.721-3.937,10.144-5.771l7.043-3.733l-0.257,0.962l-0.342,0.998l-1.193,0.969c-1.303,0.99-2.61,1.881-3.979,2.771
				c-2.174,1.415-4.223,2.867-6.48,4.181l-18.463,9.833l-1.362,0.495c-2.574,1.027-5.041,2.049-7.574,3.172l-8.111,4.589
				l-0.598-0.203l0.657-0.49c1.344-0.914,2.766-1.708,4.134-2.58c1.087-0.693,2.323-1.296,3.458-1.924
				c2.885-1.596,5.878-3.221,8.668-4.964c0.479-0.244,0.662-0.849,0.418-1.326c-0.245-0.479-0.849-0.663-1.326-0.418
				c-5.293,2.115-10.154,5.364-14.688,8.774c-4.015,3.022-7.927,6.397-11.242,10.179l-0.692,0.825l-0.377-0.091l-2.007,1.355
				l-1.852-0.466l-2.342-0.306c0.472-0.263,0.627-0.848,0.369-1.302c-0.257-0.454-0.842-0.609-1.296-0.353l-2.551,1.428
				l13.518-10.304c2.977-2.229,6.027-4.463,9.115-6.523c4.267-2.837,8.572-5.537,12.992-8.111c0.37-0.209,0.496-0.692,0.287-1.062
				s-0.693-0.496-1.063-0.287c-0.495,0.239-0.984,0.556-1.47,0.824c-1.935,1.088-3.757,2.258-5.585,3.53
				c-2.712,1.894-5.495,3.78-8.094,5.829c-2.354,1.858-4.778,3.627-7.12,5.503c-4.6,3.68-9.247,7.305-13.989,11.146l-0.341-0.776
				c-0.197-0.237-0.478-0.399-0.807-0.424c-2.407-0.257-4.479-0.239-6.839,0.4l-2.945,1.312l-0.585-0.507l0.263-2.432
				c0.782-0.567,0.938-1.644,0.376-2.396l-0.412-0.405l0.155-3.028c0.048-0.609-0.412-1.152-1.021-1.2
				c-0.609-0.048-1.152,0.412-1.2,1.021l-0.12,1.032l-2.867-2.85l-0.352-0.228l-0.014-0.335c-0.144-0.311-0.412-0.572-0.759-0.697
				l-2.657-1.213l-2.699-1.764c-1.284-0.723-2.574-1.511-3.884-2.174c-4.15-2.108-8.272-4.295-12.425-6.409
				c-4.868-2.479-10.047-5.273-14.419-8.56l-1.697-1.404l-4.211-8.518c-1.38-3.118-2.461-6.332-2.771-9.804l-0.071-0.488
				l-0.514-0.538c-0.187-0.418,0.125-1.393-0.299-2.001l0.46-1.612c0.131-0.311,0.119-0.651,0.006-0.944l-0.329-0.34l0.466-0.084
				c1.381-0.18,2.802-0.257,3.646-0.269c1.868-0.036,3.732-0.103,5.613-0.036C558.598-363.521,560.545-363.395,562.378-363.4z
				 M419.699-357.876c-2.628,1.356-5.006,2.886-7.407,4.604c-4.432,3.18-8.721,6.493-12.985,9.894l-0.065,0.556l0.556,0.065
				c2.438-1.959,4.988-3.806,7.568-5.567c1.882-1.277,3.853-2.599,5.836-3.703c4.104-2.288,8.243-4.498,12.46-6.553
				c0.431-0.18,0.634-0.693,0.454-1.123c-0.18-0.431-0.692-0.634-1.123-0.454C423.074-359.572,421.485-358.795,419.699-357.876z
				 M662.42-353.271c-4.444,3.07-8.751,6.523-12.979,9.894l-0.065,0.556l0.556,0.065c4.141-3.321,8.786-6.637,13.393-9.271
				c4.062-2.323,8.268-4.51,12.467-6.553c0.43-0.18,0.633-0.693,0.454-1.123c-0.18-0.431-0.693-0.634-1.123-0.454
				C670.543-358.766,666.326-355.964,662.42-353.271z M427.423-333.605l-0.376,0.854l-1.458,0.329L427.423-333.605z M677.55-333.6
				l-0.376,0.848l-1.451,0.329L677.55-333.6z M378.907-329.024c-1.009,0.753-2.061,1.465-3.064,2.223
				c-1.278,0.968-2.652,1.821-3.954,2.76c-2.234,1.602-4.474,3.196-6.708,4.797c-3.441,2.467-6.815,4.97-10.089,7.646
				c-1.494,1.218-3.226,2.634-4.361,4.229c1.099-0.997,2.354-2.013,3.495-2.975c3.62-3.054,7.556-5.711,11.499-8.339
				c3.028-2.02,6.093-3.984,9.104-6.033c3.022-2.055,5.896-4.289,8.739-6.582l0.09-0.711l-0.711-0.09
				C381.577-331.104,380.263-330.04,378.907-329.024z M629.035-329.024c-1.01,0.753-2.062,1.465-3.064,2.223
				c-1.277,0.968-2.651,1.821-3.955,2.76c-2.232,1.602-4.474,3.196-6.708,4.797c-3.439,2.467-6.814,4.97-10.089,7.646
				c-1.493,1.218-3.226,2.634-4.359,4.229c1.099-0.997,2.354-2.013,3.493-2.975c3.62-3.054,7.558-5.711,11.499-8.339
				c3.028-2.02,6.094-3.984,9.104-6.033c3.021-2.055,5.896-4.289,8.738-6.582l0.09-0.711l-0.711-0.09
				C631.705-331.104,630.391-330.04,629.035-329.024z M378.382-312.132l-1.021,1.773c-0.478,1.529-0.687,3.227-0.663,4.939
				l0.113,1.159l-0.758,0.418l-3.19-0.997l-0.848-0.174c0.525-0.316,0.687-0.969,0.34-1.47l1.278-1.518
				c0.992-1.063,2.187-2.097,3.297-3.041L378.382-312.132z M628.509-312.132l-1.021,1.773c-0.479,1.529-0.688,3.227-0.663,4.939
				l0.112,1.159l-0.758,0.418l-3.189-0.997l-0.849-0.174c0.525-0.316,0.688-0.969,0.341-1.47L623.76-308
				c0.992-1.063,2.188-2.097,3.298-3.041L628.509-312.132z M356.107-304.736l-5.077,1.805l-1.171,0.8l0.036-1.051l3.446-1.374
				c0.347-0.107,0.723-0.133,1.082-0.18H356.107z M606.234-304.736l-5.077,1.805l-1.165,0.794l0.036-1.003l3.439-1.416
				c0.348-0.107,0.724-0.133,1.081-0.18H606.234L606.234-304.736z M371.094-303.195l0.812,0.065l2.001,0.771l-1.846,1.439
				c-5.287,4.433-10.042,9.492-14.778,14.503l0.006,0.4l0.4-0.007c3.674-4.02,7.927-7.567,12.215-10.906
				c0.639-0.502,1.309-0.962,1.959-1.445l2.431-1.947l0.191,1.553c0.28,0.496,0.752,0.892,1.344,1.059l2.043,1.016l-7.891,5.675
				c-1.738,1.445-3.507,2.97-4.917,4.742c-0.651,0.818-1.26,1.728-1.762,2.642c-0.257,0.472-0.49,0.99-0.765,1.45l0.113,0.39
				l0.388-0.114c0.502-1.027,1.23-2.12,1.989-2.975c0.281-0.312,0.508-0.657,0.783-0.975c0.956-1.104,1.977-2.138,3.106-3.069
				c2.276-1.882,4.772-3.346,7.222-4.965l3.423-1.965l3.811,3.064l-0.848,0.531c-5.096,3.877-9.617,9.192-13.667,13.654l0.03,0.724
				l0.723-0.029c3.817-4.254,8.231-9.015,12.854-12.419l2.103-1.374l3.477,4.617l0.185,0.341l-0.418,0.232
				c-0.532,0.395-1.159,0.771-1.654,1.206c-1.721,1.506-3.196,2.976-4.785,4.623c-0.89,0.921-1.912,1.931-2.706,2.921
				c-1.272,1.597-2.586,3.112-3.948,4.631l0.012,0.382l0.382-0.013c1.648-1.773,3.399-3.416,5.065-5.166
				c1.977-2.078,4.05-4.073,6.29-5.849l2.515-1.553l1.296,2.419c0.281,0.681,0.622,1.35,0.89,2.031l0.203,0.549l-4.545,3.787
				c-1.708,1.709-3.303,3.536-4.809,5.321c-1.344,1.59-2.706,3.221-3.972,4.868l0.054,0.508l0.507-0.054
				c0.765-0.991,1.577-1.946,2.39-2.902c2.467-2.902,5.053-5.753,7.992-8.195l2.951-1.792c0.932,2.336,1.523,4.726,2.121,7.156
				l-3.291,2.323c-3.339,2.712-6.308,6.235-9.014,9.294l0.036,0.693l0.693-0.036c2.939-3.465,6.815-7.567,10.692-9.993l1.236-0.717
				l1.141,5.035l0.06,0.64l-1.153,1.039c-0.627,0.515-1.511,1.033-2.216,1.451c-1.272,0.753-3.763,2.108-4.641,3.357
				c-0.347,0.496-0.729,0.942-1.021,1.486c-0.675,1.242-0.95,2.329-1.26,3.687c-0.072,0.322,0.131,0.646,0.454,0.717
				c0.322,0.071,0.645-0.132,0.717-0.454c0.37-1.647,0.824-3.201,1.953-4.504c1.195-1.374,3.22-2.503,4.844-3.303l2.491-1.78
				l0.817,8.362l-0.006,0.524l-1.052,6.613l-3.847,3.854c-1.852,1.743-4.08,3.345-5.842,5.154l-0.048,0.92l0.92,0.047
				c0.37-0.382,0.812-0.717,1.194-1.08c1.464-1.397,3.136-2.651,4.629-4.025l2.539-2.539l-0.723,2.85
				c-0.209,0.579-0.37,1.226-0.556,1.815c-0.215,0.693-0.507,1.374-0.729,2.073c-0.12,0.382-0.316,0.775-0.466,1.151
				c-0.747,1.895-1.667,3.614-2.623,5.4c-1.117,2.091-2.825,4.276-4.36,6.087c-0.4,0.473-0.752,1.021-1.153,1.493
				c-1.535,1.827-3.285,3.632-5.173,5.106c-1.308,1.021-2.718,1.84-4.128,2.7c-0.466,0.269-0.621,0.877-0.352,1.345
				c0.269,0.465,0.878,0.621,1.344,0.352c0.753-0.479,1.589-0.859,2.33-1.338l5.215-3.596l-0.782,1.051
				c-2.198,2.312-4.719,4.289-7.694,5.759l-3.56,1.29l-7.753,1.152c-7.084,0.196-14.688-0.99-20.686-5.018l-1.004-1.033l0.305-0.478
				l1.84,0.948c1.344,0.67,2.742,1.062,4.14,1.576c1.147,0.426,2.533,0.729,3.733,0.986c2.777,0.592,5.417,0.943,8.261,0.943
				c0.866,0,1.577-0.711,1.577-1.576c0-0.867-0.711-1.578-1.577-1.578c-2.491,0-4.898,0.126-7.389-0.059
				c-2.282-0.174-4.659-0.58-6.941-1.268l-3.208-1.486l-0.424-1.285c-2.24-2.557-4.08-5-5.842-7.908
				c-0.251-0.412-0.52-0.807-0.741-1.23c-0.777-1.48-1.542-2.921-2.246-4.443c-3.327-7.203-5.06-15.723-4.91-23.785l0.179-3.411
				l0.675-4.659c0.305-1.583,0.663-3.147,1.016-4.688c0.705-3.124,1.792-6.386,2.879-9.385l2.3-6.051l4.188-6.78
				c1.04-1.318,2.276-2.609,3.662-3.815l1.708-1.255l0.322,0.753c0.92,0.979,2.718,0.866,3.297-0.396l0.245-0.591
				c0-0.012,0.012-0.335,0.042-0.872l0.048-0.502l0.221-1.117l3.662-1.792l3.124-0.759l-1.965,1.979
				c-1.129,1.051-2.389,2.383-3.638,3.262c-0.663,0.466-1.421,0.92-2.061,1.392c-0.741,0.55-1.941,0.943-2.778,1.368l-0.221,0.567
				l0.567,0.221c0.501-0.251,1.033-0.43,1.535-0.675c1.153-0.556,2.598-1.303,3.625-2.062c1.505-1.11,3.059-2.204,4.492-3.404
				c1.069-0.891,2.145-1.774,3.255-2.61l0.872-0.663l1.195-0.096l0.37,0.006l-0.239,0.705c0.167,0.353,0.597,0.496,0.95,0.328
				c0.49-0.228,0.962-0.483,1.452-0.704l0.836-0.203l0.568,0.035l-7.103,6.313c-1.266,1.397-2.443,2.767-3.656,4.205l0.066,0.711
				l0.711-0.064c3.213-4.141,7.52-7.771,11.946-10.55l0.412-0.25l1.661,0.273c0.424,0.103,0.854,0.019,1.201-0.19L371.094-303.195z
				 M621.222-303.195l0.812,0.065l2.001,0.771l-1.846,1.439c-5.287,4.433-10.041,9.492-14.778,14.503l0.006,0.4l0.4-0.007
				c3.674-4.02,7.927-7.567,12.216-10.906c0.639-0.502,1.308-0.962,1.959-1.445l2.431-1.947l0.191,1.553
				c0.28,0.496,0.753,0.892,1.344,1.059l2.043,1.016l-7.891,5.675c-1.738,1.445-3.507,2.97-4.916,4.742
				c-0.651,0.818-1.262,1.728-1.763,2.642c-0.257,0.472-0.489,0.99-0.765,1.45l0.113,0.39l0.389-0.114
				c0.501-1.027,1.229-2.12,1.988-2.975c0.28-0.312,0.508-0.657,0.782-0.975c0.955-1.104,1.978-2.138,3.105-3.069
				c2.276-1.882,4.773-3.346,7.223-4.965l3.422-1.965l3.733,3.112l-0.771,0.483c-5.096,3.877-9.617,9.192-13.668,13.654l0.03,0.724
				l0.724-0.029c3.815-4.254,8.23-9.015,12.854-12.419l2.091-1.368l0.312,0.263l3.339,4.756l-0.74,0.411
				c-0.406,0.275-0.933,0.641-1.303,0.962c-1.058,0.927-2.138,1.834-3.112,2.855c-0.555,0.585-1.109,1.188-1.678,1.768
				c-0.891,0.908-1.918,1.937-2.706,2.922c-1.272,1.596-2.587,3.111-3.948,4.63l0.013,0.382l0.382-0.012
				c1.648-1.774,3.398-3.417,5.064-5.167c1.973-2.072,4.052-4.067,6.296-5.843l2.581-1.601l0.885,1.727
				c0.376,0.718,0.669,1.518,1.01,2.259l0.406,1.067l-4.528,3.775c-1.708,1.709-3.303,3.536-4.81,5.321
				c-1.344,1.59-2.705,3.221-3.972,4.868l0.054,0.508l0.509-0.054c0.765-0.991,1.575-1.947,2.389-2.902
				c2.467-2.902,5.054-5.753,7.992-8.195l2.951-1.792c0.865,2.217,1.522,4.504,2.085,6.815l0.076,0.364l-3.332,2.3
				c-3.34,2.712-6.309,6.235-9.015,9.294l0.036,0.693l0.692-0.036c2.938-3.465,6.815-7.567,10.691-9.993l1.268-0.734l1.117,5.054
				l0.07,0.627c-0.399,0.329-0.765,0.717-1.171,1.052c-0.627,0.515-1.511,1.033-2.216,1.451c-1.272,0.753-3.763,2.108-4.642,3.357
				c-0.347,0.496-0.729,0.942-1.021,1.486c-0.676,1.242-0.95,2.329-1.261,3.687c-0.072,0.322,0.131,0.646,0.454,0.717
				c0.321,0.071,0.645-0.132,0.717-0.454c0.37-1.647,0.824-3.201,1.953-4.504c1.193-1.374,3.22-2.503,4.844-3.303l2.617-1.864
				l0.189,1.242l0.508,6.744l-0.012,0.984l-1.052,6.613l-3.847,3.854c-1.853,1.743-4.079,3.345-5.843,5.154l-0.048,0.92l0.92,0.047
				c0.371-0.382,0.812-0.717,1.195-1.08c1.463-1.397,3.136-2.651,4.629-4.025l2.539-2.539l-0.723,2.85
				c-0.21,0.579-0.371,1.226-0.557,1.815c-0.216,0.693-0.508,1.374-0.729,2.073c-0.119,0.382-0.316,0.775-0.466,1.151
				c-0.746,1.895-1.666,3.614-2.622,5.4c-1.117,2.091-2.825,4.276-4.36,6.087c-0.399,0.473-0.753,1.021-1.153,1.493
				c-1.534,1.827-3.284,3.632-5.173,5.106c-1.308,1.021-2.718,1.84-4.127,2.7c-0.466,0.269-0.621,0.877-0.353,1.345
				c0.269,0.465,0.878,0.621,1.344,0.352c0.753-0.479,1.589-0.859,2.33-1.338l5.214-3.596l-0.782,1.051
				c-2.197,2.312-4.719,4.289-7.692,5.759l-3.932,1.403c-2.384,0.557-4.958,0.975-7.377,1.039
				c-4.241,0.113-8.487-0.166-12.573-1.396c-0.843-0.252-1.654-0.514-2.484-0.801c-0.432-0.149-0.854-0.371-1.284-0.52
				c-0.879-0.306-2.474-1.105-3.25-1.625l-2.078-1.722l0.306-0.515l4.024,1.896c1.756,0.65,3.578,1.177,5.424,1.612
				c2.783,0.65,5.64,0.997,8.5,0.997c0.866,0,1.577-0.712,1.577-1.576c0-0.867-0.711-1.578-1.577-1.578
				c-2.489,0-4.897,0.126-7.389-0.06c-2.282-0.168-4.659-0.573-6.941-1.267l-3.206-1.487l-0.426-1.285
				c-2.238-2.557-4.079-4.998-5.842-7.907c-0.251-0.412-0.52-0.808-0.74-1.229c-0.775-1.481-1.541-2.922-2.246-4.444
				c-3.326-7.203-5.06-15.723-4.909-23.785l0.179-3.411l0.676-4.659c0.306-1.583,0.663-3.147,1.016-4.688
				c0.705-3.124,1.792-6.386,2.88-9.385l2.3-6.051l4.187-6.779c1.04-1.319,2.276-2.61,3.662-3.816l1.714-1.261l0.323,0.759
				c0.92,0.979,2.718,0.866,3.297-0.396l0.245-0.591c0-0.012,0.012-0.335,0.042-0.878l0.048-0.502l0.215-1.111l3.661-1.792
				l3.125-0.759l-1.966,1.979c-1.129,1.051-2.39,2.383-3.638,3.262c-0.663,0.466-1.422,0.92-2.062,1.392
				c-0.74,0.551-1.94,0.943-2.776,1.368l-0.222,0.567l0.566,0.221c0.502-0.251,1.033-0.43,1.535-0.675
				c1.153-0.556,2.599-1.303,3.626-2.062c1.505-1.11,3.059-2.204,4.492-3.404c1.068-0.891,2.145-1.774,3.255-2.61l0.873-0.663
				l1.193-0.096l0.37,0.006l-0.238,0.705c0.168,0.353,0.598,0.496,0.949,0.328c0.49-0.228,0.962-0.483,1.451-0.704l0.837-0.203
				l0.567,0.035l-7.104,6.313c-1.267,1.397-2.438,2.767-3.648,4.205l0.064,0.711l0.711-0.064c3.208-4.134,7.516-7.777,11.94-10.55
				l0.412-0.25l1.661,0.273c0.424,0.103,0.854,0.019,1.2-0.19L621.222-303.195z M344.979-299.427l-0.018,0.58l-0.848,0.663
				l-2.557,2.818l2.3-3.13L344.979-299.427z M595.112-299.427l-0.02,0.58l-0.854,0.663l-2.558,2.818l2.301-3.13L595.112-299.427z
				 M610.56-197.444c-0.216,3.763-0.023,7.497-0.054,11.26c-0.019,2.73,0.019,5.52,0.061,8.25c0.028,2.079-0.014,4.492-0.239,6.564
				l-0.418,3.883l-1.38,0.221c-0.979,0.131-1.979,0.209-2.819,0.317c-2.945,0.364-6.26,0.442-9.235,0.478
				c-5.446,0.066-10.947,0.179-16.396,0.036c-3.478-0.09-7.104-0.108-10.573-0.006c-26.599,0.562-53.091,0.353-79.684-0.287
				c-10.138-0.245-20.279-0.657-30.41-1.069c-4.946-0.203-9.886-0.484-14.826-0.675c-18.894-0.992-37.835-2.568-56.741-3.064
				c-6.332-0.167-12.562-0.191-18.894-0.143c-1.416,0.012-2.921,0.006-4.331,0.089c-0.747,0.048-1.738,0.149-2.551,0.114
				l-0.179-1.81c-0.107-3.638,0.275-7.413,0.514-10.937c0.12-1.762,0.275-3.53,0.317-5.292c0.03-1.105-0.018-2.222,0.006-3.327
				c0-1.04-0.842-1.894-1.882-1.894c-1.039,0-1.894,0.842-1.894,1.881c-0.036,0.998,0.012,2.025-0.054,3.011
				c-0.149,2.312-0.311,4.624-0.466,6.935c-0.131,1.959-0.299,3.871-0.358,5.83c-0.018,0.597-0.078,1.212-0.048,1.804
				c0.078,1.661,0.006,3.303,0.209,4.958c0.084,0.663,0.036,1.29,0.424,1.875c0.926,1.404,2.993,0.723,4.384,0.717
				c1.027-0.006,2.079-0.071,3.112-0.095c3.255-0.066,6.511-0.084,9.767-0.09c6.116-0.012,12.305,0.155,18.416,0.472
				c2.467,0.125,4.946,0.209,7.413,0.322c8.799,0.412,17.628,1.016,26.42,1.571c11.355,0.717,22.717,1.272,34.084,1.72l17.783,0.579
				l-0.532,1.207c-0.106,0.968-0.077,2.091-0.089,3.07c-0.013,1.255-0.042,2.503-0.024,3.757c0.036,2.24,0.216,4.522,0.306,6.768
				c0.161,3.93,0.357,7.992,0.221,11.923c-0.089,2.544-0.273,5.005-0.508,7.538c-0.083,0.89,0.574,1.69,1.464,1.774
				s1.69-0.573,1.774-1.463c0.106-1.332,0.292-2.652,0.418-3.978c0.179-1.917,0.273-3.901,0.376-5.824
				c0.196-3.667,0.37-7.341,0.502-11.015c0.106-3.011,0.257-5.979,0.311-8.99c0.019-1.147,0.097-2.294,0.09-3.441l-0.466-1.201
				l12.49,0.412c10.949,0.299,21.88,0.389,32.829,0.478c10.446,0.083,20.895-0.024,31.342-0.185c3.31-0.054,6.643-0.083,9.946-0.167
				c2.615-0.065,5.256-0.006,7.879,0.012c7.891,0.054,15.889,0.227,23.768-0.233c2.777-0.162,5.328-0.406,8.046-0.818
				c0.718-0.108,2.288-0.358,2.803-0.801c0.663-0.579,0.913-1.87,1.051-2.729c0.316-1.983,0.55-3.918,0.657-5.932
				c0.28-5.328,0.215-10.585,0.174-15.913c-0.014-1.708-0.066-3.512,0.022-5.214c0.055-0.98-0.029-2.085,0.097-3.053
				c0.048-1.218-0.902-2.252-2.12-2.3C611.641-199.612,610.607-198.662,610.56-197.444z M441.95-114.331
				c-3.112-0.018-6.278,0.047-9.396,0.113c-3.146,0.066-6.296,0.054-9.438,0.137c-3.106,0.084-6.219,0.108-9.324,0.167
				c-2.025,0.036-4.062,0.167-6.087,0.257c-1.225,0.054-2.503,0.066-3.722,0.155c-0.933,0.066-1.834-0.06-2.719,0.125
				c-0.795,0.191-1.392,0.818-1.56,1.613c-0.137,0.657,0.174,1.362,0.454,1.941c0.12,0.245,0.148,0.765,0.144,1.296l-0.036,0.812
				l-0.292-0.298c-0.62-0.263-1.355,0.03-1.618,0.651c-0.634,1.386-1.268,2.801-1.744,4.241c-0.496,1.493-0.776,3.321-0.968,4.886
				c-0.209,1.696-0.096,3.644,0.233,5.316c0.926,4.737,3.429,8.811,6.672,12.311l3.172,2.885l0.592,1.284
				c0.238,0.466,0.646,0.789,1.11,0.938l0.741-0.066l5.501,3.853c1.702,1.075,3.399,2.145,5.149,3.142l5.9,3.219l-6.373-2.748
				c-3.153-1.481-6.261-3.07-9.271-4.761l-5.901-3.626l-0.245-0.501c-0.263-0.436-0.566-0.729-0.948-1.093l-0.438-0.424v-2.389
				c0-0.388-0.316-0.705-0.705-0.705c-0.388,0-0.704,0.316-0.704,0.705c0,0.556-0.112,2.616,0.071,2.999l1.1,1.129l0.364,0.436
				l0.46,0.884c1.093,0.878,2.598,1.744,3.799,2.515c2.174,1.392,4.366,2.718,6.606,4.002c4.521,2.598,9.108,4.91,13.751,7.281
				c1.898,0.968,3.87,1.822,5.788,2.76c3.53,1.732,7.239,3.369,10.907,4.779c1.756,0.675,3.477,1.38,5.279,1.917l1.278,0.317
				l2.658,1.738c1.618,1.177,3.236,2.485,4.587,3.835l1.882,2.258l-0.065,0.669l-0.592,6.182l-0.346,0.245
				c-1.661,1.087-3.495,2.903-4.856,4.354c-3.481,3.704-6.685,8.429-9.031,12.938c-1.332,2.557-2.61,5.071-3.716,7.735
				c-1.815,4.384-3.34,9.366-4.443,13.978c-0.884,3.691-1.738,7.598-2.043,11.373c-0.329,4.14-0.37,7.957-0.097,12.108
				c0.155,2.347,0.579,4.677,1.011,6.989c1.271,6.792,3.648,13.446,6.881,19.55l3.082,5.346
				c3.495,7.759,10.711,13.237,18.583,16.027c2.521,0.896,5.364,1.815,8.011,2.216c0.502,0.078,0.997,0.173,1.499,0.275
				c1.255,0.251,2.664,0.329,3.942,0.478c1.834,0.215,3.812,0.185,5.662,0.197c3.829,0.024,10.209-0.675,13.638-2.335
				c1.243-0.604,2.127-1.422,3.208-2.222c0.591-0.269,0.859-0.979,0.591-1.571c-0.269-0.591-0.979-0.86-1.66-0.58l6.631-5.173
				l3.159-3.614c-0.006,0.305,0.107,0.585,0.329,0.794c0.437,0.418,1.141,0.406,1.559-0.03c0.562-0.675,1.249-1.296,1.816-1.989
				c0.914-1.117,1.618-2.258,2.431-3.435c0.473-0.681,0.902-1.541,1.297-2.276c1.1-2.067,1.978-4.206,2.771-6.41
				c1.003-2.783,1.762-5.555,2.371-8.356l0.675-3.979l1.792-8.016c0.096-0.388,0.024-0.776-0.357-1.242l0.692-5.316
				c0.131-2.062,0.312-4.164,0.27-6.23c-0.03-1.631-0.078-3.238-0.133-4.868c-0.064-2.049-0.376-4.08-0.614-6.111
				c-0.418-3.578-1.499-7.461-2.586-10.896l-0.467-1.087l-0.914-3.482c-0.859-2.431-2.085-4.772-3.291-6.917l-0.453-0.675
				l0.315-0.836c-0.144-0.323-0.531-0.46-0.942-0.275l-3.144-4.545l-2.348-2.491l-2.599-2.664c-1.84-1.63-3.858-3.142-5.991-4.432
				l-1.052-0.543l-0.16-0.466c-0.609-2.903-0.055-5.842,1.35-8.62c0.389-0.771,1.081-1.804,1.702-2.396
				c0.418-0.478,0.604-1.087,0.52-1.768l3.495-2.055l-0.191,0.986c0.264,0.388,0.802,0.496,1.188,0.233
				c2.796-1.978,5.788-3.757,8.871-5.394l4.713-2.282l2.76-1.058c4.479-1.421,9.025-2.664,13.499-3.978
				c3.584-1.057,7.079-2.126,10.608-3.357c1.715-0.598,3.549-1.302,5.138-2.18l2.61-1.9l0.514,0.054
				c0.316-0.096,0.598-0.305,0.765-0.609c0.933-1.69,2.008-3.268,3.006-4.916c0.561-0.926,1.392-1.995,1.826-2.969l0.12-0.311
				l0.698-0.562c0.472-0.389,0.741-0.932,0.801-1.494l-0.245-0.806l0.878-0.484c1.799-0.95,3.562-1.995,5.37-2.903
				c0.567-0.287,1.13-0.627,1.709-0.89c0.525-0.275,0.734-0.938,0.459-1.464c-0.273-0.525-0.938-0.734-1.463-0.46
				c-1.924,0.968-3.847,2.013-5.723,3.077l-0.688,0.424l0.914-3.16c0.495-2.025,0.884-4.08,1.142-6.165
				c0.138-1.135,0.173-2.3,0.315-3.423c0.024-0.723-0.251-1.392-0.711-1.888l-0.436-0.203l0.311-2.706l0.746,0.095
				c1.142-0.245,1.953-1.541,1.476-2.813c-0.495-1.314-1.062-3.196-1.91-4.277c-2.134-2.706-5.209-2.784-8.411-2.67
				c-1.875-0.036-3.77,0.114-5.64,0.078c-3.297-0.06-6.563-0.137-9.86-0.257c-5.991-0.215-12.014-0.705-18.004-1.016
				c-1.393-0.071-2.809-0.161-4.199-0.179l-3.71-0.101l0.21-0.448l-0.586-0.263l-1.619,0.663l-23.062-0.598l-2.729-0.083
				l0.692-0.454l-1.457,0.43l-11.966-0.358c-1.769-0.065-3.548-0.042-5.315-0.102c-2.539-0.083-5.107-0.12-7.646-0.131h-2.574
				l-2.503-0.418c-1.23-0.108-2.42-0.221-3.655-0.251C449.381-114.51,445.646-114.313,441.95-114.331z M455.008-110.096l7.139,0.167
				l-5.029,3.279c-1.959,1.368-3.889,2.694-5.933,3.93c-0.817,0.496-1.792,0.836-2.573,1.314l-0.191,0.514l0.514,0.191
				c0.4-0.215,0.896-0.37,1.278-0.609c0.322-0.203,0.717-0.37,1.058-0.555c0.818-0.448,1.732-0.998,2.504-1.523
				c2.467-1.69,4.838-3.381,7.316-4.874l3.44-1.589l12.562,0.43l-2.001,0.908c-4.074,1.828-9.115,4.504-12.496,7.515
				c-1.039,0.926-1.93,1.815-2.909,2.807l0.013,0.562l0.562-0.012c3.758-4.086,8.262-6.595,13.31-8.799l6.821-2.867l13.101,0.454
				l-2.234,0.884c-5.022,2.586-9.575,6.32-13.512,10.346l0.299,0.311c3.674-3.757,8.954-7.784,13.888-9.659
				c1.368-0.52,2.664-1.153,4.163-1.75l9.205,0.227l-1.392,0.818c-3.369,2.246-6.553,4.814-9.874,7.418
				c-1.577,1.23-3.147,2.461-4.73,3.686c-1.129,0.872-2.312,1.685-3.298,2.754c2.688-1.923,5.406-3.876,8.082-5.824
				c3.321-2.419,6.702-4.796,10.202-6.958l3.524-1.828l6.769,0.173l7.854,0.316l-3.931,1.792c-0.734,0.395-1.511,0.753-2.222,1.189
				c-3.662,2.234-7.104,4.576-10.489,7.209c-2.551,1.983-5.376,4.349-7.58,6.702l-0.012,0.585l0.585,0.012
				c1.309-1.398,2.903-2.742,4.372-3.973c3.8-3.189,8.07-5.914,12.515-8.333l10.501-5.03l0.854,0.036l9.432,0.454l-1.959,0.961
				c-3.244,1.888-6.236,4.056-9.235,6.314c-2.113,1.589-4.229,3.178-6.344,4.772c-1.218,0.92-2.525,1.732-3.751,2.646l-0.155,0.86
				l0.86,0.155c1.141-0.854,2.359-1.607,3.519-2.437c1.309-0.938,2.604-1.899,3.912-2.843c3.189-2.3,6.493-4.772,9.922-6.702
				c0.849-0.478,1.732-1.027,2.61-1.445l4.438-2.097l7.688,0.376c1.481,0.024,2.969,0.054,4.45,0.024
				c1.403-0.03,2.819-0.006,4.217-0.06c0.514-0.018,1.135-0.054,1.644-0.012c0.938,0.078,1.715,0.078,2.615,0.281l0.448,0.227
				l0.084,0.472l-0.55,1.625c0.102,1.254,0.311,2.521,0.376,3.775l-0.006,1.894l-0.657,1.404l-11.755,6.326
				c-4.301,2.604-8.566,5.101-12.192,8.613c3.524-2.927,7.813-5.412,11.911-7.413c2.76-1.35,5.562-2.718,8.394-3.913l3.339-1.667
				l-0.376,5.854c-0.342,2.401-0.885,4.773-1.696,7.21l-0.442,1.243l-1.193,0.979c-0.86,0.675-1.816,1.332-2.706,1.977l-1.1,0.723
				l-6.235,3.955l-3.896,2.431c-6.29,3.709-13.034,6.798-19.503,10.179L521.7-59.83l-4.068,1.493
				c-2.232,0.92-4.408,1.858-6.605,2.85l-9.575,5.436l-0.788-0.269l5.089-3.596c1.702-1.057,3.494-1.965,5.227-2.975
				c3.299-1.917,6.66-3.691,9.929-5.657c0.478-0.245,0.663-0.848,0.418-1.326s-0.849-0.663-1.326-0.418
				c-6.427,2.766-12.287,6.511-17.86,10.698c-3.027,2.27-5.864,4.646-8.528,7.204l-5.007,5.49l-0.502-0.12l-2.586,1.696L484.08-39.7
				c-0.729-0.089-1.518-0.215-2.246-0.328l-2.025-0.072l0.795-0.543c0.454-0.257,0.609-0.842,0.354-1.296s-0.843-0.609-1.297-0.353
				c-0.794,0.233-1.654,0.753-2.341,1.207l-1.41,1.045l-0.406,0.024l14.336-10.985c4.325-3.268,8.763-6.654,13.279-9.641
				c1.469-0.968,2.908-1.977,4.384-2.939c1.47-0.956,2.987-1.863,4.469-2.807c2.174-1.38,4.438-2.628,6.63-3.972
				c0.37-0.209,0.496-0.693,0.287-1.063c-0.209-0.371-0.692-0.496-1.062-0.287c-2.97,1.589-5.669,3.369-8.464,5.238
				c-4.158,2.784-8.102,5.765-12.098,8.775c-3.96,2.987-7.927,6.087-11.772,9.211c-3.423,2.784-6.982,5.418-10.453,8.148
				l-0.048,0.358l-0.412,0.03c0.102-0.681-0.37-1.284-1.021-1.362c-2.155-0.257-3.77-0.263-5.92,0.006
				c-1.146,0.143-2.238,0.442-3.303,0.824l-2.831,1.195l-0.364-0.257l-0.132-1.159l0.396-2.526c0.794-0.568,0.948-1.643,0.388-2.396
				l-0.472-0.591l0.215-3.674c0.048-0.609-0.412-1.153-1.021-1.201c-0.608-0.047-1.151,0.413-1.2,1.021l-0.154,1.434l-1.607-1.589
				l-2.598-1.989l-0.024-0.58c-0.144-0.311-0.412-0.574-0.759-0.699l-3.649-1.661l-5.92-3.596c-3.188-1.708-6.366-3.357-9.581-5.018
				c-3.512-1.816-7.148-3.536-10.585-5.483c-1.521-0.86-3.1-1.661-4.604-2.557c-1.564-0.932-3.082-1.894-4.629-2.855
				c-1.159-0.717-2.474-1.583-3.548-2.413l-2.343-1.87l-2.724-5.358c-0.979-1.983-1.828-3.979-2.76-5.974
				c-0.724-1.541-1.195-3.309-1.738-4.922l-0.771-3.913l0.46-2.389c0.347-1.087,0.771-2.156,1.081-3.106
				c0.395-1.218,0.968-2.951,1.129-4.468l0.036-0.388h0.996c1.899,0.065,3.865-0.048,5.795,0.024l4.881-0.018l7.64,0.102
				l4.521-0.233l6.302-0.083l-4.057,2.891c-1.541,1.153-3.178,2.21-4.587,3.542c2.348-1.517,4.642-3.148,6.982-4.665
				c0.949-0.615,1.924-1.165,2.896-1.774l6.017-0.078l5.495-0.06l-4.182,2.115c-1.834,1.146-3.578,2.449-5.245,3.882
				c-1.434,1.23-2.921,2.921-4.14,4.378l0.024,0.382l0.382-0.024c3.758-4.516,8.417-7.652,13.644-10.214l1.32-0.538l0.591-0.006
				L455.008-110.096z M536.932-95.963c-3.397,2.342-6.647,4.821-9.916,7.341c-1.82,1.404-3.686,2.826-5.465,4.283l-0.065,0.556
				l0.556,0.066c1.548-1.296,3.256-2.515,4.881-3.715c3.626-2.682,7.419-5.269,11.325-7.521c1.111-0.639,2.192-1.308,3.333-1.906
				c2.12-1.105,4.211-2.246,6.344-3.339c1.547-0.789,3.124-1.523,4.671-2.306c0.432-0.179,0.634-0.693,0.454-1.123
				c-0.179-0.43-0.691-0.633-1.123-0.454C546.411-102.175,541.723-99.26,536.932-95.963z M398.679-96.883l0.412,2.545l1.477,4.898
				l-1.111-2.485C398.983-93.472,398.703-95.103,398.679-96.883z M555.365-73.844l-0.914,2.205l-3.966,1.129l-4.826,2.037
				l5.884-2.849L555.365-73.844z M497.341-67.267c-3.244,2.342-6.487,4.66-9.767,6.953c-8.143,5.699-16.444,11.445-23.505,18.47
				c8.124-7.485,17.418-13.183,26.587-19.288c3.256-2.168,6.457-4.545,9.562-6.923c0.896-0.681,1.738-1.44,2.628-2.133l0.084-0.717
				l-0.717-0.083C500.566-69.823,498.989-68.461,497.341-67.267z M497.245-47.896l-0.406,0.567
				c-1.396,2.628-1.876,5.878-1.673,9.026l-1.146,0.807l-2.854-0.944l-2.735-0.341l0.76-0.448c0.488-0.299,0.649-0.95,0.237-1.469
				l1.464-1.732c1.463-1.493,2.992-2.891,4.588-4.217L497.245-47.896z M499.396-41.02c1.021-0.759,2.084-1.529,3.136-2.24
				C501.48-42.549,500.417-41.779,499.396-41.02z M468.472-38.965l2.568,0.012l-0.962,0.245l-7.396,3.375l0.035-0.532l0.013-0.609
				l-0.029-0.46l1.493-0.854C465.551-38.368,466.966-38.768,468.472-38.965z M487.938-37.107l1.23,0.113l2.748,0.956l-2.515,1.965
				c-2.604,2.109-4.93,4.378-7.359,6.678c-3.507,3.315-6.857,6.87-10.179,10.37l0.006,0.4l0.399-0.006
				c4.456-4.755,9.276-8.942,14.391-12.962c0.753-0.591,1.535-1.146,2.294-1.732c1.039-0.801,2.043-1.649,3.082-2.449l1.171-0.932
				l-0.89,1.146c-0.329,1.183,0.363,2.425,1.547,2.754l2.831,1.416l-7.976,5.478c-2.985,2.24-5.794,4.695-8.016,7.557
				c-1.052,1.35-1.792,2.831-2.616,4.318l0.113,0.388l0.388-0.113c0.801-1.84,2.76-4.188,4.141-5.663
				c3.732-3.99,8.351-6.684,12.938-9.605l2.449-1.649l0.968,0.484c0.979,0.556,2.03,1.368,2.891,2.103l1.188,1.207l-3.774,2.981
				c-5,4.133-9.414,9.39-13.811,14.139l0.03,0.723l0.723-0.03c4.354-4.761,8.924-9.832,14.025-13.816l4.056-2.724l1.104,1.117
				l3.328,4.97l-3.459,2.449c-1.541,1.291-2.992,2.7-4.45,4.265c-1.248,1.338-2.688,2.694-3.822,4.11
				c-0.65,0.806-1.326,1.625-2.008,2.407c-0.865,0.998-1.768,1.965-2.628,2.963l0.013,0.382l0.383-0.012
				c1.856-2.132,4.008-4.074,5.955-6.128c1.75-1.852,3.477-3.537,5.292-5.113l5.537-4.11l2.818,6.2l-0.633,0.448
				c-1.361,1.117-2.688,2.145-3.973,3.369c-2.516,2.389-4.684,4.85-6.936,7.473c-1.522,1.78-3.094,3.649-4.51,5.513l0.054,0.508
				l0.508-0.054c1.397-1.84,3.006-3.733,4.547-5.454c1.833-2.049,3.78-4.152,5.871-6.093l5.65-4.295l1.564,4.552l0.968,4.593
				c-5.925,3.554-10.238,8.644-14.766,13.756l0.035,0.693l0.692-0.036c3.311-3.781,6.493-7.108,10.382-10.268l4.104-2.646
				l1.283,5.531l-0.035,1.577c-0.604,0.49-1.194,1.171-1.841,1.559c-0.488,0.293-1.015,0.675-1.499,0.992
				c-0.488,0.323-1.104,0.633-1.617,0.932c-0.934,0.537-1.793,1.111-2.678,1.696c-0.585,0.388-1.057,0.932-1.569,1.392
				c-1.673,1.493-2.545,4.277-2.999,6.392c-0.071,0.322,0.132,0.645,0.454,0.717c0.321,0.072,0.646-0.131,0.717-0.454
				c0.418-2.013,1.093-4.146,2.574-5.639c1.966-1.983,4.331-2.921,6.685-4.354l2.186-1.696l1.063,8.727l0.006,0.58l-1.374,9.265
				l-1.338,1.362c-0.299,0.341-0.656,0.639-0.974,0.968c-2.139,2.222-4.485,4.241-6.839,6.236c-0.854,0.723-1.78,1.517-2.568,2.306
				l-0.042,0.926l0.93,0.038c1.011-1.04,2.229-2.001,3.327-2.951c2.371-2.055,4.575-3.99,6.731-6.254l0.508-0.812l-0.161,1.111
				c-2.072,8.452-5.764,16.456-11.109,22.752c-1.188,1.398-2.271,2.82-3.543,4.158c-2.766,2.909-5.787,5.065-9.234,7.096
				c-0.466,0.269-0.621,0.878-0.353,1.344c0.27,0.466,0.878,0.621,1.345,0.352c0.89-0.562,1.862-1.027,2.74-1.589l7.939-5.83
				l-3.298,4.014c-1.123,1.093-2.497,2.288-3.781,3.189c-1.152,0.812-2.323,1.463-3.5,2.216c-0.579,0.37-1.29,0.609-1.888,0.956
				c-0.396,0.227-0.824,0.364-1.236,0.55l-3.011,0.908l-3.954,0.783c-9.778,1.26-21.881-0.43-30.166-6.547l-0.758-0.657l0.711-0.233
				l0.25-0.514l4.391,2.103c5.441,2.103,11.756,3.202,17.149,3.172c0.866,0,1.571-0.717,1.571-1.583
				c0-0.866-0.718-1.571-1.584-1.571c-2.921,0.018-5.842,0.143-8.757-0.131c-3.172-0.299-6.601-0.968-9.813-2.126l-2.497-1.147
				l-0.479-1.458c-0.698-0.836-1.444-1.637-2.139-2.479c-1.786-2.174-3.339-4.522-4.809-6.917c-0.292-0.479-0.621-0.962-0.878-1.463
				c-1.506-2.945-3.088-5.824-4.188-8.96c-0.663-1.894-1.302-3.74-1.863-5.675c-1.116-3.829-1.715-7.646-2.149-11.594
				c-0.191-1.756-0.376-3.709-0.341-5.472c0.042-2.013,0.112-3.937,0.251-5.872c0.126-1.738,0.466-3.53,0.747-5.263
				c0.076-0.49,0.221-0.979,0.293-1.47c0.269-1.81,0.806-3.876,1.29-5.645c0.739-2.7,1.476-5.466,2.437-8.1
				c0.634-1.727,1.267-3.453,1.895-5.179l2.097-4.582l1.326-2.557c1.271-2.156,2.818-4.241,4.588-6.176l5.311-4.767l0.495,1.015
				c0.914,0.968,2.706,0.878,3.298-0.37l0.25-0.591c0.09-0.789,0.097-1.559,0.187-2.354l0.048-0.364l3.154-1.822l5.997-1.738
				l-1.404,1.379c-1.075,1.034-2.12,2.139-3.227,3.136c-0.691,0.633-1.48,1.201-2.186,1.828c-0.872,0.777-1.937,1.278-2.844,1.954
				c-0.843,0.627-2.3,1.159-3.273,1.606l-0.231,0.568l0.566,0.233c1.033-0.52,2.162-0.896,3.178-1.476
				c0.866-0.496,1.702-1.016,2.552-1.541c0.663-0.406,1.409-0.992,2.029-1.47c2.218-1.702,4.313-3.512,6.505-5.227l1.847-1.434
				l2.169-0.03l-0.27,0.783c0.167,0.352,0.598,0.496,0.949,0.328c0.599-0.292,1.195-0.615,1.805-0.872l0.974-0.287l1.153-0.006
				l-3.687,2.885c-1.738,1.505-3.399,3.088-4.916,4.665c-1.613,1.672-3.04,3.429-4.54,5.197l0.065,0.711l0.711-0.066
				c2.043-2.557,4.54-5.245,7.055-7.341c1.004-0.836,2.025-1.619,3.053-2.425c0.557-0.436,1.178-0.908,1.769-1.291l2.934-1.929
				l1.899,0.322C486.875-35.686,487.747-36.211,487.938-37.107z M457.755-33.38v0.395c-0.041,0.353-0.064,0.663-0.077,0.944
				l0.029,0.34l-2.592,1.995l-3.687,4.056l1.756-2.718c1.095-1.386,2.134-2.76,3.399-4.008L457.755-33.38z"/>
		</g>
	</g>
</g>
</svg>
