<?xml version="1.0" encoding="utf-8"?>
<!-- Generator: Adobe Illustrator 16.0.0, SVG Export Plug-In . SVG Version: 6.00 Build 0)  -->
<!DOCTYPE svg PUBLIC "-//W3C//DTD SVG 1.1//EN" "http://www.w3.org/Graphics/SVG/1.1/DTD/svg11.dtd">
<svg version="1.1" id="Layer_1" xmlns="http://www.w3.org/2000/svg" xmlns:xlink="http://www.w3.org/1999/xlink" x="0px" y="0px"
	 width="434.054px" height="422.049px" viewBox="262.975 8.369 434.054 422.049"
	 enable-background="new 262.975 8.369 434.054 422.049" xml:space="preserve">
<g transform="scale(1 -1)">
	<g transform="translate(0 -75)">
		<g>
			<path marker-start="none" marker-end="none" d="M334.095-344.418c-1.23-1.271-2.431-2.568-3.625-3.87
				c-0.167-0.191-0.466-0.203-0.657-0.024c-0.191,0.174-0.209,0.473-0.036,0.657c1.141,1.249,2.282,2.497,3.422,3.739
				c-0.215,0.12-0.43,0.233-0.639,0.353c-2.98-1.428-6.027-2.67-9.3-3.477c-0.783-0.191-1.732-0.525-2.533-0.579
				c-0.466-0.024-0.938-0.042-1.398-0.042c-0.042-0.723-0.562-1.397-1.38-1.529c-0.908-0.155-2.915,1.147-3.781,1.637
				c-0.341,0.186-0.675,0.376-1.021,0.573c-0.293-0.102-0.615-0.119-0.938-0.035c-11.971,2.484-21.086,12.699-25.972,23.499
				c-2.885,3.494-5.507,7.197-7.825,11.026c-2.019,3.31-4.038,6.852-5.579,10.412c-0.371,0.859-1.386,2.58-0.998,3.452
				c0.376,0.866,1.404,1.344,2.3,0.842c0.209-0.131,0.448-0.37,0.687-0.633l-0.729,2.085c-0.131,0.364-0.006,0.765,0.287,0.997
				c-0.137,0.197-0.275,0.4-0.406,0.598c-1.941-1.882-3.876-3.77-5.818-5.65l-0.353,0.006c-0.036-0.042-0.078-0.072-0.107-0.107
				c-0.502-0.526-1.356-0.532-1.888-0.013s-0.555,1.374-0.048,1.894c2.126,2.181,4.229,4.402,6.404,6.559
				c-0.132,0.203-0.257,0.395-0.389,0.592c-1.218,1.846-2.502,3.697-3.662,5.573c-0.221,0.334-0.131,0.788,0.197,1.003
				c0.334,0.216,0.789,0.114,1.009-0.227c1.225-1.989,2.593-3.937,3.925-5.878c0.34,0.329,0.675,0.646,1.015,0.968
				c1.243,1.183,2.497,2.354,3.757,3.519c-0.054,1.792-0.018,3.584-0.065,5.37c0,0.232,0.185,0.424,0.418,0.418
				s0.424-0.197,0.424-0.43c-0.054-1.512-0.036-3.059,0.03-4.612c7.048,6.493,14.252,12.735,21.51,19.043
				c2.712,2.354,5.4,4.737,8.106,7.108c1.362,1.309,2.724,2.616,4.086,3.931c6.081,5.842,12.173,11.684,18.308,17.55
				c1.881,2.037,3.751,4.146,5.525,6.355c4.068,4.892,8.118,9.737,12.293,14.552c5.627,6.463,11.552,12.657,17.454,18.869
				c8.494,8.936,17.251,17.669,26.05,26.301c16.564,16.247,33.486,32.118,50.122,48.3c12.389,12.06,24.538,24.389,36.372,36.993
				c4.957,5.203,9.832,10.495,14.783,15.71c11.511,12.114,23.1,24.162,34.843,36.049c20.931,21.193,41.999,42.262,63.329,63.066
				c12.651,12.341,25.369,24.628,38.057,36.934c1.177,1.141,3.088,1.081,4.247-0.114c1.158-1.201,1.141-3.112-0.036-4.247
				c-25.464-24.347-50.553-49.125-75.562-73.932c-5.131-5.083-10.179-10.256-15.286-15.352
				c-12.107-12.084-24.066-24.372-35.888-36.73c-8.082-8.453-16.241-16.881-24.168-25.471
				c-16.552-17.705-34.03-34.454-51.502-51.251c-9.223-8.87-18.5-17.663-27.758-26.558c14.007,13.327,27.961,26.624,41.896,39.938
				c15.871,15.166,31.652,30.428,47.422,45.696c11.941,11.564,23.757,23.249,35.619,34.884
				c12.389,12.144,24.813,24.276,37.059,36.575c6.481,6.499,12.963,13.004,19.408,19.533c5.692,5.771,11.325,11.588,17.054,17.323
				c9.217,9.217,18.685,18.219,28.104,27.221c0.143,0.155,0.388,0.161,0.537,0.018c0.155-0.143,0.167-0.388,0.024-0.537
				c-4.904-5.681-9.797-11.385-14.784-16.988c3.249,2.64,6.815,4.928,10.555,6.624c3.417,1.547,7.138,2.784,10.884,3.304
				c1.206,0.167,2.347,0.274,3.476,0.34c-0.549,0.454-1.074,0.914-1.588,1.386c-1.506,1.374-2.838,2.724-4.224,4.223
				c-0.562,0.604-1.213,1.332-1.386,2.145c-0.119,0.567-0.096,0.926,0.048,1.493l0.179,0.323c0.49,0.908,1.267,1.368,2.288,1.38
				l0.567-0.018c0.789-0.233,1.631-0.83,2.342-1.272c0.765-0.478,1.529-0.956,2.3-1.434c1.057-0.376,3.327-1.541,3.948-1.846
				c8.644-4.289,17.699-10.214,23.487-18.23c5.681-5.364,10.483-11.57,12.64-19.187c0.782-2.79,1.104-5.668,0.979-8.53
				c0.74-0.472,1.481-0.944,2.233-1.416c1.434-0.908,3.029-1.822,4.517-2.641c1.093-0.603,2.354-1.17,3.362-1.881
				c1.643-1.171,2.838-2.372,4.199-3.835c0.149-0.078,0.216-0.269,0.144-0.412c-0.071-0.144-0.263-0.209-0.406-0.131
				c-1.564,0.137-3.596,0.394-5.053,0.968c-1.111,0.448-1.954,1.003-2.976,1.583c-1.409,0.794-2.759,1.702-4.127,2.556
				c-0.771,0.478-1.535,0.974-2.294,1.481c-0.107-0.562-0.245-1.105-0.46-1.63c-0.776-1.882-2.574-3.178-4.169-4.307
				c-0.138,0.663-0.293,1.374-0.442,2.079c-0.012-0.084-0.023-0.167-0.03-0.251c-0.221-1.631-0.692-3.16-1.045-4.749
				c-0.113-0.818-0.884-1.374-1.696-1.242c-0.818,0.131-1.392,0.914-1.278,1.726c0.029,1.493,0.09,2.963,0.042,4.462
				c-0.036,0.902-0.084,1.852-0.155,2.813c-1.619-1.678-3.238-3.357-4.851-5.029c-0.544-0.567-1.087-1.123-1.625-1.679
				c1.29-0.717,2.551-1.451,3.9-2.073c0.27-0.078,0.425-0.37,0.353-0.639c-0.071-0.269-0.364-0.418-0.633-0.34
				c-1.959,0.281-3.716,0.621-5.489,1.129c-0.651-0.675-1.314-1.35-1.966-2.013c-2.275-2.544-4.552-5.089-6.827-7.628
				c0.161-0.095,0.328-0.197,0.489-0.287c0.777-0.412,1.094-1.368,0.705-2.132c-0.395-0.765-1.344-1.063-2.12-0.657
				c-0.448,0.191-0.891,0.376-1.32,0.574c-3.053-3.405-6.104-6.81-9.163-10.203c0.203-0.508,0.173-1.087-0.126-1.571
				c-0.418-0.663-1.218-0.938-1.94-0.735c-55.032-61.149-111.062-121.462-170.265-178.543
				c-15.387-14.808-30.978-29.419-46.448-44.131c-15.979-18.29-31.91-36.616-48.062-54.746c-2.993-3.267-6.242-6.445-9.593-9.354
				c-1.469-1.278-2.927-2.557-4.414-3.823c-4.88-4.157-10.185-8.046-15.507-11.63c-0.765-0.514-1.535-1.021-2.312-1.535
				c2.139-1.29,4.277-2.604,6.428-3.883c0.298-0.18,0.4-0.562,0.233-0.854c-0.173-0.299-0.556-0.4-0.854-0.221
				c-2.347,1.386-4.701,2.766-7.042,4.157c-2.27-1.439-4.593-2.837-6.905-4.056c-0.771-0.711-1.523-1.434-2.258-2.175
				c4.94-2.67,9.886-5.31,14.993-7.663c0.37-0.168,0.538-0.615,0.37-0.986c-0.167-0.364-0.609-0.525-0.979-0.352
				C344.357-349.854,339.173-347.237,334.095-344.418z M557.772-350.438c-0.591,0.418-1.2,0.86-1.779,1.313l0.107-0.023l-0.437,0.09
				c-9.336,2.49-18.171,6.893-25.936,13.589c-4.642,4.002-8.465,8.691-11.773,13.822c-5.335,8.297-8.363,17.479-10.412,27
				c-0.478,2.258-0.734,4.552-1.117,6.815c0.58-3.787,1.727-7.676,2.813-11.355c2.342-7.975,6.261-15.865,11.158-22.597
				c0.896-1.237,1.888-2.563,2.915-3.692c1.314-1.451,2.562-2.86,3.954-4.247c0.682-0.669,1.416-1.284,2.115-1.94
				c0.932-0.891,2.001-1.631,2.969-2.462c1.296-1.122,2.909-2.108,4.336-3.07c0.879-0.591,1.828-1.116,2.748-1.637l4.408-1.971
				c-0.018,0.221,0.036,0.448,0.174,0.651c0.012,0.018,0.029,0.042,0.048,0.065c-0.622,0.496-1.225,0.997,0.119,0.28
				c-0.872,0.646-1.769,1.249-2.622,1.918c-1.195,0.914-2.318,1.863-3.482,2.813c-2.091,1.708-4.164,3.715-6.021,5.663
				c-1.302,1.367-2.664,2.819-3.805,4.318c-1.757,2.312-3.501,4.91-4.935,7.442c-0.812,1.434-1.541,2.873-2.317,4.313
				c-0.179,0.334-0.161,0.723,0.006,1.033c-0.866,1.798-1.643,3.644-2.329,5.465c-1.272,3.334-2.276,6.738-3.047,10.197
				c-0.161,0.454-0.322,0.92-0.472,1.392c-2.234,6.75-3.196,13.631-3.106,20.488c-0.412,2.264-0.723,4.54-0.962,6.786
				c-0.215,2.03-0.346,4.109-0.394,6.188c-0.741,0.866-1.47,1.75-2.163,2.658c-0.292,0.352-0.238,0.884,0.108,1.17
				c0.346,0.287,0.878,0.222,1.17-0.131c0.281-0.383,0.574-0.747,0.866-1.105c0.013,1.577,0.066,3.148,0.155,4.701
				c0.962,17.389,6.876,34.837,18.052,48.151c4.438,5.286,9.778,9.874,15.841,13.225c2.318,1.291,4.618,2.282,7.073,3.262
				c2.287,0.908,5.722,2.007,8.345,2.276c5.077,3.243,10.572,5.83,16.373,7.604c16.569,5.065,34.042,4.331,50.122-1.518
				c0.776-0.203,1.559-0.436,2.348-0.681c3.536-1.129,7.174-2.437,10.489-4.134c1.379-0.705,2.801-1.386,4.139-2.162
				c0.52-0.305,1.058-0.627,1.583-0.914c1.428-0.765,2.778-1.798,4.146-2.664c1.732-1.087,3.739-2.634,5.311-3.966
				c2.432-2.067,4.73-4.056,6.995-6.326c2.562-2.562,4.897-5.346,7.239-8.237c2.736-3.716,5.042-7.281,6.917-11.505
				c2.474-5.597,4.032-11.14,4.887-16.904c1.929-1.708,3.829-3.482,5.627-5.28c2.287-2.3,4.51-4.659,6.743-7.013
				c-3.942,2.419-7.938,4.88-11.827,7.461c0.114-1.362,0.186-2.73,0.233-4.122c0.035-1.051,0-2.192-0.065-3.237
				c-0.072-1.141-0.096-2.288-0.191-3.429c-0.06-0.729-0.155-1.458-0.215-2.187c-0.18-2.15-0.609-4.36-0.979-6.48
				c-1.512-8.841-4.809-18.069-9.367-26.098c-0.154-0.609-0.388-1.153-0.633-1.679c-0.287-0.615-0.567-1.219-2.712-5.029
				c-0.018-0.06-0.048-0.107-0.071-0.149c-0.019-0.024-0.03-0.042-0.042-0.06c-0.263-1.052-1.278-2.909-2.39-4.785
				c-0.065-0.406-0.125-0.812-0.179-1.213c-0.418-2.986-1.303-6.039-2.509-8.972c0.37-0.113,0.729-0.221,1.081-0.305
				c0.734-0.191,1.188-0.943,1.016-1.679c-0.18-0.723-0.933-1.17-1.661-0.979c-0.531,0.078-1.069,0.197-1.612,0.341
				c-1.213-2.491-2.646-4.856-4.199-6.953c-0.878-1.183-1.792-2.503-2.771-3.602c-0.508-0.562-1.01-1.123-1.512-1.69
				c0.646-0.316,0.932-1.1,0.646-1.744c-0.293-0.663-1.075-0.944-1.744-0.64c-0.257,0.113-0.508,0.221-0.753,0.341
				c-1.272-1.338-2.706-2.683-4.044-3.817c-2.192-1.84-4.354-3.62-6.727-5.256c-6.415-4.415-13.152-7.879-20.297-10.537
				c-4.713-2.688-9.928-4.6-15.369-5.753c-2.879-0.603-5.633-0.943-8.561-1.236c-3.046-0.305-6.403-0.347-9.623,0.281
				c-5.633-0.138-11.266,0.567-16.736,1.947l-1.004,0.316c-0.161,0.042-0.316,0.077-0.478,0.119
				c-1.458,0.37-2.892,0.753-4.349,1.141c-0.019,0-0.03,0.007-0.042,0.013c1.009-1.142,1.936-2.336,2.867-3.53
				c0.221-0.191,0.251-0.538,0.06-0.759c-0.186-0.215-0.537-0.239-0.753-0.042C562.85-353.819,560.27-352.225,557.772-350.438z
				 M317.167-344.298l0.078,0.012c0.532,0.125,1.326,0.334,1.828,0.544c0.334,0.131,0.866,0.358,1.213,0.399
				c0.436,0.048,0.961,0.233,1.392,0.341c1.254,0.335,2.467,0.74,3.68,1.225c0.8,0.316,1.601,0.657,2.389,1.016
				c-0.806,0.478-1.613,0.955-2.419,1.445c-1.249,0.341-2.491,0.74-3.728,1.2c-2.485,0.92-4.886,2.163-7.216,3.417
				c-5.406,2.903-10.716,6.78-15.315,10.848c-1.661,1.464-3.226,2.993-4.838,4.51c-1.876,1.78-3.674,3.722-5.436,5.609
				c-1.249,1.344-2.497,2.676-3.667,4.092c-1.254,1.505-2.461,3.028-3.656,4.575c0.096-0.406,0.197-0.818,0.299-1.23l0.932-1.039
				c9.139-10.269,18.296-20.638,27.872-30.494l1.607-1.666c0.334,1.104,1.087,1.905,2.885,2.729c0.185,0.071,0.406-0.012,0.49-0.197
				c0.078-0.18,0-0.406-0.185-0.478c-0.167-0.114-0.526-0.245-0.717-0.335c-0.418-0.179-0.932-0.675-1.177-1.045
				c-0.257-0.383-0.389-0.812-0.442-1.272l3.059-1.518C317.077-342.076,317.555-343.247,317.167-344.298z M602.238-348.623
				c2.771,0.209,5.394,1.01,7.084,1.876c3.154,0.956,6.314,2.425,8.996,4.378c2.055,0.556,3.787,1.625,3.853,2.121
				c0.933,0.502,1.757,1.093,2.563,1.696l-3.477-1.905c-5.663-2.813-11.553-5.144-17.544-6.936
				c-3.082-0.932-6.219-1.714-9.378-2.348C596.994-349.752,599.712-349.369,602.238-348.623z M607.764-341.969
				c8.159,2.915,16.092,6.876,23.463,11.738c-0.424-0.09-0.89-0.019-1.271,0.269c-0.055,0.048-0.102,0.083-0.156,0.119
				c-3.841-1.601-7.789-2.813-11.707-3.471c-1.5-0.257-2.963-0.472-4.475-0.65c-0.555-0.078-1.081,0.328-1.158,0.884
				c-0.078,0.562,0.311,1.069,0.866,1.141c1.75,0.203,3.596,0.454,5.363,0.824c-2.252,1.111-4.462,2.276-6.666,3.572
				c-4.671,2.735-9.073,5.836-13.314,9.14c-0.186-0.096-0.395-0.162-0.615-0.174c-5.907-0.782-13.476-0.394-19.234,1.41
				c-3.136,0.985-6.475,2.365-9.163,4.312c-1.654,1.2-2.98,2.258-4.438,3.691c-2.838,2.783-5.024,6.183-6.613,9.868l-0.711,1.905
				l-0.489,0.293c-2.133,1.463-4.122,3.124-5.907,5.023c-1.481,1.577-2.999,3.548-3.984,5.46c-1.142,2.239-2.031,4.372-2.479,6.857
				c-0.483,2.64-0.514,5.25-0.179,7.807c-2.449,1.899-4.881,3.841-7.21,5.866c-1.852,1.612-3.572,3.261-5.353,4.951
				c-1.959,1.858-3.805,4.092-5.513,6.194c-0.305,0.365-0.263,0.902,0.095,1.201c0.359,0.299,0.902,0.245,1.207-0.126
				c0.812-0.974,1.619-2.013,2.461-2.956c0.734-0.824,1.523-1.619,2.288-2.426c1.439-1.535,3.034-2.896,4.575-4.324
				c0.932-0.86,1.936-1.667,2.909-2.485c1.583-1.344,3.22-2.646,4.868-3.912c0.878,4.307,2.766,8.44,5.232,12.251
				c-6.852,6.702-13.679,13.44-20.506,20.166c-1.763-5.483-3.71-10.925-5.358-16.427c-1.577-5.269-3.166-10.436-4.038-15.865
				c3.381-3.22,6.983-6.188,10.704-9.008c2.014-1.522,4.122-3.017,6.261-4.366c2.036-1.296,3.895-2.396,5.752-3.979
				c0.251-0.137,0.347-0.454,0.209-0.704c-0.131-0.245-0.448-0.335-0.699-0.197c-2.509,0.692-4.587,2.049-6.737,3.47
				c-1.117,0.735-2.258,1.464-3.333,2.259c-1.094,0.806-2.192,1.553-3.262,2.401c-3.124,2.49-6.242,5.143-9.199,7.95
				c-0.251-2.025-0.376-4.032-0.406-6.021c0.078-0.776,0.168-1.535,0.281-2.312l0.489-3.053l0.724-2.813
				c0.376-1.302,0.788-2.586,1.188-3.882c0.633-2.049,1.409-4.092,2.216-6.081c3.453-8.488,7.628-15.967,12.682-23.619
				c2.091-3.165,4.378-6.224,6.756-9.181c7.711-4.527,16.385-7.204,25.249-8.983c4.42-0.891,9.163-1.523,13.679-1.828
				c-0.645,0.34-1.296,0.698-1.888,1.027c-3.429,1.894-6.702,3.781-9.897,6.062c-9.05,6.47-17.209,13.314-25.118,21.146
				c-3.13,3.095-6.355,6.481-9.139,9.887c-0.228,0.263-0.197,0.662,0.054,0.884c0.257,0.221,0.663,0.191,0.884-0.072
				c4.845-5.656,10.196-11.224,15.806-16.122c2.879-2.502,5.794-4.868,8.721-7.299c1.506-1.255,3.268-2.574,4.875-3.697
				c3.004-2.097,5.967-4.289,8.989-6.368c2.616-1.798,5.161-3.721,7.783-5.52c0.024,0,0.042,0,0.06,0
				c0.006-0.006,0.012-0.006,0.012-0.018c0.299-0.232,0.609-0.436,0.92-0.646c-0.077-0.006-0.148-0.012-0.227-0.012
				c0-0.042,0.006-0.083,0.006-0.131c-0.018-0.406-0.388-0.717-0.794-0.693c-10.663,0.604-21.618,2.825-31.611,6.75
				c-2.114,0.83-4.044,1.792-6.045,2.783c1.422-1.731,2.879-3.452,4.385-5.053c1.319-1.398,2.616-2.867,3.972-4.241
				c0.615-0.627,1.225-1.242,1.822-1.87c2.783-1.236,5.656-2.335,8.661-3.285c1.685-0.537,3.393-0.979,5.102-1.392
				C583.165-348.366,595.865-346.239,607.764-341.969z M304.157-340.487l-0.203,0.197l-3.118,2.892l-2.228,1.643
				c-1.798,1.439-3.542,2.969-5.209,4.551c2.372-2.969,4.934-5.417,8.25-7.729C302.425-339.472,303.291-340.021,304.157-340.487z
				 M334.782-337.262c1.714,0.884,3.471,1.966,5.119,3.034c-3.596,2.163-7.156,4.361-10.674,6.643
				c-10.591,6.834-20.667,13.774-29.777,22.579c-0.12,0.12-0.132,0.329-0.018,0.448c0.113,0.119,0.323,0.126,0.448,0.006
				c12.102-11.869,26.761-20.333,41.234-28.887c1.547,1.016,3.076,2.031,4.575,3.076c3.519,3.799,7.037,7.58,10.561,11.361
				c-1.965,1.314-3.889,2.718-5.806,4.08c-3.978,2.837-7.885,5.817-11.726,8.846c-5.806,4.57-11.594,9.176-17.418,13.709
				c-1.822,1.416-3.686,2.771-5.507,4.182c-0.257,0.186-0.316,0.562-0.131,0.818c0.185,0.245,0.556,0.299,0.812,0.107
				c2.121-1.66,4.312-3.262,6.457-4.893c4.892-3.721,9.749-7.502,14.617-11.247c4.45-3.429,8.99-6.721,13.607-9.916
				c2.091-1.445,4.235-2.909,6.415-4.277c1.535,1.649,3.083,3.298,4.624,4.946c1.099,1.171,2.192,2.336,3.297,3.507
				c-0.233,0.143-0.46,0.269-0.681,0.406c-5.471,3.136-10.107,7.837-14.533,12.263c-4.642,4.642-9.336,9.79-14.707,13.596
				c-0.794,0.562-1.714,1.194-2.539,1.696c-0.872,0.537-1.828,0.991-2.688,1.547c-0.43,0.239-0.58,0.788-0.347,1.213
				c0.227,0.418,0.771,0.562,1.201,0.322c0.902-0.537,1.858-1.027,2.748-1.577c3.094-1.894,6.421-4.569,9.068-7.055
				c2.951-2.795,5.824-5.639,8.703-8.512c4.82-4.814,9.45-9.109,15.31-12.281c5.788,6.093,11.636,12.12,17.454,18.189
				c2.873,2.998,5.89,5.842,8.858,8.744c1.35,1.332,2.712,2.658,4.086,3.979c-2.187,1.069-4.307,2.229-6.428,3.507
				c-6.385,3.828-12.227,8.487-18.003,13.171c-4.85,3.937-9.438,8.046-14.055,12.239c-1.619,1.464-3.262,2.945-4.833,4.462
				c-0.275,0.251-0.292,0.688-0.048,0.95c0.245,0.269,0.675,0.28,0.95,0.035c2.127-2.061,4.385-4.115,6.619-6.057
				c3.548-3.088,7.007-6.188,10.698-9.115c2.586-2.055,5.167-4.074,7.789-6.069c2.617-1.982,5.37-3.751,8.088-5.591
				c3.351-2.281,6.905-4.372,10.513-6.277c3.124,3.01,6.26,6.003,9.391,9.001c-3.531,1.529-7.127,3.608-10.328,5.651
				c-10.208,6.505-19.067,14.664-27.215,23.606c-0.239,0.257-0.227,0.675,0.024,0.902c0.251,0.232,0.663,0.215,0.902-0.042
				c0.884-1.033,1.941-2.133,2.915-3.088c2.085-2.062,4.08-4.128,6.236-6.129c3.751-3.488,7.849-6.899,12.078-9.778
				c1.696-1.153,3.398-2.354,5.179-3.375c1.559-0.902,3.082-1.834,4.671-2.658c2.384-1.219,4.767-2.359,7.174-3.513
				c0.317,0.305,0.634,0.609,0.962,0.92c0.902,1.021,1.798,2.055,2.7,3.089c1.267,1.457,2.545,2.915,3.817,4.366
				c-0.484,0.263-0.956,0.525-1.41,0.782c-3.524,1.989-7.001,4.468-10.059,7.139c-1.786,1.564-3.597,3.147-5.281,4.826
				c-2.007,2.013-3.99,4.032-5.985,6.062c-2.569,2.616-5.065,5.322-7.7,7.886c-2.389,2.316-4.791,4.497-7.317,6.666
				c-0.466,0.4-0.532,1.104-0.144,1.559c0.389,0.46,1.093,0.508,1.553,0.113c1.278-1.129,2.581-2.21,3.853-3.357
				c1.051-0.955,2.061-1.959,3.112-2.926c0.872-0.807,1.697-1.686,2.545-2.521c2.467-2.425,4.838-4.945,7.293-7.383
				c5.92-5.896,12.019-11.857,19.461-15.793c0.609-0.329,1.236-0.663,1.876-0.992c10.298,11.773,20.584,23.559,30.941,35.279
				c-1.183,0.77-2.365,1.553-3.536,2.341c-1.105,0.729-2.222,1.446-3.297,2.216c-1.577,1.117-3.232,2.181-4.773,3.328
				c-4.253,3.172-8.41,6.409-12.263,10.07c-4.098,3.883-7.604,7.861-11.099,12.287c-0.376,0.478-0.299,1.177,0.173,1.547
				c0.473,0.37,1.171,0.274,1.548-0.203c1.762-2.443,3.87-4.761,5.89-6.995c5.878-6.511,13.063-12.09,20.285-17.024
				c2.85-1.947,5.752-3.882,8.68-5.759c4.187,4.737,8.392,9.469,12.609,14.181c-2.204,0.962-4.402,1.954-6.583,2.927
				c-2.479,1.093-4.892,2.228-7.341,3.387c-1.619,0.771-3.333,1.559-4.904,2.425c-10.991,6.087-20.829,12.849-28.176,23.165
				c-0.209,0.287-0.149,0.687,0.131,0.884c0.281,0.209,0.688,0.138,0.891-0.143c0.896-1.35,2.013-2.694,3.07-3.918
				c4.934-5.747,11.015-10.214,17.52-14.055c2.562-1.529,5.244-2.837,7.896-4.193c4.492-2.288,8.996-4.319,13.596-6.374
				c1.798-0.812,3.596-1.631,5.388-2.443c2.329,2.593,4.653,5.173,6.988,7.753c-12.054,6.75-22.173,16.134-32.644,25.435
				c-0.347,0.305-0.395,0.848-0.096,1.188c0.305,0.347,0.842,0.376,1.194,0.072c8.482-7.532,17.126-15.244,26.707-21.337
				c2.043-1.302,4.176-2.526,6.361-3.667c2.748,3.035,5.502,6.057,8.268,9.074c-5.43,3.853-10.597,8.147-15.572,12.484
				c-4.254,3.703-8.477,7.442-12.718,11.146c-2.024,1.762-4.092,3.482-6.123,5.239c-0.507,0.43-0.579,1.194-0.161,1.685
				c0.418,0.501,1.177,0.555,1.685,0.131c1.888-1.655,3.829-3.273,5.747-4.892c4.288-3.638,8.493-7.419,12.771-11.087
				c5.161-4.42,10.531-8.816,16.176-12.747c1.834,1.995,3.674,3.996,5.525,5.991c3.554,3.817,7.132,7.622,10.734,11.409
				c-4.122,2.133-7.419,5.591-10.388,9.115c-2.145,2.545-4.026,5.257-5.938,7.98c-1.822,2.599-3.656,5.113-5.562,7.652
				c-2.222,2.957-5.34,6.41-8.464,8.47c-1.236,0.818-2.365,1.392-3.68,2.055c-0.723,0.353-1.046,1.23-0.711,1.947
				c0.334,0.723,1.207,1.028,1.936,0.681c0.896-0.472,1.827-0.872,2.693-1.41c1.805-1.117,3.555-2.431,5.107-3.889
				c5.113-4.779,9.318-11.302,13.41-16.958c2.969-4.115,7.21-9.384,11.689-11.982c0.64-0.37,1.32-0.818,1.989-1.105
				c0.072-0.042,0.155-0.089,0.222-0.137c3.13,3.273,6.271,6.546,9.42,9.796c-0.024,0.012-0.054,0.024-0.078,0.042
				c-6.637,2.808-12.586,8.166-17.49,13.368c-2.574,2.73-4.928,5.549-7.418,8.339c-1.47,1.655-2.826,3.453-4.283,5.119
				c-1.625,1.858-3.244,3.799-4.826,5.693c-0.406,0.472-0.358,1.188,0.107,1.583c0.466,0.394,1.183,0.334,1.583-0.144
				c2.604-3.112,5.315-6.218,8.004-9.271c5.292-5.991,10.764-11.923,17.245-16.666c1.248-0.919,2.484-1.852,3.811-2.67
				c1.529-0.95,3.022-1.637,4.624-2.425c0.364-0.18,0.639-0.484,0.8-0.831c2.861,2.951,5.74,5.902,8.626,8.834
				c-13.996,8.429-25.793,21.516-35.769,34.162c-0.436,0.543-0.358,1.332,0.167,1.756c0.532,0.418,1.326,0.334,1.757-0.209
				c3.53-4.486,7.317-8.894,11.229-13.045c7.479-7.945,15.495-14.921,24.992-20.262c6.194,6.29,12.425,12.538,18.679,18.774
				c-2.658,1.553-5.311,3.124-7.944,4.719c-12.048,7.264-23.451,15.017-32.967,25.542c-0.316,0.34-0.311,0.884,0.018,1.194
				c0.329,0.311,0.872,0.293,1.188-0.047c1.452-1.673,3.154-3.292,4.749-4.838c9.366-9.026,20.208-15.501,31.432-21.869
				c1.751-0.992,3.524-1.965,5.287-2.945c2.747,2.724,5.501,5.454,8.255,8.178c-9.324,7.592-18.38,15.208-26.307,24.395
				c-0.335,0.376-0.299,0.961,0.071,1.284c0.371,0.329,0.956,0.281,1.297-0.096c6.72-7.855,14.616-14.539,22.704-20.93
				c1.272-1.01,2.562-2.037,3.853-3.047c3.441,3.387,6.876,6.78,10.322,10.161c-2.64,1.577-4.88,3.166-7.239,5.179
				c-2.593,2.198-5.096,4.928-7.342,7.479c-2.312,2.61-4.659,5.203-7.061,7.735c-2.317,2.449-4.719,4.474-7.305,6.619
				c-0.365,0.305-0.431,0.848-0.138,1.207c0.293,0.364,0.83,0.418,1.2,0.12c1.541-1.278,3.185-2.515,4.624-3.901
				c1.313-1.26,2.586-2.568,3.895-3.841c0.579-0.567,1.146-1.212,1.702-1.81c1.397-1.499,2.796-3.034,4.229-4.498
				c0.782-0.794,1.522-1.679,2.329-2.461c1.165-1.123,2.294-2.324,3.513-3.393c2.98-2.604,5.979-4.827,9.521-6.547
				c2.927,2.879,5.854,5.747,8.78,8.62c-11.923,7.753-23.188,17.478-31.73,28.69c-1.361,1.792-2.699,3.638-3.942,5.513
				c-0.692,1.034-1.325,2.115-1.995,3.154c-0.311,0.49-0.311,1.087,0.311,1.434c-0.065-0.06-0.131-0.125-0.202-0.179
				c-9.462-8.703-18.792-17.622-28.039-26.558c-29.909-28.905-59.017-58.634-88.495-87.969
				c-8.774-8.727-17.514-17.496-26.366-26.146c-17.144-16.743-34.383-33.295-52.01-49.537c-7.079-6.517-14.289-12.878-21.468-19.287
				c-5.71-5.107-11.678-9.928-17.591-14.796c-5.591-4.588-11.212-9.116-16.869-13.607c1.983-1.978,4.08-3.716,6.445-5.382
				c3.07-2.181,6.338-4.122,9.402-6.29c1.416-0.992,2.897-2.037,4.229-3.137c0.448-0.376,0.92-0.842,1.392-1.177
				c-3.667,2.88-7.598,5.155-11.57,7.599c-1.613,0.991-3.411,2.055-4.916,3.184c-1.685,1.267-3.417,2.503-4.928,3.984
				c-0.245,0.227-0.478,0.46-0.705,0.699c-0.968-0.771-1.941-1.542-2.903-2.306c2.461-2.198,4.934-4.385,7.49-6.458
				c9.862-8.004,20.399-15.005,32.256-19.407c-2.396,1.625-4.731,3.327-6.929,5.144c-4.415,3.626-8.249,7.454-11.893,11.845
				c-0.197,0.245-0.173,0.609,0.066,0.807c0.233,0.191,0.603,0.161,0.8-0.072c0.92-1.188,2.037-2.473,3.076-3.548
				c1.302-1.35,2.64-2.891,4.056-4.109c1.523-1.314,2.993-2.683,4.563-3.96c0.878-0.717,1.828-1.393,2.73-2.085
				c2.335-1.786,4.88-3.405,7.365-4.964c2.485-1.56,4.97-3.082,7.509-4.569c3.673-2.15,7.281-4.355,10.901-6.595
				c0.346-0.209,0.454-0.669,0.245-1.004c-0.209-0.334-0.657-0.442-0.998-0.227c-3.094,1.869-6.141,3.805-9.234,5.681
				c-2.497,1.499-5.036,3.022-7.544,4.605c-0.144-0.042-0.287-0.042-0.436,0c-5.699,1.355-11.923,4.044-17.048,6.94
				c-3.537,1.995-6.941,4.038-10.286,6.355c-6.427,4.444-12.263,9.331-18.087,14.516c-1.296-1.027-2.598-2.049-3.889-3.07
				c0.281-2.562,0.681-5.215,1.201-7.885c1.183-1.523,2.383-3.022,3.614-4.516c0.908-1.1,1.864-2.15,2.784-3.238
				c2.073-2.442,4.211-4.844,6.451-7.12c9.3-7.502,19.383-14.384,29.795-20.118c2.126-1.021,4.373-1.989,6.565-2.825
				c0.269-0.083,0.46-0.328,0.496-0.598C331.808-338.809,333.277-338.044,334.782-337.262z M544.159-340.947l-0.322,0.144
				l0.006-0.006L544.159-340.947z M586.684-332.871c-15.907,8.948-29.86,21.343-43.259,33.666c-0.316,0.286-0.347,0.776-0.065,1.087
				c0.28,0.316,0.776,0.334,1.093,0.048c9.241-8.417,18.769-16.94,29.084-24.007c3.268-2.24,6.673-4.594,10.143-6.493
				c2.575-1.416,5.203-2.951,7.873-4.169c2.641-1.201,5.358-2.539,8.076-3.537c1.422-0.525,2.837-1.045,4.259-1.57
				c0.729-0.275,1.105-1.1,0.843-1.822s-1.081-1.081-1.805-0.807C597.311-338.312,591.935-335.822,586.684-332.871z
				 M299.767-331.545l-3.112,3.333c-3.094,3.446-6.158,6.941-9.199,10.405l-1.923,2.198l2.341-3.41
				c0.938-1.291,1.906-2.563,2.903-3.806l2.515-2.98l4.659-4.277L299.767-331.545z M646.076-325.805
				c-0.489,0.287-0.967,0.573-1.451,0.878l-2.61-2.091l-0.544-0.776c-1.511-1.989-3.13-3.906-4.897-5.723
				c-1.506-1.547-3.064-3.022-4.91-4.098c-0.019-0.029-0.042-0.06-0.06-0.083C636.901-334.335,641.817-330.345,646.076-325.805z
				 M305.089-325.924c0.508-0.377,1.051-0.771,1.601-1.183c1.165-0.872,2.503-1.631,3.728-2.42c0.042-0.029,0.083-0.06,0.138-0.083
				C308.679-328.493,306.863-327.208,305.089-325.924z M358.479-320.662c0.054,0.036,0.107,0.084,0.167,0.126
				c-0.012,0.006-0.023,0.012-0.03,0.023c-0.322,0.191-0.633,0.383-0.944,0.58c-2.09-2.067-4.169-4.151-6.23-6.248
				C353.819-324.383,356.173-322.549,358.479-320.662z M303.846-313.774c-3.625,2.21-7.072,4.582-10.405,7.222
				c-1.225,0.974-2.551,2.043-3.656,3.142c-1.38,1.356-2.67,2.658-3.972,4.092c-0.753,0.825-1.481,1.822-2.18,2.706
				c-0.209,0.27-0.173,0.651,0.089,0.866c0.263,0.203,0.651,0.155,0.866-0.107c1.953-2.479,3.966-4.79,6.296-6.94
				c1.428-1.309,2.939-2.491,4.432-3.722c1.476-1.207,3.19-2.282,4.749-3.387c4.48-3.148,9.516-5.669,14.079-8.697
				c1.499-1.004,3.041-2.001,4.504-3.059c1.648-1.183,3.189-2.491,4.802-3.722C316.946-321.456,310.345-317.723,303.846-313.774z
				 M625.564-329.144c0.752,0.238,1.517,0.52,2.287,0.818c-2.646,2.066-5.28,4.146-7.908,6.242c-2.61,2.061-5.125,4.247-7.706,6.35
				c-2.808,2.27-5.465,4.767-8.147,7.186c-3.279-0.448-6.624-0.466-9.886-0.012c-1.69,0.227-3.231,0.508-4.886,0.866
				c10.047-8.829,20.56-16.929,32.799-22.52C623.265-329.879,624.394-329.532,625.564-329.144z M635.671-327.131l0.274,0.228
				c-1.17-0.628-2.354-1.225-3.56-1.792c0.018-0.329-0.077-0.663-0.274-0.95C633.312-328.833,634.5-327.991,635.671-327.131z
				 M639.996-321.749c-7.377,5.514-13.847,12.532-19.897,19.426c-0.932-0.651-1.87-1.261-2.903-1.84
				c-3.404-1.912-7.162-3.279-11.051-4.032c0.729-0.639,1.47-1.261,2.217-1.87c7.299-6.045,14.885-11.486,22.633-16.904
				C634.147-325.477,637.254-323.648,639.996-321.749z M368.305-311.971c0.382,0.341,0.765,0.705,1.141,1.075
				c-0.233-0.048-0.472-0.023-0.693,0.084c-0.388,0.144-0.771,0.316-1.159,0.508c-0.723-0.688-1.439-1.374-2.162-2.067
				c-2.126-2.036-4.241-4.085-6.338-6.152c0.185-0.107,0.364-0.221,0.556-0.322c0.197-0.132,0.329-0.305,0.4-0.508
				C362.875-316.97,365.563-314.468,368.305-311.971z M649.254-322.155c1.243,1.548,2.318,3.143,3.417,4.791
				c0.12,0.185,0.251,0.376,0.364,0.567c-2.049-2.234-4.211-4.372-6.451-6.415c0.4-0.228,0.807-0.454,1.219-0.682
				C648.299-323.319,648.776-322.746,649.254-322.155z M642.701-319.748l0.013,0.019l6.821,12.186
				c-0.818,0.675-1.577,1.374-2.252,2.049c-1.23,1.225-2.485,2.396-3.691,3.661c-2.574,2.706-5.054,5.585-7.682,8.231
				c-0.573,0.579-1.135,1.183-1.721,1.744c-0.514,0.49-1.069,0.95-1.564,1.47c-0.228,0.232-0.496,0.441-0.753,0.651
				c-0.341-0.567-0.699-1.123-1.063-1.661c-2.3-3.435-5.561-7.186-8.906-9.629c-0.071-0.054-0.144-0.107-0.209-0.155
				c1.87-2.085,3.77-4.146,5.692-6.183c3.44-3.626,7.181-7.335,11.146-10.369c1.171-0.902,2.317-1.751,3.471-2.562
				C642.235-320.112,642.475-319.933,642.701-319.748z M595.352-315.722c-3.112,2.532-6.153,5.167-9.17,7.831
				c-0.627,0.55-1.254,1.099-1.887,1.654c-0.664,0.245-1.339,0.508-1.954,0.723c-0.042,0.013-0.083,0.024-0.107,0.036
				c-1.583,0.006-3.147,0.096-4.874,0.311c-1.021,0.132-2.061,0.311-3.101,0.717c0.072-0.071,0.149-0.113,0.233-0.149
				c1.374-0.759,2.604-1.332,4.044-1.941c2.252-0.968,5.209-1.595,7.634-1.899c0.604-0.096,1.027-0.669,0.95-1.267
				c-0.078-0.603-0.64-1.015-1.243-0.926c-3.178,0.419-6.08,1.189-9.055,2.396c-2.199,0.896-4.235,2.133-6.153,3.53
				c-0.729,0.532-1.499,1.183-2.222,1.864c-1.476,0.567-2.921,1.2-4.283,1.869l-1.78,1.021l0.651-1.355
				c2.39-4.301,5.801-7.993,10.34-10.412c3.076-1.637,6.171-2.693,9.581-3.356C586.803-315.823,591.283-316.021,595.352-315.722z
				 M372.319-307.902c0.46,0.483,0.896,1.027,1.368,1.505c3.022,3.513,6.087,6.995,9.139,10.489
				c-0.107-0.096-0.215-0.203-0.316-0.293c-4.426-4.127-8.823-8.291-13.207-12.466c0.113-0.048,0.221-0.102,0.34-0.155
				c0.472-0.215,0.723-0.741,0.633-1.23C370.963-309.342,371.644-308.619,372.319-307.902z M653.065-310.166
				c-0.233,0.148-0.454,0.304-0.675,0.453c-0.424-0.836-0.849-1.666-1.261-2.496C651.793-311.546,652.438-310.871,653.065-310.166z
				 M280.156-304.378c-0.096,0.46-0.185,0.938-0.275,1.409c-0.95,1.261-1.881,2.533-2.808,3.823
				c0.251-0.807,0.556-1.583,0.872-2.342l0.466-1.016l1.768-2.007C280.168-304.462,280.162-304.42,280.156-304.378z
				 M658.363-303.584c0.442,0.604,0.873,1.213,1.309,1.846c0.161,0.538,0.305,1.081,0.412,1.607
				c0.281,1.379,0.562,2.718,0.812,4.098c0.107,0.597,0.197,1.2,0.269,1.821c-0.591,0.4-1.177,0.824-1.75,1.255
				c-0.113-0.311-0.233-0.621-0.335-0.926c-1.57-4.415-3.356-8.853-5.357-13.094c0.424-0.293,0.854-0.586,1.296-0.866
				C656.166-306.451,657.289-305.065,658.363-303.584z M278.758-295.598c-0.065,0.562-0.119,1.123-0.173,1.685
				c-0.71-0.556-1.416-1.117-2.12-1.673c0.914-1.266,1.839-2.526,2.79-3.781C279.057-298.095,278.884-296.846,278.758-295.598z
				 M656.655-290.718c-1.72,1.47-3.369,3.017-4.952,4.522c-3.841,3.626-7.544,7.419-11.235,11.188
				c-0.788,0.801-1.595,1.565-2.384,2.342c-0.765-5.102-2.431-10.077-4.82-14.61c0.305-0.257,0.604-0.52,0.896-0.783
				c2.712-2.484,5.119-5.106,7.676-7.765c3.07-3.19,5.901-6.314,9.115-9.021C653.083-300.269,654.995-295.502,656.655-290.718z
				 M598.685-303.423c-0.371,0.364-0.735,0.747-1.105,1.123c-0.765-0.34-1.583-0.663-2.431-0.962
				C596.318-303.381,597.502-303.429,598.685-303.423z M612.256-300.347c1.451,0.723,2.729,1.487,4.062,2.359
				c-0.274,0.317-0.55,0.634-0.818,0.944c-0.347,0.406-0.316,1.016,0.078,1.355c0.388,0.341,1.003,0.299,1.35-0.096
				c0.316-0.376,0.639-0.74,0.968-1.11c0.776,0.591,1.559,1.26,2.21,1.875c0.902,0.854,1.769,1.667,2.599,2.599
				c1.882,2.115,3.536,4.427,4.934,6.894c0.03,0.245,0.119,0.483,0.27,0.681c0.065,0.102,0.154,0.186,0.244,0.251
				c1.123,2.103,2.061,4.301,2.802,6.57c-4.767-6.815-12.061-12.102-19.683-15.745l-1.35-0.556l-0.173-0.173
				c-2.449-2.002-4.91-4.026-7.712-5.531c-1.016-0.544-1.983-1.063-3.005-1.583c0.592-0.586,1.183-1.165,1.792-1.738
				C604.801-303.082,608.707-302.114,612.256-300.347z M371.196-297.24c-1.254,0.55-2.521,1.403-3.667,2.168
				c-1.494,0.986-3.112,2.067-4.486,3.214c-0.675,0.556-1.404,1.087-2.09,1.643c-1.416,1.129-2.879,2.432-4.199,3.674
				c-4.415,4.188-8.578,8.607-12.759,13.021c-1.846,1.954-3.775,3.817-5.633,5.747c-0.364,0.364-0.364,0.949-0.012,1.302
				c0.358,0.353,0.943,0.341,1.302-0.018c1.404-1.476,2.879-2.892,4.307-4.337c1.541-1.565,3.028-3.184,4.587-4.736
				c1.392-1.387,2.712-2.844,4.122-4.206c1.87-1.815,3.721-3.649,5.609-5.436c1.374-1.29,2.843-2.515,4.289-3.722
				c1.595-1.325,3.369-2.664,5.083-3.816c1.338-0.908,2.742-1.715,4.08-2.61c1.069-0.717,2.103-1.613,3.064-2.455l0.114-0.341
				l-0.329-0.102C373.483-298.011,372.223-297.683,371.196-297.24z M588.834-300.651l2.336,0.628l-4.188-0.556
				c-0.818-0.078-1.631-0.155-2.449-0.203c0.341-0.132,0.699-0.263,1.063-0.383C586.726-301.063,587.83-300.896,588.834-300.651z
				 M278.4-291.948c-0.042,0.467-0.078,0.933-0.113,1.41c-1.069-1.039-2.133-2.085-3.202-3.112c0.137-0.209,0.281-0.406,0.424-0.604
				C276.477-293.495,277.438-292.719,278.4-291.948z M282.312-288.824c0.012,0.186,0.078,0.371,0.215,0.514
				c0.191,0.228,0.49,0.323,0.771,0.281c1.045,0.842,2.073,1.679,3.112,2.521c-0.257,0.281-0.514,0.567-0.776,0.854
				c-0.149,0.173-0.138,0.436,0.024,0.585c0.167,0.155,0.436,0.132,0.585-0.035c0.263-0.299,0.531-0.592,0.806-0.885
				c3.554,2.897,7.09,5.83,10.585,8.811c7.293,6.23,14.419,12.652,21.629,18.972C375.771-207.676,427.154-152.841,480.4-99.923
				c3.105,3.094,6.224,6.182,9.301,9.217c-1.941-1.834-3.925-3.722-5.908-5.597c-40.523-38.391-81.5-76.297-122.148-114.556
				c-3.345-3.578-6.667-7.187-9.994-10.788c-3.99-4.331-7.974-8.655-11.827-13.111c-1.278-1.393-2.509-2.826-3.817-4.199
				c-2.132-2.252-4.354-4.469-6.588-6.613c-0.86-0.824-1.708-1.678-2.599-2.467c-1.314-1.177-2.575-2.401-3.889-3.572
				c-3.524-3.136-7.072-6.289-10.704-9.3c-4.331-3.596-8.62-7.246-12.95-10.836c-3.208-2.67-6.451-5.34-9.587-8.088
				c-1.38-1.219-2.777-2.431-4.163-3.644c-2.145-2.097-4.301-4.188-6.445-6.284c0.042-0.514,0.083-1.033,0.137-1.541
				C280.252-290.479,281.279-289.648,282.312-288.824z M591.408-295.335c1.225,0.251,2.461,0.46,3.674,0.747
				c2.24,0.525,4.396,1.171,6.595,1.875c1.75,0.568,3.566,1.255,5.388,2.049l1.201,0.592l3.147,3.059
				c1.404,1.523,2.718,3.136,3.931,4.79c1.021,1.41,1.905,2.826,2.861,4.277c1.487,2.27,2.855,5.071,3.912,7.574
				c0.431,1.01,0.914,2.097,1.243,3.142c0.657,2.062,1.308,3.979,1.804,6.099c0.227,0.998,0.43,2.025,0.598,3.07
				c-0.048,3.865-0.586,7.796-1.554,11.123l-1.267,3.721l-0.19,0.18c-0.926,0.723-1.899,1.397-3.022,2.126
				c-0.812,0.526-1.703,0.914-2.557,1.356c-3.662,1.876-8.005,2.718-12.013,3.303l-5.37,0.358l-3.5-0.125
				c-1.607-0.132-3.143-0.412-4.647-0.807l-2.957-0.962l-2.072-1.726c-2.683-2.3-5.209-4.797-7.497-7.484
				c-5.8-6.822-10.937-14.809-12.974-23.679c-1.063-4.617-1.249-9.575,0.322-14.145c1.242-3.638,3.327-6.56,5.985-8.979
				c0.418,0.383,1.081,0.383,1.523-0.018c0.86-0.795,1.732-1.595,2.604-2.396c1.057-0.084,2.103-0.119,3.088-0.125
				C583.523-296.392,587.646-296.1,591.408-295.335z M564.726-292.683l-1.183,1.989l0.525-1.601
				c0.096-0.263,0.203-0.514,0.316-0.771c0.305-0.155,0.609-0.299,0.92-0.448C565.102-293.244,564.911-292.963,564.726-292.683z
				 M560.783-290.036c-1.852,5.985-1.977,12.866-0.901,19.103c-0.598-2.7-1.016-5.454-1.147-8.088
				c-0.137-2.783-0.191-5.358,0.072-8.147l0.418-1.978c0.472-0.55,1.152-1.2,1.827-1.762
				C560.957-290.609,560.873-290.323,560.783-290.036z M668.07-286.147c2.097,5.43,3.728,11.009,4.647,16.791
				c0.167,1.021,0.364,2.049,0.472,3.088c0.358,3.561,0.771,7.162,0.688,10.764c-0.061,2.491-0.102,4.958-0.335,7.449l-1.834,11.068
				c-1.146,0.884-2.281,1.78-3.417,2.683c-0.543,0.418-1.081,0.842-1.624,1.266c0.729-4.755,1.051-9.635,1.045-14.294
				c0.084-0.09,0.167-0.173,0.263-0.257c0.37-0.376,0.807-0.866,1.159-1.272c0.347-0.412,0.651-0.926,1.003-1.338
				c0.341-0.478,0.233-1.146-0.238-1.476c-0.466-0.334-1.141-0.215-1.481,0.263c-0.269,0.335-0.514,0.682-0.747,1.034
				c-0.083-3.447-0.274-7.02-0.717-10.37c-0.232-1.756-0.489-3.548-0.698-5.311c-0.114-0.92-0.323-1.882-0.496-2.795
				c-0.03-0.155-0.06-0.305-0.084-0.46c1.004-1.111,2.33-2.474,3.542-3.346c0.562-0.478,0.634-1.32,0.168-1.875
				c-0.473-0.55-1.314-0.604-1.876-0.126c-0.86,0.705-1.666,1.458-2.425,2.223c-0.389-1.96-0.795-3.889-1.261-5.854
				c-0.274-1.146-0.573-2.281-0.884-3.41c0.687-2.211,1.308-4.475,1.679-6.756c0.185-1.177,0.334-2.443,0.412-3.728
				C666.35-290.335,667.252-288.269,668.07-286.147z M661.476-287.904c0,0.358,0,0.783-0.006,1.201
				c-0.334-1.087-0.669-2.181-1.003-3.262c-0.024-0.077-0.048-0.149-0.072-0.215c0.281-0.209,0.573-0.418,0.872-0.621
				C661.464-289.386,661.476-288.645,661.476-287.904z M552.51-286.519l-0.776,2.24c-0.113,0.412-0.286,1.04-0.334,1.452
				c-0.174,1.535-0.466,3.136-0.353,4.683c0.107,1.512,0.161,2.873,0.4,4.391c0.508,3.231,1.57,6.271,2.795,9.288
				c0.604,1.494,1.751,3.202,2.658,4.534c0.4,0.824,1.422,1.146,2.252,0.734l0.197-0.245l0.37,1.052
				c1.016,2.557,2.198,5.054,3.722,7.383c-0.006,0-0.012,0-0.018,0.006c-0.311,0.09-0.657,0.233-0.998,0.395l-1.947-1.738
				c-1.959-2.007-3.816-4.205-5.459-6.553c0.238-0.239,0.478-0.472,0.723-0.692c0.466-0.467,0.478-1.225,0.029-1.685
				c-0.454-0.46-1.206-0.46-1.678,0.006c-0.132,0.119-0.264,0.251-0.389,0.37c-1.236-1.995-2.3-4.086-3.13-6.26
				c-0.538-1.404-0.86-2.778-1.207-4.241c-0.113-0.46-0.203-0.979-0.274-1.518c0.598-0.454,1.194-0.901,1.792-1.344
				c0.4-0.305,0.489-0.878,0.19-1.278c-0.298-0.395-0.871-0.466-1.277-0.161c-0.293,0.221-0.58,0.436-0.866,0.657
				c-0.054-2.025,0.149-4.164,0.681-5.711c0.502-1.481,0.956-2.873,1.786-4.223L552.51-286.519z M658.668-284.38
				c0.818,2.521,1.404,5.113,2.073,7.67c0.609,2.359,1.123,4.851,1.571,7.312c-0.717,0.848-1.428,1.708-2.139,2.586
				c-1.069,1.309-2.192,2.581-3.244,3.889c-1.977,2.474-5.328,5.675-8.41,6.583c-1.451,0.43-2.317,0.28-3.763,0.186
				c-0.688-0.078-1.339,0.418-1.44,1.104c-0.095,0.693,0.389,1.338,1.076,1.416c0.382-0.006,1.045,0.113,1.463,0.149
				c1.278,0.102,2.706-0.209,3.919-0.609c2.634-0.878,4.767-2.79,6.762-4.665c1.242-1.165,2.306-2.527,3.435-3.806
				c0.997-1.129,1.953-2.3,2.915-3.47c0.012,0.089,0.023,0.173,0.042,0.263c0.406,2.544,0.717,5.095,0.985,7.657
				c0.119,1.195,0.161,2.407,0.299,3.597c0.161,1.463,0.149,3.088,0.19,4.563c0.024,0.985,0.042,1.971,0.042,2.95
				c-0.221,0.197-0.441,0.395-0.669,0.598c-1.35,1.207-3.136,2.336-4.605,3.393c-4.253,3.064-7.676,5.657-9.713,10.633
				c-0.148,0.341,0.007,0.729,0.341,0.872c0.335,0.138,0.729-0.018,0.878-0.364c2.264-5.943,7.957-8.673,12.854-12.149
				c0.293-0.209,0.586-0.425,0.885-0.64c-0.006,0.245-0.013,0.484-0.019,0.729c-0.023,0.586-0.006,1.195-0.065,1.774
				c-0.125,1.236-0.149,2.515-0.269,3.77c-0.239,2.604-0.586,5.286-1.105,7.854c-0.035,0.161-0.065,0.317-0.102,0.483
				c-1.792,1.41-3.596,2.809-5.394,4.224c-11.559,9.056-22.747,18.392-33.331,28.57c-0.723,0.693-0.771,1.846-0.09,2.563
				c0.675,0.705,1.828,0.729,2.557,0.036c2.909-2.939,6.141-5.788,9.24-8.542c8.154-7.239,16.762-14.025,25.501-20.56
				c-0.55,1.72-1.088,3.375-1.732,5.064c-2.282,5.943-6.045,12.222-10.597,16.738c-2.521,2.503-5.131,4.683-8.147,6.559
				c-1.046,0.645-2.133,1.272-3.25,1.87c0.496-0.382,0.979-0.782,1.487-1.165c0.531-0.418,1.021-0.956,1.506-1.434
				c1.672-1.679,2.908-3.393,4.354-5.227c0.263-0.215,0.298-0.603,0.089-0.866c-0.203-0.257-0.597-0.287-0.859-0.071
				c-1.303,0.597-2.557,1.314-3.854,1.935c-1.75,0.831-3.53,1.697-5.227,2.64c-1.643,0.914-3.237,1.954-4.898,2.832
				c-3.757,1.977-7.406,3.458-11.433,4.761c-0.782,0.251-1.637,0.556-2.431,0.729c-1.04,0.233-2.121,0.579-3.166,0.771
				c-0.998,0.179-2.02,0.358-3.011,0.579c-0.794,0.167-1.679,0.239-2.491,0.347c-1.899,0.245-3.853,0.442-5.794,0.538l-7.383-0.615
				l-10.967-2.204c-2.616-0.831-5.269-1.571-7.802-2.634c-2.49-1.051-4.856-2.121-7.281-3.303c-1.261-0.622-2.497-1.344-3.716-2.025
				c-0.645-0.389-1.271-0.818-1.881-1.237c-2.861-1.929-5.502-3.96-8.189-6.123c-2.246-1.804-4.349-3.883-6.422-5.878
				c-1.679-1.618-3.303-3.423-4.826-5.185l-1.756-1.894l-0.263-0.406l0.06,0.197l-0.878-0.944c-0.479-0.322-1.159-0.465-1.745-0.352
				c-0.131,0.023-0.269,0.006-0.399,0.035l-0.061,0.023l-3.774-4.79l-3.542-9.485c-0.114-0.377-0.222-0.741-0.341-1.117
				c0.119-0.054,0.221-0.132,0.316-0.221c6.917-6.81,13.822-13.632,20.757-20.423c2.031,2.825,4.355,5.453,6.798,7.818
				c-2.753,2.652-4.659,6.236-6.81,9.354c-1.547,2.246-4.008,6.01-6.522,7.3c-0.466,0.232-0.896,0.55-1.386,0.717
				c-1.021,0.341-1.696,0.52-2.771,0.657c-0.46,0.06-0.801,0.489-0.747,0.955c0.048,0.454,0.466,0.783,0.932,0.729
				c0.353-0.096,0.753-0.077,1.111-0.148c0.55-0.113,1.052-0.299,1.577-0.448c0.167-0.048,0.598-0.191,0.729-0.28
				c0.186-0.12,0.537-0.252,0.753-0.354c0.37-0.173,1.081-0.609,1.397-0.871c0.454-0.371,1.117-0.783,1.493-1.213
				c0.209-0.245,0.526-0.466,0.741-0.711c1.087-1.225,2.21-2.521,3.111-3.889c1.267-1.947,2.599-3.889,3.889-5.83
				c0.938-1.422,2.294-3.226,3.842-4.701c1.26,1.153,2.532,2.24,3.805,3.25c2.532,1.995,5.113,3.661,7.819,5.399
				c0.065,0.036,0.125,0.078,0.185,0.126c-1.553,1.248-3.088,2.526-4.617,3.828c-5.137,4.331-10.441,9.707-14.39,15.148
				c-1.506,2.079-3.053,4.229-4.312,6.463c-0.341,0.557-0.174,1.297,0.382,1.625c0.556,0.329,1.29,0.156,1.631-0.406
				c1.403-2.526,3.231-5.023,4.981-7.316c5.149-6.774,11.773-12.7,18.56-18.028c0.424,0.233,0.848,0.466,1.278,0.688l1.045,0.495
				l1.583,1.297c1.236,0.907,2.515,1.756,3.812,2.503c-8.787,6.666-16.547,14.485-23.123,23.421c-0.4,0.52-0.299,1.261,0.203,1.648
				c0.508,0.383,1.254,0.275,1.648-0.244c6.679-9.026,14.557-16.971,23.529-23.637c0.537,0.257,1.081,0.49,1.618,0.711
				c1.147,0.447,2.223,0.902,3.405,1.277c2.258,0.711,4.51,1.153,6.798,1.464c0.054,0.036,0.119,0.065,0.179,0.096
				c-0.717,0.579-1.422,1.183-2.126,1.769c-2.15,1.779-4.212,3.649-6.278,5.525c-3.942,3.578-7.712,7.322-11.618,10.931
				c-2.055,1.888-4.128,3.739-6.177,5.627c-0.447,0.412-0.501,1.105-0.102,1.547c0.395,0.442,1.094,0.478,1.541,0.071
				c2.581-2.377,5.18-4.737,7.766-7.125c3.632-3.34,7.132-6.822,10.8-10.125c2.27-2.037,4.563-4.021,6.905-5.968
				c0.508-0.431,1.027-0.843,1.553-1.248c0.532,0.215,1.063,0.405,1.595,0.573c1.56,0.496,3.639,1.213,5.275,1.278
				c0.627,0.018,1.23,0.083,1.827,0.119c-2.497,1.96-4.964,3.99-7.341,6.039c-4.068,3.495-7.992,6.995-11.923,10.657
				c-2.031,1.881-4.122,3.805-6.063,5.788c-0.441,0.43-0.466,1.159-0.035,1.595c0.424,0.436,1.152,0.442,1.595,0.006
				c2.479-2.539,5.19-5.018,7.795-7.419c6.416-5.913,13.004-11.679,19.892-17.042c0.621-0.18,1.26-0.311,1.869-0.514
				c1.386-0.479,2.855-1.177,4.122-1.936c3.339-2.02,6.062-5.006,8.195-8.381c0.604-0.746,1.177-1.576,1.702-2.442l0.496-1.081
				l0.197-0.197c0.472-0.532,0.914-1.1,1.38-1.631c0.794-0.891,1.672-2.3,2.306-3.333c0.155-0.251,0.717-1.255,0.836-1.351
				c0.4-0.824,0.849-1.643,1.261-2.467c0.137-0.28,0.269-0.556,0.334-0.914c0.771-0.609,1.201-1.415,1.577-2.222
				c1.506-3.237,2.616-6.648,3.101-10.179c0.412-3.088,0.46-6.2,0.179-9.295c0.191-0.041,0.383-0.137,0.531-0.286
				c1.721-1.78,3.549-3.542,5.335-5.269c2.741-2.652,5.405-5.382,8.278-7.915c1.709-1.517,3.346-2.938,5.042-4.307
				C657.939-286.781,658.28-285.568,658.668-284.38z M380.932-279.744l-0.298,0.131c-1.649,1.034-3.208,2.175-4.809,3.279
				c-0.956,0.663-1.959,1.291-2.915,1.954c-3.458,2.407-6.869,4.844-10.268,7.335c-5.52,4.038-11.099,8.512-15.68,13.613
				c-0.938,1.039-2.001,2.145-2.832,3.268c-0.167,0.203-0.143,0.508,0.054,0.669c0.191,0.167,0.496,0.137,0.669-0.06
				c3.208-3.817,6.529-7.133,10.381-10.299c8.285-6.803,17.687-12.071,26.312-18.421c0.371-0.264,0.466-0.777,0.221-1.142
				c-0.131-0.191-0.323-0.299-0.526-0.334L380.932-279.744z M628.252-273.986c0.389,0.64,0.765,1.284,1.111,1.953
				c-0.299-0.913-0.627-1.785-1.397-2.395C628.079-274.278,628.169-274.136,628.252-273.986z M631.711-265.354
				c0.09,0.502,0.215,1.01,0.238,1.529c0.03,0.585,0.162,1.236,0.144,1.81c-0.018,0.592,0.019,1.183,0.006,1.763
				c-0.029,1.027-0.173,2.09-0.489,3.105c0.023,0.824-0.203,1.547-0.448,2.229l0.245-2.622c0.077-4.421-0.454-8.823-1.75-12.944
				C631.077-268.114,631.478-266.771,631.711-265.354z M512.961-264.369c-0.03,0.036-0.06,0.065-0.09,0.102
				c0.006-0.173,0.012-0.358,0.024-0.531C512.913-264.662,512.937-264.513,512.961-264.369z M515.404-253.862
				c0.227,1.267,0.478,2.521,0.771,3.787c2.437,10.723,8.052,21.588,15.053,30.034l2.312,3.214c0.424,0.562,0.854,1.123,1.302,1.679
				l-0.089-0.191l0.047,0.102c4.212,8.004,9.928,15.244,16.75,21.211c-4.826-2.037-9.647-4.851-13.523-8.261
				c-1.792-1.577-3.507-3.106-5.132-4.856c-1.415-1.523-2.718-3.136-4.002-4.772c-0.663-0.849-1.338-1.708-1.923-2.61
				c-0.556-0.854-1.171-1.666-1.715-2.527c-1.983-3.166-3.691-6.463-5.227-9.873c-0.747-1.667-1.565-3.524-2.139-5.257
				c-0.878-2.658-1.852-5.364-2.479-8.1c-0.287-1.243-0.598-2.485-0.86-3.739c-0.257-1.249-0.437-2.521-0.681-3.781
				c-0.4-2.091-0.586-4.433-0.771-6.564c-0.21-2.443-0.312-4.881-0.293-7.306c0.173-0.186,0.353-0.389,0.52-0.592
				C513.863-259.435,514.562-256.634,515.404-253.862z M564.643-248.635l-0.622-0.544l-0.018-0.03
				c0.024-0.006,0.054-0.012,0.084-0.018c0.054-0.018,0.107-0.03,0.161-0.042C564.379-249.054,564.505-248.845,564.643-248.635z
				 M523.474-245.445l0.174,0.472c0.077,0.239,0.149,0.472,0.245,0.747c-0.102-0.275-0.186-0.508-0.264-0.741L523.474-245.445z
				 M404.844-224.187c-2.85,2.886-5.771,5.633-8.739,8.387c-0.329,0.299-0.353,0.818-0.06,1.142
				c0.293,0.322,0.807,0.334,1.135,0.035c1.899-1.786,3.811-3.578,5.723-5.357c2.007-1.864,3.996-3.848,5.949-5.771
				c2.049-2.024,4.193-3.941,6.313-5.883c3.16-2.88,6.541-5.406,10.089-7.771c0.938-0.627,2.127-1.416,3.125-1.918
				c0.573-0.346,0.758-1.116,0.418-1.685c-0.341-0.567-1.105-0.74-1.679-0.382C418.642-238.146,411.826-231.271,404.844-224.187z
				 M575.997-241.217c-0.018,0.013-0.029,0.024-0.048,0.03l-1.779-1.727c-0.072-0.077-0.144-0.155-0.186-0.263
				C574.623-242.482,575.299-241.832,575.997-241.217z M631.382-227.269c-4.755,3.853-8.757,7.95-12.974,12.377
				c-1.721,1.81-3.465,3.577-5.197,5.376c-1.284,1.332-2.705,2.777-4.092,4.002c-1.726,1.541-3.422,3.028-5.196,4.51
				c-1.039,0.872-2.168,1.679-3.231,2.539c-0.64,0.502-0.776,1.428-0.287,2.055c0.49,0.633,1.416,0.752,2.055,0.25
				c1.004-0.824,2.073-1.577,3.076-2.389c0.98-0.806,1.978-1.648,2.945-2.473c1.75-1.475,3.494-3.148,5.148-4.743
				c5.132-4.94,9.814-10.321,15.071-15.166c1.422-1.302,2.879-2.557,4.391-3.751c0.562-0.442,1.165-0.956,1.756-1.351
				c1.153-0.788,2.443-1.648,3.542-2.497c0.83-0.639,1.673-1.248,2.509-1.887c0.753-0.574,1.481-1.189,2.258-1.709
				c0.425-0.232,0.586-0.771,0.364-1.2c-0.221-0.419-0.752-0.567-1.183-0.341C638.03-232.232,634.925-230.142,631.382-227.269z
				 M431.264-226.516c-0.669,0.478-1.362,0.908-2.007,1.409c-1.757,1.351-3.352,2.718-5.012,4.188
				c-0.938,0.837-1.989,1.792-2.832,2.724c-2.538,2.771-4.999,5.663-7.58,8.393c-1.081,1.141-2.156,2.33-3.267,3.441
				c-1.142,1.152-2.401,2.15-3.555,3.267c-1.314,1.261-3.064,2.324-4.527,3.411c-0.454,0.311-0.574,0.938-0.27,1.392
				s0.933,0.55,1.393,0.239c2.992-2.073,6.057-4.366,8.673-6.905c2.867-2.784,5.723-5.585,8.596-8.356
				c2.831-2.736,5.669-5.615,8.757-8.059c2.013-1.595,4.038-2.885,6.26-4.163c0.783-0.46,1.058-1.487,0.609-2.271
				c-0.454-0.77-1.469-1.027-2.258-0.566C433.301-227.884,432.13-227.137,431.264-226.516z M668.352-225.088
				c-0.717,1.637-1.393,3.356-2.229,4.951c-2.323,4.396-4.939,8.691-8.184,12.49l-1.541,1.738l0.998-1.475
				c2.114-3.185,3.625-6.445,5.106-9.94c1.004-2.39,1.757-4.964,2.438-7.454c0.203-0.759,0.4-1.512,0.573-2.276
				c1.607-1.212,3.202-2.442,4.809-3.667C669.772-228.881,669.104-226.832,668.352-225.088z M468.985-207.802
				c0.681,0.681,1.374,1.368,2.055,2.056c-0.215-0.066-0.46-0.061-0.681,0.047c-0.275,0.107-0.544,0.221-0.818,0.329
				c-4.283-4.772-8.561-9.54-12.819-14.337C460.819-215.746,464.905-211.779,468.985-207.802z M479.731-197.187
				c-0.675,0.293-1.351,0.598-2.02,0.908c-2.252-2.503-4.504-5.012-6.756-7.521c0.06-0.024,0.12-0.048,0.18-0.072
				c0.472-0.215,0.711-0.747,0.567-1.219C474.373-202.449,477.055-199.827,479.731-197.187z M562.295-191.673
				c2.729,1.583,5.591,2.98,8.548,4.175l4.288,1.416l0.962,0.472c5.144,2.15,10.52,3.853,16.015,4.994
				c-1.165-0.114-2.323-0.257-3.471-0.424c-3.327-0.508-6.648-1.159-9.861-2.156c-3.089-0.968-6.129-2.013-9.044-3.423
				c-1.039-0.502-2.085-1.016-3.118-1.553c0.376-0.089,0.747-0.179,1.111-0.233c-1.105-0.406-2.24-0.932-3.321-1.392
				c-0.657-0.275-1.309-0.514-1.972-0.747c-0.729-0.46-1.451-0.938-2.156-1.439c-2.479-1.768-4.832-3.542-6.887-5.765
				C556.047-195.455,559.296-193.418,562.295-191.673z M482.348-194.606c2.377,2.354,4.749,4.731,7.108,7.108
				c-0.795,0.478-1.583,0.961-2.359,1.469c-2.599-2.807-5.203-5.603-7.76-8.44c0.723-0.323,1.458-0.651,2.181-0.956
				C481.792-195.156,482.066-194.881,482.348-194.606z M494.61-182.295c13.542,13.691,26.91,27.549,40.243,41.443
				c5.525,5.771,11.032,11.559,16.516,17.365c-0.746,0.43-1.487,0.878-2.228,1.308c-0.048,0.03-0.096,0.054-0.149,0.089
				c-6.81-6.78-13.548-13.619-20.352-20.405c-11.856-11.833-23.302-24.09-34.824-36.24c-1.619-1.786-3.243-3.554-4.88-5.31
				c0.812-0.514,1.63-1.016,2.448-1.505C492.46-184.47,493.535-183.382,494.61-182.295z M486.225-167.571
				c-3.578,2.855-6.899,6.003-10.083,9.301c-4.701,4.862-9.092,9.916-13.613,14.921c-1.183,1.308-2.39,2.598-3.566,3.918
				c-0.406,0.442-0.382,1.153,0.06,1.553c0.437,0.4,1.141,0.358,1.553-0.084c4.271-4.707,8.519-9.509,12.933-14.079
				c3.142-3.255,6.355-6.535,9.79-9.498c1.715-1.476,3.429-2.813,5.209-4.199c0.741-0.573,1.571-1.069,2.312-1.637
				c0.669-0.484,0.824-1.428,0.358-2.084c-0.472-0.651-1.409-0.794-2.078-0.311C488.13-169.124,487.138-168.306,486.225-167.571z
				 M305.83-105.747c-2.222,1.111-4.408,2.312-6.194,3.632c-0.006-0.03-0.03-0.048-0.048-0.054c-1.404-0.711-2.138,0.436-3.004,1.32
				c-0.358,0.358-0.705,0.729-1.058,1.093c-3.518,2.372-6.869,4.988-10.041,7.855c-0.311,0.257-0.364,0.729-0.12,1.033
				c0.251,0.305,0.723,0.353,1.034,0.096c1.266-1.063,2.736-2.049,4.085-3.011c0.167-0.131,0.334-0.245,0.514-0.376
				c-0.065,0.089-0.137,0.167-0.197,0.257c-1.332,1.696-2.706,3.781-3.829,5.633c-0.018,0.018-0.03,0.036-0.024,0.036
				c-0.992,1.153-1.923,2.33-2.795,3.542c-2.354,3.243-4.354,6.403-6.17,9.981c-9.366,18.421-9.916,40.236-5.28,60.51
				c-2.61-8.763-4.098-17.866-4.343-27.25c-0.209-7.55,0.639-15.154,2.019-22.597c1.768-9.551,4.665-19.389,9.157-28.081
				c-0.866,1.129-1.828,2.294-2.628,3.464c-1.183,1.745-2.312,3.429-3.435,5.215c-2.891,4.6-5.609,10.633-7.138,15.83
				c-0.974,3.291-1.69,6.355-2.294,9.73c-0.358,1.959-0.538,4.05-0.705,6.039c-0.627,7.658-0.46,15.537,0.681,23.117
				c3.644,24.216,13.936,45.517,30.876,63c0.633,0.651,1.29,1.314,2.144,1.81c0.084,0.144,0.186,0.269,0.293,0.4
				c2.909,3.709,6.469,7.568,9.945,10.746c2.24,2.049,4.444,3.942,6.804,5.842c4.827,3.913,10.406,7.299,16.277,9.426
				c0.657,0.239,1.338,0.538,2.007,0.729c2.24,0.657,4.402,1.314,6.696,1.828c5.095,1.117,10.495,1.589,15.728,1.583
				c1.989-0.006,4.265,0.024,6.236-0.209c0.926-0.102,1.882-0.162,2.82-0.251c1.153-0.107,2.33-0.287,3.482-0.424
				c2.276-0.274,4.569-0.848,6.821-1.266c0.364-0.042,0.95-0.239,1.35-0.34c1.147-0.269,2.293-0.58,3.429-0.896
				c4.014-1.111,7.748-2.455,11.618-3.997c5.286-2.09,11.29-5.358,15.853-8.787c5.388-4.05,10.137-8.422,14.091-13.912
				c1.995-2.778,3.758-5.693,5.287-8.721l-0.521,1.278c1.811-2.623,3.447-5.316,4.821-7.945c1.11-2.126,2.097-4.199,3.112-6.361
				c0.179-0.388,0.352-0.776,0.459-1.236c0.09-0.132,0.138-0.239,0.191-0.347c0.956-2.108,2.097-4.247,2.861-6.433
				c0.646-1.816,1.338-3.584,1.93-5.43c1.003-3.094,1.768-6.505,2.335-9.701c1.177-6.667,1.368-13.321,0.789-19.933
				c-0.006-2.097-0.072-4.223-0.245-6.26c-0.483-5.615-1.152-11.188-2.551-16.647c-0.591-2.312-1.177-4.534-1.905-6.81
				c-3.722-11.583-10.357-23.302-19.258-31.599c-2.103-2.043-4.391-3.871-6.667-5.716c-2.132-1.738-4.449-3.435-6.749-4.952
				c-4.779-3.148-9.82-6.194-15.059-8.536c-5.042-2.252-10.011-4.169-15.304-5.734C351.734-121.134,325.213-120.483,305.83-105.747z
				 M582.293-90.461c-0.244,0.149-0.489,0.293-0.734,0.442c-2.718-2.67-5.436-5.334-8.147-7.998c0.269-0.364,0.364-0.842,0.221-1.29
				c-0.239-0.729-1.039-1.105-1.774-0.854c-0.154,0.054-0.311,0.107-0.459,0.167c-3.877-3.805-7.742-7.61-11.601-11.421
				c-0.006-0.257-0.09-0.514-0.251-0.729c-0.239-0.299-0.592-0.454-0.956-0.46c-2.461-2.431-4.916-4.856-7.371-7.288
				c-0.144-0.137-0.286-0.287-0.43-0.418c0.765-0.46,1.535-0.902,2.306-1.356C562.862-111.302,572.574-100.879,582.293-90.461z
				 M331.097-112.927l-1.905,0.46l-2.085,0.125c-1.434,0.186-2.963,0.442-4.414,0.747c2.419-0.747,4.814-1.416,7.371-1.858
				c3.853-0.693,7.729-1.051,11.6-0.932C338.175-114.247,334.483-113.632,331.097-112.927z M357.869-109.671l5.943,0.747
				c1.243,0.233,2.479,0.496,3.704,0.789c-0.723,0.4-1.439,0.818-2.132,1.254L357.869-109.671z M331.264-108.722l0.507-0.024
				l-3.171,0.137c0.956-0.107,1.923-0.197,2.909-0.263C331.425-108.812,331.342-108.77,331.264-108.722z M345.128-108.304
				c1.386,0.185,2.796,0.418,4.211,0.705c-0.376,0.287-0.747,0.573-1.117,0.86c-1.505,1.147-2.969,2.485-4.36,3.763
				c-3.817,3.482-7.443,7.198-11.29,10.633c-2.945,2.616-5.818,5.053-9.085,7.257c-0.95,0.639-2.067,1.35-3.064,1.9
				c-0.932,0.514-1.899,0.967-2.819,1.487c-0.394,0.209-0.543,0.693-0.347,1.081c0.191,0.382,0.675,0.525,1.063,0.322
				c1.009-0.567,2.084-1.045,3.082-1.63c1.828-1.075,3.68-2.282,5.388-3.542c4.366-3.22,8.291-7.054,12.239-10.764
				c2.389-2.246,4.737-4.635,7.228-6.756c1.697-1.446,3.357-2.837,5.102-4.182c3.405,0.789,6.821,1.84,10.065,3.101
				c-3.644,2.867-6.959,6.242-10.244,9.754c-3.698,3.942-7.341,7.998-11.236,11.744c-2.21,2.126-5.042,4.587-7.682,6.194
				c-0.938,0.573-1.906,1.075-2.843,1.636c-0.233,0.125-0.4,0.334-0.466,0.574c-6.797,3.07-11.624,7.251-15.997,13.571l-0.173,0.275
				c-1.87,2.21-3.728,5.042-4.504,7.317c-0.442,1.254-0.801,2.317-1.135,3.614c-0.281,1.087-0.472,2.354-0.562,3.632l-0.012-0.448
				c-0.651,0.95-1.272,1.947-1.87,2.975c-3.148,2.682-5.974,5.716-8.858,8.954c-3.656,4.098-7.168,8.584-10.394,13.022
				c-0.203,0.275-0.149,0.669,0.119,0.866c0.269,0.197,0.663,0.131,0.866-0.137c4.791-6.589,10.436-13.5,16.438-18.978
				c0.066-0.065,0.138-0.125,0.227-0.167c-3.751,7.275-5.448,16.158-4.695,24.174c0.072,0.717,0.137,1.446,0.221,2.192
				c-0.4,0.484-0.8,1.003-1.194,1.529c-1.703,2.234-3.208,4.701-4.844,7c-0.544,0.765-1.105,1.619-1.721,2.318
				c-0.991,1.146-1.822,2.204-2.939,3.255c-0.281,0.263-0.531,0.573-0.842,0.8c-0.496,0.371-1.034,0.89-1.542,1.219
				c-0.274,0.173-0.562,0.346-0.848,0.514c-0.854-2.21-1.696-4.42-2.419-6.696c-2.067-6.475-3.763-13.279-4.659-20.046
				c-0.334-2.479-0.687-4.952-0.818-7.46c-0.012-0.227-0.03-0.454-0.042-0.687c4.844-10.011,12.592-18.87,20.853-26.253
				c3.231-2.885,6.487-5.884,9.952-8.476c0.43-0.323,0.514-0.944,0.197-1.362c-0.316-0.418-0.926-0.496-1.356-0.167
				c-6.086,4.444-12.072,9.45-17.024,15.16c-1.177,1.356-2.413,2.664-3.524,4.08c-1.857,2.365-3.769,4.701-5.394,7.246
				c-1.362,2.132-2.694,4.235-3.895,6.421c0-0.036,0-0.072,0-0.102c-0.108-3.751,0.006-7.509,0.328-11.248
				c0.096-1.141,0.186-2.3,0.341-3.423c0.197-1.35,0.322-2.753,0.579-4.091c0.251-1.302,0.448-2.652,0.741-3.942l0.681-2.808
				l0.418-0.992c1.147-2.598,2.401-5.161,3.728-7.688c0.048,0.275,0.245,0.501,0.532,0.579c0.394,0.096,0.806-0.149,0.914-0.538
				c0.042-0.179,0.084-0.358,0.125-0.538c0.167,0.012,0.329-0.036,0.466-0.155c3.465-3.208,6.965-6.344,10.489-9.468
				c4.098-3.638,8.267-7.251,12.586-10.626c3.387-2.64,6.762-5.304,10.304-7.729c3.53-2.419,7.036-4.785,10.728-6.965
				c1.326-0.789,2.646-1.601,3.984-2.359c1.141-0.651,2.282-1.291,3.411-1.959C339.687-108.895,342.446-108.662,345.128-108.304z
				 M324.18-104.152c-1.941,1.344-3.823,2.778-5.74,4.151c-1.727,1.231-3.363,2.599-5.042,3.907
				c-1.78,1.386-3.596,2.861-5.305,4.337c-2.986,2.58-5.985,5.107-8.924,7.741c-4.629,4.151-9.181,8.387-13.751,12.592
				c0.334-1.195,0.711-2.413,1.117-3.614c2.539-4.534,5.185-9.026,7.724-13.578c0.269-0.298,0.538-0.579,0.8-0.866
				c1.906-2.121,4.008-4.068,6.212-5.866l1.595-1.177l4.104-2.712c6.308-3.572,12.842-6.278,19.736-8.189
				c1.559-0.46,3.208-0.842,4.802-1.177l0.036-0.006l-0.615,0.083C328.624-107.163,326.372-105.693,324.18-104.152z
				 M373.842-106.338c1.762,0.591,3.704,1.177,5.4,1.923c0.836,0.364,1.708,0.675,2.545,1.045c0.657,0.298,1.314,0.597,1.959,0.902
				c-0.8,0.227-1.601,0.466-2.419,0.729c-1.123,0.358-2.228,0.794-3.315,1.278c-3.19-1.977-6.487-3.781-9.934-5.352
				c0.944-0.525,1.912-0.998,2.891-1.421C371.942-106.954,372.898-106.655,373.842-106.338z M366.817-101.685
				c1.941,0.967,3.966,1.923,5.824,3.034c0.293,0.167,0.585,0.34,0.878,0.514c-0.849,0.496-1.685,1.003-2.497,1.535
				c-6.893,4.415-12.807,10.758-18.69,16.409c-0.95,0.908-1.912,1.81-2.873,2.694c-3.22-0.245-6.481-0.144-9.683,0.281
				c-1.338,0.173-2.718,0.424-4.085,0.747c0.149-0.114,0.292-0.221,0.448-0.347c1.822-1.469,3.698-2.975,5.37-4.605
				c2.79-2.706,5.424-5.507,8.124-8.309c4.337-4.51,8.937-9.516,14.199-13.351C364.852-102.635,365.85-102.169,366.817-101.685z
				 M386.565-101.147c2.348,1.129,4.749,2.479,6.953,3.847c0.818,0.508,1.679,0.992,2.467,1.553
				c0.365,0.257,0.747,0.496,1.129,0.734c-1.326,0.412-2.61,0.89-3.997,1.481c-1.015,0.43-1.935,0.962-2.897,1.5
				c-0.096,0.048-0.179,0.096-0.263,0.137c-1.32-1.099-2.664-2.168-4.026-3.178c-1.834-1.356-3.692-2.658-5.579-3.895
				c0.25-0.102,0.501-0.191,0.764-0.281c1.195-0.43,2.676-0.92,3.913-1.135c0.502-0.132,0.854-0.574,0.896-1.075
				C386.141-101.351,386.35-101.249,386.565-101.147z M378.883-94.804c1.899,1.177,3.853,2.706,5.621,4.085
				c0.538,0.424,1.075,0.848,1.607,1.284c-6.075,4.265-11.23,9.761-16.648,14.826c-0.854,0.794-1.702,1.553-2.557,2.317
				c-4.647-2.676-9.844-4.312-15.19-4.976c0.43-0.412,0.866-0.818,1.302-1.23c5.059-4.773,10.011-9.833,15.62-13.966
				c2.24-1.661,4.498-3.106,7.532-4.104C377.08-95.999,377.963-95.372,378.883-94.804z M403.918-89.996
				c1.117,0.926,2.216,1.864,3.291,2.808c-2.288,1.727-4.594,3.441-6.899,5.173c-0.543-0.585-1.087-1.153-1.631-1.708
				c-2.198-2.258-4.516-4.498-6.929-6.624c2.568-1.314,5.257-2.318,8.058-2.796C401.218-92.14,402.609-91.095,403.918-89.996z
				 M527.375-54.741c3.787,3.644,7.55,7.323,11.391,11.098c-16.701-15.423-32.937-31.139-49.064-47.063
				C502.322-78.729,514.885-66.783,527.375-54.741z M396.528-79.799c0.107,0.113,0.222,0.233,0.341,0.353
				c-6.033,4.516-12.072,9.038-18.099,13.565c-0.669,0.496-1.332,0.991-2.007,1.493c-2.222-2.383-4.725-4.528-7.526-6.439
				c-0.298-0.209-0.597-0.4-0.902-0.597h0.012c4.074-3.572,7.873-7.521,12.036-11.009c2.306-1.941,4.778-3.895,7.407-5.609
				C390.842-85.45,393.715-82.714,396.528-79.799z M416.605-77.792c0.148,0.173,0.311,0.364,0.466,0.55
				c-0.849,0.621-1.69,1.254-2.521,1.875c-1.786,1.338-3.536,2.73-5.262,4.151c-0.711-0.961-1.422-1.917-2.15-2.867
				c-1.542-2.037-3.244-4.038-5-5.967c1.416-1.04,2.837-2.073,4.229-3.124c0.865-0.657,2.007-1.595,2.933-2.139
				C411.868-82.959,414.312-80.492,416.605-77.792z M592.048-79.984c-0.054,0.024-0.102,0.047-0.149,0.078
				c-0.186-0.179-0.364-0.358-7.729-7.61c0.197-0.083,0.353-0.233,0.49-0.394C587.12-85.271,589.587-82.625,592.048-79.984z
				 M586.588-77.242c-1.888,1.003-3.739,2.084-5.531,3.321c-4.641,3.196-8.816,6.416-13.075,10.125
				c-6.117,5.334-11.564,11.427-16.72,17.669c-0.418,0.514-0.353,1.261,0.149,1.673s1.249,0.329,1.673-0.185
				c1.637-2.127,3.655-4.468,5.531-6.397c1.977-2.031,3.864-4.062,5.932-6.015c5.848-5.532,12.734-10.877,19.724-14.85
				c0.579-0.328,1.135-0.711,1.714-1.039c1.034-0.591,2.098-1.207,3.172-1.792c3.68,3.602,7.359,7.204,11.027,10.812
				c-2.652,1.577-5.245,3.172-7.831,4.946c-1.995,1.362-3.889,2.855-5.824,4.307c-2.586,1.935-5.257,4.295-7.616,6.499
				c-3.602,3.375-7.174,6.75-10.549,10.352c-2.706,2.879-5.514,5.699-8.261,8.554c-1.303-1.165-2.593-2.33-3.9-3.482
				c-5.376-4.761-10.645-9.665-15.938-14.533c0.508-0.012,1.01-0.269,1.303-0.723c0.92-1.625,2.072-3.297,3.153-4.826
				c1.774-2.509,3.662-5.036,5.699-7.341c1.463-1.661,2.896-3.303,4.438-4.892c7.162-7.431,15.525-13.936,24.324-19.438
				C581.648-82.081,584.121-79.667,586.588-77.242z M406.044-68.503c-2.622,2.24-5.215,4.516-7.819,6.756
				c-2.98,2.568-5.973,5.078-9.001,7.598c-1.212,1.009-2.485,1.953-3.751,2.921c-0.131-0.299-0.269-0.585-0.406-0.878
				c-1.858-3.841-4.068-7.335-6.69-10.465c1.822-1.32,3.638-2.652,5.442-4.008c4.88-3.709,9.892-7.329,14.85-10.937
				C401.248-74.674,403.715-71.657,406.044-68.503z M423.761-68.503c1.548,2.276,2.909,4.618,4.283,6.995
				c0.125,0.209,0.245,0.437,0.37,0.639c-0.508-0.209-1.123-0.161-1.606,0.203c-2.407,1.858-4.898,3.709-7.174,5.771
				c-0.908-1.697-1.846-3.363-2.808-4.982c-1.284-2.156-2.587-4.343-4.002-6.403c-0.676-0.992-1.362-1.953-2.049-2.903
				c2.622-2.055,5.286-4.044,8.052-5.925C420.554-72.971,422.19-70.797,423.761-68.503z M343.796-72.518l-0.496-0.024l0.436-0.03
				l0.149-0.012C343.856-72.559,343.826-72.542,343.796-72.518z M346.239-72.547l5.328,0.275c2.377,0.299,4.719,0.818,6.881,1.643
				c1.505,0.573,2.993,1.129,4.426,1.864c-0.496,0.43-1.04,0.818-1.565,1.212c-4.558-2.449-9.504-4.133-14.677-4.796l-0.573-0.036
				l0.161,0.012c0.06-0.06,0.12-0.107,0.179-0.161L346.239-72.547z M372.713-61.377c-0.454,0.34-0.914,0.669-1.368,1.003
				c-2.634-2.414-5.507-4.558-8.578-6.356c0.388-0.304,0.788-0.603,1.17-0.908c0.125-0.107,0.257-0.215,0.382-0.316
				C367.498-66.096,370.282-63.898,372.713-61.377z M345.355-66.998c2.939,0.412,5.561,1.016,8.088,1.905l-3.554-0.024l-3.297-0.687
				c-1.828-0.251-3.674-0.365-5.514-0.329c-3.142,0.054-6.224,0.501-9.259,1.344c-1.069,0.299-2.15,0.717-3.148,1.069
				c-2.228,0.932-4.569,1.888-6.642,3.142c-0.543,0.329-1.117,0.651-1.649,0.998c0.568-1.123,1.607-1.882,2.7-2.569
				c1.685-1.081,3.375-1.852,5.197-2.652c3.237-1.422,6.63-1.912,10.083-2.335C340.421-67.393,343.306-67.285,345.355-66.998z
				 M416.443-51.802c-0.436,0.43-0.884,0.854-1.313,1.284c-1.811,1.762-3.542,3.673-5.28,5.52
				c-4.564,4.85-9.002,9.868-13.906,14.372c-1.792-4.707-4.289-9.163-7.192-13.165c-0.257-0.353-0.52-0.699-0.783-1.045
				c-0.496-1.529-1.045-3.022-1.654-4.48c1.326-1.003,2.664-1.989,3.954-3.041c3.022-2.467,6.045-4.928,9.044-7.431
				c2.724-2.276,5.424-4.546,8.147-6.756C410.793-61.843,413.81-56.879,416.443-51.802z M333.528-60.517l-4.14,2.497
				c-0.615,0.442-1.212,0.902-1.804,1.38c-1.153,0.657-2.312,1.386-3.495,2.186c-1.314,0.89-2.479,2.007-3.703,3.011
				c-0.358,0.298-0.699,0.705-1.027,1.039c-1.201,1.201-2.187,2.383-3.208,3.722c-1.547,2.013-2.777,4.223-3.715,6.553l-0.627,1.881
				l-0.347-2.927l0.083-3.041l0.299-1.487l0.036-0.167c0.125-0.167,0.257-0.346,0.382-0.514c0.52-0.287,1.051-0.549,1.547-0.734
				c0.466-0.245,0.663-0.818,0.43-1.291c-0.03-0.054-0.066-0.107-0.108-0.161c0.466-0.502,0.926-1.021,1.422-1.493
				c1.236-1.213,2.491-2.276,3.841-3.363c2.228-1.804,5.263-3.649,8.154-4.994l2.724-1.123L333.528-60.517z M349.495-60.702
				l0.173,0.024l0.412,0.078c6.499,1.619,12.64,4.958,17.639,9.283c2.455,2.132,4.54,4.235,6.612,6.738
				c0.418,0.508,0.926,1.075,1.291,1.619c0.496,0.729,1.081,1.428,1.553,2.168c0.395,0.621,0.771,1.26,1.195,1.864
				c0.43,0.621,0.842,1.434,1.207,2.103c1.69,3.118,3.226,6.612,4.08,10.071c0.065,0.287,0.155,0.58,0.233,0.854
				c0.096,1.439,0.089,2.873-0.036,4.289c-0.227,0.131-0.454,0.275-0.675,0.406c-0.621,0.376-0.83,1.183-0.472,1.798
				c0.167,0.287,0.442,0.484,0.747,0.574c-0.567,2.945-1.47,5.932-3.011,8.524c-1.936,3.25-3.841,5.8-6.81,8.309
				c-6.893,5.848-15.447,8.709-24.347,8.494c-1.344-0.036-3.017-0.102-4.331-0.37c-1.362-0.287-2.784-0.43-4.122-0.848
				c-0.968-0.305-1.978-0.55-2.921-0.92l-4.181-1.798l-4.02-2.401l-0.06-0.036c-6.75-8.339-10.161-19.025-6.583-30.052
				c0.789-2.443,2.055-5.023,3.519-7.15c2.061-2.999,4.373-5.693,7.186-8.022c0.585-0.52,0.645-1.41,0.137-1.989
				c-0.508-0.574-1.398-0.615-1.983-0.096c-4.008,3.602-7.33,7.233-9.755,12.084c-0.43,0.86-0.938,1.846-1.248,2.748
				c-0.353,1.028-0.735,2.001-1.045,3.053c-0.669,2.264-1.016,4.731-1.129,7.078c-0.275,5.543,1.123,11.313,3.488,16.307
				c-0.43-0.43-0.836-0.878-1.236-1.332l-1.888-2.485l-0.078-0.107c-0.496-1.069-0.968-2.115-1.392-3.231
				c-1.314-3.411-2.21-7.813-2.228-11.618l0.113,0.125l0.8,0.908c0.311,0.382,0.896,0.43,1.291,0.107
				c0.388-0.316,0.448-0.902,0.137-1.284c-0.741-1.063-1.463-2.174-2.145-3.333c0.556-5.388,2.222-10.167,5.304-14.916
				c0.783-1.207,1.643-2.503,2.575-3.602l3.035-3.422l5.071-4.492c0.657-0.508,1.368-0.92,2.031-1.416
				c1.063-0.776,2.359-1.374,3.512-2.001c0.281-0.155,0.604-0.317,0.95-0.478c1.177-0.37,2.401-0.693,3.489-0.932
				C344.244-60.039,346.866-60.469,349.495-60.702z M377.599-55.213c-0.783-0.609-1.583-1.207-2.425-1.798
				c-0.436-0.299-0.866-0.597-1.338-0.902c-0.251-0.263-0.508-0.532-0.752-0.789c0.406-0.305,0.818-0.604,1.236-0.914
				C375.497-58.241,376.59-56.766,377.599-55.213z M432.733-51.879c0.37,1.421,0.723,2.843,1.033,4.294
				c1.248,5.878,1.941,12.102,2.024,18.207c-0.424-0.311-1.045-0.305-1.475,0.054c-0.711,0.58-1.387,1.219-2.104,1.774
				c-0.579,0.442-1.17,0.89-1.762,1.332c-0.55-2.306-1.146-4.563-1.828-6.863c-0.896-3.035-1.936-6.075-3.111-9.073
				c0.92-0.622,1.857-1.225,2.771-1.745c0.472-0.305,0.609-0.932,0.316-1.397c-0.293-0.46-0.92-0.591-1.386-0.293
				c-0.812,0.514-1.625,1.058-2.432,1.619c-1.129-2.742-2.359-5.448-3.686-8.094c0.938-0.842,1.899-1.672,2.892-2.485
				c1.469-1.207,3.105-2.526,4.701-3.548c0.358-0.275,0.585-0.657,0.645-1.075C430.553-56.873,431.693-54.412,432.733-51.879z
				 M613.743-50.595l5.537,5.603c-12.711,6.66-22.305,17.054-32.118,27.334c-2.091,2.18-4.164,4.366-6.261,6.529
				c-3.011-2.592-6.009-5.191-9.002-7.783c0.902-1.075,1.853-2.139,2.754-3.118c2.963-3.25,6.063-6.362,9.378-9.253
				c7.108-6.218,14.504-12.036,22.167-17.549c0.705-0.55,0.843-1.553,0.312-2.246c-0.532-0.693-1.535-0.812-2.24-0.269
				c-3.561,2.826-7.043,5.758-10.537,8.673c-3.632,3.041-7.348,6.254-10.752,9.545c-3.865,3.751-7.748,7.455-11.183,11.618
				c-0.399,0.484-0.812,0.968-1.225,1.446c-1.773-1.535-3.554-3.077-5.322-4.618c-1.278-1.105-2.532-2.228-3.786-3.351
				c1.271-1.308,2.556-2.592,3.828-3.889c5.084-5.214,10.209-10.28,15.752-14.999c1.493-1.272,3.047-2.574,4.617-3.739
				c2.616-1.941,5.197-3.787,7.938-5.567c2.903-1.9,6.01-3.62,9.109-5.227C606.39-57.835,610.069-54.221,613.743-50.595z
				 M420.47-43.254c0.263,0.627,0.525,1.26,0.776,1.899c-1.332,1.027-2.616,2.084-3.847,3.142c-3.017,2.568-5.968,5.143-8.889,7.813
				c-3.351,3.052-6.666,6.152-10.07,9.139c-0.341-2.258-0.872-4.48-1.56-6.667c3.44-3.022,6.571-6.373,9.797-9.611
				c2.682-2.706,5.208-5.633,7.92-8.309c1.094-1.069,2.163-2.132,3.244-3.178C418.773-47.107,419.651-45.184,420.47-43.254z
				 M544.458-38.422c4.349,3.973,8.709,7.915,13.105,11.833c-0.19,0.197-0.37,0.394-0.556,0.597c-0.06,0.06-0.107,0.131-0.148,0.203
				c-0.615-0.615-1.237-1.225-1.853-1.828c-5.453-5.364-10.877-10.758-16.241-16.027C540.594-41.952,542.522-40.184,544.458-38.422z
				 M423.701-34.682c0.688,1.935,1.344,4.104,1.834,6.104c0.245,0.998,0.537,2.001,0.788,2.999c0.149,0.621,0.299,1.254,0.437,1.899
				c-0.036,0.018-0.072,0.042-0.107,0.066c-1.589,0.968-3.154,1.989-4.719,2.993c-2.706,1.756-5.239,3.458-7.622,5.633
				c-3.739,3.405-6.213,6.959-8.471,11.403c-0.245,0.483-0.054,1.069,0.418,1.302c0.479,0.239,1.069,0.036,1.314-0.448
				c2.473-5.4,6.577-9.91,11.361-13.41c2.616-1.917,5.495-3.542,8.285-5.245c0.125,0.687,0.245,1.374,0.364,2.055
				c0.46,2.748,0.914,5.645,1.081,8.435c0.084,1.523,0.161,3.064,0.209,4.6c-2.072,2.162-4.044,4.432-5.938,6.72
				c-1.744,2.091-3.548,4.134-5.316,6.207c-1.672,1.971-3.429,3.871-5.262,5.692c-0.568,0.562-1.165,1.207-1.774,1.72
				c-1.314,1.117-2.539,2.228-3.906,3.297c-0.735,0.567-1.763,1.284-2.562,1.756c-0.711,0.424-1.5,0.818-2.187,1.266
				c-0.191,0.114-0.269,0.371-0.155,0.567c0.107,0.197,0.364,0.263,0.562,0.149c0.8-0.52,1.696-0.95,2.503-1.463
				c1.469-0.956,3.159-2.121,4.491-3.261c1.452-1.237,2.886-2.491,4.271-3.817c0.609-0.585,1.194-1.213,1.804-1.792
				c1.063-1.021,2.133-2.187,3.142-3.273c1.948-2.109,3.931-4.211,5.902-6.302c1.445-1.541,2.933-3.094,4.468-4.599
				c-0.006,1.959-0.078,3.906-0.263,5.866c-0.454,4.569-1.183,8.888-2.438,13.237c-1.69,3.458-3.56,6.738-5.675,9.856
				c-0.089-0.281-0.286-0.526-0.567-0.645c-0.537-0.239-1.188,0.006-1.434,0.543c-1.421,3.554-3.93,7.162-6.648,10.131
				c-2.013,1.625-4.133,3.172-6.373,4.695c-1.523,1.021-3.285,2.085-4.904,2.933c-2.861,1.481-5.609,2.939-8.607,4.14
				c-2.873,1.147-5.657,2.108-8.524,2.951c0.43-0.472,0.854-0.938,1.278-1.398c4.647-5.131,9.527-9.939,14.586-14.658
				c2.629-2.449,5.37-4.869,7.939-7.359c2.496-2.437,4.808-5.018,7.03-7.706c1.146-1.392,2.216-2.855,3.369-4.235
				c-2.855,2.108-5.734,4.181-8.513,6.385c-4.432,3.53-8.506,7.532-12.621,11.427c-6.362,6.009-12.419,12.197-18.034,18.899
				c-3.769,0.908-7.801,1.511-11.606,1.894c-8.429,0.836-16.899,0.532-25.136-0.968c0.544-0.752,1.087-1.517,1.649-2.252
				c2.867-3.876,5.645-7.819,8.506-11.696c4.749-6.421,9.653-12.538,15.101-18.368c0.245-0.274,0.502-0.549,0.765-0.824
				c2.825-0.442,5.615-1.212,8.417-2.33c1.852-0.741,3.542-1.714,5.274-2.67c0.591-0.49,1.589-0.992,2.27-1.5
				c1.236-0.896,2.819-2.013,3.889-3.07c0.71-0.717,1.463-1.35,2.15-2.09c2.748-2.969,4.761-5.89,6.373-9.587
				c0.406-0.92,0.849-1.983,1.123-2.951c0.556-1.953,1.021-3.757,1.29-5.776c0.395-3.004,0.406-6.015,0.013-9.289
				c0.006-0.006,0.012-0.012,0.023-0.018c3.68-3.22,7.335-6.463,11.003-9.701c3.996-3.537,8.046-6.87,12.306-10.036
				C422.536-37.979,423.116-36.331,423.701-34.682z M621.532-42.71l14.462,14.641c-5.072,3.871-9.803,8.279-14.146,12.884
				c-1.959,2.073-3.895,4.182-5.859,6.254c-3.704,3.9-7.27,7.986-11.069,11.803c-1.194,1.194-2.413,2.365-3.613,3.542
				c-3.095-2.652-6.194-5.31-9.295-7.98c0.556-0.501,1.105-1.015,1.655-1.529c2.293-2.163,4.575-4.361,6.869-6.535
				c5.292-5.018,10.626-10.178,16.421-14.61c1.051-0.807,2.096-1.649,3.172-2.401c1.66-1.153,3.303-2.264,5.011-3.357
				c0.933-0.598,1.941-1.129,2.903-1.69c0.807-0.478,1.081-1.529,0.621-2.33c-0.466-0.806-1.505-1.063-2.317-0.579
				c-1.583,0.896-3.112,1.941-4.617,2.957c-5.914,4.002-11.313,8.9-16.486,13.811c-3.185,3.022-6.261,6.165-9.45,9.175
				c-1.911,1.81-3.816,3.614-5.729,5.424c-2.545-2.198-5.095-4.39-7.646-6.583c2.927-2.975,5.836-5.973,8.739-8.966
				c9.121-9.42,18.457-18.087,30.344-23.81c0.03-0.024,0.061-0.042,0.09-0.06L621.532-42.71z M307.986-20.86
				c-1.989,0.788-3.68,1.87-5.215,3.178c-0.233-5.884,0.783-11.815,2.945-17.341C305.764-30.214,306.534-25.436,307.986-20.86z
				 M390.663-33.667c0.902,1.822,1.708,3.68,2.389,5.573c-0.245,0.203-0.484,0.406-0.729,0.609
				c-0.454,0.353-0.908,0.723-1.386,1.099c-0.024-2.634-0.221-5.263-0.573-7.867C390.472-34.055,390.567-33.858,390.663-33.667z
				 M435.75-25.053c-0.042,1.249-0.036,2.479-0.12,3.727c-0.209,2.987-0.4,6.188-0.932,9.146c-0.036,0.179-0.065,0.364-0.102,0.549
				c-0.514,0.406-1.039,0.824-1.511,1.254c-0.078,0.06-0.162,0.131-0.233,0.203c-0.161-2.359-0.353-4.701-0.693-7.031
				c-0.185-1.236-0.43-2.473-0.597-3.721c-0.132-0.944-0.358-1.941-0.567-2.903c1.051-0.705,2.138-1.47,3.076-2.252
				c0.567-0.49,1.141-0.974,1.726-1.428C435.791-26.696,435.773-25.877,435.75-25.053z M395.274-18.554
				c-0.592,0.484-1.177,0.979-1.75,1.487c-0.245,0.203-0.281,0.585-0.078,0.824c0.203,0.233,0.58,0.269,0.824,0.06
				c0.365-0.322,0.741-0.645,1.123-0.967c0.287,4.659-0.382,9.36-2.312,13.983c-0.86,2.061-2.132,4.301-3.524,6.051
				c-1.804,2.264-3.548,4.026-5.794,5.872l-3.996,2.795l-2.336,1.284l-3.088,1.398l0.645-0.448c0.998-0.8,1.941-1.667,2.891-2.616
				c0.09-0.102,0.191-0.191,1.075-1.445c0.066-0.054,0.144-0.108,0.227-0.167c0.048-0.036,0.096-0.083,0.024-0.167
				c1.613-1.523,3.088-3.602,4.044-5.388c0.442-0.836,0.908-1.696,1.356-2.527c0.532-0.979,1.242-2.509,1.589-3.548
				c0.299-0.902,0.723-1.774,0.992-2.641c0.185-0.603,0.364-1.207,0.525-1.798c0.92-2.628,1.637-5.334,2.133-7.843
				c0.561-2.861,0.914-5.788,1.039-8.745c0.006-0.006,0.012-0.012,0.024-0.012c1.003-0.771,2.007-1.535,2.999-2.336
				C394.569-23.178,395.035-20.872,395.274-18.554z M566.422-18.775c3.942,3.44,7.903,6.881,11.917,10.256
				c-0.424,0.43-0.836,0.848-1.254,1.272c-0.395,0.395-0.4,1.04-0.007,1.422c0.389,0.382,1.028,0.376,1.416-0.018
				c0.46-0.466,0.92-0.926,1.368-1.386c1.78,1.481,3.572,2.957,5.382,4.415c0.776,0.627,1.571,1.26,2.359,1.894
				c-0.203,0.185-0.406,0.37-0.604,0.562c-0.52,0.483-0.562,1.296-0.096,1.804c0.473,0.508,1.285,0.538,1.805,0.054
				c0.292-0.287,0.591-0.562,0.884-0.842c3.31,2.617,6.648,5.197,9.999,7.748c-0.048,0.316,0.042,0.651,0.281,0.902
				c0.311,0.329,0.807,0.406,1.206,0.227c3.417,2.575,6.852,5.119,10.305,7.64c-1.147,1.386-2.288,2.79-3.405,4.211
				c-0.406,0.502-0.334,1.26,0.167,1.655c0.502,0.406,1.255,0.311,1.667-0.191c1.129-1.445,2.288-2.879,3.471-4.295
				c2.222,1.607,4.462,3.214,6.708,4.815c0.191,0.149,0.495,0.113,0.645-0.084c0.155-0.203,0.12-0.501-0.071-0.645
				c-2.091-1.756-4.205-3.5-6.302-5.25c5.227-6.159,10.907-12.054,16.881-17.376c1.852-1.655,3.757-3.202,5.675-4.772
				c1.547-1.267,3.243-2.491,4.886-3.65c1.732-1.225,3.519-2.467,5.328-3.566c1.01-0.609,2.037-1.219,3.053-1.834l-0.013-0.012
				l8.453,8.56c-1.326,0.741-2.599,1.589-3.8,2.461c-1.021,0.735-2.084,1.416-3.058,2.222c-1.811,1.5-3.597,2.921-5.353,4.492
				c-4.552,4.08-8.691,8.715-12.783,13.243c-1.947,2.145-3.835,4.349-5.776,6.493c-1.696,1.87-3.422,3.721-5.101,5.609
				c-0.448,0.496-0.418,1.254,0.06,1.696c0.484,0.43,1.255,0.394,1.696-0.102c1.702-1.87,3.429-3.727,5.138-5.591
				c2.216-2.413,4.372-4.874,6.63-7.251c4.032-4.241,8.028-8.458,12.532-12.209c2.712-2.252,5.782-4.665,8.828-6.439
				c1.153-0.681,2.39-1.35,3.537-2.055l-0.013-0.006l10.514,10.645l-0.03,0.239l-0.023-0.131l-0.024,0.52l-0.042,0.323
				c-0.023,0.305-0.035,0.609-0.048,0.902c-8.912,6.894-17.358,14.271-25.799,21.785c-2.568,2.282-5.143,4.563-7.729,6.827
				c-1.326,1.165-2.718,2.312-4.002,3.519c-0.221,0.185-0.334,0.46-0.34,0.734c-0.711-0.149-1.416-0.316-2.133-0.483
				c-2.079-0.496-4.569-1.505-6.493-2.425c-6.547-3.136-11.499-7.258-16.08-12.688c-0.627-0.681-1.481-1.589-2.342-2.503
				c-0.591-0.782-1.152-1.607-1.732-2.395l-0.292,0.215c0.023,0.036,0.054,0.072,0.077,0.107
				c-7.389-7.807-14.934-15.435-22.495-23.093c-7.945-8.034-15.919-16.026-23.953-23.965c0.077-0.042,0.149-0.107,0.221-0.167
				c0.191-0.209,0.395-0.43,0.598-0.651C561.404-23.172,563.907-20.974,566.422-18.775z M638.395-25.639l8.829,8.93
				c-1.351,0.836-2.706,1.81-3.954,2.724c-2.922,2.133-5.688,4.295-8.44,6.637c-1.374,1.165-2.671,2.401-4.009,3.608
				c-3.912,3.518-7.854,7.574-11.337,11.528c-1.309,1.487-2.683,2.939-3.96,4.45c-1.027,1.218-2.049,2.425-3.07,3.649
				c-1.828-1.529-3.65-3.058-5.454-4.599c-1.35-1.159-2.694-2.306-4.044-3.465c0.341-0.316,0.687-0.639,1.021-0.967
				c0.795-0.771,1.571-1.571,2.365-2.348c2.413-2.354,4.767-4.91,7.103-7.347c5.173-5.4,10.292-10.71,15.823-15.728
				c1.702-1.553,3.524-3.01,5.311-4.456c1.194-0.974,2.437-1.875,3.691-2.748L638.395-25.639z M312.645-10.556
				c1.416,2.342,2.963,4.48,4.671,6.434c0.036,0.071,0.078,0.143,0.119,0.215c-2.867,2.049-5.483,4.277-7.915,6.702
				c-2.24-3.482-3.978-6.726-5.185-10.866c-0.663-2.264-1.117-4.575-1.368-6.899c0.042-0.042,0.09-0.084,0.137-0.12
				c0.711-0.681,1.542-1.236,2.312-1.834c0.758-0.591,2.156-1.29,3.321-1.738C309.784-15.849,311.08-13.137,312.645-10.556z
				 M300.848-4.254c0.92,2.634,2.324,5.639,3.907,7.921c0.58,0.842,1.141,1.589,1.744,2.341c-0.687,0.783-1.362,1.583-2.031,2.414
				c-0.938,1.165-1.941,2.467-2.754,3.721c-0.275,0.382-0.191,0.932,0.191,1.201c0.376,0.263,0.926,0.161,1.2-0.215
				c0.622-0.956,1.398-1.989,2.109-2.885c0.794-1.003,1.589-1.965,2.407-2.897c2.813,3.208,6.433,5.478,10.196,7.437
				c-3.004,3.059-5.663,6.458-8.369,10.137c-1.995,2.7-4.008,5.454-5.938,8.202c-0.292,0.406-0.203,0.974,0.197,1.26
				c0.395,0.281,0.962,0.179,1.254-0.221c1.87-2.67,3.829-5.286,5.734-7.926c4.82-6.678,9.892-12.61,16.917-16.935
				c0.251-0.167,0.406-0.424,0.448-0.705c6.2,5.31,14.007,9.443,22.095,10.931c-5.771,5.836-11.355,11.899-16.48,18.32
				c-2.658,3.321-5.287,6.702-7.658,10.232c-1.416-0.556-2.813-1.159-4.193-1.792c-3.458-1.607-7.079-3.512-10.214-5.675
				c-1.631-1.123-3.16-2.246-4.749-3.411c-1.177-0.866-2.234-1.84-3.351-2.777c-1.463-1.237-3.034-2.742-4.325-4.092
				c-0.878-1.254-1.738-2.503-2.556-3.769c-3.041-4.713-5.83-9.611-8.231-14.688c-1.027-2.163-2.115-4.409-2.969-6.643
				c-0.024-0.065-0.054-0.131-0.078-0.197c0.418-0.251,0.83-0.501,1.254-0.776c0.263-0.167,0.591-0.46,0.842-0.669
				c1.601-1.29,2.76-2.515,4.146-4.02c0.908-0.992,1.828-2.294,2.622-3.399c1.487-2.067,2.927-4.193,4.45-6.236
				c0.137-0.185,0.269-0.364,0.412-0.543C299.552-8.4,300.083-6.422,300.848-4.254z M433.014-3.448
				c-0.006,0.024-0.012,0.048-0.023,0.078c0.048-1.278,0.065-2.545,0.029-3.811c0.322-0.263,0.64-0.526,0.962-0.789
				C433.694-6.452,433.349-4.953,433.014-3.448z M318.564-2.086c1.673,2.64,3.919,5.263,6.087,7.491
				c0.711,0.729,1.452,1.445,2.222,2.145c-0.102,0.03-0.185,0.065-0.269,0.119c-2.867,1.786-5.37,3.787-7.652,5.979
				c-0.03-0.036-0.072-0.072-0.108-0.096c-1.099-1.003-2.174-1.971-3.25-3.01c-1.804-1.738-3.697-4.164-5.113-6.278
				c2.389-2.413,4.952-4.623,7.849-6.72C318.416-2.331,318.487-2.211,318.564-2.086z M381.046-2.653l-0.376,0.812
				c-1.117,2.049-2.276,3.769-3.667,5.639c-0.657,0.89-1.47,1.625-2.156,2.455l-2.461,2.324l-3.757,2.592
				c-0.191,0.125-0.537,0.251-0.747,0.358c-1.392,0.681-2.61,1.171-4.104,1.577c-1.41,0.388-2.832,0.639-4.277,0.776
				c1.439-1.177,2.969-2.335,4.283-3.602c0.591-0.573,1.111-1.177,1.625-1.786c0.555-0.209,1.093-0.43,1.625-0.681
				c2.103-1.016,4.343-2.073,6.236-3.453c0.681-0.502,1.41-0.932,2.061-1.452c1.165-0.926,2.39-1.971,3.524-3.094L381.046-2.653z
				 M358.825,11.342c-0.974,0.86-1.948,1.738-2.915,2.628c-4.265-0.173-8.506-1.272-12.365-2.927l-0.938-0.49l2.282,0.46
				c1.852,0.245,3.715,0.358,5.549,0.334c2.073-0.03,4.032-0.221,6.087-0.508c1.194-0.167,2.461-0.382,3.667-0.693
				C359.715,10.542,359.267,10.948,358.825,11.342z M384.48,17.626c-3.136,2.903-6.326,5.782-9.432,8.709
				c-5.883,5.556-12,11.266-16.038,18.374c-0.358,0.574-0.185,1.338,0.382,1.685c0.567,0.347,1.332,0.155,1.69-0.418
				c0.639-1.159,1.481-2.431,2.27-3.494c3.883-5.275,8.16-9.695,13.058-14.08c3.196-2.861,6.343-5.794,9.498-8.703
				c1.463-1.356,2.867-2.843,4.295-4.241c0.49-0.496,0.501-1.296,0.023-1.786c-0.483-0.484-1.29-0.478-1.78,0.012
				C387.103,14.974,385.842,16.366,384.48,17.626z M359.375,20.003l1.171-0.233l2.581,0.078c0.269-0.012,0.543-0.024,0.818-0.036
				c-0.729,0.818-1.434,1.648-2.127,2.491c-7.956,9.569-15.005,19.766-22.292,29.819c-4.098-0.854-8.124-2.013-12.042-3.482
				c2.425-3.518,5.053-6.792,7.759-10.155c1.553-1.947,3.351-4.056,5.071-5.848c1.47-1.541,2.891-3.154,4.361-4.707
				c2.401-2.515,4.88-4.928,7.389-7.341c0.233-0.227,0.466-0.454,0.705-0.675C354.966,20.153,357.182,20.195,359.375,20.003z
				 M658.979,32.506c-4.665,3.297-9.479,6.344-14.078,9.736c-0.496,0.353-0.992,0.723-1.482,1.105
				c-0.311,0.03-0.621,0.066-0.92,0.096c-0.77,0.066-1.798,0.03-2.58,0.018c-1.518-0.03-2.969-0.191-4.408-0.436
				c1.505-1.368,3.101-2.682,4.629-4.02c4.164-3.662,8.393-7.258,12.61-10.86c4.241-3.625,8.548-7.102,12.944-10.525
				c1.475-1.153,2.969-2.306,4.485-3.44C667.688,20.995,663.704,26.975,658.979,32.506z M425.81,27.757l-0.018,0.054
				c-0.006,0.006-0.012,0.012-0.012,0.018L425.81,27.757z M322.692,53.956l0.585,0.322c2.79,1.267,5.621,2.527,8.554,3.375
				c0.974,0.281,1.941,0.609,2.909,0.896c1.207,0.353,2.461,0.639,3.68,0.968c1.105,0.292,2.276,0.442,3.375,0.735
				c0.747,0.191,1.535,0.287,2.288,0.418c2.718,0.49,5.394,0.759,8.142,0.992c6.242,0.532,12.699,0.161,19.013-0.807l0.699-0.137
				l-2.192,0.448c-3.255,0.49-6.654,1.105-9.939,1.194c-2.055,0.06-4.056,0.149-6.111,0.138c-1.792-0.006-3.572-0.186-5.346-0.305
				c-6.881-0.478-14.073-2.3-20.453-5.316L322.692,53.956z M374.296,60.162l-0.944,0.269h-0.024L374.296,60.162z M373.328,60.431
				l-0.741,0.215c-0.454,0.072-0.896,0.149-1.35,0.209L373.328,60.431z"/>
		</g>
	</g>
</g>
</svg>
