<?xml version="1.0" encoding="utf-8"?>
<!-- Generator: Adobe Illustrator 16.0.0, SVG Export Plug-In . SVG Version: 6.00 Build 0)  -->
<!DOCTYPE svg PUBLIC "-//W3C//DTD SVG 1.1//EN" "http://www.w3.org/Graphics/SVG/1.1/DTD/svg11.dtd">
<svg version="1.1" id="Layer_1" xmlns="http://www.w3.org/2000/svg" xmlns:xlink="http://www.w3.org/1999/xlink" x="0px" y="0px"
	 width="440.148px" height="391.837px" viewBox="260.387 31.732 440.148 391.837"
	 enable-background="new 260.387 31.732 440.148 391.837" xml:space="preserve">
<g transform="scale(1 -1)">
	<g transform="translate(0 -75)">
		<g>
			<path marker-start="none" marker-end="none" d="M459.303-348.288c-5.621,0.137-11.272,0.292-16.887,0.573
				c-0.257,0.006-0.466,0.227-0.46,0.483s0.227,0.467,0.483,0.46c4.881-0.227,9.814-0.394,14.736-0.478
				c-3.691,0.335-7.383,0.729-11.062,1.177c-3.31,0.4-6.762,0.759-9.999,1.248c-1.595,0.155-3.19,0.4-4.791,0.532
				c-2.652,0.215-5.34,0.448-7.986,0.734c-5.221,0.573-10.334,1.081-15.34,2.79c-1.63,0.556-3.201,1.087-4.79,1.768
				c-0.525,0.228-1.052,0.412-1.554,0.693c-1.779,0.997-3.918,2.371-5.34,3.841c-0.227,0.197-0.245,0.55-0.048,0.776
				s0.55,0.245,0.776,0.048c1.362-1.296,3.022-2.246,4.779-2.939c0.376-0.148,0.746-0.358,1.11-0.531
				c0.598-0.28,1.303-0.508,1.924-0.74c2.67-0.998,6.38-1.619,9.223-1.924c2.145-0.227,4.283-0.627,6.445-0.849
				c0.155-0.018,0.311-0.035,0.472-0.047c-2.783,0.562-5.555,1.212-8.297,1.977c-8.052,2.24-15.728,4.94-23.284,8.106
				c0.806-0.873,1.613-1.745,2.425-2.61c0.227-0.239,0.209-0.628-0.03-0.854c-0.239-0.228-0.627-0.209-0.854,0.029
				c-1.487,1.554-2.993,3.106-4.468,4.689c-3.596,1.565-7.168,3.237-10.752,5.018c-2.431,1.2-4.826,2.419-7.216,3.668
				c-3.584,1.332-7.061,2.891-10.453,4.778c-4.462,2.479-8.291,5.358-12.353,8.41c-0.119,0.084-0.239,0.174-0.316,0.239
				c-1.23,0.807-2.425,1.589-3.614,2.371c-3.751,2.461-7.509,5-11.182,7.568c1.619-0.311,3.01-1.225,4.456-1.971
				c0.675-0.353,1.35-0.705,2.031-1.063c-0.245,0.209-0.484,0.424-0.717,0.639c-2.616,2.336-5.274,4.713-7.735,7.216
				c-3.273,3.327-6.535,6.565-9.653,10.054c-0.836,0.926-1.661,1.863-2.354,2.861c-0.382,0.299-0.699,0.656-1.01,1.021
				c-1.379,1.57-2.753,3.184-4.085,4.826c-0.538,0.585-1.075,1.177-1.601,1.774c-2.413,2.724-4.772,5.633-6.989,8.523
				c-2.521,3.285-4.964,6.624-7.072,10.167c0.089-0.144,0.167-0.293,0.251-0.442c1.045-1.983,2.138-3.942,3.178-5.932
				c0.884-1.696,1.768-3.398,2.7-5.065c0.43-0.675,0.239-1.583-0.436-2.013c-0.675-0.431-1.583-0.239-2.013,0.436
				c-1.834,2.348-3.662,4.773-5.334,7.264c-3.041,3.488-6.045,7.222-8.703,10.955c-1.23,1.721-2.479,3.429-3.649,5.191
				c-5.525,8.351-10.143,17.483-12.819,27.161c-2.509,9.061-3.632,18.272-3.77,27.662c-0.054,3.464,0.06,6.929,0.233,10.375
				c-1.326,4.856-2.192,9.802-2.85,14.736c-0.484,3.548-0.896,7.06-1.29,10.621c-0.173,1.571-0.233,3.166-0.347,4.743
				c-0.167,2.312-0.287,4.624-0.37,6.941c-0.155,4.211-0.371,8.476-0.209,12.688c0.143,3.745,0.43,7.377,0.836,11.104
				c0.227,2.073,0.544,4.133,0.783,6.2c0.34-5.71,0.902-11.397,1.135-17.125c0.138-3.351,0.144-6.714,0.281-10.059
				c0.209-5.054,0.502-10.047,0.878-15.089c0.162-2.162,0.317-4.336,0.508-6.505c0.03,1.971,0.096,3.931,0.203,5.902
				c-0.675,6.385-1.117,12.825-1.194,19.186c-0.048,3.811,0.012,7.586,0.119,11.391c0.006,0.389,0.341,0.699,0.729,0.693
				c0.102-0.006,0.197-0.03,0.281-0.071c-0.395,2.073-0.794,4.146-1.225,6.206c-0.102,0.508,0.227,1.016,0.735,1.117
				c0.507,0.102,1.015-0.227,1.117-0.735c0.609-3.124,1.35-6.2,2.192-9.265c0.113,2.658,0.269,5.304,0.466,7.951
				c-0.144,2.425-0.251,4.85-0.322,7.275c0,0.137,0.113,0.263,0.25,0.263c0.138,0,0.263-0.113,0.263-0.251
				c0.03-1.051,0.078-2.096,0.143-3.136c0.43,4.898,0.979,9.79,1.643,14.641c0.036,0.329,0.341,0.562,0.669,0.526
				c0.102-0.012,0.197-0.054,0.281-0.114c0.281,2.425,0.598,4.851,0.956,7.275c0.353,2.449,0.734,4.88,1.153,7.3
				c-0.926-2.15-1.804-4.325-2.652-6.529c-0.143-0.376-0.579-0.561-0.956-0.418c-0.376,0.144-0.562,0.58-0.418,0.956
				c1.129,2.921,2.27,5.842,3.548,8.703c0.543,1.224,1.111,2.437,1.69,3.644c0.072,0.316,0.138,0.639,0.209,0.962
				c1.219,5.603,2.628,11.218,4.146,16.749c0.914,3.321,1.738,6.732,2.963,9.952c1.069,2.813,2.407,5.478,3.733,8.177
				c0.036,0.125,0.173,0.203,0.299,0.167c0.125-0.036,0.203-0.173,0.167-0.299c-0.418-3.25-0.8-6.451-1.493-9.659
				c-0.454-2.091-1.075-4.092-1.637-6.153c-0.633-2.341-1.291-4.689-1.894-7.037c-0.102-0.394-0.203-0.782-0.305-1.177
				c0.597,1.494,1.159,3.053,1.828,4.51c0.759,1.648,1.476,3.303,2.246,4.946c0.567,1.212,1.177,2.431,1.816,3.649
				c0.717,1.685,1.47,3.357,2.258,5c1.864,3.906,3.835,7.467,6.063,11.17c1.063,1.762,2.33,3.387,3.519,5.06
				c1.792,2.521,4.026,4.641,6.165,6.852c1.929,1.989,4.127,3.285,6.618,4.426c0.066,0.03,0.138,0.054,0.203,0.078
				c0.155,0.149,0.305,0.298,0.46,0.454c1.888,1.882,3.907,3.686,5.932,5.418c4.545,3.889,9.133,7.628,14.001,11.104
				c2.15,1.535,4.325,2.999,6.511,4.444c0.173,0.132,0.334,0.263,0.502,0.395c1.75,1.38,3.53,2.825,5.322,4.134
				c1.183,0.86,2.383,1.708,3.554,2.58c2.557,1.899,5.358,3.62,8.052,5.322c3.088,1.947,6.272,3.77,9.504,5.478
				c-0.568-0.239-1.153-0.49-1.727-0.741c-2.503-1.093-5.018-2.18-7.473-3.375c-4.569-2.228-9.199-4.366-13.625-6.881
				c-1.284-0.729-2.604-1.421-3.895-2.144c-1.732-0.968-3.447-2.007-5.167-3.005c0.508,0.866,2.999,2.431,3.93,3.118
				c3.554,2.616,7.371,5.06,11.128,7.365c14.151,8.691,29.813,14.879,45.905,18.906c4.253,1.063,8.661,2.144,12.986,2.867
				c2.646,0.442,5.28,0.968,7.938,1.38c4.205,0.645,8.41,1.105,12.615,1.69c3.214,0.448,6.589,0.687,9.82,0.985
				c2.754,0.251,5.508,0.484,8.267,0.699c2.641,0.418,5.316,0.842,7.975,1.099c1.249,0.12,2.497,0.233,3.745,0.365
				c3.304,0.352,6.756,0.525,10.077,0.621c3.477,0.096,6.953,0.131,10.46,0.083c0.89,0.06,1.81,0.131,2.724,0.203
				c1.087,0.083,2.503,0.233,3.607,0.203c2.515-0.072,4.97-0.083,7.479-0.406c1.589-0.203,3.172-0.376,4.755-0.604
				c1.111-0.155,2.223-0.388,3.327-0.537c0.592-0.078,1.225-0.233,1.816-0.347c1.457-0.281,2.944-0.609,4.39-0.884
				c2.259-0.347,4.492-0.717,6.715-1.1c3.124-0.543,6.229-1.272,9.336-1.905c3.728-0.759,7.377-1.864,11.068-2.742
				c2.766-0.657,5.585-1.559,8.31-2.389c3.423-1.04,6.833-2.139,10.196-3.363c3.369-1.23,6.689-2.604,10.005-3.996
				c-0.292,0.382-0.347,0.92-0.102,1.374c0.329,0.609,1.1,0.83,1.709,0.501c4.85-2.753,9.796-5.37,14.664-8.105
				c1.016-0.574,2.025-1.165,3.041-1.756c0,0.131,0.029,0.263,0.089,0.388c0.233,0.526,0.854,0.765,1.38,0.532
				c3.011-1.356,5.979-2.7,8.96-4.134c1.995-0.961,3.996-2.061,5.938-3.13c1.727-0.956,3.459-1.947,5.186-2.98
				c5.089-2.354,10.095-4.785,15.082-7.389c5.525-2.897,10.842-5.985,15.919-9.545c0.012,0.083,0.03,0.161,0.06,0.239
				c-0.866,0.944-1.75,1.906-2.551,2.874c-0.125,0.137-0.119,0.358,0.019,0.484s0.358,0.119,0.483-0.018
				c0.837-0.89,1.709-1.78,2.581-2.658c0.508,0.316,1.183,0.245,1.618-0.191c2.145-2.252,4.385-4.444,6.481-6.744
				c2.145-2.359,4.301-4.707,6.403-7.108c1.792-2.049,3.555-4.133,5.28-6.242c0.395-0.418,0.782-0.836,1.171-1.248
				c5.824-6.308,11.582-12.676,16.743-19.539c5.52-7.341,10.782-15.339,14.276-23.863c0.95-2.318,1.936-4.624,2.67-7.025
				c0.347-1.129,0.735-2.252,1.058-3.387c0.544-1.947,1.051-3.937,1.481-5.914c0.274-0.86,0.531-1.69,0.788-2.533
				c1.261-4.188,2.062-8.38,2.855-12.657c0.006-0.048,0.012-0.09,0.018-0.132c0.574-1.601,1.021-3.237,1.446-4.88
				c0.035,0,0.071,0,0.107,0c0.932-0.066,1.637-0.878,1.57-1.81c-0.035-1.607-0.047-3.214-0.071-4.82
				c0.633-2.832,1.213-5.747,1.583-8.596c0.699-5.382,0.788-10.674,0.418-16.086c-0.107-1.559-0.347-3.124-0.43-4.683
				c0.006-0.298-0.239-0.555-0.538-0.562c-0.299-0.006-0.556,0.239-0.562,0.538c-0.549,3.321-1.123,6.648-1.727,9.964
				c-0.041-1.016-0.089-2.037-0.137-3.059c0.09-0.908,0.167-1.822,0.274-2.724c0.155-1.38,0.132-2.748,0.167-4.134
				c0.042-1.654,0.03-3.243,0-4.898c-0.173-8.763-1.332-17.376-3.147-25.942c-0.663-3.118-1.41-6.224-2.24-9.306
				c-0.251-1.117-0.508-2.228-0.771-3.333c1.936-1.332,3.877-2.658,5.824-3.984c0.263-0.179,0.328-0.556,0.149-0.818
				c-0.18-0.263-0.556-0.329-0.818-0.149c-1.822,1.242-3.638,2.485-5.454,3.733c-1.075-4.325-2.3-8.614-3.691-12.878
				c0.107-0.084,0.215-0.167,0.329-0.245c0.376-0.287,0.447-0.836,0.161-1.212c-0.287-0.376-0.836-0.448-1.213-0.162
				c-0.018,0.006-0.029,0.018-0.042,0.024c-0.215-1.338-0.669-2.646-1.141-3.948c0.09,0,0.186-0.018,0.28-0.042
				c0.604-0.179,0.944-0.83,0.765-1.434c-0.704-2.867-1.528-5.591-2.401-8.398c-0.244-0.782-0.555-1.56-0.83-2.335
				c-0.979-2.754-2.084-5.4-3.291-8.017c0.472-0.347,0.949-0.692,1.428-1.021c0.293-0.215,0.353-0.646,0.138-0.938
				c-0.216-0.293-0.646-0.353-0.938-0.138c-0.406,0.281-0.807,0.573-1.2,0.878c-0.592-1.248-1.207-2.491-1.834-3.733
				c-1.033-2.031-2.108-4.056-3.202-6.015c-1.284-2.683-2.622-5.28-4.104-7.825c-2.76-4.737-5.752-9.175-8.966-13.613
				c-1.547-2.133-3.333-4.271-5.023-6.302c-2.61-3.137-5.257-6.152-8.011-9.163c-0.681-0.747-1.367-1.481-2.061-2.217
				c-0.012-0.012-0.018-0.018-0.023-0.029c0.023-1.589-0.18-4.056-0.442-6.517c5.556,5.698,10.8,11.701,15.656,17.955
				c3.154,4.062,5.955,8.285,8.96,12.442c1.888,2.617,3.805,5.215,5.734,7.802c0.173,0.28,0.55,0.37,0.83,0.197
				c0.281-0.174,0.37-0.55,0.197-0.831c-1.648-3.333-3.297-6.499-5.269-9.658c-1.923-3.082-4.175-6.051-6.338-8.973
				c-3.96-5.346-8.201-10.387-12.669-15.321c-1.159-1.278-2.33-2.532-7.515-7.042c0-0.048-0.006-0.096-0.012-0.144
				c-0.113-0.872-0.12-1.738-0.896-2.324c-0.43-0.328-0.914-0.46-1.374-0.436c-10.166-9.504-21.516-17.812-33.521-24.754
				c-3.501-2.024-7.181-4.008-10.878-5.764c-2.933-1.96-5.913-3.854-8.924-5.687c-0.197-0.12-0.46-0.061-0.58,0.137
				c-0.119,0.197-0.06,0.46,0.138,0.58c1.41,0.854,2.802,1.726,4.182,2.61c-1.046-0.467-2.091-0.933-3.148-1.351
				c-2.395-0.949-4.784-1.869-7.18-2.795c-1.631-0.628-3.398-1.201-5.071-1.715c-3.841-1.183-7.676-2.329-11.582-3.256
				c-12.496-5.023-25.494-8.769-38.904-11.074c-3.357-0.579-6.732-0.968-10.107-1.397c-2.766-0.358-5.549-0.646-8.44-0.538
				c-0.251-0.06-0.508-0.089-0.758-0.119c-7.031-0.824-13.966-1.23-20.919-1.267c-0.06-0.006-0.113-0.006-0.167-0.006
				C477.796-348.683,468.543-348.516,459.303-348.288z M493.655-345.23c5.932,0.281,11.839,0.765,17.836,1.387
				c-9.205-1.332-18.38-1.828-27.566-1.811C487.18-345.547,490.43-345.386,493.655-345.23z M486.756-340.344
				c-1.756,0.801-3.764,2.019-5.382,3.053c-5.771,3.655-10.955,7.514-16.038,12.107c-9.642,8.703-17.95,18.445-26.211,28.434
				c-0.854,1.027-1.715,2.061-2.569,3.1c-3.673,0.556-7.347,1.225-11.032,1.972c-1.828,0.364-3.638,0.771-5.448,1.2
				c5.782-7.395,11.773-14.629,18.184-21.492c3.542-3.799,7.216-7.413,10.984-10.979c2.02-1.912,4.182-3.775,6.313-5.556
				c2.294-1.911,4.6-3.811,7.001-5.591c3.059-2.264,6.165-4.468,9.271-6.672c2.271-0.03,4.54-0.03,6.828,0
				C481.35-340.744,484.05-340.679,486.756-340.344z M469.135-340.242c-4.176,2.735-8.124,5.663-11.982,8.828
				c-2.551,2.091-4.929,4.283-7.401,6.451c-3.5,3.064-6.81,6.571-10.047,9.916c-2.503,2.581-4.94,5.299-7.288,8.022
				c-4.79,5.549-9.366,11.17-13.846,16.91c-4.73,1.177-9.414,2.551-14.05,4.038c-0.913,0.287-1.827,0.579-2.735,0.884
				c2.24-2.676,4.504-5.34,6.786-7.992c2.729-3.172,5.572-6.277,8.386-9.378c5.4-5.955,11.152-11.588,16.846-17.263
				c1.588-1.583,3.267-3.082,4.892-4.63c2.616-2.484,5.358-4.928,8.105-7.27c2.921-2.49,5.92-4.886,8.812-7.406
				c0.388-0.341,0.771-0.688,1.152-1.04c4.373-0.292,8.745-0.478,13.142-0.567C469.643-340.577,469.386-340.409,469.135-340.242z
				 M498.397-339.985c-1.027,0.669-2.066,1.32-3.094,1.983c-1.93,1.23-3.733,2.652-5.597,3.972c-2.163,1.529-4.45,3.375-6.464,5.107
				c-2.808,2.413-5.608,4.832-8.267,7.413c-2.915,2.831-5.711,5.687-8.566,8.571c-3.142,3.178-6.057,6.625-9.043,9.94
				c-2.3,2.544-4.558,5.16-6.792,7.789c-4.247,0.28-8.458,0.746-12.663,1.355c0.591-0.705,1.183-1.409,1.78-2.103
				c3.805-4.468,7.514-8.882,11.462-13.225c2.491-2.742,5.072-5.388,7.694-8.005c1.995-1.988,4.104-4.056,6.248-5.871
				c0.991-0.843,1.936-1.732,2.938-2.562c4.839-4.021,9.904-7.879,15.316-11.081c1.392-0.824,2.854-1.685,4.307-2.396
				c0.37-0.197,0.514-0.663,0.316-1.033c-0.113-0.215-0.316-0.353-0.598-0.185C494.359-340.248,496.379-340.129,498.397-339.985z
				 M419.46-339.752c0.06-0.024,0.12-0.036,0.18-0.048c0.531-0.132,1.069-0.251,1.618-0.305
				C420.589-339.997,419.926-339.872,419.46-339.752z M449.733-335.696c-4.182,3.393-8.387,7.126-12.287,10.842
				c-3.901,3.721-7.742,7.406-11.481,11.301c-8.828,9.199-17.089,18.858-25.159,28.685c-1.84,0.621-3.68,1.272-5.483,1.959
				c-4.504,1.702-8.9,3.44-13.315,5.364c2.64-3.68,5.436-7.246,8.357-10.734c4.545-5.436,9.42-10.495,14.324-15.597
				c3.565-3.709,7.383-7.239,11.057-10.841c5.74-5.627,11.528-11.225,17.347-16.768c0.196-0.186,0.209-0.508,0.023-0.705
				s-0.508-0.209-0.705-0.023c-3.769,3.435-7.49,6.946-11.206,10.441c-4.324,4.067-8.631,8.195-12.765,12.46
				c-3.064,3.16-6.045,6.355-9.014,9.605c-6.529,7.138-12.706,14.604-18.243,22.525c-2.467,1.111-4.946,2.359-7.341,3.584
				c-3.363,1.721-6.696,3.465-9.969,5.352c-2.593,1.481-5.137,3.011-7.646,4.582c0.382-0.466,0.759-0.932,1.147-1.416
				c2.843-2.442,5.71-4.897,8.578-7.341c-1.476,0.633-2.849,1.947-4.151,2.896c-0.723,0.521-1.439,1.058-2.18,1.625
				c0.071-0.077,0.119-0.137,0.167-0.191c5.615-6.893,10.859-14.192,16.235-21.271c6.905-9.092,13.715-18.267,21.092-26.987
				c1.834-2.169,3.674-4.337,5.507-6.511c2.121-2.516,4.463-5,6.738-7.384c0.83-0.872,1.66-1.738,2.497-2.598
				c3.721-1.034,7.479-2.008,11.241-2.772c4.726-0.961,9.521-1.917,14.301-2.574c6.033-0.83,12.036-1.463,18.045-1.894
				C453.437-338.719,451.633-337.25,449.733-335.696z M418.188-339.394c0.425-0.162,0.849-0.27,1.272-0.358
				C418.57-339.573,418.032-339.418,418.188-339.394z M506.713-339.299c0.997,0.09,2.001,0.18,3.005,0.27
				c-4.904,2.741-9.528,5.758-13.924,9.282c-2.903,2.317-5.573,4.868-8.208,7.479c-2.843,2.819-5.698,5.8-8.291,8.847
				c-1.702,2.001-3.393,3.99-5.071,6.009c-2.628,3.166-5.101,6.499-7.55,9.803c-0.538,0.723-1.075,1.445-1.613,2.18
				c-2.168-0.083-4.36-0.083-6.505-0.065c-1.995,0.012-3.979,0.072-5.955,0.173c11.958-13.947,24.329-27.053,39.155-38.193
				c3.017-2.275,6.152-4.324,9.372-6.271C502.991-339.639,504.855-339.478,506.713-339.299z M512.734-338.725
				c2.766,0.305,5.519,0.633,8.278,0.974l-0.006,0.006c-3.028,0.203-6.116,0.502-9.073,0.943l0.012,0.155
				c2.892-0.43,5.83-0.729,8.799-0.926c-7.902,5.149-15.363,10.949-22.633,16.952c-9.683,7.986-18.912,16.57-27.824,25.405
				c-0.663-0.013-1.326-0.024-1.989-0.024c-0.305-0.023-0.608-0.042-0.907-0.06c-0.305-0.024-0.615-0.048-0.92-0.065
				c0.585-0.795,1.183-1.577,1.773-2.336c2.987-3.829,5.92-7.658,9.146-11.296c2.831-3.189,5.692-6.206,8.697-9.234
				c3.166-3.189,6.559-6.039,9.909-9.02c2.993-2.664,6.213-5.311,9.396-7.729c1.75-1.332,3.513-2.677,5.311-3.954
				C511.384-338.874,512.059-338.803,512.734-338.725z M524.985-337.262c2.754,0.341,5.501,0.735,8.249,1.159
				c-1.338,1.2-2.688,2.396-4.014,3.613c-4.522,4.122-9.092,8.208-13.638,12.317c-6.559,5.926-13.171,11.821-19.7,17.753
				c-1.959,1.78-4.014,3.667-6.045,5.352c-0.746,0.615-1.618,1.326-2.377,2.02c-0.776-0.019-1.547-0.03-2.306-0.024
				c-2.014,0-4.021,0.107-6.021,0.275c-0.388-0.03-0.776-0.054-1.159-0.072c-2.168-0.137-4.336-0.251-6.505-0.311
				c5.454-5.382,11.11-10.62,16.946-15.572c10.759-9.133,22.138-17.573,33.684-25.686c0.371-0.263,0.467-0.776,0.222-1.158
				C523.205-337.488,524.089-337.375,524.985-337.262z M557.396-334.012c-1.565-0.341-3.13-0.634-4.707-0.885
				c-0.245-0.113-0.49-0.227-0.734-0.334c0.029-0.102,0.06-0.209,0.083-0.316c0.013-0.09,0.024-0.18,0.024-0.27
				C553.824-335.267,555.61-334.663,557.396-334.012z M540.838-334.908c0.323,0.048,0.646,0.102,0.968,0.155
				c0.096,0.4,0.442,0.711,0.872,0.735c1.864,0.083,3.752,0.244,5.651,0.472c0.788,0.328,1.571,0.669,2.365,1.009
				c1.798,0.771,3.59,1.59,5.37,2.443c-3.883,2.139-7.407,4.887-10.824,7.693c-1.726,1.416-3.333,2.981-4.963,4.511
				c-1.32,1.236-2.623,2.526-3.865,3.841c-4.784,5.077-9.45,10.262-14.258,15.304c-0.18,0.185-0.174,0.489,0.012,0.669
				c0.185,0.179,0.489,0.173,0.669-0.013c4.217-4.42,8.374-8.941,12.675-13.278c1.082-1.093,2.192-2.156,3.279-3.243
				c5.699-5.699,11.773-10.943,18.906-14.694c3.195,1.57,6.355,3.249,9.468,4.993c-1.93,1.428-3.847,2.867-5.788,4.271
				c-2.928,2.114-5.818,4.521-8.59,6.839c-8.554,7.156-16.313,14.82-23.302,23.505c-0.992-0.137-1.983-0.269-2.975-0.388
				c-0.102-0.019-0.21-0.03-0.299-0.036c-0.759-0.161-1.512-0.311-2.265-0.46c-1.439-0.286-2.885-0.525-4.318-0.812
				c-2.467-0.495-5.137-0.932-7.634-1.248c-1.815-0.228-3.649-0.514-5.466-0.759c-0.173-0.023-0.346-0.048-0.514-0.071
				c1.063-0.544,2.085-1.117,3.143-1.696c2.347-1.297,4.694-3.106,6.821-4.737c5.065-3.883,9.527-8.739,13.822-13.434
				c5.878-6.422,11.421-12.963,17.663-19.043c0.191-0.18,0.197-0.496,0.018-0.688c-0.179-0.191-0.495-0.197-0.687-0.018
				c-0.818,0.746-1.655,1.481-2.479,2.222c-0.955,0.854-1.852,1.84-2.771,2.742c-1.553,1.522-3.111,3.309-4.558,4.945
				c-3.47,3.942-6.965,7.963-10.543,11.81c-2.442,2.628-5.089,5.37-7.783,7.729c-0.812,0.711-1.654,1.403-2.473,2.114
				c-1.374,1.201-3.022,2.342-4.528,3.375c-1.559,1.069-3.159,2.108-4.838,2.987c-0.956,0.495-1.953,0.932-2.903,1.428
				c-2.891-0.341-5.794-0.604-8.685-0.837c-1.954-0.161-3.942-0.311-5.926-0.406c0.322-0.274,0.645-0.537,0.949-0.788
				c1.799-1.506,3.536-3.118,5.305-4.665c5.06-4.421,10.053-8.973,15.07-13.458c6.213-5.556,12.473-11.104,18.625-16.708
				c1.715-1.564,3.471-3.195,5.232-4.694c0.197-0.174,0.4-0.353,0.598-0.526C537.004-335.518,538.921-335.213,540.838-334.908z
				 M409.574-331.378c-4.533,4.468-8.996,8.99-13.075,13.882c-2.037,2.443-4.05,4.851-6.027,7.348
				c-3.064,3.87-6.051,7.885-8.96,11.875c-4.349,5.961-8.739,11.893-13.105,17.842c-3.524,4.797-7.15,9.51-10.872,14.151
				c-0.681,0.531-1.362,1.069-2.031,1.601c-4.193,3.291-8.321,6.577-12.389,9.952c-5.292,3.93-10.382,8.129-15.256,12.681
				c-1.177,1.094-2.312,2.217-3.369,3.417c-0.054,0.03-0.06,0.036-0.066,0.042c-1.445,0.884-2.873,2.078-4.253,3.082
				c-1.23,0.89-2.455,1.786-3.679,2.682c5.848-8.941,11.755-17.842,17.729-26.694c9.551-14.169,19.527-28.308,30.147-41.7
				c5.483-6.917,11.11-13.685,16.911-20.309c0.932-0.437,1.864-0.866,2.807-1.285c0.418-0.137,0.836-0.274,1.255-0.405
				c0.113-0.042,0.191-0.144,0.215-0.257c3.554-1.583,7.162-3.077,10.8-4.421c-0.848,0.812-1.696,1.631-2.533,2.467
				c-4.36,4.319-8.602,8.948-12.651,13.554c-5.591,6.361-11.039,12.819-16.271,19.479c-8.237,10.482-16.266,21.146-23.78,32.166
				c-2.085,3.059-4.217,6.093-6.23,9.193l0.072,0.334l0.334-0.071c6.947-10.514,14.324-20.823,22.012-30.805
				c11.26-14.629,23.123-28.618,35.966-41.891c1.636-1.697,3.279-3.399,4.928-5.09c1.35-0.478,2.706-0.938,4.067-1.368
				c1.847-0.591,3.668-1.236,5.532-1.768c0.979-0.281,1.965-0.562,2.95-0.843C410.351-332.148,409.951-331.76,409.574-331.378z
				 M572.097-331.861c2.037,0.65,4.086,1.26,6.111,1.959c-0.108,0.311,0.041,0.657,0.346,0.794c1.87,0.735,3.77,1.703,5.567,2.593
				c4.534,2.246,8.841,4.814,13.094,7.551c2.992,1.923,5.89,3.972,8.757,6.122c-2.258-1.505-4.528-2.963-6.827-4.408
				c-9.217-5.812-18.811-10.877-28.762-15.137C570.974-332.214,571.535-332.041,572.097-331.861z M572.951-327.25
				c1.361,0.543,2.741,1.075,4.056,1.631c0.281,0.137,0.52,0.257,0.765,0.376c0.376,0.186,0.753,0.37,1.129,0.556
				c-0.991,0.663-1.959,1.374-2.915,2.091c-0.042-0.024-0.077-0.048-0.113-0.066c-1.541-0.938-3.112-1.881-4.695-2.789
				c0.233-0.316,0.448-0.64,0.688-0.979c-0.448-0.293-1.272-0.06-1.96,0.257c-0.639-0.358-1.278-0.711-1.911-1.052
				c-1.75-0.938-3.507-1.923-5.269-2.825c-0.884-0.454-1.768-0.896-2.67-1.332C564.505-330.272,568.854-328.875,572.951-327.25z
				 M594.323-323.254c2.133,0.991,4.218,2.055,6.261,3.147c1.637,1.136,3.237,2.276,4.844,3.447
				c0.615,0.447,1.236,0.907,1.811,1.451c-0.251-0.197-0.586-0.138-0.765,0.102c-0.167,0.209-0.167,0.508,0.083,0.693
				c-0.006-0.007-0.012-0.013-0.018-0.013c-3.703-2.544-7.389-5.137-11.266-7.419c-1.236-0.729-2.485-1.463-3.728-2.18
				c-1.146-0.663-2.342-1.249-3.488-1.912c-0.478-0.274-0.962-0.537-1.434-0.788C589.211-325.649,591.797-324.437,594.323-323.254z
				 M612.381-304.318c0.956,0.657,1.918,1.313,2.903,1.971c2.335,1.834,4.653,3.722,6.857,5.705
				c0.299,0.269,0.604,0.537,0.908,0.806c-0.216,0.096-0.431,0.191-0.646,0.293c-1.989-1.666-4.008-3.315-6.039-4.958
				c-4.08-3.303-8.429-6.242-12.717-9.252c-0.168-0.114-0.4-0.072-0.514,0.095c-0.114,0.168-0.072,0.4,0.095,0.514
				c1.052,0.741,2.115,1.476,3.172,2.211c-1.129,0.698-2.216,1.421-3.267,2.174c-1.966-1.38-3.943-2.76-5.926-4.115
				c0.018-0.036,0.042-0.072,0.071-0.102c-0.083-0.006-0.155-0.006-0.232-0.013c-1.339-0.913-2.683-1.821-4.026-2.711
				c-1.905-1.267-3.799-2.533-5.705-3.787c0.479-0.264,0.962-0.515,1.458-0.753c0.358-0.161,0.52-0.586,0.358-0.944
				s-0.585-0.52-0.943-0.358c-0.831,0.27-1.655,0.609-2.468,1.01c-0.687-0.448-1.38-0.896-2.072-1.332
				c-1.899-1.213-3.817-2.383-5.729-3.554c0.782-0.562,1.577-1.117,2.377-1.655c0.233-0.173,0.377-0.424,0.425-0.692
				C591.839-318.069,602.071-311.427,612.381-304.318z M573.417-320.686c-5.585,4.086-10.823,8.751-15.907,13.434
				c-6.062,5.573-11.958,11.326-17.573,17.347c-0.801-0.185-1.606-0.364-2.407-0.537c-0.191-0.042-0.383,0.077-0.424,0.269
				c-0.042,0.191,0.077,0.383,0.269,0.424c0.669,0.144,1.338,0.293,2.007,0.448c-0.245,0.263-0.49,0.525-0.729,0.795
				c-0.09,0.095-0.18,0.19-0.269,0.286c-2.479-0.472-4.964-0.896-7.461-1.266c5.065-6.309,10.943-12.18,16.958-17.538
				c2.007-1.786,4.122-3.446,6.177-5.179c3.548-2.993,7.46-5.776,11.176-8.578c1.046-0.788,2.108-1.553,3.166-2.329
				c0.119-0.096,0.251-0.186,0.382-0.281C570.341-322.501,571.882-321.6,573.417-320.686z M370.599-310.788
				c-2.736,3.357-5.549,6.792-8.124,10.269c-3.578,4.826-7.264,9.558-10.752,14.455c-7.335,10.292-14.461,20.626-21.45,31.163
				c-5.095,7.676-10.161,15.382-15.19,23.104c-1.857,1.351-3.727,2.694-5.621,4.002l0.227,0.335c1.499-1.027,2.999-2.013,4.51-2.975
				c-1.631,2.503-3.262,5.006-4.88,7.515c-0.089,0.137-0.048,0.334,0.09,0.424c0.137,0.09,0.334,0.048,0.424-0.09
				c1.864-2.885,3.739-5.764,5.621-8.643c1.218-0.765,2.461-1.518,3.721-2.265c0.538-0.322,1.087-0.639,1.631-0.943
				c0.024,0.012,0.042,0.03,0.066,0.042c-9.749,9.928-18.661,20.709-25.907,32.548c-1.78,2.897-3.435,5.86-4.958,8.853
				c-1.38,2.33-2.688,4.707-3.918,7.114c0.37-1.439,0.764-2.873,1.17-4.283c0.681-2.39,1.44-4.833,2.455-7.108
				c0.908-2.073,1.899-4.032,3.083-5.967c0.006-0.012,0.012-0.018,0.024-0.03c0.872-1.416,1.833-2.694,2.79-4.038l-0.227-0.167
				c-0.986,1.332-1.917,2.676-2.562,4.205l-0.006,0.006c-0.71,0.627-1.177,1.374-0.03,0.03c-2.168,3.172-2.688,4.188-3.16,5.245
				c-1.912,4.169-3.046,8.356-4.391,12.741c-0.292,0.938-0.573,1.875-0.86,2.825c-2.945,6.159-5.436,12.532-7.461,19.061
				c-0.412,1.32-0.818,2.64-1.207,3.96c-0.651,1.619-1.278,3.231-1.882,4.856c0.042-0.221,0.084-0.436,0.125-0.645
				c0.52-2.729,1.129-5.406,1.756-8.112c0.054-0.239-0.102-0.49-0.34-0.543c-0.239-0.054-0.49,0.102-0.544,0.34
				c-1.033,3.918-1.881,8.184-2.526,12.186c-0.102,0.598-0.197,1.189-0.287,1.786c-0.502,1.446-0.992,2.897-1.47,4.354
				c-0.012-0.669-0.018-1.338-0.03-2.007c0.263-6.003,0.615-12.019,0.866-18.01c0.209-5.101,0.43-10.19,0.639-15.286
				c0.758-4.002,1.654-7.962,2.658-11.923c8.237-15.775,17.257-31.145,26.516-46.353c8.697-14.301,17.603-28.451,26.432-42.668
				c0.149-0.245,0.078-0.579-0.167-0.729c-0.245-0.149-0.58-0.078-0.729,0.167c-3.052,4.809-6.057,9.647-9.085,14.474
				c-14.641,23.325-29.108,46.825-41.938,71.208c0.543-1.983,1.111-3.96,1.708-5.943c2.103-7.072,4.516-14.121,7.264-21.038
				c0.992-1.649,2.007-3.279,3.053-4.862c1.822-2.771,3.566-5.604,5.394-8.375c3.566-5.399,7.066-10.842,10.626-16.235
				c1.84-2.783,3.495-5.692,5.311-8.482c0.12-0.197,0.066-0.466-0.131-0.585s-0.466-0.065-0.585,0.131
				c-5.687,8.889-11.69,17.604-17.287,26.546c-1.452,2.306-2.939,4.617-4.361,6.947c2.551-6.003,5.37-11.887,8.476-17.574
				c0.269-0.424,0.532-0.848,0.807-1.271c7.532-11.875,16.05-22.776,25.691-32.955c0.185-0.573,0.562-0.974,1.153-1.183
				c-0.006,0.197,0.078,0.382,0.233,0.525c0.353,0.328,0.914,0.316,1.242-0.036c1.583-1.648,3.148-3.159,4.814-4.719
				c1.254-1.171,2.438-2.431,3.686-3.614c2.15-2.042,4.361-4.139,6.643-6.032c2.001-1.667,3.99-3.298,6.027-4.916
				c0.526-0.425,1.063-0.837,1.601-1.243c-0.514,0.717-1.021,1.434-1.523,2.156c-5.471,7.76-10.865,15.525-16.122,23.434
				c-2.252,3.381-4.45,6.804-6.696,10.19c-5.388,8.136-10.609,16.403-15.841,24.646c-7.126,11.224-14.187,22.501-21.182,33.803
				l0.239,0.144c11.146-18.004,22.591-35.769,34.221-53.461c5.358-8.154,10.961-16.129,16.48-24.169
				c2.144-3.13,4.378-6.188,6.559-9.288c2.252-3.214,4.516-6.428,6.81-9.617c1.78-1.272,3.584-2.509,5.382-3.739
				c2.396-1.643,4.94-3.166,7.425-4.671c0.353-0.215,0.705-0.431,1.063-0.64c-0.663,0.747-1.32,1.5-1.977,2.265
				c-5.52,6.367-10.728,12.824-15.871,19.49c-6.242,8.094-12.078,16.57-17.759,25.064c-4.821,7.21-9.575,14.599-14.038,22.035
				c-1.822,3.035-3.709,6.033-5.495,9.086c-3.966,6.768-7.861,13.571-11.786,20.363c-0.096,0.167-0.036,0.382,0.131,0.478
				c0.167,0.096,0.382,0.036,0.478-0.132c13.691-23.852,27.818-47.452,44.245-69.547c2.622-3.53,5.268-7.043,7.98-10.507
				c1.553-1.983,3.154-3.931,4.713-5.914c1.636-2.079,3.411-4.067,5.089-6.116c2.306-2.82,4.767-5.525,7.204-8.256
				c2.748-1.559,5.549-3.046,8.363-4.438c1.075-0.538,2.156-1.069,3.237-1.596C375.765-317.071,373.173-313.953,370.599-310.788z
				 M578.053-317.872c1.606,0.985,3.201,1.995,4.79,3.011c-3.823,2.545-7.329,6.093-10.137,9.121
				c-3.99,4.301-7.509,9.014-11.308,13.487c-1.732,2.043-3.477,4.146-5.357,6.052c-0.203,0.203-0.413,0.412-0.634,0.627
				c-4.809-1.571-9.677-2.957-14.569-4.115c4.092-4.218,8.381-8.268,12.7-12.103c4.062-3.614,8.255-7.258,12.585-10.561
				c3.07-2.348,6.117-4.82,9.229-7.168C576.254-318.978,577.156-318.428,578.053-317.872z M609.257-315.124
				c8.5,5.125,16.708,11.253,24.156,17.806c2.61,2.294,5.173,4.66,7.526,7.264c-0.138,0.908-0.406,1.858-0.567,2.778
				c-0.071,0.37-0.138,0.746-0.197,1.123c-0.364-0.412-0.729-0.825-1.093-1.23c-1.046-1.171-2.097-2.414-3.196-3.53
				c-0.776-0.789-1.511-1.625-2.287-2.407c-1.452-1.464-2.921-2.921-4.373-4.391c-2.3-2.33-4.88-4.689-7.358-6.834
				c-2.611-2.258-5.174-4.485-7.855-6.666c-1.924-1.565-3.877-3.088-5.859-4.575C608.517-315.566,608.887-315.352,609.257-315.124z
				 M589.886-310.238c1.164,0.776,2.341,1.553,3.518,2.342c-0.334,0.203-0.65,0.4-0.913,0.562c-2.234,1.338-4.504,2.849-6.523,4.498
				c-2.526,2.066-4.91,4.127-7.299,6.355c-3.746,3.494-7.306,7.329-10.866,11.015c-0.478,0.49-0.949,0.979-1.421,1.47
				c-0.329,0.035-0.628,0.238-0.759,0.562c-0.042,0.096-0.066,0.19-0.078,0.292c-0.28,0.287-0.562,0.574-0.842,0.86
				c-2.527-0.962-5.077-1.882-7.652-2.747c1.165-1.184,2.282-2.414,3.363-3.65c7.61-8.751,14.336-18.756,24.072-25.117
				C586.289-312.628,588.088-311.438,589.886-310.238z M617.446-306.995c1.278,1.117,2.545,2.252,3.638,3.524
				c-0.842-0.812-1.696-1.612-2.545-2.413c-0.865-0.818-1.815-1.606-2.711-2.396c-0.156-0.137-0.312-0.274-0.484-0.406
				C616.306-307.986,616.873-307.496,617.446-306.995z M599.12-303.954c0.502,0.358,1.004,0.723,1.512,1.081
				c-3.847,3.04-7.306,6.439-10.848,10.071c-4.373,4.479-8.566,9.05-12.98,13.439c-3.076-1.547-6.212-3.004-9.354-4.324
				c0.203-0.203,0.406-0.406,0.609-0.609c4.916-4.958,9.743-9.79,15.071-14.294c2.861-2.42,5.991-4.659,9.145-6.673
				c0.849-0.549,1.757-1.039,2.629-1.564C597.406-305.179,598.271-304.569,599.12-303.954z M610.738-303.829
				c3.674,2.771,7.348,5.651,10.842,8.674c-1.063,0.514-2.103,1.057-3.13,1.624c-1.947-1.522-3.901-2.998-5.872-4.456
				c0.311-0.125,0.621-0.238,0.932-0.346c0.532-0.216,0.789-0.831,0.573-1.362c-0.215-0.531-0.83-0.788-1.361-0.573
				c-0.699,0.239-1.397,0.531-2.085,0.854c-1.445-1.052-2.903-2.097-4.372-3.137c-0.592-0.418-1.177-0.836-1.769-1.248
				c0.944-0.663,1.912-1.296,2.885-1.864c0.144-0.095,0.245-0.227,0.312-0.376C608.713-305.316,609.734-304.588,610.738-303.829z
				 M624.035-300.669c0.209,0.18,0.424,0.37,0.579,0.621c-1.081-1.225-2.222-2.396-3.53-3.423
				C622.082-302.557,623.062-301.625,624.035-300.669z M478.279-302.975l0.765,0.28c-0.794-0.286-1.595-0.507-2.3-0.597
				C477.223-303.243,477.748-303.13,478.279-302.975z M481.081-301.84c0.431,0.161,0.771,0.322,1.087,0.479
				c0.514,0.25,1.117,0.453,1.607,0.723c-0.215-0.222-1.69-0.807-2.061-0.986C481.535-301.714,481.344-301.804,481.081-301.84
				c-0.567-0.274-1.2-0.543-1.834-0.782l0.621,0.215C480.299-302.228,480.705-302.037,481.081-301.84z M606.014-299.109
				c0.573,0.412,1.152,0.824,1.732,1.236c-0.628,0.37-1.243,0.746-1.834,1.129c-6.267,3.96-11.123,9.527-15.848,15.154
				c-1.744,2.072-3.477,4.241-5.274,6.29c-0.203-0.061-0.406-0.12-0.604-0.174c-0.901-0.495-1.798-0.985-2.699-1.463
				c-1.213-0.651-2.443-1.291-3.68-1.924c5.077-4.976,9.951-10.173,15.059-15.143c2.927-2.861,5.907-5.411,9.121-7.927
				C603.331-300.997,604.682-300.065,606.014-299.109z M616.037-292.139c-8.614,5.196-16.135,12.161-23.309,19.317
				c-1.523-0.788-3.028-1.129-4.809-1.595c-0.37-0.102-0.734-0.203-1.093-0.305c3.524-4.08,6.917-8.291,10.668-12.18
				c3.352-3.482,7.574-7.204,12.097-9.671C611.724-295.072,613.868-293.591,616.037-292.139z M626.132-293.118
				c1.236,1.129,2.442,2.293,3.667,3.435c0.197,0.185,0.4,0.376,0.598,0.562c-0.155,0.054-0.311,0.102-0.466,0.149
				c-0.926-0.849-1.863-1.685-5.842-4.893c0.018-0.012,0.042-0.023,0.065-0.03c0.233-0.113,0.412-0.305,0.52-0.525
				C625.164-293.99,625.647-293.561,626.132-293.118z M463.74-293.603c-0.232,0.329-0.46,0.663-0.687,0.998
				c-0.012,0.006-0.018,0.018,0,0.029c-6.367,0.586-10.083,1.183-13.732,1.882c-0.066-0.167-0.149-0.322-0.263-0.466
				c0.597-0.705,1.194-1.41,1.791-2.114c3.018-0.186,6.046-0.305,9.104-0.365C461.22-293.668,462.48-293.645,463.74-293.603z
				 M623.491-293.465c1.774,1.601,3.548,3.22,5.299,4.862c-0.299,0.113-0.598,0.257-0.878,0.376
				c-2.091,0.872-4.289,2.043-6.141,3.345c-3.691,2.599-6.673,5.316-9.952,8.417c-1.654,1.564-3.285,3.297-4.987,4.784
				c-1.117,0.979-2.229,2.008-3.34,3.005c-0.154,0.132-0.304,0.263-0.459,0.395c-0.454-0.209-1.016-0.096-1.356,0.305
				c-0.239,0.274-0.322,0.633-0.263,0.968c-0.496,0.37-0.992,0.74-1.476,1.123c-2.329-1.481-4.868-2.993-7.766-4.582
				c0.228-0.215,0.448-0.43,0.676-0.646c0.257-0.006,0.514-0.006,0.776-0.006c0.274,0.072,0.567-0.089,0.639-0.364
				c0.066-0.269-0.083-0.556-0.346-0.639c0.466-0.437,0.932-0.866,1.403-1.297c3.494-3.213,7.019-6.337,10.8-9.204
				c3.877-2.945,7.837-5.592,11.982-8.148c1.368,0.908,2.729,1.846,4.121,2.719c0.431,0.311,1.04,0.215,1.351-0.216
				c0.311-0.43,0.215-1.039-0.215-1.35c-0.968-0.83-1.983-1.637-3.005-2.432c1.004-0.52,2.037-1.009,3.053-1.493
				C623.432-293.519,623.462-293.495,623.491-293.465z M468.579-293.352c-0.065,0.012-0.132,0.023-0.18,0.048
				c-1.212,0.096-2.425,0.203-3.638,0.328c0.132-0.185,0.263-0.376,0.4-0.567C466.297-293.489,467.438-293.417,468.579-293.352z
				 M447.744-291.84c-3.519-0.711-6.666-0.048-10.143,0.549c-0.723,0.12-1.452,0.275-2.181,0.437
				c0.215-0.263,0.431-0.526,0.651-0.789c0.376-0.06,0.752-0.119,1.129-0.173c3.883-0.604,7.747-1.027,11.624-1.314
				C448.467-292.7,448.103-292.271,447.744-291.84z M433.964-290.508c-0.395,0.089-0.789,0.19-1.183,0.286
				c-3.315,0.807-6.679,1.696-9.94,2.724c-2.233,0.699-4.462,1.38-6.689,2.091c0.657-0.86,1.319-1.727,1.989-2.586
				c5.465-1.362,10.984-2.497,16.575-3.429C434.465-291.117,434.221-290.819,433.964-290.508z M512.304-288.334
				c0.765,0.054,1.529,0.119,2.288,0.186c6.588,1.313,13.153,2.807,19.67,4.474c-0.508,0.573-1.004,1.146-1.487,1.727
				c-0.132,0.149-0.113,0.394,0.036,0.525s0.394,0.113,0.525-0.036c0.567-0.675,1.146-1.344,1.732-2.007
				c8.004,2.067,15.942,4.396,23.798,6.977c-0.216,0.203-0.419,0.406-0.615,0.615c-0.18,0.174-0.186,0.467-0.013,0.646
				c0.174,0.18,0.467,0.186,0.646,0.012c0.305-0.328,0.633-0.639,0.962-0.943c2.843,0.943,5.675,1.917,8.5,2.933
				c3.607,1.29,7.162,2.748,10.758,4.056c-0.902,0.872-1.81,1.732-2.706,2.623c-0.376,0.352-0.394,0.955-0.042,1.332
				c0.353,0.376,0.956,0.394,1.332,0.041c1.147-1.093,2.271-2.174,3.369-3.279c1.769,0.657,3.549,1.351,5.316,2.067
				c-0.46,0.46-0.914,0.92-1.368,1.386c-0.179-0.019-0.358,0.077-0.43,0.245c-0.036,0.071-0.048,0.149-0.036,0.221l-0.006,0.012
				c-0.227,0.233-0.221,0.621,0.012,0.849c0.233,0.227,0.621,0.221,0.849-0.013c0.048-0.054,0.096-0.101,0.144-0.155
				c5.836,2.725,11.57,5.621,17.179,8.739c-0.842,0.92-1.678,1.846-2.521,2.76c-0.305,0.329-0.28,0.854,0.048,1.159
				c0.329,0.305,0.854,0.28,1.159-0.048c0.92-1.004,1.852-2.025,2.795-3.041c4.935,2.79,9.772,5.759,14.498,8.942
				c-0.036,0.221,0.047,0.448,0.238,0.586c0.592,0.418,1.183,0.842,1.774,1.266c-0.902,0.92-1.792,1.84-2.676,2.766
				c-0.197,0.197-0.197,0.532,0,0.729h0.729c0.92-0.962,1.857-1.918,2.802-2.868c2.317,1.691,4.587,3.43,6.81,5.215
				c0.37,0.329,0.74,0.663,1.116,0.992c-0.573,0.203-1.177,0.347-1.738,0.567c-0.555,0.173-0.859,0.776-0.687,1.332
				s0.776,0.86,1.332,0.687c0.979-0.322,1.905-0.657,2.802-1.033c2.354,2.156,4.659,4.354,6.911,6.601
				c-5.914,3.095-11.815,6.206-17.705,9.331c-0.239,0.102-0.472,0.203-0.705,0.311c-6.457,2.818-12.573,5.639-18.47,9.473
				c-0.232,0.144-0.364,0.383-0.388,0.634c-14.056,7.538-28.057,15.172-41.987,22.961c-7.144,3.996-14.234,8.088-21.336,12.156
				c-3.022,1.732-6.033,3.488-9.032,5.262c-1.457,0.86-2.915,1.685-4.343,2.593c-4.42,2.795-8.822,5.615-13.219,8.452
				c-11.498,5.567-23.069,10.931-34.681,16.259c-0.126-0.609-0.257-1.212-0.4-1.816c-0.102-0.472-0.579-0.771-1.052-0.669
				c-0.472,0.102-0.771,0.58-0.669,1.051c0.174,0.711,0.341,1.439,0.49,2.18c-0.634,0.293-1.272,0.585-1.905,0.878
				c-0.628,0.287-0.914,1.039-0.628,1.667c0.287,0.627,1.04,0.914,1.667,0.627c0.185-0.089,0.37-0.173,0.556-0.263
				c-0.006,0.269-0.013,0.532-0.03,0.794c-0.084,1.177-0.203,2.562-0.406,3.763c-0.388,0.269-0.782,0.538-1.171,0.807
				c-0.43,0.292-0.549,0.89-0.257,1.32c0.287,0.424,0.872,0.543,1.303,0.251v0.012c-0.03,0.807-0.107,1.619-0.161,2.425
				c-0.078,1.153-0.036,2.348-0.036,3.506c-0.006,1.434-0.024,2.867-0.03,4.301c-0.023,5.687-0.102,11.427-0.28,17.114
				c-0.358,11.546-0.18,23.111-0.168,34.663c0.013,17.46,0.312,34.92,0.598,52.375c0.155,9.498,0.322,19.114,0.801,28.594
				c0.305,5.991,0.448,12.012,0.985,17.986c0.065,0.771,0.132,1.559,0.197,2.354c-9.809,0.287-19.712-0.203-29.365-1.058
				c-13.033-1.159-25.709-3.154-38.414-6.368c-6.296-1.595-12.574-3.608-18.691-5.8c-3.727-1.338-7.514-2.772-11.14-4.367
				c-4.856-2.132-9.653-4.265-14.354-6.738c-1.242-0.651-2.521-1.26-3.739-1.959c-1.828-1.057-3.715-2.019-5.537-3.088
				c-4.964-2.909-9.785-5.95-14.509-9.235c-1.243-0.86-2.527-1.703-3.728-2.616c-1.619-1.23-3.285-2.414-4.898-3.656
				c-2.76-2.121-5.448-4.367-8.088-6.63c-1.099-0.944-2.216-1.864-3.279-2.85c-1.344-1.248-2.718-2.467-4.032-3.727
				c-1.84-1.708-3.942-3.787-5.896-5.998c-5.173-5.101-10.125-10.973-14.402-17.149c-1.236-1.541-2.365-3.16-3.488-4.808
				c-0.257-0.382-0.514-0.759-0.765-1.135c-4.772-10.794-8.99-21.85-12.084-33.235c-1.075-3.949-2.037-8.094-2.688-12.132
				c-0.663-4.116-1.35-8.506-1.553-12.664c-0.113-2.294-0.221-4.558-0.287-6.852c-0.072-2.539,0.024-5.143,0.125-7.682
				c0.311-7.873,1.517-15.495,2.873-23.23c0.078-0.466,0.161-0.932,0.245-1.397c0.197-0.024,0.37-0.186,0.4-0.388
				c0.305-2.438,0.675-4.88,1.129-7.288c3.674-8.871,7.969-17.508,12.759-25.763c18.153-31.33,44.417-56.806,75.354-74.959
				c4.188-2.024,8.411-3.99,12.669-5.83c2.562-1.11,5.137-2.198,7.711-3.255c-0.089,0.119-0.185,0.232-0.274,0.353l0.036,0.322
				l0.323-0.036c0.257-0.334,0.52-0.663,0.782-0.991c6.069-2.467,12.174-4.791,18.38-6.983c2.413-0.859,4.839-1.69,7.275-2.49
				c1.751-0.514,3.501-1.016,5.257-1.487c4.438-1.207,9.032-2.479,13.535-3.381c3.34-0.669,6.661-1.41,10.012-2.055
				c3.703-0.711,7.442-1.213,11.158-1.84c1.111-0.186,2.252-0.305,3.369-0.46c3.356-0.46,6.756-0.866,10.131-1.177
				c2.168-0.107,4.318-0.186,6.469-0.245c4.385-0.126,8.745-0.119,13.13-0.113C495.835-289.57,504.055-288.967,512.304-288.334z
				 M554.786-284.953c-0.138,0.125-0.269,0.257-0.406,0.389c-0.322-0.084-0.646-0.174-0.962-0.251
				c-4.671-1.219-9.396-2.312-14.15-3.237c0.334-0.347,0.663-0.699,1.003-1.046C545.139-287.958,550.043-286.596,554.786-284.953z
				 M637.451-281.979c-0.06,0.03-0.125,0.06-0.186,0.09c-1.84-1.857-3.709-3.674-5.597-5.46c-0.173-0.167-0.347-0.328-0.52-0.489
				c0.149-0.048,0.299-0.096,0.441-0.138C633.599-286.034,635.54-284.021,637.451-281.979z M414.538-284.888
				c-5.872,1.912-11.666,4.021-17.418,6.242c-0.37,0.138-0.734,0.275-1.105,0.418c1.129-1.38,2.265-2.753,3.399-4.121
				c1.051-0.376,2.103-0.741,3.166-1.093c4.652-1.571,9.33-2.951,14.049-4.17C415.93-286.703,415.237-285.795,414.538-284.888z
				 M636.161-281.345c-1.744,0.878-3.399,1.798-5.125,2.759c-2.76,1.535-5.442,3.399-8.017,5.233
				c-4.569,3.249-8.948,6.988-13.069,10.913c-1.936-1.679-3.877-3.339-5.824-4.988c0.065-0.054,0.131-0.113,0.203-0.167
				c1.714-1.457,3.351-3.011,4.987-4.558c2.008-1.899,4.026-3.799,6.021-5.704c0.598-0.574,1.284-1.225,1.924-1.744
				c1.875-1.541,3.607-2.903,5.603-4.289c1.255-0.872,2.646-1.554,3.99-2.282c0.932-0.508,2.037-0.932,3.136-1.296
				C632.087-285.473,634.154-283.436,636.161-281.345z M559.152-283.347c0.843,0.329,1.69,0.67,2.539,1.01
				c-1.87-0.585-3.728-1.188-5.604-1.738c0.107-0.102,0.209-0.203,0.317-0.311C557.325-284.051,558.245-283.705,559.152-283.347z
				 M566.111-282.193c2.001,0.854,3.99,1.744,5.872,2.855c-2.073-0.885-4.169-1.738-6.284-2.557
				c0.113-0.113,0.221-0.228,0.335-0.341C566.058-282.217,566.082-282.205,566.111-282.193z M395.143-277.904
				c-1.714,0.633-3.429,1.26-5.095,1.989c-0.812,0.353-1.702,0.663-2.497,1.045c-1.631,0.788-3.417,1.386-5.012,2.24
				c-1.953,0.955-3.889,1.929-5.812,2.927c1.021-1.625,2.067-3.22,3.148-4.791c2.622-1.129,5.232-2.341,7.885-3.398
				c3.56-1.434,7.114-2.825,10.716-4.122C397.359-280.646,396.248-279.278,395.143-277.904z M639.07-280.055
				c-0.174-0.18-0.341-0.353-0.508-0.526c0.023-0.012,0.054-0.029,0.083-0.041C638.789-280.432,638.927-280.246,639.07-280.055z
				 M639.13-278.18l-0.019,0.209l-0.179,2.043c-0.084,1.034-0.155,2.067-0.228,3.106c-6.229,3.507-11.785,8.978-16.414,13.828
				c-1.272,1.326-2.551,2.706-3.806,4.104c-2.401-2.168-4.826-4.312-7.263-6.438c2.354-2.139,4.688-4.385,7.197-6.32
				c1.56-1.213,3.101-2.425,4.689-3.607c0.788-0.586,1.625-1.117,2.407-1.703c1.344-0.997,3.017-2.036,4.462-2.891
				c2.461-1.458,4.928-2.867,7.455-4.163C638.007-279.404,638.568-278.795,639.13-278.18z M578.811-274.637
				c1.243,0.609,2.479,1.236,3.722,1.863c-0.023,0.03-0.048,0.06-0.071,0.084c-1.332-0.699-2.67-1.386-4.009-2.049
				C578.572-274.703,578.691-274.673,578.811-274.637z M376.016-269.339c-1.601,0.83-3.202,1.673-4.796,2.533
				c-2.927,1.564-5.86,3.314-8.691,5.047c-3.381,2.073-6.714,4.218-9.981,6.451c-6.326,3.381-12.472,7.091-18.589,10.848
				c2.103-1.923,4.217-3.816,6.355-5.687c1.446-1.272,2.861-2.58,4.313-3.853c1.332-1.177,2.67-2.342,4.014-3.513
				c1.207-0.807,2.425-1.595,3.655-2.365c-0.239,0.287-0.478,0.573-0.717,0.86c-0.102,0.119-0.083,0.316,0.036,0.418
				c0.119,0.102,0.316,0.084,0.418-0.036c0.604-0.746,1.225-1.487,1.846-2.222c0.084-0.054,0.167-0.102,0.251-0.149
				c3.495-2.133,7.031-4.253,10.668-6.141c4.725-2.455,9.45-4.91,14.336-7.03C378.065-272.582,377.026-270.97,376.016-269.339z
				 M588.362-269.703c-0.514-0.215-1.027-0.424-1.541-0.627c-0.872-0.484-1.744-0.962-2.616-1.428
				c0.029-0.036,0.06-0.072,0.09-0.102C585.656-271.154,587.006-270.438,588.362-269.703z M591.158-271.244
				c-0.048,0.048-0.096,0.102-0.149,0.149c-0.251-0.138-0.514-0.275-0.771-0.412C590.543-271.388,590.854-271.304,591.158-271.244z
				 M638.49-269.715c-0.083,1.158-0.077,2.335-0.125,3.494c-0.084,1.995-0.126,3.996-0.144,5.997
				c-3.632,3.148-7.114,6.476-10.585,9.851c-0.567,0.549-1.135,1.099-1.696,1.654c-0.818-0.531-1.631-1.063-2.443-1.589
				c-1.392-1.29-2.789-2.568-4.199-3.841c0.448-0.484,0.891-0.962,1.338-1.434c4.146-4.433,8.184-8.243,12.98-11.899
				c1.577-1.206,3.249-2.287,4.946-3.309C638.538-270.432,638.515-270.073,638.49-269.715z M647.17-268.825
				c0.633,0.884,1.266,1.763,1.911,2.641c1.547,2.114,3.059,4.527,4.743,6.499c0.478,0.556,0.979,1.099,1.499,1.631
				c1.105,1.576,2.187,3.195,3.243,4.82c-0.023,0.096-0.006,0.197,0.055,0.28c0.627,0.956,1.29,1.899,1.935,2.838
				c0.484,0.771,0.956,1.528,1.434,2.287c2.61,4.193,4.904,8.561,7.066,12.992c-2.055,1.78-4.079,3.668-6.003,5.525
				c-0.932,0.896-1.917,1.87-2.879,2.718c-0.161,0.138-0.322,0.275-0.484,0.412c-1.971-1.559-4.318-3.076-6.391-4.426
				c-0.609-0.4-1.213-0.795-1.816-1.189c4.002-3.44,8.314-6.469,13.021-8.709c0.395-0.196,0.562-0.687,0.365-1.081
				c-0.197-0.394-0.688-0.562-1.082-0.364c-1.141,0.496-2.168,1.135-3.255,1.709c-3.208,1.684-6.637,4.438-9.295,6.893
				c-0.299,0.269-0.591,0.538-0.878,0.812c-1.869-1.23-3.733-2.467-5.597-3.709c0.042-0.419,0.083-0.843,0.131-1.255
				c0.293-2.969,0.586-5.949,0.801-8.924c0.036-0.573,0.077-1.147,0.107-1.721c2.139-2.521,4.307-5.018,6.786-7.228
				c0.447-0.418,0.472-1.123,0.054-1.571c-0.419-0.448-1.123-0.472-1.571-0.054c-1.284,1.058-2.503,2.426-3.62,3.656
				c-0.495,0.543-0.979,1.093-1.457,1.643c0.054-1.046,0.113-2.097,0.197-3.137c0.083-1.123,0.083-2.293,0.125-3.422
				c0.078-2.192,0.102-4.379,0.126-6.565c0.19-0.137,0.376-0.274,0.573-0.412c0.34-0.257,0.418-0.752,0.161-1.093
				c-0.174-0.233-0.454-0.341-0.723-0.311c0.006-0.228,0.006-0.454,0.012-0.675c0.006-0.795,0.006-1.583,0-2.378
				C646.704-269.404,646.937-269.118,647.17-268.825z M608.26-260.809c-0.09,0.09-0.186,0.179-0.275,0.269
				c-0.353-0.209-0.711-0.412-1.062-0.615c-1.864-1.326-3.74-2.622-5.747-3.937c0.377-0.274,0.759-0.544,1.123-0.824
				C604.287-264.243,606.282-262.535,608.26-260.809z M592.251-263.909c1.308,0.573,2.616,1.153,3.912,1.738
				c2.725,1.774,5.418,3.542,8.101,5.406c-0.305,0.322-0.604,0.645-0.908,0.968c-0.998-0.544-1.995-1.088-3.005-1.607
				c-4.719-2.449-9.401-4.814-14.192-7.084c0.46-0.472,0.926-0.95,1.386-1.422C589.133-265.253,590.704-264.584,592.251-263.909z
				 M609.891-259.381c-0.156-0.096-0.305-0.191-0.454-0.287c0.018-0.018,0.041-0.042,0.06-0.06
				C609.627-259.614,609.759-259.501,609.891-259.381z M638.245-249.704l0.036,3.787l-0.173,2.036
				c-0.03,0.442-0.06,0.891-0.084,1.345c-0.269,0.263-0.544,0.525-0.818,0.782c-0.102,0.09-0.203,0.18-0.305,0.269
				c-1.929-1.284-3.864-2.562-5.794-3.835c-1.403-0.926-2.808-1.846-4.205-2.766l0.012-0.006c3.668-3.519,7.413-6.959,11.296-10.238
				C638.197-255.451,638.222-252.577,638.245-249.704z M613.391-250.021c-1.075-0.656-2.133-1.29-3.195-1.893
				c-1.786-1.016-3.566-2.043-5.353-3.053c0.263-0.281,0.525-0.562,0.788-0.843C608.26-253.945,610.828-252.01,613.391-250.021z
				 M328.325-235.989c-6.105,5.692-11.833,11.671-17.167,17.932c-0.944,0.704-1.864,1.428-2.748,2.168
				c-1.995,1.644-3.883,3.452-5.669,5.364c7.275-9.939,15.632-19.061,24.515-27.639c0.669-0.424,1.332-0.848,1.995-1.26
				c2.097-1.314,4.277-2.593,6.421-3.823c1.003-0.579,2.013-1.153,3.022-1.715C335.146-242.082,331.658-239.107,328.325-235.989z
				 M635.629-240.404c-0.311,0.264-0.627,0.52-0.932,0.795c-0.029,0.018-0.06,0.042-0.107,0.06
				c-0.687-0.854-1.464-1.612-2.234-2.365c-0.746-0.723-1.493-1.445-2.239-2.162C631.956-242.865,633.789-241.635,635.629-240.404z
				 M282.366-237.214c-1.589,3.351-2.975,6.929-4.331,10.388c-1.941,4.945-3.584,9.928-5.149,14.986
				c-0.239-0.293-0.585-0.496-0.979-0.537c-0.46-0.054-0.896,0.113-1.201,0.406c0.806-3.315,1.833-6.606,3.13-9.862
				c2.903-7.317,6.654-14.3,11.146-20.775C284.086-240.816,283.214-239.019,282.366-237.214z M637.894-238.881
				c-0.013,0.818-0.013,1.637-0.007,2.449c-0.549-0.556-1.104-1.117-1.66-1.673c0.418-0.347,0.83-0.704,1.207-1.087
				C637.589-239.09,637.744-238.988,637.894-238.881z M648.693-231.683c0.148,0.096,0.298,0.197,0.453,0.299
				c-1.003,0.962-1.988,1.94-2.963,2.938c0.102-0.508,0.042-1.045-0.209-1.535c-0.37-0.717-1.062-1.153-1.81-1.236
				c0.138-1.063,0.269-2.133,0.395-3.202C645.934-233.505,647.307-232.591,648.693-231.683z M671.117-230.518
				c0.65,1.379,1.2,2.771,1.798,4.175c0.077,0.179,0.155,0.364,0.232,0.55c-2.521,1.869-5.005,3.793-7.526,5.65
				c-0.215-0.299-0.627-0.395-0.949-0.209c-0.353,0.197-0.484,0.651-0.287,1.004c0.012,0.023,0.03,0.047,0.042,0.077
				c-1.947,1.428-4.008,3.028-5.848,4.558c-0.222,0.18-0.448,0.358-0.682,0.538c-1.451-1.798-2.921-3.572-4.42-5.322
				c2.24-1.589,4.42-3.435,6.463-5.305c1.081,0.567,2.169,1.129,3.25,1.696c-0.466-0.89-1.655-1.654-2.562-2.329
				c0.286-0.269,0.573-0.538,0.86-0.801c2.228-2.103,4.443-4.211,6.672-6.313c0.43-0.412,0.902-0.854,1.38-1.297
				C670.071-232.734,670.591-231.629,671.117-230.518z M654.84-227.675c1.29,0.8,2.616,1.541,3.954,2.264
				c-0.287,0.251-0.567,0.502-0.83,0.765c-0.437,0.418-0.908,0.753-1.362,1.141c-1.254,1.082-2.58,2.098-3.931,3.059
				c-1.989-2.312-4.02-4.594-6.081-6.846c1.184-1.158,2.384-2.293,3.614-3.393C651.739-229.664,653.28-228.643,654.84-227.675z
				 M676.122-217.95c-2.03,1.171-4.056,2.419-5.991,3.691c-0.299,0.191-0.591,0.382-0.884,0.579
				c-0.979-1.791-1.978-3.572-2.975-5.34c0.573-0.418,1.153-0.836,1.708-1.272c1.834-1.464,3.793-2.819,5.705-4.205
				C674.552-222.358,675.37-220.16,676.122-217.95z M638.258-222.389l0.029,0.335v0.089l0.024,0.18
				c0.029,0.197,0.06,0.383,0.102,0.567c0.06,0.269,0.167,0.341,0.311,0.562c0.036,0.061,0.077,0.119,0.125,0.174
				c-0.782,0.896-1.553,1.804-2.317,2.717c-0.161,0.186-0.138,0.473,0.048,0.634c0.185,0.161,0.472,0.138,0.633-0.048
				c0.795-0.914,1.601-1.828,2.419-2.742c0.174,0.066,0.359,0.102,0.55,0.12l0.46-0.03l0.155,0.078l0.263,0.071
				c0.717,0.114,1.41-0.376,1.523-1.093c0.09-0.747,0.228-1.481,0.358-2.223c5.161,6.416,9.946,13.13,14.259,20.13
				c-0.567,0.854-1.075,1.756-1.512,2.712c-0.149,0.299-0.035,0.675,0.263,0.825c0.299,0.149,0.675,0.036,0.824-0.263
				c0.27-0.657,0.669-1.38,1.136-2.114c5.148,8.494,9.604,17.4,13.207,26.688c0.991,2.563,1.833,5.102,2.705,7.7
				c0.264,0.968,1.272,1.547,2.24,1.284c0.968-0.263,1.547-1.272,1.284-2.24c-0.238-0.979-0.418-1.995-0.621-2.999
				c0.46,1.29,0.908,2.592,1.351,3.895c2.239,6.636,3.619,13.338,4.688,20.136c0.173,1.72,0.353,3.429,0.442,5.161
				c0.238,4.785,0.4,9.438,0.293,14.234c-0.084,3.709-0.437,7.371-0.67,11.069c-0.257,3.996-0.597,8.004-1.003,11.995
				c-0.263-0.024-0.532,0.078-0.711,0.292c-1.863,2.18-3.626,4.456-5.483,6.636c-2.234,2.623-4.486,5.287-6.78,7.855
				c-8.351,9.36-16.803,18.565-25.374,27.729c-5.102,5.454-10.203,10.907-15.238,16.42c-3.494,3.829-6.894,7.735-10.31,11.636
				c-3.489,3.978-6.822,8.118-10.173,12.215c-6.039,7.395-11.899,15.292-17.078,23.314c-0.161,0.239-0.09,0.573,0.149,0.735
				c0.239,0.161,0.573,0.089,0.735-0.149c13.815-21.169,31.21-39.998,48.419-58.419c10.412-11.14,20.89-22.215,31.026-33.606
				c3.619-4.074,7.042-8.303,10.584-12.43c-0.035,0.334-0.071,0.669-0.107,1.009c-0.238,2.156-0.543,4.307-0.83,6.457
				c-0.012,0.054-0.018,0.114-0.03,0.173c-0.305,0.072-0.579,0.275-0.717,0.585c-2.233,3.357-4.36,6.828-6.266,10.382
				c-1.505,2.801-2.819,5.722-4.289,8.554c-3.297,6.337-6.595,12.681-10.154,18.87c-5.412,6.344-10.681,12.825-15.991,19.246
				c-3.44,4.151-6.839,8.333-10.172,12.574c-0.448,0.311-0.902,0.627-1.356,0.944c-4.067,2.802-8.058,5.717-12.107,8.542
				c-2.15,1.5-4.337,2.987-6.458,4.528c-2.867,2.084-5.74,4.157-8.655,6.176c-11.015,7.628-22.352,14.503-34.663,19.795
				c-1.397,0.598-2.789,1.159-4.181,1.703c10.059-14.557,20.506-28.773,31.371-42.763c9.325-12.006,18.972-23.714,28.762-35.338
				c5.138-6.099,10.358-12.15,15.639-18.123c4.276-4.839,8.548-9.713,12.908-14.474c2.139-2.335,4.229-4.725,6.355-7.079
				c7.455-8.255,14.976-16.492,22.633-24.556c0.341-0.364,0.323-0.944-0.042-1.284c-0.364-0.341-0.943-0.323-1.284,0.042
				c-4.05,4.283-8.058,8.638-12.024,12.998c-4.796,5.274-9.629,10.507-14.365,15.835c-10.907,12.275-21.6,24.855-31.999,37.561
				c-9.128,11.14-18.136,22.364-26.874,33.815c-10.914,14.288-21.45,28.786-31.641,43.587c-2.02,0.782-4.044,1.523-6.105,2.276
				c-0.806,0.292-1.654,0.609-2.479,0.848c-1.093,0.322-2.175,0.711-3.268,1.033c-1.213,0.353-2.438,0.687-3.638,1.063
				c-0.389,0.107-0.609,0.52-0.502,0.908s0.52,0.609,0.908,0.502c4.588-1.344,9.092-2.79,13.542-4.378
				c-0.287,0.406-0.568,0.818-0.849,1.23c-6.38,2.294-12.795,4.468-19.204,6.523c-4.128,1.32-8.291,2.539-12.442,3.787
				c-1.786,0.538-3.597,0.992-5.389,1.511c-5.029,1.469-10.178,2.694-15.279,3.865c-2.735,0.627-5.543,1.254-8.309,1.744
				c-6.117,1.087-12.854,2.264-19.043,1.894c-0.55-0.054-1.1-0.096-1.649-0.131c0-0.03,0.006-0.06,0.013-0.084
				c0.251-2.013,0.46-4.032,0.627-6.051c0.167,0.012,0.328-0.06,0.43-0.203c0.036-0.06,0.072-0.113,0.107-0.167
				c0.933-0.191,1.864-0.389,2.796-0.585c1.23-0.269,2.503-0.657,3.739-0.86c-1.978,0.221-3.96,0.406-5.955,0.549
				c3.697-5.633,7.473-11.242,11.308-16.773c2.831-4.085,5.633-8.208,8.541-12.233c1.685-2.33,3.34-4.689,5.012-7.031
				c4.582-6.415,9.318-12.747,14.05-19.055c12.412-16.552,25.446-32.752,38.743-48.599c10.07-12,20.309-23.971,30.811-35.601
				c2.299-2.544,4.569-5.107,6.869-7.652c8.046-8.912,16.295-17.687,24.557-26.402c7.113-7.509,14.407-14.838,21.558-22.305
				c4.593-4.796,9.062-9.707,13.512-14.628c-1.243,0.878-2.252,1.72-3.363,2.753c-1.476,1.374-2.999,2.718-4.48,4.092
				c-5.62,5.215-10.937,10.621-16.283,16.11c-9.813,10.071-19.39,20.363-28.923,30.691c-2.908,3.148-5.854,6.302-8.691,9.515
				c-3.314,3.751-6.684,7.449-10.005,11.194c-8.04,9.062-16.05,18.267-23.744,27.621c-6.534,7.944-13.069,15.877-19.461,23.941
				c-21.456,27.077-42.088,55.224-61.006,84.158c0.329-4.301,0.514-8.613,0.681-12.92c0.066-1.679,0.013-3.381,0.03-5.065
				c0.012-1.249,0.042-2.503,0.024-3.751c-0.013-0.472-0.019-0.944-0.03-1.41c12.586-19.031,25.853-37.554,39.573-55.797
				c4.253-5.657,8.626-11.212,12.968-16.803c4.851-6.242,9.778-12.473,14.784-18.589c7.097-8.679,14.229-17.329,21.463-25.9
				c3.153-3.739,6.361-7.431,9.527-11.158c2.616-3.082,5.286-6.104,7.926-9.163c4.152-4.808,8.333-9.611,12.562-14.354
				c6.48-7.27,12.902-14.593,19.432-21.82c10.764-11.911,21.426-23.911,32.256-35.762c0.292-0.329,0.269-0.842-0.061-1.135
				c-0.328-0.292-0.842-0.269-1.135,0.06c-8.655,9.677-17.436,19.246-26.085,28.935c-12.287,13.757-24.485,27.627-36.479,41.64
				c-6.003,7.007-12,14.014-17.926,21.086c-31.551,37.65-61.717,76.763-88.823,117.776c-0.072-3.238-0.174-6.463-0.27-9.701
				c-0.298-9.611-0.961-19.27-1.547-28.863c-0.071-1.159-0.144-2.318-0.215-3.471c-0.071-5.382-0.126-10.776-0.233-16.152
				c14.241-21.569,29.748-42.142,45.911-62.308c11.547-14.408,23.38-28.601,35.571-42.471c5.585-6.355,11.236-12.639,16.893-18.929
				c7.288-8.1,14.713-16.164,22.215-24.067c0.119-0.137,0.144-0.334,0.072-0.496c3.805-1.965,7.609-3.942,11.421-5.908
				c6.678-3.458,13.303-7.019,19.975-10.483c1.039-0.549,1.439-1.846,0.89-2.885c-0.549-1.039-1.846-1.439-2.885-0.891
				c-6.81,3.591-13.59,7.24-20.405,10.807c-12.675,6.63-25.38,13.207-38.098,19.76c-0.872,0.442-1.738,0.89-2.616,1.338
				c14.969-8.279,30.016-16.415,45.141-24.354c7.312-3.841,14.587-7.771,21.928-11.541c0.556-0.292,1.117-0.578,1.673-0.871
				C638.222-223.021,638.233-222.699,638.258-222.389z M667.999-212.85c-1.96,1.326-3.901,2.736-5.692,4.289
				c-0.084-0.107-0.162-0.215-3.901-4.36c0.036-0.03,0.066-0.054,0.102-0.071c2.091-1.619,4.277-3.262,6.332-4.934
				c0.077-0.066,0.161-0.132,0.239-0.197C666.069-216.367,667.043-214.611,667.999-212.85z M678.272-210.997
				c-0.113-0.013-0.238,0.018-0.34,0.083c-0.646,0.425-1.297,0.807-1.941,1.243c-1.027,0.698-2.15,1.618-3.202,2.616
				c-0.907-1.744-1.827-3.477-2.766-5.197c0.358-0.221,0.717-0.436,1.069-0.656c1.685-1.058,3.459-2.062,5.107-3.166
				c0.149-0.107,0.299-0.209,0.442-0.311C677.233-214.588,677.777-212.783,678.272-210.997z M671.654-205.926
				c-0.675,0.729-1.296,1.469-1.786,2.18c-0.19,0.239-0.149,0.591,0.09,0.783c0.239,0.191,0.591,0.149,0.782-0.09
				c0.27-0.424,0.729-0.944,1.069-1.326c0.132-0.155,0.269-0.305,0.406-0.454c1.058,2.067,2.103,4.152,3.136,6.26
				c0.251,0.508,0.496,1.021,0.741,1.541c-0.849,0.651-1.702,1.308-2.551,1.959c-0.149-0.418-0.299-0.836-0.442-1.254
				c-0.203-0.567-0.842-0.86-1.409-0.657c-0.335,0.114-0.567,0.382-0.669,0.693c-2.509-3.811-5.149-7.532-7.891-11.182
				c0.478-0.383,0.955-0.759,1.428-1.153c0.34-0.286,0.746-0.52,1.099-0.788c0.979-0.74,2.024-1.404,3.088-2.055
				C669.73-209.629,670.699-207.783,671.654-205.926z M680.531-201.834c0.095,0.394,0.19,0.788,0.286,1.188
				c-1.165,0.89-2.329,1.78-3.494,2.67c-1.29-2.694-2.622-5.37-3.99-8.022c1.553-1.535,3.291-2.933,5.185-3.96
				c0.006-0.012,0.018-0.018,0.03-0.024C679.271-207.275,679.855-204.558,680.531-201.834z M287.999-184.947
				c1.828-3.608,3.805-7.138,6.021-10.525c0.842-1.29,1.684-2.544,2.55-3.817c0.424-0.621,0.842-1.29,1.302-1.888
				c0.675-0.872,1.296-1.786,1.977-2.652c1.027-1.308,2.091-2.581,3.148-3.864c0.538-0.67,1.093-1.326,1.708-1.941
				C298.058-201.398,292.754-193.358,287.999-184.947z M618.97-207.217c-20.453,20.352-40.099,41.677-58.987,63.485
				c-11.057,12.765-21.725,25.775-32.195,39.024c-6.78,8.578-13.494,17.292-19.951,26.109c-4.534,6.194-9.032,12.389-13.488,18.643
				c-2.449,3.435-4.826,6.941-7.233,10.406l0.06,0.311l0.311-0.06c7.281-10.478,14.629-20.835,22.274-31.056
				c9.94-13.291,20.25-26.205,30.733-39.065c4.234-5.197,8.625-10.274,12.944-15.399c8.757-10.388,17.782-20.572,26.939-30.607
				c8.416-9.223,16.916-18.452,25.661-27.364c4.516-4.605,8.96-9.283,13.542-13.829c0.161-0.167,0.161-0.441-0.006-0.604
				C619.405-207.383,619.131-207.383,618.97-207.217z M268.52-196.613c0.149-2.867,0.58-6.595,1.117-10.376
				C269.01-203.561,268.568-200.138,268.52-196.613z M292.796-203.238l-0.012,0.006c0.012-0.012,0.018-0.024,0.03-0.03
				C292.808-203.256,292.802-203.25,292.796-203.238z M274.058-202.7c-0.496,1.541-0.974,3.094-1.434,4.653
				c-0.269,0.884-0.52,1.78-0.759,2.67c0.054-0.573,0.113-1.147,0.173-1.732c0.627-2.055,1.296-4.104,1.995-6.11
				C274.003-203.059,274.01-202.874,274.058-202.7z M683.941-185.67c-0.299,0.203-0.598,0.406-0.89,0.615
				c-1.554-3.817-3.22-7.592-4.97-11.319c1.057-0.812,2.12-1.625,3.178-2.431C682.281-194.487,683.213-190.066,683.941-185.67z
				 M570.191-165.379c-8.793,9.76-17.448,19.766-25.877,29.849c-5.083,6.081-10.137,12.186-15.13,18.344
				c-2.432,2.999-4.809,6.045-7.222,9.056c-4.092,5.107-8.059,10.429-11.959,15.686c-5.974,8.058-11.917,16.146-17.627,24.395
				c-4.026,5.806-7.951,11.648-11.857,17.532c-0.023-1.063-0.048-2.132-0.071-3.196c-0.138-5.245-0.305-10.483-0.472-15.746
				c0.221-5.209,0.71-10.406,0.991-15.632c0.071-1.458,0.149-2.915,0.221-4.373c1.368-1.995,2.688-4.05,4.157-5.973
				c0.831-1.093,1.637-2.234,2.449-3.345c2.39-3.255,5.042-6.481,7.628-9.575c5.95-7.12,12.245-13.852,18.673-20.536
				c5.692-5.92,11.451-11.821,17.257-17.627c4.486-4.48,8.984-9.008,13.351-13.607c3.494-3.68,6.929-7.395,10.334-11.158
				c1.888-2.084,3.686-4.265,5.561-6.361c0.024-0.036,0.049-0.072-0.012-0.12c-0.675,0.496,5.173-2.431,10.991-5.37
				c-4.898,4.51-9.629,9.265-14.252,14.062c-11.248,11.648-21.505,24.497-31.276,37.375c-7.969,10.501-15.441,21.301-22.896,32.172
				c-6.935,10.113-13.696,20.381-20.452,30.613l0.071,0.334l0.335-0.072c12.107-18.398,24.4-36.915,37.5-54.626
				c8.853-11.971,18.052-23.852,28.003-34.932c7.097-7.903,14.504-15.77,22.358-22.926c1.428-1.302,2.85-2.586,4.283-3.865
				c8.13-4.127,16.241-8.303,24.341-12.484C589.616-186.931,579.91-176.167,570.191-165.379z M680.883-185.999
				c3.25,8.052,6.052,16.295,8.231,24.694c-1.027-2.664-2.12-5.292-3.255-7.885c-2.892-6.594-6.201-12.968-9.856-19.145
				c-0.215-0.627-0.442-1.272-0.669-1.912c-0.383-1.045-0.776-2.084-1.165-3.124c0.891-0.687,1.786-1.374,2.677-2.055
				C678.272-192.318,679.611-189.135,680.883-185.999z M623.217-192.384c-13.381,14.443-26.784,28.947-39.759,43.754
				c-6.17,7.043-12.4,14.02-18.481,21.14c-17.328,20.298-34.042,41.24-49.967,62.661c-4.468,6.009-8.883,12.084-13.184,18.212
				c-3.184,4.534-6.433,9.044-9.509,13.649c-3.172,4.754-6.439,9.45-9.534,14.258l0.239,0.155
				c7.043-10.955,14.604-21.558,22.173-32.155c4.737-6.63,9.671-13.201,14.646-19.658c7.771-10.089,15.621-20.1,23.762-29.896
				c7.306-8.787,14.665-17.472,22.113-26.139c4.737-5.513,9.475-11.039,14.301-16.468c14.551-16.367,29.233-32.597,44.119-48.665
				c0.232-0.251,0.215-0.651-0.036-0.884C623.85-192.653,623.449-192.635,623.217-192.384z M687.096-187.851
				c-0.281,0.197-0.562,0.388-0.837,0.573c0-0.979-0.035-1.965-0.029-2.945c0-0.316-0.006-0.627-0.019-0.932
				C686.504-190.055,686.809-188.956,687.096-187.851z M690.62-172.129c0.495,2.664,1.009,5.364,1.481,8.064
				c0.179,2.187,0.328,4.355,0.424,6.541c-1.541-6.081-3.44-12.096-6.905-20.984c0.018-0.042,0.018-0.06,0.023-0.078
				c0.335-2.383,0.425-4.779,0.574-7.174c0-0.018,0-0.036,0-0.054c0.394-0.275,0.794-0.55,1.188-0.818
				C688.589-181.865,689.712-176.955,690.62-172.129z M684.574-181.477c0.013,0.125,0.03,0.257,0.042,0.382
				c-0.364-0.95-0.74-1.899-1.116-2.843c0.215-0.149,0.436-0.299,0.65-0.448C684.3-183.412,684.443-182.445,684.574-181.477z
				 M677.353-176.143c0.042,0.155,0.084,0.311,0.126,0.466c-0.353-0.866-0.818-1.858-1.338-2.837
				C676.582-177.756,676.971-176.949,677.353-176.143z M549.512-166.466c-11.182,11.994-23.021,23.421-34.383,35.254
				c-3.082,3.208-6.068,6.481-9.085,9.749c-4.468,4.844-8.787,9.922-12.908,15.064c-2.372,2.957-4.755,5.92-6.947,9.008
				c-1.661,2.33-3.333,4.671-4.958,7.055c0.06-1.188,0.113-2.377,0.167-3.566c0.191-4.57,0.389-9.122,0.615-13.673
				c1.673-2.043,3.357-4.074,5.048-6.111c2.526-3.052,5.209-6.021,7.873-8.96c10.137-11.182,20.864-21.666,31.921-31.928
				c5.221-4.85,10.562-9.569,15.878-14.312c2.657-1.272,5.315-2.551,7.968-3.847c0.149-0.078,0.299-0.149,8.315-4.235
				C555.867-173.443,552.731-169.931,549.512-166.466z M678.153-173.103c-0.221-0.872-0.442-1.72-0.675-2.574
				C677.962-174.476,678.237-173.509,678.153-173.103z M537.362-165.164c-3.597,3.273-7.192,6.499-10.729,9.838
				c-4.653,4.39-9.193,8.87-13.745,13.368c-7.747,7.658-15.333,15.764-22.436,24.019c-2.843,3.291-5.668,6.636-8.422,10.029
				c0.107-2.151,0.227-4.301,0.353-6.458c4.372-6.248,9.139-12.102,14.27-17.806c6.941-7.736,14.372-15.023,21.624-22.466
				c1.637-1.69,3.273-3.381,4.886-5.083c0.347-0.161,0.693-0.323,1.04-0.478c5.292-2.467,10.59-4.928,15.871-7.425
				C539.166-166.807,538.264-165.988,537.362-165.164z M686.558-151.843c0.102,0.938,0.191,1.881,0.257,2.819
				c0.233,3.399,0.412,6.792,0.609,10.19c0.096,1.673,0.281,3.453,0.269,5.119c-0.006,0.932,0.03,1.87,0.036,2.802
				c0.006,0.902-0.06,1.822-0.071,2.729c-0.019,1.016-0.066,2.097-0.144,3.19c0-2.67,0.006-5.34-0.174-8.004
				c-0.179-2.64-0.316-5.245-0.561-7.885c-0.646-6.828-1.769-13.512-3.172-20.226C684.683-158.056,685.662-154.961,686.558-151.843z
				 M509.867-146.999c-5.484,5.782-11.171,11.63-16.266,17.759c-2.062,2.479-4.151,4.934-6.111,7.491
				c-1.75,2.276-3.44,4.569-5.077,6.905c0.096-1.583,0.197-3.171,0.311-4.754c0.281-3.99,0.604-8.076,1.177-12.037
				c0.287-2.031,0.52-4.08,0.891-6.099c10.417-6.786,21.247-12.968,32.07-19.067c0.096-0.048,0.191-0.095,0.287-0.137
				c-0.682,0.741-1.362,1.493-2.025,2.264c-3.709,4.265-7.329,8.584-11.492,12.407c-1.571,1.439-3.279,2.599-4.946,3.9l0.107,0.156
				c0.472-0.382,1.021-0.741,1.518-1.093c1.177-0.831,2.365-1.858,3.452-2.808c2.336-2.043,4.354-4.354,6.499-6.583
				c0.938-0.974,1.828-2.049,2.724-3.064c1.649-1.875,3.286-3.733,4.988-5.561c1.027-0.472,2.049-0.95,3.076-1.422
				C517.315-154.83,513.582-150.923,509.867-146.999z M645.861-142.621c-3.423,3.465-6.947,6.828-10.334,10.334
				c-4.205,4.354-8.416,8.679-12.538,13.118c-1.421,1.529-2.879,3.052-4.265,4.611c-1.35,1.523-2.76,3.004-4.115,4.528
				c-3.722,4.181-7.401,8.386-11.062,12.622c-13.9,16.098-26.91,32.859-39.358,50.092c-3.273,4.534-6.493,9.133-9.623,13.769
				c-1.434,2.126-2.909,4.235-4.295,6.392c-2.677,4.151-5.537,8.231-8.1,12.454c-2.175,3.578-4.444,7.114-6.637,10.687
				c-4.97,8.094-9.778,16.415-14.307,24.759c-0.113,0.209-0.035,0.49,0.174,0.604c0.209,0.113,0.489,0.036,0.604-0.173
				c6.182-11.385,12.884-22.675,19.831-33.612c2.401-3.787,4.868-7.521,7.306-11.278c2.568-3.954,5.256-7.837,7.927-11.726
				c2.861-4.169,5.794-8.327,8.786-12.401c3.279-4.462,6.523-8.948,9.904-13.332c10.029-12.992,20.268-25.656,31.085-38.002
				c4.981-5.687,10.059-11.29,15.202-16.827c4.42-4.754,8.87-9.521,13.428-14.145c3.25-3.292,6.47-6.637,9.778-9.868
				c2.479-2.413,5.023-4.814,7.449-7.275c2.15-2.18,4.283-4.385,6.445-6.547c0.155-0.149,0.161-0.406,0.012-0.562
				s-0.406-0.161-0.562-0.012C654.194-150.637,649.936-146.748,645.861-142.621z M491.355-144.526
				c-2.317,1.493-4.617,3.046-6.911,4.582c-0.09,0.054-0.174,0.107-0.257,0.167c-0.269-0.233-0.604-0.4-0.979-0.454
				c-1.069-0.167-2.079,0.567-2.246,1.637c-0.072,0.364-0.138,0.729-0.203,1.105c-0.837,0.555-1.667,1.111-2.497,1.667
				c-0.012-0.824-0.023-1.649-0.036-2.473c0-0.329-0.28-0.597-0.609-0.597c-0.328,0-0.597,0.281-0.597,0.609
				c0.006,0.514,0.018,1.033,0.023,1.553c-0.102-0.597-0.203-1.194-0.311-1.786c5.74-2.617,11.511-5.179,17.27-7.766
				c0.029-0.018,0.06-0.03,0.089-0.048C493.184-145.721,492.27-145.117,491.355-144.526z M267.015-139.521
				c0.042,0.442,0.329,0.807,0.711,0.974c-0.012,0.382-0.018,0.765-0.018,1.153c-0.018,0.669-0.03,1.344-0.042,2.013
				c-0.86,3.686-1.577,7.419-2.288,11.152c-0.131-5.167-0.143-10.292,0.09-15.465c0.089-1.978,0.203-3.955,0.645-5.896
				C266.328-143.564,266.621-141.581,267.015-139.521z M273.95-142.931c-1.039,6.768-1.637,13.488-1.738,20.19
				c-0.352-2.599-0.645-5.197-0.878-7.813c0.03-1.553,0.096-3.106,0.185-4.647c0.436-2.586,0.95-5.149,1.941-7.58
				c0.263-0.926,0.574-1.846,0.89-2.766C274.207-144.663,274.075-143.797,273.95-142.931z M668.68-138.35
				c-1.84,1.661-3.59,3.375-5.364,5.102c-4.945,4.796-9.73,9.712-14.503,14.682c-10.394,10.818-20.369,22.298-29.95,33.827
				c-7.401,8.906-14.694,17.872-21.785,27.029c-11.618,15.017-22.859,30.297-34.138,45.57c-7.431,10.065-14.897,20.13-22.269,30.237
				c-0.119,0.161-0.083,0.4,0.078,0.52s0.4,0.083,0.52-0.078c5.155-7.072,10.394-14.115,15.638-21.122
				c7.688-10.274,15.334-20.578,23.1-30.799c5.047-6.642,10.214-13.177,15.321-19.766c4.761-6.141,9.7-12.186,14.575-18.236
				c5.424-6.732,10.973-13.386,16.636-19.921c1.888-2.174,3.745-4.384,5.669-6.529c8.075-8.996,16.182-18.087,24.747-26.623
				c1.863-1.858,3.686-3.763,5.567-5.609c2.341-2.294,4.755-4.534,7.066-6.852c2.395-2.407,4.73-4.856,7.084-7.305
				c0.119-0.114,0.132-0.317,0.018-0.436c-0.113-0.12-0.316-0.131-0.436-0.018C673.691-142.579,671.146-140.572,668.68-138.35z
				 M479.785-130.339c-0.424,4.127-0.86,8.237-1.153,12.377c-0.023-0.884-0.042-1.774-0.06-2.658
				c0.024-0.604,0.065-1.195,0.036-1.756c-0.048-0.806-0.102-1.714-0.096-2.521c0-0.317-0.024-0.681-0.054-1.058
				c-0.06-2.526-0.107-5.053-0.155-7.58c0.675-0.442,1.355-0.884,2.037-1.314C480.119-133.338,479.935-131.815,479.785-130.339z
				 M476.673-119.832c-0.006,0.418,0.269,0.794,0.651,0.92c0.077,5.579,0.137,11.152,0.179,16.731
				c-0.263,0.347-0.525,0.687-0.788,1.04c-0.042-1.858-0.078-3.709-0.096-5.561c-0.054-4.486-0.18-8.972-0.221-13.458
				c-0.024-2.389,0.035-4.814-0.03-7.192C476.571-124.856,476.697-122.353,476.673-119.832z M691.893-113.255
				c-0.03,0.956-0.066,1.923-0.114,2.897c-0.842,3.106-1.762,6.165-2.693,9.276c-1.201,4.002-2.754,8.034-4.277,11.923
				c-1.541,3.948-3.273,7.766-4.976,11.636c-0.651,1.481-1.428,2.939-2.103,4.414c-0.186,0.4-0.377,0.8-0.544,1.135
				c0.908-2.396,1.846-4.856,2.748-7.324c0.663-1.816,1.278-3.655,1.953-5.465c1.23-3.279,2.312-6.738,3.339-10.089
				c0.891-2.909,1.786-5.824,2.533-8.775c0.759-3.011,1.434-5.974,2.066-9.014c0.155-0.783,0.364-1.679,0.472-2.479
				c0.149-0.329,0.293-0.657,0.442-0.979c0.412-0.926,0.812-1.876,1.2-2.844C691.939-117.049,691.939-115.155,691.893-113.255z
				 M272.307-115.322c0.114,2.766,0.317,5.537,0.615,8.321l0.131,1.021l0.191,5.161c-0.508-3.506-0.932-7.03-1.249-10.561
				c0-1.38,0.024-2.76,0.089-4.134C272.14-115.436,272.218-115.37,272.307-115.322z M270.103-114.128v0.012
				c-0.083,2.252-0.144,0.986-0.006-0.281C270.091-114.307,270.097-114.217,270.103-114.128z M477.533-98.472
				c0,0.896,0.006,1.798,0.012,2.688c-0.023,0.574-0.042,1.135-0.06,1.703c-0.096,2.724-0.245,5.454-0.418,8.184l-0.048,0.734
				l-0.036-4.378c-0.06-3.787-0.173-7.574-0.263-11.361c0.263-0.34,0.525-0.681,0.788-1.021
				C477.515-100.777,477.521-99.625,477.533-98.472z M275.401-88.502c-0.096-0.46-0.191-0.92-0.275-1.374
				c-0.43-2.18-0.83-4.36-1.207-6.625C274.344-93.759,274.864-91.095,275.401-88.502z M275.802-86.519
				c-0.006-0.018-0.012-0.036-0.012-0.054c-0.065-0.311-0.125-0.615-0.316-1.571C275.575-87.606,275.688-87.062,275.802-86.519z
				 M667.921-56.623c-0.144,0.371-0.131,0.759-0.006,1.111c-0.233,0.239-0.472,0.472-0.705,0.71c-1.857,1.84-3.787,3.74-5.543,5.675
				c-2.425,2.67-4.97,5.334-7.521,7.891c3.62-5.107,6.995-10.298,10.316-15.662c1.894-3.064,3.781-6.242,5.489-9.414
				c1.236-2.294,2.407-4.629,3.62-6.935c0.771-1.47,1.505-2.951,2.228-4.444C673.231-70.648,670.489-63.665,667.921-56.623z
				 M289.48-51.79l-0.018-0.06l1.649,3.787l0.741,1.613c-0.131-0.203-0.257-0.406-0.395-0.615c-0.854-1.75-1.654-3.53-2.413-5.328
				C289.188-52.19,289.337-51.993,289.48-51.79z M656.004-51.139c-4.39,7.15-9.062,13.978-14.15,20.458
				c-1.355,0.848-2.646,1.75-4.002,2.658c-1.32,0.878-2.61,1.78-3.907,2.682c6.093-7.359,12.407-14.503,18.613-21.755
				c1.171-1.374,2.33-2.748,3.494-4.128C656.034-51.192,656.017-51.169,656.004-51.139z M652.642-31.809
				c-1.936,2.634-4.003,5.221-6.058,7.765c-2.001,2.467-4.092,4.845-6.26,7.198c-4.038,3.142-8.554,5.794-12.992,8.315
				c-2.503,1.41-4.958,2.867-7.473,4.247c5.328-4.295,10.364-8.906,15.131-13.798c4.259-3.273,8.435-6.696,12.383-10.328
				c2.969-2.742,5.949-5.436,8.769-8.315C654.982-35.088,653.83-33.434,652.642-31.809z M316.259-18.083
				c-1.027-0.956-2.007-1.894-2.969-2.843c0.006-0.113,0-0.221-0.018-0.334C314.246-20.203,315.231-19.152,316.259-18.083z
				 M477.796-18.172l0.149,2.586c0.119,2.031,0.227,4.056,0.322,6.086c0.335,7.174,0.598,14.348,0.598,21.528l-0.018,2.132
				c-0.03,0.042-0.055,0.083-0.084,0.125l-0.144-3.931c-0.335-9.157-0.604-18.326-0.807-27.501L477.796-18.172z M608.457,1.343
				c-0.317,0.227-0.64,0.448-0.956,0.675c-1.1,0.526-2.198,1.052-3.298,1.571c-0.633,0.292-1.266,0.591-1.905,0.884
				c4.928-3.07,9.79-6.236,14.611-9.509C614.137-2.821,611.324-0.718,608.457,1.343z M604.186-0.521
				c-6.756,4.635-13.84,9.127-20.9,13.291c-6.637,2.718-13.345,5.287-20.083,7.724c0.281-0.418,0.562-0.83,0.849-1.236
				c5.681-2.055,11.266-4.367,16.779-7.031c9.169-4.45,18.123-9.587,26.748-15.094C606.455-2.086,605.32-1.303,604.186-0.521z
				 M356.698,8.385c2.874,1.661,5.83,3.297,8.787,4.809c6.188,3.16,12.448,5.967,18.864,8.625c1.452,0.598,2.933,1.183,4.414,1.738
				c-1.786-0.591-3.572-1.219-5.34-1.875c-3.256-1.207-6.458-2.443-9.677-3.746c-3.733-1.511-7.395-3.243-11.039-4.958
				c-1.26-0.591-2.473-1.243-3.715-1.864c-1.045-0.52-2.091-1.051-3.136-1.595c-0.585-0.514-1.171-1.021-1.756-1.529
				c-1.463-1.267-2.927-2.521-4.402-3.763C352.009,5.649,354.351,7.023,356.698,8.385z M478.835,15.195l0.006,0.06l-0.006,0.86
				l-0.035-0.806v-0.06C478.812,15.231,478.823,15.213,478.835,15.195z M399.999,29.412c5,1.236,10.023,2.33,15.095,3.172
				c0.747,0.287,1.499,0.562,2.252,0.83c1.595,0.562,3.184,1.087,4.743,1.583c-7.043-0.938-14.127-2.049-21.068-3.644
				c-6.762-1.559-13.398-3.25-19.98-5.472c-1.488-0.502-2.957-1.021-4.427-1.553c-3.357-2.24-6.744-4.486-10.011-6.845
				C377.378,22.255,388.542,26.556,399.999,29.412z M422.53,33.617c1.207,0.131,2.426,0.257,3.656,0.376
				c2.383,0.436,4.778,0.83,7.168,1.171c2.114,0.298,4.241,0.436,6.35,0.705c1.033,0.131,2.145,0.173,3.189,0.245
				c3.124,0.209,6.23,0.298,9.366,0.304c7.896,0.018,15.758-0.585,23.553-1.828c0.119,1.153,0.275,2.3,0.496,3.417
				c0.096,0.507,0.186,1.039,0.305,1.553c-4.48-0.322-8.966-0.573-13.446-0.86c-5.316-0.347-10.626-0.735-15.937-1.153
				c-6.129-0.484-12.264-0.98-18.393-1.697c-2.036-0.549-4.079-1.129-6.11-1.762c-0.729-0.227-1.457-0.466-2.18-0.711
				C421.204,33.461,421.867,33.539,422.53,33.617z"/>
		</g>
	</g>
</g>
</svg>
