<?xml version="1.0" encoding="utf-8"?>
<!-- Generator: Adobe Illustrator 16.0.0, SVG Export Plug-In . SVG Version: 6.00 Build 0)  -->
<!DOCTYPE svg PUBLIC "-//W3C//DTD SVG 1.1//EN" "http://www.w3.org/Graphics/SVG/1.1/DTD/svg11.dtd">
<svg version="1.1" id="Layer_1" xmlns="http://www.w3.org/2000/svg" xmlns:xlink="http://www.w3.org/1999/xlink" x="0px" y="0px"
	 width="437.456px" height="399.202px" viewBox="260.912 20.297 437.456 399.202"
	 enable-background="new 260.912 20.297 437.456 399.202" xml:space="preserve">
<g transform="scale(1 -1)">
	<g transform="translate(0 -75)">
		<g>
			<path marker-start="none" marker-end="none" d="M538.443-343.504c-1.631,1.255-3.231,2.688-4.814,4.015
				c-6.416,5.376-12.789,10.8-19.169,16.217c-0.065,0.055-0.131,0.108-0.197,0.162c-0.698-1.84-1.392-3.686-2.078-5.531
				c-0.078-0.216-0.329-0.323-0.544-0.245c-0.215,0.077-0.322,0.328-0.245,0.543c0.724,1.941,1.452,3.877,2.187,5.812
				c-1.786,1.511-3.566,3.028-5.346,4.546c-0.891-1.105-1.805-2.198-2.736-3.256c1.481-0.878,3.041-1.894,4.569-2.628
				c1.034-0.592,1.393-1.918,0.801-2.951c-0.591-1.033-1.917-1.392-2.951-0.8c-2.98,1.696-5.848,3.464-8.751,5.28
				c-1.63,1.021-3.333,2.103-4.897,3.22c-3.59,2.544-7.108,5.125-10.579,7.801c2.844-3.184,5.711-6.344,8.578-9.504
				c0.782-0.896,0.698-2.27-0.197-3.052c-0.896-0.783-2.27-0.699-3.053,0.197c-3.345,3.763-6.522,7.682-9.683,11.6
				c-2.551,3.166-5.102,6.344-7.61,9.546c-0.872,1.11-1.75,2.216-2.622,3.327c-3.674,3.249-7.27,6.564-10.859,9.969
				c-6.559,6.201-12.872,12.693-18.978,19.348c-0.322-0.316-0.645-0.627-0.961-0.938c-0.024-0.191-0.108-0.376-0.239-0.525
				c-0.084-0.09-0.18-0.161-0.316-0.019c-0.019-0.018-0.042-0.041-0.061-0.06c-1.744-1.702-3.44-3.464-5.19-5.161
				c-1.679-1.63-3.351-3.261-5.023-4.903c0.287-0.317,0.579-0.621,0.872-0.92c0.287-0.329,0.257-0.837-0.071-1.123
				c-0.329-0.287-0.837-0.257-1.123,0.071c-0.27,0.287-0.532,0.573-0.795,0.866c-2.139-2.114-4.271-4.247-6.38-6.392
				c-0.794-1.117-1.535-2.275-2.168-3.554c-0.09-0.168-0.311-0.233-0.478-0.144c-0.168,0.09-0.233,0.311-0.144,0.478
				c0.125,0.257,0.257,0.508,0.389,0.759c-0.872-0.902-1.745-1.81-2.61-2.724c-2.623-2.766-5.299-5.495-7.885-8.291
				c-7.921-8.572-15.788-17.239-23.464-26.05c-0.221-1.052-0.46-2.097-0.717-3.147c-0.37-1.523-0.848-3.017-1.29-4.517
				c-0.406-1.397-0.932-2.753-1.446-4.115c-0.095-0.245-0.478-1.397-0.639-1.493c-0.448-0.27-0.693,0.824-0.794,1.057
				c-0.137,0.305-0.257,0.615-0.382,0.92c-0.501,1.171-0.961,2.348-1.403,3.53c-1.153-1.361-2.306-2.735-3.447-4.104
				c-0.364-0.43-1.016-0.483-1.446-0.119c-0.43,0.364-0.483,1.016-0.119,1.445c0.316,0.383,0.633,0.765,0.956,1.146
				c-1.547,0.502-1.535,2.497-1.846,3.848c-0.072,0.286-0.113,0.597-0.167,0.896c-0.149-0.119-0.298-0.232-0.442-0.347
				c-0.292-0.771-0.992-1.355-1.857-1.439c-0.024-0.006-0.048-0.006-0.066,0.019c-2.748-2.192-5.579-4.254-8.404-6.332
				c-0.371-0.269-0.902-0.191-1.171,0.179c-0.269,0.371-0.191,0.902,0.179,1.171c2.551,1.858,5.071,3.758,7.556,5.699
				c-0.305,0.34-0.501,0.771-0.549,1.254c-0.574,3.954-0.794,8.1-1.153,12.078c-0.496,5.436-0.866,10.89-1.267,16.331
				c-0.8,0.657-1.577,1.302-2.276,2.001c0.102-1.069,0.203-2.145,0.317-3.207c0.71-6.905,1.493-13.722,2.431-20.597
				c0.137-1.069-0.615-2.061-1.685-2.198c-1.069-0.137-2.061,0.615-2.198,1.685c-0.627,4.707-1.267,9.432-1.738,14.157
				c-0.89,8.941-1.637,17.824-2.276,26.796c-0.752,10.603-1.225,21.247-2.084,31.838c-0.52,6.403-1.051,12.747-1.727,19.139
				c-0.251,2.342-0.573,4.683-0.848,7.024c-0.06,0.46-0.113,0.902-0.167,1.344c-0.138,0.258-0.275,0.514-0.413,0.771
				c-0.663,1.17-1.356,2.329-2.001,3.506c-0.072,0.131-0.024,0.311,0.107,0.383c0.132,0.071,0.311,0.023,0.382-0.107
				c0.58-1.058,1.183-2.098,1.78-3.143c-0.036,0.418-0.06,0.842-0.066,1.29c-0.024,0.89-0.054,1.786-0.102,2.688l-0.257,2.586
				c-0.173,0-0.311,0.138-0.311,0.305c-0.006,0.538-0.012,1.082-0.018,1.625c-0.239-0.58-0.555-1.188-0.818-1.721
				c-0.549-1.104-1.081-2.216-1.648-3.314c-0.43-0.873-1.499-1.225-2.371-0.795c-0.873,0.43-1.225,1.5-0.795,2.371
				c0.657,1.398,1.386,2.82,2.109,4.188l0.562,1.039l-0.759,0.246c-1.362-0.938-2.742-1.864-4.122-2.76
				c-0.478-0.311-1.135-0.18-1.445,0.298c-0.311,0.478-0.179,1.136,0.298,1.446c0.902,0.621,1.804,1.242,2.7,1.857
				c-12.909,4.689-25.339,11.451-37.357,18.009l-9.444,5.269L295-189.326c-2.383,1.219-4.755,2.461-7.097,3.668
				c-4.091,1.857-8.142,3.703-12.179,5.573c-0.711,0.322-1.159,0.979-1.249,1.702c-2.043,1.153-4.08,2.318-6.111,3.482
				c-1.595,0.908-3.154,1.864-4.731,2.802c-0.316,0.185-0.812,0.454-1.284,0.74l-0.406,0.305l-0.125,0.078l-0.603,0.472
				c-0.807,0.961,0.119,2.592,1.338,2.437c0.645-0.083,2.599-1.153,3.292-1.5c0.687-0.346,1.374-0.699,2.055-1.045
				c0.03-0.006,0.06-0.012,0.096-0.018c0.454-0.155,1.087-0.645,1.535-0.896c0.292-0.161,0.585-0.334,0.872-0.532
				c2.831-1.29,7.688-3.918,12.526-6.594c8.458-3.889,16.982-7.652,25.453-11.511c0.734-0.341,1.475-0.681,2.216-1.016
				c-0.501,0.293-1.003,0.585-1.505,0.884c-7.664,4.462-15.375,8.87-23.266,12.926c-5.818,2.986-11.66,5.818-17.597,8.56
				c-0.251,0.107-0.448,0.299-0.251,0.663c-0.078-0.054-0.107-0.006-0.125,0.042c-0.036,0.054-0.06,0.119,0.048,0.161
				c-0.436,0.442-0.4,0.651-0.311,0.848c0.107,0.245,0.298,0.442,0.663,0.245c-0.042,0.083,0,0.107,0.042,0.131
				c3.13,1.607,6.141,3.387,9.169,5.167c-0.227,0.287-0.454,0.579-0.681,0.872c-3.871-2.509-7.724-5.036-11.576-7.58
				c-0.144-0.096-0.353-0.054-0.448,0.089s-0.054,0.353,0.09,0.448c3.841,2.533,7.682,5.053,11.541,7.556
				c-0.669,0.878-1.333,1.774-1.971,2.676c-0.186,0.251-0.132,0.615,0.119,0.801c0.251,0.185,0.615,0.131,0.801-0.12
				c0.663-0.926,1.344-1.828,2.037-2.718c3.996,2.581,8.004,5.143,12.042,7.676c2.855,1.792,5.752,3.518,8.625,5.28
				c16.546,10.143,33.486,19.766,50.57,28.982c17.108,9.223,34.383,18.069,51.837,26.683c0.968,0.556,1.983,1.141,2.998,1.726
				c8.053,4.624,15.997,9.349,24.229,13.625c2.825,1.469,5.675,2.891,8.673,3.99c0.054,0.03,0.102,0.06,0.155,0.089
				c3.44,1.906,6.936,3.728,10.388,5.609c10.143,5.52,20.477,10.698,30.625,16.212c14.713,7.986,29.317,16.14,43.929,24.323
				c27.202,15.238,54.369,30.5,82.115,44.74c21.736,11.152,44.131,21.653,67.021,30.219c0.753,0.281,1.565,0.179,2.21-0.209
				c0.508,0.239,1.033,0.418,1.535,0.37c0.843-0.089,1.846-1.421,2.443-2.025c1.081-1.099,2.091-2.401,2.754-3.829
				c1.762,0.974,3.518,1.959,5.274,2.957c4.54,2.568,9.031,5.232,13.571,7.807c-6.183-3.763-12.49-7.341-18.769-10.925
				c0.395-0.896,0.657-1.846,0.723-2.819c0.013-0.185,0.007-0.364,0-0.538c3.674-0.4,7.67-2.121,10.974-3.214
				c0.746-0.25,1.493-0.538,2.246-0.764c0.549-0.167,1.332-0.293,1.834-0.502c0.543-0.233,0.979-0.741,1.129-1.314
				c0.095-0.358,0.023-0.723,0-1.081c-0.156-2.168-1.59-4.02-2.617-5.848c-0.196-0.353-0.525-0.801-0.669-1.165
				c-0.185-0.472-0.585-1.146-0.549-1.667c0.06-0.806,0.364-1.38-0.102-2.234c-0.216-0.395-0.567-0.663-0.831-1.003
				c-0.399-0.52-0.782-1.058-1.135-1.619c-1.493-2.377-2.801-4.785-4.527-7.019c-1.236-1.601-2.796-3.25-4.312-4.593
				c-0.496-0.436-1.094-0.866-1.554-1.314c0.065,0.245,0.155,0.496,0.245,0.753c-1.464-2.64-2.921-5.28-4.372-7.921
				c0.806-0.573,1.057-1.685,0.549-2.55c-5.232-8.96-10.645-17.812-16.104-26.635c-3.668-7.001-7.329-14.02-10.854-21.08
				c-5.233-10.483-10.514-20.937-15.74-31.419c-7.718-15.477-15.25-31.049-22.938-46.539c-4.778-9.635-9.516-19.293-14.359-28.893
				c-6.953-13.781-13.984-27.496-21.158-41.163c-1.708-3.255-3.423-6.505-5.185-9.814c-2.066-4.743-4.151-9.558-6.212-14.378
				c-3.626-8.458-7.246-16.982-10.669-25.518c-3.787-9.45-7.521-18.888-11.218-28.374c-0.06-0.167-0.251-0.251-0.418-0.191
				c-0.167,0.061-0.251,0.251-0.191,0.419c7.64,19.808,15.71,39.447,24.103,58.956c-7.21-15.703-14.378-31.426-21.504-47.165
				c-0.072-0.161-0.263-0.233-0.424-0.161c-0.162,0.071-0.233,0.263-0.162,0.424c6.41,14.163,12.855,28.319,19.324,42.435
				c-4.199-7.592-8.398-15.19-12.747-22.692c-3.327-5.734-6.786-11.386-10.155-17.096c-0.388-0.669-0.782-1.332-1.183-1.995
				c-8.631-19.616-16.874-39.353-24.496-59.393c0.604-0.508,1.206-1.01,1.815-1.506c3.31-2.724,6.541-5.585,9.809-8.362
				c2.61-2.216,5.257-4.391,7.849-6.618c1.297-1.117,2.664-2.175,3.948-3.298c0.693-0.604,1.452-1.236,2.181-1.786
				C539.649-344.65,538.706-343.707,538.443-343.504z M379.379-340.756l0.687,1.756c0.406,1.141,0.777,2.282,1.147,3.435
				c0.639,1.989,1.195,4.08,1.685,6.219c-0.406-0.472-0.818-0.944-1.225-1.416c0.018-0.585,0.042-1.159,0.078-1.732
				c0.006-0.197-0.155-0.37-0.352-0.376c-0.197-0.006-0.371,0.155-0.376,0.353c-0.024,0.311-0.036,0.627-0.054,0.943
				c-1.201-1.397-2.396-2.795-3.59-4.199L379.379-340.756z M370.467-331.198c-0.023,0.113-0.048,0.227-0.071,0.346
				c0.012-0.125,0.023-0.251,0.036-0.376C370.443-331.217,370.455-331.211,370.467-331.198z M380.938-328.409
				c0.018,0.723,0.047,1.451,0.089,2.187c-0.562-0.693-1.111-1.392-1.648-2.091c0.287-0.448,0.364-1.021,0.167-1.541
				c-0.083-0.161-0.161-0.316-0.239-0.472C379.851-329.688,380.395-329.048,380.938-328.409z M374.23-328.093
				c-0.071,0.233-0.137,0.466-0.203,0.705l0.137-0.699l0.012-0.048C374.194-328.122,374.212-328.104,374.23-328.093z
				 M374.887-327.537l0.012,0.03l0.023,0.054l0.395,0.949c0.448,1.129,0.944,2.246,1.386,3.375c0.394,1.016,0.794,2.031,1.195,3.047
				c-1.285,2.98-2.515,5.985-3.847,8.936c-1.146,2.533-2.317,5.173-3.357,7.777c-0.382,0.347-0.758,0.693-1.141,1.033
				c0.334-2.335,0.699-4.665,1.093-6.982c0.162-0.442,0.293-0.89,0.424-1.284c0.078-0.263,0.042-0.525-0.072-0.753
				c0.979-5.507,2.168-10.955,3.715-16.331C374.768-327.633,374.828-327.585,374.887-327.537z M381.076-325.416
				c0.012,0.238,0.03,0.483,0.048,0.723c-0.317-0.27-0.633-0.538-0.95-0.807c-0.293-0.723-0.598-1.439-0.884-2.139
				C379.863-326.91,380.466-326.163,381.076-325.416z M383.782-325.082c0.167,0.891,0.322,1.792,0.472,2.688
				c-0.824-0.944-1.637-1.899-2.431-2.861c-0.06-0.765-0.102-1.518-0.125-2.276C382.39-326.713,383.083-325.9,383.782-325.082z
				 M383.226-322.854c-0.412-0.364-0.854-0.759-1.302-1.147c-0.012-0.149-0.03-0.292-0.036-0.436
				C382.336-323.899,382.796-323.361,383.226-322.854z M386.326-322.113c2.748,3.214,5.501,6.422,8.267,9.623
				c-2.228-2.12-4.486-4.205-6.774-6.242c-0.52-0.466-1.033-0.926-1.553-1.392c-0.472-0.52-0.944-1.052-1.41-1.577
				c-0.138-0.884-0.281-1.756-0.43-2.628C385.06-323.595,385.693-322.854,386.326-322.113z M534.101-272.229
				c-1.476-2.921-2.831-5.866-4.211-8.805c-0.872-1.858-1.685-3.764-2.623-5.585c-3.178-6.188-6.355-12.413-9.976-18.356
				c-2.651-4.349-5.585-8.649-8.757-12.634c-0.048-0.06-0.089-0.113-0.137-0.167c0.418-0.358,0.83-0.717,1.248-1.075
				c1.32-1.159,2.664-2.324,4.015-3.477C520.075-305.453,526.927-288.776,534.101-272.229z M384.797-318.696
				c0.162,1.194,0.311,2.377,0.442,3.542c0.047,0.484,0.102,0.974,0.149,1.445c-0.926-2.072-1.863-4.157-2.819-6.229l-0.233-0.496
				l-0.012-0.03c-0.03-0.197-0.054-0.4-0.078-0.597C383.101-320.279,383.955-319.491,384.797-318.696z M381.422-311.068
				c-0.562,0.209-1.117,0.454-1.66,0.723c-0.592-1.207-1.189-2.407-1.78-3.607c-0.239-0.49-0.848-0.693-1.338-0.454
				c-0.49,0.238-0.693,0.848-0.454,1.338c0.604,1.236,1.207,2.479,1.816,3.715c-2.108,1.32-4.05,2.999-5.926,4.707
				c0-0.006,0.006-0.023,0.018-0.042c0.89-2.251,1.864-4.545,2.855-6.755c1.141-2.563,2.18-5.186,3.285-7.76
				C379.302-316.492,380.365-313.78,381.422-311.068z M506.223-316.271c-0.705,0.592-1.403,1.188-2.103,1.786
				c-0.567-0.901-1.141-1.804-1.708-2.706c0.627-0.483,1.267-0.968,1.905-1.434C504.963-317.854,505.596-317.071,506.223-316.271z
				 M390.943-312.717c0.604,0.609,1.213,1.218,1.816,1.834c-0.209,0.012-0.412,0.095-0.567,0.257
				c-1.105,0.943-2.317,3.028-3.285,4.97c-0.968-2.24-1.941-4.475-2.921-6.702c-0.185-1.882-0.388-3.758-0.615-5.627
				c-0.012-0.066-0.018-0.132-0.03-0.197C387.234-316.391,389.098-314.568,390.943-312.717z M507.507-314.599
				c0.55,0.734,1.063,1.529,1.577,2.288c5.669,8.362,9.701,17.567,13.464,26.909c0.006,0.013,0.012,0.03,0.019,0.048
				c-6.033-9.683-12.204-19.27-18.303-28.911c0.711-0.597,1.416-1.2,2.127-1.798C506.761-315.584,507.131-315.101,507.507-314.599z
				 M502.604-313.195c-9.475,8.07-18.96,16.128-28.547,24.037c-3.297,2.712-6.601,5.399-9.904,8.105
				c-1.009,0.818-2.066,1.696-3.13,2.533c-0.675,0.353-1.35,0.711-2.007,1.062c2.145-2.329,4.283-4.677,6.415-7.024
				c3.948-4.354,7.963-8.685,12.091-12.896c4.605-3.763,9.24-7.473,13.93-11.11c3.136-2.455,6.236-5.018,9.384-7.484
				C501.427-315.047,502.018-314.121,502.604-313.195z M503.672-311.48c3.626,5.901,7.204,11.821,10.692,17.801
				c1.075,1.84,2.133,3.697,3.19,5.555c-0.479,0.274-0.902,0.538-1.117,0.675c-2.39,1.47-4.755,2.999-6.899,4.82
				c-6.875,5.854-11.863,12.729-16.827,20.202c-1.392,2.097-2.825,4.205-4.157,6.344c-0.119,0.191-0.071,0.454,0.119,0.573
				c0.191,0.12,0.454,0.072,0.574-0.119c1.177-1.894,2.455-3.77,3.686-5.627c2.515-3.787,5.131-7.753,8.01-11.266
				c1.738-2.121,3.446-4.032,5.341-6.009c0.961-1.004,2.066-1.936,3.1-2.861c2.371-2.115,5.029-4.134,7.646-5.943
				c0.228-0.162,0.466-0.323,0.699-0.479c3.446,6.093,6.798,12.228,10.322,18.272c4.324,7.431,8.548,14.97,12.705,22.525
				c-4.772,3.555-8.082,8.44-11.271,13.393c-1.589,2.461-3.154,4.946-4.755,7.401c-1.709,2.621-3.524,4.916-5.543,7.287
				c-0.454,0.531-1.028,1.188-1.548,1.643c-0.525,0.46-1.009,0.991-1.529,1.457c-0.639,0.574-1.409,1.094-2.072,1.661
				c-0.132,0.107-0.155,0.311-0.048,0.442c0.107,0.131,0.311,0.154,0.442,0.047c0.74-0.645,1.553-1.206,2.275-1.875
				c1.242-1.146,2.557-2.396,3.632-3.697c0.842-1.016,1.625-2.049,2.438-3.083c0.316-0.399,0.692-0.896,0.974-1.319
				c1.792-2.742,3.607-5.473,5.388-8.226c3.561-5.514,6.798-10.472,11.863-14.677c2.264,4.115,4.51,8.243,6.75,12.365
				c11.51,21.217,22.687,42.679,33.396,64.309c7.699,15.555,15.279,31.133,22.711,46.819c2.061,4.343,4.067,8.715,6.11,13.064
				c1.255,2.67,2.467,5.364,3.793,7.998c1.278,2.545,2.497,5.137,3.841,7.646c2.432,4.54,4.845,9.062,7.348,13.565
				c4.868,8.775,10.047,17.436,15.291,26.026c1.398,2.825,2.79,5.657,4.158,8.494c3.314,6.881,6.702,13.745,9.957,20.656
				c6.631,14.073,13.255,28.158,19.951,42.202c-3.291-7.754-6.547-15.531-10.06-23.188c-1.935-4.224-3.895-8.435-5.865-12.64h0.012
				c0.155-0.072,0.221-0.269,0.149-0.424c-3.793-7.92-7.586-15.835-11.361-23.738c7.001,13.75,14.097,27.483,21.51,41.042
				c0.609,1.219,1.23,2.449,1.852,3.686c5.251,10.441,10.424,20.931,15.675,31.372l0.185,0.066l0.066-0.186
				c-4.737-9.456-9.456-18.912-14.134-28.29c2.103,3.823,4.247,7.735,6.439,11.624c0.019,0.514,0.209,1.027,0.579,1.446
				c0.21,0.233,0.431,0.478,0.651,0.729c1.314,2.318,2.652,4.624,4.015,6.911c0.406,0.717,1.099,1.165,1.857,1.296
				c0.316,0.693,0.579,1.397,0.776,2.114c0.167,0.598,0.442,1.362,0.49,1.977c0.023,0.341,0.119,0.729,0.161,1.076
				c0.042,0.37,0.048,0.752,0.09,1.123l0.018,1.159l-0.209,0.036c-2.587,0.239-5.418,0.155-8.034,0.144
				c-1.153-0.006-2.473,0.12-3.745,0.424l-0.036-0.161c-0.155-0.263-0.4-0.603-0.621-0.83c-0.717-0.747-1.41-1.476-2.246-2.097
				l-0.723-0.52l-0.49-0.483c-0.376-0.365-0.759-0.717-1.146-1.045c-0.293-0.245-0.573-0.376-0.908-0.448l-0.364-0.292
				c-0.37-0.341-0.711-0.693-0.991-1.052c-0.795-0.878-2.121-0.979-3.053-0.263c-0.102-0.227-0.239-0.448-0.412-0.639
				c-0.322-0.353-0.646-0.705-0.968-1.052c-0.012-0.018-0.023-0.036-0.029-0.054c-0.149-0.263-0.353-0.472-0.598-0.633
				c-7.246-7.909-14.402-15.949-21.826-23.69c-6.888-7.18-13.715-14.408-20.62-21.576c-6.159-6.397-12.407-12.711-18.644-19.031
				c2.187,2.109,4.367,4.223,6.547,6.35c2.485,2.425,5.006,4.827,7.461,7.282c3.536,3.542,7.114,7.048,10.645,10.597
				c3.925,3.948,7.783,7.951,11.666,11.935l0.245,0.006l0.006-0.245c-3.889-3.984-7.741-7.999-11.666-11.947
				c-9.796-9.862-19.79-19.527-29.813-29.156c-1.434-1.38-2.867-2.754-4.301-4.122c-4.79-4.797-9.61-9.569-14.383-14.378
				c-9.044-9.109-18.195-18.129-27.305-27.173c-14.139-14.031-28.224-28.11-42.231-42.267c-8.279-8.363-16.517-16.737-24.676-25.208
				c-5.221-6.069-10.352-12.215-15.304-18.511c-5.119-6.511-10.047-13.1-14.903-19.808l-0.215-0.036l-0.036,0.215
				c1.738,2.377,3.446,4.785,5.209,7.144c3.022,4.038,6.099,8.028,9.192,12.012c4.021,5.173,8.226,10.238,12.467,15.244
				c-0.717-0.747-1.434-1.5-2.145-2.246c-7.933-8.446-15.585-17.078-23.146-25.834c0.071-0.167,0.138-0.34,0.209-0.508
				c0.083-0.239-0.042-0.52-0.281-0.604c-0.209-0.078-0.454,0.012-0.531,0.245c-1.511-1.583-2.944-3.255-4.372-4.922
				c-0.275-0.317-0.544-0.633-0.812-0.95c0.238-1.004,0.483-2.007,0.74-3.005c0.054-0.233-0.09-0.472-0.322-0.525
				c-0.233-0.054-0.472,0.089-0.525,0.322c-0.203,0.794-0.395,1.601-0.586,2.401c-8.076-9.449-16.151-18.947-24.515-28.123
				c-2.64-2.896-5.555-5.65-8.428-8.326c-1.153-1.075-2.294-2.162-3.429-3.256c0.466-0.543,0.938-1.075,1.415-1.601
				c0.06-0.042,0.114-0.083,0.174-0.119c0.065,0.161,0.137,0.328,0.209,0.495c-0.132,0.21-0.03,0.358,0.125,0.473
				c0.03,0.018,0.065,0.041,0.102,0.065c0.072,0.173,0.149,0.353,0.228,0.538c0.238,0.585,0.92,0.859,1.505,0.621
				c0.585-0.239,0.86-0.92,0.621-1.506c-0.155-0.353-0.299-0.698-0.448-1.051c0.795-1.123,1.625-2.246,2.461-3.346
				c3.8-3.034,7.497-6.224,11.045-9.497c3.793-3.513,7.443-7.133,11.021-10.83c0.155,0.155,0.311,0.311,0.472,0.466
				c0.071,0.072,0.155,0.138,0.239,0.203c-1.84,1.805-3.698,3.584-5.573,5.376c-3.304,3.143-6.876,5.884-10.394,8.751
				c-0.419,0.323-0.49,0.932-0.168,1.351c0.323,0.418,0.932,0.489,1.351,0.167c1.69-1.356,3.464-2.641,5.101-4.062
				c1.487-1.291,2.98-2.569,4.463-3.871c4.36-3.823,8.541-8.052,12.573-12.222c1.518-1.577,3.028-3.16,7.312-7.867
				c0.018-0.012,0.036-0.023,0.054-0.035c11.929-7.204,24.61-12.86,37.793-17.55c0.222-0.078,0.335-0.335,0.257-0.556
				c-0.077-0.221-0.334-0.334-0.555-0.257c-3.101,1.075-6.249,2.276-9.277,3.53c-1.989,0.824-3.984,1.583-5.949,2.461
				c-1.207,0.538-2.432,1.027-3.632,1.577c-4.163,1.905-8.272,3.883-12.329,5.979c0.341-0.275,0.675-0.55,1.004-0.812
				c2.024-1.654,4.08-3.273,6.087-4.952c3.028-2.532,6.164-4.987,9.139-7.574c1.744-1.517,3.572-2.992,5.347-4.474
				c4.271-3.561,8.548-7.162,12.753-10.806c1.983-1.727,3.996-3.423,6.009-5.119C503.051-312.479,503.361-311.982,503.672-311.48z
				 M384.062-304.276c-0.221,0.436-0.442,0.872-0.657,1.319c-0.543-1.116-1.087-2.228-1.631-3.333
				c0.006-0.018,0.012-0.042,0.018-0.06c0.036-0.215-0.096-0.424-0.317-0.466c-0.483-1.01-0.967-2.013-1.463-3.017
				c0.52-0.293,1.051-0.556,1.589-0.782C382.426-308.506,383.244-306.397,384.062-304.276z M399.76-303.691
				c-0.662,1.069-1.308,2.114-1.917,3.237c-1.267,2.318-2.389,4.731-3.506,7.126c-0.03,0.061-0.06,0.12-0.089,0.186
				c-1.505-3.536-3.011-7.084-4.528-10.627c0.597-1.129,1.188-2.359,1.905-3.404c0.353-0.52,0.789-1.039,1.117-1.541
				c0.155-0.233,0.484-0.484,0.681-0.693c0.149-0.155,0.233-0.353,0.245-0.549C395.71-307.885,397.741-305.794,399.76-303.691z
				 M380.377-304.486c0.036,0.078,0.071,0.156,0.113,0.228c-0.604,3.04-0.962,6.093-1.111,9.151
				c-2.174,4.133-4.415,8.243-6.445,12.448c-2.342,2.885-4.666,5.788-7.025,8.673c0.43-2.992,0.824-5.973,1.177-8.966
				c0.144-1.278,0.299-2.562,0.46-3.841c1.714-1.696,3.471-3.351,5.113-5.125c1.326-1.439,2.3-2.986,3.303-4.659
				c0.185-0.341,0.054-0.782-0.287-0.968s-0.783-0.054-0.968,0.287c-0.442,0.776-0.824,1.601-1.332,2.341
				c-0.448,0.651-0.985,1.267-1.445,1.906c-0.376,0.525-0.962,1.104-1.41,1.589c-0.902,0.961-1.833,1.899-2.753,2.843
				c0.143-1.158,0.287-2.312,0.436-3.464c0.083-0.717,0.173-1.434,0.269-2.15c0.633-0.615,1.261-1.219,1.87-1.811
				c1.553-1.523,3.058-3.046,4.521-4.665c0.771-0.849,1.374-1.822,2.103-2.682c0.305-0.412,0.215-1.004-0.197-1.309
				c-0.413-0.305-1.004-0.215-1.308,0.197c-1.523,2.198-3.381,4.175-5.203,6.135c-0.37,0.388-0.747,0.788-1.123,1.188
				c0.251-0.687,0.508-1.355,0.771-2.013c0.46-1.159,0.914-2.318,1.368-3.465c0.466-0.437,0.926-0.86,1.374-1.284
				c0.824-0.789,1.702-1.523,2.532-2.294c0.938-0.878,1.989-1.762,3.118-2.557C378.991-307.329,379.684-305.913,380.377-304.486z
				 M506.527-304.092l-0.34,0.03c-0.938,1.033-1.822,2.12-2.736,3.172c-0.89,1.021-1.852,2.03-2.771,3.028
				c-3.44,3.745-7.341,7.365-11.045,10.848c-4.725,4.438-9.294,8.895-13.661,13.679c-2.216,2.432-4.193,4.987-6.188,7.592
				c-1.72,2.24-3.184,4.624-4.671,7.007c-0.55,0.885-1.171,1.905-1.625,2.838l0.155,0.083c0.866-1.773,2.031-3.494,3.07-5.173
				c0.789-1.278,1.679-2.503,2.569-3.715c5.597-7.61,11.958-13.805,18.869-20.196c1.679-1.553,3.31-3.16,4.97-4.73
				c2.719-2.581,5.448-5.215,8.005-7.951c1.021-1.093,2.18-2.293,3.118-3.446c0.734-0.902,1.529-1.863,2.312-2.724L506.527-304.092z
				 M385.926-299.396c-0.102,0.167-0.281,0.454-0.43,0.711c-0.58-1.183-1.159-2.365-1.738-3.555
				c0.119-0.232,0.239-0.472,0.358-0.711c0.083-0.179,0.167-0.352,0.251-0.525C384.893-302.12,385.412-300.759,385.926-299.396z
				 M382.216-300.598c-0.555,1.088-1.111,2.175-1.571,3.059c-0.149-1.535,0.096-3.506,0.448-5.453
				C381.47-302.198,381.84-301.397,382.216-300.598z M407.006-296.021c0.782,0.842,1.565,1.685,2.348,2.532
				c-0.377,0.383-0.741,0.837-1.069,1.207c-1.947,2.139-3.297,5.065-4.468,7.676c-0.932,2.085-1.744,4.265-2.725,6.319
				c-0.113,0.233-0.227,0.479-0.346,0.729c-0.174-0.406-0.341-0.818-0.508-1.225c-0.693-1.685-1.38-3.363-2.073-5.036
				c2.192-4.265,4.301-8.596,6.553-12.818c0.149-0.305,0.03-0.688-0.274-0.837c-0.305-0.148-0.687-0.029-0.836,0.275
				c-0.777,1.625-1.607,3.249-2.407,4.868c-1.189,2.401-2.336,4.845-3.566,7.228c-0.878-2.126-1.768-4.247-2.67-6.361
				c-0.048-0.107-0.096-0.215-0.138-0.322c0.609-1.219,1.213-2.449,1.804-3.686c1.117-2.372,2.509-5.054,4.021-7.288
				C402.783-300.531,404.897-298.285,407.006-296.021z M368.89-301.732c-0.024,0.012-0.048,0.036-0.078,0.066
				c0.065-0.305,0.131-0.604,0.197-0.896C368.968-302.294,368.932-302.019,368.89-301.732z M476.619-300.711
				c-2.903,2.491-5.758,4.964-8.596,7.455c0.155-0.18,0.305-0.353,0.46-0.525c0.83-0.962,1.654-1.918,2.515-2.909
				c1.123-0.92,2.288-1.858,3.459-2.784c1.296-1.033,2.586-2.055,3.883-3.058C477.748-301.917,477.163-301.296,476.619-300.711z
				 M363.478-301.601c-0.298,3.793-0.579,7.586-0.866,11.361c-0.795,0.955-1.542,1.936-2.187,2.891
				c-0.096,0.132-0.179,0.27-0.263,0.395c0.018-0.274,0.042-0.556,0.065-0.83c0.299-3.739,0.574-7.484,0.89-11.23
				c0.03-0.065,0.06-0.131,0.096-0.196c0.394-0.86,1.302-1.805,2.282-2.677C363.49-301.792,363.484-301.696,363.478-301.601z
				 M369.141-299.373c0.071-0.525,0.143-1.045,0.215-1.57c0.197-0.161,0.388-0.323,0.58-0.484
				C369.667-300.746,369.404-300.06,369.141-299.373z M368.299-297.15c-0.179,0.472-0.358,0.949-0.532,1.434
				c-0.083,0.083-0.167,0.167-0.245,0.257c0.323-1.601,0.657-3.196,0.992-4.791c0.072-0.054,0.137-0.107,0.203-0.155
				C368.573-299.331,368.436-298.25,368.299-297.15z M384.313-295.974c-0.042,0.029-0.083,0.071-0.119,0.113
				c-1.38,1.493-2.73,3.017-4.056,4.552c-0.012-1.338,0.012-2.67,0.084-4.008c0.776-1.506,1.565-3.017,2.335-4.534
				C383.148-298.561,383.734-297.271,384.313-295.974z M386.583-297.652c-0.089,0.215-0.179,0.43-0.269,0.651
				c-0.036-0.072-0.066-0.138-0.102-0.203c0.078-0.054,0.149-0.126,0.203-0.203c0.054-0.09,0.107-0.18,0.161-0.269
				C386.577-297.664,386.583-297.658,386.583-297.652z M387.939-294.08c0.131,0.412,0.257,0.824,0.388,1.242
				c-0.364-0.765-0.734-1.523-1.099-2.282c-0.036-0.37-0.065-0.734-0.102-1.104C387.396-295.508,387.67-294.797,387.939-294.08z
				 M386.768-296.069c-0.006-0.018-0.012-0.03-0.018-0.042c0-0.006,0.006-0.018,0.012-0.029
				C386.762-296.117,386.762-296.094,386.768-296.069z M471.93-252.59c-0.119,0.203-0.06,0.479,0.144,0.598s0.478,0.06,0.598-0.144
				c2.484-4.229,5.28-8.339,8.142-12.316c8.082-11.225,18.171-22.144,29.323-30.369c0.19-0.144,0.221-0.424,0.077-0.615
				c-0.144-0.19-0.424-0.221-0.615-0.077C494.646-284.487,481.403-268.503,471.93-252.59z M379.325-290.359
				c-1.416,1.649-2.813,3.321-4.193,5.006c1.314-2.682,2.724-5.334,4.056-7.938c0.042-0.096,0.09-0.185,0.137-0.269
				C379.302-292.503,379.302-291.435,379.325-290.359z M383.716-291.261c-1.081,2.228-2.15,4.468-3.214,6.708
				c-0.131-1.32-0.233-2.641-0.292-3.954c1.487-1.721,3.004-3.405,4.582-5.048C384.433-292.784,384.074-292.014,383.716-291.261z
				 M387.21-289.379c0.143,2.162,0.304,4.324,0.49,6.48c-0.024,0.06-0.048,0.12-0.072,0.186c-0.699,1.637-1.511,3.237-2.21,4.874
				c-0.574,1.332-1.201,2.658-1.798,3.984c-0.095,0.197-0.185,0.4-0.274,0.604c-0.233,0.251-0.466,0.501-0.693,0.752
				c-0.872-3.44-1.541-6.935-1.971-10.453c0.555-1.188,1.117-2.377,1.684-3.554c1.058-2.223,2.133-4.486,3.142-6.756
				C386.075-291.966,386.643-290.676,387.21-289.379z M413.135-289.397c-3.256,3.542-5.537,7.467-7.652,11.804
				c-0.884,1.81-1.702,3.62-2.49,5.459c-0.592-1.457-1.201-2.908-1.805-4.36c0.126-0.251,0.257-0.501,0.389-0.752
				c1.727-3.447,3.13-7.145,5.148-10.43c0.454-0.735,0.896-1.541,1.416-2.229c0.514-0.681,1.087-1.522,1.69-2.12
				c0.149-0.149,0.305-0.305,0.454-0.454C411.235-291.452,412.185-290.425,413.135-289.397z M367.17-287.964
				c-0.096,0.096-0.186,0.197-0.275,0.287c0.089-1.135,0.179-2.276,0.269-3.417c0.209-0.723,0.43-1.445,0.651-2.168
				C367.6-291.5,367.385-289.737,367.17-287.964z M417.979-284.141c-1.894,3.172-3.918,6.212-5.932,9.336
				c-2.078,3.208-4.36,6.667-5.896,10.185c-0.042,0.09-0.083,0.18-0.125,0.275c-0.657-1.715-1.32-3.429-1.978-5.132
				c-0.197-0.508-0.394-1.009-0.597-1.511c1.075-2.491,2.341-4.946,3.512-7.27c0.4-0.801,0.908-1.56,1.332-2.348
				c1.309-2.431,3.668-5.848,5.771-7.783C415.368-286.972,416.671-285.557,417.979-284.141z M388.853-285.562
				c-0.251,0.562-0.496,1.129-0.735,1.69c-0.12-1.392-0.227-2.783-0.329-4.175C388.148-287.223,388.5-286.393,388.853-285.562z
				 M379.833-283.149c-0.269,0.567-0.538,1.129-0.8,1.696c-2.682,5.646-5.543,11.882-7.084,17.95
				c-0.418,1.643-0.752,3.231-1.021,4.833c-0.71,0.896-1.421,1.798-2.132,2.705c-2.372,3.011-4.605,6.069-6.822,9.176
				c0.382-2.252,0.741-4.51,1.075-6.774c0.574-3.937,1.087-7.866,1.547-11.768c0.048-0.263,0.089-0.489,0.131-0.717
				c0.263-1.463,0.46-2.962,0.681-4.432c0.012-0.12,0.03-0.239,0.048-0.353c1.284-1.505,2.55-3.028,3.829-4.534
				c0.281-0.34,0.562-0.675,0.842-1.003c-1.78,4.33-3.292,8.644-4.253,13.278c-0.239,1.147-0.191,2.562-0.167,3.739
				c1.093-1.995,1.458-4.993,2.103-7.216c0.556-1.899,1.117-3.745,1.756-5.614c0.532-1.548,1.165-3.047,1.732-4.576
				c0.257-0.692,0.549-1.38,0.854-2.055c2.419-2.945,4.809-5.901,7.282-8.793C379.522-286.118,379.654-284.631,379.833-283.149z
				 M361.34-280.98c-0.436,0.681-0.86,1.403-1.267,2.186c-0.119,0.228-0.036,0.514,0.191,0.634c0.227,0.119,0.514,0.035,0.633-0.191
				c0.006-0.023,0.018-0.042,0.03-0.06c-0.663,4.115-1.314,8.219-1.959,12.335c-0.167,0.185-0.34,0.37-0.508,0.556
				c0.508-6.177,0.98-12.354,1.47-18.529c0.119-0.061,0.221-0.149,0.298-0.27c0.532-1.021,1.177-2.013,2.133-2.879
				C362.021-285.126,361.68-283.054,361.34-280.98z M366.142-279.792c0.209-2.114,0.4-4.062,0.585-6.01
				c0-0.065,0.006-0.125,0.012-0.185c0.072-0.072,0.143-0.144,0.215-0.215C366.692-284.075,366.423-281.942,366.142-279.792z
				 M456.22-283.042c-0.274,0.341-0.543,0.688-0.812,1.016c-4.72,4.266-9.402,8.572-14.025,12.944
				c2.562-2.688,5.19-5.322,7.818-7.891c2.963-2.909,5.974-5.776,9.068-8.626C457.559-284.727,456.877-283.89,456.22-283.042z
				 M452.379-273.58c-0.012,0.006-0.023,0.019-0.029,0.03c-0.872,0.353-1.953,0.991-3.022,1.643
				c0.932-1.016,1.863-2.037,2.795-3.053c1.201-1.326,2.396-2.664,3.584-4.014c2.097-1.816,4.199-3.626,6.314-5.436
				C458.812-280.76,455.617-277.128,452.379-273.58z M390.723-281.017c-0.083,0.042-0.155,0.096-0.221,0.167
				c-0.651,0.669-1.296,1.344-1.935,2.02c-0.102-1.034-0.197-2.067-0.287-3.101c0.353-0.812,0.705-1.625,1.075-2.425
				C389.814-283.251,390.269-282.134,390.723-281.017z M423.14-278.579c-2.329,3.165-4.402,6.54-6.451,9.867
				c-2.342,3.781-4.444,7.813-6.475,11.773c-0.245,0.473-0.496,0.956-0.753,1.439c-0.914-2.341-1.822-4.683-2.729-7.024
				c2.228-5.304,5.483-9.88,8.947-14.85c1.243-1.792,2.426-3.572,3.572-5.394C420.548-281.369,421.844-279.972,423.14-278.579z
				 M381.99-271.788c-0.329,0.353-0.657,0.705-0.986,1.063c-0.998,1.069-1.936,2.192-2.879,3.304
				c-1.917,2.252-3.781,4.51-5.627,6.791c0.083-0.358,0.179-0.717,0.269-1.063c0.43-1.81,0.902-3.577,1.476-5.352
				c1.595-4.952,3.62-9.778,5.794-14.516C380.496-278.281,381.159-275.02,381.99-271.788z M388.13-278.37
				c-0.926,0.974-1.839,1.947-2.748,2.927c0.364-0.836,0.741-1.673,1.129-2.491c0.472-1.01,0.914-2.03,1.362-3.059
				C387.951-280.114,388.041-279.242,388.13-278.37z M392.999-275.223c-0.884,2.085-1.768,4.176-2.646,6.26
				c-0.191-0.029-0.388-0.006-0.562,0.084c-0.406-2.628-0.734-5.269-1.015-7.921c0.842-0.896,1.696-1.798,2.557-2.688
				C391.894-278.072,392.449-276.65,392.999-275.223z M425.493-276.077c2.216,2.354,4.569,4.6,6.846,6.899
				c0.412,0.412,0.968,0.627,1.518,0.627c-0.437,0.467-0.866,0.944-1.291,1.422c-3.53,3.907-6.606,8.106-9.748,12.323
				c-1.29,1.727-2.574,3.435-3.858,5.119c-1.793,1.577-3.549,3.166-5.269,4.791c-0.377-0.92-0.747-1.84-1.117-2.76
				c2.431-5.692,6.003-10.167,10.029-15.148c1.732-2.15,3.273-4.379,4.922-6.583c0.245-0.353,0.155-0.848-0.197-1.093
				s-0.849-0.155-1.093,0.197c-0.723,1.057-1.41,2.18-2.156,3.207c-2.259,3.112-4.701,6.141-6.882,9.295
				c-0.794,1.141-1.852,2.503-2.503,3.728c-0.502,0.949-1.093,1.869-1.595,2.831c-0.389,0.729-0.74,1.47-1.069,2.216
				c-0.687-1.72-1.368-3.446-2.049-5.173c2.055-4.079,4.301-8.136,6.612-11.994c0.807-1.344,1.655-2.652,2.474-3.99
				c0.704-1.153,1.475-2.24,2.239-3.357c0.902-1.319,1.858-2.664,2.855-3.972C424.604-277.021,425.045-276.549,425.493-276.077z
				 M389.588-268.651c-0.042-0.042-0.066-0.019-0.084,0.012c-0.562,0.639-1.093,1.344-1.631,2.013
				c-0.83,1.021-1.654,2.049-2.479,3.076c-0.227-0.639-0.448-1.284-0.663-1.923c-0.55-1.602-1.051-3.22-1.505-4.851
				c0.12-0.299,0.245-0.598,0.376-0.902c1.565-1.708,3.148-3.423,4.749-5.119C388.644-273.759,388.984-271.179,389.588-268.651z
				 M396.386-266.209c-1.052,1.188-2.079,2.413-3.083,3.608c-0.646,0.759-1.272,1.517-1.894,2.287
				c-0.466-2.042-0.878-4.092-1.225-6.146c0.054-0.143,0.107-0.286,0.161-0.418c0.179-0.227,0.353-0.448,0.532-0.663
				c0.215-0.274,0.239-0.645,0.102-0.943c0.771-1.966,1.553-3.931,2.341-5.896C394.36-271.662,395.376-268.933,396.386-266.209z
				 M519.186-271.859c-6.625,6.827-12.766,14.008-18.44,21.642c-1.738,2.341-3.506,4.736-5.119,7.162
				c-0.597,0.896-1.254,1.785-1.815,2.699c-0.119,0.18-0.072,0.431,0.107,0.55c0.179,0.119,0.43,0.071,0.55-0.107
				c0.729-1.188,1.589-2.359,2.377-3.513c1.476-2.15,3.022-4.349,4.605-6.421c2.7-3.53,5.376-6.983,8.243-10.388
				c3.189-3.793,6.618-7.515,10.065-11.074c0.149-0.155,0.144-0.412-0.013-0.562C519.591-272.021,519.334-272.015,519.186-271.859z
				 M444.25-264.865c-0.013,0.007-0.019,0.013-0.024,0.019c0.036-0.161-0.06-0.275-0.161-0.376c-0.167-0.168-0.335-0.329-0.502-0.49
				c1.183-1.255,2.359-2.515,3.536-3.787c0.866-0.49,1.888-1.058,3.13-1.727C448.264-269.076,446.286-266.932,444.25-264.865z
				 M431.246-268.091c0.328-0.394,0.669-0.782,1.003-1.17v-0.007C431.915-268.879,431.58-268.484,431.246-268.091z M384.755-262.75
				c-0.442,0.55-0.878,1.099-1.314,1.654c-2.192,2.748-4.444,5.454-6.684,8.166c0.711-2.366,1.529-4.726,2.348-6.959
				c1.111-3.053,2.324-6.063,3.56-9.067c0.018-0.048,0.036-0.09,0.054-0.138C383.328-266.961,384.015-264.847,384.755-262.75z
				 M377.348-258.771c-1.045,2.831-2.037,5.687-2.861,8.589c-0.186,0.222-0.365,0.442-0.544,0.669
				c-4.349,5.311-8.829,10.705-12.849,16.277c-0.89,1.23-1.786,2.461-2.67,3.697c0.042-0.173,0.083-0.346,0.131-0.52
				c1.212-4.976,2.234-9.963,3.118-14.992c2.861-3.949,5.848-7.79,8.948-11.535c-0.102,0.789-0.185,1.589-0.257,2.413
				c-0.03,0.329,0.215,0.634,0.544,0.663c0.328,0.03,0.633-0.215,0.663-0.543c0.089-0.998,0.167-2.055,0.311-3.047
				c0.06-0.418,0.131-0.83,0.209-1.242c2.437-2.885,4.94-5.723,7.508-8.506c0.591-0.657,1.189-1.309,1.786-1.96
				C379.953-265.492,378.573-262.123,377.348-258.771z M436.454-266.771c-1.469,1.655-2.921,3.321-4.39,4.982
				c-1.272,1.421-2.503,2.879-3.716,4.342c-1.947,1.512-3.871,3.064-5.759,4.647c1.644-2.091,3.298-4.175,4.971-6.242
				c2.019-2.496,4.115-4.809,6.344-7.12c0.483-0.514,1.009-1.045,1.553-1.577C435.785-267.415,436.12-267.093,436.454-266.771z
				 M391.099-259.931c-0.979,1.213-1.941,2.437-2.879,3.668c-0.358-0.831-0.699-1.661-1.033-2.503c0.896-2.312,1.798-4.63,2.7-6.941
				C390.245-263.771,390.645-261.849,391.099-259.931z M386.81-260.343c-0.042,0.096-0.083,0.197-0.125,0.299
				c-0.209-0.538-0.412-1.081-0.609-1.625c0.836-0.998,1.673-2.001,2.491-3.005C387.975-263.24,387.39-261.795,386.81-260.343z
				 M439.597-263.724c-0.64,0.698-1.284,1.392-1.941,2.078c-2.265,2.348-4.516,4.666-6.815,6.983
				c-2.934,2.95-6.087,5.806-9.307,8.542c1.135-1.452,2.27-2.909,3.429-4.343c0.358-0.358,0.723-0.711,1.087-1.063
				c2.491-2.425,4.928-4.958,7.479-7.317c1.888-1.756,3.775-3.512,5.669-5.269C439.327-263.98,439.465-263.855,439.597-263.724z
				 M358.61-263.783c-0.215,1.392-0.43,2.789-0.645,4.181c0.12-1.428,0.245-2.854,0.364-4.276
				C358.419-263.831,358.514-263.802,358.61-263.783z M393.064-254.543c-0.083-0.119-0.173-0.245-0.257-0.364
				c-0.245-0.836-0.478-1.679-0.693-2.521c1.476-1.822,2.981-3.691,4.534-5.508C395.43-260.146,394.223-257.345,393.064-254.543z
				 M399.336-257.96c0.209,0.562,0.424,1.123,0.634,1.69c0.215,0.795,0.412,1.602,0.627,2.407c-1.159,1.685-2.324,3.346-3.513,4.977
				c-1.165-1.619-2.317-3.244-3.47-4.868c1.236-3.083,2.515-6.147,4.002-9.116C398.213-261.245,398.721-259.584,399.336-257.96z
				 M386.213-258.855c-1.446,3.62-2.867,7.281-4.134,10.991c-0.597,0.854-1.195,1.708-1.786,2.574
				c-7.729,11.152-15.011,22.597-22.979,33.588c-0.215,0.305-0.143,0.735,0.162,0.95s0.735,0.143,0.95-0.162
				c3.363-4.736,6.744-9.449,10.071-14.216c3.895-5.579,7.736-11.17,11.696-16.695c-0.872,3.105-1.589,6.242-2.079,9.426
				c-0.065,0.394,0.197,0.776,0.591,0.842c0.395,0.065,0.777-0.197,0.842-0.591c0.436-2.771,1.069-5.37,1.72-8.094
				c0.376-1.59,0.801-3.202,1.261-4.815c2.001-2.729,4.038-5.388,6.123-8.027c0.657,1.475,1.35,2.938,2.061,4.39
				c-1.822,4.582-3.625,9.182-5.131,13.876c-0.09,0.27-0.179,0.538-0.263,0.807c-0.914,1.087-1.816,2.187-2.742,3.262
				c-1.965,2.264-3.913,4.552-5.842,6.845c-4.319,5.144-8.536,10.227-12.448,15.681c-0.227,0.311-0.155,0.753,0.155,0.979
				s0.752,0.155,0.979-0.155c5.543-7.759,11.911-14.802,18.225-21.935c0.114-0.137,0.233-0.268,0.353-0.399
				c-0.376,1.242-0.741,2.485-1.099,3.745c-0.466,1.625-0.806,3.327-1.183,4.981c-0.395,1.751-0.723,3.429-0.878,5.221
				c-0.012,0.06-0.018,0.126-0.006,0.186c-3.584,4.707-7.12,9.444-10.59,14.246c-0.293,0.4-0.203,0.968,0.197,1.261
				c0.4,0.292,0.968,0.203,1.26-0.197c2.772-3.722,5.501-7.425,8.333-11.104c4.516-5.866,9.211-11.595,13.912-17.316
				c-0.92,2.497-1.798,5.011-2.551,7.538c-0.615,2.055-1.29,4.151-1.756,6.242c-0.072,0.305,0.12,0.615,0.424,0.688
				c0.305,0.071,0.615-0.12,0.687-0.425c1.087-5.251,2.664-10.417,4.402-15.519c1.135-1.38,2.264-2.754,3.393-4.134
				c1.451-1.786,2.879-3.59,4.301-5.405c0.035,0.054,0.071,0.102,0.113,0.155c0.179,0.244,0.364,0.495,0.55,0.746
				c-1.924,6.72-4.104,13.351-5.579,18.606l-0.013,0.024c-3.147,4.653-6.182,9.378-9.324,14.031
				c-1.427,2.109-2.837,4.229-4.318,6.302c-1.129,1.577-2.33,3.094-3.482,4.647c-0.275,0.364-0.209,0.896,0.155,1.171
				s0.896,0.209,1.171-0.155c1.183-1.583,2.419-3.136,3.578-4.743c2.097-2.915,4.08-5.914,6.129-8.871
				c1.356-1.966,2.688-3.931,4.032-5.884c-0.621,2.139-1.212,4.289-1.762,6.451c-0.459,1.792-0.818,3.59-1.201,5.4
				c-0.077,0.43,0.209,0.86,0.64,0.938c0.43,0.078,0.86-0.209,0.938-0.639c0.388-2.592,1.003-5.119,1.583-7.669
				c0.573-2.557,1.254-5.084,1.953-7.604c3.494-5.012,7.108-9.892,11.284-14.384c0.549,0.717,1.104,1.439,1.66,2.162
				c-0.251,0.801-0.508,1.602-0.782,2.39c-1.303,3.71-2.641,7.407-3.961,11.11c-1.911,5.34-3.924,11.266-4.981,17.072
				c-1.828,2.533-3.62,5.078-5.418,7.634c-1.81,2.563-3.625,5.137-5.471,7.676c-0.024,0.024-0.042,0.048-0.06,0.072
				c-12.299-9.593-24.419-19.401-36.324-29.479c1.272-0.663,2.586-1.32,3.787-2.055c0.334-0.209,0.771-0.424,1.189-0.663
				l0.125-0.096l0.191-0.113l0.752-0.579l0.155-0.299c0.95-1.721-0.609-3.488-2.27-3.172l-0.705,0.263
				c-0.645,0.37-1.368,0.711-2.049,1.052c0.472-1.387,0.938-2.766,1.356-4.164c0.472-1.613,0.926-3.231,1.356-4.855
				c2.061-2.976,4.295-5.885,6.469-8.662c3.028-3.883,6.206-7.682,9.426-11.438c-0.424,1.738-0.824,3.697-0.842,5.394
				c-0.042,0.383,0.239,0.734,0.621,0.776s0.735-0.239,0.777-0.621c0.018-0.502,0.173-1.188,0.263-1.702
				c0.251-1.47,0.585-2.927,0.896-4.385c0.137-0.657,0.292-1.32,0.46-1.983c1.207-1.403,2.419-2.801,3.632-4.193
				c1.965-2.281,3.942-4.545,5.89-6.839C385.681-260.224,385.944-259.536,386.213-258.855z M524.597-257.368
				c-0.394,0.376-0.771,0.794-1.171,1.159c-0.901,0.824-1.827,1.947-2.628,2.885c-1.458,1.708-2.873,3.417-4.211,5.227
				c-2.234,3.022-4.569,6.003-6.702,9.092c-1.75,2.532-3.686,4.939-5.531,7.4c-0.113,0.144-0.084,0.364,0.06,0.479
				c0.144,0.113,0.364,0.083,0.478-0.061c1.165-1.547,2.407-3.046,3.53-4.623c2.413-3.393,4.916-6.846,7.473-10.137
				c2.33-2.998,4.552-5.955,7.174-8.703c1.142-1.2,2.366-2.491,3.656-3.53c0.161-0.144,0.179-0.4,0.036-0.562
				c-0.144-0.161-0.4-0.179-0.562-0.036C525.678-258.3,525.104-257.858,524.597-257.368z M387.604-255.457
				c-1.075,1.416-2.132,2.85-3.178,4.301c0.729-2.174,1.505-4.324,2.3-6.409C387.013-256.86,387.306-256.161,387.604-255.457z
				 M392.15-255.845c-0.149-0.209-0.299-0.425-0.442-0.634c-0.06-0.083-0.143-0.137-0.239-0.149c0.113-0.143,0.233-0.286,0.346-0.43
				C391.923-256.657,392.037-256.251,392.15-255.845z M391.123-256.072c0.544,0.759,1.087,1.523,1.625,2.282
				c0,0.006,0,0.012,0,0.023c-0.371,0.908-0.741,1.828-1.105,2.748c-0.162,0.395-0.323,0.795-0.478,1.188
				c-0.627-1.35-1.272-2.693-1.894-4.044c0.604-0.765,1.207-1.517,1.81-2.275C391.093-256.12,391.105-256.096,391.123-256.072z
				 M423.862-251.891c-2.335,2.401-4.623,4.797-6.881,7.222c-0.741,0.782-1.481,1.583-2.216,2.384
				c-0.27-0.646-0.532-1.291-0.801-1.936c0.412-0.383,0.818-0.765,1.236-1.141c0.484-0.454,0.968-0.896,1.458-1.339
				c-0.496,0.64-0.998,1.278-1.494,1.918c-0.149,0.197-0.119,0.489,0.078,0.639s0.489,0.12,0.639-0.077
				c1.506-1.924,3.011-3.853,4.528-5.794c1.905-1.637,3.847-3.244,5.818-4.827C425.434-253.862,424.646-252.876,423.862-251.891z
				 M396.654-248.301c-2.049,2.808-4.158,5.549-6.362,8.291c-0.95,1.171-1.905,2.371-2.885,3.536
				c0.466-1.487,0.95-2.975,6.057-15.62l0.018,0.012l0.125-0.232c-0.012-0.03-0.018-0.054-0.03-0.084
				c-3.13,6.936-3.118,6.905,0.06-0.149C394.641-251.132,395.645-249.717,396.654-248.301z M402.132-250.296
				c-0.657,1.857-1.356,3.697-2.061,5.543c-0.538-0.74-1.075-1.481-1.607-2.216c0.525-0.711,1.058-1.428,1.595-2.133
				c0.574-0.764,1.1-1.576,1.637-2.377C401.851-251.066,401.994-250.672,402.132-250.296z M403.857-245.518
				c0.019,0.055,0.042,0.108,0.066,0.168c-0.741,0.938-1.481,1.881-2.223,2.825c-0.483-0.657-0.961-1.314-1.439-1.972
				c0.663-1.827,1.326-3.661,1.983-5.495C402.885-248.265,403.368-246.896,403.857-245.518z M399.76-243.952
				c-0.824,2.145-1.666,4.283-2.473,6.434c-0.161,0.418-0.322,0.836-0.483,1.26c-2.861,3.668-5.717,7.348-8.566,11.033
				c-1.87,2.401-3.728,4.814-5.579,7.228c0.298-1.326,0.573-2.664,0.872-3.996c0.735-3.357,1.607-6.75,2.568-10.089
				c1.016-1.141,2.031-2.282,3.022-3.435c1.38-1.619,2.754-3.285,4.169-4.868c1.696-1.905,3.22-3.942,4.737-5.985
				C398.602-245.564,399.181-244.759,399.76-243.952z M409.61-240.959c-0.257,0.257-0.514,0.514-0.771,0.771
				c-0.49-0.479-0.979-0.95-1.47-1.416c-0.328-0.322-0.86-0.316-1.183,0.012c-0.322,0.329-0.316,0.86,0.012,1.183
				c0.479,0.472,0.962,0.95,1.439,1.434c-0.627,0.64-1.254,1.284-1.869,1.936c-0.46-0.609-0.908-1.213-1.356-1.815
				c0.347-1.267,0.693-2.527,1.04-3.794c0.023-0.125,0-0.25-0.066-0.352c0.287-0.365,0.574-0.735,0.866-1.1
				c0.132-0.018,0.263-0.054,0.395-0.096c0.454-0.167,0.824-0.472,1.075-0.848C408.338-243.684,408.971-242.321,409.61-240.959z
				 M401.235-241.921c-1.183,1.499-2.359,3.004-3.536,4.51c0.316-0.866,0.627-1.732,0.944-2.599
				c0.436-1.225,0.878-2.443,1.319-3.662C400.382-243.092,400.806-242.507,401.235-241.921z M403.763-239.735
				c-0.149-0.196-0.299-0.399-0.442-0.597c0.316-0.412,0.633-0.818,0.95-1.23C404.103-240.947,403.936-240.338,403.763-239.735z
				 M410.028-240.087c0.316,0.687,0.95,1.135,1.648,1.248c-0.227,0.251-0.441,0.508-0.663,0.759
				c-0.556-0.538-1.104-1.075-1.654-1.607c0.191-0.197,0.389-0.394,0.579-0.585C409.969-240.213,409.998-240.153,410.028-240.087z
				 M409.67-236.903c-0.765,0.537-1.529,1.075-2.288,1.612c-0.071,0.048-0.125,0.113-0.161,0.186
				c-0.34-0.454-0.681-0.908-1.021-1.362c0.646-0.669,1.297-1.332,1.947-1.995C408.654-237.949,409.162-237.43,409.67-236.903z
				 M405.25-236.497c-0.013,0.012-0.024,0.023-0.036,0.042c-0.132,0.137-0.132,0.364,0.006,0.495
				c0.119,0.12,0.322,0.126,0.454,0.024c0.711,0.943,1.434,1.887,2.15,2.825c-1.355,1.535-2.652,3.088-3.984,4.725
				c-1.422,1.732-2.802,3.638-4.115,5.538c0.968-3.316,1.989-6.613,2.969-9.929c0.502-1.726,0.991-3.446,1.469-5.167
				C404.521-237.465,404.886-236.981,405.25-236.497z M408.863-234.251c0.024,0.018,0.054,0.041,0.09-0.013
				c-0.257,0.186-0.448,0.395-0.639,0.609c-0.191-0.257-0.383-0.508-0.574-0.765c0.066-0.012,0.132-0.035,0.191-0.071
				c0.209-0.149,0.424-0.299,0.633-0.448C408.553-234.688,408.654-234.431,408.863-234.251z M414.813-231.295
				c2.061,2.378,4.031,4.922,6.158,7.229c2.233,2.425,4.438,4.897,6.606,7.4c-0.615,1.774-1.201,3.561-1.762,5.346
				c-1.876-2.311-3.733-4.635-5.58-6.959c0.024-0.047,0.042-0.102,0.061-0.143c0.353-0.347,0.698-0.682,1.051-1.004
				c0.335-0.322,0.353-0.866,0.03-1.2c-0.036-0.036-0.065-0.065-0.12-0.007c0.007-0.023,0.019-0.047,0.03-0.064
				c0.119-0.287-0.018-0.628-0.305-0.747h-0.436c-0.138,0.054-0.251,0.161-0.312,0.304c-0.113,0.233-0.221,0.473-0.322,0.717
				c-0.269,0.24-0.531,0.484-0.788,0.735c-0.019-0.024-0.036-0.042-0.048-0.06c-2.503-3.166-4.97-6.338-7.419-9.521
				c0.215-0.682,0.43-1.362,0.663-2.037c0.048-0.161-0.042-0.334-0.203-0.382s-0.335,0.041-0.383,0.203
				c-0.185,0.537-0.358,1.081-0.531,1.624c-0.478-0.627-0.956-1.248-1.428-1.869c0.734-0.776,1.487-1.547,2.264-2.294
				c0.054-0.065,0.107-0.132,0.155-0.197C413.075-233.26,413.947-232.292,414.813-231.295z M546.734-230.739l-0.395,0.036
				c-1.727,1.947-3.369,3.954-5.125,5.901c-6.499,7.21-12.622,14.103-16.6,23.057l0.203,0.096c2.21-4.976,5.112-9.169,8.464-13.41
				c2.401-3.041,5.251-5.872,7.831-8.775c0.878-0.992,1.804-1.971,2.658-2.98c0.991-1.171,1.983-2.39,2.998-3.53L546.734-230.739z
				 M414.293-224.67c1.404,1.84,2.861,3.655,4.307,5.471c-2.132,2.025-4.127,4.098-6.146,6.291
				c-2.837,3.076-5.489,6.678-7.992,10.029c-0.37,0.49-0.734,0.979-1.099,1.475c0.86-4.629,2.216-9.271,3.578-13.512
				c1.194-3.739,2.437-7.484,3.715-11.193c0.263-0.771,0.508-1.554,0.753-2.336C412.37-227.191,413.332-225.937,414.293-224.67z
				 M425.577-210.537c-0.335,1.075-0.657,2.156-0.974,3.237c-1.272,1.104-2.491,2.27-3.638,3.5c-2.61,2.766-5.048,5.729-7.336,8.823
				c0.377-2.449,0.902-4.88,1.476-7.288c0.52-2.186,1.1-4.426,1.786-6.565c0.604-1.876,1.255-3.709,1.894-5.573
				c0.347-1.027,0.734-2.078,1.153-3.123C421.802-215.185,423.684-212.855,425.577-210.537z M417.997-215.627
				c-0.812,2.187-1.679,4.414-2.359,6.643c-0.801,2.617-1.529,5.191-2.223,7.843c-0.771,2.957-1.26,5.872-1.744,8.87
				c-0.006,0.012-0.006,0.024-0.012,0.042c-3.889,5.591-7.348,11.546-10.52,17.526c-3.303-2.521-6.594-5.06-9.874-7.61
				c0.024-0.036,0.054-0.071,0.083-0.107c1.768-2.389,3.489-4.82,5.251-7.216c1.38-1.881,2.76-3.757,4.14-5.633
				c-0.054,0.448-0.096,0.896-0.132,1.344c-0.048,0.514,0.335,0.979,0.849,1.027s0.979-0.334,1.027-0.848
				c0.041-1.44,0.167-2.897,0.364-4.373c0.131-0.179,0.274-0.371,0.418-0.556c1.445-1.941,2.992-3.823,4.468-5.746
				c1.822-2.372,3.889-4.558,5.824-6.822c1.493-1.756,3.088-3.5,4.73-5.185C418.194-216.158,418.093-215.896,417.997-215.627z
				 M431.509-212.09c-0.251,0.113-0.573,0.346-0.812,0.483c-0.634,0.358-1.344,0.747-1.936,1.159
				c-0.472,0.322-0.956,0.645-1.434,0.979c-0.28-0.34-0.556-0.68-0.836-1.021c0.543-1.822,1.123-3.632,1.744-5.424
				C429.328-214.646,430.421-213.375,431.509-212.09z M543.287-204.403c-1.988,2.67-3.799,5.478-5.722,8.189
				c-0.974,1.368-1.983,2.885-3.064,4.158c-0.699,0.824-1.398,1.606-2.108,2.419l0.018,0.353l0.353-0.018
				c1.188-1.386,2.335-2.67,3.435-4.146c2.389-3.213,4.558-6.588,6.935-9.814c2.976-4.032,6.248-8.619,10.562-11.326l0.065-0.363
				l-0.364-0.066C549.41-212.67,546.012-208.053,543.287-204.403z M362.182-204.922c-3.041-2.377-6.093-4.755-9.146-7.115
				c0.138-0.059,0.257-0.143,0.365-0.238l0.006-0.012C356.334-209.826,359.255-207.365,362.182-204.922z M438.049-204.313
				c3.16,3.787,6.309,7.592,9.45,11.397c-0.478,1.816-0.968,3.626-1.464,5.442c-0.453-0.526-0.907-1.045-1.355-1.565
				c0.173-0.197,0.347-0.395,0.525-0.585c0.395-0.466,0.329-1.177-0.137-1.571c-0.467-0.394-1.177-0.329-1.571,0.138
				c-0.096,0.107-0.191,0.215-0.287,0.329c-1.965-2.276-3.924-4.552-5.884-6.828c-0.035-0.149-0.113-0.293-0.227-0.4
				c-0.084-0.078-0.174-0.137-0.269-0.179c-0.329-0.382-0.651-0.759-0.974-1.135c-0.431-0.502-0.86-1.003-1.291-1.505
				c0.191-0.866,0.371-1.738,0.55-2.598c0.036-0.203-0.102-0.413-0.305-0.448s-0.412,0.102-0.448,0.305
				c-0.143,0.663-0.28,1.332-0.418,2.007c-1.941-2.288-3.87-4.605-5.776-6.929c1.201-1.111,2.426-2.204,3.686-3.249
				C433.934-209.241,435.994-206.773,438.049-204.313z M351.251-208.822c10.095,7.759,19.581,16.157,29,24.735
				c2.132,1.941,4.294,3.853,6.463,5.764c-0.173,0.239-0.346,0.478-0.514,0.717c-0.203,0.269-0.143,0.663,0.125,0.866
				s0.663,0.144,0.866-0.125c0.149-0.215,0.299-0.424,0.454-0.633c0.651,0.574,1.308,1.153,1.959,1.732
				c8.273,7.341,16.522,14.67,24.873,21.922c2.294,1.989,4.677,3.871,6.971,5.854c5.991,4.952,11.994,9.892,17.979,14.826
				c0.054,0.065,0.102,0.113,0.162,0.155c0.023,0.018,0.054,0.036,0.083,0.048c4.277,3.524,8.548,7.048,12.819,10.584
				c17.955,14.856,35.899,29.735,54.112,44.274c9.42,7.526,18.941,14.886,28.48,22.257c2.616,2.019,5.263,4.026,7.915,6.009
				c-0.442,0.466-0.878,0.938-1.296,1.428c-0.245,0.263-0.233,0.693,0.029,0.938c0.263,0.245,0.693,0.233,0.938-0.03
				c0.442-0.532,0.908-1.045,1.386-1.553c6.278,4.677,12.628,9.265,18.972,13.84c2.396,1.672,4.719,3.44,7.055,5.191
				c6.988,5.245,13.774,10.817,20.44,16.462c2.474,2.091,4.94,4.205,7.354,6.374c-0.18,0.603,0.167,1.225,0.759,1.404
				c0.292,0.083,0.603,0.048,0.859-0.084c6.738,5.836,13.423,11.732,20.172,17.556c-8.696-4.384-17.424-8.703-26.175-12.98
				c-14.599-7.138-29.329-14.037-44.077-20.871c-5.687-2.634-11.373-5.263-17.065-7.879c-2.581-1.476-5.161-2.963-7.729-4.45
				c-2.037-1.075-4.038-2.24-6.069-3.333c-3.829-2.067-7.771-3.925-11.672-5.854c-1.917-0.95-3.889-1.81-5.83-2.712
				c-4.044-1.881-8.142-3.667-12.239-5.424c-5.573-2.389-11.17-4.719-16.797-7.078c-0.717-0.442-1.47-0.902-2.216-1.356
				c-13.745-8.393-27.394-16.988-40.912-25.805c-2.341-1.434-4.641-2.927-6.923-4.456c-14.354-9.318-28.564-18.846-42.649-28.499
				c-8.936-6.129-17.812-12.305-26.671-18.518c0.065-0.06,0.131-0.119,0.197-0.179c0.119-0.113,0.125-0.322,0.012-0.442
				c-0.113-0.12-0.322-0.125-0.442-0.012c-0.102,0.083-0.203,0.173-0.299,0.263c-2.921-2.049-5.842-4.104-8.757-6.152l-0.209,0.042
				l0.042,0.209c2.897,2.037,5.794,4.074,8.691,6.105c-2.742,2.509-5.483,5.914-7.592,9.223c-2.312-1.29-4.623-2.586-6.935-3.871
				c-9.103-5.078-18.236-10.083-27.364-15.113c0.227-0.28,0.448-0.562,0.675-0.842c2.27-2.855,4.713-5.747,7.275-8.345
				c0.765-0.777,1.481-1.619,2.252-2.39c2.873-2.873,5.914-5.782,9.02-8.398l0.036-0.37l-0.371-0.036
				c-7.747,5.418-13.822,12.586-19.491,20.053c-0.681-0.376-1.362-0.753-2.037-1.123c-2.186-1.207-4.384-2.401-6.583-3.584
				c-0.239-0.144-0.472-0.287-0.705-0.43c3.315-3.387,6.284-7.007,9.474-10.561c3.548-3.96,6.732-7.652,11.039-10.776
				c0.197-0.143,0.239-0.436,0.096-0.633c-0.144-0.197-0.436-0.239-0.633-0.095c-2.832,1.894-5.537,4.54-7.825,7.054
				c-1.225,1.344-2.413,2.694-3.62,4.056c-1.016,1.147-1.959,2.389-2.957,3.554c-2.061,2.395-4.08,4.749-6.26,6.989
				c-2.419-1.47-4.838-2.939-7.246-4.409l-0.012-0.006c0.932-0.37,1.774-0.944,2.623-1.451c0.388-0.233,0.764-0.58,1.123-0.86
				c1.959-1.523,3.584-3.566,5.072-5.543c3.417-4.545,6.057-9.916,9.963-14.079l-0.024-0.382l-0.382,0.024
				c-3.1,3.327-5.501,7.461-8.022,11.23c-2.491,3.722-4.97,7.222-8.811,9.647c-0.741,0.466-1.41,0.789-2.103,1.069
				c-3.393-2.079-6.774-4.188-10.148-6.302c5.011-5.711,10.513-10.908,16.104-16.104c1.201-0.645,2.395-1.29,3.59-1.941
				c5.131-2.802,10.256-5.627,15.298-8.596c5.8-3.417,11.552-6.798,17.245-10.4c1.499-0.95,3.01-1.881,4.492-2.855
				c0.012-0.012,0.024-0.024,0.042-0.03c3.793-1.894,7.568-3.835,11.301-5.83C350.068-209.719,350.659-209.277,351.251-208.822z
				 M426.771-209.074c-0.138,0.096-0.274,0.197-0.406,0.311c-1.158,2.802-0.65,0.926-0.107-0.938
				C426.432-209.492,426.599-209.283,426.771-209.074z M429.812-205.394c1.313,1.577,2.628,3.154,3.954,4.73
				c-0.138,0.639-0.287,1.285-0.46,1.912c-0.49,1.744-0.992,3.471-1.512,5.191c-0.322,0.358-0.639,0.723-0.955,1.081
				c-0.783,0.884-1.476,1.888-2.24,2.795c-0.383,0.454-0.723,0.944-1.087,1.416c-1.899,2.455-3.65,4.952-5.454,7.466
				c-2.586,3.608-4.964,7.389-7.312,11.152c-0.734,1.165-1.469,2.372-2.18,3.59c-3.555-2.658-7.097-5.34-10.627-8.034
				c2.187-4.008,4.516-7.921,7.013-11.78c0.747-1.17,1.535-2.359,2.354-3.542c-0.078,0.866-0.132,1.726-0.144,2.527
				c-0.018,0.478,0.347,0.89,0.824,0.908c0.479,0.018,0.891-0.346,0.908-0.824c0.048-0.615,0.036-1.26,0.065-1.882
				c0.048-1.146,0.168-2.312,0.299-3.458c0.836-1.123,1.69-2.222,2.557-3.267c2.037-2.467,4.068-4.767,6.225-7.121
				c0.537-0.591,1.104-1.159,1.69-1.72c-2.001,7.138-3.722,14.336-5.544,21.588c-0.102,0.454,0.191,0.914,0.646,1.015
				s0.914-0.191,1.016-0.645c0.997-4.91,2.079-9.79,3.178-14.676c0.639-2.867,1.326-5.734,2.079-8.578
				c0.424-0.399,0.854-0.794,1.271-1.194c0.431-0.412,0.86-0.824,1.297-1.236C428.385-207.115,429.096-206.254,429.812-205.394z
				 M435.977-198.053c-0.042,0.03-0.084,0.066-0.119,0.108c-0.914,0.86-1.888,1.894-2.706,2.843c-0.019,0.012-0.03,0.03-0.042,0.042
				c0.436-1.326,0.872-3.1,1.272-4.88C434.913-199.308,435.445-198.68,435.977-198.053z M561.877-196.924
				c-0.359,0.311-0.693,0.675-1.04,0.997c-0.884,0.831-1.989,1.715-2.963,2.449c-1.099,0.831-2.233,1.685-3.285,2.569
				c-3.136,2.622-5.692,4.48-7.108,8.476c-0.155,0.442-0.322,1.117-0.34,1.583c-0.019,0.555-0.096,1.344,0.023,1.881
				c0.006,0.144,0.138,0.251,0.281,0.245c0.143-0.006,0.25-0.138,0.244-0.281c-0.065-0.281-0.071-0.884-0.054-1.189
				c0.233-4.098,3.244-7.257,6.338-9.712c0.807-0.639,1.583-1.326,2.39-1.978c0.842-0.681,1.679-1.397,2.521-2.072
				c1.146-0.914,2.181-1.954,3.226-2.981c0.376-0.37,0.699-0.866,1.087-1.23C562.868-198.148,562.169-197.175,561.877-196.924z
				 M442.738-190.174c-2.813,3.363-5.358,7.138-7.718,10.812c-2.377,3.697-4.742,7.419-7.066,11.152
				c-1.905,3.059-4.032,6.081-6.212,8.972c-2.771-2.043-5.531-4.092-8.285-6.152c2.777-4.791,5.92-9.373,9.163-13.87
				c2.497-3.482,5.125-6.798,7.861-10.077c-0.126,0.394-0.257,0.794-0.383,1.195c-2.228,6.869-4.617,14.061-4.987,21.331
				c-0.024,0.49,0.346,0.92,0.836,0.944s0.92-0.347,0.943-0.836c0.096-2.497,0.299-4.838,0.688-7.311
				c0.448-2.855,1.177-5.645,1.924-8.435c0.77-2.909,1.63-5.806,2.496-8.697c1.631-1.911,3.333-3.799,5.113-5.573
				C438.981-194.529,440.856-192.349,442.738-190.174z M452.929-186.345c-0.376,1.177-0.729,2.365-1.058,3.554
				c-0.495-0.215-1.093-0.114-1.469,0.287c-1.183-1.338-2.359-2.676-3.536-4.02c0.215-0.848,0.436-1.69,0.657-2.533
				c0.25-0.986,0.489-1.965,0.729-2.951C449.811-190.121,451.37-188.233,452.929-186.345z M445.809-186.65
				c-0.747,2.694-1.512,5.388-2.288,8.076c-0.788,2.7-1.63,5.448-2.419,8.202c-2.729,3.787-5.394,7.628-8.063,11.457
				c-1.231,1.756-2.527,3.458-3.848,5.149c-2.055-1.505-4.109-3.011-6.164-4.522c2.103-2.694,4.026-5.603,5.949-8.398
				c5.023-7.317,9.42-15.065,15.227-21.803C444.733-187.88,445.271-187.265,445.809-186.65z M449.948-181.955
				c-2.103,2.557-4.128,5.179-6.104,7.837c0.907-3.865,1.84-7.724,2.813-11.571C447.75-184.44,448.849-183.197,449.948-181.955z
				 M456.578-181.931c1.774,2.145,3.578,4.265,5.4,6.368c-0.406,1.523-0.788,3.064-1.146,4.605c-0.479-0.52-0.956-1.039-1.428-1.559
				c0.346-0.603,0.633-1.236,0.943-1.852c0.138-0.149,0.125-0.388-0.023-0.526c-0.149-0.137-0.389-0.125-0.526,0.024
				c-0.556,0.317-1.104,0.645-1.624,1.003c-0.92-1.009-1.84-2.019-2.754-3.028c-1.046-1.153-2.079-2.306-3.112-3.464
				c0.382-1.708,0.824-3.435,1.332-5.125C454.619-184.302,455.599-183.12,456.578-181.931z M400.848-174.147
				c-0.048,0.089-0.102,0.185-0.149,0.28c-2.987-2.425-5.956-4.85-8.913-7.257C394.778-178.801,397.801-176.471,400.848-174.147z
				 M457.588-173.425c-0.167,0.131-0.334,0.274-0.489,0.43c-0.872,0.825-1.679,1.864-2.462,2.784
				c-1.386,1.625-2.766,3.268-4.104,4.934c-0.19-3.978,0.347-7.903,1.082-11.731c0.154-0.831,0.322-1.667,0.507-2.503
				C453.933-177.481,455.754-175.456,457.588-173.425z M280.347-165.056c-1.995-1.249-3.984-2.503-5.973-3.751
				c2.688-1.272,5.376-2.551,8.046-3.871c3.763-1.875,7.502-3.793,11.224-5.758C288.919-174.279,284.439-169.829,280.347-165.056z
				 M449.028-169.112c-0.335,2.264-0.633,4.534-0.86,6.804c-3.722,4.713-7.365,9.527-10.817,14.461
				c-2.204-1.589-4.396-3.184-6.589-4.779c0.018-0.018,0.03-0.036,0.048-0.048c1.56-1.977,3.088-4.062,4.563-6.099
				c1.38-1.917,2.766-3.847,4.17-5.782c-0.191,0.794-0.371,1.583-0.538,2.372c-0.125,0.532,0.209,1.081,0.741,1.207
				c0.531,0.125,1.081-0.209,1.206-0.741c0.269-1.26,0.609-2.515,0.896-3.775c0.238-1.069,0.483-2.133,0.734-3.196
				c2.682-3.614,5.454-7.174,8.368-10.537C450.157-175.88,449.524-172.487,449.028-169.112z M576.397-175.677l-0.328,0.042
				c-5.604,6.905-11.141,13.936-16.594,20.966l0.041,0.329l0.329-0.042c5.453-7.031,10.991-14.062,16.594-20.967L576.397-175.677z
				 M463.86-173.401c2.27,2.598,4.546,5.245,6.899,7.765c1.457,1.565,2.938,3.124,4.384,4.701
				c6.756,7.09,13.536,14.163,20.346,21.199c-0.144,0.06-0.275,0.155-0.377,0.281c-0.711,0.776-1.374,1.607-2.001,2.479
				c-0.029-0.03-0.06-0.06-0.09-0.09c0.222-0.52,0.442-1.039,0.676-1.553c0.102-0.233-0.013-0.514-0.245-0.615
				c-0.233-0.102-0.514,0.012-0.615,0.245c-0.191,0.382-0.37,0.771-0.55,1.165c-1.135-1.153-2.27-2.312-3.398-3.471
				c0.28-0.46,0.562-0.914,0.854-1.362c0.281-0.46,0.132-1.075-0.328-1.356s-1.075-0.131-1.356,0.329
				c-0.203,0.305-0.394,0.615-0.591,0.926c-1.864-1.917-3.722-3.841-5.573-5.771c0.55-0.609,1.105-1.212,1.654-1.81
				c0.383-0.418,0.347-1.075-0.071-1.458s-1.075-0.347-1.458,0.072c-0.525,0.555-1.045,1.129-1.559,1.702
				c-4.146-4.331-8.267-8.691-12.358-13.076c0.113-0.609,0.232-1.212,0.352-1.816c0.048-0.287-0.137-0.567-0.424-0.615
				c-0.286-0.048-0.567,0.138-0.615,0.424c-0.071,0.346-0.138,0.693-0.203,1.045c-1.78-1.912-3.554-3.829-5.322-5.752
				c0.335-1.541,0.688-3.083,1.069-4.624C463.257-174.094,463.556-173.748,463.86-173.401z M408.087-168.658
				c1.386,1.045,2.777,2.091,4.17,3.136c-0.138,0.239-0.27,0.478-0.406,0.717c-0.58-0.472-1.159-0.943-1.738-1.416
				c-2.886-2.341-5.765-4.683-8.638-7.013c0.054-0.107,0.107-0.209,0.161-0.311C403.78-171.914,405.931-170.283,408.087-168.658z
				 M460.629-170.086c-0.317,1.374-0.622,2.748-0.908,4.116c-0.592,2.766-1.278,5.525-1.87,8.291
				c-0.06,0.269-0.125,0.543-0.185,0.812c-1.548,1.63-3.022,3.321-4.475,5.023c-0.974,1.141-1.965,2.282-2.885,3.464
				c-1.183,1.523-2.419,2.999-3.596,4.528c-0.454,0.58-0.896,1.171-1.338,1.762c-2.271-1.625-4.54-3.25-6.804-4.88
				c1.158-1.625,2.341-3.243,3.554-4.808c1.899-2.461,3.799-4.958,5.765-7.383c-0.263,3.578-0.347,7.168-0.168,10.782
				c0.013,0.55,0.479,0.98,1.028,0.968c0.549-0.012,0.979-0.478,0.967-1.027c-0.113-2.342-0.065-4.647-0.083-6.989
				c-0.019-1.983,0.023-3.984,0.125-5.979c0.311-0.37,0.627-0.741,0.95-1.099c1.374-1.571,2.724-3.196,4.14-4.73
				c0.8-0.866,1.601-1.745,2.383-2.623c0.586-0.663,1.255-1.296,1.769-2.019C459.535-171.28,460.085-170.689,460.629-170.086z
				 M467.032-163.139c-1.201,6.2-2.372,12.46-3.31,18.726c-1.863,2.581-3.59,5.274-5.269,8.064
				c-0.502,0.818-1.003,1.643-1.505,2.467c-3.482-2.449-6.953-4.91-10.418-7.383c0.389-0.496,0.776-0.998,1.177-1.487
				c1.004-1.26,2.061-2.473,3.089-3.715c1.839-2.228,3.822-4.462,5.901-6.625c-0.329,1.195-0.663,2.383-0.968,3.584
				c-0.119,0.466,0.161,0.95,0.627,1.069s0.95-0.161,1.069-0.627c0.239-1.218,0.604-2.455,0.896-3.667
				c0.203-0.854,0.395-1.72,0.574-2.586c2.275-2.234,4.641-4.349,7.061-6.254c0.447-0.353,0.52-1.01,0.167-1.458
				c-0.353-0.448-1.01-0.52-1.458-0.167c-1.779,1.326-3.446,2.79-5.035,4.343c0.705-3.381,1.356-6.726,2.066-10.065
				C463.466-166.986,465.246-165.062,467.032-163.139z M279.499-164.053c-0.072,0.083-0.149,0.173-0.221,0.263
				c-0.681-0.305-1.368-0.603-2.043-0.908c-1.959-0.896-3.907-1.798-5.836-2.754c0.525-0.239,1.057-0.472,1.583-0.705
				C275.15-166.789,277.319-165.415,279.499-164.053z M421.372-158.754c-0.024,0.036-0.048,0.065-0.072,0.102
				c-0.274,0.353-0.556,0.699-0.836,1.039c-2.574-2.174-5.155-4.342-7.747-6.481c0.143-0.257,0.286-0.508,0.43-0.765
				C415.882-162.816,418.624-160.779,421.372-158.754z M282.02-162.488c-0.036-0.024-0.078-0.048-0.12-0.066
				c-0.484-0.25-0.974-0.49-1.469-0.717c0.042-0.042,0.078-0.089,0.113-0.131C281.034-163.097,281.524-162.792,282.02-162.488z
				 M479.952-149.448c-0.466,0.526-0.932,1.052-1.397,1.571c-2.39,2.61-4.826,5.406-7.049,8.333
				c0.496-2.533,1.445-5.072,2.252-7.288c0.586-1.613,1.01-3.345,1.326-5.03c0.167-0.872,0.096-1.804,0.221-2.646
				c0.006-0.209-0.155-0.395-0.364-0.4s-0.394,0.155-0.4,0.364c-0.06,0.389-0.023,0.842-0.06,1.237
				c-0.035,0.4-0.096,0.812-0.149,1.207c-0.089,0.693-0.316,1.386-0.454,2.067c-0.113,0.549-0.364,1.218-0.549,1.756
				c-0.567,1.649-1.213,3.255-1.786,4.892c-0.759,2.145-1.272,3.847-1.499,5.824c-1.063,1.493-2.062,3.022-2.957,4.57
				c-0.854,1.463-1.709,2.962-2.474,4.492c-2.15-1.5-4.294-3.011-6.438-4.516c1.618-2.64,3.255-5.238,5.023-7.765
				c-0.161,1.207-0.316,2.419-0.454,3.632c-0.048,0.454,0.274,0.872,0.729,0.92s0.872-0.275,0.92-0.729
				c0.209-2.156,0.442-4.301,0.699-6.427c2.186-2.891,4.324-5.316,6.953-7.873c0.549-0.538,1.224-1.171,1.827-1.643
				c0.412-0.382,0.442-1.034,0.06-1.446c-0.382-0.412-1.033-0.442-1.445-0.06c-2.58,2.359-4.868,4.904-6.965,7.592
				c0.669-5.137,1.464-10.226,2.413-15.357C471.906-157.9,475.92-153.659,479.952-149.448z M278.979-160.666
				c1.774,1.034,3.608,1.953,5.418,2.927c7.711,4.14,15.381,8.321,23.033,12.55c-0.454,0.609-0.902,1.218-1.35,1.834
				c-0.102,0.131-0.072,0.328,0.06,0.43s0.329,0.072,0.43-0.06c0.448-0.639,0.92-1.272,1.404-1.905
				c2.694,1.493,5.388,2.993,8.082,4.504c4.713,2.634,9.408,5.31,14.104,7.998c5.973,3.698,11.952,7.389,17.974,11.027
				c10.029,6.057,20.226,11.905,30.351,17.807c4.002,2.335,8.016,4.653,12.036,6.959c-17.711-8.859-35.314-17.998-52.613-27.609
				c-15.913-8.841-31.736-17.944-47.177-27.585c-4.349-2.718-8.662-5.465-12.956-8.243c0.239-0.311,0.484-0.609,0.723-0.914
				C278.657-160.851,278.818-160.762,278.979-160.666z M334.454-158.199l-0.352,0.006c-0.932,0.902-1.798,1.875-2.754,2.753
				c-3.231,2.963-6.254,6.003-8.996,9.408c-0.914,1.135-1.523,2.396-2.234,3.638l0.371,0.191c1.439-3.202,4.558-6.475,7.054-8.847
				c1.708-1.619,3.375-3.279,5.078-4.892c0.627-0.597,1.218-1.291,1.84-1.906L334.454-158.199z M428.82-153.289
				c-0.43,0.544-0.86,1.087-1.29,1.637c-1.959-1.643-3.906-3.291-5.86-4.94c0.186-0.233,0.377-0.472,0.568-0.699
				c0.137-0.173,0.274-0.347,0.412-0.52C424.705-156.299,426.76-154.794,428.82-153.289z M437.004-147.357
				c-0.52,0.753-1.039,1.5-1.553,2.252c-1.38-1.135-2.766-2.276-4.146-3.411c-0.771-0.639-1.541-1.272-2.306-1.912
				c0.466-0.573,0.926-1.147,1.386-1.72C432.59-150.547,434.794-148.946,437.004-147.357z M333.14-141.247
				c-0.585,1.033-1.26,2.097-1.75,3.178c-0.072,0.144-0.012,0.334,0.131,0.406c0.143,0.072,0.334,0.012,0.406-0.131
				c2.485-5.06,6.254-10.107,10.423-13.894l0.006-0.424l-0.424-0.006C338.677-149.155,335.314-145.087,333.14-141.247z
				 M482.438-146.861c-0.03,0.047-0.048,0.102-0.048,0.161c-0.078,0.376-0.054,0.8-0.126,1.177
				c-0.197,0.998-0.436,2.288-0.836,3.208c-0.424,0.974-0.789,2.055-1.183,3.052c-1.439,3.638-2.975,6.828-2.641,10.794
				c-1.422,2.031-2.789,4.08-4.025,6.212c-2.539-1.762-5.078-3.524-7.61-5.292c1.129-2.27,2.377-4.462,3.895-6.648
				c0.125-0.185,0.251-0.37,0.382-0.549c0.09,0.054,0.197,0.083,0.317,0.083c0.352,0,0.639-0.299,0.639-0.651
				c-0.023-0.233-0.036-0.466-0.042-0.705c1.213-1.637,2.503-3.237,3.835-4.761c0.776-0.89,1.583-1.75,2.348-2.646
				c1.314-1.535,2.67-3.041,4.032-4.534C481.727-147.596,482.085-147.232,482.438-146.861z M445.014-141.611
				c-0.669,0.902-1.332,1.804-2.001,2.7c-2.138-1.75-4.276-3.5-6.409-5.25c0.048-0.066,0.096-0.131,0.144-0.197
				c0.483-0.705,0.979-1.416,1.476-2.121C440.48-144.854,442.75-143.23,445.014-141.611z M487.061-142.083
				c-0.37,0.598-0.741,1.201-1.129,1.792c-1.512,2.264-3.059,4.433-4.636,6.648c-0.759,1.063-1.517,2.115-2.27,3.166
				c0.048-3.273,1.464-6.72,2.532-9.623c0.514-1.404,1.063-2.981,1.345-4.45c0.096-0.532,0.131-1.093,0.197-1.625
				C484.42-144.807,485.734-143.445,487.061-142.083z M456.639-133.374c-0.759,1.236-1.518,2.473-2.252,3.715
				c-3.447-2.79-6.882-5.585-10.311-8.387c0.699-0.914,1.392-1.828,2.091-2.742C449.649-138.308,453.138-135.835,456.639-133.374z
				 M491.953-137.077c-0.657,1.529-1.255,3.13-1.786,4.767c-1.941,3.405-3.674,6.989-5.699,10.179
				c-1.057,1.654-2.204,3.464-3.518,4.97c-2.079-1.434-4.158-2.867-6.23-4.301c1.051-1.798,2.21-3.536,3.446-5.197
				c1.201-1.613,2.39-3.214,3.608-4.814c1.941-2.551,3.978-5.083,5.788-7.729c0.316-0.472,0.621-0.944,0.914-1.422
				C489.635-139.443,490.794-138.254,491.953-137.077z M501.893-133.147c-0.717,0.944-1.446,1.9-2.169,2.861
				c-1.266-1.272-2.526-2.544-3.781-3.817c-0.466-0.472-0.932-0.944-1.397-1.416c0.669-0.908,1.374-1.786,2.121-2.634
				c0.054-0.072,0.102-0.149,0.137-0.227C498.499-136.629,500.196-134.885,501.893-133.147z M399.491-104.947
				c7.401,4.958,14.826,9.868,22.472,14.438c6.457,4.629,13.124,8.924,6.923,4.456c21.863,14.432,31.301,20.363,40.577,26.092
				c-2.156-0.908-4.307-1.816-6.457-2.736c-8.321-4.378-16.605-8.781-24.867-13.249c-20.793-11.248-41.348-23.003-61.955-34.585
				c-10.465-5.878-20.907-11.779-31.372-17.645c2.115-3.31,4.862-6.529,7.604-9.14C368.018-126.385,383.662-115.555,399.491-104.947
				z M499.264-129.682c-4.133,5.483-8.285,11.26-11.266,17.37c-1.894-1.296-3.781-2.598-5.668-3.9
				c0.704-0.8,1.367-1.643,1.935-2.497c1.386-2.103,2.73-4.188,3.973-6.38c-0.239,1.147-0.448,2.288-0.615,3.405
				c-0.239,1.535-0.52,3.077-0.669,4.624c-0.048,0.591,0.388,1.123,0.979,1.171c0.591,0.048,1.123-0.389,1.171-0.98
				c0.107-3.213,0.34-6.66,0.932-9.826c0.144-0.789,0.281-1.625,0.448-2.438c1.123-1.977,2.306-3.918,3.613-5.764
				C495.812-133.153,497.538-131.415,499.264-129.682z M369.661-128.9c-0.317,0.239-0.382,0.699-0.144,1.016
				c0.239,0.316,0.699,0.382,1.016,0.144c2.33-1.745,4.641-3.519,6.989-5.239c0.316-0.239,0.382-0.699,0.144-1.016
				c-0.239-0.316-0.699-0.382-1.016-0.143C374.302-132.418,371.99-130.644,369.661-128.9z M464.35-127.962
				c-0.167,0.347-0.328,0.693-0.483,1.045c-0.55,1.212-1.058,2.419-1.565,3.632c-0.621-0.496-1.248-0.992-1.863-1.487
				c-1.637-1.314-3.262-2.628-4.893-3.949c0.586-0.961,1.183-1.923,1.769-2.879c0.179-0.305,0.364-0.609,0.55-0.908
				C460.02-130.99,462.182-129.473,464.35-127.962z M516.873-117.921c1.47,1.476,2.939,2.957,4.408,4.433
				c-0.269-0.018-0.549,0.083-0.734,0.304c-0.567,0.615-1.129,1.237-1.69,1.864c-4.939-4.833-9.862-9.688-14.76-14.581
				c0.071-0.615-0.042-1.355-0.06-1.923c-0.024-0.741-0.592-1.708-0.908-2.371c-0.072-0.138-0.245-0.191-0.383-0.12
				c-0.137,0.072-0.19,0.245-0.119,0.382c0.711,1.188,0.956,2.335,0.902,3.464c-0.735-0.734-1.464-1.469-2.198-2.204
				c0.74-0.92,1.487-1.84,2.239-2.753C507.985-126.905,512.417-122.407,516.873-117.921z M503.422-125.507
				c-0.209,1.147-0.67,2.294-1.195,3.482c-1.553,3.464-3.9,6.469-5.113,10.137c-0.089,0.287,0.066,0.597,0.353,0.687
				c0.287,0.089,0.598-0.066,0.688-0.353c0.562-2.437,2.126-4.994,3.243-7.216c0.812-1.625,1.505-3.046,2.145-4.725
				c0.186-0.496,0.263-1.016,0.37-1.529c4.791,4.785,9.605,9.54,14.443,14.27c-1.242,1.41-2.467,2.837-3.673,4.289
				c-0.108-0.364-0.222-0.717-0.305-1.04c-0.293-1.123-0.64-2.246-0.956-3.363l-0.119,0.036c0.418,1.494,0.836,2.999,1.266,4.504
				c-2.066,2.485-4.092,5.012-6.057,7.55c-0.078,0.096-0.155,0.197-0.233,0.293c-2.747-1.864-5.495-3.733-8.243-5.603
				c3.286-3.979,6.899-7.729,10.591-11.218c0.431-0.418,0.442-1.111,0.024-1.541c-0.418-0.43-1.111-0.442-1.541-0.024
				c-3.083,2.802-6.093,6.218-8.745,9.432c-0.627,0.752-1.255,1.517-1.882,2.294c-3.005-2.049-6.009-4.104-9.014-6.159
				c0.322-0.627,0.651-1.243,0.985-1.834c0.854-1.517,1.696-2.969,2.629-4.444c1.039-1.649,2.239-3.31,3.41-4.869
				c1.428-1.899,2.886-3.775,4.367-5.626C501.713-127.221,502.567-126.367,503.422-125.507z M473.28-121.744
				c-0.92,1.625-1.769,3.297-2.515,5.047c-2.407-1.852-4.814-3.709-7.198-5.585c0.692-1.631,1.392-3.202,2.139-4.737
				C468.227-125.256,470.753-123.5,473.28-121.744z M480.55-116.714c-0.024,0.024-0.048,0.048-0.065,0.072
				c-0.4,0.424-0.849,0.95-1.272,1.332c-0.448,0.406-0.92,0.794-1.351,1.225c-0.334,0.305-0.364,0.836-0.06,1.171
				s0.836,0.364,1.171,0.06c0.991-0.896,2.007-1.875,2.957-2.909c1.936,1.332,3.87,2.664,5.806,3.996
				c-0.502,1.057-0.968,2.126-1.386,3.208c-0.179,0.436,0.03,0.956,0.466,1.135c0.437,0.179,0.956-0.03,1.135-0.466
				c0.358-0.956,0.789-1.923,1.249-2.873c2.969,2.037,5.938,4.068,8.906,6.099c-1.47,1.834-2.903,3.715-4.212,5.627
				c-5.884-4.504-11.779-9.008-17.675-13.494c-1.451-1.111-2.903-2.216-4.36-3.327c0.149-0.329,0.299-0.651,0.437-0.944
				c0.645-1.41,1.355-2.795,2.126-4.146C476.464-119.534,478.507-118.124,480.55-116.714z M543.419-91.363
				c-0.795,0.496-1.553,1.027-2.276,1.595c-2.383-2.288-4.772-4.575-7.149-6.869c0.107-0.107,0.215-0.221,0.328-0.323
				c0.431-0.478,0.389-1.225-0.09-1.654c-0.478-0.43-1.224-0.389-1.654,0.089c-0.09,0.09-0.173,0.179-0.263,0.275
				c-4.062-3.918-8.118-7.855-12.162-11.797c0.574-0.663,1.153-1.314,1.744-1.953c0.162-0.191,0.233-0.424,0.216-0.657
				C529.202-105.544,536.305-98.448,543.419-91.363z M531.807-97.683c-0.89,1.016-1.738,2.091-2.586,3.124
				c-1.811,2.186-3.495,4.468-5.054,6.833c-2.204-1.487-4.408-2.98-6.612-4.468c1.254-1.458,2.538-2.874,3.793-4.271
				c0.848-0.95,1.672-1.947,2.479-2.939c0.567-0.705,1.081-1.463,1.654-2.163c0.299-0.418,0.203-1.015-0.215-1.314
				s-1.016-0.203-1.313,0.215c-0.347,0.46-0.663,0.956-0.998,1.428c-0.812,1.153-1.696,2.258-2.568,3.357
				c-1.309,1.643-2.694,3.244-4.05,4.862c-0.006-0.006-0.018-0.012-0.024-0.018c-2.245-1.523-4.491-3.041-6.737-4.564
				c0.478-0.597,0.955-1.194,1.445-1.786c1.631-2.007,3.357-3.978,5.06-5.919c1.2-1.38,2.383-2.784,3.578-4.169
				C523.695-105.532,527.745-101.602,531.807-97.683z M489.587-96.966c3.919,2.993,7.831,5.997,11.744,9.002
				c0.048,0.173,0.155,0.322,0.316,0.424c0.107,0.066,0.232,0.096,0.353,0.096c6.887,5.304,13.763,10.621,20.655,15.931
				c7.915,6.086,15.794,12.227,23.673,18.362c-0.293,0.287-0.586,0.573-0.885,0.854c-23.731-17.752-46.812-36.396-69.798-55.301
				C480.376-103.979,484.987-100.473,489.587-96.966z M507.896-97.988c-0.86,1.099-1.744,2.258-2.503,3.381
				c-0.496,0.735-1.021,1.523-1.541,2.24c-0.149,0.197-0.299,0.406-0.448,0.627c-2.676-2.061-5.358-4.116-8.04-6.17
				c1.338-1.947,2.771-3.853,4.283-5.705C502.395-101.733,505.142-99.863,507.896-97.988z M515.924-92.522
				c-0.245,0.298-0.496,0.597-0.735,0.902c-1.457,1.786-2.837,3.799-4.05,5.824c-2.198-1.691-4.39-3.375-6.582-5.06
				c0.604-0.89,1.171-1.804,1.834-2.658c0.932-1.212,1.857-2.407,2.795-3.596C511.432-95.581,513.678-94.051,515.924-92.522z
				 M540.54-89.285c-2.73,2.252-4.982,4.97-6.978,7.927c-2.598-1.762-5.202-3.524-7.801-5.287c1.146-1.606,2.359-3.172,3.584-4.73
				c1.213-1.559,2.682-3.238,4.109-4.719C535.814-93.818,538.174-91.555,540.54-89.285z M523.803-87.17
				c-1.613,2.491-3.089,5.071-4.427,7.724c-2.396-1.846-4.79-3.698-7.191-5.543c1.415-2.365,3.142-4.582,4.952-6.714
				C519.358-90.192,521.58-88.681,523.803-87.17z M560.12-74.763c4.068,4.038,8.142,8.076,12.21,12.125
				c-0.06,0.036-0.113,0.078-0.161,0.131c-0.371,0.382-0.747,0.771-1.142,1.165c-5.023-4.773-10.053-9.54-15.076-14.312
				c0.096-0.107,0.191-0.215,0.286-0.323c0.442-0.52,0.377-1.314-0.143-1.756c-0.521-0.442-1.314-0.376-1.757,0.143
				c-0.071,0.072-0.131,0.144-0.197,0.215c-3.895-3.704-7.783-7.407-11.666-11.123c0.729-0.573,1.481-1.099,2.24-1.571
				C549.846-84.966,554.983-79.865,560.12-74.763z M547.021-83.084c-0.19,0.072-0.364,0.197-0.495,0.371
				c-1.481,1.947-2.903,3.937-4.289,5.949c-0.203,0.293-0.4,0.592-0.592,0.89c-2.24-1.523-4.485-3.046-6.731-4.569
				c2.001-2.748,4.36-5.43,6.959-7.568C543.586-86.37,545.301-84.727,547.021-83.084z M526.09-85.617
				c2.366,1.607,4.731,3.214,7.097,4.821c-0.788,1.207-1.541,2.449-2.264,3.715c-0.807,1.404-1.565,2.951-2.246,4.42
				c-0.048,0.089-0.09,0.185-0.138,0.287c-2.592-2.007-5.185-4.008-7.783-6.009c1.303-2.73,2.892-5.269,4.617-7.724
				C525.612-85.945,525.852-85.784,526.09-85.617z M553.627-76.782c-0.771,0.914-1.511,1.875-2.27,2.795
				c-0.842,1.003-1.637,2.031-2.396,3.082c-1.888-1.278-3.769-2.562-5.656-3.841c0.681-1.009,1.403-1.995,2.174-2.969
				c0.944-1.201,1.858-2.455,2.85-3.614c0.077-0.107,0.138-0.221,0.173-0.34C550.211-80.038,551.919-78.413,553.627-76.782z
				 M541.286-75.295c-0.472,0.782-0.92,1.577-1.38,2.365c-0.729,1.243-1.219,2.592-1.81,3.889c-0.382,0.818-0.902,2.234-1.129,3.178
				c-2.425-1.875-4.851-3.751-7.275-5.621c0.083-0.179,0.167-0.347,0.251-0.496c0.681-1.308,1.302-2.664,2.043-3.942
				c0.746-1.302,1.595-2.64,2.532-3.966C536.776-78.359,539.028-76.824,541.286-75.295z M570.466-60.78
				c-0.878,0.866-1.804,1.762-2.735,2.682c-2.903-1.989-5.8-3.966-8.709-5.95c0.454-0.573,0.896-1.159,1.35-1.75
				c0.275-0.388,0.18-0.938-0.209-1.212c-0.389-0.275-0.938-0.18-1.213,0.209c-0.43,0.609-0.854,1.225-1.29,1.822
				c-2.258-1.535-4.51-3.07-6.762-4.605c1.464-1.894,3.022-3.721,4.54-5.478C560.443-70.301,565.454-65.541,570.466-60.78z
				 M548.562-70.343c-1.386,1.947-2.67,3.96-3.93,6.021c-0.532,0.86-0.927,1.804-1.416,2.688c-0.078,0.131-0.149,0.28-0.228,0.43
				c-1.517-1.177-3.034-2.347-4.551-3.524c0.125-0.108,0.221-0.257,0.274-0.424c0.956-3.279,2.407-6.23,4.217-9.02
				C544.805-72.9,546.687-71.622,548.562-70.343z M557.199-64.37c-0.531,0.681-1.194,1.338-1.69,2.025
				c-0.37,0.508-1.016,1.099-1.464,1.571c-1.499,1.577-3.04,3.07-4.587,4.57c-1.547-1.195-3.088-2.39-4.636-3.584
				c0.365-0.783,0.759-1.553,1.153-2.3c1.23-2.401,2.796-4.719,4.498-6.953C553.078-67.273,555.676-65.499,557.199-64.37z
				 M567.234-57.608c-2.885,2.879-5.746,6.009-7.323,9.498c-3.094-2.396-6.188-4.791-9.288-7.186
				c0.543-0.508,1.081-1.016,1.606-1.529c1.397-1.374,2.855-2.718,4.193-4.151c0.776-0.836,1.481-1.672,2.175-2.533
				C561.477-61.544,564.355-59.579,567.234-57.608z M584.659-50.314c-0.287,0.364-0.567,0.734-0.843,1.111
				c-1.696-1.619-3.398-3.231-5.102-4.85c0-0.251-0.125-0.496-0.346-0.627c-0.132-0.078-0.275-0.107-0.418-0.096
				c-1.918-1.816-3.829-3.631-5.741-5.447c0.371-0.382,0.741-0.765,1.142-1.123c0.041-0.054,0.083-0.102,0.119-0.155
				C577.21-57.781,580.938-54.054,584.659-50.314z M577.3-54.293c-0.395,0.646-0.782,1.296-1.171,1.947
				c-2.359-1.619-4.719-3.237-7.078-4.85c0.305-0.299,0.615-0.591,0.932-0.89c0.502-0.484,1.039-0.95,1.541-1.439
				c0.042-0.048,0.084-0.09,0.132-0.131C573.536-57.871,575.418-56.079,577.3-54.293z M575.776-51.76
				c-1.876,3.148-3.697,6.338-5.388,9.587c-0.18,0.34-0.048,0.782,0.293,0.961c0.34,0.179,0.782,0.048,0.961-0.292
				c1.661-3.214,3.471-6.338,5.316-9.444c1.822,1.249,3.638,2.497,5.454,3.745c-0.609,0.914-1.195,1.846-1.757,2.79
				c-0.585,0.98-1.236,1.954-1.779,2.951c-0.657,1.212-1.422,2.443-2.133,3.625c-0.341,0.568-0.759,1.189-1.052,1.78
				c-0.023,0.036-0.041,0.072-0.054,0.107c-4.868-3.757-9.73-7.526-14.599-11.29c1.637-3.793,4.498-6.612,7.503-9.479
				C570.956-55.063,573.363-53.415,575.776-51.76z M583.345-48.546c-0.186,0.257-0.37,0.52-0.55,0.782
				c-1.828-1.254-3.655-2.515-5.483-3.769c0.353-0.585,0.699-1.165,1.052-1.75C580.023-51.707,581.684-50.129,583.345-48.546z
				 M551.937-48.792C565.95-37.902,580-27.048,594.031-16.177c1.971,1.529,3.948,3.058,5.925,4.587
				c-0.215,0.334-0.436,0.675-0.645,1.015c-3.028-2.604-6.069-5.19-9.128-7.741c-5.041-4.199-10.124-8.38-15.333-12.371
				c-3.243-2.485-6.535-4.875-9.826-7.288c-6.225-4.444-12.389-8.954-18.512-13.523c0.293-0.275,0.586-0.55,0.885-0.831
				C548.908-51.145,550.42-49.968,551.937-48.792z M589.109-45.823c0.543,0.556,1.093,1.111,1.643,1.667
				c-0.174,0.347-0.353,0.693-0.544,1.034c-1.738-1.655-3.477-3.309-5.209-4.964c0.275-0.353,0.556-0.699,0.837-1.04
				C586.929-48.027,588.016-46.928,589.109-45.823z M497.627-44.491c4.354,1.971,8.662,4.026,12.957,6.123
				c4.223,2.066,8.374,4.372,12.483,6.654c4.277,2.401,8.548,4.863,12.795,7.317c7.58,4.379,15.221,8.686,22.836,13.004
				c16.224,9.193,32.489,18.296,48.874,27.197c-9.318-4.713-18.589-9.516-27.775-14.491c-16.087-8.715-32.089-17.55-48.062-26.474
				c-10.687-5.974-21.373-11.959-38.833-21.217c-0.525-0.305-1.045-0.609-1.564-0.914C493.44-46.366,495.537-45.44,497.627-44.491z
				 M587.759-44.341c-1.225-0.848-2.449-1.69-3.674-2.533c0.144-0.191,0.281-0.376,0.419-0.567
				C585.591-46.408,586.672-45.375,587.759-44.341z M589.664-42.203c-2.335,3.841-5.537,7.281-7.084,11.457
				c-0.018,0.042-0.036,0.09-0.042,0.132c-1.971-1.523-3.948-3.047-5.919-4.576c0.077-0.048,0.143-0.12,0.196-0.197
				c0.364-0.729,0.938-1.595,1.374-2.294c0.854-1.362,1.648-2.759,2.515-4.115c0.938-1.481,1.93-3.029,2.987-4.522
				C585.687-44.951,587.676-43.577,589.664-42.203z M596.146-38.685c-0.215,0.03-0.418,0.125-0.592,0.275
				c-0.077,0.048-0.155,0.102-0.232,0.167c-0.37-0.352-0.741-0.705-1.105-1.057c0.042-0.024,0.084-0.054,0.114-0.096
				c0.102-0.149,0.06-0.37-0.09-0.472c-0.753-0.52-1.5-1.04-2.246-1.553c-0.144-0.131-0.281-0.263-0.418-0.394
				c0.102-0.149,0.197-0.299,0.292-0.442c0.096-0.162,0.191-0.323,0.281-0.49C593.481-41.391,594.813-40.041,596.146-38.685z
				 M594.724-37.693c-0.215,0.227-0.424,0.466-0.591,0.675c-1.93,2.324-2.145,5.329-3.106,8.094c-0.52,1.487-0.997,2.485-1.87,3.422
				c-1.869-1.445-3.745-2.891-5.62-4.336c0.167-0.078,0.298-0.209,0.37-0.382c0.89-2.628,2.873-5.023,4.51-7.251
				c0.902-1.243,1.834-2.419,2.706-3.668C592.322-39.993,593.523-38.84,594.724-37.693z M613.647-20.902
				c4.169,4.229,8.237,8.566,12.383,12.825c0.09,0.096,0.185,0.191,0.274,0.287c-0.412-0.119-0.884,0.072-1.087,0.484
				c-0.113,0.161-0.257,0.526-0.353,0.717c-0.257,0.52-0.979,1.452-1.386,1.864c-1.141,1.141-2.234,2.139-3.13,3.226
				c-3.017-2.312-6.033-4.629-9.044-6.941c0.92-1.494,2.049-2.885,3.237-3.781c0.431-0.394,0.46-1.081,0.066-1.511
				c-0.395-0.43-1.081-0.46-1.512-0.066c-1.158,0.92-2.443,2.425-3.5,4.044c-1.721-1.326-3.44-2.646-5.155-3.966
				c0.257-0.329,0.514-0.646,0.753-0.95c0.759-0.979,1.625-2.042,2.24-3.118c0.155-0.269,0.37-0.514,0.501-0.789
				c0.233-0.502,0.622-1.332,0.902-1.78c0.28-0.621,0-1.368-0.621-1.648s-1.368,0-1.648,0.621c-0.239,0.687-0.753,1.613-1.153,2.228
				c-0.914,1.404-1.863,2.67-2.855,3.984c-1.332-1.027-2.664-2.055-3.996-3.076c-0.251-0.191-0.495-0.382-0.74-0.568
				c0.65-1.577,1.152-3.279,1.815-4.832c0.58-1.368,1.404-3.387,2.67-4.241c0.46-0.395,0.514-1.105,0.12-1.565
				c-0.395-0.46-1.105-0.514-1.565-0.12c-1.313,0.848-2.114,2.766-2.777,4.116c-0.221,0.448-0.37,0.944-0.556,1.41
				c-0.514,1.278-0.968,2.604-1.428,3.907c-1.744-1.344-3.488-2.688-5.227-4.032c0.991-1.123,1.476-2.372,2.127-3.823
				c0.179-0.406,0.346-1.051,0.472-1.494c0.645-2.33,1.23-4.856,3.011-6.517c5.125,4.91,10.244,9.826,15.339,14.766
				c0.161,0.149,0.425,0.149,0.573-0.012c0.149-0.161,0.149-0.424-0.012-0.573c-5.071-4.916-10.166-9.814-15.268-14.694
				c0.006-0.006,0.012-0.012,0.023-0.012c0.222-0.191,0.359-0.454,0.412-0.717C602.919-31.809,608.277-26.35,613.647-20.902z
				 M585.591-4.2c12.102,5.764,24.138,11.66,36.126,17.657c6.703,5.765,13.471,11.445,20.411,16.929
				c-0.155-0.083-0.311-0.162-0.466-0.239c-4.725-2.419-9.491-4.851-14.156-7.371c-9.038-4.88-18.094-9.707-27.113-14.617
				c-10.095-5.501-20.172-11.122-30.172-16.791c-9.712-5.507-19.455-10.955-29.167-16.457
				C555.927-18.202,570.783-11.261,585.591-4.2z M607.614-5.688c-0.018,0.06-0.03,0.114-0.042,0.167
				c-0.203,0.549,0.084,1.171,0.634,1.374c0.388,0.143,0.818,0.036,1.104-0.233c3.005,2.318,6.021,4.636,9.032,6.947
				c-0.054,0.292-0.096,0.597-0.126,0.92c-0.054,0.46,0.281,0.89,0.741,0.944s0.89-0.281,0.943-0.741c0-0.012,0-0.024,0-0.03
				c16.505,12.723,20.973,16.122,25.446,19.515c2.688,2.043,5.388,4.074,8.088,6.111c-3.655-1.965-7.299-3.955-10.984-5.854
				c-3.22-1.661-6.41-3.375-9.623-5.042c-3.124-2.628-6.225-5.28-9.312-7.933c-7.515-6.457-14.939-13.028-22.437-19.509
				c0.21-0.382,0.442-0.765,0.693-1.141C603.72-8.687,605.667-7.187,607.614-5.688z M632.004-1.793
				c9.664,10.089,19.036,20.44,28.463,30.756c-4.762-3.572-9.521-7.15-14.265-10.74c-8.189-6.207-16.349-12.437-24.503-18.685
				c1.685-1.936,4.182-3.709,5.179-6.021c0.102-0.209,0.12-0.442,0.06-0.651C628.635-5.365,630.301-3.567,632.004-1.793z
				 M655.442,30.797c4.6,3.464,9.205,6.923,13.805,10.406c0.161,0.119,0.335,0.215,0.52,0.287c-0.06,0.25-0.113,0.507-0.149,0.782
				c-0.09,0.609-0.113,1.093-0.083,1.547c-0.801-0.299-1.595-0.598-2.39-0.896l-2.425-1.171c-6.326-3.112-12.61-6.278-18.882-9.474
				c0.293-0.107,0.562-0.292,0.771-0.55c0.585-0.741,0.46-1.822-0.281-2.407c-3.889-2.999-7.711-6.099-11.486-9.247
				C641.734,23.587,648.615,27.147,655.442,30.797z M662.539,30.325c0.998,0.986,2.21,1.727,3.739,2.115l0.55,0.102l1.326,1.075
				c1.093,0.842,2.222,1.667,3.309,2.533c-0.232,0.191-0.447,0.376-0.597,0.633c-2.88-2.174-5.771-4.343-8.649-6.505
				C662.318,30.302,662.426,30.313,662.539,30.325z M692.071,32.44l0.197,0.442l-0.765,0.239c-0.012-0.646-0.036-1.272-0.072-1.744
				C691.677,31.735,691.91,32.1,692.071,32.44z M676.439,40.283c0.095,0.006,0.19,0.012,0.286,0.023
				c0.06,0.484,0.113,0.956-0.054,1.488c-0.029,0.083-0.06,0.173-0.09,0.257c-1.003-0.568-2.001-1.135-2.998-1.697
				c0.083-0.221,0.155-0.442,0.221-0.663c0.078-0.287,0.138-0.562,0.186-0.842l0.029-0.251l0.412-0.191
				c0.18-0.071,0.371-0.131,0.586-0.071C674.862,39.286,675.514,40.134,676.439,40.283z M676.499,42.26
				c-0.49,1.272-1.249,2.377-2.271,3.363l-0.483,0.484l-0.573-0.275l0.537,0.257c-0.167-0.328-0.406-0.615-0.698-0.836
				c-0.013-0.078-0.03-0.149-0.054-0.221c-0.765-1.529-0.019-2.993,0.531-4.426C674.492,41.155,675.495,41.705,676.499,42.26z"/>
		</g>
	</g>
</g>
</svg>
