<?xml version="1.0" encoding="utf-8"?>
<!-- Generator: Adobe Illustrator 16.0.0, SVG Export Plug-In . SVG Version: 6.00 Build 0)  -->
<!DOCTYPE svg PUBLIC "-//W3C//DTD SVG 1.1//EN" "http://www.w3.org/Graphics/SVG/1.1/DTD/svg11.dtd">
<svg version="1.1" id="Layer_1" xmlns="http://www.w3.org/2000/svg" xmlns:xlink="http://www.w3.org/1999/xlink" x="0px" y="0px"
	 width="432.662px" height="371.499px" viewBox="266.768 23.748 432.662 371.499"
	 enable-background="new 266.768 23.748 432.662 371.499" xml:space="preserve">
<g transform="scale(1 -1)">
	<g transform="translate(0 -75)">
		<g>
			<path marker-start="none" marker-end="none" d="M337.596-318.978c-2.216,0.447-4.492,0.913-6.648,1.596
				c-2.431,0.771-4.916,1.493-7.264,2.496c-0.627,0.263-1.242,0.532-1.846,0.807c-0.52-0.705-1.493-0.956-2.306-0.556
				c-7.24,3.339-13.589,8.034-19.013,13.793c-0.047,0.022-0.083,0.06-0.113,0.096c-1.027,0.979-2.043,1.94-3.035,2.962
				c-0.603,0.622-1.17,1.297-1.774,1.906c-0.603,0.603-1.177,1.392-1.726,2.061c-0.842,1.011-1.613,2.001-2.288,2.909
				c-3.703,4.504-6.893,9.276-9.575,14.336c-4.217,5.849-7.783,12.203-10.579,19.085c-1.41,3.464-2.575,7.108-3.471,10.739
				c-0.442,1.786-0.95,3.764-1.183,5.579c-0.042,0.233,0.113,0.46,0.347,0.502c0.233,0.042,0.46-0.113,0.501-0.347
				c0.144-1.122,0.442-2.287,0.675-3.398c0.472-2.246,1.087-4.462,1.792-6.647c1.093-3.375,2.341-6.476,3.787-9.714
				c0.657-1.475,1.458-2.859,2.163-4.301c0.914-1.875,2.192-3.751,3.279-5.543c0.066-0.119,0.144-0.239,0.233-0.347
				c-2.849,5.902-4.785,12.216-5.908,18.709c-0.012,0.029-0.012,0.065,0.018,0.096c0.012-0.161-0.161-0.274-0.394-0.377
				c-0.896-0.394-1.828,0.191-2.031,1.111c-0.185,0.824-0.209,2.055-0.179,2.909c0.012,0.388,0.114,0.807,0.138,1.213
				c0.179,3.062,0.866,5.983,1.81,8.834c-0.03,0.608-0.054,1.213-0.078,1.815c-0.155,0.406-0.179,0.859-0.042,1.296
				c-0.024,0.933-0.048,1.857-0.066,2.777c-0.006,0.275,0.138,0.526,0.353,0.669c-1.225,0.257-2.443,0.515-3.662,0.776
				c-0.723,0.144-1.195,0.865-1.051,1.589c0.143,0.724,0.866,1.194,1.589,1.052c1.81-0.406,3.638-0.781,5.472-1.141
				c10.531,22.65,21.271,45.212,32.029,67.761c5.902,12.377,11.75,24.777,17.633,37.16c5.878,12.371,11.636,24.801,17.395,37.226
				c2.079,4.486,4.205,8.96,6.266,13.452c0.095,0.215,0.197,0.436,0.304,0.657c-1.529,0.615-3.01,1.332-4.438,2.168
				c-1.201,0.699-2.849,1.774-3.853,2.724c-0.382,0.358-0.777,0.765-1.159,1.105c-0.758,0.752-1.439,1.577-2.043,2.443
				c-1.063,0.406-2.042,0.884-2.807,1.446c-1.254,0.92-2.581,1.888-3.441,3.231c-3.572,5.609-1.726,11.6,1.637,16.827
				c0.807,1.248,1.954,2.729,2.987,3.799c0.418,0.436,0.854,0.872,1.302,1.291c1.087,1.708,2.521,3.178,4.331,4.289
				c3.13,1.917,7.048,1.906,10.286,0.281c0.299-0.155,0.562-0.329,0.818-0.514c0.12,0,0.239,0.006,0.364,0.012
				c0.394,0,0.729-0.322,0.729-0.717c0-0.036-0.006-0.071-0.012-0.107c0.227-0.185,0.478-0.46,0.663-0.651
				c1.487-1.571,2.186-3.172,2.784-5.221c0.018-0.072,0.036-0.138,0.054-0.209c0.782-0.066,1.571-0.245,2.371-0.478l0.484-0.161
				c1.261-0.741,2.348-1.476,3.333-2.467c0.102-0.024,0.203-0.06,0.311-0.095c0.979-0.395,1.577-1.344,1.565-2.348
				c1.702-2.897,2.15-6.236,2.192-9.611c0.012-0.998-0.024-1.977-0.03-2.969c0-0.346,0.024-1.063-0.071-1.38
				c-0.102-0.334-0.191-0.501-0.418-0.771c-0.054-0.065-0.102-0.131-0.155-0.197c0.544,0.071,1.087,0.149,1.631,0.233
				c8.16,1.218,16.062,3.422,23.959,5.752c5.208,1.535,10.388,3.208,15.566,4.851c2.896,0.92,5.812,1.87,8.733,2.706
				c2.222,0.633,4.426,1.296,6.653,1.905c2.885,0.789,5.771,1.404,8.686,2.043c2.252,0.496,4.845,0.938,7.139,1.123
				c0.448,0.036,0.901,0.113,1.35,0.161c2.851,0.293,6.136,0.329,8.99,0.054c2.449-0.239,4.552-0.711,6.911-1.344
				c0.746-0.203,1.476-0.538,2.198-0.818c0.962,1.917,2.12,3.733,3.464,5.412l2.51,2.706l0.167,0.173l0.316,0.34l0.209,0.167
				l2.055,1.977c2.378,1.923,4.225,3.07,7.02,4.312c0.251,0.108,0.514,0.197,0.782,0.281c-2.629,11.851-3.78,23.774-4.684,35.876
				c-0.341,4.552-0.669,9.121-1.058,13.673c-0.09,1.058-0.209,2.126-0.286,3.184c-0.222,3.076-0.4,6.134-0.657,9.217
				c-0.389,4.647-1.016,9.252-1.822,13.84c-0.102,0.585-0.215,1.171-0.315,1.756c-0.197,1.153-0.441,2.216,0.704,2.993
				c0.203,0.137,0.641,0.292,0.885,0.323c0.473,0.065,1.052-0.096,1.518-0.173c0.842-0.137,1.75-0.167,2.604-0.233
				c1.517-0.12,3.034-0.155,4.552-0.161c0.189,0.334,0.549,0.567,0.968,0.567c0.412,0,0.782-0.233,0.974-0.567
				c0.389,0,0.776,0,1.164,0.006c1.082,0.006,2.188-0.012,3.269,0.023c0.849,0.03,1.721-0.012,2.557,0.024
				c0.544,0.023,1.541,0.083,2.031-0.072c0.627-0.197,1.104-0.675,1.302-1.302c0.216-0.687,0.132-2.533,0.181-3.363
				c0.089-1.487,0.018-3.046,0.018-4.54c-0.006-3.662-0.167-7.312-0.197-10.967c-0.022-2.813-0.137-5.668-0.231-8.488
				c-0.167-4.892-0.233-9.808-0.335-14.707c-0.103-4.856-0.161-9.725-0.125-14.587c0.012-1.332,0.06-2.682,0.054-4.008
				c-0.006-1.135,0.089-2.276,0.113-3.411c0.06-2.891,0.311-5.824,0.592-8.703c0.125-1.338,0.28-2.694,0.482-4.05l0.245-1.272
				l0.113-0.12c0.191-0.257,0.376-1.027,0.531-1.852c1.021-0.496,2.014-1.063,2.963-1.69l0.18-0.144l0.854-0.406
				c0.933-0.52,1.834-1.105,2.683-1.756c1.947-1.505,3.787-3.154,5.27-5.125c0.753-1.003,1.38-1.977,2.061-3.022
				c0.556-0.86,1.081-1.917,1.529-2.951c0.245,0.257,0.55,0.466,0.9,0.609c1.655,0.645,3.273,1.254,5.02,1.625
				c1.647,0.353,3.703,0.776,5.376,0.812c0.591,0.012,1.177,0.078,1.768,0.089c1.69,0.036,3.43,0,5.113-0.113
				c9.151-0.621,18.374-3.226,27.119-5.896c6.11-1.864,12.186-3.865,18.29-5.747c4.797-1.476,9.552-2.819,14.384-4.14
				c4.038-1.099,8.136-1.822,12.233-2.616c0.705-0.144,1.428-0.263,2.155-0.37c-0.119,0.167-0.231,0.34-0.334,0.525
				c-0.311,0.543-0.269,3.447-0.251,4.188c0.035,1.26,0.013,2.526,0.197,3.769c0.34,2.312,0.938,4.486,2.02,6.374
				c0,0.998,0.604,1.941,1.583,2.324c0.07,0.024,0.144,0.048,0.215,0.072c0.592,0.603,1.261,1.153,2.031,1.654
				c0.896,0.585,1.721,1.082,2.788,1.267c0.515,0.083,0.98,0.155,1.435,0.191c0.042,0.221,0.09,0.448,0.155,0.663
				c0.508,1.685,1.165,2.879,2.217,4.277c1.696,2.258,5.064,3.698,7.843,3.662c0.472-0.006,1.004,0.012,1.463-0.089
				c0.516-0.114,1.153-0.138,1.661-0.323c1.846-0.687,3.751-1.702,5.071-3.22l0.006-0.012c0.621-0.454,1.229-0.956,1.727-1.404
				c2.329-2.15,4.45-4.611,6.016-7.383c0.419-0.747,0.729-1.464,1.11-2.216c0.425-0.83,0.771-2.115,0.985-3.035
				c0.305-1.296,0.556-2.825,0.467-4.157c-0.335-5.06-3.603-8.817-8.22-10.513c-0.065-0.083-0.126-0.173-0.187-0.251
				c-0.524-0.699-1.026-1.29-1.595-1.953c-1.396-1.631-3.757-3.202-5.614-4.295c-1.5-0.878-3.089-1.619-4.736-2.246
				c17.496-37.925,35.386-75.652,53.413-113.326c5.263-11.021,10.412-22.088,15.579-33.146c-0.412,2.031-0.886,4.068-1.272,6.099
				c-0.102,0.525-0.341,1.213-0.424,1.979l-0.013,0.363c0.013,0.312,0.084,0.604,0.251,0.85l0.238,0.244l-0.817,3.529
				c-0.287,1.147-0.55,2.343-0.884,3.472c-0.532,1.792-1.034,3.638-1.68,5.388c-0.621,1.685-1.271,3.321-1.912,4.994
				c-0.185,0.46,0.036,0.992,0.496,1.177s0.992-0.036,1.177-0.496c0.306-0.902,0.766-1.798,1.101-2.694
				c0.955-2.569,1.786-5.102,2.604-7.712c0.459-1.463,0.83-2.968,1.236-4.45c1.451-5.269,2.616-10.627,4.038-15.901
				c3.314-0.137,6.624-0.251,9.934-0.328c-3.272-0.065-6.564-0.048-9.845-0.006c0.174-0.634,0.347-1.267,0.532-1.895
				c0.148-0.537,0.305-1.068,0.46-1.606l0.788-0.209l2.688-0.675c0.347-0.084,0.788-0.203,1.226-0.334l1.193-0.406
				c0.228-0.084,0.412-0.238,0.621-0.328c0.197-0.084,0.438-0.418,0.562-0.604c0.824-1.248-0.048-3.112-1.565-3.249
				c-0.173-0.02-0.363-0.006-0.556,0.022l-0.376,0.078l-0.221,0.048c-0.396,0.107-0.795,0.244-1.13,0.334
				c-0.566,0.149-1.129,0.316-1.689,0.479c0.273-0.783,0.567-1.56,0.878-2.324c0.06-0.167,0.132-0.341,0.203-0.52
				c0.514-0.132,0.938-0.557,1.039-1.105c1.29-4.944,2.062-9.616,2.191-14.525c0.496-0.484,0.753-1.189,0.64-1.912
				c-0.244-1.589-0.515-3.262-0.859-4.897c-0.454-5.119-1.506-10.029-3.166-14.938c-1.225-3.614-2.963-7.246-4.928-10.509
				c-6.142-10.195-14.862-18.045-24.927-23.72c1.135-0.782,2.264-1.577,3.397-2.39c0.299-0.19,0.389-0.591,0.197-0.891
				c-0.192-0.299-0.592-0.389-0.89-0.196c-1.513,0.723-3,1.601-4.457,2.515c-1.045-0.556-2.108-1.087-3.179-1.595
				c-2.084-1.32-4.217-2.538-6.396-3.649c-2.526-1.29-5.023-2.21-7.663-3.202c-2.091-0.781-4.576-1.325-6.774-1.756
				c-2.084-0.405-4.301-0.83-6.409-1.026c-1.743-0.161-3.493-0.431-5.25-0.509c-3.41-0.154-6.827-0.269-10.244-0.132h-0.006
				c-0.692-0.06-1.387-0.106-2.056-0.143c-1.021-0.293-2.043-0.521-2.992-0.615c-5.148-0.538-11.35,0.035-16.427,1.062
				c-2.217,0.447-4.492,0.914-6.647,1.596c-2.433,0.771-4.916,1.493-7.265,2.496c-0.627,0.263-1.242,0.532-1.846,0.807
				c-0.521-0.705-1.493-0.956-2.306-0.556c-6.23,2.873-11.805,6.756-16.444,11.672c-0.968,0.663-1.864,1.428-2.684,2.217
				c-1.026,0.979-2.043,1.94-3.033,2.962c-0.604,0.622-1.171,1.297-1.774,1.906c-0.603,0.603-1.177,1.392-1.726,2.061
				c-0.86,1.033-1.649,2.043-2.312,2.944c-3.703,4.511-6.869,9.253-9.526,14.265c-4.234,5.872-7.808,12.233-10.604,19.121
				c-1.409,3.465-2.574,7.108-3.471,10.739c-0.441,1.786-0.949,3.764-1.184,5.579c-0.041,0.233,0.113,0.46,0.348,0.502
				c0.233,0.042,0.46-0.113,0.502-0.347c0.144-1.122,0.441-2.287,0.675-3.398c0.472-2.246,1.087-4.462,1.792-6.647
				c1.093-3.375,2.342-6.476,3.787-9.713c0.657-1.476,1.458-2.86,2.162-4.302c0.914-1.875,2.191-3.751,3.278-5.543
				c0.072-0.125,0.145-0.245,0.239-0.353c-2.783,5.681-4.767,12.107-5.914,18.715c-0.022,0.102-0.022,0.203,0.149,0.221
				c-0.013-0.209-0.215-0.37-0.525-0.502c-0.896-0.394-1.828,0.191-2.031,1.111c-0.185,0.824-0.209,2.055-0.179,2.909
				c0.012,0.388,0.113,0.807,0.138,1.213c0.186,3.069,0.866,5.983,1.811,8.834c-0.096,1.978-0.145,3.954-0.187,5.89
				c-0.006,0.275,0.133,0.521,0.348,0.669c-1.226,0.251-2.443,0.508-3.655,0.776c-0.723,0.145-1.195,0.865-1.052,1.589
				c0.143,0.724,0.866,1.194,1.589,1.052c0.538-0.126,1.081-0.244,1.625-0.357c0.042,0.102,0.09,0.203,0.148,0.305
				c4.563,7.927,9.002,15.9,13.188,24.019c1.5,3.333,2.969,6.678,4.415,10.029c4.211,9.791,8.464,19.581,12.747,29.341
				c3.136,7.144,6.087,14.39,9.15,21.569c1.936,4.54,3.793,9.116,5.682,13.679c3.069,7.413,6.104,14.832,9.103,22.274
				c4.164,10.334,8.305,20.692,12.419,31.056c-5.752,0.173-11.559,0.884-17.148,1.732c-12.927,1.954-25.681,5.125-38.595,7.061
				c-6.916,1.034-14.149,2.007-21.146,1.38c-2.359-0.215-4.856-0.627-7.072-1.476c-0.46-0.173-1.081-0.37-1.5-0.615
				c-0.292-0.167-0.633-0.298-0.913-0.466c-0.669-0.406-1.261-0.848-1.894-1.278c-0.467-1.404-1.052-2.766-1.703-4.032
				c-0.932-1.804-2.252-3.608-3.727-5.03c-1.655-1.601-3.16-2.586-5.181-3.662c-0.729-0.388-1.535-0.723-2.389-0.998l-0.466-0.125
				l-0.02-0.006l-0.006-0.006l-0.018-0.006c-0.061-0.024-0.12-0.048-0.329-0.078c-0.766-0.346-1.714-0.621-2.683-0.836
				c-2.688-0.585-5.501-0.645-8.2-0.245c-0.944,0.138-2.021,0.293-2.935,0.55c-2.867,0.8-5.227,1.732-7.837,3.166l-1.827,1.123
				l-0.186,0.072c-1.129,0.532-2.12,0.992-3.214,1.607c-0.843,0.478-1.708,1.129-2.474,1.72c-2.957,2.282-5.315,5.203-6.862,8.53
				c-0.37,0.179-0.741,0.347-1.105,0.502c-6.898,2.79-17.598,1.744-24.628,0.783c-6.183-0.842-12.335-1.948-18.451-3.178
				c-3.543-0.71-7.107-1.421-10.657-2.073c-3.01-0.555-6.025-1.177-9.049-1.672c-3.297-0.543-6.553-1.033-9.868-1.458
				c-4.026-0.52-8.261-0.926-12.532-1.021c0.771-1.941,1.547-3.876,2.324-5.812c6.392-16.056,12.807-32.101,19.449-48.055
				c6.518-15.65,12.992-31.318,19.861-46.819c2.491-5.615,4.904-11.277,7.348-16.917c1.511-3.494,3.06-6.977,4.617-10.459
				c1.105-2.151,2.229-4.29,3.369-6.421c0.036,0.076,0.071,0.154,0.125,0.228l0.239,0.244l-0.818,3.53
				c-0.286,1.146-0.55,2.342-0.884,3.471c-0.532,1.792-1.033,3.638-1.68,5.388c-0.62,1.685-1.271,3.321-1.91,4.994
				c-0.187,0.46,0.034,0.992,0.494,1.177s0.992-0.036,1.178-0.496c0.305-0.902,0.765-1.798,1.1-2.694
				c0.956-2.569,1.786-5.102,2.604-7.712c0.46-1.463,0.829-2.968,1.235-4.45c1.152-4.193,2.126-8.439,3.189-12.663
				c0.608-1.094,1.219-2.192,1.84-3.278c2.986-0.115,5.968-0.217,8.941-0.287c-2.914-0.062-5.842-0.049-8.769-0.019
				c0.794-1.394,1.595-2.772,2.419-4.135l0.975-0.238c0.347-0.084,0.787-0.202,1.225-0.334l1.194-0.405
				c0.228-0.084,0.411-0.24,0.62-0.33c0.197-0.082,0.438-0.418,0.562-0.604c0.824-1.248-0.048-3.112-1.564-3.249
				c-0.174-0.019-0.364-0.006-0.556,0.023l-0.377,0.077l-0.221,0.049c-0.396,0.106-0.794,0.244-1.129,0.334
				c-0.573,0.144-1.13,0.311-1.69,0.479c0.274-0.783,0.567-1.56,0.878-2.324c0.061-0.167,0.132-0.341,0.203-0.52
				c0.514-0.132,0.938-0.556,1.039-1.105c1.291-4.944,2.062-9.615,2.192-14.525c0.495-0.484,0.753-1.189,0.64-1.912
				c-0.245-1.589-0.514-3.261-0.86-4.897c-0.454-5.119-1.505-10.028-3.166-14.938c-1.225-3.614-2.963-7.246-4.928-10.508
				c-6.141-10.196-14.861-18.045-24.927-23.721c1.135-0.781,2.264-1.577,3.397-2.39c0.3-0.19,0.39-0.591,0.197-0.89
				c-0.192-0.3-0.591-0.39-0.89-0.197c-1.513,0.723-2.999,1.601-4.456,2.515c-1.046-0.556-2.108-1.087-3.179-1.595
				c-2.085-1.32-4.218-2.538-6.397-3.649c-2.527-1.29-5.023-2.21-7.664-3.201c-2.091-0.782-4.576-1.326-6.774-1.757
				c-2.084-0.405-4.301-0.83-6.409-1.026c-1.744-0.161-3.495-0.431-5.25-0.508c-3.411-0.155-6.828-0.27-10.238-0.133h-0.012
				c-0.693-0.06-1.386-0.106-2.073-0.148c-1.003-0.286-2.025-0.515-2.975-0.608C348.874-320.578,342.673-320.005,337.596-318.978z
				 M367.295-314.067c0.203,0.036,0.406,0.072,0.609,0.114c-0.448,0.274-0.896,0.555-1.35,0.854
				c-3.997,2.567-7.819,5.293-11.487,8.314c-4.014,3.31-7.945,6.689-11.923,10.041c-5.269,4.433-10.399,8.816-16.009,12.818
				c-0.173,0.12-0.209,0.37-0.089,0.544c0.12,0.173,0.37,0.209,0.543,0.09c6.439-4.624,12.496-9.671,18.583-14.749
				c3.722-3.104,7.502-6.086,11.308-9.085c3.357-2.641,7.061-5.173,10.68-7.437c0.55-0.348,1.123-0.676,1.697-0.998
				c4.133,0.878,8.237,2.043,12.209,3.465c-4.761,3.088-9.426,6.26-14.139,9.468c-2.013,1.368-3.942,2.873-5.925,4.283
				c-4.259,3.034-8.345,6.36-12.329,9.735c-4.384,3.716-8.727,7.777-12.64,11.988l0.006,0.364l0.365-0.006
				c13.309-14.324,29.854-24.909,46.323-35.226c2.037,0.771,4.026,1.606,5.961,2.503c-3.978,2.449-7.861,5.274-11.504,8.111
				c-3.566,2.771-7.162,5.537-10.579,8.488c-5.436,4.688-10.89,9.324-16.009,14.359c-1.326,1.303-2.688,2.586-3.966,3.931
				c-0.185,0.186-0.185,0.496,0,0.682h0.681c2.557-2.545,5.143-5.155,7.843-7.551c2.443-2.162,4.862-4.35,7.353-6.463
				c6.708-5.705,13.715-11.009,20.919-16.068c1.774-1.248,3.572-2.562,5.322-3.853c0.43-0.323,0.878-0.657,1.326-0.979
				c0.627,0.304,1.248,0.615,1.87,0.938c1.63,0.842,3.238,1.731,4.821,2.676c-2.33,1.541-4.647,3.101-6.94,4.684
				c-3.877,2.664-7.61,5.531-11.367,8.352c-7.652,5.746-15.029,11.881-21.917,18.522c-0.161,0.155-0.167,0.424-0.012,0.585
				c0.155,0.161,0.424,0.167,0.585,0.013c1.272-1.272,2.646-2.521,3.99-3.722c2.162-1.94,4.39-3.919,6.684-5.699
				c1.445-1.122,2.861-2.286,4.307-3.409c4.576-3.556,9.462-6.973,14.282-10.186c3.996-2.67,7.968-5.441,12.012-8.034
				c2.652,1.606,4.212,2.693,5.734,3.835c-1.2,0.812-2.371,1.654-3.482,2.496c-0.83,0.628-1.708,1.195-2.538,1.822
				c-2.169,1.643-4.336,3.31-6.458,5.012c-7.664,6.164-15.125,12.604-22.591,19.007c-0.203,0.175-0.227,0.484-0.054,0.688
				s0.484,0.227,0.687,0.054c2.957-2.575,6.015-5.029,8.996-7.567c8.548-7.275,17.604-14.182,27.096-20.231
				c1.653,1.313,3.255,2.688,4.693,4.234c-0.405-0.441-1.087-0.466-1.534-0.071c-1.666,1.344-3.298,2.915-4.939,4.318
				c-3.524,3.011-7.097,5.926-10.729,8.805c-4.432,3.513-8.996,6.947-13.607,10.221c-1.762,1.248-3.638,2.467-5.358,3.757
				c-0.352,0.239-0.442,0.735-0.203,1.089c0.239,0.353,0.734,0.44,1.087,0.202c2.915-2.043,5.83-4.067,8.739-6.123
				c2.945-2.085,5.812-4.282,8.727-6.408c2.963-2.162,5.794-4.504,8.715-6.714c3.059-2.312,6.165-4.898,9.074-7.413
				c0.46-0.4,0.52-1.095,0.131-1.565c3.268,3.005,4.771,4.647,6.2,6.368c-4.629,3.638-9.163,7.412-13.774,11.08
				c-7.95,6.32-16.151,12.347-24.06,18.721c-0.203,0.155-0.239,0.454-0.084,0.657c0.155,0.203,0.454,0.238,0.657,0.083
				c6.344-5.047,12.926-9.832,19.515-14.557c3.104-2.229,6.176-4.498,9.282-6.721c1.814-1.297,3.722-2.688,5.466-4.074
				c1.457-1.158,2.885-2.37,4.349-3.513c0.872,1.123,1.708,2.276,2.515,3.459c2.521,3.716,4.935,8.101,6.548,12.419
				c-0.329-0.154-0.729-0.148-1.053,0.061c-1.325,0.794-2.64,1.737-3.889,2.651c-2.532,1.853-5.083,3.774-7.46,5.829
				c-0.699,0.604-1.44,1.153-2.133,1.764c-2.025,1.773-4.104,3.506-6.152,5.25c-4.868,4.134-9.771,8.226-15.071,11.792
				c-0.275,0.185-0.347,0.566-0.162,0.842c0.186,0.274,0.567,0.347,0.842,0.161c1.505-1.136,3.147-2.126,4.653-3.285
				c2.956-2.287,5.913-4.539,8.812-6.899c3.773-3.076,7.538-6.116,11.367-9.133c3.201-2.526,6.814-5.137,10.352-7.156
				c0.179-0.119,0.312-0.28,0.396-0.46c0.041,0.132,0.083,0.264,0.131,0.396c0.524,1.637,1.235,3.445,1.56,5.137
				c0.095,0.502,0.209,1.01,0.322,1.512c-4.91,3.388-9.396,7.265-14.014,11.021c-2.02,1.637-3.996,3.404-6.039,4.994
				c-2.275,1.768-4.527,3.518-6.833,5.25c-0.396,0.286-0.515,0.812-0.316,1.242c-0.807-0.09-1.631-0.18-2.485-0.27
				c-1.325-0.167-2.651-0.316-10.028-0.83c0.006-0.012,0-0.018-0.006-0.023c-0.382-0.489-1.099-0.586-1.589-0.202
				c-0.042,0.028-0.078,0.06-0.114,0.083c-0.394-0.28-3.375-0.509-6.361-0.682c0.758-0.466,1.517-0.901,2.252-1.271
				c0.448-0.251,0.609-0.83,0.358-1.278c-0.251-0.448-0.831-0.609-1.278-0.358c-1.529,0.782-3.029,1.722-4.492,2.736
				c-0.591-0.024-1.183-0.054-1.774-0.072c-0.58-0.022-1.159-0.048-1.655-0.064c-1.23-0.061-2.425-0.107-3.614-0.155
				c1.135-0.651,2.288-1.213,3.441-1.647c0.478-0.223,0.687-0.802,0.466-1.278c-0.221-0.479-0.8-0.688-1.278-0.466
				c-2.085,0.89-3.99,2.001-5.776,3.261c-2.718-0.107-5.436-0.173-8.153-0.209c0.167-0.382,0.078-0.848-0.251-1.129
				c-0.406-0.354-1.034-0.312-1.386,0.096c-0.311,0.305-0.585,0.669-0.866,1.016c-4.624-0.029-9.247,0.029-13.864,0.107
				c-0.866,0.012-1.732,0.029-2.598,0.048c-0.042-0.084-0.096-0.167-0.167-0.232c-0.329-0.316-0.866-0.306-1.183,0.023
				c-0.096,0.083-0.179,0.167-0.269,0.257c-3.691,0.103-7.341,0.27-10.907,0.489c6.397-0.585,12.944-1.087,19.515-1.601
				c10.991-0.866,21.946-1.899,32.925-2.886c-13.53-0.084-27.167-0.473-40.684,0.107c-12.801,0.55-26.002,1.768-38.588,4.193
				c-1.529,0.292-3.196,0.488-4.689,0.859c-1.834,0.453-3.692,0.83-5.532,1.261c-3.303,0.775-6.75,1.721-9.969,2.796
				c-0.221,0.07-0.502,0.154-0.807,0.237c-0.167-0.794-0.37-1.589-0.597-2.377c1.129-1.283,2.204-2.664,3.315-3.966
				c1.833-2.163,3.655-4.319,5.519-6.458c2.187-2.509,4.432-4.916,6.941-7.096c0.765-0.663,1.685-1.422,2.533-1.96
				c0.167-0.113,0.203-0.353,0.09-0.521c-0.114-0.167-0.353-0.203-0.52-0.089c-1.745,1.267-3.214,2.438-4.803,3.906
				c-2.258,2.085-4.307,4.533-6.236,6.923c-1.84,2.276-3.662,4.569-5.495,6.857c-0.49,0.604-0.992,1.235-1.505,1.863
				c-0.723-2.365-1.655-4.672-2.533-6.821c-0.317-0.76-0.794-2.162-1.26-3.064c0.173-0.733,0.394-1.463,0.627-2.198
				c0.299-0.979,0.657-1.971,0.932-2.949c0.389-1.374,0.735-2.771,1.135-4.141c0.562-1.904,1.201-3.805,1.804-5.698
				c0.149-0.483,0.311-0.955,0.478-1.428c2.354-2.88,4.862-5.65,7.425-8.339c4.528-4.761,9.217-9.211,14.181-13.518
				c3.877-3.369,7.885-6.895,12.006-9.971c0.299-0.227,0.358-0.656,0.131-0.956c-0.227-0.299-0.657-0.357-0.956-0.131
				c-6.033,4.336-11.935,9.438-17.203,14.652c-5.03,4.97-9.958,10.041-14.515,15.44c0.418-1.052,0.842-2.103,1.249-3.165
				c0.155-0.419,0.328-0.83,0.507-1.236l0.018,0.006l0.042,0.023c0.812-1.29,1.559-2.497,2.497-3.709
				c-0.812,0.614-0.257-0.139,0.508-0.599c2.282-2.933,5.089-5.562,7.873-8.017c2.604-2.307,5.304-4.593,7.795-7.006
				c0.03-0.036,0.066-0.072,0.096-0.103c6.218-4.72,12.455-9.396,18.631-14.163c2.216-1.715,4.378-3.481,6.535-5.273
				c2.694-0.85,5.46-1.577,8.273-2.192c-2.072,1.422-4.091,2.909-6.062,4.492c-3.256,2.604-6.493,5.202-9.677,7.902
				c-4.05,3.435-8.082,6.971-12.198,10.315c-2.031,1.648-4.014,3.394-6.087,4.987c-1.362,1.052-2.813,2.145-4.133,3.237
				l-0.042,0.316l0.316,0.041c1.78-1.434,3.614-2.825,5.406-4.247c3.686-2.915,7.275-6.021,10.883-9.037
				c6.971-5.83,13.894-11.736,21.271-17.042c0.58-0.424,1.165-0.849,1.744-1.271c0.807-0.161,1.619-0.322,2.437-0.466
				c4.289-0.795,8.596-1.314,12.891-1.565c-3.602,2.485-7.18,5.048-10.656,7.676c-3.005,2.271-5.992,4.605-8.924,6.959
				c-3.924,3.148-7.957,6.226-11.935,9.308c-2.479,1.924-5.006,3.816-7.521,5.691c-2.007,1.5-4.092,2.903-6.093,4.408
				c-0.167,0.114-0.203,0.354-0.09,0.521c0.114,0.167,0.353,0.202,0.52,0.089c2.007-1.505,4.092-2.921,6.117-4.396
				c1.78-1.302,3.548-2.616,5.334-3.912c3.106-2.252,6.165-4.61,9.247-6.898c4.695-3.488,9.396-6.959,14.121-10.405
				c4.205-3.076,8.356-6.164,12.622-9.157C360.503-314.39,363.908-314.318,367.295-314.067z M610.798-314.163
				c-3.602,2.485-7.18,5.048-10.656,7.676c-3.005,2.271-5.99,4.605-8.924,6.959c-3.925,3.148-7.957,6.226-11.935,9.308
				c-2.479,1.924-5.006,3.816-7.521,5.691c-2.008,1.5-4.092,2.903-6.093,4.408c-0.168,0.114-0.203,0.354-0.09,0.521
				c0.112,0.167,0.353,0.202,0.52,0.089c2.007-1.505,4.093-2.921,6.117-4.396c1.779-1.302,3.548-2.616,5.334-3.912
				c3.105-2.252,6.164-4.61,9.246-6.898c4.695-3.488,9.396-6.959,14.121-10.405c4.205-3.076,8.356-6.164,12.622-9.157
				c3.404-0.106,6.81-0.036,10.195,0.215c0.203,0.036,0.406,0.072,0.609,0.114c-0.448,0.274-0.896,0.555-1.35,0.854
				c-3.996,2.567-7.819,5.293-11.487,8.314c-4.014,3.31-7.944,6.689-11.923,10.041c-5.27,4.433-10.399,8.816-16.008,12.818
				c-0.174,0.12-0.21,0.37-0.09,0.544c0.118,0.173,0.369,0.209,0.543,0.09c6.438-4.624,12.496-9.671,18.583-14.749
				c3.722-3.104,7.503-6.086,11.308-9.085c3.357-2.641,7.061-5.173,10.681-7.437c0.551-0.348,1.123-0.676,1.696-0.998
				c4.134,0.878,8.237,2.043,12.21,3.465c-4.761,3.088-9.427,6.26-14.14,9.468c-2.014,1.368-3.942,2.873-5.925,4.283
				c-4.261,3.034-8.346,6.36-12.329,9.735c-4.386,3.716-8.729,7.777-12.641,11.988l0.006,0.364l0.364-0.006
				c13.31-14.324,29.854-24.909,46.323-35.226c2.037,0.771,4.026,1.606,5.962,2.503c-3.979,2.449-7.861,5.274-11.505,8.111
				c-3.566,2.771-7.162,5.537-10.579,8.488c-5.436,4.688-10.89,9.324-16.009,14.359c-1.326,1.303-2.688,2.586-3.966,3.931
				c-0.187,0.186-0.187,0.496,0,0.682h0.681c2.557-2.545,5.144-5.155,7.843-7.551c2.443-2.162,4.862-4.349,7.354-6.463
				c6.708-5.705,13.715-11.009,20.919-16.068c1.772-1.248,3.571-2.562,5.322-3.853c0.43-0.323,0.878-0.657,1.324-0.979
				c0.628,0.304,1.249,0.615,1.87,0.938c1.631,0.842,3.237,1.731,4.82,2.676c-2.329,1.541-4.647,3.101-6.94,4.684
				c-3.877,2.664-7.609,5.531-11.366,8.352c-7.652,5.746-15.029,11.881-21.917,18.522c-0.161,0.155-0.167,0.425-0.013,0.585
				c0.155,0.161,0.425,0.167,0.586,0.013c1.272-1.272,2.646-2.521,3.99-3.722c2.162-1.94,4.39-3.919,6.684-5.698
				c1.445-1.123,2.861-2.287,4.308-3.41c4.576-3.556,9.462-6.973,14.282-10.186c3.996-2.67,7.969-5.441,12.013-8.034
				c2.652,1.606,4.211,2.693,5.734,3.835c-1.2,0.812-2.371,1.654-3.482,2.496c-0.83,0.628-1.708,1.195-2.539,1.822
				c-2.168,1.644-4.336,3.311-6.457,5.012c-7.663,6.164-15.124,12.604-22.591,19.008c-0.203,0.174-0.227,0.483-0.054,0.688
				s0.482,0.227,0.687,0.054c2.957-2.574,6.016-5.029,8.996-7.567c8.548-7.275,17.604-14.182,27.095-20.231
				c1.667,1.326,3.286,2.712,4.731,4.271c-0.406-0.479-1.111-0.515-1.571-0.107c-1.667,1.344-3.297,2.915-4.938,4.318
				c-3.524,3.011-7.098,5.926-10.729,8.805c-4.433,3.513-8.996,6.947-13.606,10.221c-1.763,1.248-3.639,2.468-5.358,3.758
				c-0.353,0.238-0.441,0.734-0.203,1.088c0.239,0.353,0.735,0.44,1.088,0.203c2.915-2.044,5.83-4.068,8.738-6.123
				c2.945-2.085,5.812-4.283,8.728-6.409c2.963-2.162,5.794-4.504,8.716-6.714c3.059-2.312,6.165-4.898,9.072-7.413
				c0.468-0.406,0.521-1.111,0.108-1.583c3.297,3.027,4.802,4.671,6.224,6.386c-4.629,3.638-9.163,7.412-13.773,11.08
				c-7.95,6.32-16.151,12.347-24.062,18.721c-0.203,0.155-0.238,0.454-0.084,0.657c0.155,0.203,0.454,0.238,0.657,0.083
				c6.344-5.047,12.927-9.832,19.516-14.557c3.105-2.229,6.177-4.498,9.282-6.721c1.815-1.297,3.722-2.688,5.466-4.073
				c1.457-1.159,2.886-2.371,4.349-3.514c0.873,1.123,1.709,2.276,2.516,3.459c2.521,3.716,4.934,8.101,6.547,12.419
				c-0.329-0.154-0.729-0.148-1.052,0.061c-1.326,0.794-2.641,1.737-3.889,2.651c-2.532,1.853-5.083,3.774-7.461,5.829
				c-0.698,0.604-1.439,1.153-2.133,1.764c-2.024,1.773-4.104,3.506-6.152,5.25c-4.868,4.134-9.772,8.226-15.07,11.792
				c-0.274,0.185-0.347,0.566-0.161,0.842c0.187,0.274,0.567,0.347,0.842,0.161c1.506-1.136,3.148-2.126,4.653-3.285
				c2.957-2.287,5.914-4.539,8.811-6.899c3.775-3.076,7.539-6.116,11.367-9.133c3.202-2.526,6.816-5.137,10.354-7.156
				c0.179-0.119,0.311-0.279,0.394-0.46c0.042,0.132,0.084,0.264,0.132,0.396c0.525,1.637,1.236,3.445,1.56,5.137
				c0.096,0.502,0.209,1.01,0.323,1.512c-4.91,3.388-9.396,7.265-14.015,11.021c-2.019,1.637-3.996,3.404-6.039,4.994
				c-2.275,1.768-4.527,3.518-6.833,5.25c-0.395,0.287-0.515,0.812-0.316,1.242c-0.807-0.09-1.631-0.18-2.484-0.27
				c-1.326-0.167-2.652-0.316-10.041-0.83c0.019-0.012,0.012-0.018,0.006-0.023c-0.383-0.489-1.1-0.586-1.589-0.202
				c-0.042,0.028-0.078,0.06-0.114,0.083c-0.394-0.28-3.374-0.509-6.36-0.682c0.759-0.466,1.518-0.901,2.252-1.271
				c0.447-0.251,0.608-0.83,0.357-1.278s-0.83-0.609-1.277-0.358c-1.529,0.782-3.028,1.722-4.492,2.736
				c-0.591-0.023-1.184-0.054-1.773-0.072c-0.58-0.022-1.159-0.048-1.655-0.064c-1.229-0.061-2.425-0.107-3.612-0.155
				c1.135-0.651,2.287-1.213,3.439-1.647c0.479-0.223,0.688-0.802,0.467-1.278c-0.222-0.479-0.802-0.688-1.278-0.466
				c-2.085,0.89-3.99,2.001-5.776,3.261c-2.718-0.107-5.436-0.173-8.152-0.209c0.166-0.382,0.077-0.848-0.252-1.129
				c-0.405-0.354-1.032-0.312-1.386,0.096c-0.311,0.306-0.585,0.669-0.866,1.017c-4.623-0.03-9.245,0.028-13.863,0.106
				c-0.866,0.012-1.731,0.029-2.599,0.048c-0.042-0.084-0.096-0.167-0.168-0.232c-0.328-0.316-0.866-0.306-1.183,0.023
				c-0.096,0.083-0.179,0.167-0.27,0.257c-3.696,0.103-7.383,0.274-11.057,0.496c6.541-0.592,13.094-1.094,19.664-1.606
				c10.991-0.866,21.946-1.899,32.925-2.885c-13.528-0.084-27.166-0.474-40.684,0.106c-12.802,0.55-26.002,1.769-38.588,4.193
				c-1.529,0.292-3.196,0.489-4.689,0.859c-1.834,0.453-3.69,0.83-5.531,1.261c-3.303,0.775-6.75,1.721-9.97,2.796
				c-0.221,0.07-0.502,0.154-0.8,0.237c-0.174-0.8-0.377-1.589-0.604-2.377c1.129-1.283,2.204-2.664,3.315-3.966
				c1.833-2.163,3.655-4.318,5.519-6.458c2.188-2.509,4.434-4.916,6.941-7.096c0.765-0.663,1.685-1.422,2.533-1.96
				c0.167-0.113,0.202-0.353,0.089-0.521c-0.113-0.167-0.354-0.202-0.521-0.089c-1.744,1.267-3.214,2.438-4.803,3.906
				c-2.258,2.085-4.307,4.533-6.236,6.923c-1.839,2.276-3.66,4.569-5.494,6.857c-0.49,0.604-0.991,1.235-1.506,1.856
				c-0.724-2.358-1.654-4.665-2.532-6.814c-0.316-0.759-0.794-2.162-1.261-3.06c0.174-0.739,0.395-1.469,0.627-2.204
				c0.3-0.979,0.657-1.971,0.933-2.949c0.389-1.374,0.733-2.771,1.135-4.141c0.562-1.904,1.201-3.805,1.804-5.697
				c0.149-0.484,0.312-0.956,0.474-1.416c2.358-2.893,4.868-5.663,7.431-8.352c4.527-4.761,9.217-9.211,14.182-13.518
				c3.877-3.369,7.885-6.895,12.006-9.971c0.299-0.227,0.357-0.656,0.132-0.956c-0.229-0.299-0.657-0.357-0.956-0.131
				c-6.033,4.336-11.936,9.438-17.203,14.652c-5.029,4.97-9.957,10.041-14.515,15.441c0.418-1.053,0.842-2.104,1.248-3.166
				c0.154-0.418,0.328-0.83,0.508-1.236l0.018,0.006l0.042,0.023c0.812-1.29,1.561-2.497,2.497-3.709
				c-0.812,0.614-0.257-0.139,0.508-0.599c2.281-2.933,5.089-5.562,7.873-8.017c2.604-2.306,5.305-4.593,7.795-7.006
				c0.03-0.036,0.065-0.072,0.097-0.103c6.218-4.72,12.453-9.396,18.631-14.163c2.191-1.701,4.343-3.459,6.475-5.227
				c2.736-0.878,5.514-1.613,8.327-2.234c-2.066,1.416-4.086,2.903-6.057,4.486c-3.257,2.604-6.493,5.202-9.679,7.902
				c-4.05,3.435-8.081,6.971-12.196,10.315c-2.03,1.648-4.015,3.394-6.087,4.987c-1.361,1.052-2.813,2.145-4.134,3.237l-0.042,0.316
				l0.316,0.041c1.78-1.434,3.614-2.825,5.406-4.247c3.686-2.915,7.274-6.021,10.883-9.037c6.971-5.83,13.895-11.736,21.271-17.042
				c0.579-0.424,1.164-0.842,1.744-1.267c0.808-0.167,1.618-0.322,2.438-0.472C602.196-313.393,606.503-313.912,610.798-314.163z
				 M316.336-300.424c-2.975,2.288-5.949,4.562-8.936,6.852c0.729-0.831,1.464-1.631,2.15-2.515
				c1.058-1.374,1.816-2.809,2.742-4.241c-0.149,0.023-0.412,0.006-0.514,0.119l-0.274,0.478c-0.287,0.49-0.615,1.117-0.95,1.565
				c-0.424,0.567-0.795,1.188-1.219,1.756c-1.075,1.435-2.3,2.748-3.519,4.05c-2.09,1.603-4.175,3.196-6.26,4.804
				c-3.262,2.497-6.547,5.018-9.761,7.586c0.012-0.019,0.03-0.049,0.048-0.071c1.601-2.879,3.339-5.723,5.233-8.464
				c2.174-2.336,4.528-4.552,6.905-6.481c2.706-2.079,5.436-3.96,8.153-5.572c3.937-2.354,7.903-4.636,12.126-6.451
				c0.4-0.222,1.236-0.557,2.145-0.901c-0.066,0.023-0.066,0.023,0.089-0.036c1.117-0.431,2.246-0.837,3.387-1.213
				C324.012-306.284,320.16-303.375,316.336-300.424z M572.777-300.424c-2.976,2.288-5.949,4.562-8.937,6.852
				c0.729-0.831,1.463-1.631,2.15-2.515c1.058-1.374,1.814-2.809,2.742-4.241c-0.149,0.023-0.413,0.006-0.516,0.119l-0.273,0.478
				c-0.287,0.49-0.615,1.117-0.949,1.565c-0.425,0.567-0.795,1.188-1.219,1.756c-1.075,1.435-2.3,2.748-3.52,4.05
				c-2.091,1.603-4.176,3.196-6.26,4.804c-3.262,2.497-6.547,5.018-9.761,7.593c0.012-0.024,0.029-0.056,0.048-0.078
				c1.601-2.873,3.333-5.717,5.227-8.458c2.188-2.348,4.569-4.582,7.056-6.606c2.567-1.966,5.292-3.841,8.01-5.454
				c3.745-2.239,7.521-4.42,11.535-6.163c2.019-0.886,4.062-1.674,6.128-2.378C580.394-306.242,576.571-303.351,572.777-300.424z
				 M288.417-262.29c-3.196,3.966-6.475,7.891-9.653,11.869l0.042,0.388l0.388-0.042c0.114-0.147,0.227-0.292,0.353-0.44
				c1.81-1.404,3.638-2.767,5.406-4.241c1.434-1.201,2.766-2.516,4.175-3.716c1.571-1.338,3.16-3.101,4.6-4.581
				c2.873-2.951,5.645-5.782,8.638-8.603c-0.406-0.186-1.183,0.729-1.476,0.997c-1.356,1.261-2.646,2.6-3.955,3.901
				c-1.804,1.792-3.578,3.679-5.346,5.513c-1.141,1.184-2.383,2.294-3.572,3.423c-2.419,2.288-5.065,4.312-7.711,6.367
				c1.039-1.271,2.084-2.521,3.124-3.769c3.345-4.026,6.559-8.153,9.951-12.149c6.421-7.562,12.957-14.97,20.751-21.146
				c0.138-0.113,0.162-0.328,0.048-0.467c-0.113-0.137-0.329-0.16-0.466-0.048C304.104-281.327,296.117-271.854,288.417-262.29z
				 M544.858-262.29c-3.195,3.966-6.476,7.891-9.653,11.869l0.042,0.388l0.389-0.042c0.113-0.147,0.228-0.292,0.354-0.44
				c1.81-1.404,3.638-2.767,5.404-4.241c1.435-1.201,2.767-2.516,4.177-3.716c1.57-1.338,3.16-3.101,4.6-4.581
				c2.873-2.951,5.646-5.782,8.638-8.603c-0.405-0.186-1.184,0.729-1.476,0.997c-1.356,1.261-2.646,2.6-3.954,3.901
				c-1.805,1.792-3.578,3.679-5.347,5.513c-1.142,1.184-2.384,2.294-3.572,3.423c-2.419,2.288-5.065,4.312-7.711,6.367
				c1.039-1.271,2.084-2.521,3.124-3.769c3.345-4.026,6.559-8.153,9.951-12.149c6.422-7.562,12.956-14.97,20.751-21.146
				c0.138-0.113,0.162-0.328,0.048-0.467c-0.113-0.137-0.328-0.16-0.466-0.048C560.545-281.327,552.559-271.854,544.858-262.29z
				 M288.405-275.073c-0.131,0.09-0.227,0.209-0.316,0.328c-0.072,0.09-0.144,0.18-0.191,0.271
				c-1.553,1.708-1.762,2.019-1.959,2.341c0.03-0.061,0.054-0.119,0.083-0.179c0.908-2.062,1.894-4.129,2.951-6.136
				c2.813-2.294,5.747-4.516,8.62-6.72c1.165-0.902,2.342-1.798,3.519-2.7C296.481-283.615,291.959-280.055,288.405-275.073z
				 M544.847-275.073c-0.132,0.09-0.228,0.209-0.315,0.328c-0.072,0.09-0.145,0.18-0.191,0.271
				c-1.553,1.708-1.763,2.019-1.959,2.341c0.029-0.061,0.055-0.119,0.083-0.179c0.908-2.062,1.895-4.129,2.951-6.136
				c2.813-2.294,5.746-4.516,8.619-6.72c1.165-0.902,2.342-1.798,3.519-2.7C552.923-283.615,548.4-280.055,544.847-275.073z
				 M419.197-273c-0.567,0.495-1.117,1.003-1.686,1.493c-0.579,0.502-1.219,0.962-1.786,1.476c-1.109,1.003-2.544,2.078-3.757,2.97
				c-1.368,0.996-2.7,2.049-4.074,3.046c-1.229,0.896-2.495,1.75-3.727,2.646c-3.543,2.574-7.24,4.964-10.794,7.526
				c-1.063,0.771-2.18,1.499-3.219,2.294c-2.27,1.738-4.618,3.351-6.798,5.214c-0.311,0.245-0.358,0.711-0.113,1.021
				c0.245,0.312,0.71,0.358,1.021,0.114c2.293-1.989,4.892-3.823,7.365-5.585c4.134-2.945,8.394-5.723,12.592-8.572
				c3.368-2.288,6.827-4.588,10.064-7.049c1.512-1.146,2.987-2.329,4.492-3.481c1.499-1.146,2.873-2.516,4.307-3.745
				c0.442-0.412,0.472-1.111,0.06-1.554c-0.411-0.441-1.109-0.472-1.553-0.06C420.774-274.529,420.021-273.717,419.197-273z
				 M675.639-273c-0.566,0.495-1.117,1.003-1.685,1.493c-0.579,0.502-1.219,0.962-1.786,1.476c-1.111,1.003-2.545,2.078-3.757,2.97
				c-1.368,0.996-2.7,2.049-4.074,3.046c-1.229,0.896-2.497,1.75-3.728,2.646c-3.542,2.574-7.239,4.964-10.793,7.526
				c-1.063,0.771-2.182,1.499-3.221,2.294c-2.271,1.738-4.618,3.351-6.798,5.214c-0.311,0.245-0.357,0.711-0.113,1.021
				c0.244,0.312,0.71,0.358,1.021,0.114c2.293-1.989,4.892-3.823,7.364-5.585c4.134-2.945,8.393-5.723,12.592-8.572
				c3.369-2.288,6.828-4.588,10.064-7.049c1.513-1.146,2.986-2.329,4.492-3.481c1.499-1.146,2.873-2.516,4.308-3.745
				c0.44-0.412,0.472-1.111,0.06-1.554c-0.412-0.441-1.111-0.472-1.553-0.06C677.216-274.529,676.463-273.717,675.639-273z
				 M430.75-250.911c-4.289,3.513-8.554,7.049-12.837,10.562c-1.686,1.374-3.387,2.766-5.054,4.182
				c-0.395-0.054-0.794-0.107-1.194-0.161c-2.043-0.281-4.086-0.46-6.129-0.705c-0.096-0.012-0.19-0.022-0.286-0.035
				c2.114-1.606,4.229-3.195,6.344-4.809c3.404-2.61,6.727-5.406,10.096-8.076c2.776-2.204,5.607-4.331,8.59-6.248
				C430.529-254.424,430.744-252.661,430.75-250.911z M687.191-250.911c-4.289,3.513-8.556,7.049-12.838,10.562
				c-1.685,1.374-3.387,2.766-5.054,4.182c-0.395-0.054-0.794-0.107-1.193-0.161c-2.044-0.281-4.087-0.46-6.13-0.705
				c-0.096-0.012-0.19-0.022-0.285-0.035c2.113-1.606,4.229-3.195,6.343-4.809c3.405-2.61,6.727-5.406,10.096-8.076
				c2.777-2.204,5.608-4.331,8.589-6.248C686.97-254.424,687.186-252.661,687.191-250.911z M530.952-250.923
				c-0.048,0.28-0.103,0.562-0.144,0.848c-0.023-0.196-0.042-0.424-0.077-0.627l-0.071-0.37l-0.103-0.49l0.107,0.532
				C530.756-250.982,530.851-250.947,530.952-250.923z M274.201-251.15l0.018,0.078l0.006,0.042c0.09,0.048,0.185,0.083,0.287,0.107
				c-0.048,0.286-0.095,0.573-0.143,0.86c-0.024-0.209-0.042-0.438-0.078-0.641L274.201-251.15z M431.264-245.171
				c0.103,3.584-0.084,7.192-0.315,10.765c-0.024,0.334-0.048,0.669-0.078,1.003c-0.161-0.077-0.34-0.138-0.525-0.154
				c-3.477-0.562-6.959-1.142-10.44-1.654c-1.78-0.271-3.566-0.502-5.347-0.735c5.357-4.484,10.968-8.805,16.511-13.052
				C431.156-247.733,431.222-246.461,431.264-245.171z M687.705-245.171c0.102,3.584-0.084,7.192-0.316,10.765
				c-0.019,0.222-0.035,0.447-0.055,0.675c-0.041,0.097-0.083,0.186-0.131,0.28c-0.132-0.054-0.275-0.09-0.418-0.106
				c-3.478-0.562-6.959-1.142-10.441-1.654c-1.779-0.271-3.565-0.502-5.347-0.735c5.358-4.484,10.968-8.805,16.511-13.052
				C687.598-247.733,687.663-246.461,687.705-245.171z M287.043-238.6c1.768-1.806,3.572-3.608,5.376-5.376
				C290.615-242.208,288.812-240.404,287.043-238.6z M543.484-238.6c1.769-1.806,3.571-3.608,5.376-5.376
				C547.057-242.208,545.253-240.404,543.484-238.6z M364.41-236.133c0.197,0.006,0.4,0.018,0.603,0.022
				c-2.497,2.276-4.838,4.768-7.216,7.234c-1.661,1.714-3.351,3.446-5.131,5.047c-1.953,0.019-3.907,0.036-5.848,0.097
				c-0.92,0.022-1.846,0.035-2.766,0.035c3.07-4.115,7.162-7.126,11.367-10.46c0.831-0.663,1.619-1.35,2.39-2.061
				C360.049-236.211,362.26-236.181,364.41-236.133z M354.739-235.906c-4.522,3.829-9.283,7.258-12.592,12.203
				c-1.786-0.018-3.566-0.059-5.352-0.095c0.346-0.312,0.675-0.634,1.027-0.927c0.346-0.293,0.705-0.717,1.003-1.062
				c0.55-0.633,1.129-1.225,1.667-1.882c2.467-2.993,4.51-5.591,7.938-7.419c0.371-0.209,0.544-0.639,0.46-1.033
				c0.825-0.022,1.655-0.042,2.485-0.054c1.237-0.024,2.479-0.036,3.709-0.036C354.972-236.109,354.853-236.008,354.739-235.906z
				 M611.527-236.211c-0.114,0.102-0.233,0.203-0.348,0.305c-4.521,3.829-9.283,7.258-12.592,12.203
				c-1.786-0.018-3.565-0.059-5.353-0.095c0.347-0.312,0.675-0.634,1.026-0.927c0.348-0.293,0.705-0.717,1.004-1.062
				c0.551-0.633,1.129-1.225,1.666-1.882c2.469-2.993,4.511-5.591,7.939-7.419c0.37-0.209,0.543-0.639,0.459-1.033
				c0.825-0.022,1.655-0.042,2.485-0.054C609.054-236.199,610.296-236.211,611.527-236.211z M620.852-236.133
				c0.197,0.006,0.399,0.018,0.604,0.022c-2.496,2.276-4.838,4.768-7.216,7.234c-1.66,1.714-3.352,3.446-5.131,5.047
				c-1.953,0.019-3.906,0.036-5.849,0.097c-0.92,0.022-1.846,0.035-2.766,0.035c3.07-4.115,7.162-7.126,11.367-10.46
				c0.83-0.663,1.619-1.35,2.39-2.061C616.49-236.211,618.701-236.181,620.852-236.133z M345.857-235.715
				c-2.013,1.396-3.584,3.333-5.125,5.221c-1.613,1.977-3.16,4.031-5.083,5.699c-0.448,0.382-0.878,0.674-1.32,0.967h-0.191
				c-2.527-0.018-5.155-0.148-7.682-0.281c-0.371-0.022-0.735-0.041-1.105-0.059c2.108-2.145,4.54-4.109,6.833-5.908
				c2.293-1.804,4.582-3.613,6.744-5.561c2.455-0.149,4.916-0.293,7.377-0.396C346.144-235.924,345.988-235.811,345.857-235.715z
				 M374.804-235.583c-0.454,0.364-0.902,0.734-1.338,1.099c-0.968,0.802-1.947,1.602-2.879,2.443
				c-2.861,2.58-5.938,5.189-8.679,7.992c-0.962,0.035-1.929,0.07-2.891,0.107c-1.386,0.047-2.771,0.071-4.164,0.09
				c3.357-3.102,6.499-6.445,9.796-9.617c0.866-0.844,1.816-1.696,2.819-2.521C369.936-235.87,372.373-235.732,374.804-235.583z
				 M631.245-235.583c-0.454,0.364-0.902,0.734-1.339,1.099c-0.967,0.802-1.947,1.602-2.879,2.443
				c-2.861,2.58-5.938,5.189-8.674,7.992c-0.968,0.035-1.936,0.07-2.896,0.107c-1.386,0.047-2.771,0.071-4.163,0.09
				c3.356-3.102,6.499-6.445,9.796-9.617c0.866-0.844,1.816-1.696,2.819-2.521C626.377-235.87,628.812-235.732,631.245-235.583z
				 M602.298-235.715c-2.013,1.396-3.584,3.333-5.125,5.221c-1.612,1.977-3.16,4.031-5.083,5.699
				c-0.448,0.382-0.878,0.674-1.32,0.967c-0.064,0-0.132,0-0.19,0c-2.526-0.018-5.154-0.148-7.683-0.281
				c-0.369-0.022-0.733-0.041-1.104-0.059c2.108-2.145,4.539-4.109,6.833-5.908c2.294-1.804,4.582-3.613,6.744-5.561
				c2.455-0.149,4.916-0.293,7.377-0.396C602.585-235.924,602.43-235.811,602.298-235.715z M331.187-231.175
				c-2.097,1.647-4.116,3.429-6.039,5.28c-0.478,0.453-1.093,1.033-1.661,1.625c-2.192-0.133-4.391-0.281-6.583-0.448
				c1.177-0.985,2.341-1.972,3.398-3.095c2.127-2.275,4.862-5.316,7.646-6.994c2.808-0.264,5.627-0.484,8.458-0.669
				C334.747-234.007,332.918-232.543,331.187-231.175z M587.628-231.175c-2.097,1.647-4.116,3.429-6.039,5.28
				c-0.479,0.453-1.094,1.033-1.661,1.625c-2.191-0.133-4.391-0.281-6.582-0.448c1.178-0.985,2.342-1.972,3.398-3.095
				c2.127-2.275,4.862-5.316,7.634-6.988c2.819-0.27,5.639-0.49,8.471-0.675C591.188-234.007,589.359-232.543,587.628-231.175z
				 M384.952-234.914c-3.094,2.664-6.2,5.322-9.265,8.004c-0.985,0.854-2.037,1.619-3.088,2.389
				c-2.885,0.146-5.765,0.275-8.655,0.39c0.233-0.216,0.46-0.431,0.687-0.64c2.796-2.617,5.621-5.012,8.608-7.431
				c1.278-1.034,2.598-2.024,3.913-3.011c0.089-0.072,0.185-0.145,0.274-0.209C379.947-235.261,382.45-235.094,384.952-234.914z
				 M641.394-234.914c-3.095,2.664-6.199,5.322-9.265,8.004c-0.985,0.854-2.037,1.619-3.088,2.389
				c-2.886,0.146-5.765,0.275-8.656,0.39c0.233-0.216,0.461-0.431,0.688-0.64c2.796-2.617,5.621-5.012,8.606-7.431
				c1.278-1.034,2.6-2.024,3.912-3.011c0.09-0.072,0.187-0.145,0.275-0.209C636.388-235.261,638.891-235.094,641.394-234.914z
				 M398.786-233.689c-0.244,0.125-0.479,0.244-0.698,0.37c-1.947,1.058-3.751,2.532-5.531,3.858
				c-2.061,1.535-4.014,2.615-6.332,3.656c-0.221,0.09-0.364,0.279-0.412,0.494c-3.411,0.24-6.81,0.442-10.208,0.629
				c2.097-1.619,4.151-3.279,6.207-4.994c1.947-1.637,3.996-3.398,6.081-5.023C391.499-234.431,395.125-234.072,398.786-233.689z
				 M655.229-233.689c-0.245,0.125-0.479,0.244-0.698,0.37c-1.947,1.058-3.752,2.532-5.531,3.858
				c-2.062,1.535-4.015,2.615-6.332,3.656c-0.221,0.09-0.364,0.279-0.412,0.494c-3.411,0.24-6.81,0.442-10.209,0.629
				c2.097-1.619,4.151-3.279,6.207-4.994c1.947-1.637,3.996-3.398,6.08-5.023C647.94-234.431,651.566-234.072,655.229-233.689z
				 M323.684-233.319c-2.556,2.651-5.382,6.224-8.512,8.458c-1.081-0.09-2.156-0.186-3.238-0.287
				c-1.32-0.125-2.628-0.293-3.93-0.459c2.784-2.557,5.52-5.377,8.47-7.699c0.096-0.084,0.197-0.161,0.298-0.239
				c2.718-0.354,5.436-0.675,8.166-0.955C324.49-234.12,324.066-233.726,323.684-233.319z M531.55-232.943
				c-0.161,0.036-0.322,0.091-0.472,0.167c-0.084,0.03-0.155,0.072-0.229,0.114c0.008-0.437,0.02-0.872,0.03-1.297
				c0.006-0.023,0.012-0.042,0.019-0.06c0.019-0.119,0.042-0.232,0.065-0.354C531.149-233.899,531.347-233.421,531.55-232.943z
				 M580.125-233.319c-2.557,2.651-5.382,6.224-8.512,8.458c-1.081-0.09-2.156-0.186-3.238-0.287
				c-1.319-0.125-2.628-0.293-3.93-0.459c2.783-2.557,5.52-5.377,8.47-7.699c0.096-0.084,0.197-0.161,0.299-0.239
				c2.718-0.354,5.437-0.675,8.165-0.955C580.932-234.12,580.508-233.726,580.125-233.319z M304.76-233.982
				c-4.044,0.718-8.076,1.481-12.108,2.287c-1.804,0.354-3.596,0.717-5.394,1.094l-1.475-0.765l-0.144-0.071
				c1.481-0.244,2.963-0.483,4.444-0.711c4.94-0.782,9.928-1.458,14.933-2.03C304.939-234.114,304.85-234.049,304.76-233.982z
				 M561.201-233.982c-4.044,0.718-8.075,1.481-12.107,2.287c-1.804,0.354-3.596,0.717-5.395,1.094l-1.576-0.817l-0.042-0.019
				c1.481-0.244,2.963-0.483,4.444-0.711c4.938-0.782,9.928-1.458,14.933-2.03C561.381-234.114,561.291-234.049,561.201-233.982z
				 M400.788-233.475c6.897,0.859,13.856,1.936,20.793,3.219c0.734,0.126,1.451-0.154,1.905-0.68
				c1.786,0.203,3.571,0.404,5.376,0.615c-0.257,0.047-0.496,0.088-0.741,0.137c-5.059,0.896-10.106,1.595-15.195,2.287
				c-1.744,0.239-3.507,0.389-5.251,0.627c-1.11,0.149-2.258,0.229-3.375,0.354c-3.339,0.376-6.696,0.633-10.041,0.955
				c-1.738,0.168-3.477,0.299-5.215,0.425c0.078-0.048,0.149-0.09,0.227-0.138c0.681-0.454,1.476-0.801,2.168-1.254
				c1.768-1.159,3.763-2.42,5.394-3.752c0.538-0.441,1.117-0.842,1.661-1.278c0.621-0.501,1.278-1.045,1.959-1.553
				C400.561-233.499,400.674-233.486,400.788-233.475z M657.229-233.475c6.899,0.859,13.858,1.936,20.793,3.219
				c0.735,0.126,1.452-0.154,1.906-0.68c1.786,0.203,3.572,0.404,5.363,0.615c-0.238,0.047-0.483,0.088-0.729,0.137
				c-5.059,0.896-10.105,1.595-15.195,2.287c-1.744,0.239-3.506,0.389-5.25,0.627c-1.111,0.149-2.258,0.229-3.375,0.354
				c-3.339,0.376-6.696,0.633-10.041,0.955c-1.738,0.168-3.478,0.299-5.215,0.425c0.076-0.048,0.148-0.09,0.227-0.138
				c0.682-0.454,1.476-0.801,2.169-1.254c1.768-1.159,3.763-2.42,5.395-3.752c0.537-0.441,1.116-0.842,1.66-1.278
				c0.621-0.501,1.277-1.045,1.959-1.553C657.002-233.499,657.115-233.486,657.229-233.475z M568.405-231.42
				c-1.917,1.895-3.841,3.787-5.854,5.572c-0.06-0.006-0.12-0.012-0.18-0.019c-2.132-0.263-4.229-0.704-6.344-1.045
				c-0.824-0.137-1.708-0.312-2.6-0.514c2.414-1.806,4.904-2.664,7.604-4.021c0.263-0.137,0.52-0.279,0.775-0.43
				c2.784-0.454,5.579-0.878,8.375-1.267C569.576-232.579,568.984-231.999,568.405-231.42z M311.964-231.42
				c-1.917,1.895-3.841,3.787-5.854,5.572c-0.06-0.006-0.12-0.012-0.179-0.019c-2.132-0.263-4.229-0.704-6.344-1.045
				c-0.824-0.137-1.708-0.312-2.598-0.514c2.413-1.806,4.904-2.664,7.604-4.021c0.263-0.137,0.52-0.279,0.776-0.43
				c2.784-0.454,5.579-0.878,8.375-1.267C313.135-232.579,312.543-231.999,311.964-231.42z M274.356-232.148
				c-0.03,0.007-0.06,0.013-0.083,0.019c0.018-0.03,0.036-0.061,0.048-0.09C274.332-232.196,274.344-232.173,274.356-232.148z
				 M295.424-228.596c-0.227,0.174-0.352,0.432-0.364,0.693c-0.436-0.113-0.86-0.232-1.266-0.353
				c-1.082-0.322-2.109-0.627-3.106-0.962c0.406-0.077,0.812-0.155,1.219-0.233c2.204-0.437,4.414-0.854,6.619-1.254
				C297.425-230.1,296.368-229.432,295.424-228.596z M551.865-228.596c-0.228,0.174-0.354,0.432-0.364,0.693
				c-0.437-0.113-0.86-0.232-1.267-0.353c-1.081-0.322-2.108-0.627-3.106-0.962c0.406-0.077,0.812-0.155,1.219-0.233
				c2.204-0.437,4.414-0.854,6.618-1.248C553.866-230.1,552.809-229.432,551.865-228.596z M286.536-226.736l1.762,0.68l-0.979-0.209
				c-1.631-0.375-3.256-0.77-4.875-1.176c0-0.029,0-0.055,0.006-0.078c0.568-0.125,1.141-0.25,1.708-0.369
				C284.923-227.466,285.717-227.09,286.536-226.736z M542.977-226.736l1.764,0.68l-0.979-0.209
				c-1.637-0.375-3.262-0.77-4.875-1.176c0.006-0.029,0.006-0.055,0.014-0.084c0.562-0.125,1.129-0.25,1.701-0.363
				C541.364-227.466,542.158-227.084,542.977-226.736z M427.446-223.564c-3.101,0.054-6.188,0.131-9.246,0.232
				c1.039-0.203,2.103-0.43,3.146-0.676c2.336-0.555,4.701-1.057,7.05-1.618C428.074-224.939,427.757-224.252,427.446-223.564z
				 M681.396-223.518c-2.271,0.047-4.527,0.113-6.785,0.19c1.068-0.209,2.133-0.437,3.178-0.682
				c1.505-0.363,3.021-0.698,4.533-1.039C682.019-224.533,681.707-224.025,681.396-223.518z M557.307-221.594
				c-0.196,0.09-0.173,0.227-0.102,0.352c0.18,0.335,0.615,0.461,0.95,0.281c0.028-0.018,0.06-0.029,0.096-0.048
				c3.841,0.675,7.705,1.278,11.6,1.81c-3.638-0.059-7.264-0.189-10.9-0.279c-6.009-0.162-12.065-0.627-18.075-1.178
				c-0.054-0.154-0.107-0.311-0.161-0.466l-1.271-3.883C545.253-223.541,551.064-222.305,557.307-221.594z M300.764-221.254v0.012
				c0.179,0.335,0.615,0.461,0.95,0.281c0.03-0.018,0.06-0.035,0.09-0.048c3.853,0.675,7.717,1.278,11.612,1.81
				c-3.638-0.059-7.27-0.189-10.907-0.279c-5.573-0.149-11.188-0.562-16.767-1.059c-0.89-1.492-1.798-2.98-2.706-4.455
				C288.925-223.518,294.821-222.264,300.764-221.254z M420.56-208.314c-0.859,1.66-1.715,3.333-2.562,5.011
				c-4.868,9.599-9.521,19.36-13.847,29.216c-3.352,7.634-6.589,15.387-9.677,23.129c-2.066,5.179-4.146,10.363-6.248,15.53
				c-1.314,3.231-2.562,6.493-3.841,9.737c-2.891,7.317-5.758,14.641-8.637,21.964c-2.36,5.997-4.809,11.958-7.192,17.944
				c-1.093,2.748-2.204,5.513-3.351,8.243c-0.144,0.329-0.287,0.663-0.424,0.998c-3.566,0.179-7.096,0.639-10.495,1.5
				c-0.603-1.5-1.212-2.999-1.822-4.492c-1.714-4.181-3.524-8.339-5.292-12.496c-3.028-7.108-6.075-14.21-9.175-21.289
				c-6.768-15.441-13.589-30.918-20.811-46.156c-8.745-18.458-17.598-36.862-27.687-54.638c-1.105-1.947-2.234-3.877-3.381-5.794
				c3.255,0.28,6.511,0.531,9.778,0.753c3.625,0.244,7.27,0.369,10.901,0.495c4.432,0.149,8.864,0.257,13.302,0.306
				c1.876,0.215,3.77,0.424,5.669,0.614c4.468,0.448,9.026,0.573,13.512,0.747c6.361,0.244,12.873,0.357,19.234,0.174
				c3.333-0.097,6.661-0.27,9.988-0.395c8.44-0.317,16.827-1.268,25.213-2.193c6.254-0.691,12.473-1.72,18.667-2.849
				c4.928-0.287,9.88-0.567,14.832-0.808C424.968-218.152,422.752-213.243,420.56-208.314z M680.829-222.609
				c-1.804,2.851-3.565,5.908-5.196,8.864c-3.021,5.483-6.01,10.943-8.937,16.48c-2.735,5.179-5.389,10.465-7.962,15.728
				c-3.022,6.176-6.004,12.359-8.96,18.565c-4.415,9.271-8.603,18.667-12.844,28.015c-8.853,19.521-17.293,39.227-25.519,59.017
				c-0.103,0.227-0.197,0.459-0.292,0.693c-2.688-0.615-5.43-0.992-8.082-1.183c-0.837-0.065-1.679-0.107-2.521-0.143
				c-0.472-1.141-0.938-2.288-1.396-3.429c-2.599-6.427-5.215-12.854-7.771-19.3c-3.96-9.994-7.849-20.017-11.82-30.004
				c-2.21-5.556-4.372-11.135-6.63-16.672c-2.146-5.256-4.312-10.501-6.471-15.758c-2.18-5.322-4.448-10.656-6.803-15.901
				c-1.428-3.178-2.896-6.332-4.385-9.468c0.012,0.018,0.029,0.036,0.054,0.06c0.263,0.4,0.818,0.514,1.219,0.25
				c0.399-0.263,0.515-0.818,0.251-1.218c-0.92-1.959-1.805-3.955-2.825-5.866c-1.027-1.924-2.204-3.757-3.255-5.657
				c-1.744-3.148-3.346-6.255-4.936-9.485c-1.744-3.549-3.285-7.246-4.646-11.021c3.738,0.334,7.479,0.627,11.234,0.885
				c3.626,0.244,7.271,0.369,10.901,0.495c4.433,0.148,8.857,0.258,13.291,0.305c1.881,0.215,3.774,0.426,5.681,0.615
				c4.468,0.448,9.025,0.573,13.513,0.747c6.36,0.244,12.871,0.356,19.232,0.173c3.334-0.096,6.661-0.269,9.988-0.394
				c8.438-0.317,16.826-1.269,25.213-2.193c6.254-0.692,12.473-1.72,18.679-2.849c4.05-0.245,8.118-0.473,12.197-0.682
				C680.961-222.824,680.896-222.717,680.829-222.609z M669.893-196.769c-3.423,7.246-6.965,14.438-10.446,21.653
				c-4.402,9.115-8.835,18.219-13.279,27.382c5.048-11.523,10.185-22.872,15.561-34.204c2.485-5.239,5.071-10.501,7.748-15.644
				c2.544-4.892,5.083-9.832,7.789-14.652C674.82-207.072,672.329-201.93,669.893-196.769z M295.782-197.719
				c2.742,5.239,5.334,10.597,7.891,15.931c2.449,5.113,4.88,10.238,7.216,15.405c2.801,6.206,5.549,12.424,8.219,18.529
				c-0.317-0.651-0.693-1.428-1.069-2.204c-5.956-12.281-11.911-24.557-17.842-36.844c0.292-0.287,0.353-0.758,0.125-1.111
				c-0.92-1.959-1.804-3.955-2.826-5.866c-1.027-1.924-2.204-3.757-3.255-5.657c-0.263-0.478-0.525-0.95-0.759-1.38
				c-1.684-3.542-3.345-7.043-5.023-10.531C290.962-206.898,293.381-202.312,295.782-197.719z M490.185-85.02l2.031,0.669
				l-0.042-0.006L490.185-85.02z M492.216-84.351l0.938,0.239h-0.019l0.095,0.024l-0.076-0.024l0.042,0.006l0.034,0.018h0.008
				c0.286,0.114,0.572,0.239,0.865,0.371l-1.827-0.609L492.216-84.351z M489.91-80.737l1.935,0.562
				c-1.569,1.619-3.11,3.244-4.659,4.91c-1.575,1.685-3.075,3.464-4.558,5.262c-0.692-0.197-1.397-0.298-2.12-0.352
				c-3.781-0.305-6.792,2.646-8.23,5.866c-0.525,1.171-0.949,2.455-1.011,3.823c-0.07,1.523,0.181,2.951,0.688,4.253
				c-0.729,0.932-1.464,1.863-2.192,2.801c-0.132,0.167-0.106,0.418,0.061,0.549c0.167,0.132,0.418,0.108,0.55-0.06
				c0.645-0.824,1.302-1.643,1.965-2.449c1.04,2.061,2.79,3.751,5.042,4.928c1.589,0.83,3.273,1.35,5.077,1.404
				c1.978,0.06,3.273-0.245,5.006-1.171c2.712-1.452,4.343-4.809,4.038-7.843c-0.024-0.257-0.054-0.55-0.096-0.836
				c0.502-0.55,1.016-1.087,1.528-1.607c0.836-0.854,1.738-1.726,2.526-2.616c1.41-1.595,2.729-3.303,3.954-5.042
				c0.466-0.657,0.872-1.404,1.313-2.084c0.216-0.353,0.107-0.831-0.244-1.045c-0.354-0.215-0.83-0.108-1.046,0.245
				c-0.453,0.615-0.812,1.362-1.235,2.001c-0.371,0.562-0.831,1.117-1.219,1.673c-0.878,1.26-2.062,2.365-2.945,3.596
				c-0.884,1.225-1.965,2.485-2.938,3.65c-0.012,0.006-0.023,0.018-0.029,0.03c-0.328-0.932-0.682-1.696-1.123-2.401l-0.364-0.501
				l-0.06-0.173c-0.155-0.43-0.328-0.854-0.418-1.003c-0.065-0.108-0.133-0.209-0.191-0.311c1.165-1.326,2.342-2.658,3.596-3.876
				c0.866-0.842,1.715-1.708,2.575-2.557c1.2-1.177,2.515-2.282,3.774-3.393c0.061-0.06,0.119-0.114,0.186-0.167
				c1.439,1.696,2.58,3.56,3.53,5.776c-0.299,1.039,0.06,2.204,0.979,2.867l0.316,1.117l0.19,1.846
				c0.097,1.463,0.078,2.938-0.035,4.098c-0.065,0.597-0.144,1.188-0.216,1.78c-0.018,0.018-0.035,0.036-0.048,0.054
				c-1.75,1.738-3.632,3.477-5.286,5.298c-0.144,0.144-0.144,0.382,0,0.526h0.525c0.818-0.896,1.732-1.762,2.604-2.61
				c0.675-0.663,1.355-1.32,2.049-1.965c-0.299,1.995-1.045,4.026-1.625,5.932c-0.328,1.069-1.075,2.688-1.624,3.68
				c-0.753,1.355-1.446,2.568-2.324,3.847c-1.493,2.168-3.435,4.241-5.639,5.943l-0.938,0.597l-0.4,0.221
				c-0.347-1.165-1.707-1.929-2.957-1.493c-0.729,0.251-1.193,0.836-1.498,1.499l-0.061,0.239l-0.209,0.597l-0.155,0.759
				l-0.023,0.078l-0.83,0.203l-2.433,0.287c-0.022-0.741-0.064-1.487-0.143-2.187c-0.048-0.4-0.186-1.009-0.316-1.386
				c-0.065-0.191-0.209-0.496-0.244-0.687c-0.133-0.693-0.467-1.416-1.195-1.672c-1.093-0.382-2.515,0.382-2.515,1.601
				c0,0.245,0.148,0.669,0.353,1.141l0.065,0.197c-0.264-0.323-0.412-0.681-0.437-1.123c-0.437,1.326-0.441,2.533-0.389,3.799
				c-0.842-0.173-1.66-0.394-2.419-0.639c-9.856-3.261-16.653-14.467-16.074-24.664l0.347-2.545l0.013-0.095
				c0.524-0.55,1.058-1.099,1.583-1.643c2.562-2.658,5.102-5.352,7.688-7.986c2.275-2.317,4.402-4.761,6.643-7.102
				c0.168-0.185,0.197-0.454,0.097-0.669c1.087-0.406,2.186-0.753,3.303-1.034l0.341-0.065l2.76,0.705
				c0.383,0.114,0.795-0.095,0.908-0.478c0.055-0.191,0.029-0.395-0.054-0.556l-0.329-0.275l-0.316,0.024
				c0.097-0.018,0.197-0.03,0.294-0.042C485.292-81.191,487.64-81.173,489.91-80.737z M493.237-79.536l0.041,0.024l1.583,0.926
				l2.729,2.354c0.097,0.09,0.19,0.185,0.286,0.281c-3.471,3.1-6.66,6.744-9.581,10.334c-1.146-1.655-2.323-2.843-4.283-3.829
				C486.995-72.894,490.035-76.298,493.237-79.536z M482.641-78.276c-1.703,1.087-3.053,2.449-4.479,3.853
				c-2.837,2.784-5.412,5.8-8.059,8.769c-2.85,3.202-5.681,6.475-8.445,9.749c-0.162,0.191-0.145,0.484,0.048,0.646
				c0.189,0.161,0.482,0.143,0.645-0.048c2.378-2.808,4.81-5.579,7.275-8.309c1.738-1.923,3.435-3.883,5.239-5.74
				c1.296-1.338,2.592-2.688,3.93-3.99c0.693-0.675,1.458-1.326,2.121-2.025c1.219-1.284,2.358-2.599,3.554-3.901
				C483.823-79.237,483.178-78.616,482.641-78.276z M469.499-73.407c-1.953,2.072-3.948,4.139-5.943,6.188
				c0.232-0.609,0.232-1.296-0.013-1.917c1.876-2.861,4.421-5.406,7.294-7.413l1.23-0.771l0.836-0.484
				c0.405-0.209,0.817-0.406,1.236-0.591C472.605-76.723,471.058-75.068,469.499-73.407z M598.953-66.526
				c-9.492,1.219-18.738,3.722-27.891,6.445c-7.943,2.359-15.828,4.952-23.762,7.365c-7.802,2.372-15.961,4.384-24.107,4.922
				c-2.986,0.197-6.828,0.114-9.784-0.609c-0.741-0.179-1.513-0.346-2.24-0.579c-0.836-0.269-1.619-0.609-2.443-0.902
				c-0.418-0.167-0.854-0.215-1.271-0.162c0.944-3.381,1.338-6.899,1.153-10.37c0.138-0.125,0.273-0.251,0.412-0.37
				c0.608-0.556,1.205-1.141,1.81-1.727c2.198,0.615,4.562,0.974,7.001,1.147c-1.261,1.135-2.317,2.425-3.542,3.757
				c-0.795,0.86-1.607,1.762-2.378,2.64c-0.472,0.538-1.075,1.027-1.559,1.565c-0.264,0.263-0.264,0.705,0,0.968h0.968
				c0.932-0.979,1.894-1.906,2.795-2.915c1.853-2.079,3.584-4.002,5.598-5.919h3.942c-1.75,1.667-3.488,3.56-4.617,5.692
				c-0.281,0.526-0.448,1.01-0.688,1.547c-0.112,0.298,0.036,0.651,0.335,0.764c0.3,0.114,0.65-0.036,0.766-0.334
				c0.83-2.813,3.648-5.232,5.633-7.251c0.161-0.167,0.322-0.334,0.483-0.502c2.599-0.149,5.148-0.424,7.538-0.74
				c-1.576,1.177-3.034,2.592-4.438,3.972c-0.556,0.543-1.034,1.183-1.583,1.732c-0.437,0.442-0.83,1.069-1.242,1.553
				c-0.556,0.657-1.285,1.672-1.709,2.419c-0.215,0.322-0.125,0.771,0.197,0.985c0.322,0.214,0.771,0.125,0.985-0.197
				c1.715-2.933,4.881-5.979,7.573-8.01c0.914-0.693,1.805-1.439,2.719-2.138c0.293-0.227,0.776-0.532,1.1-0.842
				c1.612-0.251,3.226-0.52,4.832-0.8c-3.811,2.616-6.277,6.75-8.889,10.543c-0.222,0.322-0.144,0.771,0.18,0.991
				c0.322,0.221,0.771,0.144,0.991-0.179c0.843-1.218,1.695-2.509,2.587-3.686c0.997-1.32,1.905-2.7,3.063-3.9
				c0.286-0.292,0.604-0.567,0.891-0.86c0.65-0.657,2.604-2.138,3.555-2.438c0.354-0.185,0.514-0.609,0.394-0.979
				c1.326-0.245,2.652-0.496,3.979-0.753c-2.419,2.109-4.928,4.803-6.696,7.371c-0.388,0.562-0.697,1.129-1.062,1.697
				c-0.244,0.424-0.107,0.979,0.316,1.225c0.425,0.245,0.979,0.107,1.226-0.317c0.304-0.663,0.907-1.493,1.354-2.066
				c1.362-1.745,2.825-3.214,4.428-4.761c1.057-1.021,2.222-1.941,3.291-2.957c0.305-0.299,0.598-0.609,0.871-0.932
				c1.793-0.358,3.584-0.723,5.37-1.082c-0.019,0.018-0.036,0.036-0.054,0.06c-0.807,0.758-1.721,1.589-2.438,2.431
				c-0.766,0.896-1.439,1.852-2.14,2.795c-0.566,0.765-1.499,2.073-1.881,2.957c-0.228,0.4-0.084,0.914,0.316,1.141
				c0.399,0.227,0.914,0.083,1.141-0.316c1.631-2.915,4.259-5.501,6.708-7.766c0.753-0.693,1.571-1.386,2.377-2.013
				c0.049-0.042,0.103-0.084,0.168-0.125c1.798-0.353,3.613-0.705,5.437-1.034c1.129-0.209,2.264-0.424,3.397-0.627
				c-0.758,0.508-2.09,1.541-2.389,1.762c-2.969,2.144-5.245,4.002-7.377,6.995c-0.329,0.442-0.239,1.081,0.203,1.41
				c0.44,0.329,1.081,0.239,1.408-0.203c1.702-2.694,4.81-4.964,7.354-6.786c0.418-0.299,2.288-1.571,2.473-1.906
				c0.161-0.287,0.233-0.8,0.264-1.129l0.048-0.334l-0.334-0.048c-0.062-0.012-0.114-0.023-0.168-0.036
				c2.24-0.406,4.485-0.806,8.697-1.398c-1.435,0.334-2.593,1.41-3.661,2.396c-1.519,1.386-3.279,3.279-4.528,4.916
				c-0.322,0.382-0.27,0.962,0.114,1.284c0.382,0.323,0.961,0.269,1.282-0.113c1.655-2.049,3.495-3.751,5.562-5.376
				c0.418-0.329,1.69-1.356,2.162-1.553c0.454-0.197,0.663-0.729,0.466-1.183c-0.137-0.317-0.436-0.514-0.746-0.538
				c2.349-0.347,4.707-0.645,7.09-0.86c2.861-0.269,5.621-0.442,8.375-0.49C597.46-70.301,598.206-68.42,598.953-66.526z
				 M605.428-71.89c1.394,0.12,2.719,0.37,4.062,0.621c-0.223,0.562-0.448,1.117-0.669,1.679c-0.358,0.771-0.718,1.541-1.075,2.312
				c-1.082,0.042-2.163,0.102-3.244,0.179c-0.717-1.667-1.422-3.333-2.126-5.006C603.385-72.058,604.4-71.986,605.428-71.89z
				 M372.343-71.825c-1.906,1.631-3.918,3.208-5.287,5.281c-0.221-0.03-0.436-0.06-0.657-0.084c0.741-1.87,1.476-3.733,2.216-5.597
				c1.332,0.024,2.664,0.078,3.996,0.155C372.522-71.986,372.432-71.908,372.343-71.825z M360.802-67.171
				c-0.986-0.072-1.965-0.12-2.951-0.155c-0.102-0.006-0.203-0.012-0.305-0.012c-0.437-0.956-0.872-1.906-1.309-2.85
				c-0.131-0.322-0.257-0.639-0.382-0.956c2.312-0.508,4.665-0.812,7.042-0.968C362.2-70.462,361.501-68.82,360.802-67.171z
				 M378.967-71.585c-1.177,1.272-2.24,2.736-3.189,3.99c-0.627,0.824-1.314,1.434-1.977,2.186c-0.012,0.006-0.018,0.018,0,0.03
				c-1.965-0.466-3.997-0.794-6.033-1.075c1.386-1.923,3.542-3.477,5.274-4.934c0.233-0.203,0.46-0.406,0.669-0.609
				C375.479-71.884,377.235-71.741,378.967-71.585z M385.598-70.731c0.525,0.072,1.045,0.155,1.571,0.233
				c-1.463,1.225-2.771,2.724-4.026,4.062c-0.55,0.585-1.099,1.195-1.685,1.738c-0.191,0.173-0.543,0.442-0.794,0.675
				c-1.834-0.43-3.68-0.83-5.525-1.194c0.394-0.406,0.812-0.801,1.183-1.225c1.529-1.792,2.724-3.53,4.432-4.97
				C382.366-71.227,384.002-70.97,385.598-70.731z M393.004-69.453c-1.649,1.613-2.461,3.793-3.578,5.771
				c-0.311,0.543-0.741,1.039-1.153,1.469l-0.125,0.107c-1.899-0.525-3.805-1.021-5.71-1.493c0.353-0.311,0.699-0.633,1.04-0.98
				c0.812-0.848,1.726-1.804,2.61-2.574c0.687-0.597,1.374-1.284,2.049-1.906c0.478-0.448,0.926-0.752,1.416-1.051
				C391.236-69.83,392.915-69.531,393.004-69.453z M588.345-66.407c-0.27,0.239-0.293,0.669-0.054,0.938
				c0.238,0.269,0.669,0.292,0.938,0.054c1.332-1.207,2.683-2.401,4.032-3.584c0.27-0.239,0.292-0.669,0.054-0.938
				s-0.669-0.292-0.938-0.054C591.026-68.808,589.677-67.613,588.345-66.407z M617.931-68.515c1.104,0.621,2.056,1.153,3.101,1.84
				c-0.525-0.072-1.059-0.138-1.589-0.191c-2.037-0.227-4.038-0.364-6.027-0.436c0.406-0.878,0.812-1.762,1.219-2.64
				C615.869-69.507,617.059-69.005,617.931-68.515z M351.914-67.297c-2.27,0.107-4.528,0.329-6.774,0.645
				c1.063-0.758,2.156-1.445,3.369-1.989c0.783-0.358,1.542-0.705,2.33-1.016C351.197-68.874,351.556-68.085,351.914-67.297z
				 M398.04-68.581c1.487,0.275,2.975,0.556,4.456,0.872c-1.589,0.92-3.22,2.808-4.349,4.241c-0.782,0.985-1.561,1.983-2.318,2.993
				c-0.125,0.161-0.257,0.316-0.394,0.478c-2.079-0.627-4.169-1.243-6.26-1.828c0.514-0.532,0.92-1.075,1.398-1.852
				c0.992-1.637,1.78-3.728,3.315-4.934c0.191-0.191,0.227-0.49,0.107-0.717C395.34-69.089,396.684-68.838,398.04-68.581z
				 M409.323-66.383c-0.155,0.144-0.306,0.287-0.437,0.418c-0.441,0.424-0.932,0.825-1.38,1.254
				c-1.643,1.583-3.101,3.458-4.218,5.448c-0.221,0.388-0.328,0.818-0.525,1.201c-0.042,0.102-0.048,0.215-0.028,0.323
				c-2.057-0.651-4.116-1.291-6.184-1.923c0.238-0.281,0.473-0.568,0.717-0.842c1.606-1.87,2.909-3.793,4.798-5.418
				c0.352-0.305,0.781-0.567,1.146-0.86c0.239-0.185,0.305-0.531,0.149-0.782C405.352-67.177,407.341-66.777,409.323-66.383z
				 M416.862-64.877c-0.245,0.161-0.49,0.322-0.735,0.484c-1.051,0.657-2.61,2.646-3.314,3.703
				c-0.495,0.741-1.088,1.673-1.648,2.342c-0.525,0.627-1.069,1.249-1.589,1.881c-0.228,0.251-0.203,0.646,0.048,0.873
				c0.251,0.227,0.646,0.203,0.872-0.048c0.609-0.711,1.177-1.368,1.763-2.103c1.978-2.473,2.896-4.641,5.765-6.248
				c0.196-0.137,0.311-0.364,0.305-0.591c1.637,0.317,3.272,0.633,4.916,0.944c1.583,0.293,3.166,0.55,4.755,0.794
				c-0.048,0.036-0.09,0.072-0.131,0.114c-1.101,0.914-2.224,1.798-3.321,2.718c-0.831,0.693-1.631,1.565-2.396,2.335
				c-1.435,1.439-2.797,3.022-3.842,4.772c-2.651-0.782-5.305-1.606-7.969-2.437c-2.204-0.693-4.408-1.392-6.612-2.084
				c0.061-0.06,0.103-0.125,0.139-0.203c0.203-0.831,1.045-2.037,1.541-2.694c1.553-2.055,3.638-4.044,5.645-5.71
				C412.985-65.648,414.921-65.26,416.862-64.877z M461.387-64.991c0.042-0.102,0.084-0.209,0.132-0.311
				c0-0.012,0-0.018,0.007-0.024c0.148-0.083,0.299-0.173,0.441-0.263C461.775-65.391,461.578-65.188,461.387-64.991z
				 M508.839-63.157c0.39,0.144,0.783,0.281,1.189,0.406c-0.21,0.155-0.419,0.311-0.628,0.472c-0.299,0.221-0.592,0.454-0.885,0.693
				c-0.054-0.597-0.125-1.188-0.215-1.78C508.475-63.294,508.654-63.229,508.839-63.157z M481.302-62.966l-0.022,0.023l-0.599,0.149
				C480.884-62.871,481.093-62.93,481.302-62.966z M484.582-61.885c0.137,0.107,0.273,0.233,0.405,0.364
				c-1.66,2.055-3.333,4.109-4.971,6.176c-0.346-0.215-0.681-0.49-1.016-0.83c-0.154-0.161-0.28-0.388-0.441-0.543
				c-0.167-0.162-0.274-0.496-0.395-0.699c-0.167-0.281-0.437-1.099-0.396-1.421c0.036-0.275,0.056-0.478,0.078-0.681l0.065-0.382
				l3.244-2.867l0.112-0.161l0.007-0.012h0.012l0.012-0.023C482.348-63.139,483.459-62.805,484.582-61.885z M432.321-62.195
				c1.26,0.191,2.538,0.328,3.815,0.448c-0.022,0.024-0.048,0.042-0.07,0.066c-0.975,0.788-1.918,1.678-2.879,2.497
				c-1.896,1.619-4.386,3.799-5.712,5.908c-0.196,0.263-0.144,0.639,0.119,0.836c0.264,0.197,0.641,0.143,0.837-0.12
				c1.821-2.575,4.469-4.838,6.924-6.792c0.89-0.717,1.72-1.5,2.579-2.234c0.3,0.024,0.599,0.048,0.902,0.078
				c0.968,0.078,2.001,0.149,3.082,0.197c-1.911,2.132-3.793,4.319-5.155,6.798c-0.44,0.8-1.039,1.846-1.277,2.729
				c-0.113,0.293,0.029,0.627,0.322,0.741c0.292,0.114,0.627-0.03,0.74-0.322c1.069-3.339,4.002-6.35,6.344-8.853
				c0.312-0.34,0.621-0.687,0.927-1.034c1.2,0.018,2.426,0.006,3.638-0.047c-2.371,2.766-4.635,5.663-6.146,9.001
				c-0.148,0.293-0.034,0.657,0.258,0.807c0.293,0.149,0.656,0.036,0.807-0.257c0.341-0.598,0.621-1.249,0.968-1.84
				c0.347-0.585,0.746-1.177,1.123-1.744c1.206-1.804,2.783-3.399,4.193-5.036c0.311-0.364,0.627-0.723,0.942-1.081
				c1.499-0.144,2.945-0.371,4.26-0.705c0.322-0.089,0.646-0.173,0.962-0.257c-0.222,1.571-0.209,3.22-0.007,4.898
				c-1.045,1.26-2.065,2.544-3.033,3.858c-0.155,0.197-0.12,0.496,0.077,0.651c0.196,0.155,0.495,0.119,0.65-0.078
				c0.83-1.045,1.648-2.103,2.491-3.13c0.322,1.858,0.848,3.733,1.521,5.573l0.39,0.95c-1.714,0.622-3.315,1.213-5.173,1.481
				c-1.571,0.221-3.333,0.52-4.922,0.49c-0.879-0.018-1.764,0.03-2.636,0.006c-1.756-0.054-3.542-0.257-5.286-0.437
				c-3.027-0.311-6.283-0.997-9.246-1.702c-3.536-0.842-7.007-1.786-10.459-2.795c1.637-2.443,3.889-4.199,6.183-6.027
				c1.553-1.249,3.034-2.55,4.479-3.895C430.672-62.446,431.496-62.321,432.321-62.195z M618.611-62.166l5.131,0.83l0.669,0.173
				c3.333,3.381,4.396,9.581,3.858,13.912c-0.054,0.382-0.107,0.812-0.186,1.254c-0.257,0.693-0.562,1.362-0.908,2.001
				c-1.104,2.019-2.747,4.146-4.671,5.448c-0.399,0.239-0.836,0.472-1.183,0.723c-0.078,0.048-0.149,0.096-0.223,0.149
				c-1.396,0.788-2.692,1.272-4.114,1.565c-0.37-0.09-0.724-0.233-1.081-0.353c-0.245-0.083-0.782-0.353-0.985-0.508
				c-0.466-0.358-0.908-0.663-1.303-1.045l0.956-3.99c0.084-0.334-0.113-0.687-0.448-0.771c-0.334-0.083-0.687,0.114-0.771,0.448
				c-0.28,0.926-0.495,1.929-0.795,2.879c-0.335-0.562-0.55-1.027-0.837-1.81c-0.064-0.173-0.125-0.347-0.173-0.532
				c0.842-0.395,1.451-0.932,2.21-1.667c2.61-2.551,3.311-7.449,3.07-10.943c-0.09-1.32-0.305-2.67-0.818-3.889
				c-0.144-0.334-0.269-0.872-0.572-1.093c-0.466-0.341-1.153-0.604-1.673-0.89c-0.901-0.496-1.792-0.974-2.706-1.505
				c0.096-0.257,0.196-0.508,0.299-0.765C613.785-62.548,616.21-62.435,618.611-62.166z M354.25-61.753
				c-0.992,0.573-2.001,1.123-3.017,1.667c-0.364,0.197-1.189,0.508-1.452,0.83c-0.173,0.215-0.311,0.604-0.406,0.86
				c-0.119,0.323-0.281,0.627-0.382,0.956c-0.334,1.111-0.507,2.79-0.514,3.955c-0.012,3.172,0.424,6.392,2.294,9.056
				c0.203,0.292,0.424,0.657,0.693,0.89c0.221,0.191,0.52,0.514,0.741,0.735c0.382,0.376,1.033,0.747,1.577,1.003
				c-0.09,0.334-0.203,0.669-0.329,0.998c-0.036,0.078-0.072,0.167-0.114,0.263c-0.06-0.209-0.119-0.418-0.179-0.622
				c-0.078-0.257-0.298-0.92-0.311-1.159c-0.083-0.334-0.43-0.538-0.765-0.454c-0.334,0.084-0.538,0.43-0.454,0.765
				c0.018,0.353,0.293,1.129,0.371,1.529c0.107,0.549,0.221,1.153,0.358,1.75c-0.131,0.173-0.263,0.329-0.388,0.442
				c-0.185,0.161-0.323,0.364-0.502,0.52c-0.37,0.322-0.758,0.562-1.117,0.86c-0.299,0.25-1.021,0.448-1.386,0.627
				c-0.083,0.036-0.179,0.072-0.28,0.102c-2.641-0.669-4.934-2.121-6.923-4.02c-0.621-0.591-1.571-1.732-1.983-2.479
				c-0.592-1.081-1.267-2.043-1.661-3.244c-0.317-0.967-0.591-1.81-0.825-2.807c-0.149-0.622-0.25-1.272-0.311-1.924
				c0.203-3.673,1.153-7.138,3.465-10.005c0.054-0.078,0.119-0.149,0.185-0.227c0.567-0.185,1.141-0.341,1.762-0.442
				c1.69-0.4,3.44-0.579,5.167-0.8c2.084-0.269,4.217-0.406,6.361-0.43C354.034-62.291,354.142-62.022,354.25-61.753z
				 M485.901-60.38l0.311,0.556l0.054,0.807c-0.022,0.173-0.047,0.406-0.064,0.639l-0.036,0.615l-0.041,0.155
				c-0.245,0.854-0.765,2.317-1.464,2.574l-0.228,0.149c-0.425,0.311-1.805,0.484-2.317,0.358c-0.525-0.131-0.985-0.269-1.409-0.454
				c1.129-1.368,2.264-2.724,3.387-4.092c0.479-0.598,0.975-1.195,1.477-1.786C485.681-60.702,485.794-60.547,485.901-60.38z
				 M363.819-60.069l0.018,0.012l0.406,0.353l0.048,2.055c0.036,2.15-0.006,4.373-0.514,6.421c-0.083-0.203-0.161-0.406-0.239-0.604
				c0.346-0.669,0.388-1.481,0.06-2.216c-0.382-0.848-0.765-1.69-1.147-2.539C362.905-57.751,363.359-58.91,363.819-60.069z
				 M602.877-56.593c-0.376,0.849-0.752,1.69-1.116,2.545c-0.329,0.717-0.293,1.511,0.029,2.174c-0.077,0.197-0.161,0.4-0.251,0.603
				c-0.555-2.443-0.567-5.328-0.479-7.598l0.084-0.884c0.113-0.113,0.232-0.215,0.364-0.311
				C601.964-58.91,602.424-57.751,602.877-56.593z M342.225-48.559c0.573,1.332,1.613,2.168,2.706,3.046
				c0.245,0.191,0.609,0.149,0.8-0.095c0.191-0.245,0.149-0.609-0.096-0.801c-0.932-0.747-1.792-1.451-2.15-2.646
				c-0.036-0.125-0.119-0.281-0.125-0.4c-0.006-0.203-0.072-0.466-0.107-0.669c-0.048-0.292,0.03-0.896,0.083-1.188
				c0.382-2.067,2.641-5.149,4.444-6.212c0.538-0.388,0.663-1.147,0.275-1.685c-0.388-0.538-1.147-0.663-1.685-0.274
				C342.798-57.273,340.487-52.62,342.225-48.559z M617.309-59.221c-0.394,0.532-0.273,1.296,0.258,1.69
				c1.869,1.183,4.295,4.396,4.517,6.63c0.065,0.639-0.061,1.225-0.228,1.828c-0.358,1.284-1.23,1.828-2.133,2.664
				c-0.244,0.191-0.287,0.556-0.096,0.801c0.19,0.245,0.556,0.287,0.8,0.095c0.257-0.245,0.586-0.448,0.854-0.681
				c0.781-0.681,1.727-1.834,2.037-2.843c1.319-4.259-0.836-8.004-4.318-10.441C618.468-59.872,617.703-59.752,617.309-59.221z
				 M612.189-58.845l1.487,1.028l0.238,1.021c0.113,0.466,0.209,0.938,0.245,1.368c0.221,2.801,0.102,5.436-1.226,7.98
				c-0.395,0.747-0.962,1.547-1.659,2.162c0.209-3.16,1.36-6.696,2.515-8.858c0.424-0.979-0.024-2.132-1.004-2.557
				c-0.023-0.012-0.048-0.024-0.065-0.006c0.125-0.149,0.103-0.329,0.055-0.502L612.189-58.845z M353.079-58.803l-0.502,1.613
				c-0.054,0.167-0.071,0.34-0.071,0.514c-0.932,0.442-1.356,1.559-0.944,2.521c1.129,2.526,2.33,5.8,2.509,8.912
				c-0.842-0.705-1.422-1.732-1.989-2.927c-1.171-2.461-1.266-6.021-0.639-8.835l0.215-0.8L353.079-58.803z M609.454-56.216
				c0.102,0.358,0.322,0.663,0.604,0.878c-0.628,1.338-1.158,2.759-1.57,4.217c-0.28-0.711-0.562-1.428-0.843-2.138
				c0.203-0.496,0.406-0.986,0.615-1.463c0.322-0.771,0.64-1.553,0.943-2.336C609.287-56.784,609.358-56.485,609.454-56.216z
				 M357.654-53.176c-0.275,0.699-0.55,1.398-0.824,2.103c-0.412-1.421-0.944-2.825-1.547-4.259
				c0.293-0.215,0.514-0.526,0.627-0.902c0.078-0.263,0.131-0.543,0.209-0.812C356.627-55.75,357.141-54.466,357.654-53.176z
				 M632.033-53.779c0.012,0.651-0.048,1.595-0.228,2.21c-0.048,0.155-0.084,0.329-0.12,0.496c0.229-1.428,0.264-2.903,0.145-4.39
				C631.956-54.944,632.021-54.388,632.033-53.779z M334.352-51.67c-0.287-1.374-0.311-2.628-0.03-3.781
				C334.215-54.173,334.227-52.907,334.352-51.67z M606.259-48.009c0.238,0.609,0.812,0.992,1.435,1.021
				c-0.091,0.866-0.126,1.732-0.108,2.586c-0.19-0.042-0.376-0.096-0.579-0.149l-0.608-0.161l-0.585-0.382
				c-0.384-0.263-0.712-0.508-1.053-0.789c0.323-0.979,0.795-1.977,1.171-2.951C606.037-48.559,606.145-48.284,606.259-48.009z
				 M360.599-45.847c-0.257,0.209-0.52,0.395-0.783,0.574l-0.86,0.555l-1.171,0.341c-0.018,0-0.03,0-0.042,0.006
				c0.024-0.902-0.012-1.768-0.102-2.616c0.627-0.024,1.213-0.406,1.458-1.021c0.102-0.269,0.203-0.532,0.305-0.794
				C359.799-47.818,360.193-46.832,360.599-45.847z M481.876-36.594l-0.186,0.203l0.221-0.49c0.114-0.263,0.228-0.532,0.329-0.807
				C482.222-37.245,482.085-36.88,481.876-36.594z M484.265-21.72c-0.144,2.234-0.405,4.6-0.394,6.833
				c0.006,1.655-0.084,3.381-0.126,5.042c-0.061,2.527-0.012,5.077,0,7.61c0.03,5.328,0.257,10.657,0.454,15.979
				c0.257,6.941,0.55,13.882,0.817,20.817c0.091,2.354,0.125,4.713,0.133,7.078l-0.024,5.137l-4.552-0.06
				c-0.585-0.006-1.171-0.006-1.75-0.006c0.179-11.995,1.193-23.959,2.294-35.9c0.334-3.638,0.65-7.275,0.974-10.913
				c0.251-2.826,0.521-5.657,0.657-8.488c0.316-6.654,0.382-13.333,0.286-19.999c0.682-0.066,1.368-0.167,2.037-0.299
				C484.677-26.511,484.414-24.104,484.265-21.72z M477.192-23.984c0.106,0.579,0.562,1.009,1.11,1.117
				c-0.019,3.745-0.106,7.485-0.209,11.23c-0.161,5.961-0.222,11.923-0.383,17.884c-0.113,4.092-0.273,8.189-0.394,12.281
				c-0.271,9.402-0.688,18.792-0.753,28.206c-0.837,0.012-1.674,0.03-2.51,0.065l-3.327,0.215l0.4-2.187
				c0.245-1.481,0.424-2.98,0.646-4.468c0.746-5.035,1.08-10.333,1.392-15.417c0.156-2.533,0.168-5.035,0.216-7.568
				c0.113-6.027,0.125-12.102,0.399-18.123c0.21-4.582,0.521-9.043,0.933-13.607c0.388-4.331,1.129-8.727,2.007-13.04
				C476.786-26.218,476.947-25.018,477.192-23.984z"/>
		</g>
	</g>
</g>
</svg>
